<svg xmlns="http://www.w3.org/2000/svg" xmlns:xlink="http://www.w3.org/1999/xlink" width="108" height="108" viewBox="0 0 108 108">
  <defs>
    <filter id="Trazado_904820" x="0" y="0" width="108" height="108" filterUnits="userSpaceOnUse">
      <feOffset dy="3" input="SourceAlpha"/>
      <feGaussianBlur stdDeviation="3" result="blur"/>
      <feFlood flood-opacity="0.161"/>
      <feComposite operator="in" in2="blur"/>
      <feComposite in="SourceGraphic"/>
    </filter>
  </defs>
  <g id="Grupo_1233197" data-name="Grupo 1233197" transform="translate(-196 -4521)">
    <g id="Grupo_1232503" data-name="Grupo 1232503" transform="translate(0 4067)">
      <g id="Grupo_1230499" data-name="Grupo 1230499" transform="translate(1 -357)">
        <g id="Grupo_1228101" data-name="Grupo 1228101" transform="translate(204 817)">
          <g id="Grupo_1227366" data-name="Grupo 1227366">
            <g id="Grupo_1224979" data-name="Grupo 1224979">
              <g id="Grupo_1173585" data-name="Grupo 1173585" transform="translate(0 0)">
                <g id="Grupo_1173428" data-name="Grupo 1173428">
                  <g id="Grupo_1171958" data-name="Grupo 1171958">
                    <g id="Grupo_1167341" data-name="Grupo 1167341">
                      <g id="Grupo_1166792" data-name="Grupo 1166792">
                        <g transform="matrix(1, 0, 0, 1, -9, -6)" filter="url(#Trazado_904820)">
                          <g id="Trazado_904820-2" data-name="Trazado 904820" transform="translate(9 6)" fill="#fef9e5">
                            <path d="M 44.99999618530273 88.50003051757812 C 39.12687301635742 88.50003051757812 33.43022155761719 87.35010528564453 28.06829643249512 85.08219146728516 C 22.88852119445801 82.89134216308594 18.23629570007324 79.75461578369141 14.24084663391113 75.75916290283203 C 10.24540901184082 71.76371765136719 7.108683586120605 67.11148834228516 4.917821407318115 61.93171691894531 C 2.649921178817749 56.56978988647461 1.499996185302734 50.87313842773438 1.499996185302734 45.00001525878906 C 1.499996185302734 39.12689208984375 2.649921178817749 33.43024063110352 4.917821407318115 28.06830215454102 C 7.108683586120605 22.88852691650391 10.24540901184082 18.23631477355957 14.24084663391113 14.24086570739746 C 18.23629570007324 10.24541568756104 22.88852119445801 7.10869026184082 28.06829643249512 4.917827606201172 C 33.43022155761719 2.649927854537964 39.12687301635742 1.50000274181366 44.99999618530273 1.50000274181366 C 50.87311935424805 1.50000274181366 56.56977081298828 2.649927854537964 61.93169784545898 4.917827606201172 C 67.11147308349609 7.10869026184082 71.76369476318359 10.24541568756104 75.75914764404297 14.24086570739746 C 79.75458526611328 18.23631477355957 82.89131164550781 22.88852691650391 85.08216857910156 28.06830215454102 C 87.35007476806641 33.43024063110352 88.5 39.12689208984375 88.5 45.00001525878906 C 88.5 50.87313842773438 87.35007476806641 56.56978988647461 85.08216857910156 61.93171691894531 C 82.89131164550781 67.11148834228516 79.75458526611328 71.76371765136719 75.75914764404297 75.75916290283203 C 71.76369476318359 79.75461578369141 67.11147308349609 82.89134216308594 61.93169784545898 85.08219146728516 C 56.56977081298828 87.35010528564453 50.87311935424805 88.50003051757812 44.99999618530273 88.50003051757812 Z" stroke="none"/>
                            <path d="M 44.99999618530273 3 C 39.32870864868164 3 33.82865142822266 4.110061645507812 28.65262603759766 6.299346923828125 C 23.65165710449219 8.414573669433594 19.15968322753906 11.44334411621094 15.301513671875 15.301513671875 C 11.44333648681641 19.15968322753906 8.414566040039062 23.65165710449219 6.299339294433594 28.65262985229492 C 4.110054016113281 33.82867050170898 2.999992370605469 39.32872772216797 2.999992370605469 45.00001525878906 C 2.999992370605469 50.67130279541016 4.110054016113281 56.17136001586914 6.299339294433594 61.34738922119141 C 8.414566040039062 66.34837341308594 11.44333648681641 70.84033203125 15.301513671875 74.69850158691406 C 19.15968322753906 78.55668640136719 23.65165710449219 81.58545684814453 28.65262603759766 83.70068359375 C 33.82865142822266 85.88996887207031 39.32870864868164 87.00003051757812 44.99999618530273 87.00003051757812 C 50.67128372192383 87.00003051757812 56.17134094238281 85.88996887207031 61.34736633300781 83.70068359375 C 66.34834289550781 81.58545684814453 70.84030914306641 78.55668640136719 74.69847869873047 74.69850158691406 C 78.55665588378906 70.84033203125 81.58542633056641 66.34837341308594 83.70065307617188 61.34738922119141 C 85.88993835449219 56.17136001586914 87 50.67130279541016 87 45.00001525878906 C 87 39.32872772216797 85.88993835449219 33.82867050170898 83.70065307617188 28.65262985229492 C 81.58542633056641 23.65165710449219 78.55665588378906 19.15968322753906 74.69847869873047 15.301513671875 C 70.84030914306641 11.44334411621094 66.34834289550781 8.414573669433594 61.34736633300781 6.299346923828125 C 56.17134094238281 4.110061645507812 50.67128372192383 3 44.99999618530273 3 M 44.99999618530273 0 C 69.85281372070312 0 90 20.14718627929688 90 45.00001525878906 C 90 69.85282897949219 69.85281372070312 90.00003051757812 44.99999618530273 90.00003051757812 C 20.14717864990234 90.00003051757812 -7.62939453125e-06 69.85282897949219 -7.62939453125e-06 45.00001525878906 C -7.62939453125e-06 20.14718627929688 20.14717864990234 0 44.99999618530273 0 Z" stroke="none" fill="#866d08"/>
                          </g>
                        </g>
                      </g>
                    </g>
                  </g>
                </g>
              </g>
            </g>
          </g>
        </g>
      </g>
    </g>
    <g id="Filled_outline" data-name="Filled outline" transform="translate(206.824 4528.577)">
      <path id="Trazado_1221873" data-name="Trazado 1221873" d="M91.623,72h36.234a3.623,3.623,0,0,1,3.623,3.623v28.082a2.718,2.718,0,0,1-2.718,2.718H90.718A2.718,2.718,0,0,1,88,103.705V75.623A3.623,3.623,0,0,1,91.623,72Z" transform="translate(-63.847 -49.659)" fill="#4db7e5"/>
      <path id="Trazado_1221874" data-name="Trazado 1221874" d="M432.906,72H432v34.423h1.812V72.114A3.63,3.63,0,0,0,432.906,72Z" transform="translate(-368.895 -49.659)" fill="#48add9"/>
      <path id="Trazado_1221875" data-name="Trazado 1221875" d="M158.8,24H131.623A3.623,3.623,0,0,0,128,27.623V65.67h34.423V27.623A3.623,3.623,0,0,0,158.8,24Z" transform="translate(-99.318 -7.094)" fill="#348fd9"/>
      <path id="Trazado_1221876" data-name="Trazado 1221876" d="M173.064,100,140,133.064h33.064Z" transform="translate(-109.959 -74.488)" fill="#3086cd"/>
      <path id="Trazado_1221877" data-name="Trazado 1221877" d="M199.552,131.776q0,.457-.034.906a11.761,11.761,0,0,1-10.1,10.756c-.242.035-.487.061-.734.08q-.448.034-.906.034t-.906-.034c-.247-.019-.491-.045-.734-.08a11.626,11.626,0,0,1-2.742-.728,11.775,11.775,0,0,1-7.36-10.028q-.034-.448-.034-.906t.034-.906a11.762,11.762,0,0,1,9.975-10.738q.426-.065.862-.1t.906-.034q.457,0,.906.034c.247.019.491.045.734.08a11.622,11.622,0,0,1,2.74.727,11.816,11.816,0,0,1,6.069,5.5,11.682,11.682,0,0,1,1.293,4.529Q199.552,131.319,199.552,131.776Z" transform="translate(-141.883 -92.224)" fill="#4db7e5"/>
      <path id="Trazado_1221878" data-name="Trazado 1221878" d="M199.518,132.682q.034-.448.034-.906t-.034-.906h-4.512a23.039,23.039,0,0,0-.621-4.529h3.84a11.7,11.7,0,0,0-1.166-1.812h-3.2a18.63,18.63,0,0,0-1.705-3.688,11.62,11.62,0,0,0-2.74-.727l.632.815a15.868,15.868,0,0,1,1.89,3.6h-3.255v-4.5q-.448-.034-.906-.034t-.906.034v4.5h-3.255a15.808,15.808,0,0,1,1.9-3.613c.011-.015.02-.031.031-.045l.463-.738a11.661,11.661,0,0,0-2.612.709,18.571,18.571,0,0,0-1.705,3.688h-3.2a11.7,11.7,0,0,0-1.166,1.812h3.84a23.018,23.018,0,0,0-.621,4.529h-4.512q-.034.448-.034.906t.034.906h4.513a22.7,22.7,0,0,0,.865,5.435H177.85a11.822,11.822,0,0,0,1.429,1.812h2.747a17.626,17.626,0,0,0,1.368,2.781,11.626,11.626,0,0,0,2.742.728l-.632-.816a15,15,0,0,1-1.518-2.693h2.884v3.589q.448.034.906.034t.906-.034v-3.589h2.884a14.943,14.943,0,0,1-1.518,2.693l-.632.816a11.625,11.625,0,0,0,2.742-.728,17.523,17.523,0,0,0,1.368-2.781h2.747a11.821,11.821,0,0,0,1.429-1.812H194.14a22.736,22.736,0,0,0,.865-5.435Zm-12.648,5.435h-3.563a20.708,20.708,0,0,1-.947-5.435h4.51Zm0-7.247h-4.511a21.049,21.049,0,0,1,.676-4.529h3.835Zm5.375,7.247h-3.563v-5.435h4.51a20.752,20.752,0,0,1-.947,5.435Zm-3.563-7.247v-4.529h3.835a21.082,21.082,0,0,1,.676,4.529Z" transform="translate(-141.883 -92.224)" fill="#60d1e0"/>
      <path id="Trazado_1221879" data-name="Trazado 1221879" d="M101.518,360.906a3.093,3.093,0,0,1-2.187.906h-7.4a3.093,3.093,0,0,1-2.187-.906A3.093,3.093,0,0,0,87.555,360H72v2.718a2.718,2.718,0,0,0,2.718,2.718h41.67a2.718,2.718,0,0,0,2.718-2.718V360h-15.4a3.093,3.093,0,0,0-2.187.906Z" transform="translate(-49.659 -305.048)" fill="#e0e0de"/>
      <path id="Trazado_1221880" data-name="Trazado 1221880" d="M434.718,360v2.718A2.718,2.718,0,0,1,432,365.435h3.623a2.718,2.718,0,0,0,2.718-2.718V360Z" transform="translate(-368.895 -305.048)" fill="#d6d6d4"/>
      <path id="Trazado_1221881" data-name="Trazado 1221881" d="M49.364,354.038v11.323a2.013,2.013,0,0,1-.279,1.027,2.034,2.034,0,0,1-1.76,1.011H26.038a2.034,2.034,0,0,1-1.76-1.011A2.013,2.013,0,0,1,24,365.361V354.038a2.013,2.013,0,0,1,.279-1.027A2.034,2.034,0,0,1,26.038,352H47.326a2.034,2.034,0,0,1,1.76,1.011,2.013,2.013,0,0,1,.279,1.027Z" transform="translate(-7.094 -297.954)" fill="#ffb531"/>
      <path id="Trazado_1221882" data-name="Trazado 1221882" d="M51.267,353.011c-2.8,1.561-7.316,2.575-12.4,2.575s-9.6-1.013-12.4-2.575A2.034,2.034,0,0,1,28.22,352H49.507A2.034,2.034,0,0,1,51.267,353.011Z" transform="translate(-9.276 -297.954)" fill="#ffcb73"/>
      <path id="Trazado_1221883" data-name="Trazado 1221883" d="M51.267,458.9a2.034,2.034,0,0,1-1.76,1.011H28.22a2.034,2.034,0,0,1-1.76-1.011c2.8-1.562,7.316-2.575,12.4-2.575S48.462,457.343,51.267,458.9Z" transform="translate(-9.276 -390.47)" fill="#ffa912"/>
      <path id="Trazado_1221884" data-name="Trazado 1221884" d="M57.964,216A9.964,9.964,0,0,0,48,225.964V231.4h3.623v-5.435a6.341,6.341,0,0,1,12.682,0V231.4h3.623v-5.435A9.964,9.964,0,0,0,57.964,216Z" transform="translate(-28.377 -177.354)" fill="#e0e0de"/>
      <path id="Trazado_1221885" data-name="Trazado 1221885" d="M117.432,394.625a2.718,2.718,0,1,0-3.623,2.551v1.979h1.812v-1.979A2.713,2.713,0,0,0,117.432,394.625Z" transform="translate(-85.127 -333.332)" fill="#95573a"/>
      <path id="Trazado_1221886" data-name="Trazado 1221886" d="M126.2,54.046h-.906V25.964a4.534,4.534,0,0,0-4.529-4.529v-.906A4.534,4.534,0,0,0,116.234,16H89.059a4.534,4.534,0,0,0-4.529,4.529v.906A4.534,4.534,0,0,0,80,25.964v10.87h1.812V25.964a2.721,2.721,0,0,1,2.718-2.718V35.929h1.812v-15.4a2.721,2.721,0,0,1,2.718-2.718h27.176a2.721,2.721,0,0,1,2.718,2.718v30.8h1.812V23.247a2.721,2.721,0,0,1,2.718,2.718V54.046H110.8a3.967,3.967,0,0,0-2.824,1.171,2.179,2.179,0,0,1-1.552.641h-4.683V57.67h4.683a3.979,3.979,0,0,0,2.833-1.171,2.168,2.168,0,0,1,1.543-.641h14.494V57.67a1.814,1.814,0,0,1-1.812,1.812H101.741v1.812h21.741A3.628,3.628,0,0,0,127.1,57.67V54.952a.906.906,0,0,0-.906-.906Z" transform="translate(-56.753)"/>
      <path id="Trazado_1221887" data-name="Trazado 1221887" d="M120,272h1.812v6.341H120Z" transform="translate(-92.224 -227.012)"/>
      <path id="Trazado_1221888" data-name="Trazado 1221888" d="M159.995,48h1.812v1.812h-1.812Z" transform="translate(-127.69 -28.377)"/>
      <path id="Trazado_1221889" data-name="Trazado 1221889" d="M191.995,48h1.812v1.812h-1.812Z" transform="translate(-156.067 -28.377)"/>
      <path id="Trazado_1221890" data-name="Trazado 1221890" d="M223.995,48h1.812v1.812h-1.812Z" transform="translate(-184.443 -28.377)"/>
      <path id="Trazado_1221891" data-name="Trazado 1221891" d="M160,80h27.176v1.812H160Z" transform="translate(-127.695 -56.753)"/>
      <path id="Trazado_1221892" data-name="Trazado 1221892" d="M180.57,135.194c-.192-.049-.385-.105-.574-.166l-.554,1.725c.223.072.45.137.671.194a12.681,12.681,0,1,0-7.451-19.094A12.522,12.522,0,0,0,171,121.758l1.763.417a10.707,10.707,0,0,1,1.168-2.926h2.8a23.142,23.142,0,0,0-.638,5.435c0,.627.025,1.261.075,1.884l1.806-.144c-.022-.276-.039-.555-.05-.834h4.51v5.435h-2.718v1.812h2.718v2.677a10.848,10.848,0,0,1-1.866-.32Zm9.953-2.357a10.914,10.914,0,0,1-2.062,1.432c.228-.463.439-.94.63-1.432Zm1.643-1.812H189.7a22.781,22.781,0,0,0,.866-5.435h3.6A10.679,10.679,0,0,1,192.167,131.025ZM180.9,114.094a10.821,10.821,0,0,1,1.539-.239v3.583h-3.253A16.018,16.018,0,0,1,180.9,114.094Zm3.351-.239a10.839,10.839,0,0,1,1.539.239,16.017,16.017,0,0,1,1.714,3.343h-3.253Zm3.834,5.395a21.069,21.069,0,0,1,.676,4.529h-4.51v-4.529Zm6.092,4.529h-3.6a22.988,22.988,0,0,0-.62-4.529h2.8a10.767,10.767,0,0,1,1.421,4.529Zm-2.734-6.341h-2.014a19.46,19.46,0,0,0-.973-2.351,10.769,10.769,0,0,1,2.986,2.351Zm-13.209-2.351a19.464,19.464,0,0,0-.972,2.351h-2.014A10.768,10.768,0,0,1,178.231,115.086Zm-.3,8.692a21.061,21.061,0,0,1,.676-4.529h3.834v4.529Zm6.322,1.812h4.51a20.75,20.75,0,0,1-.948,5.435h-3.562Zm2.882,7.247a15.107,15.107,0,0,1-1.341,2.437,10.8,10.8,0,0,1-1.541.24v-2.677Z" transform="translate(-137.449 -85.132)"/>
      <path id="Trazado_1221893" data-name="Trazado 1221893" d="M40.458,223.418V218.87a10.87,10.87,0,1,0-21.741,0v4.547A3.05,3.05,0,0,0,16,226.446v11.119a3.05,3.05,0,0,0,3.046,3.046H40.13a3.05,3.05,0,0,0,3.046-3.046V226.446a3.05,3.05,0,0,0-2.718-3.028Zm-10.87-13.606a9.069,9.069,0,0,1,9.059,9.059V223.4H36.835V218.87a7.247,7.247,0,1,0-14.494,0V223.4H20.529V218.87A9.069,9.069,0,0,1,29.588,209.812ZM35.023,223.4H24.153V218.87a5.435,5.435,0,1,1,10.87,0Zm6.341,14.165A1.236,1.236,0,0,1,40.13,238.8H19.046a1.236,1.236,0,0,1-1.234-1.234V226.446a1.236,1.236,0,0,1,1.234-1.234H40.13a1.236,1.236,0,0,1,1.234,1.234Z" transform="translate(0 -170.259)"/>
      <path id="Trazado_1221894" data-name="Trazado 1221894" d="M114.724,392a2.718,2.718,0,0,0-.906,5.279v1.967h1.812v-1.967a2.718,2.718,0,0,0-.906-5.279Zm0,3.623a.906.906,0,1,1,.906-.906A.906.906,0,0,1,114.724,395.623Z" transform="translate(-85.136 -333.425)"/>
    </g>
  </g>
</svg>
