<svg xmlns="http://www.w3.org/2000/svg" width="350.997" height="336.53" viewBox="0 0 350.997 336.53">
  <g id="Grupo_1235118" data-name="Grupo 1235118" transform="translate(-630.976 -775.836)">
    <g id="Trazado_1225177" data-name="Trazado 1225177" transform="translate(617 757)" fill="#fff" opacity="0.71">
      <path d="M 333.99560546875 313.5 L 33.00437927246094 313.5 C 29.92774200439453 313.5 27.07069778442383 312.7192993164062 24.51251602172852 311.1796875 C 22.12606048583984 309.743408203125 20.11774253845215 307.686767578125 18.70465087890625 305.2320861816406 C 17.29156112670898 302.7774353027344 16.52156066894531 300.0079040527344 16.47787857055664 297.2229614257812 C 16.43110656738281 294.2375793457031 17.19074249267578 291.3748474121094 18.73569679260254 288.7142639160156 L 169.2312927246094 29.55012893676758 C 170.7698364257812 26.90067291259766 172.869873046875 24.82762718200684 175.47314453125 23.38858222961426 C 177.9024200439453 22.04571914672852 180.6780548095703 21.33594703674316 183.4999694824219 21.33594703674316 C 186.3218841552734 21.33594703674316 189.0975189208984 22.04571914672852 191.5267944335938 23.38858222961426 C 194.1300659179688 24.82762718200684 196.2301483154297 26.90067291259766 197.7686920166016 29.55012893676758 L 348.2643432617188 288.7142639160156 C 349.8092956542969 291.3748168945312 350.5689392089844 294.237548828125 350.5221557617188 297.222900390625 C 350.4784545898438 300.0079040527344 349.7084655761719 302.7774047851562 348.2953796386719 305.2320861816406 C 346.8822937011719 307.6867065429688 344.8739318847656 309.743408203125 342.4874572753906 311.1796875 C 339.9292907714844 312.7192993164062 337.0722351074219 313.5 333.99560546875 313.5 Z" stroke="none"/>
      <path d="M 183.4999694824219 23.83587646484375 C 181.1000213623047 23.83587646484375 178.7426147460938 24.43780517578125 176.6826171875 25.5765380859375 C 174.4809722900391 26.7935791015625 172.7013092041016 28.55288696289062 171.3932189941406 30.8055419921875 L 20.89761352539062 289.9696960449219 C 19.58395385742188 292.2318420410156 18.93795776367188 294.6589965820312 18.97756958007812 297.1837463378906 C 19.01461791992188 299.5453491210938 19.66940307617188 301.8971557617188 20.87127685546875 303.9848022460938 C 22.0731201171875 306.0724792480469 23.77801513671875 307.8197937011719 25.80166625976562 309.0376892089844 C 27.96511840820312 310.3397827148438 30.38845825195312 311 33.00436401367188 311 L 333.99560546875 311 C 336.6115112304688 311 339.0348510742188 310.3397827148438 341.1983032226562 309.0376892089844 C 343.2220153808594 307.8197326660156 344.9269104003906 306.0724792480469 346.1287536621094 303.9848022460938 C 347.3306274414062 301.8970947265625 347.9854125976562 299.5453491210938 348.0223999023438 297.1837463378906 C 348.06201171875 294.6589965820312 347.416015625 292.2318420410156 346.1023559570312 289.9696960449219 L 195.6067657470703 30.8055419921875 C 194.2986602783203 28.55288696289062 192.5190124511719 26.7935791015625 190.3173675537109 25.5765380859375 C 188.2573699951172 24.43780517578125 185.8999176025391 23.83587646484375 183.4999694824219 23.83587646484375 M 183.4999847412109 18.83590698242188 C 189.8843994140625 18.83590698242188 196.2688140869141 21.98883056640625 199.9306182861328 28.294677734375 L 350.4262084960938 287.4588317871094 C 357.7817077636719 300.1254272460938 348.6429748535156 316 333.99560546875 316 L 33.00436401367188 316 C 18.35702514648438 316 9.21832275390625 300.1254272460938 16.57376098632812 287.4588317871094 L 167.0693664550781 28.294677734375 C 170.7311706542969 21.98883056640625 177.1155853271484 18.83590698242188 183.4999847412109 18.83590698242188 Z" stroke="none" fill="#5c2c88"/>
    </g>
    <path id="Trazado_1225178" data-name="Trazado 1225178" d="M33.675,32H28.943V10.994h4.731Zm23.672,0H52.571L43.914,18.8a19.086,19.086,0,0,1-1.055-1.743H42.8q.117,1.113.117,3.4V32H38.45V10.994h5.1l8.335,12.788q.571.864,1.055,1.714H53a22.459,22.459,0,0,1-.117-2.886V10.994h4.468ZM76.9,14.847H70.911V32H66.165V14.847H60.2V10.994H76.9ZM92.327,32h-12.6V10.994H91.843v3.853H84.461V19.52h6.87v3.838h-6.87v4.8h7.866Zm20.61-1.406a15.117,15.117,0,0,1-7.646,1.772A11.059,11.059,0,0,1,97.3,29.561a10.205,10.205,0,0,1-2.922-7.727,10.787,10.787,0,0,1,3.193-8.071,11.634,11.634,0,0,1,8.5-3.12,17.257,17.257,0,0,1,5.889.923V16a11.7,11.7,0,0,0-5.947-1.406,6.385,6.385,0,0,0-4.8,1.912,7.022,7.022,0,0,0-1.853,5.1,7.043,7.043,0,0,0,1.663,5.01,5.86,5.86,0,0,0,4.49,1.772,6.25,6.25,0,0,0,2.7-.483v-4.1H104V20.032h8.936ZM134.646,32h-5.435l-3.267-5.405q-.366-.615-.7-1.1a6.1,6.1,0,0,0-.681-.828,2.709,2.709,0,0,0-.718-.527,1.822,1.822,0,0,0-.813-.183h-1.274V32h-4.731V10.994h7.5q7.646,0,7.646,5.713a5.916,5.916,0,0,1-.337,2.029,5.636,5.636,0,0,1-.952,1.677,6.036,6.036,0,0,1-1.487,1.289,7.668,7.668,0,0,1-1.941.85v.059a3.011,3.011,0,0,1,.908.476,6.5,6.5,0,0,1,.85.769A10.735,10.735,0,0,1,130,24.8q.374.505.681.989ZM121.756,14.539v5.845h2.051a3.4,3.4,0,0,0,2.446-.879,2.933,2.933,0,0,0,.938-2.212q0-2.754-3.3-2.754ZM141.341,32h-4.731V10.994h4.731Zm4.775,0V10.994h7.441q11.191,0,11.191,10.239a10.354,10.354,0,0,1-3.054,7.837A11.262,11.262,0,0,1,153.557,32Zm4.731-17.153V28.162h2.344a6.333,6.333,0,0,0,4.827-1.846,7,7,0,0,0,1.75-5.024,6.353,6.353,0,0,0-1.736-4.724,6.618,6.618,0,0,0-4.871-1.721ZM186.253,32H181.1L179.6,27.327h-7.471L170.652,32h-5.127l7.646-21.006h5.61Zm-7.734-8.306-2.256-7.061a9.2,9.2,0,0,1-.352-1.89h-.117a8.012,8.012,0,0,1-.366,1.831l-2.285,7.119ZM188.875,32V10.994h7.441q11.191,0,11.191,10.239a10.354,10.354,0,0,1-3.054,7.837A11.262,11.262,0,0,1,196.316,32Zm4.731-17.153V28.162h2.344a6.333,6.333,0,0,0,4.827-1.846,7,7,0,0,0,1.75-5.024,6.353,6.353,0,0,0-1.736-4.724,6.618,6.618,0,0,0-4.871-1.721Z" transform="translate(610.719 992.095) rotate(-60)" fill="#5c2c88"/>
    <path id="Trazado_1225179" data-name="Trazado 1225179" d="M6.758,32V10.994H14.2q11.191,0,11.191,10.239a10.354,10.354,0,0,1-3.054,7.837A11.262,11.262,0,0,1,14.2,32Zm4.731-17.153V28.162h2.344a6.333,6.333,0,0,0,4.827-1.846,7,7,0,0,0,1.75-5.024,6.353,6.353,0,0,0-1.736-4.724A6.618,6.618,0,0,0,13.8,14.847ZM33.608,32H28.877V10.994h4.731Zm3.809-.806V26.507a9.007,9.007,0,0,0,2.769,1.6,8.9,8.9,0,0,0,3.018.535,6.692,6.692,0,0,0,1.56-.161,3.654,3.654,0,0,0,1.113-.447,1.949,1.949,0,0,0,.667-.674,1.681,1.681,0,0,0,.22-.842,1.821,1.821,0,0,0-.352-1.1,3.783,3.783,0,0,0-.959-.894,10.025,10.025,0,0,0-1.443-.791q-.835-.381-1.8-.776a9.2,9.2,0,0,1-3.669-2.5,5.469,5.469,0,0,1-1.208-3.574,5.693,5.693,0,0,1,.659-2.82,5.6,5.6,0,0,1,1.794-1.941A8.046,8.046,0,0,1,42.412,11a13.511,13.511,0,0,1,3.164-.359,19.031,19.031,0,0,1,2.908.2,11.435,11.435,0,0,1,2.336.608v4.38a7.065,7.065,0,0,0-1.15-.645,9.11,9.11,0,0,0-1.282-.461,9.777,9.777,0,0,0-1.311-.271,9.279,9.279,0,0,0-1.238-.088,6.455,6.455,0,0,0-1.465.154,3.757,3.757,0,0,0-1.113.432,2.15,2.15,0,0,0-.7.667,1.58,1.58,0,0,0-.249.872,1.665,1.665,0,0,0,.278.945,3.193,3.193,0,0,0,.791.791,8.394,8.394,0,0,0,1.245.732q.732.359,1.655.74a18.445,18.445,0,0,1,2.263,1.121,8.046,8.046,0,0,1,1.721,1.34,5.221,5.221,0,0,1,1.1,1.707,6.03,6.03,0,0,1,.381,2.234,5.984,5.984,0,0,1-.667,2.952,5.411,5.411,0,0,1-1.809,1.934,7.845,7.845,0,0,1-2.659,1.062,15.365,15.365,0,0,1-3.2.322,17.8,17.8,0,0,1-3.289-.293A9.927,9.927,0,0,1,37.417,31.194Zm22.515-6.431V32H55.2V10.994h7.412q7.939,0,7.939,6.694a6.423,6.423,0,0,1-2.278,5.12,9.024,9.024,0,0,1-6.086,1.956Zm0-10.137v6.548h1.86q3.779,0,3.779-3.311,0-3.237-3.779-3.237ZM82.5,32.366a9.778,9.778,0,0,1-7.354-2.937,10.544,10.544,0,0,1-2.842-7.654A11.3,11.3,0,0,1,75.2,13.719a9.991,9.991,0,0,1,7.646-3.076,9.534,9.534,0,0,1,7.273,2.944,10.855,10.855,0,0,1,2.776,7.764,11.118,11.118,0,0,1-2.878,7.983A9.879,9.879,0,0,1,82.5,32.366Zm.205-17.651a4.763,4.763,0,0,0-3.955,1.868,7.787,7.787,0,0,0-1.465,4.944,7.644,7.644,0,0,0,1.465,4.937,5.055,5.055,0,0,0,7.72.051,7.56,7.56,0,0,0,1.436-4.9,8.192,8.192,0,0,0-1.392-5.083A4.537,4.537,0,0,0,82.71,14.715ZM115.273,32H110.5l-8.657-13.2a19.086,19.086,0,0,1-1.055-1.743h-.059q.117,1.113.117,3.4V32H96.377V10.994h5.1l8.335,12.788q.571.864,1.055,1.714h.059a22.459,22.459,0,0,1-.117-2.886V10.994h4.468Zm9.536,0h-4.731V10.994h4.731Zm4.775,0V10.994h7.646a9.549,9.549,0,0,1,5.405,1.289,4.146,4.146,0,0,1,1.89,3.633,4.3,4.3,0,0,1-1.15,2.974,6.041,6.041,0,0,1-2.937,1.772v.059a5.821,5.821,0,0,1,3.582,1.655,4.629,4.629,0,0,1,1.34,3.354,5.607,5.607,0,0,1-2.065,4.578A8.643,8.643,0,0,1,137.656,32Zm4.731-17.52v4.98h2.08a3.467,3.467,0,0,0,2.307-.71,2.421,2.421,0,0,0,.842-1.956q0-2.314-3.457-2.314Zm0,8.5v5.537h2.563a3.945,3.945,0,0,0,2.571-.762,2.545,2.545,0,0,0,.93-2.08,2.374,2.374,0,0,0-.916-1.978,4.05,4.05,0,0,0-2.556-.718ZM153.55,32h-4.731V10.994h4.731Zm17.285,0h-12.51V10.994h4.731V28.162h7.778Zm7.559,0h-4.731V10.994h4.731Zm4.775,0V10.994h7.441q11.191,0,11.191,10.239a10.354,10.354,0,0,1-3.054,7.837A11.262,11.262,0,0,1,190.61,32ZM187.9,14.847V28.162h2.344a6.333,6.333,0,0,0,4.827-1.846,7,7,0,0,0,1.75-5.024,6.353,6.353,0,0,0-1.736-4.724,6.618,6.618,0,0,0-4.871-1.721ZM223.306,32h-5.156l-1.494-4.673h-7.471L207.705,32h-5.127l7.646-21.006h5.61Zm-7.734-8.306-2.256-7.061a9.2,9.2,0,0,1-.352-1.89h-.117a8.012,8.012,0,0,1-.366,1.831L210.2,23.694ZM225.928,32V10.994h7.441q11.191,0,11.191,10.239a10.354,10.354,0,0,1-3.054,7.837A11.262,11.262,0,0,1,233.369,32Zm4.731-17.153V28.162H233a6.333,6.333,0,0,0,4.827-1.846,7,7,0,0,0,1.75-5.024,6.353,6.353,0,0,0-1.736-4.724,6.618,6.618,0,0,0-4.871-1.721Z" transform="translate(868.909 788.579) rotate(60)" fill="#098576"/>
    <path id="Trazado_1225180" data-name="Trazado 1225180" d="M27.09,31.253a13.852,13.852,0,0,1-6.006,1.113,10.123,10.123,0,0,1-7.6-2.842,10.388,10.388,0,0,1-2.769-7.573,11.1,11.1,0,0,1,3.113-8.174A10.888,10.888,0,0,1,21.9,10.643a15.108,15.108,0,0,1,5.186.776v4.556a9.188,9.188,0,0,0-4.8-1.26,6.374,6.374,0,0,0-4.775,1.86,6.9,6.9,0,0,0-1.816,5.039,6.771,6.771,0,0,0,1.714,4.856,6.055,6.055,0,0,0,4.614,1.809,9.842,9.842,0,0,0,5.068-1.348Zm12.173,1.113a9.778,9.778,0,0,1-7.354-2.937,10.544,10.544,0,0,1-2.842-7.654,11.3,11.3,0,0,1,2.886-8.057A9.991,9.991,0,0,1,39.6,10.643a9.534,9.534,0,0,1,7.273,2.944,10.855,10.855,0,0,1,2.776,7.764,11.118,11.118,0,0,1-2.878,7.983A9.879,9.879,0,0,1,39.263,32.366Zm.205-17.651a4.763,4.763,0,0,0-3.955,1.868,7.787,7.787,0,0,0-1.465,4.944,7.644,7.644,0,0,0,1.465,4.937,5.055,5.055,0,0,0,7.72.051,7.56,7.56,0,0,0,1.436-4.9,8.192,8.192,0,0,0-1.392-5.083A4.537,4.537,0,0,0,39.468,14.715ZM72.031,32H67.256L58.6,18.8a19.086,19.086,0,0,1-1.055-1.743h-.059q.117,1.113.117,3.4V32H53.135V10.994h5.1l8.335,12.788q.571.864,1.055,1.714h.059a22.459,22.459,0,0,1-.117-2.886V10.994h4.468ZM88.979,14.847H81.567V20h6.812v3.838H81.567V32H76.836V10.994H88.979ZM97.168,32H92.437V10.994h4.731Zm4.775,0V10.994h7.441q11.191,0,11.191,10.239a10.354,10.354,0,0,1-3.054,7.837A11.262,11.262,0,0,1,109.385,32Zm4.731-17.153V28.162h2.344a6.333,6.333,0,0,0,4.827-1.846,7,7,0,0,0,1.75-5.024,6.353,6.353,0,0,0-1.736-4.724,6.618,6.618,0,0,0-4.871-1.721ZM136.66,32h-12.6V10.994h12.114v3.853h-7.383V19.52h6.87v3.838h-6.87v4.8h7.866Zm22.266,0H154.15l-8.657-13.2a19.086,19.086,0,0,1-1.055-1.743h-.059q.117,1.113.117,3.4V32h-4.468V10.994h5.1l8.335,12.788q.571.864,1.055,1.714h.059a22.459,22.459,0,0,1-.117-2.886V10.994h4.468Zm19.863-.747a13.852,13.852,0,0,1-6.006,1.113,10.123,10.123,0,0,1-7.6-2.842,10.388,10.388,0,0,1-2.769-7.573,11.1,11.1,0,0,1,3.113-8.174,10.888,10.888,0,0,1,8.079-3.135,15.108,15.108,0,0,1,5.186.776v4.556a9.188,9.188,0,0,0-4.8-1.26,6.374,6.374,0,0,0-4.775,1.86,6.9,6.9,0,0,0-1.816,5.039,6.771,6.771,0,0,0,1.714,4.856,6.055,6.055,0,0,0,4.614,1.809,9.842,9.842,0,0,0,5.068-1.348Zm8.394.747h-4.731V10.994h4.731Zm23.247,0h-5.156l-1.494-4.673h-7.471L194.829,32H189.7l7.646-21.006h5.61ZM202.7,23.694l-2.256-7.061a9.2,9.2,0,0,1-.352-1.89h-.117a8.012,8.012,0,0,1-.366,1.831l-2.285,7.119ZM225.562,32h-12.51V10.994h4.731V28.162h7.778Zm7.559,0h-4.731V10.994h4.731Zm4.775,0V10.994h7.441q11.191,0,11.191,10.239a10.354,10.354,0,0,1-3.054,7.837A11.262,11.262,0,0,1,245.337,32Zm4.731-17.153V28.162h2.344a6.333,6.333,0,0,0,4.827-1.846,7,7,0,0,0,1.75-5.024,6.353,6.353,0,0,0-1.736-4.724,6.618,6.618,0,0,0-4.871-1.721ZM278.032,32h-5.156l-1.494-4.673h-7.471L262.432,32H257.3l7.646-21.006h5.61ZM270.3,23.694l-2.256-7.061a9.2,9.2,0,0,1-.352-1.89h-.117a8.012,8.012,0,0,1-.366,1.831l-2.285,7.119ZM280.654,32V10.994H288.1q11.191,0,11.191,10.239a10.354,10.354,0,0,1-3.054,7.837A11.262,11.262,0,0,1,288.1,32Zm4.731-17.153V28.162h2.344a6.333,6.333,0,0,0,4.827-1.846,7,7,0,0,0,1.75-5.024,6.353,6.353,0,0,0-1.736-4.724,6.618,6.618,0,0,0-4.871-1.721Z" transform="translate(645 1080)" fill="#0b47db"/>
    <path id="Trazado_1221048" data-name="Trazado 1221048" d="M784.775,484.968c0-25.317-13.358-42.328-33.241-42.328s-33.241,17.011-33.241,42.328c0,1.238-.063,2.88-.063,4.378,0,.748.015,1.46.063,2.066h66.482C784.916,489.6,784.775,486.825,784.775,484.968Z" transform="translate(48.466 449.228)" fill="none"/>
    <path id="Trazado_1221049" data-name="Trazado 1221049" d="M985.8,1027.2c.18-.027.361-.051.543-.07C986.166,1027.149,985.985,1027.171,985.8,1027.2Z" transform="translate(-187.483 -66.178)" fill="none"/>
    <path id="Trazado_1221050" data-name="Trazado 1221050" d="M682.384,812.686c.01.568.021,1.178.032,1.8-.016-.856-.03-1.687-.042-2.42Q682.379,812.366,682.384,812.686Z" transform="translate(80.084 123.467)" fill="none"/>
    <path id="Trazado_1221051" data-name="Trazado 1221051" d="M968.225,1031c.157-.057.316-.111.476-.161C968.541,1030.89,968.382,1030.943,968.225,1031Z" transform="translate(-171.981 -69.449)" fill="none"/>
    <path id="Trazado_1221052" data-name="Trazado 1221052" d="M764.534,855.28h-82.35l-.034,74.235a11.409,11.409,0,0,0,1.564,5.835,8.255,8.255,0,0,0,7.437,4.28h80.656a14.967,14.967,0,0,0,.7-4.54V855.28Zm-39.157,45.993,4.447,23.648a4.14,4.14,0,0,1-4.069,4.906H713.683a4.141,4.141,0,0,1-4.07-4.906l4.448-23.648a7.657,7.657,0,0,0-2.093-6.866,11.034,11.034,0,0,1-3.222-8.953c.008-.091.019-.182.031-.272s.022-.181.037-.271c.009-.065.02-.129.032-.193,0-.039.012-.078.019-.116.015-.089.032-.176.051-.262.022-.115.048-.229.076-.342.014-.06.028-.121.045-.181.019-.076.039-.15.06-.226s.048-.171.074-.256c.02-.067.041-.132.063-.2q.012-.039.025-.075c.024-.073.048-.145.076-.216a.117.117,0,0,1,.006-.019c.021-.061.044-.122.069-.182.009-.03.021-.058.032-.086.028-.074.059-.149.09-.222s.067-.162.1-.242.072-.161.11-.24c.027-.058.054-.116.084-.174q.138-.28.292-.551c.032-.057.064-.113.1-.169.011-.019.021-.038.033-.055q.037-.066.078-.128c.024-.04.049-.08.075-.119.039-.063.079-.125.121-.187s.078-.117.118-.174l.038-.054c.033-.048.068-.1.1-.145.018-.024.034-.047.053-.071.04-.057.083-.112.125-.168l.013-.017c.044-.058.089-.115.135-.171s.085-.105.129-.157.067-.083.1-.123.06-.071.093-.106c.047-.056.1-.111.148-.166s.093-.1.143-.154l.027-.03c.047-.048.093-.1.141-.144.015-.015.031-.03.045-.045l.149-.144c.048-.047.1-.095.149-.141s.072-.066.109-.1c.052-.047.105-.093.158-.14s.116-.1.176-.15c.04-.034.081-.067.124-.1.059-.049.118-.1.178-.142s.115-.087.173-.13.106-.079.16-.116a.369.369,0,0,1,.034-.025c.048-.035.1-.07.148-.1q.25-.172.509-.33c.074-.045.149-.09.226-.132l.113-.065c.058-.032.116-.065.175-.1.216-.116.437-.226.662-.326.051-.024.1-.046.155-.069s.118-.052.178-.076.134-.054.2-.08.164-.064.248-.093c.157-.058.316-.111.476-.161l.051-.015c.078-.025.155-.047.233-.068.093-.027.187-.052.281-.076.079-.02.158-.039.239-.057q.394-.092.8-.152c.18-.028.361-.051.543-.07h.008c.18-.018.36-.032.543-.041.092,0,.184-.008.278-.011l.085,0,.222,0a11.029,11.029,0,0,1,7.751,18.873A7.654,7.654,0,0,0,725.378,901.273Z" transform="translate(80.281 85.36)" fill="#f1b322"/>
    <path id="Trazado_1221053" data-name="Trazado 1221053" d="M917.139,1026.691c-.182.01-.363.024-.542.041h-.008q-.273.029-.543.07-.4.06-.8.152c-.08.018-.159.037-.239.057-.095.024-.188.049-.281.076-.078.021-.155.044-.233.068l-.051.015c-.161.05-.319.1-.476.161-.084.03-.167.06-.248.093s-.135.052-.2.08-.119.05-.178.076-.1.045-.155.068c-.225.1-.446.21-.662.326-.059.031-.117.064-.175.1l-.113.065c-.077.042-.151.087-.226.132q-.259.158-.509.33c-.05.033-.1.067-.148.1a.343.343,0,0,0-.034.025c-.053.037-.106.076-.16.116s-.116.086-.173.13-.119.093-.178.142c-.043.033-.084.066-.124.1-.06.05-.118.1-.176.15s-.106.092-.158.139c-.037.033-.073.065-.109.1s-.1.093-.149.141l-.149.144c-.014.015-.03.03-.045.045-.047.047-.093.1-.141.144l-.027.03c-.05.051-.1.1-.143.154s-.1.11-.148.165c-.033.036-.064.071-.093.106s-.07.082-.1.123-.087.1-.129.157-.091.113-.135.171l-.013.017c-.043.055-.085.111-.125.168-.019.024-.035.047-.053.071-.034.047-.07.1-.1.145l-.038.054c-.04.057-.079.115-.118.174s-.082.124-.121.187c-.026.039-.051.079-.074.119s-.053.084-.078.128c-.012.018-.022.037-.033.056-.034.056-.066.112-.1.169q-.154.271-.292.551c-.03.058-.057.116-.084.174-.038.079-.075.16-.11.24s-.071.161-.1.242-.061.148-.09.222c-.011.028-.022.057-.032.086-.025.06-.047.121-.069.182a.123.123,0,0,0-.006.019c-.027.071-.052.143-.076.216-.008.024-.017.048-.025.074-.021.066-.043.131-.063.2-.026.085-.051.17-.075.256s-.041.15-.06.226c-.017.06-.031.12-.045.181-.027.112-.053.227-.076.342-.019.086-.036.174-.051.262-.007.038-.014.077-.019.116-.012.064-.022.128-.032.193-.014.09-.026.18-.037.271s-.022.181-.031.272a11.034,11.034,0,0,0,3.222,8.953,7.657,7.657,0,0,1,2.093,6.866l-4.448,23.648a4.141,4.141,0,0,0,4.069,4.906H917.7l-.288-54.289C917.323,1026.682,917.231,1026.686,917.139,1026.691Z" transform="translate(-117.723 -65.781)" fill="#494948"/>
    <path id="Trazado_1221054" data-name="Trazado 1221054" d="M1008.745,1037.669a11.029,11.029,0,0,0-11.028-11.029l-.222,0-.085,0,.288,54.289h6.054a4.14,4.14,0,0,0,4.069-4.906l-4.447-23.648a7.657,7.657,0,0,1,2.093-6.866A11,11,0,0,0,1008.745,1037.669Z" transform="translate(-197.716 -65.746)" fill="#676767"/>
    <path id="Trazado_1221055" data-name="Trazado 1221055" d="M626.376,403.232c-.017-.868-.034-1.792-.051-2.688-.011-.623-.022-1.232-.032-1.8q0-.32-.01-.62c-.017-1.075-.028-1.94-.028-2.365,0-28.259,16.822-45.147,37.571-45.147S701.4,367.5,701.4,395.759v7.472h7.244q.245-3.177.246-6.444c0-33.892-20.175-54.148-45.061-54.148s-45.061,20.255-45.061,54.148q0,.982.022,1.956.051,2.266.223,4.488h7.365Z" transform="translate(136.175 537.409)" fill="#8e8e8e"/>
    <path id="Trazado_1221056" data-name="Trazado 1221056" d="M719.711,410.09c-20.749,0-37.571,16.888-37.571,45.147,0,.426.012,1.29.028,2.365.012.733.026,1.564.042,2.42.016.9.034,1.82.051,2.688h4.209c-.047-.606-.063-1.318-.063-2.066,0-1.5.063-3.14.063-4.378,0-25.317,13.358-42.328,33.241-42.328s33.241,17.011,33.241,42.328c0,1.857.139,4.627,0,6.444h4.329v-7.472C757.281,426.978,740.46,410.09,719.711,410.09Z" transform="translate(80.29 477.931)" fill="#686868"/>
    <path id="Trazado_1221057" data-name="Trazado 1221057" d="M682.777,835.228c-.017-.868-.034-1.791-.051-2.688C682.742,833.436,682.76,834.36,682.777,835.228Z" transform="translate(79.774 105.412)" fill="#686868"/>
    <path id="Trazado_1221058" data-name="Trazado 1221058" d="M682.163,794.425c-.016-1.074-.028-1.939-.028-2.365C682.135,792.485,682.146,793.35,682.163,794.425Z" transform="translate(80.295 141.108)" fill="#686868"/>
    <path id="Trazado_1221059" data-name="Trazado 1221059" d="M570.167,935.35a11.41,11.41,0,0,1-1.564-5.835l.034-74.235H553.385v79.81a14.992,14.992,0,0,0,14.993,14.992h75.59a15,15,0,0,0,14.292-10.452H577.6A8.255,8.255,0,0,1,570.167,935.35Z" transform="translate(193.827 85.36)" fill="#c18c21"/>
  </g>
</svg>
