<svg xmlns="http://www.w3.org/2000/svg" xmlns:xlink="http://www.w3.org/1999/xlink" width="106.16" height="106.161" viewBox="0 0 106.16 106.161">
  <defs>
    <filter id="Trazado_982547" x="0" y="0" width="106.16" height="106.161" filterUnits="userSpaceOnUse">
      <feOffset dy="3" input="SourceAlpha"/>
      <feGaussianBlur stdDeviation="3" result="blur"/>
      <feFlood flood-opacity="0.161"/>
      <feComposite operator="in" in2="blur"/>
      <feComposite in="SourceGraphic"/>
    </filter>
  </defs>
  <g id="Grupo_1233672" data-name="Grupo 1233672" transform="translate(-190.75 -6761.667)">
    <g id="Grupo_1230958" data-name="Grupo 1230958" transform="translate(0 -511.747)">
      <g id="Grupo_1230691" data-name="Grupo 1230691" transform="translate(-0.25 3811.95)">
        <g id="Grupo_1224851" data-name="Grupo 1224851" transform="translate(0 1738.464)">
          <g id="Grupo_1206130" data-name="Grupo 1206130" transform="translate(0 -59)">
            <g id="Grupo_1203672" data-name="Grupo 1203672" transform="translate(0.08 -4797.878)">
              <g id="Grupo_1203344" data-name="Grupo 1203344" transform="translate(-81.08 5174.875)">
                <g id="Grupo_1177900" data-name="Grupo 1177900" transform="translate(281 1411.003)">
                  <g id="Grupo_1172010" data-name="Grupo 1172010" transform="translate(0)">
                    <g id="Grupo_1171046" data-name="Grupo 1171046">
                      <g id="Grupo_1148525" data-name="Grupo 1148525">
                        <g transform="matrix(1, 0, 0, 1, -9, -6)" filter="url(#Trazado_982547)">
                          <g id="Trazado_982547-2" data-name="Trazado 982547" transform="translate(9 6)" fill="#e5ebfb">
                            <path d="M 44.0802001953125 86.660400390625 C 38.33124923706055 86.660400390625 32.75506210327148 85.53479766845703 27.50652503967285 83.31484985351562 C 22.43628692626953 81.17032623291016 17.88242530822754 78.09992218017578 13.97144985198975 74.18894958496094 C 10.06047534942627 70.27797698974609 6.99007511138916 65.72411346435547 4.845550060272217 60.65387344360352 C 2.625600099563599 55.40533828735352 1.500000238418579 49.82915115356445 1.500000238418579 44.0802001953125 C 1.500000238418579 38.33124923706055 2.625600099563599 32.75506210327148 4.845550060272217 27.50652503967285 C 6.99007511138916 22.43628692626953 10.06047534942627 17.88242530822754 13.97144985198975 13.97144985198975 C 17.88242530822754 10.06047534942627 22.43628692626953 6.99007511138916 27.50652503967285 4.845550060272217 C 32.75506210327148 2.625600099563599 38.33124923706055 1.500000238418579 44.0802001953125 1.500000238418579 C 49.82915115356445 1.500000238418579 55.40533828735352 2.625600099563599 60.65387344360352 4.845550060272217 C 65.72411346435547 6.99007511138916 70.27797698974609 10.06047534942627 74.18894958496094 13.97144985198975 C 78.09992218017578 17.88242530822754 81.17032623291016 22.43628692626953 83.31484985351562 27.50652503967285 C 85.53479766845703 32.75506210327148 86.660400390625 38.33124923706055 86.660400390625 44.0802001953125 C 86.660400390625 49.82915115356445 85.53479766845703 55.40533828735352 83.31484985351562 60.65387344360352 C 81.17032623291016 65.72411346435547 78.09992218017578 70.27797698974609 74.18894958496094 74.18894958496094 C 70.27797698974609 78.09992218017578 65.72411346435547 81.17032623291016 60.65387344360352 83.31484985351562 C 55.40533828735352 85.53479766845703 49.82915115356445 86.660400390625 44.0802001953125 86.660400390625 Z" stroke="none"/>
                            <path d="M 44.0802001953125 3 C 38.53308486938477 3 33.15349960327148 4.085746765136719 28.09085845947266 6.227058410644531 C 23.19941711425781 8.29595947265625 18.80581665039062 11.25841522216797 15.03211212158203 15.03211212158203 C 11.25841522216797 18.80581665039062 8.29595947265625 23.19941711425781 6.227058410644531 28.09085845947266 C 4.085746765136719 33.15349960327148 3 38.53308486938477 3 44.0802001953125 C 3 49.62731552124023 4.085746765136719 55.00691604614258 6.227058410644531 60.06954193115234 C 8.29595947265625 64.96098327636719 11.25841522216797 69.35458374023438 15.03211212158203 73.12828826904297 C 18.80581665039062 76.90198516845703 23.19941711425781 79.86444091796875 28.09085845947266 81.93334197998047 C 33.15349960327148 84.07466125488281 38.53308486938477 85.160400390625 44.0802001953125 85.160400390625 C 49.62731552124023 85.160400390625 55.00691604614258 84.07466125488281 60.06954193115234 81.93334197998047 C 64.96099853515625 79.86444091796875 69.35458374023438 76.90198516845703 73.12828826904297 73.12828826904297 C 76.90198516845703 69.35458374023438 79.86444091796875 64.96099853515625 81.93334197998047 60.06954193115234 C 84.07466125488281 55.00691604614258 85.160400390625 49.62731552124023 85.160400390625 44.0802001953125 C 85.160400390625 38.53308486938477 84.07466125488281 33.15349960327148 81.93334197998047 28.09085845947266 C 79.86444091796875 23.19941711425781 76.90198516845703 18.80581665039062 73.12828826904297 15.03211212158203 C 69.35458374023438 11.25841522216797 64.96098327636719 8.29595947265625 60.06954193115234 6.227058410644531 C 55.00691604614258 4.085746765136719 49.62731552124023 3 44.0802001953125 3 M 44.0802001953125 0 C 68.42502593994141 0 88.160400390625 19.73538970947266 88.160400390625 44.0802001953125 C 88.160400390625 68.42502593994141 68.42502593994141 88.160400390625 44.0802001953125 88.160400390625 C 19.73538970947266 88.160400390625 0 68.42502593994141 0 44.0802001953125 C 0 19.73538970947266 19.73538970947266 0 44.0802001953125 0 Z" stroke="none" fill="#0b47db"/>
                          </g>
                        </g>
                      </g>
                    </g>
                  </g>
                </g>
              </g>
            </g>
          </g>
        </g>
      </g>
    </g>
    <g id="_14-Password" data-name="14-Password" transform="translate(213.359 6778)">
      <rect id="Rectángulo_423465" data-name="Rectángulo 423465" width="55" height="17" rx="4" transform="translate(58 58) rotate(180)" fill="#64b5f6"/>
      <path id="Trazado_1222366" data-name="Trazado 1222366" d="M58.044,46.8v9.49a3.8,3.8,0,0,1-3.8,3.8H6.8a3.8,3.8,0,0,1-3.8-3.8V53.439a3.8,3.8,0,0,0,3.8,3.8H49.5a3.8,3.8,0,0,0,3.8-3.8V46.8A3.8,3.8,0,0,0,49.5,43h4.745a3.8,3.8,0,0,1,3.8,3.8Z" transform="translate(-0.051 -2.089)" fill="#42a5f5"/>
      <path id="Trazado_1222367" data-name="Trazado 1222367" d="M21.9,15H40.879a1.9,1.9,0,0,1,1.9,1.9V32.083a3.8,3.8,0,0,1-3.8,3.8H23.8a3.8,3.8,0,0,1-3.8-3.8V16.9A1.9,1.9,0,0,1,21.9,15Z" transform="translate(-0.917 -0.663)" fill="#ffb74d"/>
      <path id="Trazado_1222368" data-name="Trazado 1222368" d="M42.777,16.9V32.083a3.8,3.8,0,0,1-3.8,3.8H23.8a3.8,3.8,0,0,1-3.8-3.8V29.236a3.8,3.8,0,0,0,3.8,3.8H34.236a3.8,3.8,0,0,0,3.8-3.8V16.9a1.9,1.9,0,0,0-1.9-1.9h4.745A1.9,1.9,0,0,1,42.777,16.9Z" transform="translate(-0.917 -0.663)" fill="#ffa726"/>
      <path id="Trazado_1222369" data-name="Trazado 1222369" d="M34.694,23.847a2.847,2.847,0,1,0-4.465,2.34L29,30.49h5.694l-1.23-4.3A2.842,2.842,0,0,0,34.694,23.847Z" transform="translate(-1.376 -0.968)" fill="#757575"/>
      <path id="Trazado_1222370" data-name="Trazado 1222370" d="M32.132,26.191,30.9,30.49H29l1.234-4.3A2.846,2.846,0,0,1,31.847,21a2.631,2.631,0,0,1,.949.171,2.817,2.817,0,0,0-1.9,2.676,2.848,2.848,0,0,0,1.234,2.344Z" transform="translate(-1.376 -0.968)" fill="#616161"/>
      <path id="Trazado_1222371" data-name="Trazado 1222371" d="M22.879,36.165H38.063a4.751,4.751,0,0,0,4.745-4.745V16.236a2.85,2.85,0,0,0-2.847-2.847h-.949V10.541a8.541,8.541,0,1,0-17.083,0v2.847h-.949a2.85,2.85,0,0,0-2.847,2.847V31.42a4.751,4.751,0,0,0,4.745,4.745Zm.949-25.624a6.643,6.643,0,1,1,13.287,0v2.847H23.828Zm-3.8,5.694a.95.95,0,0,1,.949-.949H39.962a.95.95,0,0,1,.949.949V31.42a2.85,2.85,0,0,1-2.847,2.847H22.879a2.85,2.85,0,0,1-2.847-2.847Zm6.68,13.026a.949.949,0,0,0,.912,1.21h5.694a.949.949,0,0,0,.912-1.21l-1.062-3.716a3.8,3.8,0,1,0-5.4,0Zm3.76-8.28a1.9,1.9,0,0,1,1.077,3.458.949.949,0,0,0-.372,1.041l.884,3.094H28.882l.884-3.094a.949.949,0,0,0-.372-1.041,1.9,1.9,0,0,1,1.077-3.458ZM54.2,39.962H6.745A4.751,4.751,0,0,0,2,44.707V54.2a4.751,4.751,0,0,0,4.745,4.745H54.2A4.751,4.751,0,0,0,58.942,54.2v-9.49A4.751,4.751,0,0,0,54.2,39.962ZM57.044,54.2A2.85,2.85,0,0,1,54.2,57.044H6.745A2.85,2.85,0,0,1,3.9,54.2v-9.49A2.85,2.85,0,0,1,6.745,41.86H54.2a2.85,2.85,0,0,1,2.847,2.847ZM28.539,48.376l-1.864,1.076,1.864,1.076a.949.949,0,1,1-.949,1.644L25.726,51.1v2.152a.949.949,0,0,1-1.9,0V51.1l-1.864,1.076a.949.949,0,1,1-.949-1.644l1.864-1.076-1.864-1.076a.949.949,0,1,1,.949-1.644l1.864,1.076V45.656a.949.949,0,0,1,1.9,0v2.152l1.864-1.076a.949.949,0,1,1,.949,1.644Zm-11.388,0-1.864,1.076,1.864,1.076a.949.949,0,1,1-.949,1.644L14.337,51.1v2.152a.949.949,0,0,1-1.9,0V51.1l-1.864,1.076a.949.949,0,1,1-.949-1.644l1.864-1.076L9.627,48.376a.949.949,0,1,1,.949-1.644l1.864,1.076V45.656a.949.949,0,0,1,1.9,0v2.152L16.2,46.732a.949.949,0,1,1,.949,1.644Zm22.777,0-1.864,1.076,1.864,1.076a.949.949,0,0,1-.949,1.644L37.114,51.1v2.152a.949.949,0,0,1-1.9,0V51.1l-1.864,1.076a.949.949,0,1,1-.949-1.644l1.864-1.076L32.4,48.376a.949.949,0,1,1,.949-1.644l1.864,1.076V45.656a.949.949,0,0,1,1.9,0v2.152l1.864-1.076a.949.949,0,1,1,.949,1.644Zm11.388,0-1.864,1.076,1.864,1.076a.949.949,0,0,1-.949,1.644L48.5,51.1v2.152a.949.949,0,0,1-1.9,0V51.1l-1.864,1.076a.949.949,0,0,1-.949-1.644l1.864-1.076-1.864-1.076a.949.949,0,1,1,.949-1.644L46.6,47.808V45.656a.949.949,0,0,1,1.9,0v2.152l1.864-1.076a.949.949,0,1,1,.949,1.644Z"/>
    </g>
  </g>
</svg>
