<svg xmlns="http://www.w3.org/2000/svg" xmlns:xlink="http://www.w3.org/1999/xlink" width="106.16" height="106.161" viewBox="0 0 106.16 106.161">
  <defs>
    <filter id="Trazado_982547" x="0" y="0" width="106.16" height="106.161" filterUnits="userSpaceOnUse">
      <feOffset dy="3" input="SourceAlpha"/>
      <feGaussianBlur stdDeviation="3" result="blur"/>
      <feFlood flood-opacity="0.161"/>
      <feComposite operator="in" in2="blur"/>
      <feComposite in="SourceGraphic"/>
    </filter>
  </defs>
  <g id="Grupo_1233685" data-name="Grupo 1233685" transform="translate(-820.25 -6761.667)">
    <g id="Grupo_1230962" data-name="Grupo 1230962" transform="translate(0 -511.747)">
      <g id="Grupo_1230692" data-name="Grupo 1230692" transform="translate(-0.25 3811.95)">
        <g id="Grupo_1224852" data-name="Grupo 1224852" transform="translate(629.5 1738.464)">
          <g id="Grupo_1206130" data-name="Grupo 1206130" transform="translate(0 -59)">
            <g id="Grupo_1203672" data-name="Grupo 1203672" transform="translate(0.08 -4797.878)">
              <g id="Grupo_1203344" data-name="Grupo 1203344" transform="translate(-81.08 5174.875)">
                <g id="Grupo_1177900" data-name="Grupo 1177900" transform="translate(281 1411.003)">
                  <g id="Grupo_1172010" data-name="Grupo 1172010" transform="translate(0)">
                    <g id="Grupo_1171046" data-name="Grupo 1171046">
                      <g id="Grupo_1148525" data-name="Grupo 1148525">
                        <g transform="matrix(1, 0, 0, 1, -9, -6)" filter="url(#Trazado_982547)">
                          <g id="Trazado_982547-2" data-name="Trazado 982547" transform="translate(9 6)" fill="#e5ebfb">
                            <path d="M 44.0802001953125 86.660400390625 C 38.33124923706055 86.660400390625 32.75506210327148 85.53479766845703 27.50652503967285 83.31484985351562 C 22.43628692626953 81.17032623291016 17.88242530822754 78.09992218017578 13.97144985198975 74.18894958496094 C 10.06047534942627 70.27797698974609 6.99007511138916 65.72411346435547 4.845550060272217 60.65387344360352 C 2.625600099563599 55.40533828735352 1.500000238418579 49.82915115356445 1.500000238418579 44.0802001953125 C 1.500000238418579 38.33124923706055 2.625600099563599 32.75506210327148 4.845550060272217 27.50652503967285 C 6.99007511138916 22.43628692626953 10.06047534942627 17.88242530822754 13.97144985198975 13.97144985198975 C 17.88242530822754 10.06047534942627 22.43628692626953 6.99007511138916 27.50652503967285 4.845550060272217 C 32.75506210327148 2.625600099563599 38.33124923706055 1.500000238418579 44.0802001953125 1.500000238418579 C 49.82915115356445 1.500000238418579 55.40533828735352 2.625600099563599 60.65387344360352 4.845550060272217 C 65.72411346435547 6.99007511138916 70.27797698974609 10.06047534942627 74.18894958496094 13.97144985198975 C 78.09992218017578 17.88242530822754 81.17032623291016 22.43628692626953 83.31484985351562 27.50652503967285 C 85.53479766845703 32.75506210327148 86.660400390625 38.33124923706055 86.660400390625 44.0802001953125 C 86.660400390625 49.82915115356445 85.53479766845703 55.40533828735352 83.31484985351562 60.65387344360352 C 81.17032623291016 65.72411346435547 78.09992218017578 70.27797698974609 74.18894958496094 74.18894958496094 C 70.27797698974609 78.09992218017578 65.72411346435547 81.17032623291016 60.65387344360352 83.31484985351562 C 55.40533828735352 85.53479766845703 49.82915115356445 86.660400390625 44.0802001953125 86.660400390625 Z" stroke="none"/>
                            <path d="M 44.0802001953125 3 C 38.53308486938477 3 33.15349960327148 4.085746765136719 28.09085845947266 6.227058410644531 C 23.19941711425781 8.29595947265625 18.80581665039062 11.25841522216797 15.03211212158203 15.03211212158203 C 11.25841522216797 18.80581665039062 8.29595947265625 23.19941711425781 6.227058410644531 28.09085845947266 C 4.085746765136719 33.15349960327148 3 38.53308486938477 3 44.0802001953125 C 3 49.62731552124023 4.085746765136719 55.00691604614258 6.227058410644531 60.06954193115234 C 8.29595947265625 64.96098327636719 11.25841522216797 69.35458374023438 15.03211212158203 73.12828826904297 C 18.80581665039062 76.90198516845703 23.19941711425781 79.86444091796875 28.09085845947266 81.93334197998047 C 33.15349960327148 84.07466125488281 38.53308486938477 85.160400390625 44.0802001953125 85.160400390625 C 49.62731552124023 85.160400390625 55.00691604614258 84.07466125488281 60.06954193115234 81.93334197998047 C 64.96099853515625 79.86444091796875 69.35458374023438 76.90198516845703 73.12828826904297 73.12828826904297 C 76.90198516845703 69.35458374023438 79.86444091796875 64.96099853515625 81.93334197998047 60.06954193115234 C 84.07466125488281 55.00691604614258 85.160400390625 49.62731552124023 85.160400390625 44.0802001953125 C 85.160400390625 38.53308486938477 84.07466125488281 33.15349960327148 81.93334197998047 28.09085845947266 C 79.86444091796875 23.19941711425781 76.90198516845703 18.80581665039062 73.12828826904297 15.03211212158203 C 69.35458374023438 11.25841522216797 64.96098327636719 8.29595947265625 60.06954193115234 6.227058410644531 C 55.00691604614258 4.085746765136719 49.62731552124023 3 44.0802001953125 3 M 44.0802001953125 0 C 68.42502593994141 0 88.160400390625 19.73538970947266 88.160400390625 44.0802001953125 C 88.160400390625 68.42502593994141 68.42502593994141 88.160400390625 44.0802001953125 88.160400390625 C 19.73538970947266 88.160400390625 0 68.42502593994141 0 44.0802001953125 C 0 19.73538970947266 19.73538970947266 0 44.0802001953125 0 Z" stroke="none" fill="#0b47db"/>
                          </g>
                        </g>
                      </g>
                    </g>
                  </g>
                </g>
              </g>
            </g>
          </g>
        </g>
      </g>
    </g>
    <g id="sms" transform="translate(830.854 6782.813)">
      <g id="Grupo_1233683" data-name="Grupo 1233683" transform="translate(20.994 0.848)">
        <g id="Grupo_1233681" data-name="Grupo 1233681">
          <g id="Grupo_1233680" data-name="Grupo 1233680">
            <g id="Grupo_1233679" data-name="Grupo 1233679">
              <g id="Grupo_1233678" data-name="Grupo 1233678">
                <g id="Grupo_1233677" data-name="Grupo 1233677">
                  <g id="Grupo_1233676" data-name="Grupo 1233676">
                    <g id="Grupo_1233675" data-name="Grupo 1233675">
                      <g id="Grupo_1233674" data-name="Grupo 1233674">
                        <g id="Grupo_1233673" data-name="Grupo 1233673">
                          <path id="Trazado_1222372" data-name="Trazado 1222372" d="M61.1,63.676H31.134a3.488,3.488,0,0,1-3.488-3.488v-49.2A3.488,3.488,0,0,1,31.134,7.5H61.1a3.488,3.488,0,0,1,3.488,3.488v49.2A3.488,3.488,0,0,1,61.1,63.676Z" transform="translate(-27.646 -7.5)" fill="#eaf2ff"/>
                          <path id="Trazado_1222373" data-name="Trazado 1222373" d="M265.631,7.5h-7.385a3.488,3.488,0,0,1,3.488,3.488v49.2a3.488,3.488,0,0,1-3.488,3.488h7.385a3.488,3.488,0,0,0,3.488-3.488v-49.2A3.488,3.488,0,0,0,265.631,7.5Z" transform="translate(-232.181 -7.5)" fill="#c9e0fd"/>
                          <path id="Trazado_1222374" data-name="Trazado 1222374" d="M68.656,89.957V50.13a1.62,1.62,0,0,1,1.62-1.62H94.7a1.62,1.62,0,0,1,1.62,1.62V89.957a1.62,1.62,0,0,1-1.62,1.62H70.276A1.62,1.62,0,0,1,68.656,89.957Z" transform="translate(-64.021 -43.875)" fill="#9bc4f9"/>
                          <path id="Trazado_1222375" data-name="Trazado 1222375" d="M290.237,48.51h-1.129V91.577h1.129a1.62,1.62,0,0,0,1.62-1.62V50.13a1.62,1.62,0,0,0-1.62-1.62Z" transform="translate(-259.555 -43.875)" fill="#7fb2f9"/>
                          <path id="Trazado_1222376" data-name="Trazado 1222376" d="M94.7,48.51H70.275a1.62,1.62,0,0,0-1.62,1.62V54.9H96.322V50.13a1.62,1.62,0,0,0-1.62-1.62Z" transform="translate(-64.02 -43.875)" fill="#fff"/>
                          <path id="Trazado_1222377" data-name="Trazado 1222377" d="M290.237,48.51h-1.129V54.9h2.749V50.13a1.62,1.62,0,0,0-1.62-1.62Z" transform="translate(-259.555 -43.875)" fill="#eaf2ff"/>
                        </g>
                      </g>
                      <circle id="Elipse_13803" data-name="Elipse 13803" cx="0.848" cy="0.848" r="0.848" transform="translate(8.494 6.98)"/>
                    </g>
                  </g>
                </g>
              </g>
            </g>
          </g>
        </g>
        <path id="Trazado_1222378" data-name="Trazado 1222378" d="M225.7,105H202.878a4.768,4.768,0,0,0-4.768,4.768v12.171a4.768,4.768,0,0,0,4.768,4.768.23.23,0,0,1,.23.23v7.3a.837.837,0,0,0,1.5.506l6.027-7.943a.23.23,0,0,1,.184-.091H225.7a4.768,4.768,0,0,0,4.768-4.768V109.768A4.768,4.768,0,0,0,225.7,105Z" transform="translate(-178.843 -93.98)" fill="#f4e580"/>
        <g id="Grupo_1233682" data-name="Grupo 1233682" transform="translate(24.265 11.02)">
          <path id="Trazado_1222379" data-name="Trazado 1222379" d="M242.329,297.544v7.026a.837.837,0,0,0,1.5.506l6.027-7.943a.23.23,0,0,1,.184-.091h-6.228A2.453,2.453,0,0,0,242.329,297.544Z" transform="translate(-242.329 -275.336)" fill="#eac12e"/>
          <path id="Trazado_1222380" data-name="Trazado 1222380" d="M384.639,105h-7.332a4.768,4.768,0,0,1,4.768,4.768v12.171a4.768,4.768,0,0,1-4.768,4.768h7.332a4.768,4.768,0,0,0,4.768-4.768V109.768A4.768,4.768,0,0,0,384.639,105Z" transform="translate(-362.051 -105)" fill="#eac12e"/>
        </g>
      </g>
      <g id="Grupo_1233684" data-name="Grupo 1233684" transform="translate(20.146 0)">
        <path id="Trazado_1222381" data-name="Trazado 1222381" d="M171.621,459.2a.848.848,0,0,0,0-1.7h-3.73a.848.848,0,0,0,0,1.7Z" transform="translate(-150.439 -405.789)"/>
        <path id="Trazado_1222382" data-name="Trazado 1222382" d="M306.89,161.093a1.017,1.017,0,0,0-1.965-.111l-.009.029-1.433,5.026L302,161l-.009-.03a1.017,1.017,0,0,0-1.965.141l-1.321,7.318a.848.848,0,1,0,1.669.3l.812-4.5,1.337,4.533.009.03a1.015,1.015,0,0,0,.964.694h.005a1.016,1.016,0,0,0,.963-.7l.009-.029,1.291-4.53.863,4.515a.848.848,0,0,0,1.665-.318Z" transform="translate(-267.206 -142.163)"/>
        <path id="Trazado_1222383" data-name="Trazado 1222383" d="M234.215,164.147c-.937-.346-1.809-.723-2.061-.833a.61.61,0,0,1-.228-.582.843.843,0,0,1,.662-.677,2.6,2.6,0,0,1,2.152.495.848.848,0,0,0,1.087-1.3,4.282,4.282,0,0,0-3.729-.817,2.552,2.552,0,0,0-1.851,2.059,2.3,2.3,0,0,0,1.025,2.275.854.854,0,0,0,.118.064c.043.019,1.076.479,2.238.908.351.13,1.156.5,1.044,1.125a1.359,1.359,0,0,1-1.4.93,2.709,2.709,0,0,1-1.991-.835.848.848,0,1,0-1.256,1.139,4.429,4.429,0,0,0,3.247,1.392,3.008,3.008,0,0,0,3.072-2.327C236.521,166.149,236.058,164.827,234.215,164.147Z" transform="translate(-206.105 -142.162)"/>
        <path id="Trazado_1222384" data-name="Trazado 1222384" d="M398.9,164.147c-.937-.346-1.809-.723-2.061-.833-.4-.31-.312-1.034.434-1.258a2.6,2.6,0,0,1,2.152.495.848.848,0,0,0,1.087-1.3,4.282,4.282,0,0,0-3.729-.817,2.412,2.412,0,0,0-.826,4.334c.234.152,1.938.817,2.356.972.351.13,1.156.5,1.044,1.125a1.359,1.359,0,0,1-1.4.93,2.709,2.709,0,0,1-1.991-.836A.848.848,0,0,0,394.7,168.1a4.429,4.429,0,0,0,3.247,1.392,3.008,3.008,0,0,0,3.072-2.327c.181-1.011-.283-2.334-2.126-3.014Z" transform="translate(-352.173 -142.162)"/>
        <path id="Trazado_1222385" data-name="Trazado 1222385" d="M129.2,70.95h6.669a.848.848,0,0,0,0-1.7H129.2a.848.848,0,1,0,0,1.7Z" transform="translate(-116.123 -61.427)"/>
        <path id="Trazado_1222386" data-name="Trazado 1222386" d="M104.222,47.4h-13.7V43.479a2.471,2.471,0,0,0-2.468-2.468H63.624a2.471,2.471,0,0,0-2.468,2.468V83.305a2.471,2.471,0,0,0,2.468,2.468H88.05a2.471,2.471,0,0,0,2.468-2.468V70.8h13.7a5.622,5.622,0,0,0,5.615-5.615V53.011A5.622,5.622,0,0,0,104.222,47.4Zm-40.6-4.69H88.05a.773.773,0,0,1,.773.773V47.4H62.851V43.479A.774.774,0,0,1,63.624,42.706ZM88.05,84.078H63.624a.773.773,0,0,1-.773-.773V49.091H77.388a5.6,5.6,0,0,0-1.6,3.92V65.182a5.624,5.624,0,0,0,5,5.582v6.715A1.685,1.685,0,0,0,83.813,78.5l5.01-6.6V83.305a.774.774,0,0,1-.773.773Zm20.092-18.9a3.924,3.924,0,0,1-3.92,3.92H89.67a1.924,1.924,0,0,0-.682.063l-.006,0a1.112,1.112,0,0,0-.493.362l-6.008,7.917V70.18A1.079,1.079,0,0,0,81.4,69.1a3.924,3.924,0,0,1-3.92-3.92V53.011a3.924,3.924,0,0,1,3.92-3.92h22.819a3.924,3.924,0,0,1,3.92,3.92V65.182Z" transform="translate(-56.521 -36.376)"/>
        <path id="Trazado_1222387" data-name="Trazado 1222387" d="M57.931,36.69a.848.848,0,0,0-.848.848v16a2.643,2.643,0,0,1-2.64,2.64H24.482a2.644,2.644,0,0,1-2.64-2.64V4.336a2.643,2.643,0,0,1,2.64-2.64H54.443a2.643,2.643,0,0,1,2.64,2.64V7.927a.848.848,0,1,0,1.7,0V4.336A4.341,4.341,0,0,0,54.443,0H24.482a4.341,4.341,0,0,0-4.336,4.336v49.2a4.341,4.341,0,0,0,4.336,4.336H54.443a4.341,4.341,0,0,0,4.336-4.336v-16A.848.848,0,0,0,57.931,36.69Z" transform="translate(-20.146 0)"/>
      </g>
    </g>
  </g>
</svg>
