<svg xmlns="http://www.w3.org/2000/svg" xmlns:xlink="http://www.w3.org/1999/xlink" width="106.16" height="106.161" viewBox="0 0 106.16 106.161">
  <defs>
    <filter id="Trazado_982547" x="0" y="0" width="106.16" height="106.161" filterUnits="userSpaceOnUse">
      <feOffset dy="3" input="SourceAlpha"/>
      <feGaussianBlur stdDeviation="3" result="blur"/>
      <feFlood flood-opacity="0.161"/>
      <feComposite operator="in" in2="blur"/>
      <feComposite in="SourceGraphic"/>
    </filter>
  </defs>
  <g id="Grupo_1233694" data-name="Grupo 1233694" transform="translate(-190.75 -6921.667)">
    <g id="Grupo_1230976" data-name="Grupo 1230976" transform="translate(0 -511.747)">
      <g id="Grupo_1230693" data-name="Grupo 1230693" transform="translate(-0.25 3971.95)">
        <g id="Grupo_1224851" data-name="Grupo 1224851" transform="translate(0 1738.464)">
          <g id="Grupo_1206130" data-name="Grupo 1206130" transform="translate(0 -59)">
            <g id="Grupo_1203672" data-name="Grupo 1203672" transform="translate(0.08 -4797.878)">
              <g id="Grupo_1203344" data-name="Grupo 1203344" transform="translate(-81.08 5174.875)">
                <g id="Grupo_1177900" data-name="Grupo 1177900" transform="translate(281 1411.003)">
                  <g id="Grupo_1172010" data-name="Grupo 1172010" transform="translate(0)">
                    <g id="Grupo_1171046" data-name="Grupo 1171046">
                      <g id="Grupo_1148525" data-name="Grupo 1148525">
                        <g transform="matrix(1, 0, 0, 1, -9, -6)" filter="url(#Trazado_982547)">
                          <g id="Trazado_982547-2" data-name="Trazado 982547" transform="translate(9 6)" fill="#e5ebfb">
                            <path d="M 44.0802001953125 86.660400390625 C 38.33124923706055 86.660400390625 32.75506210327148 85.53479766845703 27.50652503967285 83.31484985351562 C 22.43628692626953 81.17032623291016 17.88242530822754 78.09992218017578 13.97144985198975 74.18894958496094 C 10.06047534942627 70.27797698974609 6.99007511138916 65.72411346435547 4.845550060272217 60.65387344360352 C 2.625600099563599 55.40533828735352 1.500000238418579 49.82915115356445 1.500000238418579 44.0802001953125 C 1.500000238418579 38.33124923706055 2.625600099563599 32.75506210327148 4.845550060272217 27.50652503967285 C 6.99007511138916 22.43628692626953 10.06047534942627 17.88242530822754 13.97144985198975 13.97144985198975 C 17.88242530822754 10.06047534942627 22.43628692626953 6.99007511138916 27.50652503967285 4.845550060272217 C 32.75506210327148 2.625600099563599 38.33124923706055 1.500000238418579 44.0802001953125 1.500000238418579 C 49.82915115356445 1.500000238418579 55.40533828735352 2.625600099563599 60.65387344360352 4.845550060272217 C 65.72411346435547 6.99007511138916 70.27797698974609 10.06047534942627 74.18894958496094 13.97144985198975 C 78.09992218017578 17.88242530822754 81.17032623291016 22.43628692626953 83.31484985351562 27.50652503967285 C 85.53479766845703 32.75506210327148 86.660400390625 38.33124923706055 86.660400390625 44.0802001953125 C 86.660400390625 49.82915115356445 85.53479766845703 55.40533828735352 83.31484985351562 60.65387344360352 C 81.17032623291016 65.72411346435547 78.09992218017578 70.27797698974609 74.18894958496094 74.18894958496094 C 70.27797698974609 78.09992218017578 65.72411346435547 81.17032623291016 60.65387344360352 83.31484985351562 C 55.40533828735352 85.53479766845703 49.82915115356445 86.660400390625 44.0802001953125 86.660400390625 Z" stroke="none"/>
                            <path d="M 44.0802001953125 3 C 38.53308486938477 3 33.15349960327148 4.085746765136719 28.09085845947266 6.227058410644531 C 23.19941711425781 8.29595947265625 18.80581665039062 11.25841522216797 15.03211212158203 15.03211212158203 C 11.25841522216797 18.80581665039062 8.29595947265625 23.19941711425781 6.227058410644531 28.09085845947266 C 4.085746765136719 33.15349960327148 3 38.53308486938477 3 44.0802001953125 C 3 49.62731552124023 4.085746765136719 55.00691604614258 6.227058410644531 60.06954193115234 C 8.29595947265625 64.96098327636719 11.25841522216797 69.35458374023438 15.03211212158203 73.12828826904297 C 18.80581665039062 76.90198516845703 23.19941711425781 79.86444091796875 28.09085845947266 81.93334197998047 C 33.15349960327148 84.07466125488281 38.53308486938477 85.160400390625 44.0802001953125 85.160400390625 C 49.62731552124023 85.160400390625 55.00691604614258 84.07466125488281 60.06954193115234 81.93334197998047 C 64.96099853515625 79.86444091796875 69.35458374023438 76.90198516845703 73.12828826904297 73.12828826904297 C 76.90198516845703 69.35458374023438 79.86444091796875 64.96099853515625 81.93334197998047 60.06954193115234 C 84.07466125488281 55.00691604614258 85.160400390625 49.62731552124023 85.160400390625 44.0802001953125 C 85.160400390625 38.53308486938477 84.07466125488281 33.15349960327148 81.93334197998047 28.09085845947266 C 79.86444091796875 23.19941711425781 76.90198516845703 18.80581665039062 73.12828826904297 15.03211212158203 C 69.35458374023438 11.25841522216797 64.96098327636719 8.29595947265625 60.06954193115234 6.227058410644531 C 55.00691604614258 4.085746765136719 49.62731552124023 3 44.0802001953125 3 M 44.0802001953125 0 C 68.42502593994141 0 88.160400390625 19.73538970947266 88.160400390625 44.0802001953125 C 88.160400390625 68.42502593994141 68.42502593994141 88.160400390625 44.0802001953125 88.160400390625 C 19.73538970947266 88.160400390625 0 68.42502593994141 0 44.0802001953125 C 0 19.73538970947266 19.73538970947266 0 44.0802001953125 0 Z" stroke="none" fill="#0b47db"/>
                          </g>
                        </g>
                      </g>
                    </g>
                  </g>
                </g>
              </g>
            </g>
          </g>
        </g>
      </g>
    </g>
    <g id="reconocimiento-facial" transform="translate(125.075 6940.969)">
      <g id="Grupo_1233693" data-name="Grupo 1233693" transform="translate(100.902 0.902)">
        <g id="Grupo_1233687" data-name="Grupo 1233687">
          <g id="Grupo_1233686" data-name="Grupo 1233686">
            <path id="Trazado_1222388" data-name="Trazado 1222388" d="M139.6,67.254H111.107a3.607,3.607,0,0,1-3.607-3.607V11.107A3.607,3.607,0,0,1,111.107,7.5H139.6a3.607,3.607,0,0,1,3.607,3.607v52.54A3.607,3.607,0,0,1,139.6,67.254Z" transform="translate(-107.5 -7.5)" fill="#eaf6ff"/>
            <path id="Trazado_1222389" data-name="Trazado 1222389" d="M160.652,7.5H157.7a3.608,3.608,0,0,1,2.877,3.533v52.54a3.607,3.607,0,0,1-3.607,3.607H131.428a3.623,3.623,0,0,0,.73.074h28.494a3.607,3.607,0,0,0,3.607-3.607V11.107A3.607,3.607,0,0,0,160.652,7.5Z" transform="translate(-128.551 -7.5)" fill="#d8ecfe"/>
          </g>
          <path id="Trazado_1222390" data-name="Trazado 1222390" d="M204.257,12.482h-10.81a2.4,2.4,0,0,1-2.4-2.4V7.5h15.62v2.577A2.4,2.4,0,0,1,204.257,12.482Z" transform="translate(-180.998 -7.5)" fill="#685e68"/>
        </g>
        <g id="Grupo_1233692" data-name="Grupo 1233692" transform="translate(3.701 18.177)">
          <g id="Grupo_1233691" data-name="Grupo 1233691">
            <g id="Grupo_1233690" data-name="Grupo 1233690" transform="translate(3.135)">
              <g id="Grupo_1233689" data-name="Grupo 1233689">
                <path id="Trazado_1222391" data-name="Trazado 1222391" d="M175.375,187.069a11.018,11.018,0,0,1-11.018-11.018V164.11a5.422,5.422,0,0,1,5.422-5.422h11.191a5.422,5.422,0,0,1,5.422,5.422v11.941A11.018,11.018,0,0,1,175.375,187.069Z" transform="translate(-164.357 -158.688)" fill="#ffcebf"/>
                <path id="Trazado_1222392" data-name="Trazado 1222392" d="M248.4,158.688h-3.607a5.422,5.422,0,0,1,5.422,5.422v11.941A11.02,11.02,0,0,1,241,186.921a11.023,11.023,0,0,0,12.822-10.87V164.11A5.422,5.422,0,0,0,248.4,158.688Z" transform="translate(-231.785 -158.688)" fill="#ffb09e"/>
                <path id="Trazado_1222393" data-name="Trazado 1222393" d="M180.972,158.688H169.78a5.422,5.422,0,0,0-5.422,5.422v7.75a17.8,17.8,0,0,0,8.915-1.321,17.566,17.566,0,0,0,5.028-3.288.444.444,0,0,1,.686.1,9.27,9.27,0,0,0,2.268,2.573,9.464,9.464,0,0,0,5.138,1.939v-7.75A5.422,5.422,0,0,0,180.972,158.688Z" transform="translate(-164.358 -158.688)" fill="#685e68"/>
                <g id="Grupo_1233688" data-name="Grupo 1233688" transform="translate(13.007)">
                  <path id="Trazado_1222394" data-name="Trazado 1222394" d="M276.15,158.688h-3.607a5.422,5.422,0,0,1,5.422,5.422v6.774a9.606,9.606,0,0,0,3.607.975v-7.75A5.422,5.422,0,0,0,276.15,158.688Z" transform="translate(-272.543 -158.688)" fill="#554e56"/>
                </g>
              </g>
            </g>
            <path id="Trazado_1222395" data-name="Trazado 1222395" d="M348.079,272.136h-.436v-5.4h.436a2.7,2.7,0,1,1,0,5.4Z" transform="translate(-322.472 -253.747)" fill="#ffcebf"/>
            <path id="Trazado_1222396" data-name="Trazado 1222396" d="M140.983,272.136h.436v-5.4h-.436a2.7,2.7,0,1,0,0,5.4Z" transform="translate(-138.284 -253.747)" fill="#ffb09e"/>
          </g>
        </g>
      </g>
      <path id="Trazado_1222397" data-name="Trazado 1222397" d="M113.73,38.305a.9.9,0,0,0,.9-.9V35.626a.9.9,0,0,0-1.8,0V37.4A.9.9,0,0,0,113.73,38.305Zm2.95,5.3a4.077,4.077,0,0,0,2.2.662,3.58,3.58,0,0,0,1.947-.662.9.9,0,1,0-1.044-1.47,1.771,1.771,0,0,1-2.063,0,.9.9,0,0,0-1.043,1.471Zm7.1-5.3a.9.9,0,0,0,.9-.9V35.626a.9.9,0,1,0-1.8,0V37.4A.9.9,0,0,0,123.781,38.305ZM133,0H104.509A4.514,4.514,0,0,0,100,4.509V15.091a.9.9,0,1,0,1.8,0V4.509A2.708,2.708,0,0,1,104.509,1.8h5.536V3.479a3.31,3.31,0,0,0,3.306,3.306h10.81a3.31,3.31,0,0,0,3.306-3.306V1.8H133a2.708,2.708,0,0,1,2.705,2.705v52.54A2.708,2.708,0,0,1,133,59.754H104.509a2.708,2.708,0,0,1-2.705-2.705V19.3a.9.9,0,1,0-1.8,0V57.049a4.514,4.514,0,0,0,4.509,4.509H133a4.514,4.514,0,0,0,4.509-4.509V4.509A4.514,4.514,0,0,0,133,0Zm-7.339,3.479a1.5,1.5,0,0,1-1.5,1.5H113.35a1.5,1.5,0,0,1-1.5-1.5V1.8h13.816ZM106.312,47.757a.9.9,0,0,0-.9.9v2.885a1.5,1.5,0,0,0,1.5,1.5H109.8a.9.9,0,0,0,0-1.8h-2.585V48.659A.9.9,0,0,0,106.312,47.757Zm23.986.9v2.585h-2.585a.9.9,0,1,0,0,1.8H130.6a1.5,1.5,0,0,0,1.5-1.5V48.659a.9.9,0,1,0-1.8,0Zm.9-29.877a.9.9,0,0,0,.9-.9V14.995a1.5,1.5,0,0,0-1.5-1.5h-2.885a.9.9,0,1,0,0,1.8H130.3V17.88A.9.9,0,0,0,131.2,18.782Zm-23.986-.9V15.3H109.8a.9.9,0,0,0,0-1.8h-2.885a1.5,1.5,0,0,0-1.5,1.5V17.88a.9.9,0,1,0,1.8,0ZM103.7,34.769a3.605,3.605,0,0,0,3.289,3.587,11.92,11.92,0,0,0,23.531,0,3.6,3.6,0,0,0,.154-7.156V24.5a6.331,6.331,0,0,0-6.324-6.324H113.16a6.331,6.331,0,0,0-6.324,6.324v6.7A3.605,3.605,0,0,0,103.7,34.769Zm26.974-1.734a1.795,1.795,0,0,1,0,3.468C130.676,36.452,130.677,33.092,130.676,33.035Zm-22.036.194q.524.029,1.046.029a18.68,18.68,0,0,0,4.428-.531.9.9,0,0,0-.427-1.752,16.915,16.915,0,0,1-5.047.447V24.5a4.526,4.526,0,0,1,4.521-4.521h11.191a4.526,4.526,0,0,1,4.521,4.521v6.73a8.322,8.322,0,0,1-5.73-3.954,1.346,1.346,0,0,0-2.076-.3,16.717,16.717,0,0,1-3.6,2.559.9.9,0,1,0,.841,1.6,18.491,18.491,0,0,0,3.579-2.467,10.1,10.1,0,0,0,2.193,2.355,10.207,10.207,0,0,0,4.79,2.035v3.383a10.116,10.116,0,0,1-20.233,0Zm-1.8-.194c0,.058,0,3.414,0,3.468a1.795,1.795,0,0,1,0-3.468Z" transform="translate(0)"/>
    </g>
  </g>
</svg>
