<svg xmlns="http://www.w3.org/2000/svg" xmlns:xlink="http://www.w3.org/1999/xlink" width="106.16" height="106.161" viewBox="0 0 106.16 106.161">
  <defs>
    <filter id="Trazado_982547" x="0" y="0" width="106.16" height="106.161" filterUnits="userSpaceOnUse">
      <feOffset dy="3" input="SourceAlpha"/>
      <feGaussianBlur stdDeviation="3" result="blur"/>
      <feFlood flood-opacity="0.161"/>
      <feComposite operator="in" in2="blur"/>
      <feComposite in="SourceGraphic"/>
    </filter>
  </defs>
  <g id="Grupo_1233695" data-name="Grupo 1233695" transform="translate(-820.25 -6921.667)">
    <g id="Grupo_1230979" data-name="Grupo 1230979" transform="translate(0 -511.747)">
      <g id="Grupo_1230694" data-name="Grupo 1230694" transform="translate(-0.25 3971.95)">
        <g id="Grupo_1224852" data-name="Grupo 1224852" transform="translate(629.5 1738.464)">
          <g id="Grupo_1206130" data-name="Grupo 1206130" transform="translate(0 -59)">
            <g id="Grupo_1203672" data-name="Grupo 1203672" transform="translate(0.08 -4797.878)">
              <g id="Grupo_1203344" data-name="Grupo 1203344" transform="translate(-81.08 5174.875)">
                <g id="Grupo_1177900" data-name="Grupo 1177900" transform="translate(281 1411.003)">
                  <g id="Grupo_1172010" data-name="Grupo 1172010" transform="translate(0)">
                    <g id="Grupo_1171046" data-name="Grupo 1171046">
                      <g id="Grupo_1148525" data-name="Grupo 1148525">
                        <g transform="matrix(1, 0, 0, 1, -9, -6)" filter="url(#Trazado_982547)">
                          <g id="Trazado_982547-2" data-name="Trazado 982547" transform="translate(9 6)" fill="#e5ebfb">
                            <path d="M 44.0802001953125 86.660400390625 C 38.33124923706055 86.660400390625 32.75506210327148 85.53479766845703 27.50652503967285 83.31484985351562 C 22.43628692626953 81.17032623291016 17.88242530822754 78.09992218017578 13.97144985198975 74.18894958496094 C 10.06047534942627 70.27797698974609 6.99007511138916 65.72411346435547 4.845550060272217 60.65387344360352 C 2.625600099563599 55.40533828735352 1.500000238418579 49.82915115356445 1.500000238418579 44.0802001953125 C 1.500000238418579 38.33124923706055 2.625600099563599 32.75506210327148 4.845550060272217 27.50652503967285 C 6.99007511138916 22.43628692626953 10.06047534942627 17.88242530822754 13.97144985198975 13.97144985198975 C 17.88242530822754 10.06047534942627 22.43628692626953 6.99007511138916 27.50652503967285 4.845550060272217 C 32.75506210327148 2.625600099563599 38.33124923706055 1.500000238418579 44.0802001953125 1.500000238418579 C 49.82915115356445 1.500000238418579 55.40533828735352 2.625600099563599 60.65387344360352 4.845550060272217 C 65.72411346435547 6.99007511138916 70.27797698974609 10.06047534942627 74.18894958496094 13.97144985198975 C 78.09992218017578 17.88242530822754 81.17032623291016 22.43628692626953 83.31484985351562 27.50652503967285 C 85.53479766845703 32.75506210327148 86.660400390625 38.33124923706055 86.660400390625 44.0802001953125 C 86.660400390625 49.82915115356445 85.53479766845703 55.40533828735352 83.31484985351562 60.65387344360352 C 81.17032623291016 65.72411346435547 78.09992218017578 70.27797698974609 74.18894958496094 74.18894958496094 C 70.27797698974609 78.09992218017578 65.72411346435547 81.17032623291016 60.65387344360352 83.31484985351562 C 55.40533828735352 85.53479766845703 49.82915115356445 86.660400390625 44.0802001953125 86.660400390625 Z" stroke="none"/>
                            <path d="M 44.0802001953125 3 C 38.53308486938477 3 33.15349960327148 4.085746765136719 28.09085845947266 6.227058410644531 C 23.19941711425781 8.29595947265625 18.80581665039062 11.25841522216797 15.03211212158203 15.03211212158203 C 11.25841522216797 18.80581665039062 8.29595947265625 23.19941711425781 6.227058410644531 28.09085845947266 C 4.085746765136719 33.15349960327148 3 38.53308486938477 3 44.0802001953125 C 3 49.62731552124023 4.085746765136719 55.00691604614258 6.227058410644531 60.06954193115234 C 8.29595947265625 64.96098327636719 11.25841522216797 69.35458374023438 15.03211212158203 73.12828826904297 C 18.80581665039062 76.90198516845703 23.19941711425781 79.86444091796875 28.09085845947266 81.93334197998047 C 33.15349960327148 84.07466125488281 38.53308486938477 85.160400390625 44.0802001953125 85.160400390625 C 49.62731552124023 85.160400390625 55.00691604614258 84.07466125488281 60.06954193115234 81.93334197998047 C 64.96099853515625 79.86444091796875 69.35458374023438 76.90198516845703 73.12828826904297 73.12828826904297 C 76.90198516845703 69.35458374023438 79.86444091796875 64.96099853515625 81.93334197998047 60.06954193115234 C 84.07466125488281 55.00691604614258 85.160400390625 49.62731552124023 85.160400390625 44.0802001953125 C 85.160400390625 38.53308486938477 84.07466125488281 33.15349960327148 81.93334197998047 28.09085845947266 C 79.86444091796875 23.19941711425781 76.90198516845703 18.80581665039062 73.12828826904297 15.03211212158203 C 69.35458374023438 11.25841522216797 64.96098327636719 8.29595947265625 60.06954193115234 6.227058410644531 C 55.00691604614258 4.085746765136719 49.62731552124023 3 44.0802001953125 3 M 44.0802001953125 0 C 68.42502593994141 0 88.160400390625 19.73538970947266 88.160400390625 44.0802001953125 C 88.160400390625 68.42502593994141 68.42502593994141 88.160400390625 44.0802001953125 88.160400390625 C 19.73538970947266 88.160400390625 0 68.42502593994141 0 44.0802001953125 C 0 19.73538970947266 19.73538970947266 0 44.0802001953125 0 Z" stroke="none" fill="#0b47db"/>
                          </g>
                        </g>
                      </g>
                    </g>
                  </g>
                </g>
              </g>
            </g>
          </g>
        </g>
      </g>
    </g>
    <g id="codigo_3_" data-name="codigo (3)" transform="translate(844.557 6918.936)">
      <path id="Trazado_1222398" data-name="Trazado 1222398" d="M199.335,379.385h-14.19l-.979,6.568h16.148Z" transform="translate(-163.466 -312.593)" fill="#4e5660"/>
      <path id="Trazado_1222399" data-name="Trazado 1222399" d="M171.068,442.259H149.642a1.4,1.4,0,0,1-1.341-1.792l.195-.662a2.762,2.762,0,0,1,2.649-1.982h18.419a2.762,2.762,0,0,1,2.649,1.982l.195.662A1.4,1.4,0,0,1,171.068,442.259Z" transform="translate(-131.581 -364.462)" fill="#c6c6c6"/>
      <path id="Trazado_1222400" data-name="Trazado 1222400" d="M158.468,437.823h-7.323A2.762,2.762,0,0,0,148.5,439.8l-.195.662a1.4,1.4,0,0,0,1.341,1.792h9.923A5.1,5.1,0,0,1,158.468,437.823Z" transform="translate(-131.581 -364.462)" fill="#9aa3b1"/>
      <path id="Trazado_1222401" data-name="Trazado 1222401" d="M56.7,73.449H14.163A6.663,6.663,0,0,1,7.5,66.787V41.372a6.663,6.663,0,0,1,6.663-6.663H56.7a6.663,6.663,0,0,1,6.663,6.663V66.787A6.663,6.663,0,0,1,56.7,73.449Z" transform="translate(-6.657 -6.657)" fill="#4e5660"/>
      <path id="Trazado_1222402" data-name="Trazado 1222402" d="M25.541,34.71H14.163A6.663,6.663,0,0,0,7.5,41.373V66.788a6.663,6.663,0,0,0,6.663,6.663h16.41c-6.333-6.628-9.12-25.232-5.031-38.74Z" transform="translate(-6.657 -6.658)" fill="#383c43"/>
      <path id="Trazado_1222403" data-name="Trazado 1222403" d="M48.044,101.934V78.2a2.946,2.946,0,0,1,2.946-2.946H91.845A2.946,2.946,0,0,1,94.791,78.2v23.735a2.946,2.946,0,0,1-2.946,2.946H50.99a2.946,2.946,0,0,1-2.946-2.946Z" transform="translate(-42.644 -42.645)" fill="#f7ef87"/>
      <path id="Trazado_1222404" data-name="Trazado 1222404" d="M63.548,104.88C60,97.5,58.555,85.549,60.437,75.254H50.991A2.946,2.946,0,0,0,48.045,78.2v23.735a2.946,2.946,0,0,0,2.946,2.946Z" transform="translate(-42.645 -42.645)" fill="#efd176"/>
      <path id="Trazado_1222405" data-name="Trazado 1222405" d="M276.428,75.254H256V104.88h20.428a2.946,2.946,0,0,0,2.946-2.946V78.2A2.946,2.946,0,0,0,276.428,75.254Z" transform="translate(-227.226 -42.645)" fill="#383c43"/>
      <path id="Trazado_1222406" data-name="Trazado 1222406" d="M7.5,303.52v1.864a6.663,6.663,0,0,0,6.663,6.663H56.7a6.663,6.663,0,0,0,6.663-6.663V303.52Z" transform="translate(-6.657 -245.255)" fill="#c6c6c6"/>
      <path id="Trazado_1222407" data-name="Trazado 1222407" d="M7.5,303.52v1.864a6.663,6.663,0,0,0,6.663,6.663h16.41a22.541,22.541,0,0,1-4.585-8.527Z" transform="translate(-6.657 -245.255)" fill="#9aa3b1"/>
      <circle id="Elipse_13804" data-name="Elipse 13804" cx="2.436" cy="2.436" r="2.436" transform="translate(26.338 60.093)" fill="#fff"/>
      <path id="Trazado_1222408" data-name="Trazado 1222408" d="M385.621,211.1H382.27a.843.843,0,1,1,0-1.686h3.351a.843.843,0,0,1,0,1.686Z" transform="translate(-338.556 -161.723)" fill="#fff"/>
      <path id="Trazado_1222409" data-name="Trazado 1222409" d="M301.395,211.1H294.56a.843.843,0,1,1,0-1.686h6.835a.843.843,0,1,1,0,1.686Z" transform="translate(-260.704 -161.723)" fill="#a3defe"/>
      <path id="Trazado_1222410" data-name="Trazado 1222410" d="M352.762,238.372h-4.169a.843.843,0,0,1,0-1.686h4.169a.843.843,0,0,1,0,1.686Z" transform="translate(-308.664 -185.933)" fill="#a3defe"/>
      <path id="Trazado_1222411" data-name="Trazado 1222411" d="M297.61,238.372h-3.049a.843.843,0,1,1,0-1.686h3.049a.843.843,0,0,1,0,1.686Z" transform="translate(-260.705 -185.933)" fill="#fff"/>
      <path id="Trazado_1222412" data-name="Trazado 1222412" d="M352.888,183.822H346.7a.843.843,0,0,1,0-1.686h6.185a.843.843,0,0,1,0,1.686Z" transform="translate(-306.987 -137.514)" fill="#89d47f"/>
      <path id="Trazado_1222413" data-name="Trazado 1222413" d="M297.4,183.822h-2.837a.843.843,0,1,1,0-1.686H297.4a.843.843,0,0,1,0,1.686Z" transform="translate(-260.705 -137.514)" fill="#e8899e"/>
      <path id="Trazado_1222414" data-name="Trazado 1222414" d="M384.137,156.546H380.6a.843.843,0,1,1,0-1.686h3.538a.843.843,0,0,1,0,1.686Z" transform="translate(-337.073 -113.303)" fill="#e8899e"/>
      <path id="Trazado_1222415" data-name="Trazado 1222415" d="M301.207,156.546H294.56a.843.843,0,1,1,0-1.686h6.647a.843.843,0,1,1,0,1.686Z" transform="translate(-260.704 -113.303)" fill="#fff"/>
      <path id="Trazado_1222416" data-name="Trazado 1222416" d="M352.361,129.271h-3.768a.843.843,0,0,1,0-1.686h3.768a.843.843,0,1,1,0,1.686Z" transform="translate(-308.664 -89.094)" fill="#89d47f"/>
      <path id="Trazado_1222417" data-name="Trazado 1222417" d="M297.61,129.271h-3.049a.843.843,0,1,1,0-1.686h3.049a.843.843,0,0,1,0,1.686Z" transform="translate(-260.705 -89.094)" fill="#a3defe"/>
      <path id="Trazado_1222418" data-name="Trazado 1222418" d="M19.326,39.245a.843.843,0,0,0-1.08.5l-3.9,10.719a.843.843,0,1,0,1.584.577l3.9-10.719a.843.843,0,0,0-.5-1.08Zm-5.345,2.082a.843.843,0,0,0-1.192,0L9.315,44.8a.843.843,0,0,0,0,1.192l3.473,3.473a.843.843,0,0,0,1.192-1.192L11.1,45.4l2.877-2.877A.843.843,0,0,0,13.981,41.327Zm36.06-14.118h-7.53a.843.843,0,1,0,0,1.686h7.53a5.826,5.826,0,0,1,5.82,5.82V57.422H52.99V35.555A3.793,3.793,0,0,0,49.2,31.766H8.346a3.793,3.793,0,0,0-3.789,3.789V57.422H1.686V34.715a5.826,5.826,0,0,1,5.82-5.82H38.27a.843.843,0,0,0,0-1.686H7.506A7.514,7.514,0,0,0,0,34.715V60.13a7.515,7.515,0,0,0,4.466,6.864.843.843,0,0,0,.683-1.541A5.827,5.827,0,0,1,1.686,60.13V59.108H55.861V60.13a5.826,5.826,0,0,1-5.82,5.82H8.74a.843.843,0,0,0,0,1.686H20.7l-.727,4.882h-.409A3.625,3.625,0,0,0,16.106,75.1l-.195.662A2.241,2.241,0,0,0,18.06,78.64H39.487a2.24,2.24,0,0,0,2.149-2.873l-.195-.662a3.625,3.625,0,0,0-3.458-2.587h-.409l-.727-4.882H50.042a7.514,7.514,0,0,0,7.506-7.506V34.715a7.514,7.514,0,0,0-7.506-7.506ZM51.3,57.422H6.243V35.555a2.105,2.105,0,0,1,2.1-2.1H49.2a2.105,2.105,0,0,1,2.1,2.1ZM22.4,67.635H35.142l.727,4.882H21.677ZM36.848,74.2h1.135a1.93,1.93,0,0,1,1.841,1.377l.195.662a.544.544,0,0,1-.088.489.55.55,0,0,1-.444.222H18.06a.55.55,0,0,1-.444-.222.544.544,0,0,1-.088-.489l.195-.662A1.93,1.93,0,0,1,19.564,74.2H36.848ZM21.385,41.327a.843.843,0,0,0-1.192,1.192L23.07,45.4l-2.877,2.877a.843.843,0,0,0,1.192,1.192l3.473-3.473a.843.843,0,0,0,0-1.192Z"/>
    </g>
  </g>
</svg>
