<svg xmlns="http://www.w3.org/2000/svg" xmlns:xlink="http://www.w3.org/1999/xlink" width="190" height="179" viewBox="0 0 190 179">
  <defs>
    <clipPath id="clip-path">
      <rect id="Rectángulo_423466" data-name="Rectángulo 423466" width="190" height="179" transform="translate(180 7075)" fill="#fff" stroke="#707070" stroke-width="1"/>
    </clipPath>
    <linearGradient id="linear-gradient" x1="-3.987" y1="0.008" x2="-3.08" y2="0.008" gradientUnits="objectBoundingBox">
      <stop offset="0" stop-color="#b37cff"/>
      <stop offset="1" stop-color="#f895e7"/>
    </linearGradient>
    <linearGradient id="linear-gradient-2" x1="-3.417" y1="-0.216" x2="-2.756" y2="-0.216" gradientUnits="objectBoundingBox">
      <stop offset="0" stop-color="#a737d5"/>
      <stop offset="1" stop-color="#ef497a"/>
    </linearGradient>
    <linearGradient id="linear-gradient-3" x1="4.7" y1="0.724" x2="5.469" y2="0.724" xlink:href="#linear-gradient-2"/>
    <linearGradient id="linear-gradient-4" x1="0.933" y1="-0.003" x2="-0.785" y2="1.996" gradientUnits="objectBoundingBox">
      <stop offset="0" stop-color="#2b3582"/>
      <stop offset="1" stop-color="#150e42"/>
    </linearGradient>
    <linearGradient id="linear-gradient-5" x1="0.591" y1="0.073" x2="0.23" y2="1.683" gradientUnits="objectBoundingBox">
      <stop offset="0" stop-color="#53d8ff"/>
      <stop offset="1" stop-color="#3840f7"/>
    </linearGradient>
    <linearGradient id="linear-gradient-6" x1="0.001" y1="-23.78" x2="0.314" y2="-8.56" xlink:href="#linear-gradient-5"/>
    <linearGradient id="linear-gradient-7" x1="0.683" y1="-0.615" x2="0.309" y2="1.663" xlink:href="#linear-gradient-5"/>
    <linearGradient id="linear-gradient-8" x1="-35.085" y1="0.976" x2="-33.478" y2="-0.095" gradientUnits="objectBoundingBox">
      <stop offset="0" stop-color="#f9b776"/>
      <stop offset="1" stop-color="#f47960"/>
    </linearGradient>
    <linearGradient id="linear-gradient-9" x1="-39.035" y1="3.694" x2="-33.05" y2="-8.994" xlink:href="#linear-gradient-8"/>
    <linearGradient id="linear-gradient-10" x1="-51.877" y1="0.5" x2="-50.877" y2="0.5" xlink:href="#linear-gradient-8"/>
    <linearGradient id="linear-gradient-11" x1="-45.415" y1="0.888" x2="-43.127" y2="-3.733" gradientUnits="objectBoundingBox">
      <stop offset="0" stop-color="#cb236d"/>
      <stop offset="1" stop-color="#4c246d"/>
    </linearGradient>
    <linearGradient id="linear-gradient-12" x1="-55.579" y1="1.997" x2="-52.698" y2="-2.348" xlink:href="#linear-gradient-11"/>
    <linearGradient id="linear-gradient-13" x1="3.654" y1="0.128" x2="2.022" y2="1.868" xlink:href="#linear-gradient-11"/>
    <linearGradient id="linear-gradient-14" x1="-70.374" y1="0.5" x2="-69.374" y2="0.5" xlink:href="#linear-gradient-8"/>
    <linearGradient id="linear-gradient-15" x1="-24.579" y1="0.087" x2="-26.508" y2="1.802" gradientUnits="objectBoundingBox">
      <stop offset="0" stop-color="#fdf53f"/>
      <stop offset="1" stop-color="#d93c65"/>
    </linearGradient>
    <linearGradient id="linear-gradient-16" x1="-15.435" y1="-0.089" x2="-17.643" y2="1.396" xlink:href="#linear-gradient-8"/>
    <linearGradient id="linear-gradient-17" x1="-52.32" y1="-0.515" x2="-60.019" y2="5.655" xlink:href="#linear-gradient-8"/>
    <linearGradient id="linear-gradient-18" x1="-52.504" y1="1.075" x2="-53.999" y2="-0.514" xlink:href="#linear-gradient-8"/>
    <linearGradient id="linear-gradient-19" x1="-10.577" y1="0.069" x2="-11.012" y2="0.617" xlink:href="#linear-gradient-4"/>
    <linearGradient id="linear-gradient-20" x1="0.931" y1="-1.137" x2="0.163" y2="1.779" xlink:href="#linear-gradient-15"/>
    <linearGradient id="linear-gradient-21" x1="0.748" y1="-0.102" x2="-0.283" y2="2.395" xlink:href="#linear-gradient-15"/>
    <linearGradient id="linear-gradient-22" x1="1.681" y1="-5.847" x2="-0.099" y2="3.847" xlink:href="#linear-gradient-15"/>
    <linearGradient id="linear-gradient-23" x1="0.649" y1="16.288" x2="1.598" y2="16.288" xlink:href="#linear-gradient"/>
    <linearGradient id="linear-gradient-24" x1="46.18" y1="178.172" x2="47.764" y2="178.172" xlink:href="#linear-gradient"/>
    <linearGradient id="linear-gradient-25" x1="32.09" y1="233.486" x2="32.825" y2="233.486" xlink:href="#linear-gradient"/>
    <linearGradient id="linear-gradient-26" x1="0.711" y1="17.366" x2="1.735" y2="17.366" xlink:href="#linear-gradient"/>
    <linearGradient id="linear-gradient-27" x1="-9.024" y1="192.409" x2="-7.509" y2="192.409" xlink:href="#linear-gradient"/>
    <linearGradient id="linear-gradient-28" x1="0.627" y1="0.057" x2="0.255" y2="1.352" xlink:href="#linear-gradient-15"/>
    <linearGradient id="linear-gradient-29" x1="-38.698" y1="284.593" x2="-37.98" y2="284.593" xlink:href="#linear-gradient"/>
    <linearGradient id="linear-gradient-30" x1="-1.296" y1="31.675" x2="-0.482" y2="31.675" xlink:href="#linear-gradient"/>
    <linearGradient id="linear-gradient-31" x1="-2.275" y1="25.252" x2="-0.891" y2="25.252" xlink:href="#linear-gradient"/>
    <linearGradient id="linear-gradient-32" x1="-61.709" y1="242.753" x2="-59.952" y2="242.753" xlink:href="#linear-gradient"/>
    <linearGradient id="linear-gradient-33" x1="0.739" y1="-0.264" x2="0.183" y2="1.514" xlink:href="#linear-gradient-15"/>
  </defs>
  <g id="Enmascarar_grupo_1208522" data-name="Enmascarar grupo 1208522" transform="translate(-180 -7075)" clip-path="url(#clip-path)">
    <g id="Illustration" transform="translate(-254.538 6658.242)">
      <g id="Grupo_1233894" data-name="Grupo 1233894" transform="translate(449.776 423.388)">
        <g id="Grupo_1233873" data-name="Grupo 1233873" transform="translate(79.857 0)">
          <g id="Grupo_1233871" data-name="Grupo 1233871" transform="translate(8.282 69.73)">
            <path id="Trazado_1222884" data-name="Trazado 1222884" d="M1867.18,1640.539s34.175-86.335,84.945-95.766a1.422,1.422,0,0,1,1.677,1.468C1953.289,1556.891,1946.786,1613.251,1867.18,1640.539Z" transform="translate(-1867.18 -1544.749)" opacity="0.81" fill="url(#linear-gradient)"/>
            <path id="Trazado_1222885" data-name="Trazado 1222885" d="M1962.907,1766.626c-2.592,3.7-5.309,7.3-8.063,10.877-.687.894-1.391,1.777-2.085,2.666s-1.385,1.781-2.1,2.656l-2.129,2.631c-.713.874-1.411,1.761-2.141,2.621-1.451,1.728-2.887,3.468-4.349,5.187l-4.432,5.117c-3.007,3.365-6.011,6.733-9.11,10.014l-2.306,2.478c-.76.835-1.565,1.626-2.345,2.441l-4.708,4.868-4.829,4.749c-.807.79-1.606,1.588-2.428,2.361l-2.491,2.295c-1.664,1.526-3.311,3.072-5,4.567l-5.144,4.408-1.292,1.095c-.434.361-.856.736-1.3,1.084l-2.657,2.1c-.883.7-1.779,1.391-2.668,2.086s-1.78,1.387-2.676,2.073a.156.156,0,0,1-.2-.242l0,0q1.284-1.1,2.58-2.188c.863-.725,1.719-1.458,2.588-2.175l2.6-2.16c.857-.732,1.687-1.494,2.537-2.233l5.089-4.448,4.984-4.564,2.494-2.28c.417-.379.814-.779,1.222-1.167l1.222-1.166,4.89-4.668c3.18-3.193,6.413-6.337,9.484-9.638,1.551-1.636,3.12-3.254,4.618-4.939s3.035-3.334,4.535-5.016l4.447-5.1c1.467-1.711,2.909-3.444,4.365-5.166.733-.856,1.433-1.74,2.149-2.61l2.137-2.621c.715-.871,1.4-1.765,2.106-2.646s1.4-1.765,2.093-2.656c2.751-3.571,5.464-7.176,8.048-10.866l0,0a.156.156,0,1,1,.256.18Z" transform="translate(-1887.084 -1752.598)" fill="#fff" opacity="0.62"/>
          </g>
          <g id="Grupo_1233872" data-name="Grupo 1233872" opacity="0.79">
            <path id="Trazado_1222886" data-name="Trazado 1222886" d="M1734,539.394s16.614-76.238,66.767-115.758a1.144,1.144,0,0,1,1.821.619C1805.744,437.021,1822.17,518.446,1734,539.394Z" transform="translate(-1734 -423.388)" fill="url(#linear-gradient-2)"/>
            <path id="Trazado_1222887" data-name="Trazado 1222887" d="M1835.063,778.488c-.576,2.211-1.246,4.39-1.953,6.559s-1.453,4.325-2.243,6.464q-2.379,6.416-5.176,12.669c-.462,1.043-.949,2.075-1.422,3.113s-.99,2.056-1.484,3.084-1.02,2.042-1.534,3.06l-.778,1.525-.8,1.511c-2.144,4.029-4.4,8-6.836,11.863s-4.979,7.658-7.716,11.313c-.339.459-.671.923-1.016,1.379l-1.05,1.353-1.05,1.353c-.352.449-.693.907-1.063,1.342l-2.181,2.641-.547.658-.567.641-1.134,1.283a133.425,133.425,0,0,1-20.042,18.591.136.136,0,0,1-.168-.214l0,0,2.645-2.157,1.324-1.075,1.282-1.126,2.561-2.253,2.476-2.346c.41-.394.832-.775,1.235-1.175l1.2-1.212c.8-.812,1.607-1.608,2.388-2.433,1.536-1.676,3.108-3.318,4.57-5.059l1.115-1.289.557-.645.538-.661,2.156-2.64c.366-.435.7-.892,1.053-1.34l1.04-1.35,1.04-1.35c.341-.454.67-.918,1.006-1.376,2.711-3.649,5.223-7.442,7.64-11.291s4.7-7.785,6.849-11.792l.807-1.5.78-1.516c.516-1.013,1.048-2.018,1.54-3.043,1.009-2.038,1.983-4.092,2.943-6.154q2.856-6.2,5.306-12.571,1.243-3.178,2.358-6.4.562-1.611,1.085-3.236c.354-1.08.693-2.168,1.006-3.258v0a.136.136,0,0,1,.263.072Z" transform="translate(-1773.621 -756.247)" fill="#fff" opacity="0.62"/>
          </g>
        </g>
        <g id="Grupo_1233874" data-name="Grupo 1233874" transform="translate(0 4.636)" opacity="0.76">
          <path id="Trazado_1222888" data-name="Trazado 1222888" d="M503.569,605.213s-6.479-67.63-45.752-106.984a1,1,0,0,0-1.639.347C452.13,509.287,429.508,577.984,503.569,605.213Z" transform="translate(-449.776 -497.934)" fill="url(#linear-gradient-3)"/>
          <path id="Trazado_1222889" data-name="Trazado 1222889" d="M616.514,814.974c.67,3.9,1.538,7.772,2.529,11.605q1.464,5.757,3.3,11.411c.618,1.881,1.249,3.757,1.91,5.622.319.937.675,1.861,1.017,2.789l.518,1.391.543,1.381c1.444,3.685,3,7.326,4.7,10.9s3.468,7.115,5.433,10.55c.243.431.479.865.727,1.293l.759,1.275.759,1.275c.255.424.5.854.771,1.267l1.59,2.505.4.627.414.615.829,1.23c1.082,1.657,2.27,3.24,3.423,4.848.589.794,1.208,1.566,1.811,2.351l.91,1.173c.307.388.632.761.945,1.144l1.894,2.286,1.977,2.215.99,1.107,1.032,1.068,2.059,2.142,0,0a.136.136,0,0,1-.192.193,115.57,115.57,0,0,1-15.43-18.133l-.849-1.226-.425-.613-.406-.625-1.614-2.509c-.274-.415-.522-.846-.781-1.271l-.769-1.278-.769-1.278c-.251-.429-.49-.865-.736-1.3-1.99-3.444-3.792-6.993-5.506-10.581s-3.246-7.261-4.682-10.968l-.539-1.39-.514-1.4c-.339-.934-.692-1.864-1.009-2.805s-.659-1.875-.963-2.821-.615-1.89-.905-2.84a155.05,155.05,0,0,1-5.419-23.193.136.136,0,0,1,.269-.043Z" transform="translate(-605.891 -795.149)" fill="#fff" opacity="0.62"/>
        </g>
        <g id="Grupo_1233879" data-name="Grupo 1233879" transform="translate(17.22 0.463)">
          <path id="Trazado_1222890" data-name="Trazado 1222890" d="M728.442,439.316c-.562,26.539-2.386,118.083-1.516,150.523.092,3.437,2.447,6.2,5.385,6.308,14.53.556,67.794,1.966,91.56.8,4.95-.243,8.886-4.934,8.989-10.728.494-27.856,1.583-106.205-1.006-142.1-.31-4.3-3.2-7.725-6.866-8.154-15.823-1.852-69.317-6.378-89.849-4.82C731.435,431.428,728.534,434.977,728.442,439.316Z" transform="translate(-726.694 -430.826)" fill="url(#linear-gradient-4)"/>
          <path id="Trazado_1222891" data-name="Trazado 1222891" d="M819.574,591.531c-.782,21.421-3.249,92.684-2.466,119.036.115,3.852,2.709,6.966,6,7.191,13.541.927,59.739,2.971,79.6,1.11,3.576-.335,6.383-3.719,6.576-7.91,1.006-21.854,3.9-88.21,3.146-114.266-.12-4.157-2.872-7.551-6.413-7.923-14.649-1.539-63.74-5.2-80.617-4.122C822.23,584.849,819.71,587.823,819.574,591.531Z" transform="translate(-811.344 -574.899)" fill="url(#linear-gradient-5)"/>
          <path id="Trazado_1222892" data-name="Trazado 1222892" d="M1443.17,496.928h0a1.446,1.446,0,0,0,1.238,1.529c3.432.21,13.1.805,17.42,1.1a1.463,1.463,0,0,0,1.359-1.818l-.028-.167a1.406,1.406,0,0,0-1.164-1.234,142.981,142.981,0,0,0-17.571-.937A1.441,1.441,0,0,0,1443.17,496.928Z" transform="translate(-1398.617 -491.343)" opacity="0.61" fill="url(#linear-gradient-6)"/>
          <g id="Grupo_1233878" data-name="Grupo 1233878" transform="translate(15.399 21.028)">
            <g id="Grupo_1233875" data-name="Grupo 1233875" transform="translate(15.64)">
              <circle id="Elipse_13805" data-name="Elipse 13805" cx="20.266" cy="20.266" r="20.266" fill="url(#linear-gradient-7)"/>
              <path id="Trazado_1222893" data-name="Trazado 1222893" d="M1464.124,883.28c0,3.432-2.782,7.136-6.214,7.136s-6.213-3.7-6.213-7.136a6.224,6.224,0,0,1,12.427,0Z" transform="translate(-1437.653 -870.672)" fill="#fff"/>
              <path id="Trazado_1222894" data-name="Trazado 1222894" d="M1362.75,1129.6h15.168a3.671,3.671,0,0,0,3.5-2.553l.816-2.551a3.668,3.668,0,0,0-2.216-4.564c-6.173-2.257-12.556-1.967-19.094.208a3.656,3.656,0,0,0-2.343,4.432l.629,2.317A3.671,3.671,0,0,0,1362.75,1129.6Z" transform="translate(-1350.203 -1096.648)" fill="#fff"/>
            </g>
            <g id="Grupo_1233876" data-name="Grupo 1233876" transform="translate(0 61.393)" opacity="0.71">
              <path id="Trazado_1222895" data-name="Trazado 1222895" d="M1055.179,1767.787H981.236a.42.42,0,0,1-.42-.42V1756.7a.42.42,0,0,1,.42-.42h73.943a.42.42,0,0,1,.42.42v10.666A.419.419,0,0,1,1055.179,1767.787Z" transform="translate(-980.412 -1756.282)" fill="#fff" opacity="0.65"/>
              <path id="Trazado_1222896" data-name="Trazado 1222896" d="M1048.689,2069.657H974.746a.42.42,0,0,1-.42-.42v-10.666a.42.42,0,0,1,.42-.42h73.943a.42.42,0,0,1,.42.42v10.666A.42.42,0,0,1,1048.689,2069.657Z" transform="translate(-974.326 -2039.381)" fill="#fff" opacity="0.65"/>
              <path id="Trazado_1222897" data-name="Trazado 1222897" d="M1217.147,2382.007h-47.274a.518.518,0,0,1-.518-.518v-13.632a.518.518,0,0,1,.518-.518h47.274a.518.518,0,0,1,.518.518v13.632A.518.518,0,0,1,1217.147,2382.007Z" transform="translate(-1157.227 -2329.341)" fill="#fff" opacity="0.65"/>
            </g>
            <path id="Trazado_1222898" data-name="Trazado 1222898" d="M1077.883,1804.58h-43.05a.746.746,0,0,1-.746-.746v-4.9a.746.746,0,0,1,.746-.746h43.05a.746.746,0,0,1,.746.746v4.9A.746.746,0,0,1,1077.883,1804.58Z" transform="translate(-1030.371 -1734.189)" fill="#fff" opacity="0.75"/>
            <g id="Grupo_1233877" data-name="Grupo 1233877" transform="translate(1.838 82.17)" opacity="0.75">
              <circle id="Elipse_13806" data-name="Elipse 13806" cx="2.624" cy="2.624" r="2.624" transform="translate(0 2.008) rotate(-22.5)" fill="#fff"/>
              <circle id="Elipse_13807" data-name="Elipse 13807" cx="2.624" cy="2.624" r="2.624" transform="translate(7.2 2.143) rotate(-22.5)" fill="#fff"/>
              <circle id="Elipse_13808" data-name="Elipse 13808" cx="2.624" cy="2.624" r="2.624" transform="translate(14.13 2.48) rotate(-22.5)" fill="#fff"/>
              <circle id="Elipse_13809" data-name="Elipse 13809" cx="2.624" cy="2.624" r="2.624" transform="translate(21.042 4.032) rotate(-45)" fill="#fff"/>
              <circle id="Elipse_13810" data-name="Elipse 13810" cx="2.624" cy="2.624" r="2.624" transform="translate(28.794 5.927) rotate(-76.714)" fill="#fff"/>
              <circle id="Elipse_13811" data-name="Elipse 13811" cx="2.624" cy="2.624" r="2.624" transform="translate(36.146 6.271) rotate(-80.782)" fill="#fff"/>
            </g>
          </g>
        </g>
        <g id="Grupo_1233880" data-name="Grupo 1233880" transform="translate(68.617 38.735)">
          <path id="Trazado_1222899" data-name="Trazado 1222899" d="M2115.42,2294.08l8.039,2.01-2.01,15.073a17.124,17.124,0,0,1,4.019,7.034c1,4.02,1.931,20.9,1.931,20.9l1.907,1.154.232.963-5.55,7.462.92-5.939c.146-.943-.107-2.855-.027-2.895-3.015-8.039-9.463-30.685-9.463-30.685Z" transform="translate(-2080.462 -2216.49)" fill="url(#linear-gradient-8)"/>
          <path id="Trazado_1222900" data-name="Trazado 1222900" d="M2014.978,2129.147c.087,0,.173.006.26,0-.388-4.846-2.164-26.175-3.94-34.17-2.01-9.044,3.015-27.132,3.015-27.132l9.044,9.044-5.025,17.083c3.443,5.165-.562,35.411-.475,35.4l-.005.067,1.311,1.8-.16.977-8.009,4.726,3.151-5.117A5.748,5.748,0,0,0,2014.978,2129.147Z" transform="translate(-1982.37 -2004.323)" fill="url(#linear-gradient-9)"/>
          <path id="Trazado_1222901" data-name="Trazado 1222901" d="M2214.171,1422.81s17.609,19.846,0,30.022l-1.794-1.3s8.742-8.371,0-18.619Z" transform="translate(-2171.39 -1399.398)" fill="url(#linear-gradient-10)"/>
          <path id="Trazado_1222902" data-name="Trazado 1222902" d="M1994.891,3076.371h2.556a1.539,1.539,0,0,0,1.221-.6c.8-1.035,2.448-3.055,3.237-3.108,1.063-.071.927,3.707.927,3.707h.6l.755-4.694a2.779,2.779,0,0,0-1.458-2.9h0a3.929,3.929,0,0,1-1.56,2.591c-1.317.794-5.36,3.64-5.36,3.64a3.655,3.655,0,0,0-1.039.028A.676.676,0,0,0,1994.891,3076.371Z" transform="translate(-1966.794 -2943.009)" fill="url(#linear-gradient-11)"/>
          <path id="Trazado_1222903" data-name="Trazado 1222903" d="M2235.8,3034.84l2.356-.991a1.538,1.538,0,0,0,.894-1.025c.333-1.263,1.071-3.765,1.779-4.12.952-.478,2.292,3.057,2.292,3.057l.549-.231-1.125-4.62a2.779,2.779,0,0,0-2.47-2.112h0a3.93,3.93,0,0,1-.433,2.993c-.906,1.243-3.529,5.434-3.529,5.434a3.652,3.652,0,0,0-.947.428A.676.676,0,0,0,2235.8,3034.84Z" transform="translate(-2192.466 -2901.77)" fill="url(#linear-gradient-12)"/>
          <path id="Trazado_1222904" data-name="Trazado 1222904" d="M1995.589,1819.851a32.388,32.388,0,0,1-.138,6.791c-.433,4.98-2.5,16.671-2.081,27.857,0,0,5.884,1.371,16.107.722,0,0,4.314-17.465,3.263-24.1s-6.752-11.4-6.752-11.4Z" transform="translate(-1965.949 -1771.621)" fill="url(#linear-gradient-13)"/>
          <path id="Trazado_1222905" data-name="Trazado 1222905" d="M2088.969,1219.682l-.719,8.456h6.833l-1.7-12.908Z" transform="translate(-2054.982 -1204.726)" fill="url(#linear-gradient-14)"/>
          <path id="Trazado_1222906" data-name="Trazado 1222906" d="M1981.626,1400.293c-2.358-.13-7.63-.371-11.365-.167a4.339,4.339,0,0,0-4.016,3.446l-.911,4.366a10.512,10.512,0,0,0,.148,4.912l3.659,13.431s3.255,1.956,10.4-.137c0,0,6.274-14.962,3.706-24.534A1.779,1.779,0,0,0,1981.626,1400.293Z" transform="translate(-1939.501 -1378.05)" fill="url(#linear-gradient-15)"/>
          <path id="Trazado_1222907" data-name="Trazado 1222907" d="M1663.056,1416.1c-1.007,2.651-1.916,5.431-2.892,8.035-.5,1.3-1,2.58-1.539,3.753-.273.584-.572,1.121-.847,1.608a7.123,7.123,0,0,1-.746,1.067c-.032.027.074.048.11.05s-.68.115-.9.151l-.841-.005a29.328,29.328,0,0,1-3.941-.541c-2.762-.515-5.635-1.238-8.584-1.785l-.023,0a1.039,1.039,0,0,0-.876,1.8,30.2,30.2,0,0,0,3.757,2.744c.658.4,1.328.8,2.008,1.176.694.354,1.39.71,2.113,1.04a24.534,24.534,0,0,0,4.691,1.594c.455.076.9.156,1.373.219.525.018,1,.065,1.576.031.3-.03.611-.068.916-.112a4.132,4.132,0,0,0,.48-.086c.209-.063.418-.133.624-.21a6.494,6.494,0,0,0,1.057-.536c.29-.191.555-.391.811-.6a10.971,10.971,0,0,0,2.053-2.376,18.787,18.787,0,0,0,1.294-2.291,31.253,31.253,0,0,0,1.781-4.5,41.987,41.987,0,0,0,1.859-9.114,2.737,2.737,0,0,0-5.284-1.209Z" transform="translate(-1636.133 -1391.363)" fill="url(#linear-gradient-16)"/>
          <path id="Trazado_1222908" data-name="Trazado 1222908" d="M1560.921,1596.436l-1.219-2.894-6.417-1.6s-.513,1.112,2.182,1.6a2.353,2.353,0,0,0-.449,2.316C1555.531,1597.109,1560.985,1598.363,1560.921,1596.436Z" transform="translate(-1553.246 -1558.014)" fill="url(#linear-gradient-17)"/>
          <path id="Trazado_1222909" data-name="Trazado 1222909" d="M2035.305,1109.183c-.244.144-2.166,6.924-.555,9.766s6.53-.341,7.863-4.452S2041.8,1105.351,2035.305,1109.183Z" transform="translate(-2004.211 -1103.994)" fill="url(#linear-gradient-18)"/>
          <path id="Trazado_1222910" data-name="Trazado 1222910" d="M2034.092,1056.813c1.1,5.406,4.759,3.926,7.348,6.331,4.2,3.9,10.2-.12,16.036,3.574,4.213,2.667,6.243,9.489,4.221,15-2.8,7.629-12.37,10.766-17.33,8.443-4.74-2.221-4.065-8.872-10.443-11.442-2.707-1.091-4.044-.382-5.665-2-2.839-2.831-2.073-8.326-1.777-10.443.64-4.593,2.18-5.424,1.444-7.443-1.432-3.926-8.109-3.116-8.665-5.888-.507-2.524,4.333-7.308,8.887-6.554C2035.2,1047.555,2033.6,1054.405,2034.092,1056.813Z" transform="translate(-1990.249 -1046.309)" fill="url(#linear-gradient-19)"/>
          <path id="Trazado_1222911" data-name="Trazado 1222911" d="M2523.009,1391.4a.184.184,0,0,0,.179-.141c.9-3.745.493-6.817-1.217-9.13-2.838-3.838-8.353-4.218-8.408-4.221a.187.187,0,0,0-.2.173.184.184,0,0,0,.173.2c.054,0,5.4.374,8.136,4.075,1.641,2.221,2.029,5.189,1.153,8.822a.185.185,0,0,0,.136.223A.207.207,0,0,0,2523.009,1391.4Z" transform="translate(-2453.663 -1357.287)" fill="#fff" opacity="0.6"/>
          <path id="Trazado_1222912" data-name="Trazado 1222912" d="M2174.327,1339.191l.023,0a.093.093,0,0,0,.066-.113c-.879-3.372-2.421-5.713-4.583-6.96a9.06,9.06,0,0,0-4.345-1.066,4.885,4.885,0,0,1-3.206-.909c-1.8-1.6-1.7-5.45.31-11.44a.092.092,0,0,0-.175-.058c-2.031,6.066-2.118,9.981-.257,11.635a5.013,5.013,0,0,0,3.317.955,8.91,8.91,0,0,1,4.263,1.042c2.117,1.221,3.63,3.525,4.5,6.847A.092.092,0,0,0,2174.327,1339.191Z" transform="translate(-2123.045 -1301.648)" fill="#fff" opacity="0.72"/>
          <path id="Trazado_1222913" data-name="Trazado 1222913" d="M2058.343,1121.222a.094.094,0,0,0,.029,0,.093.093,0,0,0,.058-.117c-.7-2.078-2.711-1.77-4.844-1.442a9.374,9.374,0,0,1-3.929.071c-.883-.262-1.408-.668-1.559-1.206-.259-.917.648-1.94.657-1.95a.092.092,0,1,0-.137-.123,2.643,2.643,0,0,0-.7,2.123c.17.6.737,1.052,1.685,1.333a9.5,9.5,0,0,0,4.01-.065c2.14-.328,3.991-.614,4.64,1.318A.092.092,0,0,0,2058.343,1121.222Z" transform="translate(-2017.109 -1112.06)" fill="#fff" opacity="0.72"/>
        </g>
        <g id="Grupo_1233884" data-name="Grupo 1233884" transform="translate(130.188 9.68)">
          <g id="Grupo_1233881" data-name="Grupo 1233881">
            <path id="Trazado_1222914" data-name="Trazado 1222914" d="M2543.39,596.276c0-9.514,8.059-17.225,17.73-17.224a16.491,16.491,0,0,1,16.792,16.317c0,9.01-7.407,16.7-16.792,17.2C2551.449,613.077,2543.39,605.789,2543.39,596.276Z" transform="translate(-2543.39 -579.052)" fill="url(#linear-gradient-20)"/>
          </g>
          <g id="Grupo_1233882" data-name="Grupo 1233882" transform="translate(1.617 1.572)">
            <path id="Trazado_1222915" data-name="Trazado 1222915" d="M2569.4,619.936c0-8.622,7.3-15.611,16.068-15.61a14.946,14.946,0,0,1,15.219,14.788,15.933,15.933,0,0,1-15.219,15.587C2576.7,635.163,2569.4,628.558,2569.4,619.936Z" transform="translate(-2569.4 -604.326)" fill="url(#linear-gradient-21)"/>
          </g>
          <g id="Grupo_1233883" data-name="Grupo 1233883" transform="translate(9.769 5.644)">
            <path id="Trazado_1222916" data-name="Trazado 1222916" d="M2722.372,680.377h-1.44v-5.739a4.467,4.467,0,0,1,3.925-4.431l2.944-.358a4.463,4.463,0,0,1,5,4.431v5.01h-1.44v-5.01a3.024,3.024,0,0,0-3.388-3l-2.944.358a3.026,3.026,0,0,0-2.659,3v5.739Z" transform="translate(-2719.661 -669.817)" fill="#fff"/>
            <path id="Trazado_1222917" data-name="Trazado 1222917" d="M2701.336,808.343l12.623-.7a.9.9,0,0,1,.944.893v10a.894.894,0,0,1-.894.894h-12.32a.894.894,0,0,1-.894-.865l-.3-9.3A.9.9,0,0,1,2701.336,808.343Z" transform="translate(-2700.491 -799.072)" fill="#fff"/>
            <path id="Trazado_1222918" data-name="Trazado 1222918" d="M2786.769,853.2,2786,851a.735.735,0,0,1,.167-.758,2.08,2.08,0,1,0-2.79.155.741.741,0,0,1,.241.819l-.689,1.981a.741.741,0,0,0,.7.985h2.435A.741.741,0,0,0,2786.769,853.2Z" transform="translate(-2777.505 -835.706)" fill="url(#linear-gradient-22)"/>
          </g>
        </g>
        <g id="Grupo_1233893" data-name="Grupo 1233893" transform="translate(1.095 102.137)">
          <g id="Grupo_1233888" data-name="Grupo 1233888">
            <g id="Grupo_1233885" data-name="Grupo 1233885" transform="translate(0 23.619)" opacity="0.3">
              <path id="Trazado_1222919" data-name="Trazado 1222919" d="M509.173,2548.72a.73.73,0,0,1-.243.915c-.645.429-1.318.835-2,1.207a.662.662,0,0,1-.913-.3l-.006-.013a.727.727,0,0,1,.293-.946c.647-.353,1.286-.739,1.9-1.146a.658.658,0,0,1,.934.221C509.151,2548.677,509.162,2548.7,509.173,2548.72Zm-5.3,2.7a.74.74,0,0,1,.032.078.719.719,0,0,1-.409.908c-.723.27-1.464.51-2.2.714a.676.676,0,0,1-.828-.507.714.714,0,0,1,.481-.868c.7-.194,1.406-.422,2.092-.678A.664.664,0,0,1,503.876,2551.425Zm-5.734,1.411a.736.736,0,0,1,.066.232.7.7,0,0,1-.591.789c-.761.094-1.535.155-2.3.18a.712.712,0,0,1-.046-1.421c.727-.024,1.462-.081,2.185-.171A.673.673,0,0,1,498.142,2552.836Zm-5.9.028a.739.739,0,0,1,.067.391.684.684,0,0,1-.744.63c-.762-.087-1.53-.21-2.282-.365a.713.713,0,0,1-.536-.834.677.677,0,0,1,.793-.56c.714.147,1.444.263,2.168.346A.681.681,0,0,1,492.246,2552.864Zm-5.756-1.354a.741.741,0,0,1,.034.547.668.668,0,0,1-.859.44c-.723-.262-1.447-.56-2.149-.886a.726.726,0,0,1-.347-.937.663.663,0,0,1,.892-.362c.667.31,1.355.594,2.042.842A.69.69,0,0,1,486.49,2551.51Zm-5.33-2.657a.741.741,0,0,1-.029.69.658.658,0,0,1-.931.229c-.652-.424-1.295-.883-1.91-1.363a.735.735,0,0,1-.141-.995.655.655,0,0,1,.946-.146c.585.457,1.2.892,1.815,1.3A.7.7,0,0,1,481.16,2548.854Zm-12.491-22.591a.739.739,0,0,1,.07.292c.026.763.083,1.535.172,2.3a.7.7,0,0,1-.589.79.686.686,0,0,1-.754-.621c-.093-.8-.154-1.614-.181-2.417a.7.7,0,0,1,.652-.733A.675.675,0,0,1,468.669,2526.262Zm7.853,18.764a.737.737,0,0,1-.123.815.654.654,0,0,1-.957.006c-.546-.565-1.076-1.162-1.574-1.775a.737.737,0,0,1,.074-1,.655.655,0,0,1,.954.08c.473.582.976,1.149,1.494,1.686A.7.7,0,0,1,476.522,2545.027Zm-6.982-12.639a.728.728,0,0,1,.048.134c.188.739.409,1.479.656,2.2a.719.719,0,0,1-.407.908.669.669,0,0,1-.866-.43c-.26-.758-.492-1.537-.69-2.314a.713.713,0,0,1,.479-.869A.668.668,0,0,1,469.54,2532.388Zm3.273,7.822a.73.73,0,0,1-.242.914.659.659,0,0,1-.935-.219c-.412-.678-.8-1.385-1.157-2.1l-.007-.014a.727.727,0,0,1,.292-.945.662.662,0,0,1,.913.3c.338.678.708,1.349,1.1,1.994C472.79,2540.165,472.8,2540.187,472.813,2540.209Z" transform="translate(-467.386 -2520.884)" fill="url(#linear-gradient-23)"/>
              <path id="Trazado_1222920" data-name="Trazado 1222920" d="M470.85,2446.134a.739.739,0,0,1,.063.42c-.051.362-.1.732-.132,1.1a.684.684,0,0,1-.744.63.7.7,0,0,1-.6-.783c.039-.385.085-.774.139-1.156a.668.668,0,0,1,1.276-.21Z" transform="translate(-469.305 -2445.738)" fill="url(#linear-gradient-24)"/>
            </g>
            <g id="Grupo_1233886" data-name="Grupo 1233886" transform="translate(10.125)" opacity="0.3">
              <path id="Trazado_1222921" data-name="Trazado 1222921" d="M632.361,2148.962a.732.732,0,0,1-.213.894c-.284.213-.568.435-.845.66a.655.655,0,0,1-.95-.126.733.733,0,0,1,.118-1c.291-.238.591-.472.89-.7a.657.657,0,0,1,.944.167A.8.8,0,0,1,632.361,2148.962Z" transform="translate(-630.21 -2143.426)" fill="url(#linear-gradient-25)"/>
              <path id="Trazado_1222922" data-name="Trazado 1222922" d="M730.484,2081.688q.208.44.4.89a.724.724,0,0,1-.335.94.665.665,0,0,1-.9-.353c-.3-.693-.628-1.371-.975-2.024a.729.729,0,0,1,.259-.967.661.661,0,0,1,.921.274C730.077,2080.854,730.286,2081.271,730.484,2081.688Zm1.662,4.405a.728.728,0,0,1,.042.113c.218.76.407,1.538.563,2.312a.709.709,0,0,1-.522.841.679.679,0,0,1-.8-.55c-.148-.735-.328-1.474-.535-2.2a.715.715,0,0,1,.453-.884A.667.667,0,0,1,732.146,2086.094Zm-4.236-8.777a.733.733,0,0,1-.2.882.656.656,0,0,1-.948-.14c-.431-.6-.893-1.188-1.373-1.75a.736.736,0,0,1,.05-1,.655.655,0,0,1,.956.056c.505.591.991,1.211,1.446,1.842A.781.781,0,0,1,727.91,2077.317Zm5.287,14.772a.741.741,0,0,1,.069.266c.054.791.076,1.593.065,2.385a.677.677,0,1,1-1.353-.023c.01-.751-.011-1.513-.062-2.264a.7.7,0,0,1,.627-.758A.675.675,0,0,1,733.2,2092.09Zm-9.277-19.2a.739.739,0,0,1-.089.775.654.654,0,0,1-.954.082c-.546-.486-1.119-.953-1.7-1.39a.735.735,0,0,1-.16-.991.655.655,0,0,1,.943-.166c.616.46,1.22.953,1.795,1.464A.7.7,0,0,1,723.92,2072.889Zm-4.815-3.4a.742.742,0,0,1-.005.646.66.66,0,0,1-.913.3c-.635-.35-1.292-.675-1.952-.968a.725.725,0,0,1-.362-.931.664.664,0,0,1,.886-.378c.695.308,1.386.65,2.054,1.018A.7.7,0,0,1,719.1,2069.485Zm-5.406-2.223a.742.742,0,0,1,.048.5.672.672,0,0,1-.828.5c-.693-.2-1.4-.364-2.105-.5a.71.71,0,0,1-.546-.826.678.678,0,0,1,.786-.572c.741.142,1.487.318,2.216.525A.686.686,0,0,1,713.7,2067.263Zm-5.735-.932a.74.74,0,0,1,.07.345.689.689,0,0,1-.7.679c-.716-.032-1.442-.033-2.157,0a.711.711,0,0,1-.059-1.42c.753-.033,1.517-.032,2.271,0A.679.679,0,0,1,707.964,2066.331Zm-5.789.413a.737.737,0,0,1,.06.189.706.706,0,0,1-.543.826c-.7.134-1.411.3-2.1.5a.676.676,0,0,1-.831-.5.714.714,0,0,1,.475-.871c.728-.206,1.473-.382,2.213-.523A.67.67,0,0,1,702.175,2066.744Zm-5.555,1.737c.006.013.012.027.018.04a.723.723,0,0,1-.359.931c-.486.215-.971.448-1.442.693q-.256.133-.508.272a.662.662,0,0,1-.914-.3.719.719,0,0,1,.284-.959q.265-.146.534-.286c.5-.258,1.006-.5,1.517-.729A.663.663,0,0,1,696.621,2068.481Z" transform="translate(-689.409 -2065.909)" fill="url(#linear-gradient-26)"/>
              <path id="Trazado_1222923" data-name="Trazado 1222923" d="M1308.49,2579.146a.74.74,0,0,1,.063.423c-.055.38-.119.767-.189,1.148a.677.677,0,0,1-.793.56.712.712,0,0,1-.535-.834c.067-.362.128-.729.18-1.09a.668.668,0,0,1,1.275-.206Z" transform="translate(-1264.937 -2546.86)" fill="url(#linear-gradient-27)"/>
            </g>
            <g id="Grupo_1233887" data-name="Grupo 1233887" transform="translate(7.021 7.663)">
              <path id="Trazado_1222924" data-name="Trazado 1222924" d="M619.523,2216.565a.345.345,0,0,0-.071-.378l-2.8-2.782a18.478,18.478,0,0,0,.175-5.7l2.96-2.573a.343.343,0,0,0,.094-.373l-1.63-4.541a.318.318,0,0,0-.3-.216l-3.845.107a17.366,17.366,0,0,0-3.718-4.169l.355-4.024a.336.336,0,0,0-.185-.334l-4.207-2.008a.3.3,0,0,0-.36.074l-2.642,2.933a15.978,15.978,0,0,0-5.43-.2l-2.457-3.115a.306.306,0,0,0-.355-.1l-4.32,1.7a.331.331,0,0,0-.2.32l.111,4.039a17.073,17.073,0,0,0-3.96,3.9l-3.833-.383a.314.314,0,0,0-.317.193l-1.9,4.414a.344.344,0,0,0,.071.378l2.8,2.782a18.472,18.472,0,0,0-.175,5.7l-2.96,2.573a.342.342,0,0,0-.094.372l1.63,4.541a.317.317,0,0,0,.3.215l3.845-.107a17.352,17.352,0,0,0,3.718,4.169l-.355,4.025a.335.335,0,0,0,.185.333l4.207,2.008a.306.306,0,0,0,.36-.073l2.642-2.933a15.978,15.978,0,0,0,5.43.2l2.457,3.115a.307.307,0,0,0,.355.1l4.32-1.7a.331.331,0,0,0,.2-.32l-.111-4.039a17.069,17.069,0,0,0,3.96-3.9l3.833.383a.313.313,0,0,0,.317-.193Z" transform="translate(-580.298 -2189.146)" fill="url(#linear-gradient-28)"/>
              <path id="Trazado_1222925" data-name="Trazado 1222925" d="M832.879,2448.149a5.025,5.025,0,0,1-1.5,6.166,4.512,4.512,0,0,1-6.46-1.232,5.042,5.042,0,0,1-.76-3.646,4.855,4.855,0,0,1,1.917-3.136,4.512,4.512,0,0,1,6.46,1.232A4.927,4.927,0,0,1,832.879,2448.149Zm-7.346,3.809a3.821,3.821,0,0,0,.269.478,3.459,3.459,0,0,0,4.953.944,3.857,3.857,0,0,0,.887-5.2,3.459,3.459,0,0,0-4.953-.944,3.723,3.723,0,0,0-1.47,2.4A3.88,3.88,0,0,0,825.533,2451.959Z" transform="translate(-808.921 -2429.499)" fill="#fff" opacity="0.56"/>
              <path id="Trazado_1222926" data-name="Trazado 1222926" d="M735.265,2337.052q.26.549.469,1.13h0q.066.183.126.368a12.591,12.591,0,0,1,.451,1.861l0,.026.011.073c.007.047.014.095.021.142a.287.287,0,0,1-.147.3.253.253,0,0,1-.081.027.274.274,0,0,1-.308-.24,11.961,11.961,0,0,0-.585-2.354,11.072,11.072,0,0,0-7.957-7.163,10.306,10.306,0,0,0-6.051.478,10.538,10.538,0,0,0-1.025.467,11.064,11.064,0,0,0-5.041,5.5,11.866,11.866,0,0,0-.265,8.733,10.759,10.759,0,0,0,14.008,6.685,10.623,10.623,0,0,0,1.012-.461,10.921,10.921,0,0,0,3.666-3.11.271.271,0,0,1,.091-.078.26.26,0,0,1,.289.032.294.294,0,0,1,.044.4,11.465,11.465,0,0,1-3.849,3.266,11.107,11.107,0,0,1-1.062.484,11.3,11.3,0,0,1-14.706-7.018,12.456,12.456,0,0,1,.278-9.168,11.616,11.616,0,0,1,5.292-5.771,11.453,11.453,0,0,1,1.076-.49,10.843,10.843,0,0,1,8.73.314A11.635,11.635,0,0,1,735.265,2337.052Z" transform="translate(-705.349 -2321.613)" fill="#fff" opacity="0.56"/>
            </g>
          </g>
          <g id="Grupo_1233892" data-name="Grupo 1233892" transform="translate(38.342 32.502)">
            <g id="Grupo_1233889" data-name="Grupo 1233889" transform="translate(0 23.697)" opacity="0.3">
              <path id="Trazado_1222927" data-name="Trazado 1222927" d="M1537.738,3105.723a.453.453,0,0,1-.09.517c-.26.253-.531.5-.806.737a.4.4,0,0,1-.588-.062.453.453,0,0,1,.058-.618c.261-.225.52-.461.768-.7a.4.4,0,0,1,.591.025A.415.415,0,0,1,1537.738,3105.723Z" transform="translate(-1508.041 -3097.033)" fill="url(#linear-gradient-29)"/>
              <path id="Trazado_1222928" data-name="Trazado 1222928" d="M1111.134,2980.409a.451.451,0,0,1-.151.566,17.848,17.848,0,0,1-1.6.943q-.173.09-.348.176a.424.424,0,0,1-.557-.211.448.448,0,0,1,.2-.584q.168-.083.333-.169a16.989,16.989,0,0,0,1.528-.9.407.407,0,0,1,.576.138Zm-3.925,1.934a.468.468,0,0,1,.023.058.443.443,0,0,1-.266.554,17.3,17.3,0,0,1-2.151.59.421.421,0,0,1-.491-.346.437.437,0,0,1,.329-.515,16.641,16.641,0,0,0,2.052-.563A.412.412,0,0,1,1107.209,2982.343Zm-4.256.876a.459.459,0,0,1,.043.164.431.431,0,0,1-.387.468,17.187,17.187,0,0,1-2.226.016.432.432,0,0,1-.4-.463.425.425,0,0,1,.439-.414,16.329,16.329,0,0,0,2.122-.015A.418.418,0,0,1,1102.953,2983.218Zm-4.334-.25a.456.456,0,0,1,.037.272.419.419,0,0,1-.485.354,17.42,17.42,0,0,1-2.163-.556.445.445,0,0,1-.276-.55.413.413,0,0,1,.523-.288,16.566,16.566,0,0,0,2.062.53A.42.42,0,0,1,1098.618,2982.968Zm-4.146-1.355a.458.458,0,0,1,.007.376.409.409,0,0,1-.552.219,17.961,17.961,0,0,1-1.969-1.091.452.452,0,0,1-.141-.6.406.406,0,0,1,.574-.147,17.183,17.183,0,0,0,1.879,1.04A.431.431,0,0,1,1094.472,2981.613Zm-3.71-2.37a.457.457,0,0,1-.046.468.4.4,0,0,1-.587.072,18.3,18.3,0,0,1-1.657-1.561.455.455,0,0,1,0-.621.4.4,0,0,1,.591.005,17.572,17.572,0,0,0,1.58,1.489A.424.424,0,0,1,1090.762,2979.243Zm-3.046-3.247a.452.452,0,0,1-.12.542.406.406,0,0,1-.586-.082,19.188,19.188,0,0,1-1.244-1.941.453.453,0,0,1,.149-.6.408.408,0,0,1,.572.157,18.16,18.16,0,0,0,1.186,1.851A.459.459,0,0,1,1087.716,2976Zm-2.939-6.084a.455.455,0,0,1,.027.072,18.885,18.885,0,0,0,.615,1.829c.035.091.071.18.108.268a.447.447,0,0,1-.217.577.408.408,0,0,1-.55-.229c-.039-.094-.077-.189-.114-.284a19.888,19.888,0,0,1-.644-1.916.442.442,0,0,1,.283-.544A.413.413,0,0,1,1084.777,2969.912Z" transform="translate(-1083.985 -2969.667)" fill="url(#linear-gradient-30)"/>
            </g>
            <g id="Grupo_1233890" data-name="Grupo 1233890" transform="translate(16.977)" opacity="0.3">
              <path id="Trazado_1222929" data-name="Trazado 1222929" d="M1373.41,2598.915a.449.449,0,0,1-.183.585.409.409,0,0,1-.562-.191,18.456,18.456,0,0,0-1.064-1.888.455.455,0,0,1,.111-.609.407.407,0,0,1,.581.118,19.408,19.408,0,0,1,1.116,1.979S1373.409,2598.913,1373.41,2598.915Zm.861,2.058a.457.457,0,0,1,.018.043,19.966,19.966,0,0,1,.636,2.2.439.439,0,0,1-.309.528.419.419,0,0,1-.5-.326,19.124,19.124,0,0,0-.607-2.1.444.444,0,0,1,.247-.563A.41.41,0,0,1,1374.271,2600.972Zm-3.257-5.773a.454.454,0,0,1-.1.526.4.4,0,0,1-.59-.043,17.86,17.86,0,0,0-1.467-1.563.455.455,0,0,1-.032-.62.4.4,0,0,1,.59-.033,18.761,18.761,0,0,1,1.538,1.639A.45.45,0,0,1,1371.014,2595.2Zm4.248,10.137a.459.459,0,0,1,.041.146,19.731,19.731,0,0,1,.111,2.3.427.427,0,0,1-.422.433.432.432,0,0,1-.413-.445,18.965,18.965,0,0,0-.106-2.19.433.433,0,0,1,.369-.484A.415.415,0,0,1,1375.262,2605.337Zm-7.426-13.135a.457.457,0,0,1-.031.447.405.405,0,0,1-.582.108,17.152,17.152,0,0,0-1.781-1.147.451.451,0,0,1-.173-.594.408.408,0,0,1,.565-.181,18.1,18.1,0,0,1,1.867,1.2A.437.437,0,0,1,1367.836,2592.2Zm-3.769-2.112a.459.459,0,0,1,.016.354.411.411,0,0,1-.54.251,16.9,16.9,0,0,0-1.99-.668.442.442,0,0,1-.3-.534.416.416,0,0,1,.507-.317,17.713,17.713,0,0,1,2.086.7A.43.43,0,0,1,1364.067,2590.089Zm-4.14-1.1a.455.455,0,0,1,.04.25.422.422,0,0,1-.467.38,16.334,16.334,0,0,0-2.083-.148.439.439,0,0,1,0-.877,17.211,17.211,0,0,1,2.185.154A.42.42,0,0,1,1359.927,2588.986Z" transform="translate(-1357.001 -2588.591)" fill="url(#linear-gradient-31)"/>
              <path id="Trazado_1222930" data-name="Trazado 1222930" d="M1635.437,2926.639a.458.458,0,0,1,.04.253c-.047.373-.106.745-.173,1.107a.418.418,0,0,1-.49.346.441.441,0,0,1-.331-.515c.064-.346.12-.7.165-1.056a.413.413,0,0,1,.789-.135Z" transform="translate(-1617.221 -2905.389)" fill="url(#linear-gradient-32)"/>
            </g>
            <g id="Grupo_1233891" data-name="Grupo 1233891" transform="translate(3.956 5.091)">
              <path id="Trazado_1222931" data-name="Trazado 1222931" d="M1173.859,2688.8a.23.23,0,0,0-.048-.253l-1.873-1.862a12.37,12.37,0,0,0,.117-3.816l1.98-1.722a.229.229,0,0,0,.063-.249l-1.091-3.039a.213.213,0,0,0-.2-.144l-2.573.072a11.618,11.618,0,0,0-2.488-2.79l.238-2.693a.225.225,0,0,0-.124-.223l-2.815-1.344a.2.2,0,0,0-.241.05l-1.768,1.963a10.694,10.694,0,0,0-3.633-.132l-1.644-2.084a.205.205,0,0,0-.237-.066l-2.891,1.138a.222.222,0,0,0-.137.214l.074,2.7a11.432,11.432,0,0,0-2.65,2.607l-2.565-.256a.209.209,0,0,0-.212.129l-1.273,2.953a.231.231,0,0,0,.047.253l1.873,1.862a12.355,12.355,0,0,0-.117,3.816l-1.981,1.722a.229.229,0,0,0-.063.249l1.091,3.039a.212.212,0,0,0,.2.144l2.573-.071a11.613,11.613,0,0,0,2.488,2.79l-.238,2.693a.225.225,0,0,0,.124.224l2.815,1.344a.2.2,0,0,0,.241-.049l1.768-1.963a10.687,10.687,0,0,0,3.633.132l1.644,2.084a.205.205,0,0,0,.238.067l2.891-1.138a.222.222,0,0,0,.137-.214l-.074-2.7a11.43,11.43,0,0,0,2.65-2.607l2.565.256a.209.209,0,0,0,.212-.129Z" transform="translate(-1147.612 -2670.458)" fill="url(#linear-gradient-33)"/>
              <path id="Trazado_1222932" data-name="Trazado 1222932" d="M1315.886,2842.836a3.448,3.448,0,0,1,.278,2.06,3.309,3.309,0,0,1-1.306,2.136,3.074,3.074,0,0,1-4.4-.839,3.428,3.428,0,0,1,.788-4.62,3.017,3.017,0,0,1,2.363-.538,3.14,3.14,0,0,1,2.037,1.377A3.437,3.437,0,0,1,1315.886,2842.836Zm-4.916,2.548a2.5,2.5,0,0,0,.174.309,2.261,2.261,0,0,0,3.237.617,2.433,2.433,0,0,0,.96-1.571,2.531,2.531,0,0,0-.38-1.827h0a2.309,2.309,0,0,0-1.5-1.012,2.22,2.22,0,0,0-1.739.4A2.518,2.518,0,0,0,1310.97,2845.385Z" transform="translate(-1299.802 -2830.378)" fill="#fff" opacity="0.56"/>
              <path id="Trazado_1222933" data-name="Trazado 1222933" d="M1247.957,2765.637q.177.373.32.772a8.669,8.669,0,0,1,.412,1.629l.011.075a.443.443,0,0,1-.227.457.4.4,0,0,1-.125.041.423.423,0,0,1-.475-.37,7.72,7.72,0,0,0-.378-1.524h0l-.03-.081a7.346,7.346,0,0,0-2-2.953,7.063,7.063,0,0,0-1.6-1.073l-.014-.007-.044-.021a6.688,6.688,0,0,0-5.383-.194,7.011,7.011,0,0,0-.664.3,7.164,7.164,0,0,0-3.264,3.559,7.682,7.682,0,0,0-.171,5.653,7.239,7.239,0,0,0,3.685,4.134,6.684,6.684,0,0,0,5.383.194,6.812,6.812,0,0,0,.655-.3,7.065,7.065,0,0,0,2.373-2.014.421.421,0,0,1,.141-.12.4.4,0,0,1,.446.05.455.455,0,0,1,.068.617,7.911,7.911,0,0,1-2.655,2.253,7.684,7.684,0,0,1-.733.334,7.479,7.479,0,0,1-6.023-.217,8.085,8.085,0,0,1-4.123-4.625,8.593,8.593,0,0,1,.192-6.325,8.014,8.014,0,0,1,3.651-3.981,7.664,7.664,0,0,1,10.568,3.732Z" transform="translate(-1227.723 -2755.407)" fill="#fff" opacity="0.56"/>
            </g>
          </g>
        </g>
      </g>
    </g>
  </g>
</svg>
