<svg xmlns="http://www.w3.org/2000/svg" xmlns:xlink="http://www.w3.org/1999/xlink" width="400" height="359" viewBox="0 0 400 359">
  <defs>
    <clipPath id="clip-path">
      <rect id="Rectángulo_423467" data-name="Rectángulo 423467" width="400" height="359" transform="translate(180 8197)" fill="#fff" stroke="#707070" stroke-width="1"/>
    </clipPath>
  </defs>
  <g id="Grupo_1233917" data-name="Grupo 1233917" transform="translate(-180 -8197)">
    <rect id="Rectángulo_423473" data-name="Rectángulo 423473" width="240" height="329" transform="translate(271 8197)" fill="#e5fdfa"/>
    <g id="Enmascarar_grupo_1208523" data-name="Enmascarar grupo 1208523" clip-path="url(#clip-path)">
      <g id="OBJECTS" transform="translate(190.362 8188.833)">
        <path id="Trazado_1222940" data-name="Trazado 1222940" d="M339.989,111.431a1.787,1.787,0,1,1-1.787-1.787A1.787,1.787,0,0,1,339.989,111.431Z" transform="translate(-81.741 -19.402)" fill="none" stroke="#2d1a14" stroke-miterlimit="10" stroke-width="0.537"/>
        <path id="Trazado_1222941" data-name="Trazado 1222941" d="M308.576,83.239a1.787,1.787,0,1,1-1.787-1.787A1.787,1.787,0,0,1,308.576,83.239Z" transform="translate(-73.558 -12.058)" fill="none" stroke="#2d1a14" stroke-miterlimit="10" stroke-width="0.537"/>
        <path id="Trazado_1222942" data-name="Trazado 1222942" d="M468.862,275.745a1.787,1.787,0,1,1-1.787-1.787A1.787,1.787,0,0,1,468.862,275.745Z" transform="translate(-115.313 -62.207)" fill="none" stroke="#2d1a14" stroke-miterlimit="10" stroke-width="0.537"/>
        <path id="Trazado_1222943" data-name="Trazado 1222943" d="M389.121,208.086a1.787,1.787,0,1,1-1.787-1.787A1.787,1.787,0,0,1,389.121,208.086Z" transform="translate(-94.54 -44.581)" fill="none" stroke="#2d1a14" stroke-miterlimit="10" stroke-width="0.537"/>
        <path id="Trazado_1222944" data-name="Trazado 1222944" d="M118.885,85.114a1.787,1.787,0,1,1-1.787-1.787A1.787,1.787,0,0,1,118.885,85.114Z" transform="translate(-24.142 -12.546)" fill="none" stroke="#2d1a14" stroke-miterlimit="10" stroke-width="0.537"/>
        <path id="Trazado_1222945" data-name="Trazado 1222945" d="M186.01,130.222a1.787,1.787,0,1,1-1.787-1.787A1.787,1.787,0,0,1,186.01,130.222Z" transform="translate(-41.628 -24.297)" fill="none" stroke="#2d1a14" stroke-miterlimit="10" stroke-width="0.537"/>
        <path id="Trazado_1222946" data-name="Trazado 1222946" d="M258.658,63.787A1.787,1.787,0,1,1,256.87,62,1.787,1.787,0,0,1,258.658,63.787Z" transform="translate(-60.554 -6.99)" fill="none" stroke="#2d1a14" stroke-miterlimit="10" stroke-width="0.537"/>
        <path id="Trazado_1222947" data-name="Trazado 1222947" d="M145.385,139.616a1.787,1.787,0,1,1-1.787-1.787A1.787,1.787,0,0,1,145.385,139.616Z" transform="translate(-31.045 -26.744)" fill="none" stroke="#2d1a14" stroke-miterlimit="10" stroke-width="0.537"/>
        <path id="Trazado_1222948" data-name="Trazado 1222948" d="M31.5,216.141a1.787,1.787,0,1,1-1.787-1.787A1.787,1.787,0,0,1,31.5,216.141Z" transform="translate(-1.377 -46.68)" fill="none" stroke="#2d1a14" stroke-miterlimit="10" stroke-width="0.537"/>
        <path id="Trazado_1222949" data-name="Trazado 1222949" d="M134.995,187.144a1.787,1.787,0,1,1-1.787-1.787A1.787,1.787,0,0,1,134.995,187.144Z" transform="translate(-28.339 -39.126)" fill="none" stroke="#2d1a14" stroke-miterlimit="10" stroke-width="0.537"/>
        <path id="Trazado_1222950" data-name="Trazado 1222950" d="M93.518,390.925a1.787,1.787,0,1,1-1.787-1.787A1.787,1.787,0,0,1,93.518,390.925Z" transform="translate(-17.533 -92.212)" fill="none" stroke="#2d1a14" stroke-miterlimit="10" stroke-width="0.537"/>
        <path id="Trazado_1222951" data-name="Trazado 1222951" d="M465.64,421.533a1.787,1.787,0,1,1-1.787-1.787A1.787,1.787,0,0,1,465.64,421.533Z" transform="translate(-114.474 -100.186)" fill="none" stroke="#2d1a14" stroke-miterlimit="10" stroke-width="0.537"/>
        <path id="Trazado_1222952" data-name="Trazado 1222952" d="M354.168,447.053H24.415a1.777,1.777,0,0,1-1.777-1.777v-1.145a1.777,1.777,0,0,1,1.777-1.777H354.168a1.777,1.777,0,0,1,1.777,1.777v1.145A1.777,1.777,0,0,1,354.168,447.053Z" transform="translate(0 -106.075)" fill="#bfb8ff"/>
        <path id="Trazado_1222953" data-name="Trazado 1222953" d="M73.826,241.943a4.766,4.766,0,1,1-4.766-4.766A4.766,4.766,0,0,1,73.826,241.943Z" transform="translate(-10.852 -52.625)" fill="none" stroke="#2d1a14" stroke-miterlimit="10" stroke-width="0.537"/>
        <path id="Trazado_1222954" data-name="Trazado 1222954" d="M447.434,406.791a4.766,4.766,0,1,1-4.766-4.766A4.766,4.766,0,0,1,447.434,406.791Z" transform="translate(-108.179 -95.569)" fill="none" stroke="#2d1a14" stroke-miterlimit="10" stroke-width="0.537"/>
        <path id="Trazado_1222955" data-name="Trazado 1222955" d="M68.865,398.736A4.766,4.766,0,1,1,64.1,393.97,4.766,4.766,0,0,1,68.865,398.736Z" transform="translate(-9.559 -93.471)" fill="none" stroke="#2d1a14" stroke-miterlimit="10" stroke-width="0.537"/>
        <path id="Trazado_1222956" data-name="Trazado 1222956" d="M459.515,227.173a4.766,4.766,0,1,1-4.766-4.766A4.766,4.766,0,0,1,459.515,227.173Z" transform="translate(-111.326 -48.777)" fill="none" stroke="#2d1a14" stroke-miterlimit="10" stroke-width="0.537"/>
        <path id="Trazado_1222957" data-name="Trazado 1222957" d="M180.02,102.328a4.766,4.766,0,1,1-4.766-4.766A4.766,4.766,0,0,1,180.02,102.328Z" transform="translate(-38.516 -16.254)" fill="none" stroke="#2d1a14" stroke-miterlimit="10" stroke-width="0.537"/>
        <path id="Trazado_1222958" data-name="Trazado 1222958" d="M318.59,393.248h-188.4a14.562,14.562,0,0,1-14.562-14.562V267.851a14.562,14.562,0,0,1,14.562-14.562h188.4a14.562,14.562,0,0,1,14.562,14.562V378.686A14.563,14.563,0,0,1,318.59,393.248Z" transform="translate(-24.224 -56.822)" fill="#2d1a14"/>
        <rect id="Rectángulo_423469" data-name="Rectángulo 423469" width="202.158" height="120.869" transform="translate(99.225 205.771)" fill="#7171ea"/>
        <path id="Trazado_1222959" data-name="Trazado 1222959" d="M256.377,373.442c-2.419-14.005-2.624-30.285,6.014-42.363a35.412,35.412,0,0,1,17.5-12.72c10.244-3.548,19.638-1.489,29.143,3.177,4.887,2.4,9.569,5.2,14.521,7.471a40.76,40.76,0,0,0,4.8,1.829V265.871H218.279c-3.962,7.918-5.759,17.743-7.889,25.034-1.712,5.863-3.6,11.884-6.772,17.15a72.007,72.007,0,0,1-14.448,17.069,69.628,69.628,0,0,1-37.648,16.182,101.665,101.665,0,0,1-25.317-.289V386.74H259.437A126.1,126.1,0,0,1,256.377,373.442Z" transform="translate(-26.98 -60.1)" fill="#fff" opacity="0.31"/>
        <g id="Grupo_1233896" data-name="Grupo 1233896" transform="translate(71.711 322.447)">
          <path id="Trazado_1222960" data-name="Trazado 1222960" d="M330.761,438.245H97.87c-4.88,0-8.872-3.284-8.872-7.3h0c0-4.014,3.993-7.3,8.872-7.3H330.761c4.88,0,8.872,3.284,8.872,7.3h0C339.634,434.961,335.641,438.245,330.761,438.245Z" transform="translate(-88.998 -423.649)" fill="#bfb8ff"/>
          <path id="Trazado_1222961" data-name="Trazado 1222961" d="M330.761,438.245H97.87c-4.88,0-8.872-3.284-8.872-7.3h0c0-4.014,3.993-7.3,8.872-7.3H330.761c4.88,0,8.872,3.284,8.872,7.3h0C339.634,434.961,335.641,438.245,330.761,438.245Z" transform="translate(-88.998 -423.649)" fill="#2d1a14" opacity="0.33"/>
        </g>
        <path id="Trazado_1222962" data-name="Trazado 1222962" d="M167.339,434.742H105.322a2.369,2.369,0,0,1-2.362-2.362h0a2.369,2.369,0,0,1,2.362-2.362h62.017a2.369,2.369,0,0,1,2.362,2.362h0A2.37,2.37,0,0,1,167.339,434.742Z" transform="translate(-20.924 -102.862)" fill="none" stroke="#2d1a14" stroke-miterlimit="10" stroke-width="0.682"/>
        <g id="Grupo_1233897" data-name="Grupo 1233897" transform="translate(266.902 327.114)">
          <circle id="Elipse_13813" data-name="Elipse 13813" cx="3.475" cy="3.475" r="3.475" fill="#2d1a14"/>
          <circle id="Elipse_13814" data-name="Elipse 13814" cx="3.475" cy="3.475" r="3.475" transform="translate(15.884)" fill="#2d1a14"/>
          <circle id="Elipse_13815" data-name="Elipse 13815" cx="3.475" cy="3.475" r="3.475" transform="translate(30.344)" fill="#2d1a14"/>
        </g>
        <g id="Grupo_1233899" data-name="Grupo 1233899" transform="translate(124.234 77.734)">
          <g id="Grupo_1233898" data-name="Grupo 1233898" transform="translate(0 0)">
            <path id="Trazado_1222963" data-name="Trazado 1222963" d="M306.9,144.7s-37.22-16.334-34.247-39.479c0,0-20.349-11.993-38.542-12.484V92.73l-.175.006-.174-.006v.012c-18.194.491-35.931,10.386-35.931,10.386,2.973,23.145-36.858,41.576-36.858,41.576-10.307,93.841,67.042,146.257,72.789,150.013v.226l.174-.112.175.112v-.226C239.853,290.961,317.2,238.546,306.9,144.7Z" transform="translate(-160.024 -92.73)" fill="#ffbd51"/>
            <path id="Trazado_1222964" data-name="Trazado 1222964" d="M332.036,144.7s-37.22-16.334-34.247-39.479c0,0-20.349-11.993-38.542-12.484V92.73l-.174.006-.174-.006v.012q-1.185.032-2.366.117V293.1c1.132.8,1.944,1.339,2.366,1.616v.226l.174-.112.174.112v-.226C264.994,290.961,342.343,238.546,332.036,144.7Z" transform="translate(-185.165 -92.73)" fill="#ffcc83"/>
            <path id="Trazado_1222965" data-name="Trazado 1222965" d="M300.07,157.03s-41.667-18.044-39.127-37.823c0,0-7.529-6.163-23.076-6.582v-.01l-.149.005-.149-.005v.01c-15.548.419-23.076,6.582-23.076,6.582,2.541,19.778-39.127,37.823-39.127,37.823-8.807,80.193,57.291,124.985,62.2,128.195v.193l.149-.1.149.1v-.193C242.779,282.016,308.878,237.223,300.07,157.03Z" transform="translate(-163.811 -97.91)" fill="#f7a539"/>
            <path id="Trazado_1222966" data-name="Trazado 1222966" d="M291.655,172.229s-32.924-14.257-30.916-29.886c0,0-5.949-4.87-18.234-5.2v-.008l-.118,0-.118,0v.008c-12.284.331-18.233,5.2-18.233,5.2,2.008,15.628-30.916,29.886-30.916,29.886-6.959,63.364,45.269,98.757,49.15,101.294v.152l.118-.076.118.076v-.152C246.386,270.986,298.614,235.593,291.655,172.229Z" transform="translate(-168.48 -104.297)" fill="#ffbd51"/>
            <path id="Trazado_1222967" data-name="Trazado 1222967" d="M308.4,172.229s-32.924-14.257-30.916-29.885c0,0-5.948-4.87-18.234-5.2v-.008l-.118,0-.118,0v.008q-1.167.032-2.256.115v134.7c1.113.8,1.9,1.324,2.256,1.56v.153l.118-.076.118.076v-.153C263.13,270.986,315.358,235.593,308.4,172.229Z" transform="translate(-185.224 -104.298)" fill="#ffcc83"/>
          </g>
        </g>
        <g id="Grupo_1233900" data-name="Grupo 1233900" transform="translate(168.902 124.194)">
          <path id="Trazado_1222968" data-name="Trazado 1222968" d="M270.435,256.265H227.6a7.173,7.173,0,0,1-7.173-7.173V208.64a7.173,7.173,0,0,1,7.173-7.173h42.834a7.173,7.173,0,0,1,7.173,7.173v40.452A7.173,7.173,0,0,1,270.435,256.265Z" transform="translate(-220.428 -167.516)" fill="#fff"/>
          <path id="Trazado_1222969" data-name="Trazado 1222969" d="M254.071,227.032h0a12.021,12.021,0,0,1-11.986-11.986v-47.5a12.021,12.021,0,0,1,11.986-11.986h0a12.021,12.021,0,0,1,11.986,11.986v47.5A12.021,12.021,0,0,1,254.071,227.032Z" transform="translate(-226.07 -155.556)" fill="none" stroke="#fff" stroke-linecap="round" stroke-linejoin="round" stroke-miterlimit="10" stroke-width="7.787"/>
        </g>
        <g id="Grupo_1233901" data-name="Grupo 1233901" transform="translate(187.533 173.825)">
          <circle id="Elipse_13816" data-name="Elipse 13816" cx="6.875" cy="6.875" r="6.875" transform="translate(0 5.528) rotate(-23.704)" fill="#2d1a14"/>
          <path id="Trazado_1222970" data-name="Trazado 1222970" d="M255.4,237.3l3.528,6.11,3.527,6.11H248.341l3.527-6.11Z" transform="translate(-246.33 -226.481)" fill="#2d1a14"/>
        </g>
        <g id="Grupo_1233902" data-name="Grupo 1233902" transform="translate(263.608 47.091)">
          <path id="Trazado_1222971" data-name="Trazado 1222971" d="M392.7,96.048c-11.969,12.2-44.2,8.54-44.2,8.54,5.44,38.229,44.2,55.716,44.2,55.716s39.578-17.488,45.019-55.716C437.718,104.588,404.668,108.248,392.7,96.048Z" transform="translate(-348.497 -62.951)" fill="#a595fa"/>
          <path id="Trazado_1222972" data-name="Trazado 1222972" d="M393.476,66.363c-11.931,14.992-42.845,10.495-42.845,10.495,5.423,46.977,42.845,68.466,42.845,68.466s38.238-21.49,43.66-68.466C437.137,76.858,405.407,81.355,393.476,66.363Z" transform="translate(-349.053 -55.218)" fill="#7171ea"/>
          <path id="Trazado_1222973" data-name="Trazado 1222973" d="M394.638,51.292C383.873,66.284,355.98,61.787,355.98,61.787c4.893,46.977,38.658,68.466,38.658,68.466S428.4,108.763,433.3,61.787C433.3,61.786,405.4,66.284,394.638,51.292Z" transform="translate(-350.446 -51.292)" fill="#8ddae2"/>
          <text id="SSL" transform="translate(22.669 42.922) rotate(0.544)" fill="#fff" font-size="20" font-family="Montserrat-ExtraBold, Montserrat" font-weight="800"><tspan x="0" y="0">SSL</tspan></text>
        </g>
        <g id="Grupo_1233904" data-name="Grupo 1233904" transform="translate(44.22 220.945)">
          <path id="Trazado_1222974" data-name="Trazado 1222974" d="M136.258,358.757H56.2a4.374,4.374,0,0,1-4.373-4.373V290.764a4.374,4.374,0,0,1,4.373-4.373h80.061a4.374,4.374,0,0,1,4.374,4.373v63.619A4.374,4.374,0,0,1,136.258,358.757Z" transform="translate(-51.823 -286.391)" fill="#8ddae2"/>
          <g id="Grupo_1233903" data-name="Grupo 1233903" transform="translate(8.297 6.889)">
            <circle id="Elipse_13817" data-name="Elipse 13817" cx="8.663" cy="8.663" r="8.663" transform="translate(7.388 6.631) rotate(-22.5)" fill="#fff"/>
            <path id="Trazado_1222975" data-name="Trazado 1222975" d="M100.043,332.491a19.945,19.945,0,0,0-37,0Z" transform="translate(-63.043 -302.035)" fill="#fff"/>
          </g>
          <path id="Trazado_1222976" data-name="Trazado 1222976" d="M148.39,309.155H118.012a1.494,1.494,0,0,1-1.489-1.489h0a1.494,1.494,0,0,1,1.489-1.489H148.39a1.493,1.493,0,0,1,1.489,1.489h0A1.494,1.494,0,0,1,148.39,309.155Z" transform="translate(-68.678 -291.545)" fill="#fff"/>
          <path id="Trazado_1222977" data-name="Trazado 1222977" d="M148.39,323.116H118.012a1.494,1.494,0,0,1-1.489-1.489h0a1.493,1.493,0,0,1,1.489-1.489H148.39a1.493,1.493,0,0,1,1.489,1.489h0A1.494,1.494,0,0,1,148.39,323.116Z" transform="translate(-68.678 -295.182)" fill="#fff"/>
          <path id="Trazado_1222978" data-name="Trazado 1222978" d="M148.39,336.362H118.012a1.494,1.494,0,0,1-1.489-1.489h0a1.493,1.493,0,0,1,1.489-1.489H148.39a1.493,1.493,0,0,1,1.489,1.489h0A1.494,1.494,0,0,1,148.39,336.362Z" transform="translate(-68.678 -298.633)" fill="#fff"/>
          <path id="Trazado_1222979" data-name="Trazado 1222979" d="M131.691,351.757H63.954a1.493,1.493,0,0,1-1.489-1.489h0a1.494,1.494,0,0,1,1.489-1.489h67.737a1.494,1.494,0,0,1,1.489,1.489h0A1.493,1.493,0,0,1,131.691,351.757Z" transform="translate(-54.595 -302.643)" fill="#fff"/>
          <path id="Trazado_1222980" data-name="Trazado 1222980" d="M131.691,365.718H63.954a1.493,1.493,0,0,1-1.489-1.489h0a1.493,1.493,0,0,1,1.489-1.489h67.737a1.494,1.494,0,0,1,1.489,1.489h0A1.493,1.493,0,0,1,131.691,365.718Z" transform="translate(-54.595 -306.28)" fill="#fff"/>
        </g>
        <g id="Grupo_1233905" data-name="Grupo 1233905" transform="translate(244.45 256.708)">
          <rect id="Rectángulo_423470" data-name="Rectángulo 423470" width="79.554" height="47.254" fill="#ffe1bd"/>
          <path id="Trazado_1222981" data-name="Trazado 1222981" d="M328.36,349.672l35.936,26.8,34.944-26.8" transform="translate(-324.093 -338.639)" fill="none" stroke="#2d1a14" stroke-miterlimit="10" stroke-width="0.682"/>
          <line id="Línea_627" data-name="Línea 627" y1="14.891" x2="21.443" transform="translate(4.862 27.71)" fill="none" stroke="#2d1a14" stroke-miterlimit="10" stroke-width="0.682"/>
        </g>
        <line id="Línea_628" data-name="Línea 628" x1="21.443" y1="14.891" transform="translate(298.155 284.418)" fill="none" stroke="#2d1a14" stroke-miterlimit="10" stroke-width="0.682"/>
        <g id="Grupo_1233906" data-name="Grupo 1233906" transform="translate(317.388 237.765)">
          <circle id="Elipse_13818" data-name="Elipse 13818" cx="14.164" cy="14.164" r="14.164" fill="#8ddae2"/>
          <path id="Trazado_1222982" data-name="Trazado 1222982" d="M430.436,326.719l5.2,4.681L445,319.7" transform="translate(-423.622 -311.887)" fill="none" stroke="#fff" stroke-linecap="round" stroke-linejoin="round" stroke-miterlimit="10" stroke-width="2.685"/>
        </g>
        <path id="Trazado_1222983" data-name="Trazado 1222983" d="M280.555,405.6H221.587a1.792,1.792,0,0,1-1.787-1.787h0a1.792,1.792,0,0,1,1.787-1.787h58.968a1.792,1.792,0,0,1,1.787,1.787h0A1.791,1.791,0,0,1,280.555,405.6Z" transform="translate(-51.362 -95.57)" fill="#d3d2fc"/>
        <g id="Grupo_1233912" data-name="Grupo 1233912" transform="translate(27.235 85.589)">
          <g id="Grupo_1233911" data-name="Grupo 1233911" transform="translate(0 0)">
            <g id="Grupo_1233910" data-name="Grupo 1233910">
              <path id="Trazado_1222984" data-name="Trazado 1222984" d="M114.157,158.481l-76.8.069a8.362,8.362,0,0,1-8.5-8.387l.493-38.34a8.646,8.646,0,0,1,8.714-8.4l76.8-.069a8.362,8.362,0,0,1,8.5,8.387l-.493,38.34A8.645,8.645,0,0,1,114.157,158.481Z" transform="translate(-28.854 -103.351)" fill="#8b7ff7"/>
              <path id="Trazado_1222985" data-name="Trazado 1222985" d="M73.742,115.493a21.386,21.386,0,0,0,9.822,6.423A26.322,26.322,0,0,0,97.9,121.6a2.1,2.1,0,0,1,2.563,1.427,19.669,19.669,0,0,0,5.641,10c5.294,5.094,12.872,7.626,20.154,8.568a52.472,52.472,0,0,0,6.633.439l.39-30.3a8.363,8.363,0,0,0-8.5-8.387l-57.87.052A35.1,35.1,0,0,0,73.742,115.493Z" transform="translate(-38.768 -103.351)" fill="#2d1a14"/>
              <g id="Grupo_1233907" data-name="Grupo 1233907" transform="translate(8.688 41.813)">
                <path id="Trazado_1222986" data-name="Trazado 1222986" d="M41.846,165.1h0a1.226,1.226,0,0,1-1.243-1.227l.035-2.729a1.269,1.269,0,0,1,1.275-1.229h0a1.226,1.226,0,0,1,1.243,1.227l-.035,2.729A1.27,1.27,0,0,1,41.846,165.1Z" transform="translate(-40.603 -159.898)" fill="none" stroke="#fff" stroke-linecap="round" stroke-linejoin="round" stroke-miterlimit="10" stroke-width="0.747"/>
                <path id="Trazado_1222987" data-name="Trazado 1222987" d="M47.521,165.09h0a1.226,1.226,0,0,1-1.243-1.227l.035-2.729a1.269,1.269,0,0,1,1.275-1.229h0a1.226,1.226,0,0,1,1.243,1.227l-.035,2.729A1.268,1.268,0,0,1,47.521,165.09Z" transform="translate(-42.081 -159.897)" fill="none" stroke="#fff" stroke-linecap="round" stroke-linejoin="round" stroke-miterlimit="10" stroke-width="0.747"/>
                <path id="Trazado_1222988" data-name="Trazado 1222988" d="M53.2,165.084h0a1.226,1.226,0,0,1-1.243-1.227l.035-2.729a1.269,1.269,0,0,1,1.275-1.229h0a1.226,1.226,0,0,1,1.243,1.227l-.035,2.729A1.268,1.268,0,0,1,53.2,165.084Z" transform="translate(-43.56 -159.895)" fill="none" stroke="#fff" stroke-linecap="round" stroke-linejoin="round" stroke-miterlimit="10" stroke-width="0.747"/>
                <path id="Trazado_1222989" data-name="Trazado 1222989" d="M58.873,165.079h0a1.226,1.226,0,0,1-1.243-1.227l.035-2.729a1.269,1.269,0,0,1,1.275-1.229h0a1.226,1.226,0,0,1,1.243,1.227l-.035,2.729A1.269,1.269,0,0,1,58.873,165.079Z" transform="translate(-45.039 -159.894)" fill="none" stroke="#fff" stroke-linecap="round" stroke-linejoin="round" stroke-miterlimit="10" stroke-width="0.747"/>
              </g>
              <g id="Grupo_1233908" data-name="Grupo 1233908" transform="translate(27.156 41.797)">
                <path id="Trazado_1222990" data-name="Trazado 1222990" d="M66.819,165.072h0a1.226,1.226,0,0,1-1.243-1.227l.035-2.729a1.269,1.269,0,0,1,1.275-1.229h0a1.226,1.226,0,0,1,1.243,1.227l-.035,2.729A1.27,1.27,0,0,1,66.819,165.072Z" transform="translate(-65.576 -159.876)" fill="none" stroke="#fff" stroke-linecap="round" stroke-linejoin="round" stroke-miterlimit="10" stroke-width="0.747"/>
                <path id="Trazado_1222991" data-name="Trazado 1222991" d="M72.5,165.067h0a1.226,1.226,0,0,1-1.243-1.227l.035-2.729a1.269,1.269,0,0,1,1.275-1.229h0a1.226,1.226,0,0,1,1.243,1.227l-.035,2.729A1.269,1.269,0,0,1,72.5,165.067Z" transform="translate(-67.054 -159.875)" fill="none" stroke="#fff" stroke-linecap="round" stroke-linejoin="round" stroke-miterlimit="10" stroke-width="0.747"/>
                <path id="Trazado_1222992" data-name="Trazado 1222992" d="M78.171,165.062h0a1.226,1.226,0,0,1-1.243-1.227l.035-2.729a1.269,1.269,0,0,1,1.275-1.229h0a1.226,1.226,0,0,1,1.243,1.227l-.035,2.729A1.269,1.269,0,0,1,78.171,165.062Z" transform="translate(-68.533 -159.873)" fill="none" stroke="#fff" stroke-linecap="round" stroke-linejoin="round" stroke-miterlimit="10" stroke-width="0.747"/>
                <path id="Trazado_1222993" data-name="Trazado 1222993" d="M83.847,165.057h0a1.226,1.226,0,0,1-1.243-1.227l.035-2.729a1.269,1.269,0,0,1,1.275-1.229h0a1.227,1.227,0,0,1,1.243,1.227l-.035,2.729A1.268,1.268,0,0,1,83.847,165.057Z" transform="translate(-70.012 -159.872)" fill="none" stroke="#fff" stroke-linecap="round" stroke-linejoin="round" stroke-miterlimit="10" stroke-width="0.747"/>
              </g>
              <g id="Grupo_1233909" data-name="Grupo 1233909" transform="translate(45.903 41.78)">
                <path id="Trazado_1222994" data-name="Trazado 1222994" d="M92.171,165.049h0a1.226,1.226,0,0,1-1.243-1.227l.035-2.729a1.269,1.269,0,0,1,1.275-1.229h0a1.226,1.226,0,0,1,1.243,1.227l-.035,2.729A1.268,1.268,0,0,1,92.171,165.049Z" transform="translate(-90.928 -159.853)" fill="none" stroke="#fff" stroke-linecap="round" stroke-linejoin="round" stroke-miterlimit="10" stroke-width="0.747"/>
                <path id="Trazado_1222995" data-name="Trazado 1222995" d="M97.847,165.044h0a1.226,1.226,0,0,1-1.243-1.227l.035-2.729a1.269,1.269,0,0,1,1.275-1.229h0a1.226,1.226,0,0,1,1.243,1.227l-.035,2.729A1.268,1.268,0,0,1,97.847,165.044Z" transform="translate(-92.406 -159.852)" fill="none" stroke="#fff" stroke-linecap="round" stroke-linejoin="round" stroke-miterlimit="10" stroke-width="0.747"/>
                <path id="Trazado_1222996" data-name="Trazado 1222996" d="M103.523,165.039h0a1.226,1.226,0,0,1-1.243-1.227l.035-2.729a1.269,1.269,0,0,1,1.275-1.229h0a1.226,1.226,0,0,1,1.243,1.227l-.035,2.729A1.268,1.268,0,0,1,103.523,165.039Z" transform="translate(-93.885 -159.85)" fill="none" stroke="#fff" stroke-linecap="round" stroke-linejoin="round" stroke-miterlimit="10" stroke-width="0.747"/>
                <path id="Trazado_1222997" data-name="Trazado 1222997" d="M109.2,165.034h0a1.226,1.226,0,0,1-1.243-1.227l.035-2.729a1.269,1.269,0,0,1,1.275-1.229h0a1.226,1.226,0,0,1,1.243,1.227l-.035,2.729A1.268,1.268,0,0,1,109.2,165.034Z" transform="translate(-95.364 -159.849)" fill="none" stroke="#fff" stroke-linecap="round" stroke-linejoin="round" stroke-miterlimit="10" stroke-width="0.747"/>
              </g>
              <path id="Trazado_1222998" data-name="Trazado 1222998" d="M130.366,113.721l-34.417.031a2.045,2.045,0,0,1-2.072-2.045h0A2.115,2.115,0,0,1,96,109.658l34.417-.031a2.045,2.045,0,0,1,2.072,2.045h0A2.113,2.113,0,0,1,130.366,113.721Z" transform="translate(-45.793 -104.986)" fill="none" stroke="#8b7ff7" stroke-linecap="round" stroke-linejoin="round" stroke-miterlimit="10" stroke-width="1.121"/>
              <rect id="Rectángulo_423471" data-name="Rectángulo 423471" width="82.172" height="10.03" transform="translate(6.178 26.575)" fill="#fff"/>
              <rect id="Rectángulo_423472" data-name="Rectángulo 423472" width="81.894" height="7.716" transform="translate(6.248 15.773)" fill="none" stroke="#8ddae2" stroke-linecap="round" stroke-linejoin="round" stroke-miterlimit="10" stroke-width="1.052"/>
            </g>
          </g>
          <path id="Trazado_1222999" data-name="Trazado 1222999" d="M130.159,148.359h0a1.376,1.376,0,0,1-1.372-1.372v-3.772a1.376,1.376,0,0,1,1.372-1.372h0a1.376,1.376,0,0,1,1.372,1.372v3.772A1.376,1.376,0,0,1,130.159,148.359Z" transform="translate(-54.887 -113.378)" fill="#2d1a14"/>
          <path id="Trazado_1223000" data-name="Trazado 1223000" d="M136.813,148.359h0a1.376,1.376,0,0,1-1.372-1.372v-3.772a1.376,1.376,0,0,1,1.372-1.372h0a1.376,1.376,0,0,1,1.372,1.372v3.772A1.376,1.376,0,0,1,136.813,148.359Z" transform="translate(-56.621 -113.378)" fill="#2d1a14"/>
          <path id="Trazado_1223001" data-name="Trazado 1223001" d="M143.3,148.359h0a1.376,1.376,0,0,1-1.372-1.372v-3.772a1.376,1.376,0,0,1,1.372-1.372h0a1.376,1.376,0,0,1,1.372,1.372v3.772A1.376,1.376,0,0,1,143.3,148.359Z" transform="translate(-58.312 -113.378)" fill="#2d1a14"/>
        </g>
        <path id="Trazado_1223002" data-name="Trazado 1223002" d="M279.193,387.885h-62.65a7.413,7.413,0,0,1-7.391-7.391h0a7.413,7.413,0,0,1,7.391-7.391h62.65a7.413,7.413,0,0,1,7.391,7.391h0A7.413,7.413,0,0,1,279.193,387.885Z" transform="translate(-48.588 -88.035)" fill="#2d1a14"/>
        <g id="Grupo_1233916" data-name="Grupo 1233916" transform="translate(177.181 286.435)">
          <text id="https:_" data-name="https:///" transform="translate(8.435 7.999) rotate(0.544)" fill="#fff" font-size="7" font-family="SegoeUI, Segoe UI"><tspan x="0" y="0">https:///</tspan></text>
          <g id="Grupo_1233915" data-name="Grupo 1233915" transform="translate(0 1.835)">
            <g id="Grupo_1233913" data-name="Grupo 1233913" transform="translate(0 3.325)">
              <path id="Trazado_1223003" data-name="Trazado 1223003" d="M236.484,386.874h-4.191a.67.67,0,0,1-.67-.67V382.6a.67.67,0,0,1,.67-.67h4.191a.67.67,0,0,1,.67.67V386.2A.67.67,0,0,1,236.484,386.874Z" transform="translate(-231.623 -381.929)" fill="#fff"/>
            </g>
            <g id="Grupo_1233914" data-name="Grupo 1233914" transform="translate(1.27)">
              <path id="Trazado_1223004" data-name="Trazado 1223004" d="M234.778,384.4a1.394,1.394,0,0,1-1.438-1.341v-4.288a1.441,1.441,0,0,1,2.876,0v4.288A1.393,1.393,0,0,1,234.778,384.4Zm0-6.451a.854.854,0,0,0-.881.822v4.288a.883.883,0,0,0,1.761,0v-4.288A.853.853,0,0,0,234.778,377.953Z" transform="translate(-233.34 -377.433)" fill="#fff"/>
            </g>
          </g>
        </g>
        <circle id="Elipse_13819" data-name="Elipse 13819" cx="3.044" cy="3.044" r="3.044" transform="translate(145.308 249.149)" fill="#fff"/>
        <circle id="Elipse_13820" data-name="Elipse 13820" cx="1.721" cy="1.721" r="1.721" transform="translate(138.425 266.622)" fill="#fff"/>
        <circle id="Elipse_13821" data-name="Elipse 13821" cx="2.383" cy="2.383" r="2.383" transform="translate(168.87 273.505)" fill="#fff"/>
        <circle id="Elipse_13822" data-name="Elipse 13822" cx="4.236" cy="4.236" r="4.236" transform="translate(139.219 294.155)" fill="#fff"/>
        <circle id="Elipse_13823" data-name="Elipse 13823" cx="1.588" cy="1.588" r="1.588" transform="translate(150.338 279.065)" fill="#fff"/>
        <circle id="Elipse_13824" data-name="Elipse 13824" cx="1.456" cy="1.456" r="1.456" transform="translate(106.391 307.657)" fill="#fff"/>
        <circle id="Elipse_13825" data-name="Elipse 13825" cx="3.044" cy="3.044" r="3.044" transform="translate(129.159 313.746)" fill="#fff"/>
        <circle id="Elipse_13826" data-name="Elipse 13826" cx="0.927" cy="0.927" r="0.927" transform="translate(159.869 305.009)" fill="#fff"/>
        <circle id="Elipse_13827" data-name="Elipse 13827" cx="2.647" cy="2.647" r="2.647" transform="translate(264.176 226.912)" fill="#fff"/>
        <circle id="Elipse_13828" data-name="Elipse 13828" cx="1.986" cy="1.986" r="1.986" transform="translate(284.296 214.998)" fill="#fff"/>
        <circle id="Elipse_13829" data-name="Elipse 13829" cx="2.383" cy="2.383" r="2.383" transform="translate(281.913 242.266)" fill="#fff"/>
        <circle id="Elipse_13830" data-name="Elipse 13830" cx="0.927" cy="0.927" r="0.927" transform="translate(254.91 241.736)" fill="#fff"/>
        <path id="Trazado_1223005" data-name="Trazado 1223005" d="M320.922,412.569a2.118,2.118,0,1,1-2.118-2.118A2.118,2.118,0,0,1,320.922,412.569Z" transform="translate(-76.602 -97.764)" fill="#fff"/>
        <circle id="Elipse_13831" data-name="Elipse 13831" cx="2.78" cy="2.78" r="2.78" transform="translate(269.206 309.51)" fill="#fff"/>
        <circle id="Elipse_13832" data-name="Elipse 13832" cx="1.986" cy="1.986" r="1.986" transform="translate(194.549 312.687)" fill="#fff"/>
        <circle id="Elipse_13833" data-name="Elipse 13833" cx="1.191" cy="1.191" r="1.191" transform="translate(220.758 268.211)" fill="#fff"/>
        <path id="Trazado_1223006" data-name="Trazado 1223006" d="M315.287,361.242a1.986,1.986,0,1,1-1.986-1.986A1.985,1.985,0,0,1,315.287,361.242Z" transform="translate(-75.203 -84.428)" fill="#fff"/>
        <circle id="Elipse_13834" data-name="Elipse 13834" cx="9.828" cy="9.828" r="9.828" transform="translate(333.893 139.68)" fill="#dbccff"/>
        <circle id="Elipse_13835" data-name="Elipse 13835" cx="8.31" cy="8.31" r="8.31" transform="translate(115.75 40.783)" fill="#dbccff"/>
        <path id="Trazado_1223007" data-name="Trazado 1223007" d="M430.552,209.068a3.574,3.574,0,1,1-3.574-3.574A3.574,3.574,0,0,1,430.552,209.068Z" transform="translate(-104.402 -44.371)" fill="#dbccff"/>
        <circle id="Elipse_13836" data-name="Elipse 13836" cx="3.574" cy="3.574" r="3.574" transform="translate(164.642 35.167)" fill="#dbccff"/>
        <path id="Trazado_1223008" data-name="Trazado 1223008" d="M315.815,42.908a3.574,3.574,0,1,1-3.574-3.574A3.574,3.574,0,0,1,315.815,42.908Z" transform="translate(-74.513 -1.086)" fill="#dbccff"/>
      </g>
    </g>
  </g>
</svg>
