<svg xmlns="http://www.w3.org/2000/svg" xmlns:xlink="http://www.w3.org/1999/xlink" width="113" height="113" viewBox="0 0 113 113">
  <defs>
    <filter id="Trazado_982547" x="0" y="0" width="113" height="113" filterUnits="userSpaceOnUse">
      <feOffset dy="3" input="SourceAlpha"/>
      <feGaussianBlur stdDeviation="3" result="blur"/>
      <feFlood flood-opacity="0.161"/>
      <feComposite operator="in" in2="blur"/>
      <feComposite in="SourceGraphic"/>
    </filter>
  </defs>
  <g id="Grupo_1233073" data-name="Grupo 1233073" transform="translate(-271.425 -1731.619)">
    <g id="Grupo_1230280" data-name="Grupo 1230280" transform="translate(0 -6032.603)">
      <g id="Grupo_1229014" data-name="Grupo 1229014" transform="translate(0 2131.042)">
        <g id="Grupo_1227502" data-name="Grupo 1227502" transform="translate(0 2048.198)">
          <g id="Grupo_1225350" data-name="Grupo 1225350" transform="translate(-0.575 -393.641)">
            <g id="Grupo_1208121" data-name="Grupo 1208121" transform="translate(0 -1922.377)">
              <g id="Grupo_1202432" data-name="Grupo 1202432" transform="translate(0 1255.486)">
                <g id="Grupo_1202055" data-name="Grupo 1202055" transform="translate(0 3240.511)">
                  <g id="Grupo_1177900" data-name="Grupo 1177900" transform="translate(281 1411.003)">
                    <g id="Grupo_1172010" data-name="Grupo 1172010" transform="translate(0)">
                      <g id="Grupo_1171046" data-name="Grupo 1171046">
                        <g id="Grupo_1148525" data-name="Grupo 1148525">
                          <g transform="matrix(1, 0, 0, 1, -9, -6)" filter="url(#Trazado_982547)">
                            <g id="Trazado_982547-2" data-name="Trazado 982547" transform="translate(9 6)" fill="#cefcf7">
                              <path d="M 47.5 93.5 C 41.28937149047852 93.5 35.26533508300781 92.28397369384766 29.59518623352051 89.88570404052734 C 24.11771965026855 87.56893157958984 19.19813346862793 84.25196075439453 14.97309303283691 80.02691650390625 C 10.74804019927979 75.80186462402344 7.431066513061523 70.88229370117188 5.114293098449707 65.40481567382812 C 2.716026782989502 59.73468017578125 1.5 53.71062850952148 1.5 47.5 C 1.5 41.28937149047852 2.716026782989502 35.26533508300781 5.114293098449707 29.59518623352051 C 7.431066513061523 24.11771965026855 10.74804019927979 19.19813346862793 14.97309303283691 14.97309303283691 C 19.19813346862793 10.74804019927979 24.11771965026855 7.431066513061523 29.59518623352051 5.114293098449707 C 35.26533508300781 2.716026782989502 41.28937149047852 1.5 47.5 1.5 C 53.71062850952148 1.5 59.73468017578125 2.716026782989502 65.40481567382812 5.114293098449707 C 70.88229370117188 7.431066513061523 75.80186462402344 10.74804019927979 80.02691650390625 14.97309303283691 C 84.25196075439453 19.19813346862793 87.56893157958984 24.11771965026855 89.88570404052734 29.59518623352051 C 92.28397369384766 35.26533508300781 93.5 41.28937149047852 93.5 47.5 C 93.5 53.71062850952148 92.28397369384766 59.73468017578125 89.88570404052734 65.40481567382812 C 87.56893157958984 70.88229370117188 84.25196075439453 75.80186462402344 80.02691650390625 80.02691650390625 C 75.80186462402344 84.25196075439453 70.88229370117188 87.56893157958984 65.40481567382812 89.88570404052734 C 59.73468017578125 92.28397369384766 53.71062850952148 93.5 47.5 93.5 Z" stroke="none"/>
                              <path d="M 47.5 3 C 41.49121475219727 3 35.66376876831055 4.176155090332031 30.17950439453125 6.495796203613281 C 24.88084411621094 8.736953735351562 20.12152099609375 11.94598388671875 16.03375244140625 16.03375244140625 C 11.94598388671875 20.12152099609375 8.736953735351562 24.88084411621094 6.495796203613281 30.17950439453125 C 4.176155090332031 35.66376876831055 3 41.49121475219727 3 47.5 C 3 53.50878524780273 4.176155090332031 59.33623123168945 6.495796203613281 64.82049560546875 C 8.736953735351562 70.11915588378906 11.94598388671875 74.87847900390625 16.03375244140625 78.96624755859375 C 20.12152099609375 83.05401611328125 24.88084411621094 86.26304626464844 30.17950439453125 88.50419616699219 C 35.66376876831055 90.82384490966797 41.49121475219727 92 47.5 92 C 53.50878524780273 92 59.33623123168945 90.82384490966797 64.82049560546875 88.50419616699219 C 70.11915588378906 86.26304626464844 74.87847900390625 83.05401611328125 78.96624755859375 78.96624755859375 C 83.05401611328125 74.87847900390625 86.26304626464844 70.11915588378906 88.50419616699219 64.82049560546875 C 90.82384490966797 59.33623123168945 92 53.50878524780273 92 47.5 C 92 41.49121475219727 90.82384490966797 35.66376876831055 88.50419616699219 30.17950439453125 C 86.26304626464844 24.88084411621094 83.05401611328125 20.12152099609375 78.96624755859375 16.03375244140625 C 74.87847900390625 11.94598388671875 70.11915588378906 8.736953735351562 64.82049560546875 6.495796203613281 C 59.33623123168945 4.176155090332031 53.50878524780273 3 47.5 3 M 47.5 0 C 73.7335205078125 0 95 21.2664794921875 95 47.5 C 95 73.7335205078125 73.7335205078125 95 47.5 95 C 21.2664794921875 95 0 73.7335205078125 0 47.5 C 0 21.2664794921875 21.2664794921875 0 47.5 0 Z" stroke="none" fill="#098576"/>
                            </g>
                          </g>
                        </g>
                      </g>
                    </g>
                  </g>
                </g>
              </g>
            </g>
          </g>
        </g>
      </g>
    </g>
    <g id="cifrado" transform="translate(297.799 1757.891)">
      <path id="Trazado_1221655" data-name="Trazado 1221655" d="M57.744,60.182H9.94A2.439,2.439,0,0,1,7.5,57.743V9.939A2.439,2.439,0,0,1,9.94,7.5h47.8a2.439,2.439,0,0,1,2.439,2.439v47.8A2.438,2.438,0,0,1,57.744,60.182Zm0,0" transform="translate(-6.631 -6.631)" fill="#e9feff"/>
      <path id="Trazado_1221656" data-name="Trazado 1221656" d="M64.566,175.28V147.621a1.125,1.125,0,0,1,1.125-1.125h37.191a1.125,1.125,0,0,1,1.125,1.125V175.28a1.125,1.125,0,0,1-1.125,1.124H65.691A1.125,1.125,0,0,1,64.566,175.28Zm0,0" transform="translate(-57.075 -129.5)" fill="#71d6a2"/>
      <path id="Trazado_1221657" data-name="Trazado 1221657" d="M408.707,7.5h-4.18V60.182h4.18a2.439,2.439,0,0,0,2.439-2.439V9.939A2.438,2.438,0,0,0,408.707,7.5Zm0,0" transform="translate(-357.594 -6.631)" fill="#c4f2f2"/>
      <path id="Trazado_1221658" data-name="Trazado 1221658" d="M57.744,7.5H9.94A2.439,2.439,0,0,0,7.5,9.939v7.189H60.183V9.939A2.439,2.439,0,0,0,57.744,7.5Zm0,0" transform="translate(-6.631 -6.631)" fill="#67dde0"/>
      <path id="Trazado_1221659" data-name="Trazado 1221659" d="M408.707,7.5h-4.18v9.628h6.618V9.939A2.438,2.438,0,0,0,408.707,7.5Zm0,0" transform="translate(-357.594 -6.631)" fill="#20aba7"/>
      <path id="Trazado_1221660" data-name="Trazado 1221660" d="M344.275,314.613H332.262a4.23,4.23,0,0,1-4.231-4.231V299.516a4.231,4.231,0,0,1,4.231-4.231h12.013a4.23,4.23,0,0,1,4.231,4.231v10.866A4.23,4.23,0,0,1,344.275,314.613Zm0,0" transform="translate(-289.973 -261.026)" fill="#fc5c5a"/>
      <path id="Trazado_1221661" data-name="Trazado 1221661" d="M452.5,295.285h-2.039v19.328H452.5a4.231,4.231,0,0,0,4.231-4.231V299.516A4.231,4.231,0,0,0,452.5,295.285Zm0,0" transform="translate(-398.194 -261.026)" fill="#d84444"/>
      <path id="Trazado_1221662" data-name="Trazado 1221662" d="M385.989,379.883h-7.672a.641.641,0,0,1-.641-.641v-4.678a.641.641,0,0,1,.641-.641h7.672a.641.641,0,0,1,.641.641v4.678A.642.642,0,0,1,385.989,379.883Zm0,0" transform="translate(-333.857 -330.54)" fill="#ffeb7d"/>
      <g id="Grupo_1233072" data-name="Grupo 1233072" transform="translate(41.222 4.808)">
        <path id="Trazado_1221663" data-name="Trazado 1221663" d="M416.883,42.323a.873.873,0,1,1-.873-.873A.873.873,0,0,1,416.883,42.323Zm0,0" transform="translate(-408.193 -41.449)" fill="#e9feff"/>
        <path id="Trazado_1221664" data-name="Trazado 1221664" d="M386.962,42.323a.873.873,0,1,1-.873-.873A.873.873,0,0,1,386.962,42.323Zm0,0" transform="translate(-381.744 -41.449)" fill="#e9feff"/>
        <path id="Trazado_1221665" data-name="Trazado 1221665" d="M357.04,42.323a.873.873,0,1,1-.873-.873A.873.873,0,0,1,357.04,42.323Zm0,0" transform="translate(-355.293 -41.449)" fill="#e9feff"/>
      </g>
      <path id="Trazado_1221666" data-name="Trazado 1221666" d="M111.448,200.2l-.31.31a.351.351,0,0,1-.232.087.467.467,0,0,1-.407-.5.543.543,0,0,1,.242-.455l1.142-.871a.392.392,0,0,1,.261-.1c.261,0,.561.155.561.407v6.287c0,.261-.32.4-.629.4s-.629-.136-.629-.4Zm0,0" transform="translate(-97.68 -175.619)"/>
      <path id="Trazado_1221667" data-name="Trazado 1221667" d="M142.184,203.75v-2.7a2.269,2.269,0,0,1,4.537,0v2.7a2.269,2.269,0,0,1-4.537,0Zm3.279-2.7c0-.764-.387-1.113-1.016-1.113s-1.006.349-1.006,1.113v2.7c0,.764.368,1.112,1.006,1.112s1.016-.348,1.016-1.112Zm0,0" transform="translate(-125.688 -175.767)"/>
      <path id="Trazado_1221668" data-name="Trazado 1221668" d="M190.4,200.2l-.31.31a.351.351,0,0,1-.232.087.467.467,0,0,1-.407-.5.543.543,0,0,1,.242-.455l1.142-.871a.392.392,0,0,1,.261-.1c.261,0,.561.155.561.407v6.287c0,.261-.32.4-.629.4s-.629-.136-.629-.4Zm0,0" transform="translate(-167.473 -175.619)"/>
      <path id="Trazado_1221669" data-name="Trazado 1221669" d="M218.5,200.2l-.31.31a.351.351,0,0,1-.232.087.467.467,0,0,1-.406-.5.543.543,0,0,1,.242-.455l1.142-.871a.393.393,0,0,1,.261-.1c.262,0,.561.155.561.407v6.287c0,.261-.319.4-.629.4s-.629-.136-.629-.4Zm0,0" transform="translate(-192.311 -175.619)"/>
      <path id="Trazado_1221670" data-name="Trazado 1221670" d="M249.23,203.75v-2.7a2.269,2.269,0,0,1,4.537,0v2.7a2.269,2.269,0,0,1-4.537,0Zm3.279-2.7c0-.764-.387-1.113-1.016-1.113s-1.006.349-1.006,1.113v2.7c0,.764.368,1.112,1.006,1.112s1.016-.348,1.016-1.112Zm0,0" transform="translate(-220.314 -175.767)"/>
      <path id="Trazado_1221671" data-name="Trazado 1221671" d="M297.452,200.2l-.31.31a.35.35,0,0,1-.232.087.466.466,0,0,1-.406-.5.543.543,0,0,1,.242-.455l1.142-.871a.392.392,0,0,1,.261-.1c.261,0,.561.155.561.407v6.287c0,.261-.319.4-.629.4s-.629-.136-.629-.4Zm0,0" transform="translate(-262.103 -175.619)"/>
      <path id="Trazado_1221672" data-name="Trazado 1221672" d="M325.546,200.2l-.31.31a.351.351,0,0,1-.232.087.467.467,0,0,1-.406-.5.543.543,0,0,1,.242-.455l1.142-.871a.392.392,0,0,1,.261-.1c.261,0,.561.155.561.407v6.287c0,.261-.32.4-.629.4s-.629-.136-.629-.4Zm0,0" transform="translate(-286.938 -175.619)"/>
      <path id="Trazado_1221673" data-name="Trazado 1221673" d="M114.086,303.8v-2.7a2.269,2.269,0,0,1,4.537,0v2.7a2.269,2.269,0,0,1-4.537,0Zm3.279-2.7c0-.764-.387-1.113-1.016-1.113s-1.006.348-1.006,1.113v2.7c0,.764.368,1.112,1.006,1.112s1.016-.348,1.016-1.112Zm0,0" transform="translate(-100.85 -264.206)"/>
      <path id="Trazado_1221674" data-name="Trazado 1221674" d="M162.3,300.244l-.31.31a.351.351,0,0,1-.232.087.467.467,0,0,1-.407-.5.544.544,0,0,1,.242-.455l1.142-.871a.392.392,0,0,1,.261-.1c.261,0,.561.155.561.407v6.287c0,.261-.32.4-.629.4s-.629-.135-.629-.4Zm0,0" transform="translate(-142.635 -264.059)"/>
      <path id="Trazado_1221675" data-name="Trazado 1221675" d="M190.4,300.244l-.31.31a.351.351,0,0,1-.232.087.467.467,0,0,1-.407-.5.543.543,0,0,1,.242-.455l1.142-.871a.392.392,0,0,1,.261-.1c.261,0,.561.155.561.407v6.287c0,.261-.32.4-.629.4s-.629-.135-.629-.4Zm0,0" transform="translate(-167.473 -264.059)"/>
      <path id="Trazado_1221676" data-name="Trazado 1221676" d="M221.137,303.8v-2.7a2.269,2.269,0,0,1,4.537,0v2.7a2.269,2.269,0,0,1-4.537,0Zm3.279-2.7c0-.764-.387-1.113-1.016-1.113s-1.006.348-1.006,1.113v2.7c0,.764.368,1.112,1.006,1.112s1.016-.348,1.016-1.112Zm0,0" transform="translate(-195.48 -264.206)"/>
      <path id="Trazado_1221677" data-name="Trazado 1221677" d="M269.354,300.244l-.31.31a.351.351,0,0,1-.233.087.467.467,0,0,1-.406-.5.543.543,0,0,1,.242-.455l1.141-.871a.393.393,0,0,1,.261-.1c.261,0,.561.155.561.407v6.287c0,.261-.319.4-.629.4s-.629-.135-.629-.4Zm0,0" transform="translate(-237.265 -264.059)"/>
      <path id="Trazado_1221678" data-name="Trazado 1221678" d="M45.663,43.233h22.7a.87.87,0,1,0,0-1.74h-22.7a.87.87,0,1,0,0,1.74Zm0,0" transform="translate(-39.596 -36.679)"/>
      <path id="Trazado_1221679" data-name="Trazado 1221679" d="M337.645,287.785H325.632a5.107,5.107,0,0,0-5.1,5.1v10.866a5.107,5.107,0,0,0,5.1,5.1h12.013a5.107,5.107,0,0,0,5.1-5.1V292.886A5.107,5.107,0,0,0,337.645,287.785Zm3.361,15.967a3.364,3.364,0,0,1-3.361,3.361H325.632a3.364,3.364,0,0,1-3.361-3.361V292.886a3.364,3.364,0,0,1,3.361-3.361h12.013a3.364,3.364,0,0,1,3.361,3.361Zm0,0" transform="translate(-283.343 -254.397)"/>
      <path id="Trazado_1221680" data-name="Trazado 1221680" d="M379.556,329.255v-.863a4.03,4.03,0,0,0-8.059,0v.863a1.513,1.513,0,0,0-1.317,1.5v4.678a1.513,1.513,0,0,0,1.511,1.511h7.672a1.513,1.513,0,0,0,1.511-1.511v-4.678A1.513,1.513,0,0,0,379.556,329.255Zm-4.029-3.152a2.292,2.292,0,0,1,2.289,2.289v.85h-4.579v-.85A2.292,2.292,0,0,1,375.527,326.1Zm3.607,9.1h-7.214v-4.22h7.214Zm0,0" transform="translate(-327.231 -286.731)"/>
      <path id="Trazado_1221681" data-name="Trazado 1221681" d="M36.792,52.681H3.309A1.57,1.57,0,0,1,1.74,51.113V11.368H52.682V30.775a.87.87,0,1,0,1.74,0V3.308A3.313,3.313,0,0,0,51.113,0H3.309A3.313,3.313,0,0,0,0,3.308v47.8a3.313,3.313,0,0,0,3.309,3.309H36.792a.87.87,0,1,0,0-1.74ZM3.309,1.74h47.8a1.57,1.57,0,0,1,1.569,1.569V9.627H1.74V3.309A1.571,1.571,0,0,1,3.309,1.74Zm0,0"/>
      <path id="Trazado_1221682" data-name="Trazado 1221682" d="M97.377,154.522a.87.87,0,0,0,.87-.87V140.994a2,2,0,0,0-2-1.995H59.061a2,2,0,0,0-2,1.995v27.659a2,2,0,0,0,2,1.995H85.024a.87.87,0,1,0,0-1.74H59.061a.255.255,0,0,1-.255-.254V140.994a.255.255,0,0,1,.255-.254H96.252a.255.255,0,0,1,.255.254v12.657A.87.87,0,0,0,97.377,154.522Zm0,0" transform="translate(-50.446 -122.873)"/>
    </g>
  </g>
</svg>
