<svg xmlns="http://www.w3.org/2000/svg" xmlns:xlink="http://www.w3.org/1999/xlink" width="113" height="113" viewBox="0 0 113 113">
  <defs>
    <filter id="Trazado_982547" x="0" y="0" width="113" height="113" filterUnits="userSpaceOnUse">
      <feOffset dy="3" input="SourceAlpha"/>
      <feGaussianBlur stdDeviation="3" result="blur"/>
      <feFlood flood-opacity="0.161"/>
      <feComposite operator="in" in2="blur"/>
      <feComposite in="SourceGraphic"/>
    </filter>
  </defs>
  <g id="Grupo_1233074" data-name="Grupo 1233074" transform="translate(-586 -1731.638)">
    <g id="Grupo_1230290" data-name="Grupo 1230290" transform="translate(0 -6032.603)">
      <g id="Grupo_1229015" data-name="Grupo 1229015" transform="translate(1 2131.042)">
        <g id="Grupo_1227503" data-name="Grupo 1227503" transform="translate(0 2048.198)">
          <g id="Grupo_1225351" data-name="Grupo 1225351" transform="translate(-1 -393.91)">
            <g id="Grupo_1208122" data-name="Grupo 1208122" transform="translate(0 -1922.377)">
              <g id="Grupo_1202433" data-name="Grupo 1202433" transform="translate(-0.56 1255.773)">
                <g id="Grupo_1202054" data-name="Grupo 1202054" transform="translate(0 3240.511)">
                  <g id="Grupo_1177897" data-name="Grupo 1177897" transform="translate(595.561 1411.003)">
                    <g id="Grupo_1172010" data-name="Grupo 1172010" transform="translate(0)">
                      <g id="Grupo_1171046" data-name="Grupo 1171046">
                        <g id="Grupo_1148525" data-name="Grupo 1148525">
                          <g transform="matrix(1, 0, 0, 1, -9, -6)" filter="url(#Trazado_982547)">
                            <g id="Trazado_982547-2" data-name="Trazado 982547" transform="translate(9 6)" fill="#cefcf7">
                              <path d="M 47.5 93.5 C 41.28937149047852 93.5 35.26533508300781 92.28397369384766 29.59518623352051 89.88570404052734 C 24.11771965026855 87.56893157958984 19.19813346862793 84.25196075439453 14.97309303283691 80.02691650390625 C 10.74804019927979 75.80186462402344 7.431066513061523 70.88229370117188 5.114293098449707 65.40481567382812 C 2.716026782989502 59.73468017578125 1.5 53.71062850952148 1.5 47.5 C 1.5 41.28937149047852 2.716026782989502 35.26533508300781 5.114293098449707 29.59518623352051 C 7.431066513061523 24.11771965026855 10.74804019927979 19.19813346862793 14.97309303283691 14.97309303283691 C 19.19813346862793 10.74804019927979 24.11771965026855 7.431066513061523 29.59518623352051 5.114293098449707 C 35.26533508300781 2.716026782989502 41.28937149047852 1.5 47.5 1.5 C 53.71062850952148 1.5 59.73468017578125 2.716026782989502 65.40481567382812 5.114293098449707 C 70.88229370117188 7.431066513061523 75.80186462402344 10.74804019927979 80.02691650390625 14.97309303283691 C 84.25196075439453 19.19813346862793 87.56893157958984 24.11771965026855 89.88570404052734 29.59518623352051 C 92.28397369384766 35.26533508300781 93.5 41.28937149047852 93.5 47.5 C 93.5 53.71062850952148 92.28397369384766 59.73468017578125 89.88570404052734 65.40481567382812 C 87.56893157958984 70.88229370117188 84.25196075439453 75.80186462402344 80.02691650390625 80.02691650390625 C 75.80186462402344 84.25196075439453 70.88229370117188 87.56893157958984 65.40481567382812 89.88570404052734 C 59.73468017578125 92.28397369384766 53.71062850952148 93.5 47.5 93.5 Z" stroke="none"/>
                              <path d="M 47.5 3 C 41.49121475219727 3 35.66376876831055 4.176155090332031 30.17950439453125 6.495796203613281 C 24.88084411621094 8.736953735351562 20.12152099609375 11.94598388671875 16.03375244140625 16.03375244140625 C 11.94598388671875 20.12152099609375 8.736953735351562 24.88084411621094 6.495796203613281 30.17950439453125 C 4.176155090332031 35.66376876831055 3 41.49121475219727 3 47.5 C 3 53.50878524780273 4.176155090332031 59.33623123168945 6.495796203613281 64.82049560546875 C 8.736953735351562 70.11915588378906 11.94598388671875 74.87847900390625 16.03375244140625 78.96624755859375 C 20.12152099609375 83.05401611328125 24.88084411621094 86.26304626464844 30.17950439453125 88.50419616699219 C 35.66376876831055 90.82384490966797 41.49121475219727 92 47.5 92 C 53.50878524780273 92 59.33623123168945 90.82384490966797 64.82049560546875 88.50419616699219 C 70.11915588378906 86.26304626464844 74.87847900390625 83.05401611328125 78.96624755859375 78.96624755859375 C 83.05401611328125 74.87847900390625 86.26304626464844 70.11915588378906 88.50419616699219 64.82049560546875 C 90.82384490966797 59.33623123168945 92 53.50878524780273 92 47.5 C 92 41.49121475219727 90.82384490966797 35.66376876831055 88.50419616699219 30.17950439453125 C 86.26304626464844 24.88084411621094 83.05401611328125 20.12152099609375 78.96624755859375 16.03375244140625 C 74.87847900390625 11.94598388671875 70.11915588378906 8.736953735351562 64.82049560546875 6.495796203613281 C 59.33623123168945 4.176155090332031 53.50878524780273 3 47.5 3 M 47.5 0 C 73.7335205078125 0 95 21.2664794921875 95 47.5 C 95 73.7335205078125 73.7335205078125 95 47.5 95 C 21.2664794921875 95 0 73.7335205078125 0 47.5 C 0 21.2664794921875 21.2664794921875 0 47.5 0 Z" stroke="none" fill="#098576"/>
                            </g>
                          </g>
                        </g>
                      </g>
                    </g>
                  </g>
                </g>
              </g>
            </g>
          </g>
        </g>
      </g>
    </g>
    <g id="control-de-accesso" transform="translate(612.289 1755.427)">
      <path id="Trazado_1221683" data-name="Trazado 1221683" d="M88,8h39V58.137H88Zm0,0" transform="translate(-77.787 -7.072)" fill="#cfd8dc"/>
      <path id="Trazado_1221684" data-name="Trazado 1221684" d="M120,40h31.568V86.423H120Zm0,0" transform="translate(-106.073 -35.358)" fill="#a6e7ff"/>
      <path id="Trazado_1221685" data-name="Trazado 1221685" d="M0,440H59.421v3.714H0Zm0,0" transform="translate(0 -388.935)" fill="#90a4ae"/>
      <path id="Trazado_1221686" data-name="Trazado 1221686" d="M184,200h16.712v13H184Zm0,0" transform="translate(-162.645 -176.789)" fill="#ff8a65"/>
      <path id="Trazado_1221687" data-name="Trazado 1221687" d="M121.857,184a1.857,1.857,0,0,1,1.857,1.857v3.714a1.857,1.857,0,0,1-3.714,0v-3.714A1.857,1.857,0,0,1,121.857,184Zm0,0" transform="translate(-106.073 -162.645)" fill="#ffe082"/>
      <path id="Trazado_1221688" data-name="Trazado 1221688" d="M184.809,291.854a4.508,4.508,0,0,1-4.031-2.491l-3.993-7.995a2.584,2.584,0,0,1,4.522-2.5l2.236,3.7h.338V266.321a2.321,2.321,0,0,1,4.642,0v7.892h2.785a1.857,1.857,0,0,1,1.857,1.857h2.785a1.857,1.857,0,0,1,1.857,1.857h1.857a1.857,1.857,0,0,1,1.857,1.857v8.356l-2.785,3.714Zm0,0" transform="translate(-156.027 -233.361)" fill="#ffe082"/>
      <path id="Trazado_1221689" data-name="Trazado 1221689" d="M211.039,227.473l-1.262-1.362a7.891,7.891,0,0,1,10.727,0l-1.262,1.362A6.035,6.035,0,0,0,211.039,227.473Zm0,0" transform="translate(-185.431 -198.011)" fill="#fff"/>
      <path id="Trazado_1221690" data-name="Trazado 1221690" d="M46.423,51.994h9.285V50.137H50.137V0H9.285V50.137H3.714v1.857h18l.928,1.857H0v1.857H23.566l.355.709a5.406,5.406,0,0,0,4.861,3H43.173l2.785-3.714H59.421V53.851h-13Zm-1.857,1.857v.619l-2.321,3.095H28.782a3.557,3.557,0,0,1-3.2-1.978l-4-8a1.656,1.656,0,0,1,2.9-1.6l2.511,4.145h1.79V32.96a1.393,1.393,0,0,1,2.785,0V44.566h1.857V41.781h1.857a.929.929,0,0,1,.928.928v3.714h1.857V43.638h1.857a.929.929,0,0,1,.928.928V48.28h1.857V45.495h.928a.929.929,0,0,1,.928.928ZM37.138,24.14V35.281H33.425V32.96a3.25,3.25,0,1,0-6.5,0v2.321H22.283V24.14Zm-13-1.857V18.569a5.571,5.571,0,0,1,11.142,0v3.714Zm19.5,21.355H42.55a2.791,2.791,0,0,0-2.627-1.857H37.908a2.791,2.791,0,0,0-2.627-1.857H33.425V37.138H39V22.283H37.138V18.569a7.428,7.428,0,0,0-14.855,0v3.714H20.426V37.138h6.5v9.3l-.856-1.412a3.513,3.513,0,0,0-6.147,3.392l.858,1.715H14.855V31.568H13V50.137H11.142V1.857H48.28v48.28H46.423V46.423a2.786,2.786,0,0,0-2.785-2.785Zm0,0"/>
      <path id="Trazado_1221691" data-name="Trazado 1221691" d="M114.785,176A2.786,2.786,0,0,0,112,178.785V182.5a2.785,2.785,0,0,0,5.571,0v-3.714A2.786,2.786,0,0,0,114.785,176Zm.928,6.5a.928.928,0,0,1-1.857,0v-3.714a.928.928,0,0,1,1.857,0Zm0,0" transform="translate(-99.002 -155.574)"/>
      <path id="Trazado_1221692" data-name="Trazado 1221692" d="M145.425,32H112V46.855h1.857v-13h29.711v36.21h1.857Zm0,0" transform="translate(-99.002 -28.286)"/>
      <path id="Trazado_1221693" data-name="Trazado 1221693" d="M0,432H1.857v1.857H0Zm0,0" transform="translate(0 -381.863)"/>
      <path id="Trazado_1221694" data-name="Trazado 1221694" d="M496,432h1.857v1.857H496Zm0,0" transform="translate(-438.436 -381.863)"/>
    </g>
  </g>
</svg>
