<svg xmlns="http://www.w3.org/2000/svg" xmlns:xlink="http://www.w3.org/1999/xlink" width="113" height="113" viewBox="0 0 113 113">
  <defs>
    <filter id="Trazado_982547" x="0" y="0" width="113" height="113" filterUnits="userSpaceOnUse">
      <feOffset dy="3" input="SourceAlpha"/>
      <feGaussianBlur stdDeviation="3" result="blur"/>
      <feFlood flood-opacity="0.161"/>
      <feComposite operator="in" in2="blur"/>
      <feComposite in="SourceGraphic"/>
    </filter>
  </defs>
  <g id="Grupo_1233078" data-name="Grupo 1233078" transform="translate(-901 -1731.906)">
    <g id="Grupo_1230297" data-name="Grupo 1230297" transform="translate(0 -6032.603)">
      <g id="Grupo_1229016" data-name="Grupo 1229016" transform="translate(0.575 2131.042)">
        <g id="Grupo_1227504" data-name="Grupo 1227504" transform="translate(0 2048.198)">
          <g id="Grupo_1225352" data-name="Grupo 1225352" transform="translate(-0.575 -393.641)">
            <g id="Grupo_1208123" data-name="Grupo 1208123" transform="translate(0 -1922.377)">
              <g id="Grupo_1202434" data-name="Grupo 1202434" transform="translate(-0.56 1255.773)">
                <g id="Grupo_1202053" data-name="Grupo 1202053" transform="translate(0 3240.511)">
                  <g id="Grupo_1177898" data-name="Grupo 1177898" transform="translate(910.561 1411.003)">
                    <g id="Grupo_1172010" data-name="Grupo 1172010" transform="translate(0)">
                      <g id="Grupo_1171046" data-name="Grupo 1171046">
                        <g id="Grupo_1148525" data-name="Grupo 1148525">
                          <g transform="matrix(1, 0, 0, 1, -9, -6)" filter="url(#Trazado_982547)">
                            <g id="Trazado_982547-2" data-name="Trazado 982547" transform="translate(9 6)" fill="#cefcf7">
                              <path d="M 47.5 93.5 C 41.28937149047852 93.5 35.26533508300781 92.28397369384766 29.59518623352051 89.88570404052734 C 24.11771965026855 87.56893157958984 19.19813346862793 84.25196075439453 14.97309303283691 80.02691650390625 C 10.74804019927979 75.80186462402344 7.431066513061523 70.88229370117188 5.114293098449707 65.40481567382812 C 2.716026782989502 59.73468017578125 1.5 53.71062850952148 1.5 47.5 C 1.5 41.28937149047852 2.716026782989502 35.26533508300781 5.114293098449707 29.59518623352051 C 7.431066513061523 24.11771965026855 10.74804019927979 19.19813346862793 14.97309303283691 14.97309303283691 C 19.19813346862793 10.74804019927979 24.11771965026855 7.431066513061523 29.59518623352051 5.114293098449707 C 35.26533508300781 2.716026782989502 41.28937149047852 1.5 47.5 1.5 C 53.71062850952148 1.5 59.73468017578125 2.716026782989502 65.40481567382812 5.114293098449707 C 70.88229370117188 7.431066513061523 75.80186462402344 10.74804019927979 80.02691650390625 14.97309303283691 C 84.25196075439453 19.19813346862793 87.56893157958984 24.11771965026855 89.88570404052734 29.59518623352051 C 92.28397369384766 35.26533508300781 93.5 41.28937149047852 93.5 47.5 C 93.5 53.71062850952148 92.28397369384766 59.73468017578125 89.88570404052734 65.40481567382812 C 87.56893157958984 70.88229370117188 84.25196075439453 75.80186462402344 80.02691650390625 80.02691650390625 C 75.80186462402344 84.25196075439453 70.88229370117188 87.56893157958984 65.40481567382812 89.88570404052734 C 59.73468017578125 92.28397369384766 53.71062850952148 93.5 47.5 93.5 Z" stroke="none"/>
                              <path d="M 47.5 3 C 41.49121475219727 3 35.66376876831055 4.176155090332031 30.17950439453125 6.495796203613281 C 24.88084411621094 8.736953735351562 20.12152099609375 11.94598388671875 16.03375244140625 16.03375244140625 C 11.94598388671875 20.12152099609375 8.736953735351562 24.88084411621094 6.495796203613281 30.17950439453125 C 4.176155090332031 35.66376876831055 3 41.49121475219727 3 47.5 C 3 53.50878524780273 4.176155090332031 59.33623123168945 6.495796203613281 64.82049560546875 C 8.736953735351562 70.11915588378906 11.94598388671875 74.87847900390625 16.03375244140625 78.96624755859375 C 20.12152099609375 83.05401611328125 24.88084411621094 86.26304626464844 30.17950439453125 88.50419616699219 C 35.66376876831055 90.82384490966797 41.49121475219727 92 47.5 92 C 53.50878524780273 92 59.33623123168945 90.82384490966797 64.82049560546875 88.50419616699219 C 70.11915588378906 86.26304626464844 74.87847900390625 83.05401611328125 78.96624755859375 78.96624755859375 C 83.05401611328125 74.87847900390625 86.26304626464844 70.11915588378906 88.50419616699219 64.82049560546875 C 90.82384490966797 59.33623123168945 92 53.50878524780273 92 47.5 C 92 41.49121475219727 90.82384490966797 35.66376876831055 88.50419616699219 30.17950439453125 C 86.26304626464844 24.88084411621094 83.05401611328125 20.12152099609375 78.96624755859375 16.03375244140625 C 74.87847900390625 11.94598388671875 70.11915588378906 8.736953735351562 64.82049560546875 6.495796203613281 C 59.33623123168945 4.176155090332031 53.50878524780273 3 47.5 3 M 47.5 0 C 73.7335205078125 0 95 21.2664794921875 95 47.5 C 95 73.7335205078125 73.7335205078125 95 47.5 95 C 21.2664794921875 95 0 73.7335205078125 0 47.5 C 0 21.2664794921875 21.2664794921875 0 47.5 0 Z" stroke="none" fill="#098576"/>
                            </g>
                          </g>
                        </g>
                      </g>
                    </g>
                  </g>
                </g>
              </g>
            </g>
          </g>
        </g>
      </g>
    </g>
    <g id="vpn" transform="translate(923.16 1751.491)">
      <g id="Grupo_1233076" data-name="Grupo 1233076" transform="translate(0.994 0.994)">
        <g id="Grupo_1233075" data-name="Grupo 1233075">
          <circle id="Elipse_13797" data-name="Elipse 13797" cx="32.921" cy="32.921" r="32.921" fill="#b1e4f9"/>
          <path id="Trazado_1221695" data-name="Trazado 1221695" d="M47.47,72.586a32.921,32.921,0,1,1,0-64.329,32.93,32.93,0,0,0,0,64.329Z" transform="translate(-7.5 -7.5)" fill="#90d8f9"/>
        </g>
        <path id="Trazado_1221696" data-name="Trazado 1221696" d="M119.478,200.37q-19.261.758-38.521,0a4.24,4.24,0,0,1-4.018-3.522,36.175,36.175,0,0,1,0-12.116,4.24,4.24,0,0,1,4.018-3.522q19.261-.758,38.521,0a4.24,4.24,0,0,1,4.018,3.522,36.174,36.174,0,0,1,0,12.115A4.24,4.24,0,0,1,119.478,200.37Z" transform="translate(-67.297 -157.869)" fill="#f4dd45"/>
      </g>
      <g id="Grupo_1233077" data-name="Grupo 1233077" transform="translate(0 0)">
        <path id="Trazado_1221697" data-name="Trazado 1221697" d="M63.062,16.567a.994.994,0,1,0-1.706,1.018,31.859,31.859,0,0,1,4.471,15.335H58.681a37.439,37.439,0,0,0-.507-5.23,5.24,5.24,0,0,0-2.747-3.756,43.358,43.358,0,0,0-2.693-8.627,34.154,34.154,0,0,0,4.3-3.408A31.849,31.849,0,0,1,59.189,14.4a.994.994,0,0,0,1.572-1.215,34.232,34.232,0,0,0-11.651-9.6A33.922,33.922,0,0,0,0,33.915,33.915,33.915,0,0,0,57.9,57.9a33.926,33.926,0,0,0,5.166-41.329Zm-6.847,23.24A3.259,3.259,0,0,1,53.137,42.5c-10.589.416-21.32.488-31.9.213a.994.994,0,0,0-.052,1.987q5.842.152,11.732.161v1.984A33.684,33.684,0,0,0,16.8,51.454a41.119,41.119,0,0,1-2.236-6.97l.052,0q1.3.052,2.6.1a.994.994,0,1,0,.067-1.986q-1.3-.044-2.592-.1a3.259,3.259,0,0,1-3.078-2.694,35.359,35.359,0,0,1,0-11.786,3.259,3.259,0,0,1,3.077-2.694c12.755-.5,25.689-.5,38.444,0a3.259,3.259,0,0,1,3.078,2.694,35.367,35.367,0,0,1,0,11.786Zm-23.293,26c-4.078-.3-7.95-2.467-11.252-6.309a29.568,29.568,0,0,1-4.04-6.225,31.706,31.706,0,0,1,15.292-4.436Zm1.987-16.97A31.707,31.707,0,0,1,50.2,53.27a29.568,29.568,0,0,1-4.04,6.225c-3.3,3.842-7.174,6.006-11.252,6.309Zm0-1.988V44.863c6.111-.013,12.233-.137,18.307-.376l.052,0a41.127,41.127,0,0,1-2.236,6.97,33.685,33.685,0,0,0-16.123-4.608Zm0-44.82c4.078.3,7.95,2.467,11.252,6.309a29.568,29.568,0,0,1,4.04,6.225A31.706,31.706,0,0,1,34.908,19ZM32.921,19a31.707,31.707,0,0,1-15.292-4.436,29.568,29.568,0,0,1,4.04-6.225c3.3-3.842,7.174-6.006,11.252-6.309Zm0,1.988v1.984c-6.117.012-12.232.136-18.307.375l-.052,0a41.127,41.127,0,0,1,2.236-6.97,33.685,33.685,0,0,0,16.123,4.608Zm20.346,2.362-.053,0c-6.074-.239-12.189-.363-18.307-.375V20.984a33.684,33.684,0,0,0,16.123-4.608,41.131,41.131,0,0,1,2.236,6.97ZM48.218,5.362a32.132,32.132,0,0,1,7.4,5.139,32.161,32.161,0,0,1-3.732,2.981,31.409,31.409,0,0,0-4.215-6.444A23.83,23.83,0,0,0,44.117,3.65,31.929,31.929,0,0,1,48.218,5.362ZM20.162,7.039a31.409,31.409,0,0,0-4.215,6.444A32.177,32.177,0,0,1,12.213,10.5a31.734,31.734,0,0,1,11.51-6.858A23.838,23.838,0,0,0,20.162,7.039ZM10.8,11.9a34.16,34.16,0,0,0,4.3,3.412A43.349,43.349,0,0,0,12.4,23.935a5.24,5.24,0,0,0-2.747,3.757,37.455,37.455,0,0,0-.507,5.23H2A31.688,31.688,0,0,1,10.8,11.9ZM2,34.908H9.148a37.438,37.438,0,0,0,.507,5.23A5.24,5.24,0,0,0,12.4,43.895,43.349,43.349,0,0,0,15.1,52.522a34.16,34.16,0,0,0-4.3,3.412A31.687,31.687,0,0,1,2,34.908ZM12.213,57.33a32.18,32.18,0,0,1,3.734-2.983,31.409,31.409,0,0,0,4.215,6.444,23.825,23.825,0,0,0,3.561,3.4A31.736,31.736,0,0,1,12.213,57.33Zm35.455,3.461a31.409,31.409,0,0,0,4.215-6.444,32.19,32.19,0,0,1,3.734,2.983,31.732,31.732,0,0,1-11.51,6.858,23.838,23.838,0,0,0,3.561-3.4Zm9.367-4.857a34.16,34.16,0,0,0-4.3-3.412,43.349,43.349,0,0,0,2.693-8.627,5.24,5.24,0,0,0,2.747-3.757,37.455,37.455,0,0,0,.507-5.23h7.144A31.688,31.688,0,0,1,57.034,55.934Z" transform="translate(0 0)"/>
        <path id="Trazado_1221698" data-name="Trazado 1221698" d="M309.926,207.624h-.01a.994.994,0,0,0-.984,1l.075,7.776-5.752-8.33a.994.994,0,0,0-1.811.565v10.81a.994.994,0,0,0,1.987,0v-7.623l5.5,7.962a1.143,1.143,0,0,0,1.287.484,1.2,1.2,0,0,0,.8-1.2l-.1-10.466A.993.993,0,0,0,309.926,207.624Z" transform="translate(-261.509 -180.118)"/>
        <path id="Trazado_1221699" data-name="Trazado 1221699" d="M147.276,207.692a.993.993,0,0,0-1.256.63l-2.84,8.55L140.2,208.29a.994.994,0,1,0-1.877.652l3.705,10.675a1.239,1.239,0,0,0,1.167.824h.009a1.241,1.241,0,0,0,1.166-.846l3.536-10.645A.994.994,0,0,0,147.276,207.692Z" transform="translate(-119.951 -180.116)"/>
        <path id="Trazado_1221700" data-name="Trazado 1221700" d="M231.824,207.624h-3.016a.994.994,0,0,0-.994,1v10.827a.994.994,0,0,0,1.987,0v-3.716c.685,0,1.56-.008,2.022-.008a4.05,4.05,0,1,0,0-8.1Zm0,6.113c-.46,0-1.323,0-2.007.008,0-.7-.01-3.4-.012-4.133h2.019a2.064,2.064,0,1,1,0,4.126Z" transform="translate(-197.634 -180.118)"/>
      </g>
    </g>
  </g>
</svg>
