<svg xmlns="http://www.w3.org/2000/svg" xmlns:xlink="http://www.w3.org/1999/xlink" width="113" height="113" viewBox="0 0 113 113">
  <defs>
    <filter id="Trazado_982547" x="0" y="0" width="113" height="113" filterUnits="userSpaceOnUse">
      <feOffset dy="3" input="SourceAlpha"/>
      <feGaussianBlur stdDeviation="3" result="blur"/>
      <feFlood flood-opacity="0.161"/>
      <feComposite operator="in" in2="blur"/>
      <feComposite in="SourceGraphic"/>
    </filter>
  </defs>
  <g id="Grupo_1233079" data-name="Grupo 1233079" transform="translate(-1216 -1731.619)">
    <g id="Grupo_1230302" data-name="Grupo 1230302" transform="translate(0 -6032.603)">
      <g id="Grupo_1229017" data-name="Grupo 1229017" transform="translate(0 2131.042)">
        <g id="Grupo_1227505" data-name="Grupo 1227505" transform="translate(0.575 2048.198)">
          <g id="Grupo_1225353" data-name="Grupo 1225353" transform="translate(-0.575 -393.641)">
            <g id="Grupo_1208124" data-name="Grupo 1208124" transform="translate(0 -1922.377)">
              <g id="Grupo_1202435" data-name="Grupo 1202435" transform="translate(-0.56 1255.486)">
                <g id="Grupo_1202052" data-name="Grupo 1202052" transform="translate(1225.561 4651.514)">
                  <g id="Grupo_1172010" data-name="Grupo 1172010" transform="translate(0)">
                    <g id="Grupo_1171046" data-name="Grupo 1171046">
                      <g id="Grupo_1148525" data-name="Grupo 1148525">
                        <g transform="matrix(1, 0, 0, 1, -9, -6)" filter="url(#Trazado_982547)">
                          <g id="Trazado_982547-2" data-name="Trazado 982547" transform="translate(9 6)" fill="#cefcf7">
                            <path d="M 47.5 93.5 C 41.28937149047852 93.5 35.26533508300781 92.28397369384766 29.59518623352051 89.88570404052734 C 24.11771965026855 87.56893157958984 19.19813346862793 84.25196075439453 14.97309303283691 80.02691650390625 C 10.74804019927979 75.80186462402344 7.431066513061523 70.88229370117188 5.114293098449707 65.40481567382812 C 2.716026782989502 59.73468017578125 1.5 53.71062850952148 1.5 47.5 C 1.5 41.28937149047852 2.716026782989502 35.26533508300781 5.114293098449707 29.59518623352051 C 7.431066513061523 24.11771965026855 10.74804019927979 19.19813346862793 14.97309303283691 14.97309303283691 C 19.19813346862793 10.74804019927979 24.11771965026855 7.431066513061523 29.59518623352051 5.114293098449707 C 35.26533508300781 2.716026782989502 41.28937149047852 1.5 47.5 1.5 C 53.71062850952148 1.5 59.73468017578125 2.716026782989502 65.40481567382812 5.114293098449707 C 70.88229370117188 7.431066513061523 75.80186462402344 10.74804019927979 80.02691650390625 14.97309303283691 C 84.25196075439453 19.19813346862793 87.56893157958984 24.11771965026855 89.88570404052734 29.59518623352051 C 92.28397369384766 35.26533508300781 93.5 41.28937149047852 93.5 47.5 C 93.5 53.71062850952148 92.28397369384766 59.73468017578125 89.88570404052734 65.40481567382812 C 87.56893157958984 70.88229370117188 84.25196075439453 75.80186462402344 80.02691650390625 80.02691650390625 C 75.80186462402344 84.25196075439453 70.88229370117188 87.56893157958984 65.40481567382812 89.88570404052734 C 59.73468017578125 92.28397369384766 53.71062850952148 93.5 47.5 93.5 Z" stroke="none"/>
                            <path d="M 47.5 3 C 41.49121475219727 3 35.66376876831055 4.176155090332031 30.17950439453125 6.495796203613281 C 24.88084411621094 8.736953735351562 20.12152099609375 11.94598388671875 16.03375244140625 16.03375244140625 C 11.94598388671875 20.12152099609375 8.736953735351562 24.88084411621094 6.495796203613281 30.17950439453125 C 4.176155090332031 35.66376876831055 3 41.49121475219727 3 47.5 C 3 53.50878524780273 4.176155090332031 59.33623123168945 6.495796203613281 64.82049560546875 C 8.736953735351562 70.11915588378906 11.94598388671875 74.87847900390625 16.03375244140625 78.96624755859375 C 20.12152099609375 83.05401611328125 24.88084411621094 86.26304626464844 30.17950439453125 88.50419616699219 C 35.66376876831055 90.82384490966797 41.49121475219727 92 47.5 92 C 53.50878524780273 92 59.33623123168945 90.82384490966797 64.82049560546875 88.50419616699219 C 70.11915588378906 86.26304626464844 74.87847900390625 83.05401611328125 78.96624755859375 78.96624755859375 C 83.05401611328125 74.87847900390625 86.26304626464844 70.11915588378906 88.50419616699219 64.82049560546875 C 90.82384490966797 59.33623123168945 92 53.50878524780273 92 47.5 C 92 41.49121475219727 90.82384490966797 35.66376876831055 88.50419616699219 30.17950439453125 C 86.26304626464844 24.88084411621094 83.05401611328125 20.12152099609375 78.96624755859375 16.03375244140625 C 74.87847900390625 11.94598388671875 70.11915588378906 8.736953735351562 64.82049560546875 6.495796203613281 C 59.33623123168945 4.176155090332031 53.50878524780273 3 47.5 3 M 47.5 0 C 73.7335205078125 0 95 21.2664794921875 95 47.5 C 95 73.7335205078125 73.7335205078125 95 47.5 95 C 21.2664794921875 95 0 73.7335205078125 0 47.5 C 0 21.2664794921875 21.2664794921875 0 47.5 0 Z" stroke="none" fill="#098576"/>
                          </g>
                        </g>
                      </g>
                    </g>
                  </g>
                </g>
              </g>
            </g>
          </g>
        </g>
      </g>
    </g>
    <g id="www" transform="translate(1238 1760.436)">
      <path id="Trazado_1221701" data-name="Trazado 1221701" d="M60.381,33.865h5.841a3.651,3.651,0,0,0,3.651-3.651V14.151A3.651,3.651,0,0,0,66.222,10.5H13.651A3.651,3.651,0,0,0,10,14.151V30.214a3.651,3.651,0,0,0,3.651,3.651Zm0,0" transform="translate(-8.783 -8.783)" fill="#ffc66c"/>
      <path id="Trazado_1221702" data-name="Trazado 1221702" d="M378.094,328.708l10.111,10.111a2.909,2.909,0,0,0,4.115-4.114l-10.111-10.112Zm0,0" transform="translate(-332.083 -284.654)" fill="#ff5d5d"/>
      <path id="Trazado_1221703" data-name="Trazado 1221703" d="M219.21,151.1a14.6,14.6,0,1,1-14.6-14.6A14.6,14.6,0,0,1,219.21,151.1Zm0,0" transform="translate(-166.882 -119.45)" fill="#fff"/>
      <path id="Trazado_1221704" data-name="Trazado 1221704" d="M250.988,187.992A9.492,9.492,0,1,1,241.5,178.5,9.492,9.492,0,0,1,250.988,187.992Zm0,0" transform="translate(-203.771 -156.339)" fill="#72d8ff"/>
      <path id="Trazado_1221705" data-name="Trazado 1221705" d="M232.713,168.5a10.709,10.709,0,1,0,10.709,10.709A10.721,10.721,0,0,0,232.713,168.5Zm0,18.984a8.275,8.275,0,1,1,8.275-8.275A8.284,8.284,0,0,1,232.713,187.484Zm0,0" transform="translate(-194.988 -147.556)"/>
      <path id="Trazado_1221706" data-name="Trazado 1221706" d="M301.221,211.5a1.217,1.217,0,0,0,0,2.434,3.046,3.046,0,0,1,3.042,3.042,1.217,1.217,0,0,0,2.434,0A5.482,5.482,0,0,0,301.221,211.5Zm0,0" transform="translate(-263.496 -185.326)"/>
      <path id="Trazado_1221707" data-name="Trazado 1221707" d="M45.059,71.154A1.217,1.217,0,1,0,42.9,72.273L46.174,78.6a1.217,1.217,0,0,0,2.178-.033l1.983-4.129L52.488,78.6a1.218,1.218,0,0,0,1.081.657h.018a1.218,1.218,0,0,0,1.079-.69l3.039-6.328a1.217,1.217,0,1,0-2.194-1.053l-1.983,4.129-2.154-4.162a1.217,1.217,0,0,0-2.178.033l-1.983,4.129Zm0,0" transform="translate(-37.558 -61.478)"/>
      <path id="Trazado_1221708" data-name="Trazado 1221708" d="M117.2,2.934a1.217,1.217,0,0,0,.86-2.077,1.217,1.217,0,1,0-1.72,1.721A1.225,1.225,0,0,0,117.2,2.934Zm0,0" transform="translate(-101.873)"/>
      <path id="Trazado_1221709" data-name="Trazado 1221709" d="M62.306,21.431V5.368A4.873,4.873,0,0,0,57.439.5h-37a1.217,1.217,0,0,0,0,2.434h37a2.437,2.437,0,0,1,2.434,2.434V21.431a2.437,2.437,0,0,1-2.434,2.434H51.6c-.035,0-.069,0-.1.005a15.9,15.9,0,0,0-8.554-7.153l1.8-3.756L46.9,17.123a1.216,1.216,0,0,0,1.081.657H48a1.217,1.217,0,0,0,1.079-.69l3.039-6.328a1.217,1.217,0,0,0-2.194-1.053l-1.983,4.129L45.784,9.676a1.217,1.217,0,0,0-2.178.033l-1.983,4.129L39.469,9.676a1.217,1.217,0,0,0-2.162,1.119L40,16a15.844,15.844,0,0,0-6.592.434l2.723-5.67a1.217,1.217,0,0,0-2.194-1.053l-1.983,4.129L29.8,9.676a1.217,1.217,0,0,0-2.178.033L25.64,13.838,23.485,9.676a1.217,1.217,0,0,0-2.161,1.119L24.6,17.123a1.217,1.217,0,0,0,2.178-.033l1.983-4.129,2.154,4.161a1.188,1.188,0,0,0,.128.193,15.926,15.926,0,0,0-7.083,6.549H4.867a2.437,2.437,0,0,1-2.434-2.434V5.368A2.437,2.437,0,0,1,4.867,2.934H9.856A1.217,1.217,0,0,0,9.856.5H4.867A4.873,4.873,0,0,0,0,5.368V21.431A4.873,4.873,0,0,0,4.867,26.3H22.838A15.817,15.817,0,0,0,45.6,45.369l9.658,9.658A4.127,4.127,0,0,0,61.1,49.191L57.3,45.4a1.217,1.217,0,1,0-1.721,1.721l3.795,3.8a1.693,1.693,0,1,1-2.393,2.394l-9.339-9.339A15.806,15.806,0,0,0,52.611,26.3h4.827a4.873,4.873,0,0,0,4.868-4.868ZM37.725,45.04A13.386,13.386,0,1,1,51.111,31.653,13.4,13.4,0,0,1,37.725,45.04Zm0,0"/>
      <path id="Trazado_1221710" data-name="Trazado 1221710" d="M430.447,343.138a1.217,1.217,0,1,0,.86-.357A1.226,1.226,0,0,0,430.447,343.138Zm0,0" transform="translate(-377.752 -300.628)"/>
    </g>
  </g>
</svg>
