<svg xmlns="http://www.w3.org/2000/svg" xmlns:xlink="http://www.w3.org/1999/xlink" width="108" height="108" viewBox="0 0 108 108">
  <defs>
    <filter id="Trazado_904820" x="0" y="0" width="108" height="108" filterUnits="userSpaceOnUse">
      <feOffset dy="3" input="SourceAlpha"/>
      <feGaussianBlur stdDeviation="3" result="blur"/>
      <feFlood flood-opacity="0.161"/>
      <feComposite operator="in" in2="blur"/>
      <feComposite in="SourceGraphic"/>
    </filter>
  </defs>
  <g id="Grupo_1233954" data-name="Grupo 1233954" transform="translate(-615 -5046)">
    <g id="Grupo_1232781" data-name="Grupo 1232781" transform="translate(624 5052)">
      <g id="Grupo_1230695" data-name="Grupo 1230695" transform="translate(0 0)">
        <g id="Grupo_1224979" data-name="Grupo 1224979">
          <g id="Grupo_1173585" data-name="Grupo 1173585">
            <g id="Grupo_1173428" data-name="Grupo 1173428">
              <g id="Grupo_1171958" data-name="Grupo 1171958">
                <g id="Grupo_1167341" data-name="Grupo 1167341">
                  <g id="Grupo_1166792" data-name="Grupo 1166792">
                    <g transform="matrix(1, 0, 0, 1, -9, -6)" filter="url(#Trazado_904820)">
                      <g id="Trazado_904820-2" data-name="Trazado 904820" transform="translate(9 6)" fill="#e5fdfa">
                        <path d="M 44.99999618530273 88.50003051757812 C 39.12687301635742 88.50003051757812 33.43022155761719 87.35010528564453 28.06829643249512 85.08219146728516 C 22.88852119445801 82.89134216308594 18.23629570007324 79.75461578369141 14.24084663391113 75.75916290283203 C 10.24540901184082 71.76371765136719 7.108683586120605 67.11148834228516 4.917821407318115 61.93171691894531 C 2.649921178817749 56.56978988647461 1.499996185302734 50.87313842773438 1.499996185302734 45.00001525878906 C 1.499996185302734 39.12689208984375 2.649921178817749 33.43024063110352 4.917821407318115 28.06830215454102 C 7.108683586120605 22.88852691650391 10.24540901184082 18.23631477355957 14.24084663391113 14.24086570739746 C 18.23629570007324 10.24541568756104 22.88852119445801 7.10869026184082 28.06829643249512 4.917827606201172 C 33.43022155761719 2.649927854537964 39.12687301635742 1.50000274181366 44.99999618530273 1.50000274181366 C 50.87311935424805 1.50000274181366 56.56977081298828 2.649927854537964 61.93169784545898 4.917827606201172 C 67.11147308349609 7.10869026184082 71.76369476318359 10.24541568756104 75.75914764404297 14.24086570739746 C 79.75458526611328 18.23631477355957 82.89131164550781 22.88852691650391 85.08216857910156 28.06830215454102 C 87.35007476806641 33.43024063110352 88.5 39.12689208984375 88.5 45.00001525878906 C 88.5 50.87313842773438 87.35007476806641 56.56978988647461 85.08216857910156 61.93171691894531 C 82.89131164550781 67.11148834228516 79.75458526611328 71.76371765136719 75.75914764404297 75.75916290283203 C 71.76369476318359 79.75461578369141 67.11147308349609 82.89134216308594 61.93169784545898 85.08219146728516 C 56.56977081298828 87.35010528564453 50.87311935424805 88.50003051757812 44.99999618530273 88.50003051757812 Z" stroke="none"/>
                        <path d="M 44.99999618530273 3 C 39.32870864868164 3 33.82865142822266 4.110061645507812 28.65262603759766 6.299346923828125 C 23.65165710449219 8.414573669433594 19.15968322753906 11.44334411621094 15.301513671875 15.301513671875 C 11.44333648681641 19.15968322753906 8.414566040039062 23.65165710449219 6.299339294433594 28.65262985229492 C 4.110054016113281 33.82867050170898 2.999992370605469 39.32872772216797 2.999992370605469 45.00001525878906 C 2.999992370605469 50.67130279541016 4.110054016113281 56.17136001586914 6.299339294433594 61.34738922119141 C 8.414566040039062 66.34837341308594 11.44333648681641 70.84033203125 15.301513671875 74.69850158691406 C 19.15968322753906 78.55668640136719 23.65165710449219 81.58545684814453 28.65262603759766 83.70068359375 C 33.82865142822266 85.88996887207031 39.32870864868164 87.00003051757812 44.99999618530273 87.00003051757812 C 50.67128372192383 87.00003051757812 56.17134094238281 85.88996887207031 61.34736633300781 83.70068359375 C 66.34834289550781 81.58545684814453 70.84030914306641 78.55668640136719 74.69847869873047 74.69850158691406 C 78.55665588378906 70.84033203125 81.58542633056641 66.34837341308594 83.70065307617188 61.34738922119141 C 85.88993835449219 56.17136001586914 87 50.67130279541016 87 45.00001525878906 C 87 39.32872772216797 85.88993835449219 33.82867050170898 83.70065307617188 28.65262985229492 C 81.58542633056641 23.65165710449219 78.55665588378906 19.15968322753906 74.69847869873047 15.301513671875 C 70.84030914306641 11.44334411621094 66.34834289550781 8.414573669433594 61.34736633300781 6.299346923828125 C 56.17134094238281 4.110061645507812 50.67128372192383 3 44.99999618530273 3 M 44.99999618530273 0 C 69.85281372070312 0 90 20.14718627929688 90 45.00001525878906 C 90 69.85282897949219 69.85281372070312 90.00003051757812 44.99999618530273 90.00003051757812 C 20.14717864990234 90.00003051757812 -7.62939453125e-06 69.85282897949219 -7.62939453125e-06 45.00001525878906 C -7.62939453125e-06 20.14718627929688 20.14717864990234 0 44.99999618530273 0 Z" stroke="none" fill="#098576"/>
                      </g>
                    </g>
                  </g>
                </g>
              </g>
            </g>
          </g>
        </g>
      </g>
    </g>
    <g id="seguridad-en-la-nube" transform="translate(632.779 5060.781)">
      <g id="Grupo_1233930" data-name="Grupo 1233930" transform="translate(6.159 6.156)">
        <path id="Trazado_1223309" data-name="Trazado 1223309" d="M52.25,22.188a13.873,13.873,0,1,1-3.11,27.392,58.4,58.4,0,0,0-26.153,0,13.873,13.873,0,1,1-3.111-27.392,16.188,16.188,0,1,1,32.375,0Z" transform="translate(-6.003 -6)" fill="#7a86e8"/>
        <path id="Trazado_1223310" data-name="Trazado 1223310" d="M48.188,22.188A16.341,16.341,0,0,0,32,6V48.1a58.385,58.385,0,0,1,13.077,1.483,13.873,13.873,0,1,0,3.11-27.392Z" transform="translate(-1.941 -6)" opacity="0.2"/>
        <path id="Trazado_1223311" data-name="Trazado 1223311" d="M32,30V44.346a58.385,58.385,0,0,1,13.077,1.483,13.387,13.387,0,0,0,3.469.324V33.723Z" transform="translate(-1.941 -2.25)" opacity="0.2"/>
        <path id="Trazado_1223312" data-name="Trazado 1223312" d="M33.767,30,20.69,33.723V48.292C20.7,55.623,27.813,59.9,33.767,62.375c5.955-2.474,13.066-6.753,13.077-14.083V33.723Z" transform="translate(-3.708 -2.25)" fill="#ff9833"/>
        <path id="Trazado_1223313" data-name="Trazado 1223313" d="M45.077,48.292V33.723L32,30V62.375C37.955,59.9,45.066,55.623,45.077,48.292Z" transform="translate(-1.941 -2.25)" opacity="0.2"/>
        <path id="Trazado_1223314" data-name="Trazado 1223314" d="M33.7,34.26a5.225,5.225,0,0,0-5.2,5.2v2.428a1.156,1.156,0,1,0,2.313,0V39.463a2.891,2.891,0,0,1,5.781,0v2.428a1.156,1.156,0,1,0,2.313,0V39.463A5.274,5.274,0,0,0,33.7,34.26Z" transform="translate(-2.488 -1.584)" opacity="0.2"/>
        <path id="Trazado_1223315" data-name="Trazado 1223315" d="M40.35,40.86v8.094a1.616,1.616,0,0,1-1.618,1.619H29.02A1.615,1.615,0,0,1,27.4,48.954V40.86H40.35Z" transform="translate(-2.66 -0.553)" opacity="0.2"/>
        <path id="Trazado_1223316" data-name="Trazado 1223316" d="M39.35,40.86v8.094a1.616,1.616,0,0,1-1.618,1.619H28.02A1.615,1.615,0,0,1,26.4,48.954V40.86H39.35Z" transform="translate(-2.816 -0.553)" fill="#3c3a41"/>
        <path id="Trazado_1223317" data-name="Trazado 1223317" d="M36.856,50.573a1.615,1.615,0,0,0,1.618-1.619V40.86H32v9.713Z" transform="translate(-1.941 -0.553)" opacity="0.2"/>
      </g>
      <g id="Grupo_1233953" data-name="Grupo 1233953" transform="translate(5.009 5)">
        <g id="ARC_1515_" transform="translate(40.504 46.045)">
          <g id="Grupo_1233931" data-name="Grupo 1233931">
            <path id="Trazado_1223318" data-name="Trazado 1223318" d="M41.2,54.209a1.157,1.157,0,0,1-.883-1.9,9.991,9.991,0,0,0,2.35-6.339,1.157,1.157,0,0,1,1.156-1.146h.01a1.156,1.156,0,0,1,1.146,1.167A12.308,12.308,0,0,1,42.08,53.8a1.151,1.151,0,0,1-.885.41Z" transform="translate(-40.039 -44.823)" fill="#1b1b23"/>
          </g>
        </g>
        <g id="LINE_2991_" transform="translate(36.209 56.288)">
          <g id="Grupo_1233932" data-name="Grupo 1233932">
            <path id="Trazado_1223319" data-name="Trazado 1223319" d="M37.481,56.661a1.157,1.157,0,0,1-.668-2.1l.943-.667a1.157,1.157,0,0,1,1.335,1.889l-.944.667A1.155,1.155,0,0,1,37.481,56.661Z" transform="translate(-36.324 -53.681)" fill="#1b1b23"/>
          </g>
        </g>
        <g id="LINE_2992_" transform="translate(30.052 59.21)">
          <g id="Grupo_1233933" data-name="Grupo 1233933">
            <path id="Trazado_1223320" data-name="Trazado 1223320" d="M32.156,59.436a1.157,1.157,0,0,1-.458-2.219l2.124-.915a1.156,1.156,0,0,1,.915,2.124l-2.124.915A1.135,1.135,0,0,1,32.156,59.436Z" transform="translate(-31 -56.208)" fill="#1b1b23"/>
          </g>
        </g>
        <g id="ARC_1516_" transform="translate(0 21.62)">
          <g id="Grupo_1233934" data-name="Grupo 1233934">
            <path id="Trazado_1223321" data-name="Trazado 1223321" d="M20.129,48.316A15.018,15.018,0,0,1,8.1,24.151a1.157,1.157,0,0,1,1.836,1.407A12.717,12.717,0,0,0,22.882,45.692a1.156,1.156,0,1,1,.519,2.254,14.581,14.581,0,0,1-3.272.37Z" transform="translate(-5.009 -23.699)" fill="#1b1b23"/>
          </g>
        </g>
        <g id="ARC_1517_" transform="translate(6.223 17.886)">
          <g id="Grupo_1233935" data-name="Grupo 1233935">
            <path id="Trazado_1223322" data-name="Trazado 1223322" d="M11.548,23.377a1.156,1.156,0,0,1-.638-2.122c.349-.23.705-.445,1.073-.645a1.156,1.156,0,1,1,1.109,2.029q-.467.255-.908.547a1.157,1.157,0,0,1-.636.191Z" transform="translate(-10.391 -20.469)" fill="#1b1b23"/>
          </g>
        </g>
        <g id="ARC_1518_" transform="translate(11.563 16.188)">
          <g id="Grupo_1233936" data-name="Grupo 1233936">
            <path id="Trazado_1223323" data-name="Trazado 1223323" d="M16.164,21.506a1.156,1.156,0,0,1-.191-2.3A15.023,15.023,0,0,1,18.467,19a1.156,1.156,0,1,1,0,2.313,12.657,12.657,0,0,0-2.11.177A1.22,1.22,0,0,1,16.164,21.506Z" transform="translate(-15.009 -19)" fill="#1b1b23"/>
          </g>
        </g>
        <g id="LINE_3098_" transform="translate(26.006 37.885)">
          <g id="Grupo_1233937" data-name="Grupo 1233937">
            <path id="Trazado_1223324" data-name="Trazado 1223324" d="M28.656,42.506A1.156,1.156,0,0,1,27.5,41.349V38.921a1.156,1.156,0,0,1,2.313,0v2.428A1.156,1.156,0,0,1,28.656,42.506Z" transform="translate(-27.5 -37.765)" fill="#1b1b23"/>
          </g>
        </g>
        <g id="LINE_3099_" transform="translate(34.1 37.885)">
          <g id="Grupo_1233938" data-name="Grupo 1233938">
            <path id="Trazado_1223325" data-name="Trazado 1223325" d="M35.656,42.506A1.156,1.156,0,0,1,34.5,41.349V38.921a1.156,1.156,0,0,1,2.313,0v2.428A1.156,1.156,0,0,1,35.656,42.506Z" transform="translate(-34.5 -37.765)" fill="#1b1b23"/>
          </g>
        </g>
        <g id="ARC_1567_" transform="translate(26.006 33.838)">
          <g id="Grupo_1233939" data-name="Grupo 1233939">
            <path id="Trazado_1223326" data-name="Trazado 1223326" d="M36.75,40.624a1.156,1.156,0,0,1-1.156-1.156,2.891,2.891,0,0,0-5.781,0,1.156,1.156,0,1,1-2.313,0,5.2,5.2,0,0,1,10.406,0A1.156,1.156,0,0,1,36.75,40.624Z" transform="translate(-27.5 -34.265)" fill="#1b1b23"/>
          </g>
        </g>
        <g id="LINE_3100_" transform="translate(16.978 31.479)">
          <g id="Grupo_1233940" data-name="Grupo 1233940">
            <path id="Trazado_1223327" data-name="Trazado 1223327" d="M20.848,49.1a1.156,1.156,0,0,1-1.156-1.156V33.381a1.156,1.156,0,1,1,2.313,0V47.949A1.156,1.156,0,0,1,20.848,49.1Z" transform="translate(-19.692 -32.225)" fill="#1b1b23"/>
          </g>
        </g>
        <g id="LWPOLYLINE_253_" transform="translate(23.578 40.313)">
          <g id="Grupo_1233941" data-name="Grupo 1233941">
            <path id="Trazado_1223328" data-name="Trazado 1223328" d="M39.506,50.271a1.156,1.156,0,0,1-1.156-1.156V42.178H27.713v6.938a1.156,1.156,0,0,1-2.313,0V41.021a1.156,1.156,0,0,1,1.156-1.156h12.95a1.156,1.156,0,0,1,1.156,1.156v8.094A1.157,1.157,0,0,1,39.506,50.271Z" transform="translate(-25.4 -39.865)" fill="#1b1b23"/>
          </g>
        </g>
        <g id="LINE_3101_" transform="translate(16.977 27.749)">
          <g id="Grupo_1233942" data-name="Grupo 1233942">
            <path id="Trazado_1223329" data-name="Trazado 1223329" d="M20.848,35.042a1.156,1.156,0,0,1-.317-2.269l13.075-3.729a1.156,1.156,0,1,1,.634,2.223L21.165,35A1.159,1.159,0,0,1,20.848,35.042Z" transform="translate(-19.692 -28.999)" fill="#1b1b23"/>
          </g>
        </g>
        <g id="LINE_3102_" transform="translate(30.052 27.749)">
          <g id="Grupo_1233943" data-name="Grupo 1233943">
            <path id="Trazado_1223330" data-name="Trazado 1223330" d="M45.231,35.042A1.158,1.158,0,0,1,44.914,35L31.84,31.268a1.156,1.156,0,1,1,.634-2.223l13.075,3.729a1.156,1.156,0,0,1-.317,2.269Z" transform="translate(-31 -28.999)" fill="#1b1b23"/>
          </g>
        </g>
        <g id="LINE_3103_" transform="translate(43.128 31.479)">
          <g id="Grupo_1233944" data-name="Grupo 1233944">
            <path id="Trazado_1223331" data-name="Trazado 1223331" d="M43.464,49.1a1.156,1.156,0,0,1-1.156-1.156V33.381a1.156,1.156,0,1,1,2.313,0V47.949A1.156,1.156,0,0,1,43.464,49.1Z" transform="translate(-42.308 -32.225)" fill="#1b1b23"/>
          </g>
        </g>
        <g id="LWPOLYLINE_254_" transform="translate(16.978 46.045)">
          <g id="Grupo_1233945" data-name="Grupo 1233945">
            <path id="Trazado_1223332" data-name="Trazado 1223332" d="M33.923,61.215a1.161,1.161,0,0,1-.444-.089C24.34,57.331,19.7,52.236,19.692,45.98a1.156,1.156,0,0,1,1.155-1.157h0A1.156,1.156,0,0,1,22,45.978c.007,5.232,4.167,9.611,12.361,13.014a1.156,1.156,0,0,1-.443,2.223Z" transform="translate(-19.692 -44.823)" fill="#1b1b23"/>
          </g>
        </g>
        <g id="ARC_1784_" transform="translate(19.139 6.116)">
          <g id="Grupo_1233946" data-name="Grupo 1233946">
            <path id="Trazado_1223333" data-name="Trazado 1223333" d="M22.717,18.859a1.159,1.159,0,0,1-1.092-1.539,12.712,12.712,0,0,1,5.757-6.881,1.156,1.156,0,1,1,1.135,2.014,10.394,10.394,0,0,0-4.709,5.63A1.159,1.159,0,0,1,22.717,18.859Z" transform="translate(-21.561 -10.29)" fill="#1b1b23"/>
          </g>
        </g>
        <g id="ARC_1785_" transform="translate(43.127 16.188)">
          <g id="Grupo_1233947" data-name="Grupo 1233947">
            <path id="Trazado_1223334" data-name="Trazado 1223334" d="M46.473,49.049A14.585,14.585,0,0,1,43.2,48.68a1.156,1.156,0,1,1,.519-2.254,12.709,12.709,0,1,0,2.854-25.114,1.156,1.156,0,0,1,0-2.313,14.978,14.978,0,0,1,8.381,27.436,15.19,15.19,0,0,1-8.485,2.613Z" transform="translate(-42.307 -19)" fill="#1b1b23"/>
          </g>
        </g>
        <g id="LINE_3574_" transform="translate(30.053 44.938)">
          <g id="Grupo_1233948" data-name="Grupo 1233948">
            <path id="Trazado_1223335" data-name="Trazado 1223335" d="M32.156,46.64A1.156,1.156,0,0,1,31,45.484v-.463a1.156,1.156,0,0,1,2.313,0v.463A1.156,1.156,0,0,1,32.156,46.64Z" transform="translate(-31 -43.865)" fill="#1b1b23"/>
          </g>
        </g>
        <g id="ARC_1786_" transform="translate(23.579 48.406)">
          <g id="Grupo_1233949" data-name="Grupo 1233949">
            <path id="Trazado_1223336" data-name="Trazado 1223336" d="M28.175,50.8A2.778,2.778,0,0,1,25.4,48.021a1.156,1.156,0,1,1,2.313,0,.462.462,0,0,0,.461.463,1.156,1.156,0,0,1,0,2.313Z" transform="translate(-25.401 -46.865)" fill="#1b1b23"/>
          </g>
        </g>
        <g id="LINE_3575_" transform="translate(25.196 50.025)">
          <g id="Grupo_1233950" data-name="Grupo 1233950">
            <path id="Trazado_1223337" data-name="Trazado 1223337" d="M37.669,50.578H27.956a1.156,1.156,0,0,1,0-2.313h9.713a1.156,1.156,0,1,1,0,2.313Z" transform="translate(-26.8 -48.265)" fill="#1b1b23"/>
          </g>
        </g>
        <g id="ARC_1787_" transform="translate(34.909 48.406)">
          <g id="Grupo_1233951" data-name="Grupo 1233951">
            <path id="Trazado_1223338" data-name="Trazado 1223338" d="M36.356,50.8a1.156,1.156,0,0,1,0-2.313.461.461,0,0,0,.461-.463,1.156,1.156,0,1,1,2.313,0A2.777,2.777,0,0,1,36.356,50.8Z" transform="translate(-35.2 -46.865)" fill="#1b1b23"/>
          </g>
        </g>
        <g id="ARC_1788_" transform="translate(13.865)">
          <g id="Grupo_1233952" data-name="Grupo 1233952">
            <path id="Trazado_1223339" data-name="Trazado 1223339" d="M50.531,23.5a1.156,1.156,0,0,1-1.156-1.156A15.232,15.232,0,0,0,34.344,7.313,15.232,15.232,0,0,0,19.313,22.344a1.156,1.156,0,0,1-2.313,0A17.576,17.576,0,0,1,34.344,5,17.576,17.576,0,0,1,51.688,22.344,1.156,1.156,0,0,1,50.531,23.5Z" transform="translate(-17 -5)" fill="#1b1b23"/>
          </g>
        </g>
      </g>
    </g>
  </g>
</svg>
