<svg xmlns="http://www.w3.org/2000/svg" xmlns:xlink="http://www.w3.org/1999/xlink" width="108" height="108" viewBox="0 0 108 108">
  <defs>
    <filter id="Trazado_904820" x="0" y="0" width="108" height="108" filterUnits="userSpaceOnUse">
      <feOffset dy="3" input="SourceAlpha"/>
      <feGaussianBlur stdDeviation="3" result="blur"/>
      <feFlood flood-opacity="0.161"/>
      <feComposite operator="in" in2="blur"/>
      <feComposite in="SourceGraphic"/>
    </filter>
  </defs>
  <g id="Grupo_1233963" data-name="Grupo 1233963" transform="translate(-199 -6415.834)">
    <g id="Grupo_1233955" data-name="Grupo 1233955" transform="translate(208 6421.834)">
      <g id="Grupo_1233929" data-name="Grupo 1233929">
        <g id="Grupo_1230695" data-name="Grupo 1230695">
          <g id="Grupo_1224979" data-name="Grupo 1224979">
            <g id="Grupo_1173585" data-name="Grupo 1173585">
              <g id="Grupo_1173428" data-name="Grupo 1173428">
                <g id="Grupo_1171958" data-name="Grupo 1171958">
                  <g id="Grupo_1167341" data-name="Grupo 1167341">
                    <g id="Grupo_1166792" data-name="Grupo 1166792">
                      <g transform="matrix(1, 0, 0, 1, -9, -6)" filter="url(#Trazado_904820)">
                        <g id="Trazado_904820-2" data-name="Trazado 904820" transform="translate(9 6)" fill="#f6ecfe">
                          <path d="M 44.99999618530273 88.50003051757812 C 39.12687301635742 88.50003051757812 33.43022155761719 87.35010528564453 28.06829643249512 85.08219146728516 C 22.88852119445801 82.89134216308594 18.23629570007324 79.75461578369141 14.24084663391113 75.75916290283203 C 10.24540901184082 71.76371765136719 7.108683586120605 67.11148834228516 4.917821407318115 61.93171691894531 C 2.649921178817749 56.56978988647461 1.499996185302734 50.87313842773438 1.499996185302734 45.00001525878906 C 1.499996185302734 39.12689208984375 2.649921178817749 33.43024063110352 4.917821407318115 28.06830215454102 C 7.108683586120605 22.88852691650391 10.24540901184082 18.23631477355957 14.24084663391113 14.24086570739746 C 18.23629570007324 10.24541568756104 22.88852119445801 7.10869026184082 28.06829643249512 4.917827606201172 C 33.43022155761719 2.649927854537964 39.12687301635742 1.50000274181366 44.99999618530273 1.50000274181366 C 50.87311935424805 1.50000274181366 56.56977081298828 2.649927854537964 61.93169784545898 4.917827606201172 C 67.11147308349609 7.10869026184082 71.76369476318359 10.24541568756104 75.75914764404297 14.24086570739746 C 79.75458526611328 18.23631477355957 82.89131164550781 22.88852691650391 85.08216857910156 28.06830215454102 C 87.35007476806641 33.43024063110352 88.5 39.12689208984375 88.5 45.00001525878906 C 88.5 50.87313842773438 87.35007476806641 56.56978988647461 85.08216857910156 61.93171691894531 C 82.89131164550781 67.11148834228516 79.75458526611328 71.76371765136719 75.75914764404297 75.75916290283203 C 71.76369476318359 79.75461578369141 67.11147308349609 82.89134216308594 61.93169784545898 85.08219146728516 C 56.56977081298828 87.35010528564453 50.87311935424805 88.50003051757812 44.99999618530273 88.50003051757812 Z" stroke="none"/>
                          <path d="M 44.99999618530273 3 C 39.32870864868164 3 33.82865142822266 4.110061645507812 28.65262603759766 6.299346923828125 C 23.65165710449219 8.414573669433594 19.15968322753906 11.44334411621094 15.301513671875 15.301513671875 C 11.44333648681641 19.15968322753906 8.414566040039062 23.65165710449219 6.299339294433594 28.65262985229492 C 4.110054016113281 33.82867050170898 2.999992370605469 39.32872772216797 2.999992370605469 45.00001525878906 C 2.999992370605469 50.67130279541016 4.110054016113281 56.17136001586914 6.299339294433594 61.34738922119141 C 8.414566040039062 66.34837341308594 11.44333648681641 70.84033203125 15.301513671875 74.69850158691406 C 19.15968322753906 78.55668640136719 23.65165710449219 81.58545684814453 28.65262603759766 83.70068359375 C 33.82865142822266 85.88996887207031 39.32870864868164 87.00003051757812 44.99999618530273 87.00003051757812 C 50.67128372192383 87.00003051757812 56.17134094238281 85.88996887207031 61.34736633300781 83.70068359375 C 66.34834289550781 81.58545684814453 70.84030914306641 78.55668640136719 74.69847869873047 74.69850158691406 C 78.55665588378906 70.84033203125 81.58542633056641 66.34837341308594 83.70065307617188 61.34738922119141 C 85.88993835449219 56.17136001586914 87 50.67130279541016 87 45.00001525878906 C 87 39.32872772216797 85.88993835449219 33.82867050170898 83.70065307617188 28.65262985229492 C 81.58542633056641 23.65165710449219 78.55665588378906 19.15968322753906 74.69847869873047 15.301513671875 C 70.84030914306641 11.44334411621094 66.34834289550781 8.414573669433594 61.34736633300781 6.299346923828125 C 56.17134094238281 4.110061645507812 50.67128372192383 3 44.99999618530273 3 M 44.99999618530273 0 C 69.85281372070312 0 90 20.14718627929688 90 45.00001525878906 C 90 69.85282897949219 69.85281372070312 90.00003051757812 44.99999618530273 90.00003051757812 C 20.14717864990234 90.00003051757812 -7.62939453125e-06 69.85282897949219 -7.62939453125e-06 45.00001525878906 C -7.62939453125e-06 20.14718627929688 20.14717864990234 0 44.99999618530273 0 Z" stroke="none" fill="#aa52f9"/>
                        </g>
                      </g>
                    </g>
                  </g>
                </g>
              </g>
            </g>
          </g>
        </g>
      </g>
    </g>
    <g id="codificacion-de-telefonos-inteligentes" transform="translate(223 6438)">
      <g id="Grupo_1233956" data-name="Grupo 1233956" transform="translate(1.211 1.211)">
        <path id="Trazado_1223340" data-name="Trazado 1223340" d="M110.408,13.648V65.93a3.658,3.658,0,0,0,3.648,3.648h27.965a3.658,3.658,0,0,0,3.648-3.648V13.648A3.658,3.658,0,0,0,142.021,10H114.056A3.658,3.658,0,0,0,110.408,13.648Z" transform="translate(-98.249 -10)" fill="#67ccd1" fill-rule="evenodd"/>
        <path id="Trazado_1223341" data-name="Trazado 1223341" d="M110.408,75.266v27.357h3.205l2.045,2.045a5.482,5.482,0,0,0,7.738,0l2.119-2.119a8.471,8.471,0,0,0,4.08-1.708,17.638,17.638,0,0,0,15.159,24.86,3.631,3.631,0,0,0,.914-2.408V90.464a17.585,17.585,0,0,0-13.031,5.757,8.5,8.5,0,0,0,.265-2.109V83.777a8.522,8.522,0,0,0-8.511-8.511Z" transform="translate(-98.249 -67.363)" fill="#27a2cc" fill-rule="evenodd"/>
        <path id="Trazado_1223342" data-name="Trazado 1223342" d="M190.049,15.471h12.767L204.639,10H188.225Z" transform="translate(-166.643 -10)" fill="#d2dcfd" fill-rule="evenodd"/>
        <path id="Trazado_1223343" data-name="Trazado 1223343" d="M313.343,270.276a12.159,12.159,0,1,0-12.159-12.159A12.182,12.182,0,0,0,313.343,270.276Z" transform="translate(-265.923 -217.385)" fill="#fff" fill-rule="evenodd"/>
        <path id="Trazado_1223344" data-name="Trazado 1223344" d="M13.04,120.45h23.1a3.049,3.049,0,0,1,3.04,3.04v10.335a3.049,3.049,0,0,1-3.04,3.04H34.926l-3.648,3.648-3.648-3.648H13.04a3.049,3.049,0,0,1-3.04-3.04V123.49a3.049,3.049,0,0,1,3.04-3.04Z" transform="translate(-10 -107.075)" fill="#fff" fill-rule="evenodd"/>
        <path id="Trazado_1223345" data-name="Trazado 1223345" d="M366.449,338.836h8.511v6.079h-8.511Z" transform="translate(-323.285 -299.016)" fill="#bc9af4" fill-rule="evenodd"/>
      </g>
      <g id="Grupo_1233962" data-name="Grupo 1233962" transform="translate(0)">
        <g id="Grupo_1233957" data-name="Grupo 1233957" transform="translate(0)">
          <path id="Trazado_1223346" data-name="Trazado 1223346" d="M366.171,289.123h-.309V287.6a3.947,3.947,0,1,0-7.893,0v1.525h-.309a1.211,1.211,0,0,0-1.211,1.211v6.079a1.211,1.211,0,0,0,1.211,1.211h8.511a1.211,1.211,0,0,0,1.211-1.211v-6.079A1.211,1.211,0,0,0,366.171,289.123Zm-5.78-1.525a1.525,1.525,0,0,1,3.05,0v1.525h-3.05Zm4.569,7.6h-6.089v-3.658h6.089Z" transform="translate(-313.285 -249.303)" fill="#052a75"/>
          <path id="Trazado_1223347" data-name="Trazado 1223347" d="M62,41.943A13.388,13.388,0,0,0,49.841,28.628V4.859A4.864,4.864,0,0,0,44.983,0H17.017a4.864,4.864,0,0,0-4.859,4.859v8.516H4.251A4.255,4.255,0,0,0,0,17.625V27.96a4.255,4.255,0,0,0,4.251,4.251h7.908v24.93A4.864,4.864,0,0,0,17.018,62H44.983a4.864,4.864,0,0,0,4.859-4.859V55.258A13.388,13.388,0,0,0,62,41.943ZM37.527,2.422,36.51,5.471H25.489l-1.016-3.05ZM2.422,27.96V17.625A1.831,1.831,0,0,1,4.251,15.8h23.1a1.831,1.831,0,0,1,1.829,1.829V27.96a1.831,1.831,0,0,1-1.829,1.829H26.137a1.211,1.211,0,0,0-.856.355l-2.791,2.791L19.7,30.144a1.211,1.211,0,0,0-.856-.355H4.251A1.831,1.831,0,0,1,2.422,27.96ZM44.983,59.578H17.017a2.44,2.44,0,0,1-2.437-2.437V32.211H18.34L21.633,35.5a1.211,1.211,0,0,0,1.713,0l3.293-3.293h.714A4.256,4.256,0,0,0,31.6,27.96V17.625a4.256,4.256,0,0,0-4.251-4.251H14.581V4.859a2.44,2.44,0,0,1,2.437-2.437h4.9l1.548,4.643a1.211,1.211,0,0,0,1.149.828H37.383a1.211,1.211,0,0,0,1.149-.828L40.08,2.422h4.9a2.439,2.439,0,0,1,2.437,2.437V28.628a13.37,13.37,0,0,0,0,26.631v1.883A2.439,2.439,0,0,1,44.983,59.578Zm3.648-6.687A10.948,10.948,0,1,1,59.578,41.943,10.96,10.96,0,0,1,48.63,52.891Z" transform="translate(0)" fill="#052a75"/>
          <path id="Trazado_1223348" data-name="Trazado 1223348" d="M239.6,446.816H237.17a1.211,1.211,0,0,0,0,2.422H239.6a1.211,1.211,0,0,0,0-2.422Z" transform="translate(-207.386 -392.709)" fill="#052a75"/>
        </g>
        <g id="Grupo_1233961" data-name="Grupo 1233961" transform="translate(5.472 18.846)">
          <g id="Grupo_1233958" data-name="Grupo 1233958" transform="translate(7.54)">
            <path id="Trazado_1223349" data-name="Trazado 1223349" d="M108.656,163.525a1.211,1.211,0,0,1-1.047-1.817l3.159-5.471a1.211,1.211,0,1,1,2.1,1.211l-3.159,5.471A1.21,1.21,0,0,1,108.656,163.525Z" transform="translate(-107.446 -155.631)" fill="#fd6050"/>
          </g>
          <g id="Grupo_1233959" data-name="Grupo 1233959" transform="translate(0 0)">
            <path id="Trazado_1223350" data-name="Trazado 1223350" d="M49.131,163.526a1.207,1.207,0,0,1-.856-.355l-2.736-2.736a1.211,1.211,0,0,1,0-1.713l2.736-2.736a1.211,1.211,0,1,1,1.713,1.713l-1.879,1.879,1.879,1.88a1.211,1.211,0,0,1-.856,2.067Z" transform="translate(-45.184 -155.633)" fill="#fd6050"/>
          </g>
          <g id="Grupo_1233960" data-name="Grupo 1233960" transform="translate(15.503 0)">
            <path id="Trazado_1223351" data-name="Trazado 1223351" d="M174.416,163.525a1.211,1.211,0,0,1-.856-2.067l1.88-1.88-1.88-1.879a1.211,1.211,0,0,1,1.713-1.713l2.736,2.736a1.211,1.211,0,0,1,0,1.713l-2.736,2.736A1.207,1.207,0,0,1,174.416,163.525Z" transform="translate(-173.205 -155.632)" fill="#fd6050"/>
          </g>
        </g>
      </g>
    </g>
  </g>
</svg>
