<svg xmlns="http://www.w3.org/2000/svg" xmlns:xlink="http://www.w3.org/1999/xlink" width="113" height="113" viewBox="0 0 113 113">
  <defs>
    <filter id="Trazado_982547" x="0" y="0" width="113" height="113" filterUnits="userSpaceOnUse">
      <feOffset dy="3" input="SourceAlpha"/>
      <feGaussianBlur stdDeviation="3" result="blur"/>
      <feFlood flood-opacity="0.161"/>
      <feComposite operator="in" in2="blur"/>
      <feComposite in="SourceGraphic"/>
    </filter>
  </defs>
  <g id="Grupo_1233966" data-name="Grupo 1233966" transform="translate(-271.425 -7611.56)">
    <g id="Grupo_1232784" data-name="Grupo 1232784" transform="translate(0 -152.663)">
      <g id="Grupo_1229014" data-name="Grupo 1229014" transform="translate(0 2131.042)">
        <g id="Grupo_1227502" data-name="Grupo 1227502" transform="translate(0 2048.198)">
          <g id="Grupo_1225350" data-name="Grupo 1225350" transform="translate(-0.575 -393.641)">
            <g id="Grupo_1208121" data-name="Grupo 1208121" transform="translate(0 -1922.377)">
              <g id="Grupo_1202432" data-name="Grupo 1202432" transform="translate(0 1255.486)">
                <g id="Grupo_1202055" data-name="Grupo 1202055" transform="translate(0 3240.511)">
                  <g id="Grupo_1177900" data-name="Grupo 1177900" transform="translate(281 1411.003)">
                    <g id="Grupo_1172010" data-name="Grupo 1172010" transform="translate(0)">
                      <g id="Grupo_1171046" data-name="Grupo 1171046">
                        <g id="Grupo_1148525" data-name="Grupo 1148525">
                          <g transform="matrix(1, 0, 0, 1, -9, -6)" filter="url(#Trazado_982547)">
                            <g id="Trazado_982547-2" data-name="Trazado 982547" transform="translate(9 6)" fill="#cefcf7">
                              <path d="M 47.5 93.5 C 41.28937149047852 93.5 35.26533508300781 92.28397369384766 29.59518623352051 89.88570404052734 C 24.11771965026855 87.56893157958984 19.19813346862793 84.25196075439453 14.97309303283691 80.02691650390625 C 10.74804019927979 75.80186462402344 7.431066513061523 70.88229370117188 5.114293098449707 65.40481567382812 C 2.716026782989502 59.73468017578125 1.5 53.71062850952148 1.5 47.5 C 1.5 41.28937149047852 2.716026782989502 35.26533508300781 5.114293098449707 29.59518623352051 C 7.431066513061523 24.11771965026855 10.74804019927979 19.19813346862793 14.97309303283691 14.97309303283691 C 19.19813346862793 10.74804019927979 24.11771965026855 7.431066513061523 29.59518623352051 5.114293098449707 C 35.26533508300781 2.716026782989502 41.28937149047852 1.5 47.5 1.5 C 53.71062850952148 1.5 59.73468017578125 2.716026782989502 65.40481567382812 5.114293098449707 C 70.88229370117188 7.431066513061523 75.80186462402344 10.74804019927979 80.02691650390625 14.97309303283691 C 84.25196075439453 19.19813346862793 87.56893157958984 24.11771965026855 89.88570404052734 29.59518623352051 C 92.28397369384766 35.26533508300781 93.5 41.28937149047852 93.5 47.5 C 93.5 53.71062850952148 92.28397369384766 59.73468017578125 89.88570404052734 65.40481567382812 C 87.56893157958984 70.88229370117188 84.25196075439453 75.80186462402344 80.02691650390625 80.02691650390625 C 75.80186462402344 84.25196075439453 70.88229370117188 87.56893157958984 65.40481567382812 89.88570404052734 C 59.73468017578125 92.28397369384766 53.71062850952148 93.5 47.5 93.5 Z" stroke="none"/>
                              <path d="M 47.5 3 C 41.49121475219727 3 35.66376876831055 4.176155090332031 30.17950439453125 6.495796203613281 C 24.88084411621094 8.736953735351562 20.12152099609375 11.94598388671875 16.03375244140625 16.03375244140625 C 11.94598388671875 20.12152099609375 8.736953735351562 24.88084411621094 6.495796203613281 30.17950439453125 C 4.176155090332031 35.66376876831055 3 41.49121475219727 3 47.5 C 3 53.50878524780273 4.176155090332031 59.33623123168945 6.495796203613281 64.82049560546875 C 8.736953735351562 70.11915588378906 11.94598388671875 74.87847900390625 16.03375244140625 78.96624755859375 C 20.12152099609375 83.05401611328125 24.88084411621094 86.26304626464844 30.17950439453125 88.50419616699219 C 35.66376876831055 90.82384490966797 41.49121475219727 92 47.5 92 C 53.50878524780273 92 59.33623123168945 90.82384490966797 64.82049560546875 88.50419616699219 C 70.11915588378906 86.26304626464844 74.87847900390625 83.05401611328125 78.96624755859375 78.96624755859375 C 83.05401611328125 74.87847900390625 86.26304626464844 70.11915588378906 88.50419616699219 64.82049560546875 C 90.82384490966797 59.33623123168945 92 53.50878524780273 92 47.5 C 92 41.49121475219727 90.82384490966797 35.66376876831055 88.50419616699219 30.17950439453125 C 86.26304626464844 24.88084411621094 83.05401611328125 20.12152099609375 78.96624755859375 16.03375244140625 C 74.87847900390625 11.94598388671875 70.11915588378906 8.736953735351562 64.82049560546875 6.495796203613281 C 59.33623123168945 4.176155090332031 53.50878524780273 3 47.5 3 M 47.5 0 C 73.7335205078125 0 95 21.2664794921875 95 47.5 C 95 73.7335205078125 73.7335205078125 95 47.5 95 C 21.2664794921875 95 0 73.7335205078125 0 47.5 C 0 21.2664794921875 21.2664794921875 0 47.5 0 Z" stroke="none" fill="#098576"/>
                            </g>
                          </g>
                        </g>
                      </g>
                    </g>
                  </g>
                </g>
              </g>
            </g>
          </g>
        </g>
      </g>
    </g>
    <g id="identificar" transform="translate(347.17 7685.268)">
      <g id="Grupo_1233965" data-name="Grupo 1233965" transform="translate(-60.746 -60.704)">
        <path id="Trazado_1223352" data-name="Trazado 1223352" d="M313.7,305.81c6.835,6.593,13.557,13.555,20.285,20.283a5.125,5.125,0,0,1,.079,7.226l-.39.39a5.126,5.126,0,0,1-7.226-.079l-20.218-20.218C306.21,313.392,313.124,306.666,313.7,305.81Z" transform="translate(-249.598 -249.248)" fill="#656565" fill-rule="evenodd"/>
        <circle id="Elipse_13838" data-name="Elipse 13838" cx="28.609" cy="28.609" r="28.609" transform="translate(0 40.454) rotate(-45)" fill="#92d2fe"/>
        <circle id="Elipse_13839" data-name="Elipse 13839" cx="22.217" cy="22.217" r="22.217" transform="translate(9.039 40.454) rotate(-45)" fill="#e6e6e6"/>
        <g id="Grupo_1233964" data-name="Grupo 1233964" transform="translate(23.508 23.502)">
          <path id="Trazado_1223353" data-name="Trazado 1223353" d="M111.209,96.052a12.7,12.7,0,0,1,4.268,1.769l3.668-2.648,2.758,2.758-2.648,3.668a12.694,12.694,0,0,1,1.769,4.268l4.465.721v3.9l-4.465.721a12.7,12.7,0,0,1-1.769,4.268l2.648,3.668-2.758,2.758-3.668-2.648a12.694,12.694,0,0,1-4.268,1.769l-.721,4.465h-3.9l-.721-4.465a12.7,12.7,0,0,1-4.268-1.769L97.929,121.9l-2.758-2.758,2.648-3.668a12.7,12.7,0,0,1-1.769-4.268l-4.465-.721v-3.9l4.465-.721a12.7,12.7,0,0,1,1.769-4.268l-2.648-3.668,2.758-2.758,3.668,2.648a12.7,12.7,0,0,1,4.268-1.769l.721-4.465h3.9Z" transform="translate(-91.585 -91.587)" fill="#ffd54f" fill-rule="evenodd"/>
          <circle id="Elipse_13840" data-name="Elipse 13840" cx="8.198" cy="8.198" r="8.198" transform="translate(7.695 23.948) rotate(-82.008)" fill="#f2f2f2"/>
        </g>
      </g>
      <path id="Trazado_1223354" data-name="Trazado 1223354" d="M39.761,43.58A1.078,1.078,0,1,1,38.684,42.5,1.078,1.078,0,0,1,39.761,43.58Zm.164-9.958-.292,7.15c-.025.628-.267,1.144-.951,1.144s-.977-.515-1-1.144l-.242-7.15a.945.945,0,0,1,.989-.912h.5a.944.944,0,0,1,.989.912ZM38.683,45.8a7.118,7.118,0,1,0-7.118-7.119A7.126,7.126,0,0,0,38.683,45.8Zm0-16.4a9.279,9.279,0,1,0,9.279,9.278,9.289,9.289,0,0,0-9.279-9.278ZM54.555,39.715V37.653L51,37.079a1.079,1.079,0,0,1-.884-.841,11.574,11.574,0,0,0-1.619-3.906,1.079,1.079,0,0,1,.031-1.219l2.11-2.923-1.457-1.457-2.923,2.11a1.079,1.079,0,0,1-1.221.029,11.611,11.611,0,0,0-3.9-1.619,1.077,1.077,0,0,1-.841-.884l-.576-3.556h-2.06l-.576,3.556a1.077,1.077,0,0,1-.841.884,11.618,11.618,0,0,0-3.9,1.619,1.079,1.079,0,0,1-1.221-.029l-2.923-2.11L26.732,28.19l2.109,2.923a1.076,1.076,0,0,1,.029,1.219,11.592,11.592,0,0,0-1.617,3.906,1.079,1.079,0,0,1-.884.841l-3.557.574v2.062l3.557.574a1.08,1.08,0,0,1,.884.843,11.573,11.573,0,0,0,1.619,3.9,1.081,1.081,0,0,1-.031,1.221l-2.109,2.921,1.457,1.458,2.923-2.109a1.082,1.082,0,0,1,1.221-.031,11.554,11.554,0,0,0,3.9,1.619,1.079,1.079,0,0,1,.841.884l.576,3.557h2.06L40.289,51a1.079,1.079,0,0,1,.841-.884,11.555,11.555,0,0,0,3.9-1.619,1.082,1.082,0,0,1,1.221.031l2.923,2.11,1.457-1.458-2.11-2.921a1.082,1.082,0,0,1-.031-1.221,11.554,11.554,0,0,0,1.619-3.9A1.081,1.081,0,0,1,51,40.289Zm1.253-4.048-3.756-.607A13.706,13.706,0,0,0,50.7,31.795l2.227-3.086a1.079,1.079,0,0,0-.113-1.4l-2.757-2.759a1.081,1.081,0,0,0-1.4-.111L45.573,26.67a13.713,13.713,0,0,0-3.267-1.353L41.7,21.56a1.079,1.079,0,0,0-1.066-.907h-3.9a1.08,1.08,0,0,0-1.067.907l-.606,3.756a13.72,13.72,0,0,0-3.267,1.353l-3.085-2.227a1.081,1.081,0,0,0-1.4.111l-2.757,2.759a1.079,1.079,0,0,0-.113,1.4l2.227,3.086a13.689,13.689,0,0,0-1.354,3.265l-3.756.606a1.081,1.081,0,0,0-.908,1.066v3.9a1.081,1.081,0,0,0,.907,1.067l3.756.606a13.743,13.743,0,0,0,1.353,3.267l-2.227,3.085a1.081,1.081,0,0,0,.113,1.4l2.758,2.758a1.079,1.079,0,0,0,1.395.113L31.793,50.7a13.691,13.691,0,0,0,3.267,1.355l.607,3.755a1.079,1.079,0,0,0,1.066.909h3.9a1.079,1.079,0,0,0,1.066-.909l.607-3.755A13.658,13.658,0,0,0,45.573,50.7l3.085,2.228a1.08,1.08,0,0,0,1.4-.113l2.758-2.758a1.081,1.081,0,0,0,.113-1.4L50.7,45.574a13.711,13.711,0,0,0,1.353-3.267l3.757-.607a1.081,1.081,0,0,0,.907-1.066v-3.9a1.081,1.081,0,0,0-.907-1.066ZM44.153,59.1a21.127,21.127,0,1,0-5.465.722,21.161,21.161,0,0,0,5.465-.722ZM61.186,32.655A23.3,23.3,0,1,0,44.713,61.187,23.325,23.325,0,0,0,61.186,32.655ZM81.927,81.538l-.391.39a3.874,3.874,0,0,1-2.821,1.134,4.114,4.114,0,0,1-2.877-1.213l-7.67-7.67,6.042-6.042.926.938c2.2,2.225,4.474,4.526,6.712,6.762a4.119,4.119,0,0,1,1.213,2.878A3.888,3.888,0,0,1,81.927,81.538ZM62.479,56.443c3.423,3.323,6.85,6.762,10.211,10.159l-6.049,6.049L56.467,62.476a29.461,29.461,0,0,0,6.013-6.033ZM45.808,65.275a27.557,27.557,0,0,0,8.64-4.006c.224-.224.543-.539.923-.914,1.545-1.528,5.648-5.584,6.062-6.17.006-.009.012-.017.019-.025q.565-.833,1.073-1.711a27.549,27.549,0,0,0-23.8-41.306,27.745,27.745,0,0,0-7.171.949A27.529,27.529,0,1,0,45.808,65.275Zm37.568,9.036c-2.233-2.232-4.5-4.531-6.7-6.755-4.228-4.278-8.593-8.691-12.954-12.917q.35-.546.676-1.11A29.69,29.69,0,1,0,12.97,23.84,29.711,29.711,0,0,0,38.634,68.387a30.013,30.013,0,0,0,16.023-4.662L74.311,83.376a6.259,6.259,0,0,0,4.381,1.847h.069a6.032,6.032,0,0,0,4.3-1.769l.391-.389a6.036,6.036,0,0,0,1.767-4.372A6.261,6.261,0,0,0,83.376,74.311Z" transform="translate(-58.966 -58.931)" fill="#242222" fill-rule="evenodd"/>
    </g>
  </g>
</svg>
