<svg xmlns="http://www.w3.org/2000/svg" xmlns:xlink="http://www.w3.org/1999/xlink" width="113" height="113" viewBox="0 0 113 113">
  <defs>
    <filter id="Trazado_982547" x="0" y="0" width="113" height="113" filterUnits="userSpaceOnUse">
      <feOffset dy="3" input="SourceAlpha"/>
      <feGaussianBlur stdDeviation="3" result="blur"/>
      <feFlood flood-opacity="0.161"/>
      <feComposite operator="in" in2="blur"/>
      <feComposite in="SourceGraphic"/>
    </filter>
  </defs>
  <g id="Grupo_1233968" data-name="Grupo 1233968" transform="translate(-586 -7611.578)">
    <g id="Grupo_1232785" data-name="Grupo 1232785" transform="translate(0 -152.663)">
      <g id="Grupo_1229015" data-name="Grupo 1229015" transform="translate(1 2131.042)">
        <g id="Grupo_1227503" data-name="Grupo 1227503" transform="translate(0 2048.198)">
          <g id="Grupo_1225351" data-name="Grupo 1225351" transform="translate(-1 -393.91)">
            <g id="Grupo_1208122" data-name="Grupo 1208122" transform="translate(0 -1922.377)">
              <g id="Grupo_1202433" data-name="Grupo 1202433" transform="translate(-0.56 1255.773)">
                <g id="Grupo_1202054" data-name="Grupo 1202054" transform="translate(0 3240.511)">
                  <g id="Grupo_1177897" data-name="Grupo 1177897" transform="translate(595.561 1411.003)">
                    <g id="Grupo_1172010" data-name="Grupo 1172010" transform="translate(0)">
                      <g id="Grupo_1171046" data-name="Grupo 1171046">
                        <g id="Grupo_1148525" data-name="Grupo 1148525">
                          <g transform="matrix(1, 0, 0, 1, -9, -6)" filter="url(#Trazado_982547)">
                            <g id="Trazado_982547-2" data-name="Trazado 982547" transform="translate(9 6)" fill="#cefcf7">
                              <path d="M 47.5 93.5 C 41.28937149047852 93.5 35.26533508300781 92.28397369384766 29.59518623352051 89.88570404052734 C 24.11771965026855 87.56893157958984 19.19813346862793 84.25196075439453 14.97309303283691 80.02691650390625 C 10.74804019927979 75.80186462402344 7.431066513061523 70.88229370117188 5.114293098449707 65.40481567382812 C 2.716026782989502 59.73468017578125 1.5 53.71062850952148 1.5 47.5 C 1.5 41.28937149047852 2.716026782989502 35.26533508300781 5.114293098449707 29.59518623352051 C 7.431066513061523 24.11771965026855 10.74804019927979 19.19813346862793 14.97309303283691 14.97309303283691 C 19.19813346862793 10.74804019927979 24.11771965026855 7.431066513061523 29.59518623352051 5.114293098449707 C 35.26533508300781 2.716026782989502 41.28937149047852 1.5 47.5 1.5 C 53.71062850952148 1.5 59.73468017578125 2.716026782989502 65.40481567382812 5.114293098449707 C 70.88229370117188 7.431066513061523 75.80186462402344 10.74804019927979 80.02691650390625 14.97309303283691 C 84.25196075439453 19.19813346862793 87.56893157958984 24.11771965026855 89.88570404052734 29.59518623352051 C 92.28397369384766 35.26533508300781 93.5 41.28937149047852 93.5 47.5 C 93.5 53.71062850952148 92.28397369384766 59.73468017578125 89.88570404052734 65.40481567382812 C 87.56893157958984 70.88229370117188 84.25196075439453 75.80186462402344 80.02691650390625 80.02691650390625 C 75.80186462402344 84.25196075439453 70.88229370117188 87.56893157958984 65.40481567382812 89.88570404052734 C 59.73468017578125 92.28397369384766 53.71062850952148 93.5 47.5 93.5 Z" stroke="none"/>
                              <path d="M 47.5 3 C 41.49121475219727 3 35.66376876831055 4.176155090332031 30.17950439453125 6.495796203613281 C 24.88084411621094 8.736953735351562 20.12152099609375 11.94598388671875 16.03375244140625 16.03375244140625 C 11.94598388671875 20.12152099609375 8.736953735351562 24.88084411621094 6.495796203613281 30.17950439453125 C 4.176155090332031 35.66376876831055 3 41.49121475219727 3 47.5 C 3 53.50878524780273 4.176155090332031 59.33623123168945 6.495796203613281 64.82049560546875 C 8.736953735351562 70.11915588378906 11.94598388671875 74.87847900390625 16.03375244140625 78.96624755859375 C 20.12152099609375 83.05401611328125 24.88084411621094 86.26304626464844 30.17950439453125 88.50419616699219 C 35.66376876831055 90.82384490966797 41.49121475219727 92 47.5 92 C 53.50878524780273 92 59.33623123168945 90.82384490966797 64.82049560546875 88.50419616699219 C 70.11915588378906 86.26304626464844 74.87847900390625 83.05401611328125 78.96624755859375 78.96624755859375 C 83.05401611328125 74.87847900390625 86.26304626464844 70.11915588378906 88.50419616699219 64.82049560546875 C 90.82384490966797 59.33623123168945 92 53.50878524780273 92 47.5 C 92 41.49121475219727 90.82384490966797 35.66376876831055 88.50419616699219 30.17950439453125 C 86.26304626464844 24.88084411621094 83.05401611328125 20.12152099609375 78.96624755859375 16.03375244140625 C 74.87847900390625 11.94598388671875 70.11915588378906 8.736953735351562 64.82049560546875 6.495796203613281 C 59.33623123168945 4.176155090332031 53.50878524780273 3 47.5 3 M 47.5 0 C 73.7335205078125 0 95 21.2664794921875 95 47.5 C 95 73.7335205078125 73.7335205078125 95 47.5 95 C 21.2664794921875 95 0 73.7335205078125 0 47.5 C 0 21.2664794921875 21.2664794921875 0 47.5 0 Z" stroke="none" fill="#098576"/>
                            </g>
                          </g>
                        </g>
                      </g>
                    </g>
                  </g>
                </g>
              </g>
            </g>
          </g>
        </g>
      </g>
    </g>
    <g id="codigo-binario" transform="translate(581.315 7635.258)">
      <path id="Trazado_1223355" data-name="Trazado 1223355" d="M82.605,65.394H44.864A1.864,1.864,0,0,1,43,63.53V9.364A1.864,1.864,0,0,1,44.864,7.5H82.605a1.864,1.864,0,0,1,1.864,1.864V63.53A1.864,1.864,0,0,1,82.605,65.394Z" transform="translate(-6.626 -6.626)" fill="#eaf6ff"/>
      <path id="Trazado_1223356" data-name="Trazado 1223356" d="M356.495,7.5H353a1.864,1.864,0,0,1,1.864,1.864V63.53A1.864,1.864,0,0,1,353,65.394h3.495a1.864,1.864,0,0,0,1.864-1.864V9.364A1.864,1.864,0,0,0,356.495,7.5Z" transform="translate(-280.516 -6.626)" fill="#d8ecfe"/>
      <path id="Trazado_1223357" data-name="Trazado 1223357" d="M84.469,14.489H43V9.364A1.864,1.864,0,0,1,44.864,7.5H82.605a1.864,1.864,0,0,1,1.864,1.864Z" transform="translate(-6.626 -6.626)" fill="#2abcc8"/>
      <path id="Trazado_1223358" data-name="Trazado 1223358" d="M356.495,7.5H353a1.864,1.864,0,0,1,1.864,1.864v5.125h3.495V9.364A1.864,1.864,0,0,0,356.495,7.5Z" transform="translate(-280.516 -6.626)" fill="#0cacba"/>
      <path id="Trazado_1223359" data-name="Trazado 1223359" d="M82.08,11.228A1.747,1.747,0,0,1,80.333,9.48V7.5h3.495V9.48A1.747,1.747,0,0,1,82.08,11.228Z" transform="translate(-39.611 -6.626)" fill="#fe7ab6"/>
      <path id="Trazado_1223360" data-name="Trazado 1223360" d="M137.414,11.228a1.747,1.747,0,0,1-1.747-1.747V7.5h3.495V9.48A1.747,1.747,0,0,1,137.414,11.228Z" transform="translate(-88.499 -6.626)" fill="#fdb441"/>
      <path id="Trazado_1223361" data-name="Trazado 1223361" d="M192.747,11.228A1.747,1.747,0,0,1,191,9.48V7.5h3.495V9.48A1.747,1.747,0,0,1,192.747,11.228Z" transform="translate(-137.386 -6.626)" fill="#edf9d9"/>
      <path id="Trazado_1223362" data-name="Trazado 1223362" d="M260.394,234.787h-23.53A1.864,1.864,0,0,1,235,232.923V206.364a1.864,1.864,0,0,1,1.864-1.864h23.53a1.864,1.864,0,0,1,1.864,1.864v26.559A1.864,1.864,0,0,1,260.394,234.787Z" transform="translate(-176.261 -180.678)" fill="#d8ecfe"/>
      <path id="Trazado_1223363" data-name="Trazado 1223363" d="M426.495,204.5H423a1.864,1.864,0,0,1,1.864,1.864v26.559A1.864,1.864,0,0,1,423,234.787h3.495a1.864,1.864,0,0,0,1.864-1.864V206.364A1.864,1.864,0,0,0,426.495,204.5Z" transform="translate(-342.361 -180.678)" fill="#c4e2ff"/>
      <path id="Trazado_1223364" data-name="Trazado 1223364" d="M265.634,393.48a1.98,1.98,0,0,1,1.98-1.98h15.842a1.98,1.98,0,0,1,0,3.961H267.614A1.98,1.98,0,0,1,265.634,393.48Z" transform="translate(-203.326 -345.895)" fill="#fdb441"/>
      <path id="Trazado_1223365" data-name="Trazado 1223365" d="M392.129,391.5h-3.495a1.98,1.98,0,0,1,0,3.961h3.495a1.98,1.98,0,0,0,0-3.961Z" transform="translate(-311.999 -345.895)" fill="#fe9738"/>
      <path id="Trazado_1223366" data-name="Trazado 1223366" d="M262.258,211.256H235v-4.892a1.864,1.864,0,0,1,1.864-1.864h23.53a1.864,1.864,0,0,1,1.864,1.864Z" transform="translate(-176.261 -180.678)" fill="#2abcc8"/>
      <path id="Trazado_1223367" data-name="Trazado 1223367" d="M426.495,204.5H423a1.864,1.864,0,0,1,1.864,1.864v4.892h3.495v-4.892A1.864,1.864,0,0,0,426.495,204.5Z" transform="translate(-342.361 -180.678)" fill="#0cacba"/>
      <path id="Trazado_1223368" data-name="Trazado 1223368" d="M95.534,276.469H85.115a.615.615,0,0,1-.615-.615V257.281a.615.615,0,0,1,.615-.615H95.534a.615.615,0,0,1,.615.615v18.573A.615.615,0,0,1,95.534,276.469Z" transform="translate(-43.292 -226.768)" fill="#fe7ab6"/>
      <path id="Trazado_1223369" data-name="Trazado 1223369" d="M152.717,256.667h-3.495a.615.615,0,0,1,.615.615v18.573a.615.615,0,0,1-.615.615h3.495a.615.615,0,0,0,.615-.615V257.282A.615.615,0,0,0,152.717,256.667Z" transform="translate(-100.475 -226.769)" fill="#fe5ca7"/>
      <g id="Grupo_1233967" data-name="Grupo 1233967" transform="translate(35.5)">
        <path id="Trazado_1223370" data-name="Trazado 1223370" d="M289.422,292.858h5.65a.874.874,0,0,0,0-1.747h-5.65A.874.874,0,0,0,289.422,292.858Z" transform="translate(-259.077 -257.2)"/>
        <path id="Trazado_1223371" data-name="Trazado 1223371" d="M289.422,319.08H303.4a.874.874,0,0,0,0-1.747H289.422A.874.874,0,0,0,289.422,319.08Z" transform="translate(-259.077 -280.368)"/>
        <path id="Trazado_1223372" data-name="Trazado 1223372" d="M289.422,345.3h12.056a.874.874,0,0,0,0-1.747H289.422A.874.874,0,0,0,289.422,345.3Z" transform="translate(-259.077 -303.536)"/>
        <path id="Trazado_1223373" data-name="Trazado 1223373" d="M84.133,22.948H78.717V2.737A2.741,2.741,0,0,0,75.979,0H38.237A2.741,2.741,0,0,0,35.5,2.737V13.892a.874.874,0,0,0,1.747,0V8.736H76.969V22.948H60.6a2.741,2.741,0,0,0-2.737,2.737V52.244A2.741,2.741,0,0,0,60.6,54.982h7.882a.874.874,0,0,0,0-1.747H60.6a.991.991,0,0,1-.99-.99V31.451H85.123V52.244a.991.991,0,0,1-.99.99H72.64a.874.874,0,0,0,0,1.747h4.329V56.9a.991.991,0,0,1-.99.99H38.237a.991.991,0,0,1-.99-.99V18.288a.874.874,0,0,0-1.747,0V56.9a2.741,2.741,0,0,0,2.737,2.737H75.979A2.741,2.741,0,0,0,78.717,56.9V54.982h5.417a2.741,2.741,0,0,0,2.737-2.737V25.685A2.741,2.741,0,0,0,84.133,22.948Zm-27.9-21.2V2.854a.874.874,0,0,1-1.747,0V1.747Zm-6.446,0V2.854a.874.874,0,0,1-1.747,0V1.747Zm-6.446,0V2.854a.874.874,0,0,1-1.747,0V1.747Zm-6.1,5.242V2.737a.991.991,0,0,1,.99-.99h1.611V2.854a2.621,2.621,0,0,0,5.242,0V1.747h1.2V2.854a2.621,2.621,0,0,0,5.242,0V1.747h1.2V2.854a2.621,2.621,0,0,0,5.242,0V1.747h18a.991.991,0,0,1,.99.99V6.989ZM59.613,29.7V25.685a.991.991,0,0,1,.99-.99h23.53a.991.991,0,0,1,.99.99V29.7Z" transform="translate(-35.5)"/>
        <path id="Trazado_1223374" data-name="Trazado 1223374" d="M258.134,386.854a2.857,2.857,0,0,0,2.854,2.854H276.83a2.854,2.854,0,0,0,0-5.708H260.988A2.857,2.857,0,0,0,258.134,386.854Zm19.8,0a1.108,1.108,0,0,1-1.107,1.107H260.988a1.107,1.107,0,0,1,0-2.213H276.83A1.108,1.108,0,0,1,277.937,386.854Z" transform="translate(-232.2 -339.269)"/>
        <path id="Trazado_1223375" data-name="Trazado 1223375" d="M77,250.654v18.573a1.49,1.49,0,0,0,1.488,1.488H88.907a1.49,1.49,0,0,0,1.488-1.488V250.654a1.49,1.49,0,0,0-1.488-1.488H78.488A1.49,1.49,0,0,0,77,250.654Zm1.747.259h9.9v18.055h-9.9Z" transform="translate(-72.166 -220.141)"/>
        <path id="Trazado_1223376" data-name="Trazado 1223376" d="M106.268,283.914h2.873a.874.874,0,0,0,0-1.747h-2.873A.874.874,0,0,0,106.268,283.914Z" transform="translate(-97.258 -249.298)"/>
        <path id="Trazado_1223377" data-name="Trazado 1223377" d="M109.141,379.5h-2.873a.874.874,0,0,0,0,1.747h2.873A.874.874,0,0,0,109.141,379.5Z" transform="translate(-97.258 -335.293)"/>
        <path id="Trazado_1223378" data-name="Trazado 1223378" d="M111.12,306.5h-4.852a.874.874,0,0,0,0,1.747h4.852A.874.874,0,0,0,111.12,306.5Z" transform="translate(-97.258 -270.797)"/>
        <path id="Trazado_1223379" data-name="Trazado 1223379" d="M111.12,330.833h-4.852a.874.874,0,0,0,0,1.747h4.852A.874.874,0,0,0,111.12,330.833Z" transform="translate(-97.258 -292.295)"/>
        <path id="Trazado_1223380" data-name="Trazado 1223380" d="M87.208,119.16v-1.165a2.854,2.854,0,0,0-5.708,0v1.165A2.854,2.854,0,0,0,87.208,119.16Zm-3.961,0v-1.165a1.107,1.107,0,0,1,2.213,0v1.165A1.107,1.107,0,0,1,83.247,119.16Z" transform="translate(-76.142 -101.745)"/>
        <path id="Trazado_1223381" data-name="Trazado 1223381" d="M149.247,120.547v-5.125a.874.874,0,0,0-1.747,0v5.125A.874.874,0,0,0,149.247,120.547Z" transform="translate(-134.454 -101.211)"/>
        <path id="Trazado_1223382" data-name="Trazado 1223382" d="M185.208,119.16v-1.165a2.854,2.854,0,0,0-5.708,0v1.165A2.854,2.854,0,0,0,185.208,119.16Zm-3.961,0v-1.165a1.107,1.107,0,0,1,2.213,0v1.165A1.107,1.107,0,0,1,181.247,119.16Z" transform="translate(-162.726 -101.745)"/>
        <path id="Trazado_1223383" data-name="Trazado 1223383" d="M247.247,120.547v-5.125a.874.874,0,0,0-1.747,0v5.125A.874.874,0,0,0,247.247,120.547Z" transform="translate(-221.038 -101.211)"/>
        <path id="Trazado_1223384" data-name="Trazado 1223384" d="M283.208,119.16v-1.165a2.854,2.854,0,0,0-5.708,0v1.165A2.854,2.854,0,0,0,283.208,119.16Zm-3.961,0v-1.165a1.107,1.107,0,0,1,2.213,0v1.165A1.107,1.107,0,0,1,279.247,119.16Z" transform="translate(-249.31 -101.745)"/>
        <path id="Trazado_1223385" data-name="Trazado 1223385" d="M345.247,120.547v-5.125a.874.874,0,0,0-1.747,0v5.125A.874.874,0,0,0,345.247,120.547Z" transform="translate(-307.622 -101.211)"/>
      </g>
    </g>
  </g>
</svg>
