<svg xmlns="http://www.w3.org/2000/svg" xmlns:xlink="http://www.w3.org/1999/xlink" width="113" height="113" viewBox="0 0 113 113">
  <defs>
    <filter id="Trazado_982547" x="0" y="0" width="113" height="113" filterUnits="userSpaceOnUse">
      <feOffset dy="3" input="SourceAlpha"/>
      <feGaussianBlur stdDeviation="3" result="blur"/>
      <feFlood flood-opacity="0.161"/>
      <feComposite operator="in" in2="blur"/>
      <feComposite in="SourceGraphic"/>
    </filter>
  </defs>
  <g id="Grupo_1233978" data-name="Grupo 1233978" transform="translate(-901 -7611.847)">
    <g id="Grupo_1232786" data-name="Grupo 1232786" transform="translate(0 -152.663)">
      <g id="Grupo_1229016" data-name="Grupo 1229016" transform="translate(0.575 2131.042)">
        <g id="Grupo_1227504" data-name="Grupo 1227504" transform="translate(0 2048.198)">
          <g id="Grupo_1225352" data-name="Grupo 1225352" transform="translate(-0.575 -393.641)">
            <g id="Grupo_1208123" data-name="Grupo 1208123" transform="translate(0 -1922.377)">
              <g id="Grupo_1202434" data-name="Grupo 1202434" transform="translate(-0.56 1255.773)">
                <g id="Grupo_1202053" data-name="Grupo 1202053" transform="translate(0 3240.511)">
                  <g id="Grupo_1177898" data-name="Grupo 1177898" transform="translate(910.561 1411.003)">
                    <g id="Grupo_1172010" data-name="Grupo 1172010" transform="translate(0)">
                      <g id="Grupo_1171046" data-name="Grupo 1171046">
                        <g id="Grupo_1148525" data-name="Grupo 1148525">
                          <g transform="matrix(1, 0, 0, 1, -9, -6)" filter="url(#Trazado_982547)">
                            <g id="Trazado_982547-2" data-name="Trazado 982547" transform="translate(9 6)" fill="#cefcf7">
                              <path d="M 47.5 93.5 C 41.28937149047852 93.5 35.26533508300781 92.28397369384766 29.59518623352051 89.88570404052734 C 24.11771965026855 87.56893157958984 19.19813346862793 84.25196075439453 14.97309303283691 80.02691650390625 C 10.74804019927979 75.80186462402344 7.431066513061523 70.88229370117188 5.114293098449707 65.40481567382812 C 2.716026782989502 59.73468017578125 1.5 53.71062850952148 1.5 47.5 C 1.5 41.28937149047852 2.716026782989502 35.26533508300781 5.114293098449707 29.59518623352051 C 7.431066513061523 24.11771965026855 10.74804019927979 19.19813346862793 14.97309303283691 14.97309303283691 C 19.19813346862793 10.74804019927979 24.11771965026855 7.431066513061523 29.59518623352051 5.114293098449707 C 35.26533508300781 2.716026782989502 41.28937149047852 1.5 47.5 1.5 C 53.71062850952148 1.5 59.73468017578125 2.716026782989502 65.40481567382812 5.114293098449707 C 70.88229370117188 7.431066513061523 75.80186462402344 10.74804019927979 80.02691650390625 14.97309303283691 C 84.25196075439453 19.19813346862793 87.56893157958984 24.11771965026855 89.88570404052734 29.59518623352051 C 92.28397369384766 35.26533508300781 93.5 41.28937149047852 93.5 47.5 C 93.5 53.71062850952148 92.28397369384766 59.73468017578125 89.88570404052734 65.40481567382812 C 87.56893157958984 70.88229370117188 84.25196075439453 75.80186462402344 80.02691650390625 80.02691650390625 C 75.80186462402344 84.25196075439453 70.88229370117188 87.56893157958984 65.40481567382812 89.88570404052734 C 59.73468017578125 92.28397369384766 53.71062850952148 93.5 47.5 93.5 Z" stroke="none"/>
                              <path d="M 47.5 3 C 41.49121475219727 3 35.66376876831055 4.176155090332031 30.17950439453125 6.495796203613281 C 24.88084411621094 8.736953735351562 20.12152099609375 11.94598388671875 16.03375244140625 16.03375244140625 C 11.94598388671875 20.12152099609375 8.736953735351562 24.88084411621094 6.495796203613281 30.17950439453125 C 4.176155090332031 35.66376876831055 3 41.49121475219727 3 47.5 C 3 53.50878524780273 4.176155090332031 59.33623123168945 6.495796203613281 64.82049560546875 C 8.736953735351562 70.11915588378906 11.94598388671875 74.87847900390625 16.03375244140625 78.96624755859375 C 20.12152099609375 83.05401611328125 24.88084411621094 86.26304626464844 30.17950439453125 88.50419616699219 C 35.66376876831055 90.82384490966797 41.49121475219727 92 47.5 92 C 53.50878524780273 92 59.33623123168945 90.82384490966797 64.82049560546875 88.50419616699219 C 70.11915588378906 86.26304626464844 74.87847900390625 83.05401611328125 78.96624755859375 78.96624755859375 C 83.05401611328125 74.87847900390625 86.26304626464844 70.11915588378906 88.50419616699219 64.82049560546875 C 90.82384490966797 59.33623123168945 92 53.50878524780273 92 47.5 C 92 41.49121475219727 90.82384490966797 35.66376876831055 88.50419616699219 30.17950439453125 C 86.26304626464844 24.88084411621094 83.05401611328125 20.12152099609375 78.96624755859375 16.03375244140625 C 74.87847900390625 11.94598388671875 70.11915588378906 8.736953735351562 64.82049560546875 6.495796203613281 C 59.33623123168945 4.176155090332031 53.50878524780273 3 47.5 3 M 47.5 0 C 73.7335205078125 0 95 21.2664794921875 95 47.5 C 95 73.7335205078125 73.7335205078125 95 47.5 95 C 21.2664794921875 95 0 73.7335205078125 0 47.5 C 0 21.2664794921875 21.2664794921875 0 47.5 0 Z" stroke="none" fill="#098576"/>
                            </g>
                          </g>
                        </g>
                      </g>
                    </g>
                  </g>
                </g>
              </g>
            </g>
          </g>
        </g>
      </g>
    </g>
    <g id="automatizacion" transform="translate(926.714 7631.797)">
      <g id="Grupo_1233976" data-name="Grupo 1233976" transform="translate(0.89 0.927)">
        <g id="Grupo_1233970" data-name="Grupo 1233970" transform="translate(0 23.013)">
          <g id="Grupo_1233969" data-name="Grupo 1233969">
            <path id="Trazado_1223386" data-name="Trazado 1223386" d="M99.3,232.884H56.108a2.327,2.327,0,0,1-2.327-2.327v-26.14a2.327,2.327,0,0,1,2.327-2.327H99.3a2.327,2.327,0,0,1,2.327,2.327v26.14A2.327,2.327,0,0,1,99.3,232.884Z" transform="translate(-48.31 -202.089)" fill="#be80e1"/>
            <path id="Trazado_1223387" data-name="Trazado 1223387" d="M83.645,255.866V232.194h40.781v23.672h-25l-5.771-2.813-5.771,2.813Z" transform="translate(-74.641 -228.633)" fill="#f6f3f5"/>
            <path id="Trazado_1223388" data-name="Trazado 1223388" d="M62.823,467.408H11.016a3.491,3.491,0,0,1-3.491-3.491v-.327a1.164,1.164,0,0,1,1.164-1.164H65.15a1.164,1.164,0,0,1,1.164,1.164v.327a3.491,3.491,0,0,1-3.491,3.491Z" transform="translate(-7.525 -431.632)" fill="#d6abec"/>
            <path id="Trazado_1223389" data-name="Trazado 1223389" d="M442.071,462.428h-4.731a1.164,1.164,0,0,1,1.164,1.164v.327a3.491,3.491,0,0,1-3.491,3.491h4.731a3.491,3.491,0,0,0,3.491-3.491v-.327A1.164,1.164,0,0,0,442.071,462.428Z" transform="translate(-384.446 -431.633)" fill="#ca97e7"/>
          </g>
        </g>
        <g id="Grupo_1233974" data-name="Grupo 1233974" transform="translate(0)">
          <g id="Grupo_1233973" data-name="Grupo 1233973">
            <g id="Grupo_1233971" data-name="Grupo 1233971" transform="translate(0 7.139)">
              <path id="Trazado_1223390" data-name="Trazado 1223390" d="M7.525,70.473a2.583,2.583,0,0,0,2.583,2.583H31.833V67.89H10.108A2.583,2.583,0,0,0,7.525,70.473Z" transform="translate(-7.525 -67.89)" fill="#ffcd55"/>
              <path id="Trazado_1223391" data-name="Trazado 1223391" d="M8.282,68.646a2.583,2.583,0,0,0,0,3.652L24.644,88.66A2.583,2.583,0,0,0,28.3,85.008L11.934,68.646A2.582,2.582,0,0,0,8.282,68.646Z" transform="translate(-7.525 -67.89)" fill="#fff4ca"/>
              <path id="Trazado_1223392" data-name="Trazado 1223392" d="M131,207.937H119.462V183.669A5.771,5.771,0,1,1,131,183.624Z" transform="translate(-106.222 -164.83)" fill="#ffcd55"/>
              <path id="Trazado_1223393" data-name="Trazado 1223393" d="M150.472,177.835a5.767,5.767,0,0,0-2.365.506,5.788,5.788,0,0,1,3.423,5.283v24.314h4.731V183.624A5.789,5.789,0,0,0,150.472,177.835Z" transform="translate(-131.478 -164.83)" fill="#ffbe46"/>
              <circle id="Elipse_13841" data-name="Elipse 13841" cx="2.583" cy="2.583" r="2.583" transform="translate(16.385 16.461)" fill="#f6f3f5"/>
            </g>
            <path id="Trazado_1223394" data-name="Trazado 1223394" d="M205.762,26.982a1.291,1.291,0,0,1-.641-.171l-7.315-4.193a1.293,1.293,0,0,1-.648-1.115l-.026-8.431a1.293,1.293,0,0,1,.641-1.119l7.289-4.239a1.29,1.29,0,0,1,1.29,0l6.352,3.641a1.3,1.3,0,0,1,.007,2.234l-.96.558a1.29,1.29,0,0,1-1.29,0l-4.425-2.537a.634.634,0,0,0-.633,0l-4.409,2.564a.635.635,0,0,0-.315.549l.016,5.1a.635.635,0,0,0,.318.548l4.425,2.537a.633.633,0,0,0,.633,0l4.409-2.564a1.29,1.29,0,0,1,1.29,0l.963.552a1.3,1.3,0,0,1,.007,2.234l-6.329,3.68A1.292,1.292,0,0,1,205.762,26.982Z" transform="translate(-174.703 -7.54)" fill="#ffcd55"/>
            <g id="Grupo_1233972" data-name="Grupo 1233972" transform="translate(27.46)">
              <path id="Trazado_1223395" data-name="Trazado 1223395" d="M243.465,11.575a.77.77,0,0,1,.078.036l4.425,2.536a1.29,1.29,0,0,0,1.29,0l.96-.558a1.3,1.3,0,0,0-.007-2.234l-6.352-3.641a1.29,1.29,0,0,0-1.29,0l-2.9,1.685Z" transform="translate(-239.671 -7.54)" fill="#ffbe46"/>
              <path id="Trazado_1223396" data-name="Trazado 1223396" d="M250.414,115.041l-.963-.552a1.29,1.29,0,0,0-1.29,0l-4.409,2.564a.718.718,0,0,1-.187.07l-3.7,2.15,2.935,1.682a1.29,1.29,0,0,0,1.29,0l6.329-3.68A1.3,1.3,0,0,0,250.414,115.041Z" transform="translate(-239.845 -101.687)" fill="#ffbe46"/>
            </g>
          </g>
          <path id="Trazado_1223397" data-name="Trazado 1223397" d="M159.208,66.508h3.511V59.352h-3.511a1.183,1.183,0,0,0-1.183,1.183v4.791A1.183,1.183,0,0,0,159.208,66.508Z" transform="translate(-140.223 -53.223)" fill="#fff4ca"/>
        </g>
        <g id="Grupo_1233975" data-name="Grupo 1233975" transform="translate(28.699 30.096)">
          <path id="Trazado_1223398" data-name="Trazado 1223398" d="M266.771,270.983V269.54a.729.729,0,0,0-.577-.713l-1.487-.316a.029.029,0,0,1-.022-.021,6.436,6.436,0,0,0-.582-1.385.029.029,0,0,1,0-.031l.819-1.262a.729.729,0,0,0-.1-.912l-1.02-1.02a.729.729,0,0,0-.912-.1l-1.276.828a.03.03,0,0,1-.03,0,6.434,6.434,0,0,0-1.39-.569.03.03,0,0,1-.021-.022l-.313-1.471a.729.729,0,0,0-.713-.577h-1.442a.729.729,0,0,0-.713.577l-.316,1.487a.029.029,0,0,1-.021.022,6.439,6.439,0,0,0-1.385.582.029.029,0,0,1-.031,0l-1.262-.819a.729.729,0,0,0-.912.1l-1.02,1.02a.729.729,0,0,0-.1.912l.828,1.276a.03.03,0,0,1,0,.03,6.436,6.436,0,0,0-.569,1.39.029.029,0,0,1-.022.021l-1.471.313a.729.729,0,0,0-.577.713v1.442a.729.729,0,0,0,.577.713l1.487.316a.029.029,0,0,1,.022.021,6.439,6.439,0,0,0,.582,1.385.029.029,0,0,1,0,.031l-.819,1.262a.729.729,0,0,0,.1.912l1.02,1.02a.729.729,0,0,0,.912.1l1.276-.828a.03.03,0,0,1,.03,0,6.438,6.438,0,0,0,1.39.569.03.03,0,0,1,.021.022l.313,1.471a.729.729,0,0,0,.713.577h1.442a.729.729,0,0,0,.713-.577l.316-1.487a.029.029,0,0,1,.021-.022,6.436,6.436,0,0,0,1.385-.582.029.029,0,0,1,.031,0l1.262.819a.729.729,0,0,0,.912-.1l1.02-1.02a.729.729,0,0,0,.1-.912l-.829-1.276a.03.03,0,0,1,0-.03,6.433,6.433,0,0,0,.569-1.39.029.029,0,0,1,.022-.021l1.471-.313A.729.729,0,0,0,266.771,270.983Zm-8.313,2.231a2.925,2.925,0,1,1,2.924-2.924A2.924,2.924,0,0,1,258.458,273.214Z" transform="translate(-250.145 -261.976)" fill="#9ad4fe"/>
        </g>
      </g>
      <g id="Grupo_1233977" data-name="Grupo 1233977" transform="translate(0 0.039)">
        <path id="Trazado_1223399" data-name="Trazado 1223399" d="M58.515,53.847H54.752a3.2,3.2,0,0,0,.342-1.44V26.267a3.218,3.218,0,0,0-3.214-3.215H25.364a6.682,6.682,0,0,0-7.22-2.64L11.85,14.118h6.268a2.068,2.068,0,0,0,1.757.981h2.594a2.182,2.182,0,0,0,1.083,1.676l7.315,4.193a2.178,2.178,0,0,0,2.177-.007l6.329-3.68a2.213,2.213,0,0,0-.012-3.771l-.963-.552-.024-.013a2.162,2.162,0,0,0-2.128.006l-.025.014-4.283,2.491-4.171-2.391-.015-4.808L31.908,5.84l4.3,2.464.024.013a2.162,2.162,0,0,0,2.128-.007l.025-.014.96-.558a2.213,2.213,0,0,0-.012-3.77L32.979.328A2.177,2.177,0,0,0,30.8.335L28.426,1.717a.887.887,0,1,0,.892,1.534l2.376-1.382a.41.41,0,0,1,.4,0l6.352,3.641a.413.413,0,0,1,0,.7l-.946.55a.4.4,0,0,1-.431,0L32.663,4.228a1.519,1.519,0,0,0-1.521,0L26.734,6.8a1.525,1.525,0,0,0-.756,1.319l.016,5.1a1.525,1.525,0,0,0,.764,1.314l4.425,2.537a1.518,1.518,0,0,0,1.521,0L37.1,14.507a.4.4,0,0,1,.431,0l.95.544a.413.413,0,0,1,0,.7l-6.328,3.68a.41.41,0,0,1-.4,0l-7.315-4.193a.431.431,0,0,1-.229-.348V6.456a.4.4,0,0,1,.2-.349L26.308,5a.887.887,0,1,0-.892-1.534l-1.9,1.106a2.183,2.183,0,0,0-1.063,1.6H19.875A2.069,2.069,0,0,0,18.1,7.178H3.473A3.493,3.493,0,0,0,1.019,8.194a3.52,3.52,0,0,0,0,4.907l9.951,9.951H8.689a3.218,3.218,0,0,0-3.214,3.215v26.14a3.193,3.193,0,0,0,.342,1.44H2.054A2.053,2.053,0,0,0,0,55.9a4.471,4.471,0,0,0,4.378,4.7H43.856a.887.887,0,0,0,0-1.774H4.381a2.68,2.68,0,0,1-2.6-2.93.277.277,0,0,1,.277-.276H58.515a.277.277,0,0,1,.277.276,2.68,2.68,0,0,1-2.6,2.93H47.373a.887.887,0,0,0,0,1.774h8.814a4.465,4.465,0,0,0,4.378-4.7,2.053,2.053,0,0,0-2.051-2.051ZM49.788,28.387v21.9H26.561v-21.9Zm-25-1.528V50.286H15.018V26.9a4.884,4.884,0,1,1,9.768-.041ZM13.253,28.387v21.9H10.781v-21.9ZM6.684,8.952H17.805v3.391h-7.73Zm13.191-1.01h2.556v5.382H19.875a.3.3,0,0,1-.3-.3V8.238A.3.3,0,0,1,19.875,7.942Zm-18.1,2.705a1.7,1.7,0,0,1,2.894-1.2L16.39,21.167a6.745,6.745,0,0,0-1.317,1.064,6.436,6.436,0,0,0-1.019,1.4L2.274,11.847a1.684,1.684,0,0,1-.5-1.2ZM7.249,26.267a1.442,1.442,0,0,1,1.44-1.44h4.055l.642.642a6.975,6.975,0,0,0-.137,1.145H9.894a.887.887,0,0,0-.887.887V51.173a.887.887,0,0,0,.887.887H50.675a.887.887,0,0,0,.887-.887V27.5a.887.887,0,0,0-.887-.887H26.554a6.639,6.639,0,0,0-.311-1.787H51.88a1.442,1.442,0,0,1,1.44,1.44v26.14a1.442,1.442,0,0,1-1.44,1.44H8.689a1.442,1.442,0,0,1-1.44-1.44V26.267Z" transform="translate(0 -0.039)"/>
        <path id="Trazado_1223400" data-name="Trazado 1223400" d="M138.543,203.02a3.47,3.47,0,1,0,3.47-3.47A3.474,3.474,0,0,0,138.543,203.02Zm5.165,0a1.7,1.7,0,1,1-1.7-1.7A1.7,1.7,0,0,1,143.708,203.02Z" transform="translate(-122.155 -175.951)"/>
        <path id="Trazado_1223401" data-name="Trazado 1223401" d="M243.923,266.009l1.005.214q.114.309.254.606l-.548.843a1.624,1.624,0,0,0,.213,2.022l1.02,1.02a1.624,1.624,0,0,0,2.022.213l.862-.56q.3.138.608.249l.209.983a1.624,1.624,0,0,0,1.581,1.28h1.442a1.624,1.624,0,0,0,1.581-1.28l.214-1.005q.308-.114.606-.255l.843.548a1.624,1.624,0,0,0,2.023-.213l1.02-1.02a1.624,1.624,0,0,0,.213-2.023l-.56-.862q.138-.3.249-.608l.983-.209a1.624,1.624,0,0,0,1.28-1.581V262.93a1.624,1.624,0,0,0-1.28-1.581l-1.005-.214q-.114-.308-.255-.606l.547-.844a1.624,1.624,0,0,0-.213-2.023l-1.02-1.02a1.624,1.624,0,0,0-2.022-.213l-.863.56q-.3-.138-.608-.249l-.209-.984a1.624,1.624,0,0,0-1.581-1.279h-1.442a1.624,1.624,0,0,0-1.581,1.28l-.214,1.005q-.308.114-.606.255l-.844-.548a1.625,1.625,0,0,0-2.023.213l-1.02,1.02a1.624,1.624,0,0,0-.213,2.023l.56.862q-.138.3-.249.608l-.983.209a1.624,1.624,0,0,0-1.28,1.581v1.442A1.624,1.624,0,0,0,243.923,266.009Zm.495-2.895,1.347-.287a.915.915,0,0,0,.69-.651,5.561,5.561,0,0,1,.492-1.2.915.915,0,0,0-.035-.94l-.759-1.169.838-.838,1.154.749a.912.912,0,0,0,.95.029,5.572,5.572,0,0,1,1.193-.5.913.913,0,0,0,.643-.69l.29-1.362h1.186l.287,1.347a.912.912,0,0,0,.651.69,5.575,5.575,0,0,1,1.2.493.918.918,0,0,0,.938-.036l1.169-.759.838.839-.751,1.157a.914.914,0,0,0-.027.947,5.564,5.564,0,0,1,.5,1.195.912.912,0,0,0,.69.642l1.362.29v1.186l-1.347.287a.915.915,0,0,0-.69.651,5.554,5.554,0,0,1-.49,1.2.914.914,0,0,0,.033.944l.759,1.169-.838.838-1.154-.749a.913.913,0,0,0-.95-.029,5.573,5.573,0,0,1-1.193.5.914.914,0,0,0-.643.69l-.29,1.362h-1.186l-.287-1.347a.917.917,0,0,0-.651-.69,5.576,5.576,0,0,1-1.2-.493.917.917,0,0,0-.938.036l-1.169.759-.839-.839.748-1.153a.915.915,0,0,0,.03-.952,5.561,5.561,0,0,1-.5-1.195.918.918,0,0,0-.69-.642l-1.362-.29v-1.186Z" transform="translate(-213.942 -224.382)"/>
        <path id="Trazado_1223402" data-name="Trazado 1223402" d="M292.012,307.657a3.812,3.812,0,1,0-3.812-3.812A3.816,3.816,0,0,0,292.012,307.657Zm0-5.849a2.037,2.037,0,1,1-2.037,2.037A2.04,2.04,0,0,1,292.012,301.808Z" transform="translate(-254.11 -264.549)"/>
      </g>
    </g>
  </g>
</svg>
