<svg xmlns="http://www.w3.org/2000/svg" xmlns:xlink="http://www.w3.org/1999/xlink" width="113" height="113" viewBox="0 0 113 113">
  <defs>
    <filter id="Trazado_982547" x="0" y="0" width="113" height="113" filterUnits="userSpaceOnUse">
      <feOffset dy="3" input="SourceAlpha"/>
      <feGaussianBlur stdDeviation="3" result="blur"/>
      <feFlood flood-opacity="0.161"/>
      <feComposite operator="in" in2="blur"/>
      <feComposite in="SourceGraphic"/>
    </filter>
  </defs>
  <g id="Grupo_1233984" data-name="Grupo 1233984" transform="translate(-1216 -7611.56)">
    <g id="Grupo_1232787" data-name="Grupo 1232787" transform="translate(0 -152.663)">
      <g id="Grupo_1229017" data-name="Grupo 1229017" transform="translate(0 2131.042)">
        <g id="Grupo_1227505" data-name="Grupo 1227505" transform="translate(0.575 2048.198)">
          <g id="Grupo_1225353" data-name="Grupo 1225353" transform="translate(-0.575 -393.641)">
            <g id="Grupo_1208124" data-name="Grupo 1208124" transform="translate(0 -1922.377)">
              <g id="Grupo_1202435" data-name="Grupo 1202435" transform="translate(-0.56 1255.486)">
                <g id="Grupo_1202052" data-name="Grupo 1202052" transform="translate(1225.561 4651.514)">
                  <g id="Grupo_1172010" data-name="Grupo 1172010" transform="translate(0)">
                    <g id="Grupo_1171046" data-name="Grupo 1171046">
                      <g id="Grupo_1148525" data-name="Grupo 1148525">
                        <g transform="matrix(1, 0, 0, 1, -9, -6)" filter="url(#Trazado_982547)">
                          <g id="Trazado_982547-2" data-name="Trazado 982547" transform="translate(9 6)" fill="#cefcf7">
                            <path d="M 47.5 93.5 C 41.28937149047852 93.5 35.26533508300781 92.28397369384766 29.59518623352051 89.88570404052734 C 24.11771965026855 87.56893157958984 19.19813346862793 84.25196075439453 14.97309303283691 80.02691650390625 C 10.74804019927979 75.80186462402344 7.431066513061523 70.88229370117188 5.114293098449707 65.40481567382812 C 2.716026782989502 59.73468017578125 1.5 53.71062850952148 1.5 47.5 C 1.5 41.28937149047852 2.716026782989502 35.26533508300781 5.114293098449707 29.59518623352051 C 7.431066513061523 24.11771965026855 10.74804019927979 19.19813346862793 14.97309303283691 14.97309303283691 C 19.19813346862793 10.74804019927979 24.11771965026855 7.431066513061523 29.59518623352051 5.114293098449707 C 35.26533508300781 2.716026782989502 41.28937149047852 1.5 47.5 1.5 C 53.71062850952148 1.5 59.73468017578125 2.716026782989502 65.40481567382812 5.114293098449707 C 70.88229370117188 7.431066513061523 75.80186462402344 10.74804019927979 80.02691650390625 14.97309303283691 C 84.25196075439453 19.19813346862793 87.56893157958984 24.11771965026855 89.88570404052734 29.59518623352051 C 92.28397369384766 35.26533508300781 93.5 41.28937149047852 93.5 47.5 C 93.5 53.71062850952148 92.28397369384766 59.73468017578125 89.88570404052734 65.40481567382812 C 87.56893157958984 70.88229370117188 84.25196075439453 75.80186462402344 80.02691650390625 80.02691650390625 C 75.80186462402344 84.25196075439453 70.88229370117188 87.56893157958984 65.40481567382812 89.88570404052734 C 59.73468017578125 92.28397369384766 53.71062850952148 93.5 47.5 93.5 Z" stroke="none"/>
                            <path d="M 47.5 3 C 41.49121475219727 3 35.66376876831055 4.176155090332031 30.17950439453125 6.495796203613281 C 24.88084411621094 8.736953735351562 20.12152099609375 11.94598388671875 16.03375244140625 16.03375244140625 C 11.94598388671875 20.12152099609375 8.736953735351562 24.88084411621094 6.495796203613281 30.17950439453125 C 4.176155090332031 35.66376876831055 3 41.49121475219727 3 47.5 C 3 53.50878524780273 4.176155090332031 59.33623123168945 6.495796203613281 64.82049560546875 C 8.736953735351562 70.11915588378906 11.94598388671875 74.87847900390625 16.03375244140625 78.96624755859375 C 20.12152099609375 83.05401611328125 24.88084411621094 86.26304626464844 30.17950439453125 88.50419616699219 C 35.66376876831055 90.82384490966797 41.49121475219727 92 47.5 92 C 53.50878524780273 92 59.33623123168945 90.82384490966797 64.82049560546875 88.50419616699219 C 70.11915588378906 86.26304626464844 74.87847900390625 83.05401611328125 78.96624755859375 78.96624755859375 C 83.05401611328125 74.87847900390625 86.26304626464844 70.11915588378906 88.50419616699219 64.82049560546875 C 90.82384490966797 59.33623123168945 92 53.50878524780273 92 47.5 C 92 41.49121475219727 90.82384490966797 35.66376876831055 88.50419616699219 30.17950439453125 C 86.26304626464844 24.88084411621094 83.05401611328125 20.12152099609375 78.96624755859375 16.03375244140625 C 74.87847900390625 11.94598388671875 70.11915588378906 8.736953735351562 64.82049560546875 6.495796203613281 C 59.33623123168945 4.176155090332031 53.50878524780273 3 47.5 3 M 47.5 0 C 73.7335205078125 0 95 21.2664794921875 95 47.5 C 95 73.7335205078125 73.7335205078125 95 47.5 95 C 21.2664794921875 95 0 73.7335205078125 0 47.5 C 0 21.2664794921875 21.2664794921875 0 47.5 0 Z" stroke="none" fill="#098576"/>
                          </g>
                        </g>
                      </g>
                    </g>
                  </g>
                </g>
              </g>
            </g>
          </g>
        </g>
      </g>
    </g>
    <g id="contenido" transform="translate(1240.92 7593.817)">
      <g id="Grupo_1233982" data-name="Grupo 1233982" transform="translate(0.911 46.623)">
        <path id="Trazado_1223403" data-name="Trazado 1223403" d="M66.776,163.83H8.582l-1.082.139v33.849a1.821,1.821,0,0,0,1.821,1.821h56.7a1.821,1.821,0,0,0,1.821-1.821V163.969Z" transform="translate(-7.5 -150.401)" fill="#d8ecfe"/>
        <path id="Trazado_1223404" data-name="Trazado 1223404" d="M66.776,163.83H63.528v29.478a1.821,1.821,0,0,1-1.821,1.821H7.5v2.689a1.821,1.821,0,0,0,1.821,1.821h56.7a1.821,1.821,0,0,0,1.821-1.821V163.969Z" transform="translate(-7.5 -150.401)" fill="#c4e2ff"/>
        <path id="Trazado_1223405" data-name="Trazado 1223405" d="M21.8,103.146H9.321A1.821,1.821,0,0,0,7.5,104.967v5.685H21.8Z" transform="translate(-7.5 -97.084)" fill="#0593fc"/>
        <path id="Trazado_1223406" data-name="Trazado 1223406" d="M369.154,103.146h-16.63l3.835,3.835a1.086,1.086,0,0,1,.32.773v2.9h14.3v-5.685A1.821,1.821,0,0,0,369.154,103.146Z" transform="translate(-310.636 -97.084)" fill="#0593fc"/>
        <path id="Trazado_1223407" data-name="Trazado 1223407" d="M471.489,103.146H469v7.506h4.31v-5.685A1.821,1.821,0,0,0,471.489,103.146Z" transform="translate(-412.972 -97.084)" fill="#0182fc"/>
        <path id="Trazado_1223408" data-name="Trazado 1223408" d="M153.23,96.555a5.415,5.415,0,0,1-5.409-5.409V84.673a5.415,5.415,0,0,1,5.409-5.409h3.01V63.883a1.214,1.214,0,0,0-.356-.858l-9.456-9.456a1.214,1.214,0,0,0-.858-.356H125.464a1.214,1.214,0,0,0-1.214,1.214V95.462a1.214,1.214,0,0,0,1.214,1.214H153.23l.023-.121Z" transform="translate(-110.076 -53.213)" fill="#fff0ad"/>
        <g id="Grupo_1233979" data-name="Grupo 1233979" transform="translate(14.174 0.11)">
          <path id="Trazado_1223409" data-name="Trazado 1223409" d="M358.6,126.7h3.01V111.323a1.214,1.214,0,0,0-.356-.858L358,107.208v19.531A5.436,5.436,0,0,1,358.6,126.7Z" transform="translate(-329.622 -100.763)" fill="#ffe177"/>
          <path id="Trazado_1223410" data-name="Trazado 1223410" d="M148.116,383H124.25v2.211a1.214,1.214,0,0,0,1.214,1.214h26.969c-.026-.022-.05-.046-.076-.069A5.536,5.536,0,0,1,148.116,383Z" transform="translate(-124.25 -343.073)" fill="#ffe177"/>
          <path id="Trazado_1223411" data-name="Trazado 1223411" d="M313.816,63.824l-9.456-9.456a1.212,1.212,0,0,0-.356-.245v8.843a1.214,1.214,0,0,0,1.214,1.214h8.843A1.207,1.207,0,0,0,313.816,63.824Z" transform="translate(-282.181 -54.123)" fill="#ffe177"/>
        </g>
        <path id="Trazado_1223412" data-name="Trazado 1223412" d="M358,110.82h3.5a1.211,1.211,0,0,0-.245-.356L358,107.208Z" transform="translate(-315.448 -100.653)" fill="#ffd15b"/>
        <path id="Trazado_1223413" data-name="Trazado 1223413" d="M49.492,206.312H45.607A.607.607,0,0,1,45,205.7V201.82a.607.607,0,0,1,.607-.607h3.885a.607.607,0,0,1,.607.607V205.7A.607.607,0,0,1,49.492,206.312Z" transform="translate(-40.447 -183.245)" fill="#fff"/>
        <path id="Trazado_1223414" data-name="Trazado 1223414" d="M49.492,286.312H45.607A.607.607,0,0,1,45,285.7V281.82a.607.607,0,0,1,.607-.607h3.885a.607.607,0,0,1,.607.607V285.7A.607.607,0,0,1,49.492,286.312Z" transform="translate(-40.447 -253.533)" fill="#fff"/>
        <path id="Trazado_1223415" data-name="Trazado 1223415" d="M49.492,366.312H45.607A.607.607,0,0,1,45,365.7V361.82a.607.607,0,0,1,.607-.607h3.885a.607.607,0,0,1,.607.607V365.7A.607.607,0,0,1,49.492,366.312Z" transform="translate(-40.447 -323.82)" fill="#fff"/>
        <g id="Grupo_1233981" data-name="Grupo 1233981" transform="translate(37.624 25.93)">
          <path id="Trazado_1223416" data-name="Trazado 1223416" d="M330.244,284.329h-7.308a5.53,5.53,0,0,1-5.53-5.53v-6.473a5.53,5.53,0,0,1,5.53-5.53h7.308a5.53,5.53,0,0,1,5.53,5.53V278.8A5.53,5.53,0,0,1,330.244,284.329Z" transform="translate(-317.406 -266.796)" fill="#7a6d79"/>
          <g id="Grupo_1233980" data-name="Grupo 1233980" transform="translate(0.415 0.359)">
            <path id="Trazado_1223417" data-name="Trazado 1223417" d="M335.208,269.755v11.32a2.428,2.428,0,0,1-2.428,2.428H320.824a5.531,5.531,0,0,0,5.115,3.425h7.308a5.53,5.53,0,0,0,5.53-5.53v-6.473A5.531,5.531,0,0,0,335.208,269.755Z" transform="translate(-320.824 -269.755)" fill="#685e68"/>
          </g>
          <path id="Trazado_1223418" data-name="Trazado 1223418" d="M351.79,306.369v-3.528a1.659,1.659,0,0,1,1.659-1.659h6.7a1.659,1.659,0,0,1,1.659,1.659v3.528a1.659,1.659,0,0,1-1.659,1.659h-6.7A1.659,1.659,0,0,1,351.79,306.369Z" transform="translate(-347.616 -297.007)" fill="#00f2a6"/>
          <path id="Trazado_1223419" data-name="Trazado 1223419" d="M360.15,301.182h-1.013v2.494a1.659,1.659,0,0,1-1.659,1.659H351.79v1.034a1.659,1.659,0,0,0,1.659,1.659h6.7a1.659,1.659,0,0,0,1.659-1.659v-3.528A1.659,1.659,0,0,0,360.15,301.182Z" transform="translate(-347.616 -297.007)" fill="#05e39c"/>
        </g>
      </g>
      <g id="Grupo_1233983" data-name="Grupo 1233983" transform="translate(0 45.712)">
        <path id="Trazado_1223420" data-name="Trazado 1223420" d="M467.541,128.381a.911.911,0,0,0,0-1.821h-.121a.911.911,0,1,0,0,1.821Z" transform="translate(-409.873 -116.745)"/>
        <path id="Trazado_1223421" data-name="Trazado 1223421" d="M441.442,127.471a.91.91,0,0,0-.911-.911h-.121a.911.911,0,0,0,0,1.821h.121A.91.91,0,0,0,441.442,127.471Z" transform="translate(-386.143 -116.745)"/>
        <path id="Trazado_1223422" data-name="Trazado 1223422" d="M413.4,126.56a.911.911,0,1,0,0,1.821h.121a.911.911,0,0,0,0-1.821Z" transform="translate(-362.413 -116.745)"/>
        <path id="Trazado_1223423" data-name="Trazado 1223423" d="M168.886,310.087h13.509a.911.911,0,1,0,0-1.821H168.886a.911.911,0,1,0,0,1.821Z" transform="translate(-147.582 -276.391)"/>
        <path id="Trazado_1223424" data-name="Trazado 1223424" d="M168.886,347.678h1a.911.911,0,1,0,0-1.821h-1a.911.911,0,1,0,0,1.821Z" transform="translate(-147.582 -309.418)"/>
        <path id="Trazado_1223425" data-name="Trazado 1223425" d="M202.886,345.857a.911.911,0,1,0,0,1.821h1a.911.911,0,1,0,0-1.821Z" transform="translate(-177.454 -309.418)"/>
        <path id="Trazado_1223426" data-name="Trazado 1223426" d="M242.139,345.857h-5.254a.911.911,0,1,0,0,1.821h5.254a.911.911,0,0,0,0-1.821Z" transform="translate(-207.327 -309.418)"/>
        <path id="Trazado_1223427" data-name="Trazado 1223427" d="M310.8,202.489h-2.643a.911.911,0,0,0,0,1.821H310.8a.911.911,0,0,0,0-1.821Z" transform="translate(-269.948 -183.456)"/>
        <path id="Trazado_1223428" data-name="Trazado 1223428" d="M168.886,204.31h13.752a.911.911,0,1,0,0-1.821H168.886a.911.911,0,1,0,0,1.821Z" transform="translate(-147.582 -183.456)"/>
        <path id="Trazado_1223429" data-name="Trazado 1223429" d="M168.886,166.718h19.552a.911.911,0,0,0,0-1.821H168.886a.911.911,0,0,0,0,1.821Z" transform="translate(-147.582 -150.427)"/>
        <path id="Trazado_1223430" data-name="Trazado 1223430" d="M168.886,129.126h11.07a.911.911,0,1,0,0-1.821h-11.07a.911.911,0,1,0,0,1.821Z" transform="translate(-147.582 -117.399)"/>
        <path id="Trazado_1223431" data-name="Trazado 1223431" d="M168.886,91.534h11.07a.911.911,0,1,0,0-1.821h-11.07a.911.911,0,1,0,0,1.821Z" transform="translate(-147.582 -84.371)"/>
        <path id="Trazado_1223432" data-name="Trazado 1223432" d="M168.886,272.5h13.509a.911.911,0,1,0,0-1.821H168.886a.911.911,0,1,0,0,1.821Z" transform="translate(-147.582 -243.363)"/>
        <path id="Trazado_1223433" data-name="Trazado 1223433" d="M44.42,195.231a1.519,1.519,0,0,0-1.518-1.518H39.018a1.519,1.519,0,0,0-1.518,1.518v3.885a1.519,1.519,0,0,0,1.518,1.518H42.9a1.519,1.519,0,0,0,1.518-1.518ZM42.6,198.812H39.321v-3.278H42.6Z" transform="translate(-32.947 -175.745)"/>
        <path id="Trazado_1223434" data-name="Trazado 1223434" d="M44.42,275.231a1.519,1.519,0,0,0-1.518-1.518H39.018a1.519,1.519,0,0,0-1.518,1.518v3.885a1.519,1.519,0,0,0,1.518,1.518H42.9a1.519,1.519,0,0,0,1.518-1.518ZM42.6,278.812H39.321v-3.278H42.6Z" transform="translate(-32.947 -246.033)"/>
        <path id="Trazado_1223435" data-name="Trazado 1223435" d="M42.9,353.713H39.018a1.519,1.519,0,0,0-1.518,1.518v3.885a1.519,1.519,0,0,0,1.518,1.518H42.9a1.519,1.519,0,0,0,1.518-1.518v-3.885A1.519,1.519,0,0,0,42.9,353.713Zm-.3,5.1H39.321v-3.278H42.6Z" transform="translate(-32.947 -316.32)"/>
        <path id="Trazado_1223436" data-name="Trazado 1223436" d="M59.428,51.774H43.347l-5.44-5.44a2.111,2.111,0,0,0-1.5-.622H16.3a2.127,2.127,0,0,0-2.125,2.125v3.938H2.732A2.735,2.735,0,0,0,0,54.506V94.04a2.735,2.735,0,0,0,2.732,2.732h42.8a.911.911,0,1,0,0-1.821H2.732a.911.911,0,0,1-.911-.911V61.1H14.174V74.884a.911.911,0,1,0,1.821,0V47.837a.3.3,0,0,1,.3-.3H36v8.042A2.127,2.127,0,0,0,38.122,57.7h8.043V71.642h-1.3V70.418a.911.911,0,1,0-1.821,0v1.306a6.45,6.45,0,0,0-5.42,6.359v6.473a6.42,6.42,0,0,0,1.959,4.619H16.3a.3.3,0,0,1-.3-.3V79.133a.911.911,0,1,0-1.821,0v9.738A2.127,2.127,0,0,0,16.3,91H51.372a6.448,6.448,0,0,0,6.441-6.441V78.083a6.45,6.45,0,0,0-5.42-6.359V70.418a.911.911,0,1,0-1.821,0v1.224H47.985V61.1h3.369a.911.911,0,1,0,0-1.821H47.985V57.293a2.111,2.111,0,0,0-.622-1.5L45.168,53.6H59.428a.911.911,0,0,1,.911.911v4.774H55.6a.911.911,0,1,0,0,1.821h4.735V94.04a.911.911,0,0,1-.911.911H49.776a.911.911,0,0,0,0,1.821h9.652a2.735,2.735,0,0,0,2.732-2.732V54.506A2.735,2.735,0,0,0,59.428,51.774ZM14.174,59.28H1.821V54.506a.911.911,0,0,1,.911-.911H14.174Zm37.2,14.183a4.625,4.625,0,0,1,4.619,4.619v6.473a4.625,4.625,0,0,1-4.619,4.619H44.064a4.625,4.625,0,0,1-4.619-4.619V78.083a4.625,4.625,0,0,1,4.619-4.619ZM38.122,55.879a.3.3,0,0,1-.3-.3V48.821l7.058,7.058Z" transform="translate(0 -45.712)"/>
        <path id="Trazado_1223437" data-name="Trazado 1223437" d="M344.29,296.251v3.528a2.572,2.572,0,0,0,2.57,2.57h6.7a2.572,2.572,0,0,0,2.57-2.57v-3.528a2.572,2.572,0,0,0-2.57-2.57h-6.7A2.572,2.572,0,0,0,344.29,296.251Zm1.821,0a.749.749,0,0,1,.748-.748h6.7a.749.749,0,0,1,.748.748v3.528a.749.749,0,0,1-.748.748h-6.7a.749.749,0,0,1-.748-.748Z" transform="translate(-302.492 -263.577)"/>
        <path id="Trazado_1223438" data-name="Trazado 1223438" d="M373.264,323.254a.91.91,0,0,0,.911-.911V322.2a.911.911,0,1,0-1.821,0v.143A.911.911,0,0,0,373.264,323.254Z" transform="translate(-327.148 -287.834)"/>
        <path id="Trazado_1223439" data-name="Trazado 1223439" d="M399.662,323.254a.91.91,0,0,0,.911-.911V322.2a.911.911,0,1,0-1.821,0v.143A.91.91,0,0,0,399.662,323.254Z" transform="translate(-350.341 -287.834)"/>
      </g>
    </g>
  </g>
</svg>
