<svg xmlns="http://www.w3.org/2000/svg" xmlns:xlink="http://www.w3.org/1999/xlink" width="108" height="108" viewBox="0 0 108 108">
  <defs>
    <filter id="Trazado_904820" x="0" y="0" width="108" height="108" filterUnits="userSpaceOnUse">
      <feOffset dy="3" input="SourceAlpha"/>
      <feGaussianBlur stdDeviation="3" result="blur"/>
      <feFlood flood-opacity="0.161"/>
      <feComposite operator="in" in2="blur"/>
      <feComposite in="SourceGraphic"/>
    </filter>
  </defs>
  <g id="Grupo_1233991" data-name="Grupo 1233991" transform="translate(9 6)">
    <g id="Grupo_1232788" data-name="Grupo 1232788" transform="translate(0 0)">
      <g id="Grupo_1230656" data-name="Grupo 1230656">
        <g id="Grupo_1228731" data-name="Grupo 1228731">
          <g id="Grupo_1227366" data-name="Grupo 1227366">
            <g id="Grupo_1224979" data-name="Grupo 1224979">
              <g id="Grupo_1173585" data-name="Grupo 1173585">
                <g id="Grupo_1173428" data-name="Grupo 1173428">
                  <g id="Grupo_1171958" data-name="Grupo 1171958">
                    <g id="Grupo_1167341" data-name="Grupo 1167341">
                      <g id="Grupo_1166792" data-name="Grupo 1166792">
                        <g transform="matrix(1, 0, 0, 1, -9, -6)" filter="url(#Trazado_904820)">
                          <g id="Trazado_904820-2" data-name="Trazado 904820" transform="translate(9 6)" fill="#fef9e5">
                            <path d="M 44.99999618530273 88.50014495849609 C 39.12687301635742 88.50014495849609 33.43022155761719 87.3502197265625 28.06829643249512 85.08231353759766 C 22.88852119445801 82.89144897460938 18.23629570007324 79.75472259521484 14.24085903167725 75.75926208496094 C 10.24540901184082 71.76380920410156 7.108683586120605 67.111572265625 4.917821407318115 61.93179702758789 C 2.649921178817749 56.56985855102539 1.499996185302734 50.87319564819336 1.499996185302734 45.00007247924805 C 1.499996185302734 39.12693405151367 2.649921178817749 33.4302864074707 4.917821407318115 28.0683479309082 C 7.108683586120605 22.88855934143066 10.24540901184082 18.23633575439453 14.24085903167725 14.24087238311768 C 18.23629570007324 10.24542236328125 22.88852119445801 7.108697414398193 28.06829643249512 4.917834758758545 C 33.43022155761719 2.649922370910645 39.12687301635742 1.499997496604919 44.99999618530273 1.499997496604919 C 50.87311935424805 1.499997496604919 56.56977081298828 2.649922370910645 61.93169784545898 4.917834758758545 C 67.11147308349609 7.108697414398193 71.76369476318359 10.24542236328125 75.75913238525391 14.24087238311768 C 79.75458526611328 18.23633575439453 82.89131164550781 22.88855934143066 85.08216857910156 28.0683479309082 C 87.35007476806641 33.4302864074707 88.5 39.12693405151367 88.5 45.00007247924805 C 88.5 50.87319564819336 87.35007476806641 56.56985855102539 85.08216857910156 61.93179702758789 C 82.89131164550781 67.111572265625 79.75458526611328 71.76380920410156 75.75913238525391 75.75926208496094 C 71.76369476318359 79.75472259521484 67.11147308349609 82.89144897460938 61.93169784545898 85.08231353759766 C 56.56977081298828 87.3502197265625 50.87311935424805 88.50014495849609 44.99999618530273 88.50014495849609 Z" stroke="none"/>
                            <path d="M 44.99999618530273 3 C 39.32870864868164 3 33.82865142822266 4.110061645507812 28.65262603759766 6.299346923828125 C 23.65165710449219 8.414573669433594 19.15968322753906 11.443359375 15.301513671875 15.30152893066406 C 11.44333648681641 19.15971374511719 8.414566040039062 23.65168762207031 6.299339294433594 28.65267181396484 C 4.110054016113281 33.82871627807617 2.999992370605469 39.32877349853516 2.999992370605469 45.00007247924805 C 2.999992370605469 50.67137145996094 4.110054016113281 56.17142868041992 6.299339294433594 61.34747314453125 C 8.414566040039062 66.34845733642578 11.44333648681641 70.84043121337891 15.301513671875 74.69860076904297 C 19.15968322753906 78.55678558349609 23.65165710449219 81.58555603027344 28.65262603759766 83.70079803466797 C 33.82866668701172 85.89008331298828 39.32870864868164 87.00014495849609 44.99999618530273 87.00014495849609 C 50.67128372192383 87.00014495849609 56.17132568359375 85.89008331298828 61.34736633300781 83.70079803466797 C 66.34834289550781 81.58555603027344 70.84030914306641 78.55678558349609 74.69847869873047 74.69860076904297 C 78.55665588378906 70.84043121337891 81.58542633056641 66.34845733642578 83.70065307617188 61.34747314453125 C 85.88993835449219 56.17142868041992 87 50.67137145996094 87 45.00007247924805 C 87 39.32877349853516 85.88993835449219 33.82871627807617 83.70065307617188 28.65267181396484 C 81.58542633056641 23.65168762207031 78.55665588378906 19.15971374511719 74.69847869873047 15.30152893066406 C 70.84030914306641 11.443359375 66.34834289550781 8.414573669433594 61.34736633300781 6.299346923828125 C 56.17134094238281 4.110061645507812 50.67128372192383 3 44.99999618530273 3 M 44.99999618530273 0 C 69.85281372070312 0 90 20.147216796875 90 45.00007247924805 C 90 69.85291290283203 69.85281372070312 90.00014495849609 44.99999618530273 90.00014495849609 C 20.14717864990234 90.00014495849609 -7.62939453125e-06 69.85291290283203 -7.62939453125e-06 45.00007247924805 C -7.62939453125e-06 20.147216796875 20.14717864990234 0 44.99999618530273 0 Z" stroke="none" fill="#866d08"/>
                          </g>
                        </g>
                      </g>
                    </g>
                  </g>
                </g>
              </g>
            </g>
          </g>
        </g>
      </g>
    </g>
    <g id="pentesting" transform="translate(14.705 16.494)">
      <g id="Grupo_1233989" data-name="Grupo 1233989" transform="translate(1.231 0.888)">
        <path id="Trazado_1223440" data-name="Trazado 1223440" d="M68.529,347.721v4.142H10.4v-4.142l32.957-2.1Z" transform="translate(-10.4 -307.393)" fill="#66c6a6"/>
        <path id="Trazado_1223441" data-name="Trazado 1223441" d="M10.4,101.349H68.529v31.01H10.4Z" transform="translate(-10.4 -92.031)" fill="#756e78"/>
        <path id="Trazado_1223442" data-name="Trazado 1223442" d="M469.419,355.688v4.142H465.1a3.882,3.882,0,0,0,1.039-2.537v-1.6l1.565-1.034Z" transform="translate(-411.291 -315.36)" fill="#50b29f"/>
        <path id="Trazado_1223443" data-name="Trazado 1223443" d="M468.423,101.348v31.01h-3.28v-4.165l-.563-2.382.563-2.54v-5.523l-.312-.895.312-1.018v-5.3L464.8,108.4l.345-2.791v-.891a4.918,4.918,0,0,0-1.173-3.373h4.453Z" transform="translate(-410.295 -92.03)" fill="#655f66"/>
        <path id="Trazado_1223444" data-name="Trazado 1223444" d="M179.918,404.926l-3.471.441a11.363,11.363,0,0,0-16.568,0l-3.506-.375,3.537-6.6h16.506Z" transform="translate(-139.099 -353.92)" fill="#cee0ea"/>
        <path id="Trazado_1223445" data-name="Trazado 1223445" d="M148.305,456.531l-2.47.237H116.59a.619.619,0,0,1-.592-.643v-3.092a.619.619,0,0,1,.592-.643h29.87l1.846.237a.619.619,0,0,1,.592.643v2.619A.619.619,0,0,1,148.305,456.531Z" transform="translate(-103.502 -401.529)" fill="#e6edf4"/>
        <path id="Trazado_1223446" data-name="Trazado 1223446" d="M370.547,453.031v3.092a.619.619,0,0,1-.592.643H367.13c.687,0,.743-.664.743-.97v-3.409h2.082A.619.619,0,0,1,370.547,453.031Z" transform="translate(-324.915 -401.528)" fill="#cee0ea"/>
        <path id="Trazado_1223447" data-name="Trazado 1223447" d="M170.28,22.612a11.467,11.467,0,0,0-6.644,20.611.841.841,0,0,1,.329.667v2.37a2.182,2.182,0,0,0,2.183,2.183h1.313l.888-.245.888.245h2.634l.87-.2.905.2.917-.142a2.182,2.182,0,0,0,2.183-2.183l-.067-2.356a.841.841,0,0,1,.329-.667,11.31,11.31,0,0,0,4.6-9.373A11.784,11.784,0,0,0,172.632,22.8a11.364,11.364,0,0,0-1.806-.187h-.546Z" transform="translate(-141.489 -22.612)" fill="#f5f8f9"/>
        <path id="Trazado_1223448" data-name="Trazado 1223448" d="M278.092,44.553a.843.843,0,0,0-.33.667v2.369a2.182,2.182,0,0,1-2.182,2.183h-1.472a2.181,2.181,0,0,0,1.879-2.162V44.747a.843.843,0,0,1,.33-.667A11.464,11.464,0,0,0,273.21,24.12a11.467,11.467,0,0,1,4.882,20.433Z" transform="translate(-242.109 -23.942)" fill="#e6edf4"/>
        <g id="Grupo_1233986" data-name="Grupo 1233986" transform="translate(31.261 11.543)">
          <g id="Grupo_1233985" data-name="Grupo 1233985">
            <path id="Trazado_1223449" data-name="Trazado 1223449" d="M279.61,120.158a.238.238,0,0,1,.276.177,4.048,4.048,0,0,1,.116.966c0,1.846-1.217,3.34-2.718,3.34-1.443.016-2.706-1.512-2.719-3.3a.239.239,0,0,1,.192-.238Z" transform="translate(-274.564 -120.154)" fill="#e6edf4"/>
          </g>
        </g>
        <g id="Grupo_1233988" data-name="Grupo 1233988" transform="translate(21.316 11.543)">
          <g id="Grupo_1233987" data-name="Grupo 1233987">
            <path id="Trazado_1223450" data-name="Trazado 1223450" d="M190.92,120.158a.238.238,0,0,0-.276.177,4.05,4.05,0,0,0-.115.966c0,1.846,1.217,3.34,2.718,3.34,1.443.016,2.706-1.512,2.719-3.3a.239.239,0,0,0-.192-.238Z" transform="translate(-190.528 -120.154)" fill="#e6edf4"/>
          </g>
        </g>
      </g>
      <g id="Grupo_1233990" data-name="Grupo 1233990" transform="translate(0 0)">
        <path id="Trazado_1223451" data-name="Trazado 1223451" d="M58.519,24.191H42.211A12.422,12.422,0,0,0,30.589,15.11H30a12.163,12.163,0,0,0-4.619,1.021.888.888,0,0,0,.711,1.626,10.393,10.393,0,0,1,3.938-.872h.526A10.58,10.58,0,0,1,36.674,35.9,1.739,1.739,0,0,0,36,37.276v2.369a1.3,1.3,0,0,1-1.295,1.3H33.387V38.6a.888.888,0,0,0-1.775,0v2.344H28.978V38.6a.888.888,0,1,0-1.775,0v2.344H25.889a1.3,1.3,0,0,1-1.295-1.3V37.276a1.74,1.74,0,0,0-.682-1.375,10.619,10.619,0,0,1-4.2-8.74,10.507,10.507,0,0,1,3.2-7.265.888.888,0,0,0-1.238-1.272,12.329,12.329,0,0,0-3.3,5.566H2.071A2.073,2.073,0,0,0,0,26.262V34.9a.888.888,0,1,0,1.775,0V26.262a.3.3,0,0,1,.3-.3H18.029q-.069.568-.086,1.146A12.4,12.4,0,0,0,22.82,37.3v2.345a3.074,3.074,0,0,0,3.07,3.071H34.7a3.074,3.074,0,0,0,3.07-3.071V37.3a12.4,12.4,0,0,0,4.876-10.188q-.016-.577-.086-1.146H58.519a.3.3,0,0,1,.3.3V55.438H48.659a.888.888,0,0,0,0,1.775H58.815V59.4a.3.3,0,0,1-.3.3H2.071a.3.3,0,0,1-.3-.3V57.213H44.517a.888.888,0,1,0,0-1.775H1.775V39.045a.888.888,0,0,0-1.775,0V59.4a2.073,2.073,0,0,0,2.071,2.071H20.529l-2.6,4.852H14.32A1.481,1.481,0,0,0,12.841,67.8v2.845a1.481,1.481,0,0,0,1.479,1.479H24a.888.888,0,0,0,0-1.775H14.616V68.1H45.7v2.253H28.14a.888.888,0,0,0,0,1.775H46a1.481,1.481,0,0,0,1.479-1.479V67.8A1.481,1.481,0,0,0,46,66.32H42.661l-2.6-4.852H58.519A2.073,2.073,0,0,0,60.59,59.4V26.262a2.073,2.073,0,0,0-2.071-2.071ZM24.4,66.32a10.505,10.505,0,0,1,11.789,0Zm16.246,0H38.954a12.252,12.252,0,0,0-17.319,0H19.943l2.6-4.852h15.5Z" transform="translate(0 -15.11)"/>
        <path id="Trazado_1223452" data-name="Trazado 1223452" d="M96.894,205.085V207a2.507,2.507,0,0,0,5.015,0v-1.913a2.507,2.507,0,0,0-5.015,0Zm3.24,0V207a.732.732,0,1,1-1.465,0v-1.913a.732.732,0,0,1,1.465,0Z" transform="translate(-85.428 -180.393)"/>
        <path id="Trazado_1223453" data-name="Trazado 1223453" d="M38.116,207a2.507,2.507,0,0,0,5.015,0v-1.913a2.507,2.507,0,0,0-5.015,0Zm1.775-1.913a.732.732,0,0,1,1.465,0V207a.732.732,0,0,1-1.465,0Z" transform="translate(-33.605 -180.393)"/>
        <path id="Trazado_1223454" data-name="Trazado 1223454" d="M39.891,135.684v-4.922a.888.888,0,1,0-1.775,0v4.922a.888.888,0,1,0,1.775,0Z" transform="translate(-33.605 -116.293)"/>
        <path id="Trazado_1223455" data-name="Trazado 1223455" d="M70.551,129.874a2.438,2.438,0,0,0-2.435,2.435v1.827a2.435,2.435,0,1,0,4.87,0v-1.827A2.438,2.438,0,0,0,70.551,129.874Zm.66,4.262a.66.66,0,1,1-1.32,0v-1.827a.66.66,0,1,1,1.32,0Z" transform="translate(-60.055 -116.293)"/>
        <path id="Trazado_1223456" data-name="Trazado 1223456" d="M126.045,135.684v-4.922a.888.888,0,1,0-1.775,0v4.922a.888.888,0,1,0,1.775,0Z" transform="translate(-109.564 -116.293)"/>
        <path id="Trazado_1223457" data-name="Trazado 1223457" d="M38.116,284.91a.888.888,0,0,0,1.775,0v-4.922a.888.888,0,1,0-1.775,0Z" transform="translate(-33.605 -247.859)"/>
        <path id="Trazado_1223458" data-name="Trazado 1223458" d="M69.551,279.1a2.438,2.438,0,0,0-2.435,2.435v1.827a2.435,2.435,0,1,0,4.87,0v-1.827A2.438,2.438,0,0,0,69.551,279.1Zm.66,4.262a.66.66,0,1,1-1.32,0v-1.827a.66.66,0,0,1,1.32,0Z" transform="translate(-59.173 -247.859)"/>
        <path id="Trazado_1223459" data-name="Trazado 1223459" d="M156.139,283.362v-1.827a2.435,2.435,0,0,0-4.87,0v1.827a2.435,2.435,0,1,0,4.87,0Zm-3.095,0v-1.827a.66.66,0,0,1,1.32,0v1.827a.66.66,0,1,1-1.32,0Z" transform="translate(-133.368 -247.859)"/>
        <path id="Trazado_1223460" data-name="Trazado 1223460" d="M122.27,279.988v4.922a.888.888,0,0,0,1.775,0v-4.922a.888.888,0,1,0-1.775,0Z" transform="translate(-107.801 -247.859)"/>
        <path id="Trazado_1223461" data-name="Trazado 1223461" d="M208.2,284.91v-4.922a.888.888,0,1,0-1.775,0v4.922a.888.888,0,0,0,1.775,0Z" transform="translate(-181.995 -247.859)"/>
        <path id="Trazado_1223462" data-name="Trazado 1223462" d="M240.293,283.362v-1.827a2.435,2.435,0,0,0-4.87,0v1.827a2.435,2.435,0,1,0,4.87,0Zm-3.1,0v-1.827a.66.66,0,0,1,1.32,0v1.827a.66.66,0,1,1-1.32,0Z" transform="translate(-207.563 -247.859)"/>
        <path id="Trazado_1223463" data-name="Trazado 1223463" d="M324.446,283.362v-1.827a2.435,2.435,0,0,0-4.87,0v1.827a2.435,2.435,0,1,0,4.87,0Zm-3.095,0v-1.827a.66.66,0,0,1,1.32,0v1.827a.66.66,0,1,1-1.32,0Z" transform="translate(-281.757 -247.859)"/>
        <path id="Trazado_1223464" data-name="Trazado 1223464" d="M292.352,284.91v-4.922a.888.888,0,1,0-1.775,0v4.922a.888.888,0,1,0,1.775,0Z" transform="translate(-256.19 -247.859)"/>
        <path id="Trazado_1223465" data-name="Trazado 1223465" d="M458.884,279.988v4.922a.888.888,0,1,0,1.775,0v-4.922a.888.888,0,1,0-1.775,0Z" transform="translate(-404.58 -247.859)"/>
        <path id="Trazado_1223466" data-name="Trazado 1223466" d="M403.73,281.535v1.827a2.435,2.435,0,1,0,4.87,0v-1.827a2.435,2.435,0,0,0-4.87,0Zm3.1,0v1.827a.66.66,0,1,1-1.32,0v-1.827a.66.66,0,0,1,1.32,0Z" transform="translate(-355.953 -247.859)"/>
        <path id="Trazado_1223467" data-name="Trazado 1223467" d="M374.73,279.988v4.922a.888.888,0,0,0,1.775,0v-4.922a.888.888,0,1,0-1.775,0Z" transform="translate(-330.384 -247.859)"/>
        <path id="Trazado_1223468" data-name="Trazado 1223468" d="M372.73,207a2.507,2.507,0,1,0,5.015,0v-1.913a2.507,2.507,0,1,0-5.015,0Zm1.775-1.913a.732.732,0,1,1,1.465,0V207a.732.732,0,1,1-1.465,0Z" transform="translate(-328.621 -180.393)"/>
        <path id="Trazado_1223469" data-name="Trazado 1223469" d="M431.508,205.085V207a2.507,2.507,0,1,0,5.015,0v-1.913a2.507,2.507,0,1,0-5.015,0Zm3.24,0V207a.732.732,0,1,1-1.465,0v-1.913a.732.732,0,1,1,1.465,0Z" transform="translate(-380.443 -180.393)"/>
        <path id="Trazado_1223470" data-name="Trazado 1223470" d="M460.659,135.684v-4.922a.888.888,0,1,0-1.775,0v4.922a.888.888,0,1,0,1.775,0Z" transform="translate(-404.58 -116.293)"/>
        <path id="Trazado_1223471" data-name="Trazado 1223471" d="M405.165,129.874a2.438,2.438,0,0,0-2.435,2.435v1.827a2.435,2.435,0,1,0,4.87,0v-1.827A2.438,2.438,0,0,0,405.165,129.874Zm.66,4.262a.66.66,0,1,1-1.32,0v-1.827a.66.66,0,1,1,1.32,0Z" transform="translate(-355.071 -116.293)"/>
        <path id="Trazado_1223472" data-name="Trazado 1223472" d="M374.505,135.684v-4.922a.888.888,0,1,0-1.775,0v4.922a.888.888,0,1,0,1.775,0Z" transform="translate(-328.621 -116.293)"/>
        <path id="Trazado_1223473" data-name="Trazado 1223473" d="M237.665,162.136l-1.425,1.425a.888.888,0,0,0,1.255,1.255l.8-.8.911.911a.888.888,0,0,0,1.255-1.255l-1.538-1.538A.887.887,0,0,0,237.665,162.136Z" transform="translate(-208.054 -144.508)"/>
        <path id="Trazado_1223474" data-name="Trazado 1223474" d="M270.677,118.634c1.988,0,3.606-1.9,3.606-4.228a4.893,4.893,0,0,0-.216-1.447.887.887,0,0,0-1.017-.609l-5.257,1.021a.888.888,0,0,0-.718.845c0,.063,0,.126,0,.19C267.071,116.738,268.688,118.634,270.677,118.634Zm1.828-4.37q0,.07,0,.142c0,1.33-.838,2.453-1.831,2.453a2.074,2.074,0,0,1-1.781-1.894Z" transform="translate(-235.466 -100.828)"/>
        <path id="Trazado_1223475" data-name="Trazado 1223475" d="M189.518,113.374l-5.257-1.021a.887.887,0,0,0-1.017.609,4.895,4.895,0,0,0-.216,1.447c0,2.331,1.618,4.228,3.606,4.228s3.606-1.9,3.606-4.228c0-.064,0-.127,0-.189a.887.887,0,0,0-.718-.846Zm-2.884,3.487c-.992,0-1.831-1.123-1.831-2.453,0-.047,0-.095,0-.142l3.608.7A2.074,2.074,0,0,1,186.634,116.862Z" transform="translate(-161.368 -100.831)"/>
      </g>
    </g>
  </g>
</svg>
