<svg id="Grupo_1234264" data-name="Grupo 1234264" xmlns="http://www.w3.org/2000/svg" xmlns:xlink="http://www.w3.org/1999/xlink" width="400" height="294" viewBox="0 0 400 294">
  <defs>
    <clipPath id="clip-path">
      <rect id="Rect치ngulo_423563" data-name="Rect치ngulo 423563" width="400" height="294" fill="#fff" stroke="#707070" stroke-width="1"/>
    </clipPath>
  </defs>
  <rect id="Rect치ngulo_423564" data-name="Rect치ngulo 423564" width="306" height="221" rx="11" transform="translate(94 51)" fill="#e5fdfa"/>
  <g id="Enmascarar_grupo_1208526" data-name="Enmascarar grupo 1208526" clip-path="url(#clip-path)">
    <g id="_283228438_0f75e49c-22de-43a3-bb96-ae7c6ac07bf2" data-name="283228438_0f75e49c-22de-43a3-bb96-ae7c6ac07bf2" transform="translate(5.526 0.2)">
      <g id="Grupo_1234019" data-name="Grupo 1234019" transform="translate(327.051 176.552)">
        <g id="Grupo_1233994" data-name="Grupo 1233994" transform="translate(14.92 55.86)">
          <g id="Grupo_1233993" data-name="Grupo 1233993">
            <path id="Trazado_1223477" data-name="Trazado 1223477" d="M255.9,751.958a.348.348,0,0,0,.05,0,.377.377,0,0,0,.323-.423,21.526,21.526,0,0,1-.006-5.761,26.63,26.63,0,0,0,.319-5.779.371.371,0,0,0-.4-.356.377.377,0,0,0-.356.4,26.439,26.439,0,0,1-.3,5.576,21.825,21.825,0,0,0-.006,6.025A.378.378,0,0,0,255.9,751.958Z" transform="translate(-255.302 -739.634)" fill="#323536"/>
          </g>
        </g>
        <g id="Grupo_1233995" data-name="Grupo 1233995" transform="translate(7.081 0.205)">
          <path id="Trazado_1223478" data-name="Trazado 1223478" d="M224.792,633.067a20.818,20.818,0,0,0,2.685-9.185c.35-5.548,1.05-7.429,3.852-9.592s4.319-3.668,4.319-7.994,3.268-5.925,2.918-8.37.934-12.257-1.167-12.382-4.669-1-8.093,3.636a35.887,35.887,0,0,1-2.568-5.58c-.623-2.132-2.49-7.774-6.614-6.332s-4.422,4.263-2.795,7.837a12,12,0,0,1,0,8.772c-.473.882-.589,3.2-.92,4.394a31.657,31.657,0,0,0,1.925,16.489C221.446,622.221,224.792,633.067,224.792,633.067Z" transform="translate(-216.046 -577.036)" fill="#159d9b"/>
        </g>
        <g id="Grupo_1233997" data-name="Grupo 1233997" transform="translate(6.706)">
          <g id="Grupo_1233996" data-name="Grupo 1233996">
            <path id="Trazado_1223479" data-name="Trazado 1223479" d="M224.077,633.222a.377.377,0,0,0,.317-.173,21.008,21.008,0,0,0,2.744-9.365c.348-5.519,1.041-7.26,3.706-9.318,2.778-2.145,4.465-3.774,4.465-8.292a8.84,8.84,0,0,1,1.742-5.025,5.1,5.1,0,0,0,1.172-3.4,30.4,30.4,0,0,1,0-3.854c.172-5.119.164-8.75-1.518-8.851-.231-.014-.468-.037-.71-.061-1.947-.189-4.352-.424-7.353,3.384a31.817,31.817,0,0,1-2.258-5c-1-3.408-2.342-5.569-4-6.424a3.8,3.8,0,0,0-3.1-.158,5.68,5.68,0,0,0-3.626,2.906c-.608,1.422-.407,3.2.613,5.442a11.654,11.654,0,0,1,.011,8.438,9.845,9.845,0,0,0-.629,2.7,16.487,16.487,0,0,1-.322,1.769c-.445,1.6-1.069,9.522,1.941,16.735,3.07,7.358,6.413,18.165,6.446,18.273a.376.376,0,0,0,.309.262A.342.342,0,0,0,224.077,633.222Zm10.542-47.67c.45,0,.882.042,1.3.083.252.025.5.048.739.063,1.08.065.9,5.275.81,8.074a29.724,29.724,0,0,0,.007,3.986c.14.974-.392,1.82-1.065,2.891a9.6,9.6,0,0,0-1.858,5.425c0,4.266-1.507,5.638-4.172,7.7-2.851,2.2-3.636,4.138-4,9.867a21.546,21.546,0,0,1-2.212,8.259c-.851-2.695-3.624-11.309-6.208-17.5a31.42,31.42,0,0,1-1.91-16.243,16.836,16.836,0,0,0,.341-1.86,9.878,9.878,0,0,1,.548-2.457,12.343,12.343,0,0,0,.011-9.106c-.927-2.036-1.125-3.617-.606-4.834a4.915,4.915,0,0,1,3.182-2.491,3.033,3.033,0,0,1,2.5.117c1.47.756,2.69,2.763,3.625,5.965a35.693,35.693,0,0,0,2.6,5.659.377.377,0,0,0,.3.191.369.369,0,0,0,.326-.152C231.172,586.095,233.006,585.552,234.62,585.552Z" transform="translate(-214.956 -576.437)" fill="#323536"/>
          </g>
        </g>
        <g id="Grupo_1233998" data-name="Grupo 1233998" transform="translate(0.401 17.235)">
          <path id="Trazado_1223480" data-name="Trazado 1223480" d="M270.571,649.852c-.281-1.545-1.12-5.483-2.728-7.988s-1.064-2.411-2.09-3.918-1.787-6.6-4.261-9.092-4-2.377-5.541-1.488-.425,2.171-.273,4.66,0,4.648.044,7.564,2.152,5.277,3.58,7.09,4.77,4.275,7.414,8.992a42.678,42.678,0,0,1,3.855,10.289,37.439,37.439,0,0,0,.451-5.38A92.815,92.815,0,0,0,270.571,649.852Z" transform="translate(-255.144 -626.789)" fill="#159d9b"/>
        </g>
        <g id="Grupo_1233999" data-name="Grupo 1233999" transform="translate(2.871 62.452)">
          <path id="Trazado_1223481" data-name="Trazado 1223481" d="M244.559,758.893H218.647l2.685,30.815h20.543Z" transform="translate(-218.647 -758.893)" fill="#fda202"/>
        </g>
        <g id="Grupo_1234004" data-name="Grupo 1234004" transform="translate(2.495 62.075)">
          <g id="Grupo_1234001" data-name="Grupo 1234001" transform="translate(0.377 0.377)">
            <g id="Grupo_1234000" data-name="Grupo 1234000">
              <path id="Trazado_1223482" data-name="Trazado 1223482" d="M231.6,758.893h12.956l-2.685,30.815H221.332l-2.685-30.815Z" transform="translate(-218.647 -758.893)" fill="#fda202"/>
            </g>
          </g>
          <g id="Grupo_1234003" data-name="Grupo 1234003">
            <g id="Grupo_1234002" data-name="Grupo 1234002">
              <path id="Trazado_1223483" data-name="Trazado 1223483" d="M220.608,789.36h20.543a.377.377,0,0,0,.375-.344l2.685-30.815a.377.377,0,0,0-.375-.409H217.923a.377.377,0,0,0-.375.409l2.685,30.815A.377.377,0,0,0,220.608,789.36Zm20.2-.753H220.953l-2.619-30.061h25.091Z" transform="translate(-217.547 -757.793)" fill="#323536"/>
            </g>
          </g>
        </g>
        <g id="Grupo_1234006" data-name="Grupo 1234006" transform="translate(0 16.84)">
          <g id="Grupo_1234005" data-name="Grupo 1234005">
            <path id="Trazado_1223484" data-name="Trazado 1223484" d="M269.686,665.58h.008a.376.376,0,0,0,.366-.329c.7-5.457.929-13.829-.712-19.463a15.925,15.925,0,0,0-2.165-5.031,32.805,32.805,0,0,1-3.445-7.469c-1.587-4.371-3.509-6.9-5.712-7.511a3.91,3.91,0,0,0-3.51.764c-.891.721-.7,1.616-.436,2.853a16.829,16.829,0,0,1,.446,4.449c-.016.477-.043.941-.07,1.4-.227,3.9-.423,7.265,6.1,13.436,6.98,6.6,8.741,16.493,8.758,16.592A.377.377,0,0,0,269.686,665.58ZM257,626.39a3.049,3.049,0,0,1,.819.114c1.344.373,3.339,1.9,5.206,7.042a33.44,33.44,0,0,0,3.517,7.615A15.31,15.31,0,0,1,268.625,646c1.406,4.829,1.406,11.74.923,17-.931-3.359-3.308-9.986-8.474-14.872-6.27-5.93-6.092-8.982-5.867-12.846.027-.461.054-.93.071-1.413a17.518,17.518,0,0,0-.462-4.632c-.272-1.276-.334-1.7.173-2.11A3.276,3.276,0,0,1,257,626.39Z" transform="translate(-253.859 -625.636)" fill="#323536"/>
          </g>
        </g>
        <g id="Grupo_1234008" data-name="Grupo 1234008" transform="translate(17.726 12.145)">
          <g id="Grupo_1234007" data-name="Grupo 1234007">
            <path id="Trazado_1223485" data-name="Trazado 1223485" d="M241.239,623.032a.376.376,0,0,0,.3-.153c4.262-5.794,2.365-10.529,2.282-10.728a.376.376,0,0,0-.7.289h0c.018.045,1.8,4.559-2.193,9.993a.377.377,0,0,0,.3.6Z" transform="translate(-240.863 -611.919)" fill="#323536"/>
          </g>
        </g>
        <g id="Grupo_1234010" data-name="Grupo 1234010" transform="translate(6.179 65.696)">
          <g id="Grupo_1234009" data-name="Grupo 1234009">
            <path id="Trazado_1223486" data-name="Trazado 1223486" d="M280.641,779.614l.042,0a.377.377,0,0,0,.332-.416c-.65-5.8-1.156-10.489-1.156-10.489a.376.376,0,0,0-.749.081s.506,4.692,1.157,10.492A.376.376,0,0,0,280.641,779.614Z" transform="translate(-279.109 -768.37)" fill="#fff"/>
          </g>
        </g>
        <g id="Grupo_1234012" data-name="Grupo 1234012" transform="translate(7.913 79.048)">
          <g id="Grupo_1234011" data-name="Grupo 1234011">
            <path id="Trazado_1223487" data-name="Trazado 1223487" d="M276.917,812.263a.388.388,0,0,0,.048,0,.376.376,0,0,0,.326-.421c0-.024-.314-2.46-.456-4.115a.377.377,0,0,0-.75.064c.144,1.671.456,4.121.46,4.146A.377.377,0,0,0,276.917,812.263Z" transform="translate(-276.083 -807.379)" fill="#fff"/>
          </g>
        </g>
        <g id="Grupo_1234014" data-name="Grupo 1234014" transform="translate(2.872 22.271)">
          <g id="Grupo_1234013" data-name="Grupo 1234013">
            <path id="Trazado_1223488" data-name="Trazado 1223488" d="M289.967,650.555a.377.377,0,0,0,.06-.748h0c.008,0-.924-.316-.984-3.4-.069-3.493,0-4.489,0-4.5a.376.376,0,0,0-.751-.054c0,.04-.071,1.021,0,4.568.073,3.7,1.36,4.091,1.618,4.133A.4.4,0,0,0,289.967,650.555Z" transform="translate(-288.258 -641.501)" fill="#fff"/>
          </g>
        </g>
        <g id="Grupo_1234016" data-name="Grupo 1234016" transform="translate(10.31 6.329)">
          <g id="Grupo_1234015" data-name="Grupo 1234015">
            <path id="Trazado_1223489" data-name="Trazado 1223489" d="M268.268,601.5a.376.376,0,0,0,.376-.361,10.242,10.242,0,0,0-1.367-6.049.377.377,0,0,0-.616.434h0a9.711,9.711,0,0,1,1.23,5.585.376.376,0,0,0,.361.391Z" transform="translate(-266.593 -594.927)" fill="#fff"/>
          </g>
        </g>
        <g id="Grupo_1234018" data-name="Grupo 1234018" transform="translate(26.236 11.56)">
          <g id="Grupo_1234017" data-name="Grupo 1234017">
            <path id="Trazado_1223490" data-name="Trazado 1223490" d="M223.809,620.116h.025a.376.376,0,0,0,.351-.4,39.445,39.445,0,0,1,0-5.151,21.256,21.256,0,0,0,0-4.018.377.377,0,0,0-.749.08,20.9,20.9,0,0,1,0,3.858,39.331,39.331,0,0,0,0,5.28A.377.377,0,0,0,223.809,620.116Z" transform="translate(-223.338 -610.209)" fill="#fff"/>
          </g>
        </g>
      </g>
      <g id="Grupo_1234040" data-name="Grupo 1234040" transform="translate(0 57.084)">
        <g id="Grupo_1234020" data-name="Grupo 1234020" transform="translate(0)">
          <path id="Trazado_1223491" data-name="Trazado 1223491" d="M629.927,352.49a99.791,99.791,0,0,0,5.333,20.9q.484,1.3,1,2.579,1.642,4.03,3.61,7.845c12.406,24.116,34.1,41.6,58.926,50.755,29.314,10.818,62.982,10.03,90.851-5.138a99.967,99.967,0,0,0,37.708-36.315,91.021,91.021,0,0,0,6.121-10.507,102.991,102.991,0,0,0,9.178-28.5,111.691,111.691,0,0,0,1.5-13.891,113.784,113.784,0,0,0-.315-15.232,110.038,110.038,0,0,0-5.405-25.9,95.846,95.846,0,0,0-13.321-25.851c-.1-.127-.183-.263-.279-.394-.012,0-.012-.008-.012-.008a109.537,109.537,0,0,0-19.813-21.716q-1.66-1.379-3.363-2.679c-45.23-34.536-110.071-24.5-146.079,15.236-.239.263-.474.525-.708.788a101.594,101.594,0,0,0-20.247,34.651,103.162,103.162,0,0,0-3.447,12.6,109.678,109.678,0,0,0-2.086,15.742q-.221,3.648-.211,7.407A109.444,109.444,0,0,0,629.927,352.49Z" transform="translate(-628.846 -227.407)" fill="#e5fdfa"/>
        </g>
        <g id="Grupo_1234021" data-name="Grupo 1234021" transform="translate(47.999 167.482)">
          <path id="Trazado_1223492" data-name="Trazado 1223492" d="M1090.6,737.467c1.544-.244-.96-2.885-1.409-7.685-.407-4.362-6.981-5.766-8.2-9.222-.64-1.816-1.9-3.62-3.2-3.843-.961-.164-.9,4.1,0,5.636s3.714,5.123,4.739,8.07S1088.169,737.851,1090.6,737.467Z" transform="translate(-1077.097 -716.713)" fill="#b6efea"/>
        </g>
        <g id="Grupo_1234022" data-name="Grupo 1234022" transform="translate(7.125 110.126)">
          <path id="Trazado_1223493" data-name="Trazado 1223493" d="M1233.407,555.527c.7-.512.064-4.419.512-5.828s-1.857-.064-1.729,3.3S1233.407,555.527,1233.407,555.527Z" transform="translate(-1232.185 -549.145)" fill="#b6efea"/>
        </g>
        <g id="Grupo_1234023" data-name="Grupo 1234023" transform="translate(80.777 82.112)">
          <path id="Trazado_1223494" data-name="Trazado 1223494" d="M1015.555,469.078c.56-.226-1.153-1.751-1.452-1.751s-2.348-.213-1.75.6A3.912,3.912,0,0,0,1015.555,469.078Z" transform="translate(-1012.244 -467.302)" fill="#b6efea"/>
        </g>
        <g id="Grupo_1234024" data-name="Grupo 1234024" transform="translate(93.348 82.622)">
          <path id="Trazado_1223495" data-name="Trazado 1223495" d="M975.151,470.12c2.9-2.453-1.576-.723-2.434-.919-.48-.179-1.953.141-1.345.4S973.774,470.707,975.151,470.12Z" transform="translate(-971.228 -468.79)" fill="#b6efea"/>
        </g>
        <g id="Grupo_1234025" data-name="Grupo 1234025" transform="translate(120.338 68.68)">
          <path id="Trazado_1223496" data-name="Trazado 1223496" d="M900.584,435.07c2.095.2.181-2.787.854-3.416.235-.256-1.43-.363-1.409-.811s.875-2.07.662-2.455-1.6-.556-1.43.192a6.847,6.847,0,0,1-.3,2.2c0,.256.662,1.238.427,1.836S899.409,435.027,900.584,435.07Z" transform="translate(-898.961 -428.059)" fill="#b6efea"/>
        </g>
        <g id="Grupo_1234026" data-name="Grupo 1234026" transform="translate(196.088 94.639)">
          <path id="Trazado_1223497" data-name="Trazado 1223497" d="M629.787,575.468c-1.793,1.023-.834-5.124,1.5-10.06s-2.526-2.047-2.018-7.36,2.628-4.1,3.528-7.5c.646-2.438,1.916-5.182,4.093-5.632,3.876-.8,2.41-5.059,4.036-6.917,2.308-2.628.515-6.6,2.5-9.8,1.742-2.809,1.219-9.225,3.527-11.722,2.426-2.633-.076-9.094.511-12.58,2.831,24.922-2.56,50.964-16.183,71.069-.074.122-.151.24-.226.361A1.472,1.472,0,0,0,629.787,575.468Z" transform="translate(-628.856 -503.9)" fill="#b6efea"/>
        </g>
        <g id="Grupo_1234027" data-name="Grupo 1234027" transform="translate(128.33 38.673)">
          <path id="Trazado_1223498" data-name="Trazado 1223498" d="M867.487,354.7c.74.578.769-1.58-.256-2.007s.3-1.537-.555-2.092-3.074-3.416-1.964-3.757.128-1.58.427-2.092c1.264-1.638-1.222-4.305-3.117-4.355-1.281.128,1.793,1.794.982,1.964s-2.178-.128-1.068,1.708-.982,3.2-1.366,4.739C858.439,356.112,863.51,352.12,867.487,354.7Z" transform="translate(-860.066 -340.391)" fill="#b6efea"/>
        </g>
        <g id="Grupo_1234028" data-name="Grupo 1234028" transform="translate(134.817 43.301)">
          <path id="Trazado_1223499" data-name="Trazado 1223499" d="M850.532,360.386c.742-.256,1.153-1.537.171-1.75s-1.622-.982-.9-1.537-2.561-1.281-3.031-2.732-3.117.945-2.05,2.116.6,2.2,1.794,2.922S849.294,360.813,850.532,360.386Z" transform="translate(-844.474 -353.913)" fill="#b6efea"/>
        </g>
        <g id="Grupo_1234029" data-name="Grupo 1234029" transform="translate(132.808 24.366)">
          <path id="Trazado_1223500" data-name="Trazado 1223500" d="M853.714,303.956c-.163,1.206,2.262-1.024,2.369-1.857.176-1.363-1.265-2.164-1.185-3.138.054-.658-.929-.419-1.313.606s-2.14.71-2.482.368-2.05-.288-1.895,1.011-.854,2.818-.3,3.01A4.574,4.574,0,0,0,852.4,302.7C853.047,301.817,853.821,303.166,853.714,303.956Z" transform="translate(-848.742 -298.593)" fill="#b6efea"/>
        </g>
        <g id="Grupo_1234033" data-name="Grupo 1234033" transform="translate(139.399 4.97)">
          <g id="Grupo_1234030" data-name="Grupo 1234030">
            <path id="Trazado_1223501" data-name="Trazado 1223501" d="M800.42,242.887c-.5-.24-1.12-.6-1.782-.96a101.94,101.94,0,0,1,12.809,5.056c-4.25-.814-6.18-1.385-6.759-.43-.362.6,3.141,2.215,4.025,2.9,1.153.9,2.7-.066,3.32.088,1.322.328,3.331,2.729,2.729,3.76s-4.416-2.855-4.609-1.713c-.189,1.123.511,3.1-.856,2.737-1.8-.484-3.722-4.807-5.807-5.125-1.79-.272-8.483-5-7.259-6.235,1.052-1.062,6.148,2.4,7.178,2.308S802.039,243.664,800.42,242.887Z" transform="translate(-796.083 -241.927)" fill="#b6efea"/>
          </g>
          <g id="Grupo_1234031" data-name="Grupo 1234031" transform="translate(21.428 10.223)">
            <path id="Trazado_1223502" data-name="Trazado 1223502" d="M716.507,291.835c.544,1.377,3.026,1.7,2.547,3.526s.29,1.822-.036,2.628-1.833.4-1.793-1.314c.019-.812-2.112-1.568-2.112-3.528s-2.271-1.124-2.176-2.561-3.106-.641-3.137-2.745a4.481,4.481,0,0,0-2.872-4.358c-2.745-1.046-5.112-5.455-5.714-5.5s.646-.726,2.141.211-1.561-2.851-3.143-3.353c-.969-.307-1.646-2.329-1.981-2.939s2.218,1.648,3.585,1.771c1.207.108,3.82,3.72,6.51,4.355a19.4,19.4,0,0,1,3.97,1.844c-.234-.222-.879-1.063-1.674-1.889a106.893,106.893,0,0,1,18.442,18.275c-.157.012-.263.112-.305.323-.494,2.427-1.793-2.119-4.805-1.924s2.881,1.949.863,2.311c-2.374.425-3.94-2.331-3.679-3.276.488-1.771-4.355-3.389-2.308-4.7s-1.922-1.8-2.082-.419-.64,1.862-1.729,1.6S716.144,290.916,716.507,291.835Z" transform="translate(-698.199 -271.795)" fill="#b6efea"/>
          </g>
          <g id="Grupo_1234032" data-name="Grupo 1234032" transform="translate(27.471 11.857)">
            <path id="Trazado_1223503" data-name="Trazado 1223503" d="M758.706,276.568q2.08,1.365,4.112,2.85c-.038-.013-.076-.031-.114-.043A19.226,19.226,0,0,1,758.706,276.568Z" transform="translate(-758.706 -276.568)" fill="#b6efea"/>
          </g>
        </g>
        <g id="Grupo_1234034" data-name="Grupo 1234034" transform="translate(117.984 6.157)">
          <path id="Trazado_1223504" data-name="Trazado 1223504" d="M835.7,267.494c1.259.062.3-1.879.853-2.989.383-.768-.92-4.607-3.8-4.953-4.27-.512-8.631-4.125-11.186-6.789-2.007-2.092-6.874-2.348-7.173-4.483-.135-.964-.4-3.091-4.369-2.434-4.639.768-6.578-1.2-8.525-.124-2.007,1.106-6.319,1.085-4.462,3.134s3.992,1.729,4.8,3.779a9.441,9.441,0,0,0,4.868,4.355c7.04.362,6.767,5.468,12.1,4.676,1.8-.256,4.555,1.473,7.309,1.088S832.26,267.323,835.7,267.494Z" transform="translate(-796.582 -245.395)" fill="#b6efea"/>
        </g>
        <g id="Grupo_1234035" data-name="Grupo 1234035" transform="translate(104.956 12.15)">
          <path id="Trazado_1223505" data-name="Trazado 1223505" d="M938.976,266.883c.429-.17,1.366-2.476,1.878-2.9s-.255-1.4-1.489-.972c-1.409.484-4.061-.4-3.848.264s1.921.324,1.494.964-1.324,1.921-.342,1.622,1.291-1.153,1.692-.384S938.75,266.972,938.976,266.883Z" transform="translate(-935.505 -262.903)" fill="#b6efea"/>
        </g>
        <g id="Grupo_1234036" data-name="Grupo 1234036" transform="translate(122.3 1.179)">
          <path id="Trazado_1223506" data-name="Trazado 1223506" d="M869.015,233.3c1.435.195,4.511,2.085,1.889,2.978-.939.3-3.746-1.217-4.611-1.633s-3.906.768-6.02.1-4.035.481-3.266-.96,3.437-.551,4.547-1.217c1-.6,2.626-.128,2.178-.768s-2.466-.32-3.458-.289c-.655.021-.564-.305-.165-.659q3.026.45,6.029,1.075A3.6,3.6,0,0,0,869.015,233.3Z" transform="translate(-856.834 -230.85)" fill="#b6efea"/>
        </g>
        <g id="Grupo_1234039" data-name="Grupo 1234039" transform="translate(1.298 2.415)">
          <g id="Grupo_1234037" data-name="Grupo 1234037" transform="translate(82.287)">
            <path id="Trazado_1223507" data-name="Trazado 1223507" d="M1008.436,234.462a7.766,7.766,0,0,1-2.916.647C1006.488,234.879,1007.464,234.666,1008.436,234.462Z" transform="translate(-1005.52 -234.462)" fill="#b6efea"/>
          </g>
          <g id="Grupo_1234038" data-name="Grupo 1234038" transform="translate(0 1.734)">
            <path id="Trazado_1223508" data-name="Trazado 1223508" d="M827.621,239.529c.363.671-.307.874-1.85,1.593-1.568.74-.3,2.105.726,1.466s2.693-.3,2.947,2-1.452,1.11-1.619,2.991-5.255,2.388-3.418,2.352a3.317,3.317,0,0,1,2.693,1.408c.254.124,3.477-2.693,4.137-1.452.247.464-1.749,1.408-2.388,3.07s-5.161,2.439-4.914,2.9c.522.98,1.865-1.212,5.233-1s4.246-.7,6.257-1.858.3-5.248.638-5.212a4.409,4.409,0,0,1,1.836,4.74c-.769,2.649-9.356,4.006-7.94,4.638,2.787,1.241,5.385,4.515,5.516,3.455s3.361-3.07,1.924-1.023-.385,2.468.225,2.911.066,1.669-.036,2.438,2.533-.61,2.693-.421-.8.675-1.219,1.735,3.266-1.7,4.231-2.664-3.752-.544-4.515-2.018,3.325-2.3,9.029-3.52,10.053,2.5,9.987,3.143,3.97,5.313,5.378,6.148c9.035,2.938,6.566,10.812,1.989,8.13-1.539-1.278-2.178.319-2.178,1.793s-2.693,4.231-4.166,3.462-.319-4.29-2.047-4.936a2.136,2.136,0,0,1-.7-3.455c.769-.639.378-3.97-1.292-3.9s-1.277-1.858-2.178-3.332-3.266.189-2.5.827c3.066,2.855,5.293,8.179-2.62,6.474-3.782-.7-1.285,1.6-.515,1.6s6.4-.893,3.585,1.6-.066,1.728.7,1.793,1.343,4.8,3.012,4.42,4.609,1.473,5.444,1.212a28.857,28.857,0,0,1,3.774-.188c1.6-.131-.443-5.509,1.089-5.7s2.693,3.934,2.918,5.248,4.1,1.089,4.8,1.408,1.248,2.627,2.686,2.918,1.7,2.112,2.5,2.308,1.7,1.328,2.381,1.372,1.11-1.5,1.539-1.364.13,1.836.769,2.475c2.827.472,6.205-3.013,1.2,2.86-1.031,1.154.639,5.85,1.793,6.445s6.271-.936,7.469-1.836,3.245.6,2.4,2.011,1.067,2.794,2.54,6.191.123,2.628-1.154,4.863-3.716.769-5.763,1.793-4.74-.377-5.958-1.728-1.727-3.971-4.8-5.444-3.332-4.355-4.036-4.543-2.366,2.047-3.586,1.023-4.159-2.751-5.509.639-5.951,3.4-6.975,6.467,6.082,1.031,4.994,4.166-7.454-.958-8.136-2.5-.341-4.443.7-4.443,3.992-4.1,5.618-5.553-1.11-5.974-2.475-1.96-6.75,4.014-6.83,6.743c-1.247,6.7-7.534,16.759-5.893,3.419.341-1.539-4.355-2.9-4.355,0s-6.365,5.444-7.578,5.828-6.852-.7-7.178-1.35-1.982.262-1.6,5.385,5.589,5.378,6.358,5.378,2.562,2.047,4.188,1.111,10.2-2.78,12.383-2.562,2.6,1.96,2.134,2.816.254,3.419,2.134,1.5,4.289-.327,5.037-1.836c1.2-2.417,3.745-3.389,4.718-3.23,1.727.3,6.576-.907,4.761-2.105a2.5,2.5,0,0,1-.813-3.462c.341-.515-.551-.813-.551-1.96s1.452-1.481,3.709-.646c2.083.769,3.76,1.43,6.706-.3,5.183-3.034,8.71,2.562,11.526,2.352s4.014-4.486,5.378-1.923,6.547,4.544,8.384,6.308c2.876,3.175.877,7.211,5.763,6.561,4.086.131,4.8,4.167,4.8,5.32s4.754,4.565,4.094,9c-.668,4.507,6.5,4.769,4.115,10.444-2.083,4.936.6,5.015-2.649,8.006s1.887,9.312-3.332,10.524c-6.62,1.539-8.282,6.554-11.788,5.531s-7.084,1.967-9.218,2.047-2.649-2.3-8.281-2.729-1.967,5.291-7.091,5.2-8.369,1.88-5.72,6.234-1.111,7.774-6.489,12.557-3.245,8.195-.428,13.406.058,10.19-4.1,12.208c-6.721,3.266-8.1,12.826-9.733,13.065-6.489.958-9.646-2.882-14.6-2.649-7.861.37-3.07-6.337-10.307-8.9s-3.847-6.867-4.486-7.556c-3.136-3.4-12.3-3.143-11.272-8.906.472-2.656.319-8.449,1.219-9.479s.769-2.432-1.408-8.064-8.71-9.741-13.965-16.527-6.061-17.972-5.081-18.1,2.352,1.706,4.057,2.519,5.552.98,7,2.221,3.839.639,2.946-1.067,1.575-3.927,4.776-5.509,4.355-6.147,5.466-6.576,2.1-6.445,3.549-7.469,1.111-2.475,3.84-6.1,2.177-10.161-.254-4.66-6.619,4.014-7.52,8.884c-2.259,9.876-8.308,5.4-9.856,17.079-.944,5.081-6.293,1.989-7.433-.769-1.452-3.527-6.235-3.607-7.643-6.83-.639-1.452-3.629-1.437-4.311-4.653-.464-2.192-3.034-1.669-2.9-3.694s-.98-5.422-.856-7.28,3.3-2.693,4.58-2.468,2.265-4.979,2.823-3.266c.544,1.662,4.159,6.242,4.958,3.586s2.148-1.887,1.894-.254,2.795-2.352,4.544-4.9c2.4-3.491.544-5.574-.994-3.2s-5.182.893-11.845,3.2-11.207-6.786-12.876-2.178-7.556.515-8.383,7.048-6.532,8.71-7.3,13.834-3.585,5.821-3.012,3.585-.835-5.828-.77-8.514,1.844-4.8.385-9.74c-1.858-6.279,1.408-20.178-1.663-14.538-3.175,6.059-4.661,2.52-6.792,8.424C756.337,280.9,789.193,250.2,827.621,239.529ZM830.1,403.474c.7.261,2.272-3.042,2.431-3.266s-.029-3.81.291-4.326-.573.066-.958,2.308S829.076,403.09,830.1,403.474Zm9.849-95.221c.9,0,1.626-.24,1.626-.537C841.031,306.41,835.658,307.828,839.948,308.253ZM822.665,411.124c-.929,1.633.356.45.356.45.639-.508,1.023-2.845.7-3.97s.232-2.976.116-3.2C821.819,405.986,823.821,408.907,822.665,411.124Zm.428-23.285c-.566.639,1.611,2.729,1.7,3.455a1.631,1.631,0,0,0,2.518,1.023c.958-.573.291-2.533,0-3.026C826.816,388.435,823.661,387.194,823.092,387.84Zm-.267-83.005c.929,1.379,3.919.341,4.232-.167.7-1.169,4.021-2.127,5.763-.639.668.566,3.5,2.518,6.4,2.134,1.009-.138,2.737-2.352,1.408-3.506a5.317,5.317,0,0,1-1.873-4.355c.124-1.531-2.264-3.026-2.519-2.09-.348,1.241-2.177.428-1.836,1.364s-.791.988-1.292,2.722c-.334,1.132-.994-1.713-1.895-1.887s1.263-1.081.624-2.475-2.947-1.989-3.078-1.219-1.321.726-.856,1.5,1.633,1.176,1.132,1.72L825,300.015C823.89,302.321,818.2,301.226,822.825,304.834Zm-21.129,3.89c.7.864,3.266,1.582,3.905.7.726-1.009,3.4-.943,3.136-3.215-.283-2.548-.551-3.622.7-3.7,1.967-.13,3.753-2.9,4.122-3.629.341-.667-.065-1.386,1.2-2.461.523-.443.464-2.039-1.263-2.475-.813-.2-.791-.915-1.11-1.974s-2.526-.828-2.562.319,1.234,1.19,1.285,1.895a4.106,4.106,0,0,1-3.042,4.065c-1.894.639-2.8,3.324-2.823,4.035-.029,1.1-2.721,1.982-2.881,3.521S800.991,307.854,801.7,308.725Z" transform="translate(-749.558 -239.529)" fill="#b6efea"/>
          </g>
        </g>
      </g>
      <g id="Grupo_1234055" data-name="Grupo 1234055" transform="translate(84.234 100.997)">
        <g id="Grupo_1234044" data-name="Grupo 1234044" transform="translate(0 157.278)">
          <g id="Grupo_1234043" data-name="Grupo 1234043">
            <g id="Grupo_1234042" data-name="Grupo 1234042">
              <g id="Grupo_1234041" data-name="Grupo 1234041">
                <path id="Trazado_1223509" data-name="Trazado 1223509" d="M379.328,826.48H591.95c1.326,0,2.4-2.526,2.4-5.642h0c0-3.115-1.076-5.643-2.4-5.643H379.329c-1.326,0-2.4,2.527-2.4,5.643h0C376.929,823.955,378,826.48,379.328,826.48Z" transform="translate(-376.928 -815.196)" fill="#159d9b"/>
              </g>
            </g>
          </g>
        </g>
        <g id="Grupo_1234049" data-name="Grupo 1234049" transform="translate(6.195 0)">
          <g id="Grupo_1234048" data-name="Grupo 1234048">
            <g id="Grupo_1234046" data-name="Grupo 1234046" transform="translate(0)">
              <g id="Grupo_1234045" data-name="Grupo 1234045">
                <path id="Trazado_1223510" data-name="Trazado 1223510" d="M397.914,355.7H597.045a3.236,3.236,0,0,1,2.966,3.452v12.694h-.035a3.508,3.508,0,0,0-3.286-3.47H398.242a3.5,3.5,0,0,0-3.28,3.47c-.008.1-.011.2-.011.294V359.152A3.236,3.236,0,0,1,397.914,355.7Z" transform="translate(-394.951 -355.7)" fill="#159d9b"/>
              </g>
            </g>
            <g id="Grupo_1234047" data-name="Grupo 1234047" transform="translate(0 16.146)">
              <path id="Trazado_1223511" data-name="Trazado 1223511" d="M994.013,402.871v.294c0-.1,0-.2.011-.294Z" transform="translate(-994.013 -402.871)" fill="#c29bf9"/>
            </g>
          </g>
        </g>
        <g id="Grupo_1234051" data-name="Grupo 1234051" transform="translate(6.194 12.675)">
          <g id="Grupo_1234050" data-name="Grupo 1234050">
            <path id="Trazado_1223512" data-name="Trazado 1223512" d="M395.025,396.495V533.571a3.55,3.55,0,0,0,3.29,3.764H596.766a3.553,3.553,0,0,0,3.294-3.764V396.495a3.553,3.553,0,0,0-3.294-3.764H398.315A3.55,3.55,0,0,0,395.025,396.495Z" transform="translate(-395.025 -392.731)" fill="#fff"/>
          </g>
        </g>
        <g id="Grupo_1234054" data-name="Grupo 1234054" transform="translate(5.817 12.299)">
          <g id="Grupo_1234053" data-name="Grupo 1234053">
            <g id="Grupo_1234052" data-name="Grupo 1234052">
              <path id="Trazado_1223513" data-name="Trazado 1223513" d="M397.591,536.987h198.45a3.932,3.932,0,0,0,3.671-4.14V395.771a3.931,3.931,0,0,0-3.671-4.14H397.591a3.93,3.93,0,0,0-3.667,4.14V532.847A3.93,3.93,0,0,0,397.591,536.987Zm198.45-144.6a3.183,3.183,0,0,1,2.918,3.387V532.847a3.183,3.183,0,0,1-2.918,3.387H397.591a3.181,3.181,0,0,1-2.914-3.387V395.771a3.181,3.181,0,0,1,2.914-3.387Z" transform="translate(-393.924 -391.631)" fill="#292e30"/>
            </g>
          </g>
        </g>
      </g>
      <g id="Grupo_1234063" data-name="Grupo 1234063" transform="translate(35.391 153.792)">
        <g id="Grupo_1234056" data-name="Grupo 1234056" transform="translate(20.44)">
          <path id="Trazado_1223514" data-name="Trazado 1223514" d="M586.117,581.068h169.7a2.729,2.729,0,0,0,2.729-2.729V512.672a2.729,2.729,0,0,0-2.729-2.729h-169.7a2.729,2.729,0,0,0-2.729,2.729v65.667A2.731,2.731,0,0,0,586.117,581.068Z" transform="translate(-583.388 -509.943)" fill="#3dc9c2"/>
        </g>
        <g id="Grupo_1234057" data-name="Grupo 1234057" transform="translate(20.44 8.75)">
          <path id="Trazado_1223515" data-name="Trazado 1223515" d="M619.261,597.883H777.617a2.729,2.729,0,0,0,2.729-2.729V538.237a2.729,2.729,0,0,0-2.729-2.729H619.261a2.729,2.729,0,0,0-2.729,2.729v56.916A2.73,2.73,0,0,0,619.261,597.883Z" transform="translate(-616.532 -535.508)" fill="#159d9b"/>
        </g>
        <g id="Grupo_1234061" data-name="Grupo 1234061" transform="translate(61.368 26.141)">
          <g id="Grupo_1234058" data-name="Grupo 1234058" transform="translate(78.489)">
            <path id="Trazado_1223516" data-name="Trazado 1223516" d="M636.924,586.315l6.827,26.188h7.722l4.178-17.235,4.327,17.235H667.7l6.64-26.188h-6.827l-3.768,19.063-4.663-19.063H652.07l-4.476,19.063-3.805-19.063Z" transform="translate(-636.924 -586.315)" fill="#fff"/>
          </g>
          <g id="Grupo_1234059" data-name="Grupo 1234059" transform="translate(39.244)">
            <path id="Trazado_1223517" data-name="Trazado 1223517" d="M751.58,586.315l6.827,26.188h7.722l4.178-17.235,4.327,17.235h7.722L789,586.315H782.17L778.4,605.378l-4.663-19.063h-7.013l-4.476,19.063-3.805-19.063Z" transform="translate(-751.58 -586.315)" fill="#fff"/>
          </g>
          <g id="Grupo_1234060" data-name="Grupo 1234060">
            <path id="Trazado_1223518" data-name="Trazado 1223518" d="M866.234,586.315l6.827,26.188h7.722l4.178-17.235,4.327,17.235h7.722l6.64-26.188h-6.827l-3.768,19.063-4.663-19.063H881.38L876.9,605.378,873.1,586.315Z" transform="translate(-866.234 -586.315)" fill="#fff"/>
          </g>
        </g>
        <g id="Grupo_1234062" data-name="Grupo 1234062" transform="translate(0 29.83)">
          <path id="Trazado_1223519" data-name="Trazado 1223519" d="M1025.027,608.548l26.361-11.287a3.236,3.236,0,0,1,4.067,2.531l1.519,28.636c.083,1.553-1.809,2.142-3.5,1.09l-6.036-3.756-14.023,35.018c-.433,1.08-2.027,1.282-3.4.43l-22.495-14c-1.369-.852-1.892-2.371-1.114-3.236l25.221-28.05-6.036-3.756C1023.9,611.117,1023.6,609.16,1025.027,608.548Z" transform="translate(-1006.048 -597.093)" fill="#fff"/>
        </g>
      </g>
      <g id="Grupo_1234145" data-name="Grupo 1234145" transform="translate(45.105)">
        <g id="Grupo_1234064" data-name="Grupo 1234064" transform="translate(42.652 30.57)">
          <path id="Trazado_1223520" data-name="Trazado 1223520" d="M927.322,150.412c-13.2-5.338-30.964,36.594-31.757,39.853,0,0-2.657,7.087,4.98,9.086a7.307,7.307,0,0,0,6.13-1.511C911.384,194.261,943,156.755,927.322,150.412Z" transform="translate(-895.117 -149.943)" fill="#ffa293"/>
        </g>
        <g id="Grupo_1234065" data-name="Grupo 1234065" transform="translate(54.173 27.016)">
          <path id="Trazado_1223521" data-name="Trazado 1223521" d="M904.835,167.344s16.528-23.857,5.2-27.416C898.779,136.39,885.8,159.5,885.8,159.5Z" transform="translate(-885.804 -139.56)" fill="#e15843"/>
        </g>
        <g id="Grupo_1234066" data-name="Grupo 1234066" transform="translate(85.541 3.219)">
          <path id="Trazado_1223522" data-name="Trazado 1223522" d="M851.2,86.447s7.21-3.043,7.336-5.67-1.209-3.047-1.209-3.047,2.335-1.6,1.089-3.536-1.067-3.356-1.635-4.158l-6.8,4.253s-.826,7.123-.227,8.654C850.6,85.09,851.2,86.447,851.2,86.447Z" transform="translate(-849.544 -70.037)" fill="#323536"/>
        </g>
        <g id="Grupo_1234067" data-name="Grupo 1234067" transform="translate(78.667 15.127)">
          <path id="Trazado_1223523" data-name="Trazado 1223523" d="M878.683,116.347l-8.438,2.117,1-8.9.118-1.049.039-.349.026-.2.163-1.175,7.688-1.965-.2,3.953-.111,2.166Z" transform="translate(-870.245 -104.828)" fill="#ffa293"/>
        </g>
        <g id="Grupo_1234068" data-name="Grupo 1234068" transform="translate(67.237 24.664)">
          <path id="Trazado_1223524" data-name="Trazado 1223524" d="M863.085,133.555l6.436,2.518,3.43,24.847-29.7-10.883,5.456-14.526,6.448-2.822Z" transform="translate(-843.25 -132.689)" fill="#ffa293"/>
        </g>
        <g id="Grupo_1234069" data-name="Grupo 1234069" transform="translate(76.48 4.17)">
          <path id="Trazado_1223525" data-name="Trazado 1223525" d="M868.383,88.925c3.665,1.541,6.733-2.013,6.874-2.166a13.29,13.29,0,0,0,2.884-7.164c.3-4.737-5.318-8.458-9.5-6a6.706,6.706,0,0,0-3.366,6.772l-.031.173C865.19,81.343,864.9,87.463,868.383,88.925Z" transform="translate(-865.213 -72.816)" fill="#ffa293"/>
        </g>
        <g id="Grupo_1234078" data-name="Grupo 1234078" transform="translate(77.935 9.79)">
          <g id="Grupo_1234070" data-name="Grupo 1234070" transform="translate(5.676 0.367)">
            <path id="Trazado_1223526" data-name="Trazado 1223526" d="M877.983,91.178a2.465,2.465,0,0,0-1.131-.818c-.684-.206-1.058.227-1.055.413s.6.133,1.112.421S877.969,91.552,877.983,91.178Z" transform="translate(-875.796 -90.306)" fill="#323536"/>
          </g>
          <g id="Grupo_1234071" data-name="Grupo 1234071">
            <path id="Trazado_1223527" data-name="Trazado 1223527" d="M892.265,89.894a2.465,2.465,0,0,1,1.238-.646c.707-.1,1.014.378.984.562s-.617.044-1.162.255S892.224,90.266,892.265,89.894Z" transform="translate(-892.263 -89.234)" fill="#323536"/>
          </g>
          <g id="Grupo_1234072" data-name="Grupo 1234072" transform="translate(5.864 2.215)">
            <path id="Trazado_1223528" data-name="Trazado 1223528" d="M878.872,96.355c-.019.372.177.685.437.7s.487-.278.507-.65-.177-.685-.437-.7S878.891,95.982,878.872,96.355Z" transform="translate(-878.87 -95.704)" fill="#323536"/>
          </g>
          <g id="Grupo_1234073" data-name="Grupo 1234073" transform="translate(0.663 2.001)">
            <path id="Trazado_1223529" data-name="Trazado 1223529" d="M894.064,95.732c-.019.372.177.685.438.7s.487-.278.507-.65-.177-.685-.437-.7S894.084,95.359,894.064,95.732Z" transform="translate(-894.063 -95.081)" fill="#323536"/>
          </g>
          <g id="Grupo_1234075" data-name="Grupo 1234075" transform="translate(1.225 6.29)">
            <g id="Grupo_1234074" data-name="Grupo 1234074">
              <path id="Trazado_1223530" data-name="Trazado 1223530" d="M885.466,109.7a2.753,2.753,0,0,0,.433-.036c1.533-.244,1.733-1.161,1.818-1.552l.011-.048a.377.377,0,1,0-.735-.166l-.012.053c-.074.34-.175.805-1.2.968-.959.154-1.165-.4-1.185-.461a.378.378,0,0,0-.468-.249.373.373,0,0,0-.255.459A1.562,1.562,0,0,0,885.466,109.7Z" transform="translate(-883.859 -107.609)" fill="#323536"/>
            </g>
          </g>
          <g id="Grupo_1234077" data-name="Grupo 1234077" transform="translate(1.543 2.66)">
            <g id="Grupo_1234076" data-name="Grupo 1234076">
              <path id="Trazado_1223531" data-name="Trazado 1223531" d="M890.449,100.291a1.236,1.236,0,0,0,.4-.068.376.376,0,1,0-.244-.712.328.328,0,0,1-.4-.088,2.652,2.652,0,0,1,.281-.556,9.055,9.055,0,0,0,.571-1.366.376.376,0,1,0-.715-.236,8.276,8.276,0,0,1-.5,1.218c-.254.43-.571.964-.226,1.4A1.045,1.045,0,0,0,890.449,100.291Z" transform="translate(-889.462 -97.006)" fill="#323536"/>
            </g>
          </g>
        </g>
        <g id="Grupo_1234082" data-name="Grupo 1234082" transform="translate(71.461)">
          <g id="Grupo_1234079" data-name="Grupo 1234079" transform="translate(0.039)">
            <path id="Trazado_1223532" data-name="Trazado 1223532" d="M876.417,64.08a3.417,3.417,0,0,0-1.59-1.537c-.961-.31-1.852.412-2.416.348s-.818-2.182-3.731-2.256-3.259,1.481-4.035,1.631a12.136,12.136,0,0,1-4.131.181c-1.929-.253-2.076,3.366-2.442,3.666s-3.215,1.3-3.065,3.584a3.034,3.034,0,0,0,2.553,2.664s-1.491-1.258-1.381-1.938a3.806,3.806,0,0,1,.327-1.088s-.257,1.342.5,1.952a14.911,14.911,0,0,0,1.344.973s-.442,1.47,1.631,1.659c0,0,.312-2.822.61-4.472s.355-1.67.543-1.646a4.887,4.887,0,0,0,2.64,1.272,24,24,0,0,0,5.836-.3c1.151-.206,1.5,1.72,1.188,2.429s1.487,1.544,1.539,2.395.433,3.354.433,3.354.787.021,1.727-1.954S876.417,64.08,876.417,64.08Z" transform="translate(-855.001 -60.632)" fill="#323536"/>
          </g>
          <g id="Grupo_1234080" data-name="Grupo 1234080" transform="translate(0 5.026)">
            <path id="Trazado_1223533" data-name="Trazado 1223533" d="M910.88,75.315a8.233,8.233,0,0,0-2.653.7,2.129,2.129,0,0,0-.888,1.476,2.538,2.538,0,0,1,1.052-1.123,5.709,5.709,0,0,1,2.072-.441Z" transform="translate(-907.339 -75.315)" fill="#323536"/>
          </g>
          <g id="Grupo_1234081" data-name="Grupo 1234081" transform="translate(0.742 2.5)">
            <path id="Trazado_1223534" data-name="Trazado 1223534" d="M908.392,68.981s-.565,1.193-1.45,1.241-1.814-.5-1.845-1.2a1.64,1.64,0,0,1,.3-1.085s.056,1.356.527,1.663,1.526-.107,1.792-.419.95-1.066.95-1.066Z" transform="translate(-905.095 -67.935)" fill="#323536"/>
          </g>
        </g>
        <g id="Grupo_1234085" data-name="Grupo 1234085" transform="translate(87.491 9.255)">
          <g id="Grupo_1234083" data-name="Grupo 1234083">
            <path id="Trazado_1223535" data-name="Trazado 1223535" d="M861.954,88.094c-.506-.64-1.357-.446-2.057-.112a1.329,1.329,0,0,0-.886,1.418c.3,1.326-.664,2.755-.9,4.143C862.953,93.269,862.928,89.325,861.954,88.094Z" transform="translate(-858.108 -87.672)" fill="#ffa293"/>
          </g>
          <g id="Grupo_1234084" data-name="Grupo 1234084" transform="translate(1.46 1.429)">
            <path id="Trazado_1223536" data-name="Trazado 1223536" d="M862.008,91.906a.977.977,0,0,0-1.044.215c-.082.12.138.227.244.11a.4.4,0,0,1,.373-.1.518.518,0,0,1,.29.214c.172.253,0,.566-.141.81a3.282,3.282,0,0,1-.537.69c-.228.227-.539.4-.767.621s.174.509.475.367a2.231,2.231,0,0,0,.574-.436,4.142,4.142,0,0,0,.421-.461,2.931,2.931,0,0,0,.567-1.066A.768.768,0,0,0,862.008,91.906Z" transform="translate(-860.363 -91.847)" fill="#323536"/>
          </g>
        </g>
        <g id="Grupo_1234087" data-name="Grupo 1234087" transform="translate(79.274 14.751)">
          <g id="Grupo_1234086" data-name="Grupo 1234086">
            <path id="Trazado_1223537" data-name="Trazado 1223537" d="M869.942,109.873c2.02,0,5.19-.853,7.094-5.63a.376.376,0,1,0-.7-.279c-2.671,6.7-7.814,5.01-8.033,4.935a.377.377,0,0,0-.248.711A6.385,6.385,0,0,0,869.942,109.873Z" transform="translate(-867.803 -103.727)" fill="#323536"/>
          </g>
        </g>
        <g id="Grupo_1234089" data-name="Grupo 1234089" transform="translate(86.824 14.598)">
          <g id="Grupo_1234088" data-name="Grupo 1234088">
            <path id="Trazado_1223538" data-name="Trazado 1223538" d="M865.611,104.186a3.5,3.5,0,0,0,1.321-.187.377.377,0,1,0-.322-.681,5.845,5.845,0,0,1-1.988.064.377.377,0,0,0-.076.75C864.69,104.146,865.13,104.186,865.611,104.186Z" transform="translate(-864.207 -103.282)" fill="#323536"/>
          </g>
        </g>
        <g id="Grupo_1234100" data-name="Grupo 1234100" transform="translate(0 98.248)">
          <g id="Grupo_1234090" data-name="Grupo 1234090" transform="translate(25.811)">
            <path id="Trazado_1223539" data-name="Trazado 1223539" d="M1014.576,351.688l-2.719,19.029-16.262-4.436,5.72-18.611Z" transform="translate(-995.595 -347.67)" fill="#ffa293"/>
          </g>
          <g id="Grupo_1234099" data-name="Grupo 1234099" transform="translate(0 14.149)">
            <g id="Grupo_1234091" data-name="Grupo 1234091">
              <path id="Trazado_1223540" data-name="Trazado 1223540" d="M992.5,416.415a0,0,0,0,1,0,0c.406,3.039,4.78,4.709,10.6,2.485,9.475-3.617,35.223-17.894,35.223-17.894a25.745,25.745,0,0,0-.413-2.857,20.592,20.592,0,0,0-2.421-6.618c-3.463,3.585-8.805,3.8-8.805,3.8-1.9-4.8-7.047-6.327-7.047-6.327s-13.116,14.528-22.331,20.53C993.627,411.94,992.24,414.459,992.5,416.415Z" transform="translate(-992.47 -389.007)" fill="#292e30"/>
            </g>
            <g id="Grupo_1234092" data-name="Grupo 1234092" transform="translate(0.034 9.144)">
              <path id="Trazado_1223541" data-name="Trazado 1223541" d="M992.47,433.989c.406,3.039,4.78,4.709,10.6,2.485,9.475-3.617,35.223-17.894,35.223-17.894a25.744,25.744,0,0,0-.413-2.857s-29.8,16.7-35.708,18.593C996.242,436.218,993.182,435.455,992.47,433.989Z" transform="translate(-992.47 -415.722)" fill="#fff"/>
            </g>
            <g id="Grupo_1234094" data-name="Grupo 1234094" transform="translate(22.172 4.81)">
              <g id="Grupo_1234093" data-name="Grupo 1234093">
                <path id="Trazado_1223542" data-name="Trazado 1223542" d="M1051.926,407.94a.377.377,0,0,0,.312-.587,16.339,16.339,0,0,0-4.244-4.238.377.377,0,1,0-.394.642,15.857,15.857,0,0,1,4.012,4.017A.379.379,0,0,0,1051.926,407.94Z" transform="translate(-1047.421 -403.059)" fill="#fff"/>
              </g>
            </g>
            <g id="Grupo_1234096" data-name="Grupo 1234096" transform="translate(18.906 7.733)">
              <g id="Grupo_1234095" data-name="Grupo 1234095">
                <path id="Trazado_1223543" data-name="Trazado 1223543" d="M1061.586,416.528a.377.377,0,0,0,.308-.593,23.586,23.586,0,0,0-4.138-4.25.376.376,0,1,0-.476.583,23.324,23.324,0,0,1,4,4.1A.383.383,0,0,0,1061.586,416.528Z" transform="translate(-1057.141 -411.6)" fill="#fff"/>
              </g>
            </g>
            <g id="Grupo_1234098" data-name="Grupo 1234098" transform="translate(15.374 11.066)">
              <g id="Grupo_1234097" data-name="Grupo 1234097">
                <path id="Trazado_1223544" data-name="Trazado 1223544" d="M1071.821,426.353a.376.376,0,0,0,.315-.581,19.054,19.054,0,0,0-4.2-4.359.377.377,0,1,0-.454.6,18.659,18.659,0,0,1,4.023,4.168A.374.374,0,0,0,1071.821,426.353Z" transform="translate(-1067.332 -421.337)" fill="#fff"/>
              </g>
            </g>
          </g>
        </g>
        <g id="Grupo_1234103" data-name="Grupo 1234103" transform="translate(17.882 56.805)">
          <g id="Grupo_1234101" data-name="Grupo 1234101" transform="translate(11.09)">
            <path id="Trazado_1223545" data-name="Trazado 1223545" d="M897.808,269.264l4.026-12.74s-16.466-9.314-35.762-20.329c-19.458-11.107-27.546-9.527-27.546-9.527v0a10.251,10.251,0,0,0-7.693,4.084c-3.312,4.507-2.047,10.853,2.833,14.147a11.328,11.328,0,0,0,1.2.7C852.155,255.667,897.808,269.264,897.808,269.264Z" transform="translate(-828.986 -226.59)" fill="#2e4d36"/>
          </g>
          <g id="Grupo_1234102" data-name="Grupo 1234102" transform="translate(0 0.949)">
            <path id="Trazado_1223546" data-name="Trazado 1223546" d="M1004.727,237.63c-.606-10.951-20.519-10.112-24.4-2.786l-.155.31c-5.244,9.565-11.609,47.321-11.609,47.321l27.649,5.577C1004.933,247.118,1004.727,237.63,1004.727,237.63Z" transform="translate(-968.565 -229.364)" fill="#2e4d36"/>
          </g>
        </g>
        <g id="Grupo_1234104" data-name="Grupo 1234104" transform="translate(45.82 129.799)">
          <path id="Trazado_1223547" data-name="Trazado 1223547" d="M959.55,440.327l-1.379,20.552-15.818-.874,1.964-20.161Z" transform="translate(-942.353 -439.845)" fill="#ffa293"/>
        </g>
        <g id="Grupo_1234113" data-name="Grupo 1234113" transform="translate(24.378 142.021)">
          <g id="Grupo_1234105" data-name="Grupo 1234105">
            <path id="Trazado_1223548" data-name="Trazado 1223548" d="M924.867,506.063c.582,2.07,2.668,3.428,6.931,2.292,9.281-2.478,37.574-21.032,37.574-21.032a14.312,14.312,0,0,0-.819-2.429,24.459,24.459,0,0,0-6.109-7.98c-1.145,1.784-6.238,4.375-6.238,4.375a46.571,46.571,0,0,0-9.324-5.736s-14.56,20.429-18.891,23.074A7.271,7.271,0,0,0,924.867,506.063Z" transform="translate(-924.686 -475.553)" fill="#292e30"/>
          </g>
          <g id="Grupo_1234106" data-name="Grupo 1234106" transform="translate(0.181 9.341)">
            <path id="Trazado_1223549" data-name="Trazado 1223549" d="M924.686,524.012c.582,2.07,2.668,3.428,6.931,2.292,9.281-2.478,37.574-21.032,37.574-21.032a14.312,14.312,0,0,0-.819-2.429s-26.058,16.031-32.284,19.005C929.841,524.832,926.069,525.23,924.686,524.012Z" transform="translate(-924.686 -502.843)" fill="#fff"/>
          </g>
          <g id="Grupo_1234108" data-name="Grupo 1234108" transform="translate(17.849 5.067)">
            <g id="Grupo_1234107" data-name="Grupo 1234107">
              <path id="Trazado_1223550" data-name="Trazado 1223550" d="M991.128,495.444a.372.372,0,0,0,.244-.09.376.376,0,0,0,.042-.531,19.944,19.944,0,0,0-5.4-4.432.377.377,0,0,0-.32.682,19.568,19.568,0,0,1,5.151,4.239A.376.376,0,0,0,991.128,495.444Z" transform="translate(-985.473 -490.355)" fill="#fff"/>
            </g>
          </g>
          <g id="Grupo_1234110" data-name="Grupo 1234110" transform="translate(14.906 8.797)">
            <g id="Grupo_1234109" data-name="Grupo 1234109">
              <path id="Trazado_1223551" data-name="Trazado 1223551" d="M1000.171,506.234a.377.377,0,0,0,.293-.612,19.674,19.674,0,0,0-5.154-4.319.377.377,0,1,0-.371.655,19.284,19.284,0,0,1,4.938,4.134A.376.376,0,0,0,1000.171,506.234Z" transform="translate(-994.748 -501.254)" fill="#fff"/>
            </g>
          </g>
          <g id="Grupo_1234112" data-name="Grupo 1234112" transform="translate(11.975 12.622)">
            <g id="Grupo_1234111" data-name="Grupo 1234111">
              <path id="Trazado_1223552" data-name="Trazado 1223552" d="M1009.226,517.224a.377.377,0,0,0,.285-.622,19.539,19.539,0,0,0-4.912-4.135.376.376,0,1,0-.326.679,19.179,19.179,0,0,1,4.667,3.948A.377.377,0,0,0,1009.226,517.224Z" transform="translate(-1004.06 -512.429)" fill="#fff"/>
            </g>
          </g>
        </g>
        <g id="Grupo_1234116" data-name="Grupo 1234116" transform="translate(40.647 74.077)">
          <g id="Grupo_1234114" data-name="Grupo 1234114" transform="translate(5.77)">
            <path id="Trazado_1223553" data-name="Trazado 1223553" d="M864.92,289.623l-14.756-12.572-4.341,2.739s-2.379,1.368-20.308-1.449c-16.129-2.534-21.691,3.25-22.381,3.87l0,.007a11.455,11.455,0,0,0-3.254,4.54c-1.829,5.329,1.585,10.849,7.21,12.6a11.13,11.13,0,0,0,2.548.469l0,.012c7.539.5,27.061,6.119,40.888,3.695C864.224,301.137,864.92,289.623,864.92,289.623Z" transform="translate(-799.385 -277.051)" fill="#3e6b48"/>
          </g>
          <g id="Grupo_1234115" data-name="Grupo 1234115" transform="translate(0 4.02)">
            <path id="Trazado_1223554" data-name="Trazado 1223554" d="M945.169,296.853c-.01-.031-3.537-8.551-14.764-8.036a10.883,10.883,0,0,0-8.032,4.726s-.518.811-.585.938c-.789,1.407-2.324,7.336-3.574,22.518-1.615,22.753-2.692,34.66-2.692,34.66l27.776,1.37S950.362,308.58,945.169,296.853Z" transform="translate(-915.522 -288.794)" fill="#3e6b48"/>
          </g>
        </g>
        <g id="Grupo_1234117" data-name="Grupo 1234117" transform="translate(65.402 24.677)">
          <path id="Trazado_1223555" data-name="Trazado 1223555" d="M842.631,194.7c-1.746-1.086-3.237-1.975-7.814-2.883-2.658-.529-4.19-.878-7.3-1.533-2.041-.43-7.983-2.34-13.675-3.557a37.283,37.283,0,0,1-17.666-9.437s-.243-7.024.037-24.295c.078-4.759.557-9.719,2.53-13.25h0a.011.011,0,0,0,0-.007,10.083,10.083,0,0,1,1.976-2.534c3.353-3.052,9.06-4.476,9.06-4.476s-4.972,6.038,1.017,6.109c7.693.1,7.081-5.8,7.081-5.8.344.053,2.881.556,3.92.7a33.363,33.363,0,0,1,9.975,2.738c.159.43,1.462,5.633,2.384,10.1,1.895,9.2,2.37,21.071,5.94,28.367.1.213.979,2.711,1.835,5.372a.063.063,0,0,0,.007.025c.046.142.092.28.131.415a45.637,45.637,0,0,1,1.565,5.7A18.606,18.606,0,0,1,842.631,194.7Z" transform="translate(-796.081 -132.727)" fill="#e15843"/>
        </g>
        <g id="Grupo_1234119" data-name="Grupo 1234119" transform="translate(64.9 32.84)">
          <g id="Grupo_1234118" data-name="Grupo 1234118">
            <path id="Trazado_1223556" data-name="Trazado 1223556" d="M929.168,190.38h.015a.377.377,0,0,0,.361-.392c-.877-21.679,1.853-32.833,1.88-32.943a.376.376,0,0,0-.73-.184c-.028.111-2.785,11.355-1.9,33.157A.376.376,0,0,0,929.168,190.38Z" transform="translate(-928.619 -156.577)" fill="#323536"/>
          </g>
        </g>
        <g id="Grupo_1234120" data-name="Grupo 1234120" transform="translate(76.143 24.654)">
          <path id="Trazado_1223557" data-name="Trazado 1223557" d="M878.619,132.975s.125,5.159-5.835,5.723c-6.4.566-3.083-4.722-2.216-6.026a1.787,1.787,0,0,0-1.342.4s-3.468,4.856-.362,6.227c3.867,1.67,9.012.131,10.435-3.017,1.087-2.246.661-3.1.661-3.1A1.05,1.05,0,0,0,878.619,132.975Z" transform="translate(-867.571 -132.662)" fill="#fff"/>
        </g>
        <g id="Grupo_1234122" data-name="Grupo 1234122" transform="translate(40.273 74.196)">
          <g id="Grupo_1234121" data-name="Grupo 1234121">
            <path id="Trazado_1223558" data-name="Trazado 1223558" d="M932.263,344.542a.377.377,0,0,0,.376-.36c.02-.458,2.007-45.916,6.242-57.061,4.15-10.92,18.752-8.817,18.9-8.794a.377.377,0,1,0,.114-.744c-.153-.024-15.354-2.212-19.717,9.271-4.278,11.258-6.21,55.422-6.29,57.3a.376.376,0,0,0,.36.392Z" transform="translate(-931.886 -277.401)" fill="#323536"/>
          </g>
        </g>
        <g id="Grupo_1234124" data-name="Grupo 1234124" transform="translate(71.312 92.165)">
          <g id="Grupo_1234123" data-name="Grupo 1234123">
            <path id="Trazado_1223559" data-name="Trazado 1223559" d="M915.3,337.268a.377.377,0,0,0,.376-.365,42.264,42.264,0,0,0-.516-6.684.376.376,0,1,0-.745.109,42.415,42.415,0,0,1,.509,6.554.377.377,0,0,0,.366.387Z" transform="translate(-914.411 -329.896)" fill="#323536"/>
          </g>
        </g>
        <g id="Grupo_1234125" data-name="Grupo 1234125" transform="translate(91.241 28.425)">
          <path id="Trazado_1223560" data-name="Trazado 1223560" d="M784.691,143.75c14.076-2.128,21.62,42.784,21.634,46.139,0,0,.939,7.51-6.954,7.681a7.308,7.308,0,0,1-5.611-2.893C790.01,190.1,767.965,146.278,784.691,143.75Z" transform="translate(-778.499 -143.677)" fill="#ffa293"/>
        </g>
        <g id="Grupo_1234126" data-name="Grupo 1234126" transform="translate(90.674 27.281)">
          <path id="Trazado_1223561" data-name="Trazado 1223561" d="M811.575,167.974a72.971,72.971,0,0,1-20.778,6.821s-11.6-31.109-.253-34.235S811.575,167.974,811.575,167.974Z" transform="translate(-785.567 -140.335)" fill="#e15843"/>
        </g>
        <g id="Grupo_1234128" data-name="Grupo 1234128" transform="translate(90.284 36.253)">
          <g id="Grupo_1234127" data-name="Grupo 1234127">
            <path id="Trazado_1223562" data-name="Trazado 1223562" d="M850.791,192.411a.381.381,0,0,0,.132-.024.377.377,0,0,0,.221-.485c-.056-.152-5.672-15.288-5.191-24.96a.377.377,0,0,0-.752-.037c-.49,9.828,5.18,25.109,5.238,25.262A.377.377,0,0,0,850.791,192.411Z" transform="translate(-845.171 -166.547)" fill="#323536"/>
          </g>
        </g>
        <g id="Grupo_1234129" data-name="Grupo 1234129" transform="translate(85.51 65.422)">
          <path id="Trazado_1223563" data-name="Trazado 1223563" d="M805.318,268.662c-11.551-.333-26.228-6.556-25.986-6.526l1.138-10.372c21.917.493,26.29,3.623,27.078,3.886,0,0,4.534,1.11,5.034,5.667C813.327,268.112,806.218,268.677,805.318,268.662Z" transform="translate(-779.33 -251.765)" fill="#ffa293"/>
        </g>
        <g id="Grupo_1234132" data-name="Grupo 1234132" transform="translate(58.4 61.441)">
          <g id="Grupo_1234130" data-name="Grupo 1234130" transform="translate(17.534 2.425)">
            <path id="Trazado_1223564" data-name="Trazado 1223564" d="M884.021,248.775,873.3,247.219l.691,9.253,9.485,2.9Z" transform="translate(-873.304 -247.219)" fill="#ffa293"/>
          </g>
          <g id="Grupo_1234131" data-name="Grupo 1234131" transform="translate(0)">
            <path id="Trazado_1223565" data-name="Trazado 1223565" d="M903.515,243.659s-3.37-3.425-7.845-3.522-16.453,5.09-17.025,6.313.8,2.3.8,2.3-1.361,2.16-.567,3.6,5.9,1.927,7.624,1.06,5.456-3.392,6.1-3.538,6.192,3.852,7.846,3.928a27.444,27.444,0,0,0,4.528-.434Z" transform="translate(-878.505 -240.135)" fill="#ffa293"/>
          </g>
        </g>
        <g id="Grupo_1234140" data-name="Grupo 1234140" transform="translate(22.185 46.699)">
          <g id="Grupo_1234133" data-name="Grupo 1234133" transform="translate(0.001)">
            <path id="Trazado_1223566" data-name="Trazado 1223566" d="M928,198.153s.382-1.035,2.172-1.076l35.2-.011,8.367,26.487h-1.562Z" transform="translate(-928 -197.066)" fill="#eaeaea"/>
          </g>
          <g id="Grupo_1234136" data-name="Grupo 1234136" transform="translate(0 1.087)">
            <g id="Grupo_1234134" data-name="Grupo 1234134" transform="translate(0.001)">
              <path id="Trazado_1223567" data-name="Trazado 1223567" d="M944.434,227.75h-52.2l-8.8-27.509h36.013l8.167,25.4h16.816Z" transform="translate(-883.438 -200.241)" fill="#fff"/>
            </g>
            <g id="Grupo_1234135" data-name="Grupo 1234135" transform="translate(0)">
              <path id="Trazado_1223568" data-name="Trazado 1223568" d="M976.748,227.75H941.363l-8.8-27.509h4.2C943.624,226.588,966.694,222.682,976.748,227.75Z" transform="translate(-932.567 -200.241)" fill="#eaeaea"/>
            </g>
          </g>
          <g id="Grupo_1234138" data-name="Grupo 1234138" transform="translate(15.976 10.158)">
            <g id="Grupo_1234137" data-name="Grupo 1234137">
              <path id="Trazado_1223569" data-name="Trazado 1223569" d="M993.623,226.742a4.408,4.408,0,1,1-4.408,4.408A4.413,4.413,0,0,1,993.623,226.742Zm0,8.393a3.985,3.985,0,1,0-3.985-3.985A3.989,3.989,0,0,0,993.623,235.135Z" transform="translate(-989.215 -226.742)" fill="#292e30"/>
            </g>
          </g>
          <g id="Grupo_1234139" data-name="Grupo 1234139" transform="translate(17.242 11.427)">
            <circle id="Elipse_13842" data-name="Elipse 13842" cx="3.139" cy="3.139" r="3.139" fill="#292e30"/>
          </g>
        </g>
        <g id="Grupo_1234142" data-name="Grupo 1234142" transform="translate(97.032 65.58)">
          <g id="Grupo_1234141" data-name="Grupo 1234141">
            <path id="Trazado_1223570" data-name="Trazado 1223570" d="M816.137,255.066a.377.377,0,0,0,.134-.728c-3.885-1.476-12.751-2.085-13.126-2.11a.371.371,0,0,0-.4.35.376.376,0,0,0,.351.4c.091.006,9.129.626,12.909,2.063A.39.39,0,0,0,816.137,255.066Z" transform="translate(-802.743 -252.227)" fill="#323536"/>
          </g>
        </g>
        <g id="Grupo_1234144" data-name="Grupo 1234144" transform="translate(96.561 54.995)">
          <g id="Grupo_1234143" data-name="Grupo 1234143">
            <path id="Trazado_1223571" data-name="Trazado 1223571" d="M787.457,228.258a.351.351,0,0,0,.065-.006,78.08,78.08,0,0,0,18.954-6.236.376.376,0,1,0-.338-.673,77.289,77.289,0,0,1-18.745,6.167.377.377,0,0,0,.064.748Z" transform="translate(-787.08 -221.303)" fill="#323536"/>
          </g>
        </g>
      </g>
      <g id="Grupo_1234159" data-name="Grupo 1234159" transform="translate(185.053 24.358)">
        <g id="Grupo_1234146" data-name="Grupo 1234146" transform="translate(0.035 0.034)">
          <path id="Trazado_1223572" data-name="Trazado 1223572" d="M634.05,156.368h22.168a3.861,3.861,0,0,0,3.857-3.857V135.75a3.861,3.861,0,0,0-3.857-3.857H634.05a3.861,3.861,0,0,0-3.857,3.857v16.761A3.861,3.861,0,0,0,634.05,156.368Zm22.168-23.79a3.176,3.176,0,0,1,3.172,3.172v16.761a3.176,3.176,0,0,1-3.172,3.172H634.05a3.176,3.176,0,0,1-3.172-3.172V135.751a3.176,3.176,0,0,1,3.172-3.172h22.168Z" transform="translate(-630.193 -131.893)" fill="#292e30"/>
        </g>
        <g id="Grupo_1234148" data-name="Grupo 1234148" transform="translate(0 0)">
          <g id="Grupo_1234147" data-name="Grupo 1234147">
            <path id="Trazado_1223573" data-name="Trazado 1223573" d="M633.985,156.338h22.168a3.9,3.9,0,0,0,3.891-3.891V135.686a3.9,3.9,0,0,0-3.891-3.891H633.985a3.9,3.9,0,0,0-3.891,3.891v16.761A3.9,3.9,0,0,0,633.985,156.338Zm22.168-23.79a3.142,3.142,0,0,1,3.138,3.138v16.761a3.142,3.142,0,0,1-3.138,3.138H633.985a3.142,3.142,0,0,1-3.138-3.138V135.686a3.141,3.141,0,0,1,3.138-3.138Z" transform="translate(-630.094 -131.795)" fill="#292e30"/>
          </g>
        </g>
        <g id="Grupo_1234150" data-name="Grupo 1234150" transform="translate(10.203 14.287)">
          <g id="Grupo_1234149" data-name="Grupo 1234149">
            <path id="Trazado_1223574" data-name="Trazado 1223574" d="M660.189,176.763a.378.378,0,0,0,.345-.226,4.338,4.338,0,0,1,4.055-2.248h.068a4.321,4.321,0,0,1,4.013,2.125.376.376,0,1,0,.683-.316,5.014,5.014,0,0,0-4.693-2.561h-.078a5.073,5.073,0,0,0-4.737,2.7.377.377,0,0,0,.345.528Z" transform="translate(-659.813 -173.536)" fill="#fda202"/>
          </g>
        </g>
        <g id="Grupo_1234152" data-name="Grupo 1234152" transform="translate(8.116 10.554)">
          <g id="Grupo_1234151" data-name="Grupo 1234151">
            <path id="Trazado_1223575" data-name="Trazado 1223575" d="M654.089,167.042a.376.376,0,0,0,.338-.209,6.865,6.865,0,0,1,6.161-3.45,7.28,7.28,0,0,1,6.171,3.283.377.377,0,1,0,.655-.371,7.937,7.937,0,0,0-6.826-3.664,7.614,7.614,0,0,0-6.836,3.868.376.376,0,0,0,.337.544Z" transform="translate(-653.713 -162.63)" fill="#fda202"/>
          </g>
        </g>
        <g id="Grupo_1234154" data-name="Grupo 1234154" transform="translate(6.577 7.237)">
          <g id="Grupo_1234153" data-name="Grupo 1234153">
            <path id="Trazado_1223576" data-name="Trazado 1223576" d="M649.6,158.2a.376.376,0,0,0,.338-.209,8.378,8.378,0,0,1,7.451-4.3h.005a9.092,9.092,0,0,1,7.951,4.092.377.377,0,0,0,.657-.369,9.838,9.838,0,0,0-8.608-4.476h-.005a9.294,9.294,0,0,0-8.126,4.72.376.376,0,0,0,.337.543Z" transform="translate(-649.221 -152.937)" fill="#fda202"/>
          </g>
        </g>
        <g id="Grupo_1234156" data-name="Grupo 1234156" transform="translate(4.6 3.899)">
          <g id="Grupo_1234155" data-name="Grupo 1234155">
            <path id="Trazado_1223577" data-name="Trazado 1223577" d="M643.821,149.431a.375.375,0,0,0,.314-.168c.036-.055,3.715-5.486,9.446-5.319,7.133.209,9.912,4.969,9.94,5.017a.376.376,0,0,0,.656-.37c-.119-.211-3-5.178-10.573-5.4-6.152-.192-9.939,5.417-10.1,5.656a.376.376,0,0,0,.314.584Z" transform="translate(-643.444 -143.186)" fill="#fda202"/>
          </g>
        </g>
        <g id="Grupo_1234158" data-name="Grupo 1234158" transform="translate(12.844 16.761)">
          <g id="Grupo_1234157" data-name="Grupo 1234157">
            <path id="Trazado_1223578" data-name="Trazado 1223578" d="M669.674,185.057a2.147,2.147,0,1,0-2.147-2.147A2.149,2.149,0,0,0,669.674,185.057Zm0-3.541a1.394,1.394,0,1,1-1.394,1.394A1.4,1.4,0,0,1,669.674,181.516Z" transform="translate(-667.527 -180.763)" fill="#fda202"/>
          </g>
        </g>
      </g>
      <g id="Grupo_1234163" data-name="Grupo 1234163" transform="translate(311.583 126.639)">
        <g id="Grupo_1234161" data-name="Grupo 1234161" transform="translate(0)">
          <g id="Grupo_1234160" data-name="Grupo 1234160">
            <path id="Trazado_1223579" data-name="Trazado 1223579" d="M265.015,454.956H287a3.866,3.866,0,0,0,3.861-3.861V434.475A3.866,3.866,0,0,0,287,430.614h-21.98a3.866,3.866,0,0,0-3.861,3.861v16.619A3.866,3.866,0,0,0,265.015,454.956ZM287,431.367a3.111,3.111,0,0,1,3.108,3.108v16.619A3.112,3.112,0,0,1,287,454.2h-21.98a3.111,3.111,0,0,1-3.108-3.108V434.475a3.111,3.111,0,0,1,3.108-3.108Z" transform="translate(-261.154 -430.614)" fill="#292e30"/>
          </g>
        </g>
        <g id="Grupo_1234162" data-name="Grupo 1234162" transform="translate(7.728 5.047)">
          <path id="Trazado_1223580" data-name="Trazado 1223580" d="M284.194,451.734l12.574-6.287a.836.836,0,0,1,1.21.748v12.574a.836.836,0,0,1-1.21.748l-12.574-6.287A.836.836,0,0,1,284.194,451.734Z" transform="translate(-283.732 -445.358)" fill="#e15843"/>
        </g>
      </g>
      <g id="Grupo_1234171" data-name="Grupo 1234171" transform="translate(232.54 59.906)">
        <g id="Grupo_1234165" data-name="Grupo 1234165">
          <g id="Grupo_1234164" data-name="Grupo 1234164">
            <path id="Trazado_1223581" data-name="Trazado 1223581" d="M494.573,260.392h22.352a3.924,3.924,0,0,0,3.92-3.92v-16.9a3.924,3.924,0,0,0-3.92-3.92H494.573a3.924,3.924,0,0,0-3.92,3.92v16.9A3.924,3.924,0,0,0,494.573,260.392Zm22.352-23.987a3.171,3.171,0,0,1,3.167,3.167v16.9a3.171,3.171,0,0,1-3.167,3.167H494.573a3.171,3.171,0,0,1-3.167-3.167v-16.9a3.171,3.171,0,0,1,3.167-3.167Z" transform="translate(-490.653 -235.652)" fill="#292e30"/>
          </g>
        </g>
        <g id="Grupo_1234170" data-name="Grupo 1234170" transform="translate(5.222 4.256)">
          <g id="Grupo_1234167" data-name="Grupo 1234167" transform="translate(13.221 6.046)">
            <g id="Grupo_1234166" data-name="Grupo 1234166">
              <path id="Trazado_1223582" data-name="Trazado 1223582" d="M506.083,265.748l-.171,9.885,3.456.06a2.95,2.95,0,0,0,3-2.9l.069-3.981a2.954,2.954,0,0,0-2.9-3Z" transform="translate(-505.913 -265.748)" fill="#159d9b"/>
            </g>
          </g>
          <g id="Grupo_1234169" data-name="Grupo 1234169" transform="translate(0)">
            <g id="Grupo_1234168" data-name="Grupo 1234168">
              <path id="Trazado_1223583" data-name="Trazado 1223583" d="M529,263.578c1.163,1.364,11.205.415,11.205.415l.171-9.885a4.844,4.844,0,0,1-2.087-2.567c-.456-1.637-1.147-3.737-2.41-3.425s-1.789,3.7-.273,5.91c0,0-4.875-1.409-6.228.016C528.091,255.39,527.908,262.3,529,263.578Z" transform="translate(-528.284 -248.085)" fill="#159d9b"/>
            </g>
          </g>
        </g>
      </g>
      <g id="Grupo_1234177" data-name="Grupo 1234177" transform="translate(287.285 39.083)">
        <g id="Grupo_1234173" data-name="Grupo 1234173" transform="translate(0 0)">
          <g id="Grupo_1234172" data-name="Grupo 1234172">
            <path id="Trazado_1223584" data-name="Trazado 1223584" d="M337.667,198.673H359.2a3.794,3.794,0,0,0,3.79-3.79V178.6a3.794,3.794,0,0,0-3.79-3.79H337.667a3.794,3.794,0,0,0-3.79,3.79v16.278A3.794,3.794,0,0,0,337.667,198.673Zm21.529-23.1a3.04,3.04,0,0,1,3.037,3.037v16.278a3.04,3.04,0,0,1-3.037,3.037H337.667a3.04,3.04,0,0,1-3.037-3.037V178.605a3.04,3.04,0,0,1,3.037-3.037Z" transform="translate(-333.877 -174.815)" fill="#292e30"/>
          </g>
        </g>
        <g id="Grupo_1234176" data-name="Grupo 1234176" transform="translate(5.721 4.222)">
          <g id="Grupo_1234174" data-name="Grupo 1234174" transform="translate(5.889 3.765)">
            <path id="Trazado_1223585" data-name="Trazado 1223585" d="M356.27,198.149a5.679,5.679,0,0,1,4.839,8.65c.723.535,1.01,1.742,1.261,3a7.5,7.5,0,0,0-3.581-.881,5.678,5.678,0,1,1-2.518-10.768Zm2.885,6.419a.823.823,0,1,0-.821-.821A.823.823,0,0,0,359.155,204.568Zm-2.745,0a.823.823,0,1,0-.821-.821A.823.823,0,0,0,356.41,204.568Zm-2.742,0a.823.823,0,1,0-.822-.821A.823.823,0,0,0,353.668,204.568Z" transform="translate(-350.592 -198.149)" fill="#fda202"/>
          </g>
          <g id="Grupo_1234175" data-name="Grupo 1234175" transform="translate(0)">
            <path id="Trazado_1223586" data-name="Trazado 1223586" d="M369.666,198.8c1.206-.775,2.406-1.3,3.583-.882a5.65,5.65,0,0,0,1.863.551,6.4,6.4,0,0,1,5.691-8.262,5.678,5.678,0,1,0-9.875,5.594C370.076,196.307,369.776,197.445,369.666,198.8Z" transform="translate(-369.666 -187.15)" fill="#fda202"/>
          </g>
        </g>
      </g>
      <g id="Grupo_1234254" data-name="Grupo 1234254" transform="translate(219.647 105.833)">
        <g id="Grupo_1234180" data-name="Grupo 1234180" transform="translate(49.759 124.675)">
          <g id="Grupo_1234178" data-name="Grupo 1234178">
            <path id="Trazado_1223587" data-name="Trazado 1223587" d="M431.178,734.072l3.383,17.472-14.34,3.742-4.7-16.608Z" transform="translate(-415.517 -734.072)" fill="#ffa293"/>
          </g>
          <g id="Grupo_1234179" data-name="Grupo 1234179" transform="translate(3.732 9.903)">
            <path id="Trazado_1223588" data-name="Trazado 1223588" d="M326.275,763.123a49.6,49.6,0,0,0,15.861,1.965c8.941-.336,17.875-.752,20.258,6.708,0,0-8.636,8.061-24.2,14.59s-20.436,5.433-20.436,5.433-6.185-10.194-6.288-20.935c0,0,7.371,1.032,9.992-1.229S323.478,762.154,326.275,763.123Z" transform="translate(-311.467 -763.005)" fill="#292e30"/>
          </g>
        </g>
        <g id="Grupo_1234183" data-name="Grupo 1234183" transform="translate(16.322 75.862)">
          <g id="Grupo_1234181" data-name="Grupo 1234181" transform="translate(0)">
            <path id="Trazado_1223589" data-name="Trazado 1223589" d="M472.443,623.648c-10.505-3.252-30.514-18-30.514-18l5.415-14.187c26.4,3.52,36.594,18.666,36.594,18.666s6.35,10.939-7.707,14A13.033,13.033,0,0,1,472.443,623.648Z" transform="translate(-441.929 -591.463)" fill="#c6332c"/>
          </g>
          <g id="Grupo_1234182" data-name="Grupo 1234182" transform="translate(25.198 15.663)">
            <path id="Trazado_1223590" data-name="Trazado 1223590" d="M414.551,647.141s2.843-8.84,9.405-9.849c3.514-.54,6.543,2.28,6.543,2.28,1.3,1.621,6.773,7.818,11.654,38.115,0,0-11.409,4.911-19.639,9.211C422.514,686.9,414.125,655.857,414.551,647.141Z" transform="translate(-414.535 -637.223)" fill="#c6332c"/>
          </g>
        </g>
        <g id="Grupo_1234184" data-name="Grupo 1234184" transform="translate(0.223 54.892)">
          <path id="Trazado_1223591" data-name="Trazado 1223591" d="M425.88,543.376l58.436-13.119c3.428-.518,6.062,2.516,6.365,5.817a7.119,7.119,0,0,1-2.687,5.889c-2.853,2.234-37.019,25.738-43.571,26.267-6.795.549-16.025-3.345-17.815-11.8S425.88,543.376,425.88,543.376Z" transform="translate(-425.567 -530.199)" fill="#e15843"/>
        </g>
        <g id="Grupo_1234187" data-name="Grupo 1234187" transform="translate(11.344 84.19)">
          <g id="Grupo_1234185" data-name="Grupo 1234185" transform="translate(14.706)">
            <path id="Trazado_1223592" data-name="Trazado 1223592" d="M488.875,637.068l10.9-16.507-11.68-4.767-9.472,8.76Z" transform="translate(-478.625 -615.794)" fill="#ffa293"/>
          </g>
          <g id="Grupo_1234186" data-name="Grupo 1234186" transform="translate(0 6.315)">
            <path id="Trazado_1223593" data-name="Trazado 1223593" d="M530.944,645.776s-.728,4.8-.908,17.846-1.807,19.465-6.332,20.955c-4.768,1.571-5.681-.289-5.681-.289l-14.372-39.095A28.766,28.766,0,0,1,521,634.244Z" transform="translate(-503.652 -634.244)" fill="#292e30"/>
          </g>
        </g>
        <g id="Grupo_1234188" data-name="Grupo 1234188" transform="translate(27.162 53.778)">
          <path id="Trazado_1223594" data-name="Trazado 1223594" d="M444.5,526.945s9.567,1.24,11.557,9.128a8.212,8.212,0,0,1-.858,5.158c-4.805,9.153-20.513,33.735-20.513,33.735-9.276-6.558-20.625-15.478-20.625-15.478C433.418,531.173,442.8,527.667,444.5,526.945Z" transform="translate(-414.06 -526.945)" fill="#e15843"/>
        </g>
        <g id="Grupo_1234189" data-name="Grupo 1234189" transform="translate(34.538 28.263)">
          <path id="Trazado_1223595" data-name="Trazado 1223595" d="M417.033,455.678c-4.512,9.623,25.646,27.453,33.119,22.692,0,0,.543-.821.228-3.446a17.23,17.23,0,0,0-1.69-5.968C445.157,466.177,422.393,444.244,417.033,455.678Z" transform="translate(-416.575 -452.4)" fill="#ffa293"/>
        </g>
        <g id="Grupo_1234190" data-name="Grupo 1234190" transform="translate(32.402 26.944)">
          <path id="Trazado_1223596" data-name="Trazado 1223596" d="M461.4,471.928l9.989-13.13s-20.846-16.648-25.272-7.509C440.367,463.162,461.4,471.928,461.4,471.928Z" transform="translate(-445.122 -448.548)" fill="#fda202"/>
        </g>
        <g id="Grupo_1234191" data-name="Grupo 1234191" transform="translate(28.483 1.974)">
          <path id="Trazado_1223597" data-name="Trazado 1223597" d="M513.53,377.147s2.431,4.073,1.469,4.222c-3.836.6-2.787,9.083-2.787,9.083-2.387.727-10.775-8.426-3.486-14.855Z" transform="translate(-505.812 -375.597)" fill="#323536"/>
        </g>
        <g id="Grupo_1234192" data-name="Grupo 1234192" transform="translate(9.916 23.252)">
          <path id="Trazado_1223598" data-name="Trazado 1223598" d="M518,437.761l-2.282.779L499.34,458.7l22.148,3.125,8.047-18.36-2.856-3.3Z" transform="translate(-499.34 -437.761)" fill="#ffa293"/>
        </g>
        <g id="Grupo_1234193" data-name="Grupo 1234193" transform="translate(29.237 13.257)">
          <path id="Trazado_1223599" data-name="Trazado 1223599" d="M500.991,419.314l6.855,5.318,2.66-8.526.313-1.005.1-.335.055-.19.322-1.138-6.231-4.879-1.4,3.691-.768,2.022Z" transform="translate(-500.991 -408.559)" fill="#ffa293"/>
        </g>
        <g id="Grupo_1234194" data-name="Grupo 1234194" transform="translate(32.726 4.697)">
          <path id="Trazado_1223600" data-name="Trazado 1223600" d="M488.4,400.043c-3.964-.063-5.339-4.539-5.407-4.735a13.25,13.25,0,0,1,.241-7.7c1.624-4.446,8.248-5.588,11.078-1.664a6.688,6.688,0,0,1,.356,7.533l-.041.17C494.36,394.4,492.172,400.107,488.4,400.043Z" transform="translate(-482.532 -383.552)" fill="#ffa293"/>
        </g>
        <g id="Grupo_1234203" data-name="Grupo 1234203" transform="translate(36.673 9.971)">
          <g id="Grupo_1234195" data-name="Grupo 1234195">
            <path id="Trazado_1223601" data-name="Trazado 1223601" d="M502.987,399.267a2.456,2.456,0,0,1,1.361-.293c.707.087.875.632.8.8s-.605-.121-1.185-.062S502.849,399.614,502.987,399.267Z" transform="translate(-502.965 -398.96)" fill="#323536"/>
          </g>
          <g id="Grupo_1234196" data-name="Grupo 1234196" transform="translate(5.433 1.667)">
            <path id="Trazado_1223602" data-name="Trazado 1223602" d="M489.675,405.094a2.459,2.459,0,0,0-.871-1.086c-.6-.379-1.078-.061-1.124.118s.546.288.959.7S489.563,405.45,489.675,405.094Z" transform="translate(-487.677 -403.83)" fill="#323536"/>
          </g>
          <g id="Grupo_1234197" data-name="Grupo 1234197" transform="translate(0.251 1.773)">
            <path id="Trazado_1223603" data-name="Trazado 1223603" d="M506.666,404.959c-.132.348-.436.555-.679.462s-.334-.449-.2-.8.436-.555.679-.462S506.8,404.612,506.666,404.959Z" transform="translate(-505.724 -404.141)" fill="#323536"/>
          </g>
          <g id="Grupo_1234198" data-name="Grupo 1234198" transform="translate(5.085 3.665)">
            <path id="Trazado_1223604" data-name="Trazado 1223604" d="M492.544,410.486c-.132.348-.436.555-.679.462s-.334-.449-.2-.8.436-.555.679-.462S492.676,410.138,492.544,410.486Z" transform="translate(-491.602 -409.668)" fill="#323536"/>
          </g>
          <g id="Grupo_1234200" data-name="Grupo 1234200" transform="translate(0.273 6.142)">
            <g id="Grupo_1234199" data-name="Grupo 1234199">
              <path id="Trazado_1223605" data-name="Trazado 1223605" d="M500.817,419.786a1.436,1.436,0,0,0,1.095-.475.376.376,0,0,0-.578-.482c-.047.053-.455.465-1.265-.055-.87-.56-.776-1.026-.707-1.365l.011-.053a.376.376,0,1,0-.739-.144l-.01.047a1.861,1.861,0,0,0,1.038,2.148A2.133,2.133,0,0,0,500.817,419.786Z" transform="translate(-498.567 -416.906)" fill="#323536"/>
            </g>
          </g>
          <g id="Grupo_1234202" data-name="Grupo 1234202" transform="translate(2.544 3.608)">
            <g id="Grupo_1234201" data-name="Grupo 1234201">
              <path id="Trazado_1223606" data-name="Trazado 1223606" d="M497.627,412.728a1.042,1.042,0,0,0,.5-.127c.493-.264.418-.879.358-1.374a8.233,8.233,0,0,1,.029-1.314.376.376,0,1,0-.75-.071,9.056,9.056,0,0,0-.026,1.476,1.974,1.974,0,0,1,.017.636.337.337,0,0,1-.381-.1.376.376,0,1,0-.509.554A1.131,1.131,0,0,0,497.627,412.728Z" transform="translate(-496.738 -409.502)" fill="#323536"/>
            </g>
          </g>
        </g>
        <g id="Grupo_1234204" data-name="Grupo 1234204" transform="translate(30.825 0)">
          <path id="Trazado_1223607" data-name="Trazado 1223607" d="M465.889,372.5l2.84,6.019c1.571,1.559,5.565-1.007,5.565-1.007a3.189,3.189,0,0,0,2.989,2.373,3.929,3.929,0,0,0,2.8,1.988,2.091,2.091,0,0,0,1.577,1.659s3.931.257,4.784-3.371c.734-3.124-.816-4.738-2.7-6.155-1.824-1.369-3.027-.917-3.027-.917a2.912,2.912,0,0,0-2.117-2.821c-3.314-.84-3.841,1.374-3.841,1.374a2.656,2.656,0,0,0-3.032-1.759,4.585,4.585,0,0,1-5.45,2.067A6.638,6.638,0,0,0,465.889,372.5Z" transform="translate(-465.889 -369.829)" fill="#323536"/>
        </g>
        <g id="Grupo_1234207" data-name="Grupo 1234207" transform="translate(30.705 6.69)">
          <g id="Grupo_1234205" data-name="Grupo 1234205">
            <path id="Trazado_1223608" data-name="Trazado 1223608" d="M517.1,389.505c.719-.381,1.418.138,1.923.724a1.326,1.326,0,0,1,.24,1.651c-.8,1.092-.5,2.781-.839,4.145C514.11,393.83,515.715,390.239,517.1,389.505Z" transform="translate(-515.623 -389.375)" fill="#ffa293"/>
          </g>
          <g id="Grupo_1234206" data-name="Grupo 1234206" transform="translate(0.894 1.399)">
            <path id="Trazado_1223609" data-name="Trazado 1223609" d="M520.078,393.465a.974.974,0,0,1,.867.614c.026.143-.217.151-.267,0a.4.4,0,0,0-.3-.244.517.517,0,0,0-.35.079c-.258.162-.226.518-.2.8a3.264,3.264,0,0,0,.214.845c.117.3.333.58.452.874s-.363.395-.582.145a2.227,2.227,0,0,1-.349-.628,4.1,4.1,0,0,1-.2-.59,2.927,2.927,0,0,1-.09-1.2A.765.765,0,0,1,520.078,393.465Z" transform="translate(-519.248 -393.462)" fill="#323536"/>
          </g>
        </g>
        <g id="Grupo_1234209" data-name="Grupo 1234209" transform="translate(32.512 12.696)">
          <g id="Grupo_1234208" data-name="Grupo 1234208">
            <path id="Trazado_1223610" data-name="Trazado 1223610" d="M508.751,415.79a.377.377,0,0,0,.029-.752c-.232-.019-5.6-.537-5.353-7.727a.377.377,0,1,0-.753-.026c-.277,7.93,5.984,8.5,6.047,8.5Z" transform="translate(-502.666 -406.92)" fill="#323536"/>
          </g>
        </g>
        <g id="Grupo_1234211" data-name="Grupo 1234211" transform="translate(31.457 12.063)">
          <g id="Grupo_1234210" data-name="Grupo 1234210">
            <path id="Trazado_1223611" data-name="Trazado 1223611" d="M519.038,406.793a.377.377,0,0,0,.116-.735,5.827,5.827,0,0,1-1.789-.856.377.377,0,1,0-.569.494,6.233,6.233,0,0,0,2.126,1.079A.374.374,0,0,0,519.038,406.793Z" transform="translate(-516.704 -405.072)" fill="#323536"/>
          </g>
        </g>
        <g id="Grupo_1234212" data-name="Grupo 1234212" transform="translate(0 23.127)">
          <path id="Trazado_1223612" data-name="Trazado 1223612" d="M523.622,437.521s-2.26,7.47,3.638,8.505,6.213-4.743,6.213-4.743a9.74,9.74,0,0,1,3.155,2.745s-1.534,15.435-10.555,23.024-11.171,11.42-11.171,11.42a94.144,94.144,0,0,0-8.641,4.934c-3.35,2.279-9.723,2.171-10.942,1.156,0,0-2.047-20.977,5.082-31.1s9.909-11.984,11.758-13.7C515.259,436.893,522.51,437.37,523.622,437.521Z" transform="translate(-495.046 -437.396)" fill="#fda202"/>
        </g>
        <g id="Grupo_1234214" data-name="Grupo 1234214" transform="translate(26.785 31.157)">
          <g id="Grupo_1234213" data-name="Grupo 1234213">
            <path id="Trazado_1223613" data-name="Trazado 1223613" d="M495.455,486.253a.376.376,0,0,0,.251-.1c.024-.021,2.4-2.139,2.693-2.4.021-.018.061-.049.12-.094a26.876,26.876,0,0,0,7.524-9.6,45.459,45.459,0,0,0,3.817-12.793.377.377,0,0,0-.748-.086,44.657,44.657,0,0,1-3.749,12.554,26.108,26.108,0,0,1-7.3,9.327c-.075.058-.127.1-.153.121-.3.261-2.6,2.316-2.7,2.4a.377.377,0,0,0,.251.658Z" transform="translate(-495.079 -460.856)" fill="#323536"/>
          </g>
        </g>
        <g id="Grupo_1234215" data-name="Grupo 1234215" transform="translate(6.052 29.252)">
          <path id="Trazado_1223614" data-name="Trazado 1223614" d="M558.506,455.543c10.236,3.2.349,23.824-2.079,30.558,0,0-2.317,5.952-5.881,5.7a6.2,6.2,0,0,1-6.046-6.316C543.778,477.683,548.794,452.5,558.506,455.543Z" transform="translate(-544.432 -455.29)" fill="#ffa293"/>
        </g>
        <g id="Grupo_1234216" data-name="Grupo 1234216" transform="translate(8.083 49.69)">
          <path id="Trazado_1223615" data-name="Trazado 1223615" d="M498.653,526.92c-.744-5.67,3.3-6.671,3.3-6.671,3.361-1.254,10.1-3.632,27.078-5.249l1.822,6.985s-18.241,11.581-29.076,8.991C501.779,530.975,499.13,530.549,498.653,526.92Z" transform="translate(-498.562 -515)" fill="#ffa293"/>
        </g>
        <g id="Grupo_1234217" data-name="Grupo 1234217" transform="translate(51.536 33.689)">
          <path id="Trazado_1223616" data-name="Trazado 1223616" d="M425.187,468.257l-7.142.461a1.877,1.877,0,0,0-1.544,1.006l-9.276,17.787a1.878,1.878,0,0,0,1.733,2.745l7-.253a1.877,1.877,0,0,0,1.6-1.006L426.971,471A1.878,1.878,0,0,0,425.187,468.257Z" transform="translate(-407.009 -468.253)" fill="#292e30"/>
        </g>
        <g id="Grupo_1234218" data-name="Grupo 1234218" transform="translate(8.002 27.395)">
          <path id="Trazado_1223617" data-name="Trazado 1223617" d="M555.072,470.308s-10.874-2.113-15.654-2.631c0,0,2.532-20.362,13.594-17.543C562.433,452.533,555.072,470.308,555.072,470.308Z" transform="translate(-539.418 -449.865)" fill="#fda202"/>
        </g>
        <g id="Grupo_1234226" data-name="Grupo 1234226" transform="translate(31.882 42.499)">
          <g id="Grupo_1234219" data-name="Grupo 1234219" transform="translate(0)">
            <path id="Trazado_1223618" data-name="Trazado 1223618" d="M443.405,503.2s8.549-7.793,10.033-8.452,16-1,16.752-.549c.76.474.638,2.749.36,3.474.119.21.436,3.229-.98,3.29,0,0,.012.031.028.09.009.029.018.066.029.107h0s0,.005,0,.009c.007.029.014.061.022.1a2.373,2.373,0,0,1,.021,1.063.051.051,0,0,1-.006.021,2.487,2.487,0,0,1-.31.832,3.274,3.274,0,0,1-1.607,1.3,2.181,2.181,0,0,1,.118.491,1.73,1.73,0,0,1-.767,1.767,43.221,43.221,0,0,1-5.679,2.275c-.027.015-.052.026-.076.041a3.588,3.588,0,0,1-.7.223l-.014,0a66.191,66.191,0,0,1-9.128.931l-3.846.081S443.008,505.951,443.405,503.2Z" transform="translate(-443.381 -493.993)" fill="#ffa293"/>
          </g>
          <g id="Grupo_1234221" data-name="Grupo 1234221" transform="translate(16.552 3.302)">
            <g id="Grupo_1234220" data-name="Grupo 1234220">
              <path id="Trazado_1223619" data-name="Trazado 1223619" d="M443.285,505.487l.04,0,10.241-1.093a.376.376,0,0,0,.334-.414.372.372,0,0,0-.414-.334l-10.241,1.093a.377.377,0,0,0,.039.751Z" transform="translate(-442.909 -503.641)" fill="#323536"/>
            </g>
          </g>
          <g id="Grupo_1234223" data-name="Grupo 1234223" transform="translate(16.647 6.683)">
            <g id="Grupo_1234222" data-name="Grupo 1234222">
              <path id="Trazado_1223620" data-name="Trazado 1223620" d="M446.07,514.9h.026l9.192-.629a.376.376,0,1,0-.052-.751l-9.192.629a.376.376,0,0,0,.026.752Z" transform="translate(-445.693 -513.518)" fill="#323536"/>
            </g>
          </g>
          <g id="Grupo_1234225" data-name="Grupo 1234225" transform="translate(16.787 10.114)">
            <g id="Grupo_1234224" data-name="Grupo 1234224">
              <path id="Trazado_1223621" data-name="Trazado 1223621" d="M451.473,525.082l.041,0,7.2-.789a.377.377,0,0,0-.082-.749l-7.2.789a.376.376,0,0,0,.04.751Z" transform="translate(-451.097 -523.541)" fill="#323536"/>
            </g>
          </g>
        </g>
        <g id="Grupo_1234234" data-name="Grupo 1234234" transform="translate(63.356 39.773)">
          <g id="Grupo_1234227" data-name="Grupo 1234227" transform="translate(0.39)">
            <path id="Trazado_1223622" data-name="Trazado 1223622" d="M404.99,487s3.482-3.273,6.182,2.211c2.017,4.1-.555,11.9-2.191,11.984s-6.551-1.317-6.632-3.325a2.431,2.431,0,0,1,1.256-2.534s-.454-2.379.806-3.5c0,0-.527-2.007.586-2.68C405,489.153,404.4,489.081,404.99,487Z" transform="translate(-402.345 -486.027)" fill="#ffa293"/>
          </g>
          <g id="Grupo_1234229" data-name="Grupo 1234229" transform="translate(2.665 2.75)">
            <g id="Grupo_1234228" data-name="Grupo 1234228">
              <path id="Trazado_1223623" data-name="Trazado 1223623" d="M417.766,495.137a.376.376,0,0,0,.056-.749l-2.111-.323a.377.377,0,0,0-.114.744l2.111.323A.408.408,0,0,0,417.766,495.137Z" transform="translate(-415.277 -494.061)" fill="#323536"/>
            </g>
          </g>
          <g id="Grupo_1234231" data-name="Grupo 1234231" transform="translate(2.079 5.429)">
            <g id="Grupo_1234230" data-name="Grupo 1234230">
              <path id="Trazado_1223624" data-name="Trazado 1223624" d="M418.785,503.151a.376.376,0,0,0,.075-.745l-2.472-.509a.377.377,0,0,0-.152.738l2.472.509A.388.388,0,0,0,418.785,503.151Z" transform="translate(-415.936 -501.889)" fill="#323536"/>
            </g>
          </g>
          <g id="Grupo_1234233" data-name="Grupo 1234233" transform="translate(0 8.928)">
            <g id="Grupo_1234232" data-name="Grupo 1234232">
              <path id="Trazado_1223625" data-name="Trazado 1223625" d="M420.808,518.437a.377.377,0,0,0,.086-.743c-3.144-.738-4.569-1.871-4.236-3.365a2.155,2.155,0,0,1,.888-1.44l2.332.6a.377.377,0,0,0,.188-.729l-2.471-.637a.375.375,0,0,0-.229.013,2.7,2.7,0,0,0-1.443,2.028c-.441,1.977,1.174,3.411,4.8,4.263A.358.358,0,0,0,420.808,518.437Z" transform="translate(-415.852 -512.111)" fill="#323536"/>
            </g>
          </g>
        </g>
        <g id="Grupo_1234236" data-name="Grupo 1234236" transform="translate(23.279 33.971)">
          <g id="Grupo_1234235" data-name="Grupo 1234235">
            <path id="Trazado_1223626" data-name="Trazado 1223626" d="M538.817,483.321a.377.377,0,0,0,.354-.248c.114-.312,2.781-7.721,2.717-13.622a.37.37,0,0,0-.381-.372.376.376,0,0,0-.372.381c.063,5.763-2.645,13.282-2.672,13.357a.376.376,0,0,0,.354.505Z" transform="translate(-538.441 -469.078)" fill="#323536"/>
          </g>
        </g>
        <g id="Grupo_1234238" data-name="Grupo 1234238" transform="translate(8.453 44.887)">
          <g id="Grupo_1234237" data-name="Grupo 1234237">
            <path id="Trazado_1223627" data-name="Trazado 1223627" d="M563.145,504.1a.376.376,0,0,0,.063-.748l-13.98-2.38a.377.377,0,0,0-.126.742l13.98,2.38A.4.4,0,0,0,563.145,504.1Z" transform="translate(-548.788 -500.969)" fill="#323536"/>
          </g>
        </g>
        <g id="Grupo_1234240" data-name="Grupo 1234240" transform="translate(7.626 30.699)">
          <g id="Grupo_1234239" data-name="Grupo 1234239">
            <path id="Trazado_1223628" data-name="Trazado 1223628" d="M577.626,474.4a.376.376,0,0,0,.372-.32c.013-.088,1.363-8.813,5-13.97a.377.377,0,0,0-.615-.434c-3.741,5.3-5.075,13.928-5.13,14.292a.376.376,0,0,0,.316.428A.351.351,0,0,0,577.626,474.4Z" transform="translate(-577.249 -459.517)" fill="#323536"/>
          </g>
        </g>
        <g id="Grupo_1234242" data-name="Grupo 1234242" transform="translate(12.262 51.815)">
          <g id="Grupo_1234241" data-name="Grupo 1234241">
            <path id="Trazado_1223629" data-name="Trazado 1223629" d="M554.158,524.287a.378.378,0,0,0,.143-.028,48,48,0,0,1,8.384-2.3.376.376,0,0,0-.128-.742,48.923,48.923,0,0,0-8.542,2.347.376.376,0,0,0,.143.725Z" transform="translate(-553.781 -521.209)" fill="#323536"/>
          </g>
        </g>
        <g id="Grupo_1234244" data-name="Grupo 1234244" transform="translate(5.553 56.028)">
          <g id="Grupo_1234243" data-name="Grupo 1234243">
            <path id="Trazado_1223630" data-name="Trazado 1223630" d="M510.591,543.915a31.128,31.128,0,0,0,6.162-.719c9.419-1.932,18.469-7.954,18.559-8.014a.376.376,0,1,0-.419-.625c-.089.06-9.02,6-18.291,7.9-5.969,1.224-10.086.826-12.235-1.184-1.6-1.495-2.177-3.961-1.719-7.329a.377.377,0,1,0-.746-.1c-.493,3.624.163,6.309,1.951,7.98C505.346,543.22,507.572,543.915,510.591,543.915Z" transform="translate(-501.743 -533.518)" fill="#323536"/>
          </g>
        </g>
        <g id="Grupo_1234246" data-name="Grupo 1234246" transform="translate(36.501 57.076)">
          <g id="Grupo_1234245" data-name="Grupo 1234245">
            <path id="Trazado_1223631" data-name="Trazado 1223631" d="M471.373,538.536c9.377,0,11.365-1.21,11.45-1.264a.376.376,0,0,0-.4-.636c-.047.027-2.374,1.31-13.038,1.13h-.007a.377.377,0,0,0-.006.753Q470.423,538.536,471.373,538.536Z" transform="translate(-468.999 -536.578)" fill="#323536"/>
          </g>
        </g>
        <g id="Grupo_1234248" data-name="Grupo 1234248" transform="translate(26.786 64.843)">
          <g id="Grupo_1234247" data-name="Grupo 1234247">
            <path id="Trazado_1223632" data-name="Trazado 1223632" d="M488.72,581.126a.377.377,0,0,0,.308-.159c.088-.124,8.842-12.507,16.313-21.072a.377.377,0,1,0-.568-.495c-7.5,8.594-16.273,21.008-16.361,21.133a.376.376,0,0,0,.307.594Z" transform="translate(-488.344 -559.27)" fill="#323536"/>
          </g>
        </g>
        <g id="Grupo_1234250" data-name="Grupo 1234250" transform="translate(27.415 86.688)">
          <g id="Grupo_1234249" data-name="Grupo 1234249">
            <path id="Trazado_1223633" data-name="Trazado 1223633" d="M496.188,638.58a.376.376,0,0,0,.224-.679l-19.995-14.736a.376.376,0,1,0-.447.606l19.995,14.736A.375.375,0,0,0,496.188,638.58Z" transform="translate(-475.818 -623.092)" fill="#323536"/>
          </g>
        </g>
        <g id="Grupo_1234252" data-name="Grupo 1234252" transform="translate(20.414 46.077)">
          <g id="Grupo_1234251" data-name="Grupo 1234251">
            <path id="Trazado_1223634" data-name="Trazado 1223634" d="M505.264,511a.372.372,0,0,0,.113-.018c1.724-.544,12.691-2.1,12.8-2.113a.375.375,0,0,0,.2-.09l4.183-3.676a.376.376,0,0,0-.5-.565l-4.1,3.6c-1.232.175-11.1,1.586-12.811,2.125a.377.377,0,0,0,.113.736Z" transform="translate(-504.888 -504.446)" fill="#323536"/>
          </g>
        </g>
        <g id="Grupo_1234253" data-name="Grupo 1234253" transform="translate(27.112 22.999)">
          <path id="Trazado_1223635" data-name="Trazado 1223635" d="M512.3,441.039s-.916,5.82-6.457,4.444c-5.012-1.245-3.393-8.207-3.393-8.207a.864.864,0,0,0-1.126-.091s-2.147,8.015,4.384,9.626c7.268,1.792,7.713-5.743,7.713-5.743A.857.857,0,0,0,512.3,441.039Z" transform="translate(-500.989 -437.023)" fill="#fff"/>
        </g>
      </g>
      <g id="Grupo_1234263" data-name="Grupo 1234263" transform="translate(0.895 269.404)">
        <g id="Grupo_1234257" data-name="Grupo 1234257">
          <g id="Grupo_1234256" data-name="Grupo 1234256">
            <g id="Grupo_1234255" data-name="Grupo 1234255">
              <path id="Trazado_1223636" data-name="Trazado 1223636" d="M106.894,849.967H498.212a1.13,1.13,0,1,0,0-2.259H106.893a1.13,1.13,0,1,0,0,2.259Z" transform="translate(-105.763 -847.708)" fill="#3a3b51"/>
            </g>
          </g>
        </g>
        <g id="Grupo_1234260" data-name="Grupo 1234260" transform="translate(92.989 15.424)">
          <g id="Grupo_1234259" data-name="Grupo 1234259">
            <g id="Grupo_1234258" data-name="Grupo 1234258">
              <path id="Trazado_1223637" data-name="Trazado 1223637" d="M687.316,895.028h99.661a1.13,1.13,0,0,0,0-2.259H687.316a1.13,1.13,0,0,0,0,2.259Z" transform="translate(-686.186 -892.769)" fill="#3a3b51"/>
            </g>
          </g>
        </g>
        <g id="Grupo_1234262" data-name="Grupo 1234262" transform="translate(215.048 15.424)">
          <g id="Grupo_1234261" data-name="Grupo 1234261">
            <path id="Trazado_1223638" data-name="Trazado 1223638" d="M547.718,895.028H573.1a1.13,1.13,0,0,0,0-2.259H547.718a1.13,1.13,0,0,0,0,2.259Z" transform="translate(-546.588 -892.769)" fill="#3a3b51"/>
          </g>
        </g>
      </g>
    </g>
  </g>
</svg>
