<svg xmlns="http://www.w3.org/2000/svg" xmlns:xlink="http://www.w3.org/1999/xlink" width="108" height="108" viewBox="0 0 108 108">
  <defs>
    <filter id="Trazado_904820" x="0" y="0" width="108" height="108" filterUnits="userSpaceOnUse">
      <feOffset dy="3" input="SourceAlpha"/>
      <feGaussianBlur stdDeviation="3" result="blur"/>
      <feFlood flood-opacity="0.161"/>
      <feComposite operator="in" in2="blur"/>
      <feComposite in="SourceGraphic"/>
    </filter>
  </defs>
  <g id="Grupo_1234266" data-name="Grupo 1234266" transform="translate(9 6)">
    <g id="Grupo_1232796" data-name="Grupo 1232796" transform="translate(0 0)">
      <g id="Grupo_1230695" data-name="Grupo 1230695">
        <g id="Grupo_1224979" data-name="Grupo 1224979">
          <g id="Grupo_1173585" data-name="Grupo 1173585">
            <g id="Grupo_1173428" data-name="Grupo 1173428">
              <g id="Grupo_1171958" data-name="Grupo 1171958">
                <g id="Grupo_1167341" data-name="Grupo 1167341">
                  <g id="Grupo_1166792" data-name="Grupo 1166792">
                    <g transform="matrix(1, 0, 0, 1, -9, -6)" filter="url(#Trazado_904820)">
                      <g id="Trazado_904820-2" data-name="Trazado 904820" transform="translate(9 6)" fill="#fef9e5">
                        <path d="M 44.99999618530273 88.50002288818359 C 39.12687301635742 88.50002288818359 33.43022155761719 87.35009765625 28.06829643249512 85.08218383789062 C 22.88852119445801 82.89133453369141 18.23629570007324 79.75460815429688 14.24084663391113 75.75916290283203 C 10.24540901184082 71.76371002197266 7.108683586120605 67.11148834228516 4.917821407318115 61.93171310424805 C 2.649921178817749 56.56978607177734 1.499996185302734 50.87313461303711 1.499996185302734 45.0000114440918 C 1.499996185302734 39.12688827514648 2.649921178817749 33.43023681640625 4.917821407318115 28.06829833984375 C 7.108683586120605 22.88852310180664 10.24540901184082 18.2363109588623 14.24084663391113 14.2408618927002 C 18.23629570007324 10.24541187286377 22.88852119445801 7.108686447143555 28.06829643249512 4.917823791503906 C 33.43022155761719 2.649924039840698 39.12687301635742 1.499998927116394 44.99999618530273 1.499998927116394 C 50.87311935424805 1.499998927116394 56.56977081298828 2.649924039840698 61.93169784545898 4.917823791503906 C 67.11147308349609 7.108686447143555 71.76369476318359 10.24541187286377 75.75914764404297 14.2408618927002 C 79.75458526611328 18.2363109588623 82.89131164550781 22.88852310180664 85.08216857910156 28.06829833984375 C 87.35007476806641 33.43023681640625 88.5 39.12688827514648 88.5 45.0000114440918 C 88.5 50.87313461303711 87.35007476806641 56.56978607177734 85.08216857910156 61.93171310424805 C 82.89131164550781 67.11148834228516 79.75458526611328 71.76371002197266 75.75914764404297 75.75916290283203 C 71.76369476318359 79.75460815429688 67.11147308349609 82.89133453369141 61.93169784545898 85.08218383789062 C 56.56977081298828 87.35009765625 50.87311935424805 88.50002288818359 44.99999618530273 88.50002288818359 Z" stroke="none"/>
                        <path d="M 44.99999618530273 3 C 39.32870864868164 3 33.82865142822266 4.110054016113281 28.65262603759766 6.299339294433594 C 23.65165710449219 8.414566040039062 19.15968322753906 11.44333648681641 15.301513671875 15.30152893066406 C 11.44333648681641 19.15969848632812 8.414566040039062 23.65165710449219 6.299339294433594 28.65264129638672 C 4.110054016113281 33.82866668701172 2.999992370605469 39.3287239074707 2.999992370605469 45.0000114440918 C 2.999992370605469 50.67129898071289 4.110054016113281 56.17135620117188 6.299339294433594 61.34738159179688 C 8.414566040039062 66.34836578369141 11.44333648681641 70.84032440185547 15.301513671875 74.69849395751953 C 19.15968322753906 78.55668640136719 23.65165710449219 81.58545684814453 28.65262603759766 83.70068359375 C 33.82865142822266 85.88996887207031 39.32870864868164 87.00002288818359 44.99999618530273 87.00002288818359 C 50.67128372192383 87.00002288818359 56.17134094238281 85.88996887207031 61.34736633300781 83.70068359375 C 66.34834289550781 81.58545684814453 70.84030914306641 78.55668640136719 74.69847869873047 74.69849395751953 C 78.55665588378906 70.84032440185547 81.58542633056641 66.34836578369141 83.70065307617188 61.34738159179688 C 85.88993835449219 56.17135620117188 87 50.67129898071289 87 45.0000114440918 C 87 39.3287239074707 85.88993835449219 33.82866668701172 83.70065307617188 28.65264129638672 C 81.58542633056641 23.65165710449219 78.55665588378906 19.15969848632812 74.69847869873047 15.30152893066406 C 70.84030914306641 11.44333648681641 66.34834289550781 8.414566040039062 61.34736633300781 6.299339294433594 C 56.17134094238281 4.110054016113281 50.67128372192383 3 44.99999618530273 3 M 44.99999618530273 0 C 69.85281372070312 0 90 20.14719390869141 90 45.0000114440918 C 90 69.85282897949219 69.85281372070312 90.00002288818359 44.99999618530273 90.00002288818359 C 20.14717864990234 90.00002288818359 -7.62939453125e-06 69.85282897949219 -7.62939453125e-06 45.0000114440918 C -7.62939453125e-06 20.14719390869141 20.14717864990234 0 44.99999618530273 0 Z" stroke="none" fill="#866d08"/>
                      </g>
                    </g>
                  </g>
                </g>
              </g>
            </g>
          </g>
        </g>
      </g>
    </g>
    <g id="amenaza-cibernetica" transform="translate(17.124 17.125)">
      <rect id="Rectángulo_423565" data-name="Rectángulo 423565" width="48" height="47" rx="2" transform="translate(0.875 0.875)" fill="#e0e3ee"/>
      <path id="Trazado_1223639" data-name="Trazado 1223639" d="M51,5H7A2,2,0,0,0,5,7v4H53V7A2,2,0,0,0,51,5Z" transform="translate(-4.125 -4.125)" fill="#1e88e5"/>
      <path id="Trazado_1223640" data-name="Trazado 1223640" d="M51,46H7a2,2,0,0,1-2-2v6a2,2,0,0,0,2,2H51a2,2,0,0,0,2-2V44A2,2,0,0,1,51,46Z" transform="translate(-4.125 -4.125)" fill="#c5cae9"/>
      <path id="Trazado_1223641" data-name="Trazado 1223641" d="M58.551,54.032,47.94,35.656a3.313,3.313,0,0,0-5.737,0L31.591,54.032A3.312,3.312,0,0,0,34.46,59H55.683a3.312,3.312,0,0,0,2.869-4.968Z" transform="translate(-4.125 -4.125)" fill="#f65454"/>
      <path id="Trazado_1223642" data-name="Trazado 1223642" d="M20.943,19.9A10.342,10.342,0,0,0,10.886,29.953c0,4.642,2.146,7.1,4.642,8.239v3.365A1.547,1.547,0,0,0,17.075,43.1h7.736a1.547,1.547,0,0,0,1.547-1.547V38.192c2.5-1.139,4.642-3.6,4.642-8.239A10.342,10.342,0,0,0,20.943,19.9Z" transform="translate(-4.125 -4.125)" fill="#1e88e5"/>
      <g id="Grupo_1234265" data-name="Grupo 1234265">
        <path id="Trazado_1223643" data-name="Trazado 1223643" d="M53,36.874A.875.875,0,0,1,52.125,36V7A1.127,1.127,0,0,0,51,5.875H16a.875.875,0,0,1,0-1.75H51A2.879,2.879,0,0,1,53.875,7V36A.875.875,0,0,1,53,36.874Z" transform="translate(-4.125 -4.125)" fill="#1a237e"/>
        <path id="Trazado_1223644" data-name="Trazado 1223644" d="M55.683,59.875H34.46a4.187,4.187,0,0,1-3.627-6.28L41.444,35.219a4.147,4.147,0,0,1,3.627-2.094h0A4.146,4.146,0,0,1,48.7,35.219l8.446,14.626a.875.875,0,0,1-1.516.875L47.182,36.094a2.437,2.437,0,0,0-4.222,0L32.349,54.47a2.437,2.437,0,0,0,2.111,3.655H55.683a2.437,2.437,0,0,0,2.111-3.655.875.875,0,0,1,1.516-.875,4.187,4.187,0,0,1-3.627,6.28Z" transform="translate(-4.125 -4.125)" fill="#1a237e"/>
        <path id="Trazado_1223645" data-name="Trazado 1223645" d="M27.725,52.875H7A2.879,2.879,0,0,1,4.125,50V7A2.879,2.879,0,0,1,7,4.125h4a.875.875,0,0,1,0,1.75H7A1.127,1.127,0,0,0,5.875,7V50A1.127,1.127,0,0,0,7,51.125H27.725a.875.875,0,0,1,0,1.75Z" transform="translate(-4.125 -4.125)" fill="#1a237e"/>
        <path id="Trazado_1223646" data-name="Trazado 1223646" d="M53,11.875H5a.875.875,0,0,1,0-1.75H53a.875.875,0,0,1,0,1.75Z" transform="translate(-4.125 -4.125)" fill="#1a237e"/>
        <path id="Trazado_1223647" data-name="Trazado 1223647" d="M19.065,43.979a.875.875,0,0,1-.875-.875V39.236a.875.875,0,0,1,1.75,0V43.1A.875.875,0,0,1,19.065,43.979Z" transform="translate(-4.125 -4.125)" fill="#1a237e"/>
        <path id="Trazado_1223648" data-name="Trazado 1223648" d="M22.821,43.979a.875.875,0,0,1-.875-.875V39.236a.875.875,0,0,1,1.75,0V43.1A.875.875,0,0,1,22.821,43.979Z" transform="translate(-4.125 -4.125)" fill="#1a237e"/>
        <path id="Trazado_1223649" data-name="Trazado 1223649" d="M24.812,43.979H17.075a2.425,2.425,0,0,1-2.422-2.423V38.735c-3-1.6-4.642-4.7-4.642-8.782A11.218,11.218,0,0,1,20.943,19.021,11.218,11.218,0,0,1,31.875,29.953c0,4.082-1.643,7.177-4.642,8.782v2.821a2.425,2.425,0,0,1-2.422,2.423ZM20.943,20.771a9.422,9.422,0,0,0-9.182,9.183c0,4.594,2.246,6.583,4.13,7.443a.875.875,0,0,1,.512.8v3.364a.673.673,0,0,0,.672.673h7.736a.673.673,0,0,0,.672-.673V38.192A.875.875,0,0,1,26,37.4c1.884-.86,4.13-2.851,4.13-7.443a9.422,9.422,0,0,0-9.182-9.183Z" transform="translate(-4.125 -4.125)" fill="#1a237e"/>
        <path id="Trazado_1223650" data-name="Trazado 1223650" d="M17.518,29.366c-1.1-.522-2.158-.593-2.531.192a2.23,2.23,0,0,0,3.981,1.891C19.341,30.664,18.617,29.888,17.518,29.366Z" transform="translate(-4.125 -4.125)" fill="#1a237e"/>
        <path id="Trazado_1223651" data-name="Trazado 1223651" d="M24.368,29.366c1.1-.522,2.158-.593,2.531.192a2.23,2.23,0,0,1-3.981,1.891C22.545,30.664,23.269,29.888,24.368,29.366Z" transform="translate(-4.125 -4.125)" fill="#1a237e"/>
        <path id="Trazado_1223652" data-name="Trazado 1223652" d="M32.76,23.558H27.725a.875.875,0,0,1,0-1.75H32.4l3.725-3.726a.875.875,0,0,1,.619-.256h5.43a.875.875,0,0,1,0,1.75H37.1L33.379,23.3a.875.875,0,0,1-.619.256Z" transform="translate(-4.125 -4.125)" fill="#1a237e"/>
        <path id="Trazado_1223653" data-name="Trazado 1223653" d="M44.456,21.862A3.161,3.161,0,1,1,47.617,18.7,3.164,3.164,0,0,1,44.456,21.862Zm0-4.571a1.411,1.411,0,1,0,1.411,1.41,1.412,1.412,0,0,0-1.411-1.41Z" transform="translate(-4.125 -4.125)" fill="#1a237e"/>
        <path id="Trazado_1223654" data-name="Trazado 1223654" d="M44.456,30.159A3.161,3.161,0,1,1,47.617,27a3.164,3.164,0,0,1-3.161,3.16Zm0-4.571A1.411,1.411,0,1,0,45.867,27,1.412,1.412,0,0,0,44.456,25.588Z" transform="translate(-4.125 -4.125)" fill="#1a237e"/>
        <path id="Trazado_1223655" data-name="Trazado 1223655" d="M42.171,27.874H30.506a.875.875,0,0,1,0-1.75H42.171a.875.875,0,0,1,0,1.75Z" transform="translate(-4.125 -4.125)" fill="#1a237e"/>
        <path id="Trazado_1223656" data-name="Trazado 1223656" d="M37.092,37.468a.874.874,0,0,1-.619-.257l-2.335-2.336H30.307a.875.875,0,0,1,0-1.75H34.5a.872.872,0,0,1,.619.257l2.592,2.593a.875.875,0,0,1-.619,1.493Z" transform="translate(-4.125 -4.125)" fill="#1a237e"/>
        <path id="Trazado_1223657" data-name="Trazado 1223657" d="M32,19.576H29a.875.875,0,0,1,0-1.75h3a.875.875,0,0,1,0,1.75Z" transform="translate(-4.125 -4.125)" fill="#1a237e"/>
        <path id="Trazado_1223658" data-name="Trazado 1223658" d="M40.023,23.558H37.365a.875.875,0,0,1,0-1.75h2.658a.875.875,0,0,1,0,1.75Z" transform="translate(-4.125 -4.125)" fill="#1a237e"/>
        <path id="Trazado_1223659" data-name="Trazado 1223659" d="M40.023,31.573H35.241a.875.875,0,0,1,0-1.75h4.782a.875.875,0,0,1,0,1.75Z" transform="translate(-4.125 -4.125)" fill="#1a237e"/>
      </g>
      <path id="Trazado_1223660" data-name="Trazado 1223660" d="M49,7.125H48a.875.875,0,0,0,0,1.75h1a.875.875,0,0,0,0-1.75Z" transform="translate(-4.125 -4.125)" fill="#fff"/>
      <path id="Trazado_1223661" data-name="Trazado 1223661" d="M44.875,8A.875.875,0,0,0,44,7.125H37a.875.875,0,0,0,0,1.75h7A.875.875,0,0,0,44.875,8Z" transform="translate(-4.125 -4.125)" fill="#fff"/>
      <path id="Trazado_1223662" data-name="Trazado 1223662" d="M45.071,52.683a.875.875,0,0,0-.875.875v.571a.875.875,0,0,0,1.75,0v-.571A.875.875,0,0,0,45.071,52.683Z" transform="translate(-4.125 -4.125)" fill="#fff"/>
      <path id="Trazado_1223663" data-name="Trazado 1223663" d="M45.071,41.123A.875.875,0,0,0,44.2,42v7.185a.875.875,0,0,0,1.75,0V42A.875.875,0,0,0,45.071,41.123Z" transform="translate(-4.125 -4.125)" fill="#fff"/>
      <path id="Trazado_1223664" data-name="Trazado 1223664" d="M17,14.125H10a.875.875,0,0,0,0,1.75h7a.875.875,0,0,0,0-1.75Z" transform="translate(-4.125 -4.125)" fill="#fff"/>
    </g>
  </g>
</svg>
