<svg xmlns="http://www.w3.org/2000/svg" xmlns:xlink="http://www.w3.org/1999/xlink" width="113" height="113" viewBox="0 0 113 113">
  <defs>
    <filter id="Trazado_982547" x="0" y="0.001" width="113" height="113" filterUnits="userSpaceOnUse">
      <feOffset dy="3" input="SourceAlpha"/>
      <feGaussianBlur stdDeviation="3" result="blur"/>
      <feFlood flood-opacity="0.161"/>
      <feComposite operator="in" in2="blur"/>
      <feComposite in="SourceGraphic"/>
    </filter>
  </defs>
  <g id="Grupo_1234296" data-name="Grupo 1234296" transform="translate(-271.425 -11837.559)">
    <g id="Grupo_1232802" data-name="Grupo 1232802" transform="translate(0 4073.337)">
      <g id="Grupo_1229014" data-name="Grupo 1229014" transform="translate(0 2131.042)">
        <g id="Grupo_1227502" data-name="Grupo 1227502" transform="translate(0 2048.198)">
          <g id="Grupo_1225350" data-name="Grupo 1225350" transform="translate(-0.575 -393.641)">
            <g id="Grupo_1208121" data-name="Grupo 1208121" transform="translate(0 -1922.377)">
              <g id="Grupo_1202432" data-name="Grupo 1202432" transform="translate(0 1255.486)">
                <g id="Grupo_1202055" data-name="Grupo 1202055" transform="translate(0 3240.511)">
                  <g id="Grupo_1177900" data-name="Grupo 1177900" transform="translate(281 1411.003)">
                    <g id="Grupo_1172010" data-name="Grupo 1172010" transform="translate(0)">
                      <g id="Grupo_1171046" data-name="Grupo 1171046">
                        <g id="Grupo_1148525" data-name="Grupo 1148525">
                          <g transform="matrix(1, 0, 0, 1, -9, -6)" filter="url(#Trazado_982547)">
                            <g id="Trazado_982547-2" data-name="Trazado 982547" transform="translate(9 6)" fill="#cefcf7">
                              <path d="M 47.5 93.5 C 41.28937149047852 93.5 35.26533508300781 92.28397369384766 29.59518623352051 89.88570404052734 C 24.11771965026855 87.56893157958984 19.19813346862793 84.25196075439453 14.97309303283691 80.02691650390625 C 10.74804019927979 75.80186462402344 7.431066513061523 70.88229370117188 5.114293098449707 65.40481567382812 C 2.716026782989502 59.73468017578125 1.5 53.71062850952148 1.5 47.5 C 1.5 41.28937149047852 2.716026782989502 35.26533508300781 5.114293098449707 29.59518623352051 C 7.431066513061523 24.11771965026855 10.74804019927979 19.19813346862793 14.97309303283691 14.97309303283691 C 19.19813346862793 10.74804019927979 24.11771965026855 7.431066513061523 29.59518623352051 5.114293098449707 C 35.26533508300781 2.716026782989502 41.28937149047852 1.5 47.5 1.5 C 53.71062850952148 1.5 59.73468017578125 2.716026782989502 65.40481567382812 5.114293098449707 C 70.88229370117188 7.431066513061523 75.80186462402344 10.74804019927979 80.02691650390625 14.97309303283691 C 84.25196075439453 19.19813346862793 87.56893157958984 24.11771965026855 89.88570404052734 29.59518623352051 C 92.28397369384766 35.26533508300781 93.5 41.28937149047852 93.5 47.5 C 93.5 53.71062850952148 92.28397369384766 59.73468017578125 89.88570404052734 65.40481567382812 C 87.56893157958984 70.88229370117188 84.25196075439453 75.80186462402344 80.02691650390625 80.02691650390625 C 75.80186462402344 84.25196075439453 70.88229370117188 87.56893157958984 65.40481567382812 89.88570404052734 C 59.73468017578125 92.28397369384766 53.71062850952148 93.5 47.5 93.5 Z" stroke="none"/>
                              <path d="M 47.5 3 C 41.49121475219727 3 35.66376876831055 4.176155090332031 30.17950439453125 6.495796203613281 C 24.88084411621094 8.736953735351562 20.12152099609375 11.94598388671875 16.03375244140625 16.03375244140625 C 11.94598388671875 20.12152099609375 8.736953735351562 24.88084411621094 6.495796203613281 30.17950439453125 C 4.176155090332031 35.66376876831055 3 41.49121475219727 3 47.5 C 3 53.50878524780273 4.176155090332031 59.33623123168945 6.495796203613281 64.82049560546875 C 8.736953735351562 70.11915588378906 11.94598388671875 74.87847900390625 16.03375244140625 78.96624755859375 C 20.12152099609375 83.05401611328125 24.88084411621094 86.26304626464844 30.17950439453125 88.50419616699219 C 35.66376876831055 90.82384490966797 41.49121475219727 92 47.5 92 C 53.50878524780273 92 59.33623123168945 90.82384490966797 64.82049560546875 88.50419616699219 C 70.11915588378906 86.26304626464844 74.87847900390625 83.05401611328125 78.96624755859375 78.96624755859375 C 83.05401611328125 74.87847900390625 86.26304626464844 70.11915588378906 88.50419616699219 64.82049560546875 C 90.82384490966797 59.33623123168945 92 53.50878524780273 92 47.5 C 92 41.49121475219727 90.82384490966797 35.66376876831055 88.50419616699219 30.17950439453125 C 86.26304626464844 24.88084411621094 83.05401611328125 20.12152099609375 78.96624755859375 16.03375244140625 C 74.87847900390625 11.94598388671875 70.11915588378906 8.736953735351562 64.82049560546875 6.495796203613281 C 59.33623123168945 4.176155090332031 53.50878524780273 3 47.5 3 M 47.5 0 C 73.7335205078125 0 95 21.2664794921875 95 47.5 C 95 73.7335205078125 73.7335205078125 95 47.5 95 C 21.2664794921875 95 0 73.7335205078125 0 47.5 C 0 21.2664794921875 21.2664794921875 0 47.5 0 Z" stroke="none" fill="#098576"/>
                            </g>
                          </g>
                        </g>
                      </g>
                    </g>
                  </g>
                </g>
              </g>
            </g>
          </g>
        </g>
      </g>
    </g>
    <g id="gestion-de-equipos_2_" data-name="gestion-de-equipos (2)" transform="translate(294.614 11852.483)">
      <g id="Grupo_1234272" data-name="Grupo 1234272" transform="translate(18.458 1.411)">
        <g id="Grupo_1234267" data-name="Grupo 1234267">
          <circle id="Elipse_13843" data-name="Elipse 13843" cx="14.853" cy="14.853" r="14.853" fill="#f7e365"/>
        </g>
        <g id="Grupo_1234268" data-name="Grupo 1234268" transform="translate(2.932 2.932)">
          <path id="Trazado_1223665" data-name="Trazado 1223665" d="M185.168,30.468A14.854,14.854,0,0,1,164.386,51.25a14.854,14.854,0,1,0,20.782-20.782Z" transform="translate(-164.386 -30.468)" fill="#f3d332"/>
        </g>
        <g id="Grupo_1234271" data-name="Grupo 1234271" transform="translate(6.003 5.494)">
          <g id="Grupo_1234269" data-name="Grupo 1234269">
            <path id="Trazado_1223666" data-name="Trazado 1223666" d="M203.414,59.47l1.931-2.1a1.315,1.315,0,0,0,.172-1.548l-1.137-1.969a1.315,1.315,0,0,0-1.426-.625l-2.781.624-.089-.051-.85-2.72a1.315,1.315,0,0,0-1.255-.922h-2.274a1.314,1.314,0,0,0-1.255.922l-.85,2.72-.089.051-2.781-.624a1.314,1.314,0,0,0-1.426.625l-1.137,1.969a1.315,1.315,0,0,0,.171,1.548l1.931,2.1v.1l-1.931,2.1a1.315,1.315,0,0,0-.171,1.548l1.137,1.969a1.315,1.315,0,0,0,1.426.625l2.781-.624.089.051.85,2.72a1.315,1.315,0,0,0,1.255.922h2.273a1.314,1.314,0,0,0,1.255-.922l.85-2.72.089-.051,2.781.624a1.314,1.314,0,0,0,1.426-.625l1.137-1.969a1.315,1.315,0,0,0-.172-1.548l-1.931-2.1v-.1Zm-6.571,2.154a2.1,2.1,0,1,1,2.1-2.1A2.1,2.1,0,0,1,196.844,61.623Z" transform="translate(-187.994 -50.161)" fill="#62a4fb"/>
          </g>
          <g id="Grupo_1234270" data-name="Grupo 1234270" transform="translate(5.763 3.038)">
            <path id="Trazado_1223667" data-name="Trazado 1223667" d="M241.94,79.879v-.1l1.931-2.1a1.315,1.315,0,0,0,.171-1.548l-1.137-1.969a1.315,1.315,0,0,0-1.426-.625l-1.579.354a9.259,9.259,0,0,1-7.619,12.146l.7,2.226a1.315,1.315,0,0,0,1.255.922h2.273a1.314,1.314,0,0,0,1.255-.922l.85-2.72.088-.051,2.781.624a1.314,1.314,0,0,0,1.426-.625l1.137-1.969a1.315,1.315,0,0,0-.171-1.548Z" transform="translate(-232.282 -73.507)" fill="#5392f9"/>
          </g>
        </g>
      </g>
      <g id="Grupo_1234288" data-name="Grupo 1234288" transform="translate(14.645 25.624)">
        <g id="Grupo_1234277" data-name="Grupo 1234277" transform="translate(21.033)">
          <g id="Grupo_1234273" data-name="Grupo 1234273" transform="translate(0 10.516)">
            <path id="Trazado_1223668" data-name="Trazado 1223668" d="M274.2,279.564v12.477h16.3V279.564a4.732,4.732,0,0,0-4.732-4.732H278.93A4.732,4.732,0,0,0,274.2,279.564Z" transform="translate(-274.198 -274.832)" fill="#e175a5"/>
          </g>
          <g id="Grupo_1234274" data-name="Grupo 1234274" transform="translate(0 10.516)">
            <path id="Trazado_1223669" data-name="Trazado 1223669" d="M283.135,279.563a7.846,7.846,0,0,0-1.582-4.732H278.93a4.732,4.732,0,0,0-4.732,4.732V292.04h8.937Z" transform="translate(-274.198 -274.831)" fill="#de5791"/>
          </g>
          <g id="Grupo_1234275" data-name="Grupo 1234275" transform="translate(2.892)">
            <circle id="Elipse_13844" data-name="Elipse 13844" cx="5.258" cy="5.258" r="5.258" fill="#fed2a4"/>
          </g>
          <g id="Grupo_1234276" data-name="Grupo 1234276" transform="translate(3.509 0.617)">
            <path id="Trazado_1223670" data-name="Trazado 1223670" d="M308.277,198.759a5.258,5.258,0,0,1-7.113,7.113,5.258,5.258,0,1,0,7.113-7.113Z" transform="translate(-301.164 -198.759)" fill="#ffbd86"/>
          </g>
        </g>
        <g id="Grupo_1234282" data-name="Grupo 1234282">
          <g id="Grupo_1234278" data-name="Grupo 1234278" transform="translate(0 10.516)">
            <path id="Trazado_1223671" data-name="Trazado 1223671" d="M112.552,279.564v12.477h16.3V279.564a4.732,4.732,0,0,0-4.732-4.732h-6.835A4.732,4.732,0,0,0,112.552,279.564Z" transform="translate(-112.552 -274.832)" fill="#e175a5"/>
          </g>
          <g id="Grupo_1234279" data-name="Grupo 1234279" transform="translate(7.362 10.516)">
            <path id="Trazado_1223672" data-name="Trazado 1223672" d="M178.067,292.041V279.564a4.732,4.732,0,0,0-4.732-4.732h-2.624a7.846,7.846,0,0,0-1.582,4.732v12.477Z" transform="translate(-169.13 -274.832)" fill="#de5791"/>
          </g>
          <g id="Grupo_1234280" data-name="Grupo 1234280" transform="translate(2.892)">
            <circle id="Elipse_13845" data-name="Elipse 13845" cx="5.258" cy="5.258" r="5.258" fill="#fed2a4"/>
          </g>
          <g id="Grupo_1234281" data-name="Grupo 1234281" transform="translate(3.509 0.617)">
            <path id="Trazado_1223673" data-name="Trazado 1223673" d="M146.631,198.759a5.258,5.258,0,0,1-7.113,7.113,5.258,5.258,0,1,0,7.113-7.113Z" transform="translate(-139.518 -198.759)" fill="#ffbd86"/>
          </g>
        </g>
        <g id="Grupo_1234287" data-name="Grupo 1234287" transform="translate(10.517)">
          <g id="Grupo_1234283" data-name="Grupo 1234283" transform="translate(0 10.516)">
            <path id="Trazado_1223674" data-name="Trazado 1223674" d="M193.375,279.564v12.477h16.3V279.564a4.732,4.732,0,0,0-4.732-4.732h-6.835A4.732,4.732,0,0,0,193.375,279.564Z" transform="translate(-193.375 -274.832)" fill="#62a4fb"/>
          </g>
          <g id="Grupo_1234284" data-name="Grupo 1234284" transform="translate(8.15 10.516)">
            <path id="Trazado_1223675" data-name="Trazado 1223675" d="M259.425,274.832h-3.418a4.732,4.732,0,0,1,4.732,4.732v12.477h3.418V279.564A4.732,4.732,0,0,0,259.425,274.832Z" transform="translate(-256.007 -274.832)" fill="#5392f9"/>
          </g>
          <g id="Grupo_1234285" data-name="Grupo 1234285" transform="translate(2.892)">
            <circle id="Elipse_13846" data-name="Elipse 13846" cx="5.258" cy="5.258" r="5.258" fill="#fed2a4"/>
          </g>
          <g id="Grupo_1234286" data-name="Grupo 1234286" transform="translate(3.509 0.617)">
            <path id="Trazado_1223676" data-name="Trazado 1223676" d="M227.454,198.759a5.258,5.258,0,0,1-7.113,7.113,5.258,5.258,0,1,0,7.113-7.113Z" transform="translate(-220.341 -198.759)" fill="#ffbd86"/>
          </g>
        </g>
      </g>
      <g id="Grupo_1234294" data-name="Grupo 1234294" transform="translate(0.976 42.508)">
        <g id="Grupo_1234289" data-name="Grupo 1234289" transform="translate(8.412 4.531)">
          <path id="Trazado_1223677" data-name="Trazado 1223677" d="M72.152,358.6h4.732v16.825H72.152Z" transform="translate(-72.152 -358.597)" fill="#d3effd"/>
        </g>
        <g id="Grupo_1234290" data-name="Grupo 1234290" transform="translate(13.145)">
          <path id="Trazado_1223678" data-name="Trazado 1223678" d="M159.122,324.7a3.155,3.155,0,0,0-4.461,0l-9.916,9.916H135.6a3.155,3.155,0,0,0,0-6.309h-9.99l-2.027-1.643a10.3,10.3,0,0,0-12.874-.084l-2.187,1.727v16.825l19.04,1.194a10.516,10.516,0,0,0,3.761-.448l14.792-4.568A5.258,5.258,0,0,0,148.279,340l10.843-10.843A3.155,3.155,0,0,0,159.122,324.7Z" transform="translate(-108.519 -323.775)" fill="#fed2a4"/>
        </g>
        <g id="Grupo_1234291" data-name="Grupo 1234291" transform="translate(32.044)">
          <path id="Trazado_1223679" data-name="Trazado 1223679" d="M285.467,324.7a3.155,3.155,0,0,0-4.461,0l-9.916,9.916h-1.882a38.607,38.607,0,0,1-3.162,3.578,35.311,35.311,0,0,1-12.282,8.123l.141.009a10.514,10.514,0,0,0,3.761-.448l14.792-4.568A5.259,5.259,0,0,0,274.623,340l10.843-10.843A3.155,3.155,0,0,0,285.467,324.7Z" transform="translate(-253.763 -323.775)" fill="#ffbd86"/>
        </g>
        <g id="Grupo_1234292" data-name="Grupo 1234292" transform="translate(0 2.428)">
          <path id="Trazado_1223680" data-name="Trazado 1223680" d="M7.5,342.434h8.412v21.031H7.5Z" transform="translate(-7.5 -342.434)" fill="#62a4fb"/>
        </g>
        <g id="Grupo_1234293" data-name="Grupo 1234293" transform="translate(5.521 2.428)">
          <path id="Trazado_1223681" data-name="Trazado 1223681" d="M49.928,342.434H52.82v21.031H49.928Z" transform="translate(-49.928 -342.434)" fill="#5392f9"/>
        </g>
      </g>
      <g id="Grupo_1234295" data-name="Grupo 1234295" transform="translate(0 0.435)">
        <circle id="Elipse_13847" data-name="Elipse 13847" cx="1.052" cy="1.052" r="1.052" transform="translate(4.131 47.655)"/>
        <circle id="Elipse_13848" data-name="Elipse 13848" cx="1.052" cy="1.052" r="1.052" transform="translate(4.131 51.862)"/>
        <path id="Trazado_1223682" data-name="Trazado 1223682" d="M238.5,101.505a3.079,3.079,0,1,0-3.079,3.079A3.083,3.083,0,0,0,238.5,101.505Zm-3.079,1.127a1.127,1.127,0,1,1,1.127-1.127A1.129,1.129,0,0,1,235.422,102.632Z" transform="translate(-202.111 -85.675)"/>
        <path id="Trazado_1223683" data-name="Trazado 1223683" d="M65.413,42.742a4.131,4.131,0,0,0-5.842,0L52.954,49.36V46.149a.976.976,0,1,0-1.952,0v5.164l-1.06,1.06H44.706a4.133,4.133,0,0,0-2.269-6.121v-5.38a5.683,5.683,0,0,0-1.415-3.756h6.225A3.76,3.76,0,0,1,51,40.872v.722a.976.976,0,1,0,1.952,0v-.722a5.716,5.716,0,0,0-4.69-5.616A6.226,6.226,0,0,0,46.381,25.2a15.874,15.874,0,0,0,2.76-8.932A15.693,15.693,0,0,0,44.371,4.943a.976.976,0,0,0-1.363,1.4,13.756,13.756,0,0,1,4.181,9.925,13.91,13.91,0,0,1-2.836,8.407c-.173-.015-.348-.024-.525-.024A6.233,6.233,0,0,0,38.57,27.54a6.28,6.28,0,0,0-2.153-2.06,2.315,2.315,0,0,0,.217-.487l.6-1.929,1.972.442a2.28,2.28,0,0,0,2.485-1.09l1.137-1.969a2.281,2.281,0,0,0-.3-2.7l-1.369-1.486,1.369-1.486a2.28,2.28,0,0,0,.3-2.7l-1.137-1.969a2.28,2.28,0,0,0-2.485-1.09l-1.972.442-.6-1.929A2.281,2.281,0,0,0,34.448,5.93H32.175a2.28,2.28,0,0,0-2.186,1.607l-.6,1.929-1.972-.442a2.28,2.28,0,0,0-2.485,1.09l-1.137,1.969a2.281,2.281,0,0,0,.3,2.7l1.369,1.486-1.369,1.486a2.281,2.281,0,0,0-.3,2.7l1.137,1.969a2.28,2.28,0,0,0,2.485,1.09l1.972-.442.6,1.929a2.31,2.31,0,0,0,.217.488,6.278,6.278,0,0,0-2.153,2.06,6.233,6.233,0,0,0-5.258-2.892c-.177,0-.352.009-.525.024A13.878,13.878,0,0,1,33.311,2.387,13.736,13.736,0,0,1,39.559,3.87a.976.976,0,1,0,.88-1.742A15.669,15.669,0,0,0,33.311.435,15.83,15.83,0,0,0,20.242,25.2a6.227,6.227,0,0,0-1.883,10.06,5.716,5.716,0,0,0-4.69,5.615v5.192h-3.3V44.936a.976.976,0,0,0-.976-.976H.976A.976.976,0,0,0,0,44.936V65.967a.976.976,0,0,0,.976.976H9.388a.976.976,0,0,0,.976-.976V64.84H14.1l12.8.8a.976.976,0,0,0,.122-1.948L15.1,62.947V47.512l1.816-1.434a9.327,9.327,0,0,1,11.654.077L30.594,47.8a.976.976,0,0,0,.614.218H41.2a2.179,2.179,0,0,1,0,4.358h-11.3a.975.975,0,0,0-.69.286l-1.38,1.38a.976.976,0,1,0,1.38,1.38L30.3,54.324H50.346a.976.976,0,0,0,.69-.286l9.915-9.917A2.179,2.179,0,1,1,64.033,47.2L53.19,58.047a4.3,4.3,0,0,1-1.765,1.063L36.633,63.678a9.493,9.493,0,0,1-3.411.406l-1.659-.1a.976.976,0,1,0-.122,1.948l1.659.1q.363.023.725.023a11.421,11.421,0,0,0,3.384-.512L52,60.975a6.255,6.255,0,0,0,2.569-1.548L65.414,48.584a4.136,4.136,0,0,0,0-5.842ZM43.828,26.6a4.282,4.282,0,1,1-4.282,4.282A4.287,4.287,0,0,1,43.828,26.6ZM32.175,24.648a.337.337,0,0,1-.323-.237L31,21.69a.976.976,0,0,0-.443-.554l-.088-.051a.976.976,0,0,0-.7-.107l-2.781.624a.337.337,0,0,1-.367-.161l-1.137-1.969a.337.337,0,0,1,.044-.4l1.931-2.1a.976.976,0,0,0,.258-.661v-.1a.976.976,0,0,0-.258-.661l-1.931-2.1a.337.337,0,0,1-.044-.4l1.137-1.969a.338.338,0,0,1,.367-.161l2.781.624a.975.975,0,0,0,.7-.107l.088-.051A.975.975,0,0,0,31,10.839l.85-2.72a.337.337,0,0,1,.323-.237h2.274a.337.337,0,0,1,.323.237l.85,2.72a.975.975,0,0,0,.443.554l.089.051a.976.976,0,0,0,.7.107l2.781-.624a.337.337,0,0,1,.367.161l1.137,1.969a.337.337,0,0,1-.044.4l-1.931,2.1a.976.976,0,0,0-.258.661v.1a.976.976,0,0,0,.258.661l1.931,2.1a.337.337,0,0,1,.044.4L40,21.441a.338.338,0,0,1-.367.161l-2.781-.624a.974.974,0,0,0-.7.107l-.09.052a.976.976,0,0,0-.443.554l-.85,2.72a.337.337,0,0,1-.323.238H32.175ZM33.312,26.6a4.282,4.282,0,1,1-4.282,4.282A4.287,4.287,0,0,1,33.312,26.6Zm-10.517,0a4.282,4.282,0,1,1-4.282,4.282A4.287,4.287,0,0,1,22.795,26.6ZM8.413,64.991H1.952V45.912H8.413Zm1.952-16.976h2.781V62.888H10.364Zm8.628-5.271a11.251,11.251,0,0,0-3.289,1.8l-.083.065v-3.74a3.76,3.76,0,0,1,3.756-3.756H25.6a5.683,5.683,0,0,0-1.415,3.756v1.35a11.225,11.225,0,0,0-5.193.523Zm10.8,1.895a11.284,11.284,0,0,0-3.658-1.975V40.871a3.76,3.76,0,0,1,3.756-3.756h6.835a3.76,3.76,0,0,1,3.756,3.756v5.191H31.554Z" transform="translate(0 -0.435)"/>
      </g>
    </g>
  </g>
</svg>
