<svg xmlns="http://www.w3.org/2000/svg" xmlns:xlink="http://www.w3.org/1999/xlink" width="108" height="108" viewBox="0 0 108 108">
  <defs>
    <filter id="Trazado_904820" x="0" y="0" width="108" height="108" filterUnits="userSpaceOnUse">
      <feOffset dy="3" input="SourceAlpha"/>
      <feGaussianBlur stdDeviation="3" result="blur"/>
      <feFlood flood-opacity="0.161"/>
      <feComposite operator="in" in2="blur"/>
      <feComposite in="SourceGraphic"/>
    </filter>
  </defs>
  <g id="Grupo_1233926" data-name="Grupo 1233926" transform="translate(-615 -993)">
    <g id="Grupo_1230980" data-name="Grupo 1230980" transform="translate(624 999)">
      <g id="Grupo_1230695" data-name="Grupo 1230695" transform="translate(0 0)">
        <g id="Grupo_1224979" data-name="Grupo 1224979">
          <g id="Grupo_1173585" data-name="Grupo 1173585">
            <g id="Grupo_1173428" data-name="Grupo 1173428">
              <g id="Grupo_1171958" data-name="Grupo 1171958">
                <g id="Grupo_1167341" data-name="Grupo 1167341">
                  <g id="Grupo_1166792" data-name="Grupo 1166792">
                    <g transform="matrix(1, 0, 0, 1, -9, -6)" filter="url(#Trazado_904820)">
                      <g id="Trazado_904820-2" data-name="Trazado 904820" transform="translate(9 6)" fill="#e5ebfb">
                        <path d="M 44.99999618530273 88.50003051757812 C 39.12687301635742 88.50003051757812 33.43022155761719 87.35010528564453 28.06829643249512 85.08219146728516 C 22.88852119445801 82.89134216308594 18.23629570007324 79.75461578369141 14.24084663391113 75.75916290283203 C 10.24540901184082 71.76371765136719 7.108683586120605 67.11148834228516 4.917821407318115 61.93171691894531 C 2.649921178817749 56.56978988647461 1.499996185302734 50.87313842773438 1.499996185302734 45.00001525878906 C 1.499996185302734 39.12689208984375 2.649921178817749 33.43024063110352 4.917821407318115 28.06830215454102 C 7.108683586120605 22.88852691650391 10.24540901184082 18.23631477355957 14.24084663391113 14.24086570739746 C 18.23629570007324 10.24541568756104 22.88852119445801 7.10869026184082 28.06829643249512 4.917827606201172 C 33.43022155761719 2.649927854537964 39.12687301635742 1.50000274181366 44.99999618530273 1.50000274181366 C 50.87311935424805 1.50000274181366 56.56977081298828 2.649927854537964 61.93169784545898 4.917827606201172 C 67.11147308349609 7.10869026184082 71.76369476318359 10.24541568756104 75.75914764404297 14.24086570739746 C 79.75458526611328 18.23631477355957 82.89131164550781 22.88852691650391 85.08216857910156 28.06830215454102 C 87.35007476806641 33.43024063110352 88.5 39.12689208984375 88.5 45.00001525878906 C 88.5 50.87313842773438 87.35007476806641 56.56978988647461 85.08216857910156 61.93171691894531 C 82.89131164550781 67.11148834228516 79.75458526611328 71.76371765136719 75.75914764404297 75.75916290283203 C 71.76369476318359 79.75461578369141 67.11147308349609 82.89134216308594 61.93169784545898 85.08219146728516 C 56.56977081298828 87.35010528564453 50.87311935424805 88.50003051757812 44.99999618530273 88.50003051757812 Z" stroke="none"/>
                        <path d="M 44.99999618530273 3 C 39.32870864868164 3 33.82865142822266 4.110061645507812 28.65262603759766 6.299346923828125 C 23.65165710449219 8.414573669433594 19.15968322753906 11.44334411621094 15.301513671875 15.301513671875 C 11.44333648681641 19.15968322753906 8.414566040039062 23.65165710449219 6.299339294433594 28.65262985229492 C 4.110054016113281 33.82867050170898 2.999992370605469 39.32872772216797 2.999992370605469 45.00001525878906 C 2.999992370605469 50.67130279541016 4.110054016113281 56.17136001586914 6.299339294433594 61.34738922119141 C 8.414566040039062 66.34837341308594 11.44333648681641 70.84033203125 15.301513671875 74.69850158691406 C 19.15968322753906 78.55668640136719 23.65165710449219 81.58545684814453 28.65262603759766 83.70068359375 C 33.82865142822266 85.88996887207031 39.32870864868164 87.00003051757812 44.99999618530273 87.00003051757812 C 50.67128372192383 87.00003051757812 56.17134094238281 85.88996887207031 61.34736633300781 83.70068359375 C 66.34834289550781 81.58545684814453 70.84030914306641 78.55668640136719 74.69847869873047 74.69850158691406 C 78.55665588378906 70.84033203125 81.58542633056641 66.34837341308594 83.70065307617188 61.34738922119141 C 85.88993835449219 56.17136001586914 87 50.67130279541016 87 45.00001525878906 C 87 39.32872772216797 85.88993835449219 33.82867050170898 83.70065307617188 28.65262985229492 C 81.58542633056641 23.65165710449219 78.55665588378906 19.15968322753906 74.69847869873047 15.301513671875 C 70.84030914306641 11.44334411621094 66.34834289550781 8.414573669433594 61.34736633300781 6.299346923828125 C 56.17134094238281 4.110061645507812 50.67128372192383 3 44.99999618530273 3 M 44.99999618530273 0 C 69.85281372070312 0 90 20.14718627929688 90 45.00001525878906 C 90 69.85282897949219 69.85281372070312 90.00003051757812 44.99999618530273 90.00003051757812 C 20.14717864990234 90.00003051757812 -7.62939453125e-06 69.85282897949219 -7.62939453125e-06 45.00001525878906 C -7.62939453125e-06 20.14718627929688 20.14717864990234 0 44.99999618530273 0 Z" stroke="none" fill="#0b47db"/>
                      </g>
                    </g>
                  </g>
                </g>
              </g>
            </g>
          </g>
        </g>
      </g>
    </g>
    <g id="clave" transform="translate(642.186 974.565)">
      <g id="Grupo_1233924" data-name="Grupo 1233924" transform="translate(0.786 48.393)">
        <g id="Grupo_1233918" data-name="Grupo 1233918">
          <path id="Trazado_1223009" data-name="Trazado 1223009" d="M57.462,97.192H9.595A2.1,2.1,0,0,1,7.5,95.1V57.2a2.1,2.1,0,0,1,2.095-2.095H57.462A2.1,2.1,0,0,1,59.557,57.2V95.1A2.1,2.1,0,0,1,57.462,97.192Z" transform="translate(-7.5 -55.108)" fill="#f5f7f8"/>
          <path id="Trazado_1223010" data-name="Trazado 1223010" d="M28.728,55.108H9.595A2.1,2.1,0,0,0,7.5,57.2V95.1a2.1,2.1,0,0,0,2.095,2.095H28.728Z" transform="translate(-7.5 -55.108)" fill="#1faaee"/>
          <path id="Trazado_1223011" data-name="Trazado 1223011" d="M452.127,57.2V95.1a2.094,2.094,0,0,1-2.095,2.095H446a2.1,2.1,0,0,0,2.095-2.095V57.2A2.1,2.1,0,0,0,446,55.11h4.033A2.094,2.094,0,0,1,452.127,57.2Z" transform="translate(-400.07 -55.11)" fill="#d9e7eb"/>
          <path id="Trazado_1223012" data-name="Trazado 1223012" d="M59.557,57.2v5.189H7.5V57.2A2.094,2.094,0,0,1,9.595,55.11H57.462A2.094,2.094,0,0,1,59.557,57.2Z" transform="translate(-7.5 -55.11)" fill="#596d76"/>
          <path id="Trazado_1223013" data-name="Trazado 1223013" d="M452.127,57.2v5.189h-4.033V57.2A2.1,2.1,0,0,0,446,55.11h4.033A2.094,2.094,0,0,1,452.127,57.2Z" transform="translate(-400.07 -55.11)" fill="#475a61"/>
        </g>
        <g id="Grupo_1233923" data-name="Grupo 1233923" transform="translate(25.201 13.189)">
          <g id="Grupo_1233919" data-name="Grupo 1233919" transform="translate(7.712)">
            <path id="Trazado_1223014" data-name="Trazado 1223014" d="M334.24,187.97l-.695.695a.524.524,0,0,0-.146.458l.082.481a.524.524,0,0,1-.146.458l-1.451,1.451a.524.524,0,0,1-.458.146l-.481-.082a.524.524,0,0,0-.458.146L329.2,193.01a.524.524,0,0,0-.146.458l.082.481a.524.524,0,0,1-.146.458l-2.273,2.273a.782.782,0,0,1-1.106,0l-3.655-3.655a.782.782,0,0,1,0-1.106l10.664-10.664a.782.782,0,0,1,.783-.194l2.8.86a.782.782,0,0,1,.518.518l.86,2.8a.782.782,0,0,1-.195.783l-1.744,1.744a.524.524,0,0,1-.458.146l-.481-.082A.524.524,0,0,0,334.24,187.97Z" transform="translate(-321.728 -181.026)" fill="#fca62f"/>
            <path id="Trazado_1223015" data-name="Trazado 1223015" d="M352.754,190.951l-.694.694a.522.522,0,0,0-.146.458l.081.481a.522.522,0,0,1-.146.458l-1.45,1.45a.522.522,0,0,1-.458.146l-.481-.081a.523.523,0,0,0-.458.146l-1.286,1.286a.522.522,0,0,0-.146.458l.081.481a.522.522,0,0,1-.146.458l-2.272,2.272a.782.782,0,0,1-1.107,0l-1.718-1.718a.782.782,0,0,0,1.106,0l2.272-2.272a.522.522,0,0,0,.146-.458l-.082-.481a.52.52,0,0,1,.146-.458l1.286-1.286a.52.52,0,0,1,.458-.146l.481.081a.522.522,0,0,0,.458-.146l1.45-1.45a.522.522,0,0,0,.146-.458l-.081-.481a.519.519,0,0,1,.146-.458l.694-.694a.519.519,0,0,1,.458-.146l.481.081a.523.523,0,0,0,.458-.146l1.151-1.151a.781.781,0,0,0,.194-.784l-.84-2.733,1.774.546a.781.781,0,0,1,.518.518l.859,2.8a.782.782,0,0,1-.195.783l-1.743,1.743a.522.522,0,0,1-.458.146l-.481-.081A.523.523,0,0,0,352.754,190.951Z" transform="translate(-340.242 -184.007)" fill="#f98824"/>
          </g>
          <g id="Grupo_1233922" data-name="Grupo 1233922" transform="translate(0 10.465)">
            <g id="Grupo_1233920" data-name="Grupo 1233920">
              <circle id="Elipse_13837" data-name="Elipse 13837" cx="6.565" cy="6.565" r="6.565" fill="#fcc16d"/>
              <path id="Trazado_1223016" data-name="Trazado 1223016" d="M262.511,295.351a6.568,6.568,0,0,1-10.833-2.452,5.833,5.833,0,0,0,.446.5,5.964,5.964,0,1,0,8.434-8.434,5.874,5.874,0,0,0-.5-.446,6.568,6.568,0,0,1,2.452,10.833Z" transform="translate(-251.303 -284.143)" fill="#fcb44d"/>
            </g>
            <g id="Grupo_1233921" data-name="Grupo 1233921" transform="translate(3.357 5.538)">
              <path id="Trazado_1223017" data-name="Trazado 1223017" d="M282.061,337.643l-1.506-1.506a1.365,1.365,0,0,1,1.93-1.93l1.506,1.506a1.365,1.365,0,1,1-1.93,1.93Z" transform="translate(-280.155 -333.807)" fill="#f2671f"/>
            </g>
          </g>
        </g>
      </g>
      <g id="Grupo_1233925" data-name="Grupo 1233925" transform="translate(0 47.607)">
        <path id="Trazado_1223018" data-name="Trazado 1223018" d="M50.748,47.607H2.88A2.884,2.884,0,0,0,0,50.487V88.382a2.884,2.884,0,0,0,2.88,2.88H50.748a2.884,2.884,0,0,0,2.88-2.88V65.054a.786.786,0,0,0-1.571,0V88.382a1.311,1.311,0,0,1-1.309,1.309H22.8V56.462H52.057v5.1a.786.786,0,0,0,1.571,0V50.487a2.884,2.884,0,0,0-2.88-2.88ZM13.737,54.891a.786.786,0,1,0,0,1.571h7.491V89.691H2.88a1.311,1.311,0,0,1-1.309-1.309V56.462h8.675a.786.786,0,1,0,0-1.571H1.571v-4.4A1.311,1.311,0,0,1,2.88,49.178H50.748a1.311,1.311,0,0,1,1.309,1.309v4.4Z" transform="translate(0 -47.607)"/>
        <path id="Trazado_1223019" data-name="Trazado 1223019" d="M37.919,82.328a.786.786,0,0,0-.786.786v.011a.786.786,0,0,0,1.571,0v-.011A.786.786,0,0,0,37.919,82.328Z" transform="translate(-33.244 -78.691)"/>
        <path id="Trazado_1223020" data-name="Trazado 1223020" d="M61.435,82.328a.786.786,0,0,0-.786.786v.011a.786.786,0,0,0,1.571,0v-.011A.786.786,0,0,0,61.435,82.328Z" transform="translate(-54.296 -78.691)"/>
        <path id="Trazado_1223021" data-name="Trazado 1223021" d="M84.952,82.328a.786.786,0,0,0-.786.786v.011a.786.786,0,0,0,1.571,0v-.011A.786.786,0,0,0,84.952,82.328Z" transform="translate(-75.35 -78.691)"/>
        <path id="Trazado_1223022" data-name="Trazado 1223022" d="M332.3,82.432H319.7a.786.786,0,0,0,0,1.571h12.6a.786.786,0,0,0,0-1.571Z" transform="translate(-285.512 -78.784)"/>
        <path id="Trazado_1223023" data-name="Trazado 1223023" d="M152.53,216.971a.786.786,0,0,0-.822.074l-.943.706a.786.786,0,0,0,.628,1.4v2.119a.786.786,0,0,0,1.571,0v-3.595A.785.785,0,0,0,152.53,216.971Z" transform="translate(-134.691 -199.157)"/>
        <path id="Trazado_1223024" data-name="Trazado 1223024" d="M93.651,219.471a2.583,2.583,0,1,0,2.583-2.583A2.586,2.586,0,0,0,93.651,219.471Zm3.595,0a1.012,1.012,0,1,1-1.012-1.012A1.013,1.013,0,0,1,97.246,219.471Z" transform="translate(-83.842 -199.157)"/>
        <path id="Trazado_1223025" data-name="Trazado 1223025" d="M39,222.054a2.583,2.583,0,1,0-2.583-2.583A2.586,2.586,0,0,0,39,222.054Zm0-3.595a1.012,1.012,0,1,1-1.012,1.012A1.013,1.013,0,0,1,39,218.459Z" transform="translate(-32.607 -199.157)"/>
        <path id="Trazado_1223026" data-name="Trazado 1223026" d="M93.649,162.171v2.119a.786.786,0,1,0,1.571,0V160.7a.786.786,0,0,0-1.256-.629l-.943.706a.786.786,0,0,0,.628,1.4Z" transform="translate(-82.996 -148.147)"/>
        <path id="Trazado_1223027" data-name="Trazado 1223027" d="M130.207,165.076a2.583,2.583,0,1,0-2.583-2.583A2.586,2.586,0,0,0,130.207,165.076Zm0-3.595a1.012,1.012,0,1,1-1.012,1.012A1.013,1.013,0,0,1,130.207,161.481Z" transform="translate(-114.256 -148.147)"/>
        <path id="Trazado_1223028" data-name="Trazado 1223028" d="M39,165.076a2.583,2.583,0,1,0-2.583-2.583A2.586,2.586,0,0,0,39,165.076Zm0-3.595a1.012,1.012,0,1,1-1.012,1.012A1.013,1.013,0,0,1,39,161.481Z" transform="translate(-32.607 -148.147)"/>
        <path id="Trazado_1223029" data-name="Trazado 1223029" d="M41.582,280.536a.786.786,0,0,0,.786-.786v-3.595a.786.786,0,0,0-1.256-.629l-.943.706a.786.786,0,0,0,.628,1.4v2.119A.786.786,0,0,0,41.582,280.536Z" transform="translate(-35.679 -251.513)"/>
        <path id="Trazado_1223030" data-name="Trazado 1223030" d="M79.936,277.953a2.583,2.583,0,1,0-2.583,2.583A2.586,2.586,0,0,0,79.936,277.953Zm-3.595,0a1.012,1.012,0,1,1,1.012,1.012,1.013,1.013,0,0,1-1.012-1.012Z" transform="translate(-66.938 -251.514)"/>
        <path id="Trazado_1223031" data-name="Trazado 1223031" d="M40.64,348.676h2.94a.786.786,0,0,0,0-1.571H40.64a.786.786,0,0,0,0,1.571Z" transform="translate(-35.68 -315.735)"/>
        <path id="Trazado_1223032" data-name="Trazado 1223032" d="M49.865,378.3H40.64a.786.786,0,1,0,0,1.571h9.225a.786.786,0,1,0,0-1.571Z" transform="translate(-35.68 -343.663)"/>
        <path id="Trazado_1223033" data-name="Trazado 1223033" d="M49.865,403.965H40.64a.786.786,0,0,0,0,1.571h9.225a.786.786,0,0,0,0-1.571Z" transform="translate(-35.68 -366.639)"/>
        <path id="Trazado_1223034" data-name="Trazado 1223034" d="M262.451,181.964a1.312,1.312,0,0,0,1.146-.365l1.744-1.744a1.565,1.565,0,0,0,.39-1.569l-.86-2.795a1.566,1.566,0,0,0-1.037-1.038l-2.8-.86a1.564,1.564,0,0,0-1.569.39l-5.547,5.547a.786.786,0,0,0,1.111,1.111l5.543-5.546,2.793.858.861,2.791-1.648,1.648-.347-.059a1.311,1.311,0,0,0-1.147.365l-.694.694a1.311,1.311,0,0,0-.365,1.147l.059.347-1.259,1.259-.347-.059a1.31,1.31,0,0,0-1.146.365l-1.287,1.287a1.311,1.311,0,0,0-.365,1.146l.059.347-1.067,1.067a7.292,7.292,0,0,0-.968-1.571l4.256-4.256a.786.786,0,1,0-1.111-1.111l-4.256,4.256a7.288,7.288,0,0,0-1.571-.968l1.539-1.539A.786.786,0,0,0,251.454,182l-2.119,2.119a7.351,7.351,0,1,0,5.872,5.872l1.743-1.743a1.311,1.311,0,0,0,.365-1.146l-.059-.347,1.1-1.1.348.059a1.311,1.311,0,0,0,1.146-.365l1.451-1.451a1.311,1.311,0,0,0,.365-1.146l-.059-.347.5-.5Zm-10.379,13.462a5.777,5.777,0,1,1,0-8.174h0A5.786,5.786,0,0,1,252.071,195.426Z" transform="translate(-215.433 -160.334)"/>
        <path id="Trazado_1223035" data-name="Trazado 1223035" d="M278.886,309.751l-2.355,2.355-.2-.2a2.15,2.15,0,1,0-3.041,3.041l1.506,1.506a2.15,2.15,0,1,0,3.041-3.041l-.2-.2L280,310.862a.786.786,0,0,0-1.111-1.111Zm-2.158,5.594a.58.58,0,0,1-.819,0l-1.506-1.506a.579.579,0,1,1,.819-.819l1.506,1.506A.58.58,0,0,1,276.728,315.345Z" transform="translate(-244.104 -282.087)"/>
        <path id="Trazado_1223036" data-name="Trazado 1223036" d="M237.388,161.481h6.752a.786.786,0,0,0,0-1.571h-6.752a.786.786,0,1,0,0,1.571Z" transform="translate(-211.82 -148.147)"/>
        <path id="Trazado_1223037" data-name="Trazado 1223037" d="M237.388,186.8h6.752a.786.786,0,0,0,0-1.571h-6.752a.786.786,0,1,0,0,1.571Z" transform="translate(-211.82 -170.812)"/>
      </g>
    </g>
  </g>
</svg>
