<svg xmlns="http://www.w3.org/2000/svg" xmlns:xlink="http://www.w3.org/1999/xlink" width="113" height="113" viewBox="0 0 113 113">
  <defs>
    <filter id="Trazado_982547" x="0" y="0" width="113" height="113" filterUnits="userSpaceOnUse">
      <feOffset dy="3" input="SourceAlpha"/>
      <feGaussianBlur stdDeviation="3" result="blur"/>
      <feFlood flood-opacity="0.161"/>
      <feComposite operator="in" in2="blur"/>
      <feComposite in="SourceGraphic"/>
    </filter>
  </defs>
  <g id="Grupo_1234297" data-name="Grupo 1234297" transform="translate(-586 -11837.578)">
    <g id="Grupo_1232803" data-name="Grupo 1232803" transform="translate(0 4073.337)">
      <g id="Grupo_1229015" data-name="Grupo 1229015" transform="translate(1 2131.042)">
        <g id="Grupo_1227503" data-name="Grupo 1227503" transform="translate(0 2048.198)">
          <g id="Grupo_1225351" data-name="Grupo 1225351" transform="translate(-1 -393.91)">
            <g id="Grupo_1208122" data-name="Grupo 1208122" transform="translate(0 -1922.377)">
              <g id="Grupo_1202433" data-name="Grupo 1202433" transform="translate(-0.56 1255.773)">
                <g id="Grupo_1202054" data-name="Grupo 1202054" transform="translate(0 3240.511)">
                  <g id="Grupo_1177897" data-name="Grupo 1177897" transform="translate(595.561 1411.003)">
                    <g id="Grupo_1172010" data-name="Grupo 1172010" transform="translate(0)">
                      <g id="Grupo_1171046" data-name="Grupo 1171046">
                        <g id="Grupo_1148525" data-name="Grupo 1148525">
                          <g transform="matrix(1, 0, 0, 1, -9, -6)" filter="url(#Trazado_982547)">
                            <g id="Trazado_982547-2" data-name="Trazado 982547" transform="translate(9 6)" fill="#cefcf7">
                              <path d="M 47.5 93.5 C 41.28937149047852 93.5 35.26533508300781 92.28397369384766 29.59518623352051 89.88570404052734 C 24.11771965026855 87.56893157958984 19.19813346862793 84.25196075439453 14.97309303283691 80.02691650390625 C 10.74804019927979 75.80186462402344 7.431066513061523 70.88229370117188 5.114293098449707 65.40481567382812 C 2.716026782989502 59.73468017578125 1.5 53.71062850952148 1.5 47.5 C 1.5 41.28937149047852 2.716026782989502 35.26533508300781 5.114293098449707 29.59518623352051 C 7.431066513061523 24.11771965026855 10.74804019927979 19.19813346862793 14.97309303283691 14.97309303283691 C 19.19813346862793 10.74804019927979 24.11771965026855 7.431066513061523 29.59518623352051 5.114293098449707 C 35.26533508300781 2.716026782989502 41.28937149047852 1.5 47.5 1.5 C 53.71062850952148 1.5 59.73468017578125 2.716026782989502 65.40481567382812 5.114293098449707 C 70.88229370117188 7.431066513061523 75.80186462402344 10.74804019927979 80.02691650390625 14.97309303283691 C 84.25196075439453 19.19813346862793 87.56893157958984 24.11771965026855 89.88570404052734 29.59518623352051 C 92.28397369384766 35.26533508300781 93.5 41.28937149047852 93.5 47.5 C 93.5 53.71062850952148 92.28397369384766 59.73468017578125 89.88570404052734 65.40481567382812 C 87.56893157958984 70.88229370117188 84.25196075439453 75.80186462402344 80.02691650390625 80.02691650390625 C 75.80186462402344 84.25196075439453 70.88229370117188 87.56893157958984 65.40481567382812 89.88570404052734 C 59.73468017578125 92.28397369384766 53.71062850952148 93.5 47.5 93.5 Z" stroke="none"/>
                              <path d="M 47.5 3 C 41.49121475219727 3 35.66376876831055 4.176155090332031 30.17950439453125 6.495796203613281 C 24.88084411621094 8.736953735351562 20.12152099609375 11.94598388671875 16.03375244140625 16.03375244140625 C 11.94598388671875 20.12152099609375 8.736953735351562 24.88084411621094 6.495796203613281 30.17950439453125 C 4.176155090332031 35.66376876831055 3 41.49121475219727 3 47.5 C 3 53.50878524780273 4.176155090332031 59.33623123168945 6.495796203613281 64.82049560546875 C 8.736953735351562 70.11915588378906 11.94598388671875 74.87847900390625 16.03375244140625 78.96624755859375 C 20.12152099609375 83.05401611328125 24.88084411621094 86.26304626464844 30.17950439453125 88.50419616699219 C 35.66376876831055 90.82384490966797 41.49121475219727 92 47.5 92 C 53.50878524780273 92 59.33623123168945 90.82384490966797 64.82049560546875 88.50419616699219 C 70.11915588378906 86.26304626464844 74.87847900390625 83.05401611328125 78.96624755859375 78.96624755859375 C 83.05401611328125 74.87847900390625 86.26304626464844 70.11915588378906 88.50419616699219 64.82049560546875 C 90.82384490966797 59.33623123168945 92 53.50878524780273 92 47.5 C 92 41.49121475219727 90.82384490966797 35.66376876831055 88.50419616699219 30.17950439453125 C 86.26304626464844 24.88084411621094 83.05401611328125 20.12152099609375 78.96624755859375 16.03375244140625 C 74.87847900390625 11.94598388671875 70.11915588378906 8.736953735351562 64.82049560546875 6.495796203613281 C 59.33623123168945 4.176155090332031 53.50878524780273 3 47.5 3 M 47.5 0 C 73.7335205078125 0 95 21.2664794921875 95 47.5 C 95 73.7335205078125 73.7335205078125 95 47.5 95 C 21.2664794921875 95 0 73.7335205078125 0 47.5 C 0 21.2664794921875 21.2664794921875 0 47.5 0 Z" stroke="none" fill="#098576"/>
                            </g>
                          </g>
                        </g>
                      </g>
                    </g>
                  </g>
                </g>
              </g>
            </g>
          </g>
        </g>
      </g>
    </g>
    <g id="carpeta_2_" data-name="carpeta (2)" transform="translate(611 11859)">
      <path id="Trazado_1223684" data-name="Trazado 1223684" d="M10,43V5H26l5,6H62V43Z" fill="#f3a845"/>
      <path id="Trazado_1223685" data-name="Trazado 1223685" d="M31,11,26,5H10V38H51a5,5,0,0,0,5-5V11Z" fill="#eecc61"/>
      <path id="Trazado_1223686" data-name="Trazado 1223686" d="M31,11H46L43.172,8.172A4,4,0,0,0,40.343,7H27.667Z" fill="#f5e0a0"/>
      <path id="Trazado_1223687" data-name="Trazado 1223687" d="M2,51V13H18l5,6H54V51Z" fill="#aa2b24"/>
      <path id="Trazado_1223688" data-name="Trazado 1223688" d="M23,19l-5-6H2V46H43a5,5,0,0,0,5-5V19Z" fill="#d24034"/>
      <path id="Trazado_1223689" data-name="Trazado 1223689" d="M23,19H38l-2.828-2.828A4,4,0,0,0,32.343,15H19.667Z" fill="#db665d"/>
      <rect id="Rect치ngulo_423566" data-name="Rect치ngulo 423566" width="28" height="18" rx="3" transform="translate(7 23)" fill="#db665d"/>
      <path id="Trazado_1223690" data-name="Trazado 1223690" d="M19.48,33.854,6.342,55.439a2.342,2.342,0,0,0,2,3.561H33.657a2.342,2.342,0,0,0,2-3.561L22.52,33.854a1.78,1.78,0,0,0-3.04,0Z" fill="#f3a845"/>
      <path id="Trazado_1223691" data-name="Trazado 1223691" d="M22.52,33.854a1.78,1.78,0,0,0-3.04,0L6.342,55.439A2.328,2.328,0,0,0,6.1,56H27a4,4,0,0,0,4-4V47.786Z" fill="#eecc61"/>
      <rect id="Rect치ngulo_423567" data-name="Rect치ngulo 423567" width="8" height="9" rx="2" transform="translate(16 42)" fill="#f5e0a0"/>
      <circle id="Elipse_13849" data-name="Elipse 13849" cx="2" cy="2" r="2" transform="translate(19 52)" fill="#fff"/>
      <path id="Trazado_1223692" data-name="Trazado 1223692" d="M22,49H20l-1-9h4Z" fill="#fff"/>
      <path id="Trazado_1223693" data-name="Trazado 1223693" d="M42,43h8v4H42Z" fill="#ccc"/>
      <path id="Trazado_1223694" data-name="Trazado 1223694" d="M42,45h4a2,2,0,0,0,2-2H42Z" fill="#f2f2f2"/>
      <path id="Trazado_1223695" data-name="Trazado 1223695" d="M62,10H46.414L43.878,7.465A4.968,4.968,0,0,0,40.343,6H28.135L26.768,4.359A1,1,0,0,0,26,4H10A1,1,0,0,0,9,5v7H2a1,1,0,0,0-1,1V51a1,1,0,0,0,1,1H7.264L5.488,54.918A3.343,3.343,0,0,0,8.343,60H33.657a3.342,3.342,0,0,0,2.855-5.081L34.735,52H54a1,1,0,0,0,1-1V44h7a1,1,0,0,0,1-1V11A1,1,0,0,0,62,10ZM40.343,8a3.017,3.017,0,0,1,2.121.879L43.586,10H31.468L29.8,8ZM35,56.657A1.345,1.345,0,0,1,33.657,58H8.343A1.343,1.343,0,0,1,7.2,55.958L20.334,34.374a.78.78,0,0,1,1.332,0L34.8,55.959a1.34,1.34,0,0,1,.2.7ZM53,50H33.518L23.374,33.335a2.778,2.778,0,0,0-4.748,0L8.482,50H3V14H17.532l4.7,5.641A1,1,0,0,0,23,20H53ZM21.8,16H32.343a3.017,3.017,0,0,1,2.121.879L35.586,18H23.468ZM61,42H55V19a1,1,0,0,0-1-1H38.414l-2.536-2.535A4.968,4.968,0,0,0,32.343,14H20.135l-1.367-1.641A1,1,0,0,0,18,12H11V6H25.532l4.7,5.641A1,1,0,0,0,31,12H61Z"/>
      <path id="Trazado_1223696" data-name="Trazado 1223696" d="M42,48h8a1,1,0,0,0,1-1V43a1,1,0,0,0-1-1H42a1,1,0,0,0-1,1v4A1,1,0,0,0,42,48Zm1-4h6v2H43Z"/>
      <path id="Trazado_1223697" data-name="Trazado 1223697" d="M21,51a3,3,0,1,0,3,3A3,3,0,0,0,21,51Zm0,4a1,1,0,1,1,1-1A1,1,0,0,1,21,55Z"/>
      <path id="Trazado_1223698" data-name="Trazado 1223698" d="M18.255,39.333a1,1,0,0,0-.249.777l1,9A1,1,0,0,0,20,50h2a1,1,0,0,0,.994-.89l1-9A1,1,0,0,0,23,39H19a1,1,0,0,0-.745.333ZM21.883,41,21.1,48h-.2l-.778-7Z"/>
    </g>
  </g>
</svg>
