<svg xmlns="http://www.w3.org/2000/svg" xmlns:xlink="http://www.w3.org/1999/xlink" width="113" height="113" viewBox="0 0 113 113">
  <defs>
    <filter id="Trazado_982547" x="0" y="0.001" width="113" height="113" filterUnits="userSpaceOnUse">
      <feOffset dy="3" input="SourceAlpha"/>
      <feGaussianBlur stdDeviation="3" result="blur"/>
      <feFlood flood-opacity="0.161"/>
      <feComposite operator="in" in2="blur"/>
      <feComposite in="SourceGraphic"/>
    </filter>
  </defs>
  <g id="Grupo_1234298" data-name="Grupo 1234298" transform="translate(-901 -11837.846)">
    <g id="Grupo_1232804" data-name="Grupo 1232804" transform="translate(0 4073.337)">
      <g id="Grupo_1229016" data-name="Grupo 1229016" transform="translate(0.575 2131.042)">
        <g id="Grupo_1227504" data-name="Grupo 1227504" transform="translate(0 2048.198)">
          <g id="Grupo_1225352" data-name="Grupo 1225352" transform="translate(-0.575 -393.641)">
            <g id="Grupo_1208123" data-name="Grupo 1208123" transform="translate(0 -1922.377)">
              <g id="Grupo_1202434" data-name="Grupo 1202434" transform="translate(-0.56 1255.773)">
                <g id="Grupo_1202053" data-name="Grupo 1202053" transform="translate(0 3240.511)">
                  <g id="Grupo_1177898" data-name="Grupo 1177898" transform="translate(910.561 1411.003)">
                    <g id="Grupo_1172010" data-name="Grupo 1172010" transform="translate(0)">
                      <g id="Grupo_1171046" data-name="Grupo 1171046">
                        <g id="Grupo_1148525" data-name="Grupo 1148525">
                          <g transform="matrix(1, 0, 0, 1, -9, -6)" filter="url(#Trazado_982547)">
                            <g id="Trazado_982547-2" data-name="Trazado 982547" transform="translate(9 6)" fill="#cefcf7">
                              <path d="M 47.5 93.5 C 41.28937149047852 93.5 35.26533508300781 92.28397369384766 29.59518623352051 89.88570404052734 C 24.11771965026855 87.56893157958984 19.19813346862793 84.25196075439453 14.97309303283691 80.02691650390625 C 10.74804019927979 75.80186462402344 7.431066513061523 70.88229370117188 5.114293098449707 65.40481567382812 C 2.716026782989502 59.73468017578125 1.5 53.71062850952148 1.5 47.5 C 1.5 41.28937149047852 2.716026782989502 35.26533508300781 5.114293098449707 29.59518623352051 C 7.431066513061523 24.11771965026855 10.74804019927979 19.19813346862793 14.97309303283691 14.97309303283691 C 19.19813346862793 10.74804019927979 24.11771965026855 7.431066513061523 29.59518623352051 5.114293098449707 C 35.26533508300781 2.716026782989502 41.28937149047852 1.5 47.5 1.5 C 53.71062850952148 1.5 59.73468017578125 2.716026782989502 65.40481567382812 5.114293098449707 C 70.88229370117188 7.431066513061523 75.80186462402344 10.74804019927979 80.02691650390625 14.97309303283691 C 84.25196075439453 19.19813346862793 87.56893157958984 24.11771965026855 89.88570404052734 29.59518623352051 C 92.28397369384766 35.26533508300781 93.5 41.28937149047852 93.5 47.5 C 93.5 53.71062850952148 92.28397369384766 59.73468017578125 89.88570404052734 65.40481567382812 C 87.56893157958984 70.88229370117188 84.25196075439453 75.80186462402344 80.02691650390625 80.02691650390625 C 75.80186462402344 84.25196075439453 70.88229370117188 87.56893157958984 65.40481567382812 89.88570404052734 C 59.73468017578125 92.28397369384766 53.71062850952148 93.5 47.5 93.5 Z" stroke="none"/>
                              <path d="M 47.5 3 C 41.49121475219727 3 35.66376876831055 4.176155090332031 30.17950439453125 6.495796203613281 C 24.88084411621094 8.736953735351562 20.12152099609375 11.94598388671875 16.03375244140625 16.03375244140625 C 11.94598388671875 20.12152099609375 8.736953735351562 24.88084411621094 6.495796203613281 30.17950439453125 C 4.176155090332031 35.66376876831055 3 41.49121475219727 3 47.5 C 3 53.50878524780273 4.176155090332031 59.33623123168945 6.495796203613281 64.82049560546875 C 8.736953735351562 70.11915588378906 11.94598388671875 74.87847900390625 16.03375244140625 78.96624755859375 C 20.12152099609375 83.05401611328125 24.88084411621094 86.26304626464844 30.17950439453125 88.50419616699219 C 35.66376876831055 90.82384490966797 41.49121475219727 92 47.5 92 C 53.50878524780273 92 59.33623123168945 90.82384490966797 64.82049560546875 88.50419616699219 C 70.11915588378906 86.26304626464844 74.87847900390625 83.05401611328125 78.96624755859375 78.96624755859375 C 83.05401611328125 74.87847900390625 86.26304626464844 70.11915588378906 88.50419616699219 64.82049560546875 C 90.82384490966797 59.33623123168945 92 53.50878524780273 92 47.5 C 92 41.49121475219727 90.82384490966797 35.66376876831055 88.50419616699219 30.17950439453125 C 86.26304626464844 24.88084411621094 83.05401611328125 20.12152099609375 78.96624755859375 16.03375244140625 C 74.87847900390625 11.94598388671875 70.11915588378906 8.736953735351562 64.82049560546875 6.495796203613281 C 59.33623123168945 4.176155090332031 53.50878524780273 3 47.5 3 M 47.5 0 C 73.7335205078125 0 95 21.2664794921875 95 47.5 C 95 73.7335205078125 73.7335205078125 95 47.5 95 C 21.2664794921875 95 0 73.7335205078125 0 47.5 C 0 21.2664794921875 21.2664794921875 0 47.5 0 Z" stroke="none" fill="#098576"/>
                            </g>
                          </g>
                        </g>
                      </g>
                    </g>
                  </g>
                </g>
              </g>
            </g>
          </g>
        </g>
      </g>
    </g>
    <g id="proteger_2_" data-name="proteger (2)" transform="translate(905.503 11864.568)">
      <path id="Trazado_1223699" data-name="Trazado 1223699" d="M61.8,66.5l-2.717,1.428a1.493,1.493,0,0,1-1.389,0L54.981,66.5c-14.921-7.843-24.11-22.315-24.11-37.974V18.957a1.485,1.485,0,0,1,1.317-1.483c5.143-.543,9.232-4.225,9.884-8.881a1.5,1.5,0,0,1,1.481-1.306h29.68a1.5,1.5,0,0,1,1.481,1.306c.652,4.657,4.741,8.339,9.884,8.881a1.485,1.485,0,0,1,1.317,1.483v9.565C85.915,44.182,76.726,58.654,61.8,66.5Z" transform="translate(-6.396 -6.396)" fill="#e1e6e9"/>
      <path id="Trazado_1223700" data-name="Trazado 1223700" d="M279.2,17.474c-5.143-.543-9.232-4.225-9.884-8.881a1.5,1.5,0,0,0-1.481-1.306h-2.021c.291,6.456,4.892,11.035,9.869,11.56A1.485,1.485,0,0,1,277,20.329v9.565c0,15.659-9.188,30.132-24.11,37.974l-.314.165a1.491,1.491,0,0,0,1.113-.109l2.717-1.428c14.921-7.843,24.11-22.315,24.11-37.974V18.956A1.485,1.485,0,0,0,279.2,17.474Z" transform="translate(-201.003 -6.395)" fill="#cbcbcb"/>
      <path id="Trazado_1223701" data-name="Trazado 1223701" d="M88.8,92.284A42.753,42.753,0,0,1,72.527,77.5a37.039,37.039,0,0,1-5.863-19.855V52.219a1.917,1.917,0,0,1,1.208-1.784,16.824,16.824,0,0,0,9.047-8.315,1.912,1.912,0,0,1,1.73-1.084h22.323a1.913,1.913,0,0,1,1.73,1.084,16.824,16.824,0,0,0,9.047,8.315,1.917,1.917,0,0,1,1.208,1.784v5.429A37.038,37.038,0,0,1,107.093,77.5,42.754,42.754,0,0,1,90.817,92.284l-.113.059a1.923,1.923,0,0,1-1.789,0Z" transform="translate(-37.814 -36.019)" fill="#4ad194"/>
      <path id="Trazado_1223702" data-name="Trazado 1223702" d="M277.939,50.435l-.094-.038-.156-.064-.265-.112-.152-.066q-.141-.063-.281-.128l-.127-.059q-.2-.1-.4-.2l-.03-.015q-.183-.093-.364-.19l-.127-.07c-.088-.048-.175-.1-.261-.146l-.143-.083-.244-.145-.14-.086c-.085-.052-.168-.105-.251-.159l-.122-.078q-.171-.112-.339-.227l-.025-.017q-.18-.125-.357-.254l-.109-.081q-.121-.09-.241-.182l-.128-.1-.219-.175-.126-.1q-.111-.092-.221-.187l-.113-.1q-.136-.118-.269-.24l-.055-.05q-.159-.146-.315-.3l-.089-.087q-.11-.108-.219-.218l-.11-.113q-.1-.1-.192-.2l-.111-.12q-.1-.1-.188-.21l-.1-.115c-.073-.084-.145-.169-.216-.255l-.062-.074q-.137-.166-.268-.336l-.067-.087q-.1-.127-.193-.256l-.09-.124q-.082-.113-.162-.228l-.092-.134q-.078-.115-.155-.232l-.085-.129c-.057-.088-.112-.177-.167-.266l-.061-.1q-.111-.183-.217-.369l-.044-.079q-.083-.148-.163-.3l-.069-.133q-.065-.125-.129-.252l-.071-.145c-.018-.037-.037-.073-.054-.11a1.913,1.913,0,0,0-1.73-1.084H256V92.563a1.921,1.921,0,0,0,.894-.221l.113-.059A42.752,42.752,0,0,0,273.284,77.5a37.038,37.038,0,0,0,5.863-19.855V52.218A1.916,1.916,0,0,0,277.939,50.435Z" transform="translate(-204.004 -36.019)" fill="#35b79e"/>
      <path id="Trazado_1223703" data-name="Trazado 1223703" d="M277.939,50.435l-.094-.038-.156-.064-.265-.112-.152-.066q-.141-.063-.281-.128l-.127-.059q-.2-.1-.4-.2l-.03-.015q-.183-.093-.364-.19l-.127-.07c-.088-.048-.175-.1-.261-.146l-.143-.083-.243-.145-.14-.086c-.084-.052-.168-.105-.251-.159l-.122-.078q-.171-.112-.339-.227l-.025-.017q-.18-.125-.357-.254l-.109-.081q-.121-.09-.241-.182l-.128-.1-.219-.175-.126-.1q-.112-.092-.221-.187l-.113-.1q-.136-.118-.269-.24l-.055-.05q-.16-.146-.315-.3l-.089-.087c-.074-.072-.147-.145-.219-.218l-.11-.113q-.1-.1-.192-.2l-.111-.12q-.1-.1-.188-.21l-.1-.115c-.073-.084-.145-.169-.216-.255l-.062-.074q-.137-.166-.268-.336l-.067-.087q-.1-.127-.193-.256l-.09-.124q-.082-.113-.162-.228l-.092-.134q-.079-.115-.155-.232l-.085-.129c-.057-.088-.112-.177-.167-.266l-.061-.1q-.111-.183-.217-.369l-.044-.079q-.083-.148-.163-.3l-.069-.133c-.043-.084-.087-.167-.128-.252l-.071-.145c-.018-.037-.037-.073-.054-.11a1.913,1.913,0,0,0-1.73-1.084h-3.089a17.145,17.145,0,0,1,1.358,2.048c.021.035.036.073.054.11l.071.145q.063.127.128.252l.069.133q.08.15.163.3l.044.079q.106.186.217.369l.061.1q.082.134.167.267l.085.129q.076.116.155.232l.092.134q.08.115.162.228l.09.124c.063.086.128.171.193.256l.067.087q.132.169.268.336l.062.074c.071.086.143.171.216.255l.1.115q.093.106.188.21l.111.12q.1.1.192.2l.11.113q.108.11.219.218l.089.087q.155.15.315.3l.055.05q.133.121.269.24l.113.1q.11.094.221.187l.126.1q.109.088.219.175l.128.1q.12.092.241.182l.109.081q.177.129.357.254l.025.017q.168.116.339.227l.122.078q.125.08.251.159l.14.086.244.145.143.083q.13.074.261.146l.127.07q.181.1.364.19l.03.015q.2.1.4.2l.127.059c.093.043.187.086.281.128l.152.066.265.112.156.064.094.038a1.917,1.917,0,0,1,1.208,1.784v5.429a37.039,37.039,0,0,1-5.863,19.855A45.617,45.617,0,0,1,256,92.513v.051a1.922,1.922,0,0,0,.895-.221l.113-.059A42.753,42.753,0,0,0,273.284,77.5a37.038,37.038,0,0,0,5.863-19.855V52.218A1.917,1.917,0,0,0,277.939,50.435Z" transform="translate(-204.004 -36.019)" fill="#1e9690"/>
      <path id="Trazado_1223704" data-name="Trazado 1223704" d="M179.493,205.79H159.156a1.942,1.942,0,0,1-1.942-1.942V191.094a1.942,1.942,0,0,1,1.942-1.942h20.337a1.942,1.942,0,0,1,1.942,1.942v12.754A1.942,1.942,0,0,1,179.493,205.79Z" transform="translate(-117.294 -166.029)" fill="#636a75"/>
      <path id="Trazado_1223705" data-name="Trazado 1223705" d="M314.211,189.152H310.7a1.942,1.942,0,0,1,1.942,1.942v12.754a1.942,1.942,0,0,1-1.942,1.942h3.516a1.942,1.942,0,0,0,1.942-1.942V191.094A1.942,1.942,0,0,0,314.211,189.152Z" transform="translate(-252.012 -166.029)" fill="#515a66"/>
      <path id="Trazado_1223706" data-name="Trazado 1223706" d="M240.409,236.226v2.536a.891.891,0,0,0,1.782,0v-2.536a2.086,2.086,0,1,0-1.782,0Z" transform="translate(-189.27 -203.862)"/>
      <path id="Trazado_1223707" data-name="Trazado 1223707" d="M81.994,86.677h0l.112.059a2.813,2.813,0,0,0,2.618,0l.113-.059a43.645,43.645,0,0,0,16.613-15.092,37.928,37.928,0,0,0,6-20.332V45.823a2.792,2.792,0,0,0-1.771-2.612,15.84,15.84,0,0,1-8.571-7.869,2.815,2.815,0,0,0-2.534-1.593H72.254a2.815,2.815,0,0,0-2.534,1.593,15.84,15.84,0,0,1-8.571,7.869,2.792,2.792,0,0,0-1.771,2.612v5.429a37.926,37.926,0,0,0,6,20.332A43.643,43.643,0,0,0,81.994,86.677ZM61.16,51.253V45.823a1.02,1.02,0,0,1,.645-.956,17.614,17.614,0,0,0,9.524-8.761,1.025,1.025,0,0,1,.925-.576H94.577a1.025,1.025,0,0,1,.925.576,17.616,17.616,0,0,0,9.524,8.761,1.02,1.02,0,0,1,.645.956v5.429A36.15,36.15,0,0,1,99.947,70.63,41.863,41.863,0,0,1,84.009,85.1l-.113.059a1.031,1.031,0,0,1-.96,0l-.112-.059A41.862,41.862,0,0,1,66.885,70.63,36.149,36.149,0,0,1,61.16,51.253Z" transform="translate(-31.419 -29.623)"/>
      <path id="Trazado_1223708" data-name="Trazado 1223708" d="M85.727,245.559a.891.891,0,0,0-1.065.672c-2.713,12-10.975,22.411-22.669,28.557l-2.717,1.428a.6.6,0,0,1-.56,0L56,274.789c-11.712-6.156-19.979-16.582-22.68-28.606a.891.891,0,1,0-1.738.39c2.816,12.534,11.414,23.393,23.59,29.792l2.717,1.428a2.383,2.383,0,0,0,2.218,0l2.717-1.428c12.156-6.389,20.75-17.229,23.578-29.741A.891.891,0,0,0,85.727,245.559Z" transform="translate(-6.999 -215.477)"/>
      <path id="Trazado_1223709" data-name="Trazado 1223709" d="M78.3,10.193c-4.757-.5-8.5-3.841-9.1-8.119A2.406,2.406,0,0,0,66.836,0H37.157a2.406,2.406,0,0,0-2.363,2.074c-.6,4.279-4.339,7.617-9.1,8.119a2.368,2.368,0,0,0-2.114,2.368v9.565A41,41,0,0,0,23.8,26.3a.891.891,0,0,0,.885.8.9.9,0,0,0,.092,0,.891.891,0,0,0,.795-.977,39.227,39.227,0,0,1-.2-3.995V12.561a.6.6,0,0,1,.52-.6c5.572-.588,9.96-4.553,10.673-9.644a.609.609,0,0,1,.6-.539h29.68a.609.609,0,0,1,.6.539c.712,5.09,5.1,9.056,10.673,9.644a.6.6,0,0,1,.52.6v9.565a39.24,39.24,0,0,1-.2,3.954.891.891,0,0,0,1.772.18,41.012,41.012,0,0,0,.21-4.134V12.561A2.368,2.368,0,0,0,78.3,10.193Z" transform="translate(0)"/>
      <path id="Trazado_1223710" data-name="Trazado 1223710" d="M173.1,107.261a2.836,2.836,0,0,0,2.833-2.833V91.674a2.836,2.836,0,0,0-2.833-2.833h-1.465V84.589a8.7,8.7,0,0,0-17.408,0v4.252H152.76a2.836,2.836,0,0,0-2.833,2.833v12.754a2.836,2.836,0,0,0,2.833,2.833ZM156.006,84.589a6.922,6.922,0,0,1,13.845,0v4.252H156.006Zm-4.3,19.839V91.674a1.053,1.053,0,0,1,1.051-1.051H173.1a1.053,1.053,0,0,1,1.051,1.051v12.754a1.053,1.053,0,0,1-1.051,1.051H152.76A1.053,1.053,0,0,1,151.709,104.428Z" transform="translate(-110.898 -66.608)"/>
    </g>
  </g>
</svg>
