<svg xmlns="http://www.w3.org/2000/svg" xmlns:xlink="http://www.w3.org/1999/xlink" width="113" height="113" viewBox="0 0 113 113">
  <defs>
    <filter id="Trazado_982547" x="0" y="0" width="113" height="113" filterUnits="userSpaceOnUse">
      <feOffset dy="3" input="SourceAlpha"/>
      <feGaussianBlur stdDeviation="3" result="blur"/>
      <feFlood flood-opacity="0.161"/>
      <feComposite operator="in" in2="blur"/>
      <feComposite in="SourceGraphic"/>
    </filter>
  </defs>
  <g id="Grupo_1234331" data-name="Grupo 1234331" transform="translate(-1216 -11837.56)">
    <g id="Grupo_1232805" data-name="Grupo 1232805" transform="translate(0 4073.337)">
      <g id="Grupo_1229017" data-name="Grupo 1229017" transform="translate(0 2131.042)">
        <g id="Grupo_1227505" data-name="Grupo 1227505" transform="translate(0.575 2048.198)">
          <g id="Grupo_1225353" data-name="Grupo 1225353" transform="translate(-0.575 -393.641)">
            <g id="Grupo_1208124" data-name="Grupo 1208124" transform="translate(0 -1922.377)">
              <g id="Grupo_1202435" data-name="Grupo 1202435" transform="translate(-0.56 1255.486)">
                <g id="Grupo_1202052" data-name="Grupo 1202052" transform="translate(1225.561 4651.514)">
                  <g id="Grupo_1172010" data-name="Grupo 1172010" transform="translate(0)">
                    <g id="Grupo_1171046" data-name="Grupo 1171046">
                      <g id="Grupo_1148525" data-name="Grupo 1148525">
                        <g transform="matrix(1, 0, 0, 1, -9, -6)" filter="url(#Trazado_982547)">
                          <g id="Trazado_982547-2" data-name="Trazado 982547" transform="translate(9 6)" fill="#cefcf7">
                            <path d="M 47.5 93.5 C 41.28937149047852 93.5 35.26533508300781 92.28397369384766 29.59518623352051 89.88570404052734 C 24.11771965026855 87.56893157958984 19.19813346862793 84.25196075439453 14.97309303283691 80.02691650390625 C 10.74804019927979 75.80186462402344 7.431066513061523 70.88229370117188 5.114293098449707 65.40481567382812 C 2.716026782989502 59.73468017578125 1.5 53.71062850952148 1.5 47.5 C 1.5 41.28937149047852 2.716026782989502 35.26533508300781 5.114293098449707 29.59518623352051 C 7.431066513061523 24.11771965026855 10.74804019927979 19.19813346862793 14.97309303283691 14.97309303283691 C 19.19813346862793 10.74804019927979 24.11771965026855 7.431066513061523 29.59518623352051 5.114293098449707 C 35.26533508300781 2.716026782989502 41.28937149047852 1.5 47.5 1.5 C 53.71062850952148 1.5 59.73468017578125 2.716026782989502 65.40481567382812 5.114293098449707 C 70.88229370117188 7.431066513061523 75.80186462402344 10.74804019927979 80.02691650390625 14.97309303283691 C 84.25196075439453 19.19813346862793 87.56893157958984 24.11771965026855 89.88570404052734 29.59518623352051 C 92.28397369384766 35.26533508300781 93.5 41.28937149047852 93.5 47.5 C 93.5 53.71062850952148 92.28397369384766 59.73468017578125 89.88570404052734 65.40481567382812 C 87.56893157958984 70.88229370117188 84.25196075439453 75.80186462402344 80.02691650390625 80.02691650390625 C 75.80186462402344 84.25196075439453 70.88229370117188 87.56893157958984 65.40481567382812 89.88570404052734 C 59.73468017578125 92.28397369384766 53.71062850952148 93.5 47.5 93.5 Z" stroke="none"/>
                            <path d="M 47.5 3 C 41.49121475219727 3 35.66376876831055 4.176155090332031 30.17950439453125 6.495796203613281 C 24.88084411621094 8.736953735351562 20.12152099609375 11.94598388671875 16.03375244140625 16.03375244140625 C 11.94598388671875 20.12152099609375 8.736953735351562 24.88084411621094 6.495796203613281 30.17950439453125 C 4.176155090332031 35.66376876831055 3 41.49121475219727 3 47.5 C 3 53.50878524780273 4.176155090332031 59.33623123168945 6.495796203613281 64.82049560546875 C 8.736953735351562 70.11915588378906 11.94598388671875 74.87847900390625 16.03375244140625 78.96624755859375 C 20.12152099609375 83.05401611328125 24.88084411621094 86.26304626464844 30.17950439453125 88.50419616699219 C 35.66376876831055 90.82384490966797 41.49121475219727 92 47.5 92 C 53.50878524780273 92 59.33623123168945 90.82384490966797 64.82049560546875 88.50419616699219 C 70.11915588378906 86.26304626464844 74.87847900390625 83.05401611328125 78.96624755859375 78.96624755859375 C 83.05401611328125 74.87847900390625 86.26304626464844 70.11915588378906 88.50419616699219 64.82049560546875 C 90.82384490966797 59.33623123168945 92 53.50878524780273 92 47.5 C 92 41.49121475219727 90.82384490966797 35.66376876831055 88.50419616699219 30.17950439453125 C 86.26304626464844 24.88084411621094 83.05401611328125 20.12152099609375 78.96624755859375 16.03375244140625 C 74.87847900390625 11.94598388671875 70.11915588378906 8.736953735351562 64.82049560546875 6.495796203613281 C 59.33623123168945 4.176155090332031 53.50878524780273 3 47.5 3 M 47.5 0 C 73.7335205078125 0 95 21.2664794921875 95 47.5 C 95 73.7335205078125 73.7335205078125 95 47.5 95 C 21.2664794921875 95 0 73.7335205078125 0 47.5 C 0 21.2664794921875 21.2664794921875 0 47.5 0 Z" stroke="none" fill="#098576"/>
                          </g>
                        </g>
                      </g>
                    </g>
                  </g>
                </g>
              </g>
            </g>
          </g>
        </g>
      </g>
    </g>
    <g id="red_1_" data-name="red (1)" transform="translate(1239.535 11856.691)">
      <g id="Grupo_1234303" data-name="Grupo 1234303" transform="translate(48.835 41.55)">
        <g id="Grupo_1234299" data-name="Grupo 1234299" transform="translate(0 10.406)">
          <path id="Trazado_1223711" data-name="Trazado 1223711" d="M379.24,408.167v5.723h16.13v-5.723a4.683,4.683,0,0,0-4.683-4.683h-6.764A4.683,4.683,0,0,0,379.24,408.167Z" transform="translate(-379.24 -403.484)" fill="#e69642"/>
        </g>
        <g id="Grupo_1234300" data-name="Grupo 1234300" transform="translate(8.065 10.406)">
          <path id="Trazado_1223712" data-name="Trazado 1223712" d="M445.252,403.484H441.87a4.683,4.683,0,0,1,4.683,4.683v5.723h3.382v-5.723A4.683,4.683,0,0,0,445.252,403.484Z" transform="translate(-441.87 -403.484)" fill="#e38523"/>
        </g>
        <g id="Grupo_1234301" data-name="Grupo 1234301" transform="translate(2.862)">
          <circle id="Elipse_13850" data-name="Elipse 13850" cx="5.203" cy="5.203" r="5.203" fill="#fed2a4"/>
        </g>
        <g id="Grupo_1234302" data-name="Grupo 1234302" transform="translate(3.472 0.611)">
          <path id="Trazado_1223713" data-name="Trazado 1223713" d="M413.245,327.413a5.2,5.2,0,0,1-7.039,7.039,5.2,5.2,0,1,0,7.039-7.039Z" transform="translate(-406.206 -327.413)" fill="#ffbd86"/>
        </g>
      </g>
      <g id="Grupo_1234308" data-name="Grupo 1234308" transform="translate(0.966 41.55)">
        <g id="Grupo_1234304" data-name="Grupo 1234304" transform="translate(0 10.406)">
          <path id="Trazado_1223714" data-name="Trazado 1223714" d="M7.5,408.167v5.723H23.63v-5.723a4.683,4.683,0,0,0-4.683-4.683H12.183A4.683,4.683,0,0,0,7.5,408.167Z" transform="translate(-7.5 -403.484)" fill="#ad7fdd"/>
        </g>
        <g id="Grupo_1234305" data-name="Grupo 1234305" transform="translate(8.065 10.406)">
          <path id="Trazado_1223715" data-name="Trazado 1223715" d="M73.512,403.484H70.13a4.683,4.683,0,0,1,4.683,4.683v5.723h3.382v-5.723A4.683,4.683,0,0,0,73.512,403.484Z" transform="translate(-70.13 -403.484)" fill="#9d66d6"/>
        </g>
        <g id="Grupo_1234306" data-name="Grupo 1234306" transform="translate(2.862)">
          <circle id="Elipse_13851" data-name="Elipse 13851" cx="5.203" cy="5.203" r="5.203" fill="#fed2a4"/>
        </g>
        <g id="Grupo_1234307" data-name="Grupo 1234307" transform="translate(3.472 0.611)">
          <path id="Trazado_1223716" data-name="Trazado 1223716" d="M41.5,327.413a5.2,5.2,0,0,1-7.039,7.039,5.2,5.2,0,1,0,7.039-7.039Z" transform="translate(-34.465 -327.413)" fill="#ffbd86"/>
        </g>
      </g>
      <g id="Grupo_1234313" data-name="Grupo 1234313" transform="translate(48.835 3.567)">
        <g id="Grupo_1234309" data-name="Grupo 1234309" transform="translate(0 10.406)">
          <path id="Trazado_1223717" data-name="Trazado 1223717" d="M379.24,113.2v5.723h16.13V113.2a4.683,4.683,0,0,0-4.683-4.683h-6.764A4.683,4.683,0,0,0,379.24,113.2Z" transform="translate(-379.24 -108.516)" fill="#62a4fb"/>
        </g>
        <g id="Grupo_1234310" data-name="Grupo 1234310" transform="translate(8.065 10.406)">
          <path id="Trazado_1223718" data-name="Trazado 1223718" d="M445.252,108.516H441.87a4.683,4.683,0,0,1,4.683,4.683v5.723h3.382V113.2a4.683,4.683,0,0,0-4.683-4.683Z" transform="translate(-441.87 -108.516)" fill="#5392f9"/>
        </g>
        <g id="Grupo_1234311" data-name="Grupo 1234311" transform="translate(2.862)">
          <circle id="Elipse_13852" data-name="Elipse 13852" cx="5.203" cy="5.203" r="5.203" fill="#fed2a4"/>
        </g>
        <g id="Grupo_1234312" data-name="Grupo 1234312" transform="translate(3.472 0.611)">
          <path id="Trazado_1223719" data-name="Trazado 1223719" d="M413.245,32.445a5.2,5.2,0,0,1-7.039,7.039,5.2,5.2,0,1,0,7.039-7.039Z" transform="translate(-406.206 -32.445)" fill="#ffbd86"/>
        </g>
      </g>
      <g id="Grupo_1234318" data-name="Grupo 1234318" transform="translate(0.966 3.567)">
        <g id="Grupo_1234314" data-name="Grupo 1234314" transform="translate(0 10.406)">
          <path id="Trazado_1223720" data-name="Trazado 1223720" d="M7.5,113.2v5.723H23.63V113.2a4.683,4.683,0,0,0-4.683-4.683H12.183A4.683,4.683,0,0,0,7.5,113.2Z" transform="translate(-7.5 -108.516)" fill="#e175a5"/>
        </g>
        <g id="Grupo_1234315" data-name="Grupo 1234315" transform="translate(8.065 10.406)">
          <path id="Trazado_1223721" data-name="Trazado 1223721" d="M73.512,108.516H70.13a4.683,4.683,0,0,1,4.683,4.683v5.723h3.382V113.2a4.683,4.683,0,0,0-4.683-4.683Z" transform="translate(-70.13 -108.516)" fill="#de5791"/>
        </g>
        <g id="Grupo_1234316" data-name="Grupo 1234316" transform="translate(2.862)">
          <circle id="Elipse_13853" data-name="Elipse 13853" cx="5.203" cy="5.203" r="5.203" fill="#fed2a4"/>
        </g>
        <g id="Grupo_1234317" data-name="Grupo 1234317" transform="translate(3.472 0.611)">
          <path id="Trazado_1223722" data-name="Trazado 1223722" d="M41.5,32.445a5.2,5.2,0,0,1-7.039,7.039A5.2,5.2,0,1,0,41.5,32.445Z" transform="translate(-34.465 -32.445)" fill="#ffbd86"/>
        </g>
      </g>
      <g id="Grupo_1234325" data-name="Grupo 1234325" transform="translate(23.512 23.512)">
        <g id="Grupo_1234321" data-name="Grupo 1234321">
          <g id="Grupo_1234319" data-name="Grupo 1234319">
            <circle id="Elipse_13854" data-name="Elipse 13854" cx="9.454" cy="9.454" r="9.454" fill="#a2f5c3"/>
          </g>
          <g id="Grupo_1234320" data-name="Grupo 1234320" transform="translate(1.496 1.496)">
            <path id="Trazado_1223723" data-name="Trazado 1223723" d="M207.262,194.2A9.451,9.451,0,0,1,194.2,207.262,9.452,9.452,0,1,0,207.262,194.2Z" transform="translate(-194.204 -194.204)" fill="#88f2a9"/>
          </g>
        </g>
        <g id="Grupo_1234324" data-name="Grupo 1234324" transform="translate(4.64 5.453)">
          <g id="Grupo_1234323" data-name="Grupo 1234323">
            <g id="Grupo_1234322" data-name="Grupo 1234322">
              <path id="Trazado_1223724" data-name="Trazado 1223724" d="M222.324,232.931a2.081,2.081,0,0,1-1.472-.61l-1.626-1.626a2.081,2.081,0,1,1,2.943-2.943l.155.154,2.368-2.368a2.081,2.081,0,1,1,2.943,2.943l-3.839,3.839a2.081,2.081,0,0,1-1.472.61Z" transform="translate(-218.616 -224.93)" fill="#e6f7fe"/>
            </g>
          </g>
        </g>
      </g>
      <g id="Grupo_1234326" data-name="Grupo 1234326" transform="translate(29.583 0.966)">
        <circle id="Elipse_13855" data-name="Elipse 13855" cx="3.382" cy="3.382" r="3.382" fill="#a2f5c3"/>
      </g>
      <g id="Grupo_1234327" data-name="Grupo 1234327" transform="translate(58.201 29.583)">
        <circle id="Elipse_13856" data-name="Elipse 13856" cx="3.382" cy="3.382" r="3.382" fill="#a2f5c3"/>
      </g>
      <g id="Grupo_1234328" data-name="Grupo 1234328" transform="translate(0.966 29.583)">
        <circle id="Elipse_13857" data-name="Elipse 13857" cx="3.382" cy="3.382" r="3.382" fill="#a2f5c3"/>
      </g>
      <g id="Grupo_1234329" data-name="Grupo 1234329" transform="translate(29.583 58.201)">
        <circle id="Elipse_13858" data-name="Elipse 13858" cx="3.382" cy="3.382" r="3.382" fill="#a2f5c3"/>
      </g>
      <g id="Grupo_1234330" data-name="Grupo 1234330" transform="translate(0 0)">
        <path id="Trazado_1223725" data-name="Trazado 1223725" d="M64.965,25.346a.966.966,0,0,0,.966-.966V18.657A5.657,5.657,0,0,0,61.29,13.1,6.167,6.167,0,1,0,50.731,8.771c0,.188.01.374.027.558A29.456,29.456,0,0,0,37.264,3.694a4.348,4.348,0,0,0-8.6,0A29.454,29.454,0,0,0,15.173,9.329c.017-.184.027-.37.027-.558A6.169,6.169,0,1,0,4.642,13.1,5.656,5.656,0,0,0,0,18.656V24.38a.966.966,0,0,0,.966.966H4.374a29.515,29.515,0,0,0-.681,3.321,4.348,4.348,0,0,0,0,8.6,29.494,29.494,0,0,0,1.166,4.95,6.157,6.157,0,0,0-.218,8.869A5.657,5.657,0,0,0,0,56.64v5.723a.966.966,0,0,0,.966.966H17.1a.966.966,0,0,0,.966-.966V58.522a29.638,29.638,0,0,0,10.605,3.716,4.348,4.348,0,0,0,8.6,0,29.637,29.637,0,0,0,10.605-3.716v3.841a.966.966,0,0,0,.966.966h5.329a.966.966,0,0,0,0-1.932H49.8V56.64a3.722,3.722,0,0,1,3.718-3.718h6.763A3.722,3.722,0,0,1,64,56.64V61.4H58.671a.966.966,0,1,0,0,1.932h6.294a.966.966,0,0,0,.966-.966V56.64a5.657,5.657,0,0,0-4.641-5.557,6.157,6.157,0,0,0-.218-8.868,29.5,29.5,0,0,0,1.166-4.95,4.348,4.348,0,0,0,0-8.6,29.511,29.511,0,0,0-.681-3.321ZM64,18.657v4.758H49.8V18.657a3.721,3.721,0,0,1,3.717-3.717h6.764A3.721,3.721,0,0,1,64,18.657ZM56.9,4.533a4.237,4.237,0,1,1-4.237,4.237A4.242,4.242,0,0,1,56.9,4.533Zm-23.935-2.6a2.416,2.416,0,1,1-2.416,2.416A2.419,2.419,0,0,1,32.965,1.932ZM9.031,4.533A4.237,4.237,0,1,1,4.793,8.771,4.242,4.242,0,0,1,9.031,4.533Zm-7.1,28.432a2.416,2.416,0,1,1,2.416,2.416,2.419,2.419,0,0,1-2.416-2.416Zm7.1,9.551a4.237,4.237,0,1,1-4.237,4.237A4.242,4.242,0,0,1,9.031,42.516ZM1.932,61.4V56.64a3.721,3.721,0,0,1,3.717-3.717h6.764A3.721,3.721,0,0,1,16.13,56.64V61.4ZM32.965,64a2.416,2.416,0,1,1,2.416-2.416A2.419,2.419,0,0,1,32.965,64ZM56.92,50.991h-.04a4.237,4.237,0,1,1,.04,0ZM64,32.965a2.416,2.416,0,1,1-2.416-2.416A2.419,2.419,0,0,1,64,32.965Zm-3.694-4.156a4.348,4.348,0,0,0,0,8.312,27.579,27.579,0,0,1-.911,3.992,6.165,6.165,0,0,0-6.884,9.969,5.658,5.658,0,0,0-4.626,5.164,27.681,27.681,0,0,1-10.763,4.06,4.348,4.348,0,0,0-8.312,0,27.683,27.683,0,0,1-10.763-4.06,5.658,5.658,0,0,0-4.626-5.163,6.165,6.165,0,0,0-6.884-9.969,27.581,27.581,0,0,1-.911-3.992,4.348,4.348,0,0,0,0-8.312,27.553,27.553,0,0,1,.753-3.463H8.333a.966.966,0,1,0,0-1.932h-6.4V18.656A3.721,3.721,0,0,1,5.649,14.94h6.763a3.721,3.721,0,0,1,3.718,3.716v4.758H12.84a.966.966,0,0,0,0,1.932H17.1a.966.966,0,0,0,.966-.966V18.656a5.657,5.657,0,0,0-4.384-5.5A27.562,27.562,0,0,1,28.81,5.626a4.348,4.348,0,0,0,8.312,0,27.562,27.562,0,0,1,15.132,7.526,5.657,5.657,0,0,0-4.384,5.5V24.38a.966.966,0,0,0,.966.966H59.553a27.544,27.544,0,0,1,.753,3.463Z" transform="translate(0 0)"/>
        <path id="Trazado_1223726" data-name="Trazado 1223726" d="M193.088,179.774a.966.966,0,0,0-.322,1.327,8.482,8.482,0,1,1-2.848-2.848.966.966,0,0,0,1.005-1.65,10.414,10.414,0,1,0,3.493,3.493A.966.966,0,0,0,193.088,179.774Z" transform="translate(-152.544 -152.544)"/>
        <path id="Trazado_1223727" data-name="Trazado 1223727" d="M219.629,217.43a3.026,3.026,0,0,0-2.154.893l-1.75,1.75a3.048,3.048,0,0,0-3.716,4.773l1.626,1.626a3.047,3.047,0,0,0,4.309,0l3.839-3.839a3.047,3.047,0,0,0-2.154-5.2Zm.789,3.836-3.839,3.839a1.115,1.115,0,0,1-1.577,0l-1.626-1.626a1.115,1.115,0,1,1,1.577-1.577l.154.154a.966.966,0,0,0,1.366,0l2.368-2.368a1.115,1.115,0,1,1,1.577,1.578Z" transform="translate(-183.931 -189.431)"/>
        <path id="Trazado_1223728" data-name="Trazado 1223728" d="M249.466,94.2a.966.966,0,0,0,.966-.966V85.819a.966.966,0,1,0-1.932,0v7.415A.966.966,0,0,0,249.466,94.2Z" transform="translate(-216.5 -73.926)"/>
        <path id="Trazado_1223729" data-name="Trazado 1223729" d="M354.567,249.466a.966.966,0,0,0,.966.966h7.414a.966.966,0,1,0,0-1.932h-7.414A.966.966,0,0,0,354.567,249.466Z" transform="translate(-308.909 -216.5)"/>
        <path id="Trazado_1223730" data-name="Trazado 1223730" d="M249.466,354.567a.966.966,0,0,0-.966.966v7.415a.966.966,0,0,0,1.932,0v-7.415A.966.966,0,0,0,249.466,354.567Z" transform="translate(-216.5 -308.909)"/>
        <path id="Trazado_1223731" data-name="Trazado 1223731" d="M93.234,248.5H85.82a.966.966,0,1,0,0,1.932h7.414a.966.966,0,1,0,0-1.932Z" transform="translate(-73.927 -216.5)"/>
      </g>
    </g>
  </g>
</svg>
