<svg xmlns="http://www.w3.org/2000/svg" xmlns:xlink="http://www.w3.org/1999/xlink" width="108" height="108" viewBox="0 0 108 108">
  <defs>
    <filter id="Trazado_904820" x="0" y="0" width="108" height="108" filterUnits="userSpaceOnUse">
      <feOffset dy="3" input="SourceAlpha"/>
      <feGaussianBlur stdDeviation="3" result="blur"/>
      <feFlood flood-opacity="0.161"/>
      <feComposite operator="in" in2="blur"/>
      <feComposite in="SourceGraphic"/>
    </filter>
  </defs>
  <g id="Grupo_1235121" data-name="Grupo 1235121" transform="translate(-199 -3830)">
    <g id="Grupo_1232780" data-name="Grupo 1232780" transform="translate(208 3836)">
      <g id="Grupo_1233929" data-name="Grupo 1233929">
        <g id="Grupo_1230695" data-name="Grupo 1230695">
          <g id="Grupo_1224979" data-name="Grupo 1224979">
            <g id="Grupo_1173585" data-name="Grupo 1173585">
              <g id="Grupo_1173428" data-name="Grupo 1173428">
                <g id="Grupo_1171958" data-name="Grupo 1171958">
                  <g id="Grupo_1167341" data-name="Grupo 1167341">
                    <g id="Grupo_1166792" data-name="Grupo 1166792">
                      <g transform="matrix(1, 0, 0, 1, -9, -6)" filter="url(#Trazado_904820)">
                        <g id="Trazado_904820-2" data-name="Trazado 904820" transform="translate(9 6)" fill="#f6ecfe">
                          <path d="M 44.99999618530273 88.50003051757812 C 39.12687301635742 88.50003051757812 33.43022155761719 87.35010528564453 28.06829643249512 85.08219146728516 C 22.88852119445801 82.89134216308594 18.23629570007324 79.75461578369141 14.24084663391113 75.75916290283203 C 10.24540901184082 71.76371765136719 7.108683586120605 67.11148834228516 4.917821407318115 61.93171691894531 C 2.649921178817749 56.56978988647461 1.499996185302734 50.87313842773438 1.499996185302734 45.00001525878906 C 1.499996185302734 39.12689208984375 2.649921178817749 33.43024063110352 4.917821407318115 28.06830215454102 C 7.108683586120605 22.88852691650391 10.24540901184082 18.23631477355957 14.24084663391113 14.24086570739746 C 18.23629570007324 10.24541568756104 22.88852119445801 7.10869026184082 28.06829643249512 4.917827606201172 C 33.43022155761719 2.649927854537964 39.12687301635742 1.50000274181366 44.99999618530273 1.50000274181366 C 50.87311935424805 1.50000274181366 56.56977081298828 2.649927854537964 61.93169784545898 4.917827606201172 C 67.11147308349609 7.10869026184082 71.76369476318359 10.24541568756104 75.75914764404297 14.24086570739746 C 79.75458526611328 18.23631477355957 82.89131164550781 22.88852691650391 85.08216857910156 28.06830215454102 C 87.35007476806641 33.43024063110352 88.5 39.12689208984375 88.5 45.00001525878906 C 88.5 50.87313842773438 87.35007476806641 56.56978988647461 85.08216857910156 61.93171691894531 C 82.89131164550781 67.11148834228516 79.75458526611328 71.76371765136719 75.75914764404297 75.75916290283203 C 71.76369476318359 79.75461578369141 67.11147308349609 82.89134216308594 61.93169784545898 85.08219146728516 C 56.56977081298828 87.35010528564453 50.87311935424805 88.50003051757812 44.99999618530273 88.50003051757812 Z" stroke="none"/>
                          <path d="M 44.99999618530273 3 C 39.32870864868164 3 33.82865142822266 4.110061645507812 28.65262603759766 6.299346923828125 C 23.65165710449219 8.414573669433594 19.15968322753906 11.44334411621094 15.301513671875 15.301513671875 C 11.44333648681641 19.15968322753906 8.414566040039062 23.65165710449219 6.299339294433594 28.65262985229492 C 4.110054016113281 33.82867050170898 2.999992370605469 39.32872772216797 2.999992370605469 45.00001525878906 C 2.999992370605469 50.67130279541016 4.110054016113281 56.17136001586914 6.299339294433594 61.34738922119141 C 8.414566040039062 66.34837341308594 11.44333648681641 70.84033203125 15.301513671875 74.69850158691406 C 19.15968322753906 78.55668640136719 23.65165710449219 81.58545684814453 28.65262603759766 83.70068359375 C 33.82865142822266 85.88996887207031 39.32870864868164 87.00003051757812 44.99999618530273 87.00003051757812 C 50.67128372192383 87.00003051757812 56.17134094238281 85.88996887207031 61.34736633300781 83.70068359375 C 66.34834289550781 81.58545684814453 70.84030914306641 78.55668640136719 74.69847869873047 74.69850158691406 C 78.55665588378906 70.84033203125 81.58542633056641 66.34837341308594 83.70065307617188 61.34738922119141 C 85.88993835449219 56.17136001586914 87 50.67130279541016 87 45.00001525878906 C 87 39.32872772216797 85.88993835449219 33.82867050170898 83.70065307617188 28.65262985229492 C 81.58542633056641 23.65165710449219 78.55665588378906 19.15968322753906 74.69847869873047 15.301513671875 C 70.84030914306641 11.44334411621094 66.34834289550781 8.414573669433594 61.34736633300781 6.299346923828125 C 56.17134094238281 4.110061645507812 50.67128372192383 3 44.99999618530273 3 M 44.99999618530273 0 C 69.85281372070312 0 90 20.14718627929688 90 45.00001525878906 C 90 69.85282897949219 69.85281372070312 90.00003051757812 44.99999618530273 90.00003051757812 C 20.14717864990234 90.00003051757812 -7.62939453125e-06 69.85282897949219 -7.62939453125e-06 45.00001525878906 C -7.62939453125e-06 20.14718627929688 20.14717864990234 0 44.99999618530273 0 Z" stroke="none" fill="#aa52f9"/>
                        </g>
                      </g>
                    </g>
                  </g>
                </g>
              </g>
            </g>
          </g>
        </g>
      </g>
    </g>
    <g id="el_1_" data-name="el (1)" transform="translate(203.86 3838.459)">
      <path id="Trazado_1223291" data-name="Trazado 1223291" d="M72.84,21.9H64.151A2.533,2.533,0,0,0,62,20.694a2.568,2.568,0,0,0-2.544,2.585,2.6,2.6,0,0,0,.521,1.562l-1.451,2.511H52.9A5.583,5.583,0,0,0,50.611,26.1h4.35a.973.973,0,1,0,0-1.945H50.113V22.895h5.679a.973.973,0,0,0,.842-.486L58.4,19.348a2.5,2.5,0,0,0,.357.028,2.587,2.587,0,1,0-2.544-2.585,2.6,2.6,0,0,0,.518,1.558l-1.5,2.6H50.113V17.711h.924a2.586,2.586,0,1,0,0-1.945h-.924V13.972A.973.973,0,0,0,49.14,13H46.89a.972.972,0,0,0-.883.565L44.543,16.73,41.955,17.8l-3.272-1.206a.973.973,0,0,0-1.024.225l-3.184,3.188a.973.973,0,0,0-.225,1.023l.319.866H25.441a4.934,4.934,0,0,0-4.929,4.929V57.938a4.934,4.934,0,0,0,4.929,4.929H42.567L41.7,67.211H38.53A4.127,4.127,0,0,0,34.8,70.034l-.245.786a.973.973,0,0,0,.929,1.262H62.794a.973.973,0,0,0,.929-1.262l-.244-.782a4.128,4.128,0,0,0-3.728-2.827H56.588l-.874-4.344H72.84a4.934,4.934,0,0,0,4.929-4.929V26.826A4.934,4.934,0,0,0,72.84,21.9Zm-14.081-5.75a.644.644,0,1,1-.6.644A.622.622,0,0,1,58.759,16.147ZM53.393,16.1a.642.642,0,1,1-.6.64A.62.62,0,0,1,53.393,16.1ZM62,22.639a.642.642,0,1,1-.6.64A.621.621,0,0,1,62,22.639Zm-9.223,8.849a3.642,3.642,0,1,1-3.642-3.645,3.646,3.646,0,0,1,3.642,3.645Zm-4.615-5.5a5.588,5.588,0,0,0,0,11v3.033a8.591,8.591,0,0,1,0-17.071Zm-10.756-2L36.29,20.942l2.3-2.307,3.045,1.122a.973.973,0,0,0,.708-.014l3.291-1.361a.973.973,0,0,0,.511-.491l1.362-2.947h.656v6.051a10.537,10.537,0,0,0,0,20.984v6.054h-.656L46.15,45.086a.972.972,0,0,0-.51-.49l-3.291-1.365a.973.973,0,0,0-.709-.014l-3.045,1.122-2.3-2.3,1.122-3.045a.972.972,0,0,0-.014-.709L36.033,34.99a.972.972,0,0,0-.49-.51L32.6,33.117v-3.26L35.542,28.5a.973.973,0,0,0,.491-.511L37.4,24.7a.973.973,0,0,0,.014-.709Zm-11.971-.146h9.845l.17.461-1.073,2.588-3.166,1.46a.973.973,0,0,0-.565.883v4.5a.972.972,0,0,0,.565.883l3.167,1.464,1.073,2.589L34.25,41.946a.972.972,0,0,0,.225,1.024l3.184,3.184a.973.973,0,0,0,1.024.225l3.272-1.205,2.589,1.073,1.464,3.167a.973.973,0,0,0,.883.565h2.25a.973.973,0,0,0,.973-.973V47.211h.924a2.586,2.586,0,1,0,0-1.945h-.924V42.025H55.23l1.5,2.6a2.6,2.6,0,0,0-.519,1.559A2.543,2.543,0,1,0,58.759,43.6a2.492,2.492,0,0,0-.355.028l-1.77-3.064a.972.972,0,0,0-.842-.486H50.113V38.823h4.848a.973.973,0,1,0,0-1.945h-4.35a5.584,5.584,0,0,0,2.281-1.253h5.639l1.45,2.51a2.6,2.6,0,0,0-.521,1.563,2.544,2.544,0,1,0,2.544-2.589,2.494,2.494,0,0,0-.354.028l-1.716-2.971a.972.972,0,0,0-.842-.486H54.28a5.542,5.542,0,0,0,.362-1.218h8.093a2.586,2.586,0,1,0,0-1.945H54.641A5.549,5.549,0,0,0,54.28,29.3h4.813a.973.973,0,0,0,.842-.486l1.718-2.974a2.5,2.5,0,0,0,.352.028,2.557,2.557,0,0,0,2.481-2.023H72.84a2.987,2.987,0,0,1,2.984,2.984V55.174H22.457V26.826a2.987,2.987,0,0,1,2.984-2.984Zm27.353,22.4a.6.6,0,1,1,.6.64A.621.621,0,0,1,52.794,46.238Zm6.56-.052a.6.6,0,1,1-.6-.64A.62.62,0,0,1,59.354,46.187ZM62.6,39.7a.6.6,0,1,1-.6-.644A.621.621,0,0,1,62.6,39.7Zm1.887-8.209a.6.6,0,1,1,.6.64A.621.621,0,0,1,64.49,31.489Zm-3.1,38.648H36.893a2.191,2.191,0,0,1,1.637-.981H59.751A2.19,2.19,0,0,1,61.387,70.137ZM54.6,67.211H43.679l.872-4.344h9.18l.874,4.344ZM72.84,60.922h-47.4a2.987,2.987,0,0,1-2.984-2.984v-.819H75.823v.819a2.987,2.987,0,0,1-2.984,2.984Zm-49.1-8.736V26.826a1.705,1.705,0,0,1,1.7-1.7H31.8a.973.973,0,0,1,0,1.945H25.683v24.88H72.6V27.068H66.485a.973.973,0,0,1,0-1.945H72.84a1.705,1.705,0,0,1,1.7,1.7V52.186a1.707,1.707,0,0,1-1.7,1.707h-47.4a1.707,1.707,0,0,1-1.7-1.707ZM36.624,59.02a.973.973,0,0,1-.973.973H34.9a.973.973,0,1,1,0-1.945h.748A.973.973,0,0,1,36.624,59.02Zm-3.46,0a.973.973,0,0,1-.973.973H26.568a.973.973,0,1,1,0-1.945h5.624A.973.973,0,0,1,33.164,59.02Z"/>
      <path id="Trazado_1223292" data-name="Trazado 1223292" d="M192.954,97.9V94.863a8.591,8.591,0,0,0,0,17.071V108.9a5.588,5.588,0,0,1,0-11Z" transform="translate(-144.786 -71.912)" fill="#3b79ad"/>
      <path id="Trazado_1223293" data-name="Trazado 1223293" d="M211.949,423.2l-.872,4.344H222l-.874-4.344Z" transform="translate(-167.398 -360.332)" fill="#809cad"/>
      <path id="Trazado_1223294" data-name="Trazado 1223294" d="M226.043,138.749a3.642,3.642,0,1,0,3.642-3.645,3.646,3.646,0,0,0-3.642,3.645Z" transform="translate(-180.545 -107.261)" fill="#23e8bf"/>
      <path id="Trazado_1223295" data-name="Trazado 1223295" d="M357.493,93.58a.642.642,0,1,0-.6-.64A.621.621,0,0,0,357.493,93.58Z" transform="translate(-295.488 -69.66)" fill="#ff99c7"/>
      <path id="Trazado_1223296" data-name="Trazado 1223296" d="M119.909,47.173l2.947,1.362a.972.972,0,0,1,.49.51l1.365,3.291a.973.973,0,0,1,.014.709L123.6,56.09l2.3,2.3,3.045-1.122a.973.973,0,0,1,.709.014l3.291,1.365a.973.973,0,0,1,.51.49l1.362,2.947h.656V56.035a10.537,10.537,0,0,1,0-20.984V29h-.656l-1.362,2.947a.973.973,0,0,1-.511.491L129.66,33.8a.971.971,0,0,1-.708.014l-3.045-1.122L123.6,35l1.122,3.045a.973.973,0,0,1-.014.709l-1.365,3.291a.973.973,0,0,1-.491.511l-2.946,1.359v3.26Z" transform="translate(-87.313 -14.056)" fill="#5fa7ee"/>
      <path id="Trazado_1223297" data-name="Trazado 1223297" d="M155.256,475.914H179.75a2.189,2.189,0,0,0-1.636-.981H156.893A2.192,2.192,0,0,0,155.256,475.914Z" transform="translate(-118.363 -405.777)" fill="#6f8c9b"/>
      <path id="Trazado_1223298" data-name="Trazado 1223298" d="M286.652,39.776a.642.642,0,1,0-.6-.64A.62.62,0,0,0,286.652,39.776Z" transform="translate(-233.259 -22.396)" fill="#ff99c7"/>
      <path id="Trazado_1223299" data-name="Trazado 1223299" d="M330.79,40.177a.644.644,0,1,0-.6-.64A.62.62,0,0,0,330.79,40.177Z" transform="translate(-272.031 -22.746)" fill="#23e8bf"/>
      <path id="Trazado_1223300" data-name="Trazado 1223300" d="M287.248,281.79a.6.6,0,1,0-.6.64A.62.62,0,0,0,287.248,281.79Z" transform="translate(-233.26 -235.552)" fill="#ff99c7"/>
      <path id="Trazado_1223301" data-name="Trazado 1223301" d="M331.386,281.364a.6.6,0,1,0-.6.64A.62.62,0,0,0,331.386,281.364Z" transform="translate(-272.032 -235.178)" fill="#23e8bf"/>
      <path id="Trazado_1223302" data-name="Trazado 1223302" d="M383.46,160.463a.6.6,0,1,0-.6.64A.62.62,0,0,0,383.46,160.463Z" transform="translate(-317.776 -128.975)" fill="#23e8bf"/>
      <path id="Trazado_1223303" data-name="Trazado 1223303" d="M358.092,227.962a.6.6,0,1,0-.6.64A.623.623,0,0,0,358.092,227.962Z" transform="translate(-295.488 -188.264)" fill="#ff99c7"/>
      <path id="Trazado_1223304" data-name="Trazado 1223304" d="M36.512,376.735a2.987,2.987,0,0,0,2.984,2.984h47.4a2.987,2.987,0,0,0,2.984-2.984v-.82H36.512Zm12.447.11h.748a.973.973,0,0,1,0,1.945h-.748a.973.973,0,0,1,0-1.945Zm-8.336,0h5.624a.973.973,0,0,1,0,1.945H40.623a.973.973,0,0,1,0-1.945Z" transform="translate(-14.055 -318.796)" fill="#d3effd"/>
      <path id="Trazado_1223305" data-name="Trazado 1223305" d="M268.847,98.436a.972.972,0,0,1,.014,1.944h4.283l.724-1.254a2.6,2.6,0,0,1-.521-1.562H264v.871h4.848Z" transform="translate(-213.886 -74.285)" fill="#809cad"/>
      <path id="Trazado_1223306" data-name="Trazado 1223306" d="M86.895,102.192H78.541a2.557,2.557,0,0,1-2.481,2.023,2.5,2.5,0,0,1-.352-.028l-.149.258h4.008a.973.973,0,0,1,.973-.973h6.355a1.705,1.705,0,0,1,1.7,1.7v25.361a1.707,1.707,0,0,1-1.7,1.707H39.5a1.707,1.707,0,0,1-1.7-1.707V105.176a1.705,1.705,0,0,1,1.7-1.7h6.358a.973.973,0,0,1,.973.973h1.941l.743-1.792-.17-.461H39.5a2.987,2.987,0,0,0-2.984,2.984v28.348H89.878V105.176a2.987,2.987,0,0,0-2.984-2.984Z" transform="translate(-14.055 -78.35)" fill="#809cad"/>
      <g id="Grupo_1233928" data-name="Grupo 1233928" transform="translate(25.683 26.095)">
        <path id="Trazado_1223307" data-name="Trazado 1223307" d="M68.578,122.982l3.166-1.46.33-.8H70.134a.973.973,0,0,1-.973.973H63.045v24.88H109.96V121.7h-6.113a.973.973,0,0,1-.973-.973H98.867L97.3,123.442a.972.972,0,0,1-.842.486H91.642A5.549,5.549,0,0,1,92,125.147H100.1a2.586,2.586,0,1,1,0,1.945H92a5.542,5.542,0,0,1-.362,1.218h4.814a.973.973,0,0,1,.842.486l1.716,2.971a2.493,2.493,0,0,1,.354-.028,2.587,2.587,0,1,1-2.544,2.589,2.6,2.6,0,0,1,.521-1.563l-1.45-2.51H90.254a5.584,5.584,0,0,1-2.281,1.253h4.35a.973.973,0,1,1,0,1.945H87.475v1.256h5.679A.973.973,0,0,1,94,135.2l1.77,3.064a2.5,2.5,0,0,1,.355-.028,2.586,2.586,0,1,1-2.544,2.585,2.6,2.6,0,0,1,.519-1.559l-1.5-2.6H87.475V139.9H88.4a2.586,2.586,0,1,1,0,1.945h-.924v1.795a.973.973,0,0,1-.973.973h-2.25a.972.972,0,0,1-.883-.565l-1.464-3.167L79.317,139.8l-3.272,1.205a.973.973,0,0,1-1.024-.225L71.837,137.6a.973.973,0,0,1-.225-1.024l1.205-3.272-1.073-2.589-3.167-1.464a.973.973,0,0,1-.565-.883v-4.5a.973.973,0,0,1,.565-.883Z" transform="translate(-63.045 -120.726)" fill="#91dafa"/>
        <path id="Trazado_1223308" data-name="Trazado 1223308" d="M272.446,120.727H268.1a5.584,5.584,0,0,1,2.285,1.256h5.636l.726-1.257h-4.3Z" transform="translate(-243.168 -120.726)" fill="#91dafa"/>
      </g>
    </g>
  </g>
</svg>
