<svg xmlns="http://www.w3.org/2000/svg" width="466.811" height="463.816" viewBox="0 0 466.811 463.816">
  <g id="Grupo_1235120" data-name="Grupo 1235120" transform="translate(-305 -4245.184)">
    <g id="Grupo_1232778" data-name="Grupo 1232778" transform="translate(-4629.214 502.897)">
      <path id="Trazado_1221227" data-name="Trazado 1221227" d="M3206.473,1605.02a232.938,232.938,0,0,1-77.39,28,21.594,21.594,0,0,1-25.231-21.281l-.009-188.235a21.589,21.589,0,0,1,10.795-18.7l163-94.11a21.6,21.6,0,0,1,31.041,11.194C3347.61,1426.656,3306.5,1547.27,3206.473,1605.02Z" transform="translate(2077.824 2572.769)" fill="#f93"/>
      <path id="Trazado_1221228" data-name="Trazado 1221228" d="M1993.592,402.365l-163,94.111a21.59,21.59,0,0,1-21.591,0L1645.984,402.35a21.593,21.593,0,0,1-5.815-32.491,232.933,232.933,0,0,1,62.945-53.021c100.027-57.75,225.036-33.047,296.3,53.049A21.6,21.6,0,0,1,1993.592,402.365Z" transform="translate(3347.82 3456.757)" fill="#3f7c85"/>
      <path id="Trazado_1221229" data-name="Trazado 1221229" d="M1493.81,1611.775a21.6,21.6,0,0,1-25.258,21.278,233.379,233.379,0,0,1-179.562-311.009,21.6,21.6,0,0,1,31.057-11.235l162.961,94.095a21.589,21.589,0,0,1,10.794,18.7Z" transform="translate(3659.757 2572.671)" fill="#c43302"/>
      <circle id="Elipse_13784" data-name="Elipse 13784" cx="205.292" cy="205.292" r="205.292" transform="translate(4962.311 3768.238)" opacity="0.15"/>
      <circle id="Elipse_13785" data-name="Elipse 13785" cx="85.349" cy="85.349" r="85.349" transform="translate(5082.253 3888.181)" fill="#fff"/>
    </g>
    <path id="Trazado_1225193" data-name="Trazado 1225193" d="M26.181,19H24.124l-4.869-5.766a3.514,3.514,0,0,1-.334-.439h-.035V19H17.409V6.4h1.477V12.32h.035a3.475,3.475,0,0,1,.334-.431L23.966,6.4H25.8L20.4,12.443Zm8.949,0H33.688V13.867Q33.688,11,31.6,11a2.269,2.269,0,0,0-1.789.813,3.013,3.013,0,0,0-.708,2.052V19H27.659V10H29.1v1.494h.035a3.248,3.248,0,0,1,2.953-1.705,2.753,2.753,0,0,1,2.259.954A4.248,4.248,0,0,1,35.13,13.5Zm6.479.211a4.175,4.175,0,0,1-3.186-1.261,4.672,4.672,0,0,1-1.191-3.344,4.867,4.867,0,0,1,1.239-3.542A4.455,4.455,0,0,1,41.82,9.789a4.037,4.037,0,0,1,3.142,1.239,4.914,4.914,0,0,1,1.129,3.437,4.835,4.835,0,0,1-1.217,3.45A4.265,4.265,0,0,1,41.609,19.211ZM41.715,11a2.742,2.742,0,0,0-2.2.945,3.88,3.88,0,0,0-.809,2.606,3.67,3.67,0,0,0,.817,2.522A2.778,2.778,0,0,0,41.715,18a2.635,2.635,0,0,0,2.149-.905,3.928,3.928,0,0,0,.751-2.575,4,4,0,0,0-.751-2.6A2.623,2.623,0,0,0,41.715,11Zm18.019-1-2.7,9H55.542l-1.854-6.442a4.2,4.2,0,0,1-.141-.835h-.035a3.941,3.941,0,0,1-.185.817L51.314,19H49.873l-2.725-9H48.66l1.863,6.768a4.077,4.077,0,0,1,.123.809h.07a3.782,3.782,0,0,1,.158-.826L52.949,10h1.318l1.863,6.785a4.844,4.844,0,0,1,.132.809h.07a3.74,3.74,0,0,1,.149-.809L58.31,10ZM74.723,6.4l-4.157,7.945V19H69.089V14.377L65.037,6.4h1.679l2.821,5.7q.053.105.308.773h.026a4.624,4.624,0,0,1,.334-.773l2.953-5.7Zm3.746,12.814a4.175,4.175,0,0,1-3.186-1.261,4.672,4.672,0,0,1-1.191-3.344,4.867,4.867,0,0,1,1.239-3.542A4.455,4.455,0,0,1,78.68,9.789a4.037,4.037,0,0,1,3.142,1.239,4.914,4.914,0,0,1,1.129,3.437,4.835,4.835,0,0,1-1.217,3.45A4.265,4.265,0,0,1,78.469,19.211ZM78.574,11a2.742,2.742,0,0,0-2.2.945,3.88,3.88,0,0,0-.809,2.606,3.67,3.67,0,0,0,.817,2.522A2.778,2.778,0,0,0,78.574,18a2.635,2.635,0,0,0,2.149-.905,3.928,3.928,0,0,0,.751-2.575,4,4,0,0,0-.751-2.6A2.623,2.623,0,0,0,78.574,11Zm13.959,8H91.092V17.576h-.035a2.96,2.96,0,0,1-2.777,1.635q-3.217,0-3.217-3.832V10H86.5v5.15Q86.5,18,88.675,18a2.205,2.205,0,0,0,1.736-.778,2.976,2.976,0,0,0,.681-2.035V10h1.441Zm7.6-7.541a1.763,1.763,0,0,0-1.09-.29,1.839,1.839,0,0,0-1.542.87,4.023,4.023,0,0,0-.62,2.373V19H95.444V10h1.441v1.854h.035a3.143,3.143,0,0,1,.94-1.481,2.144,2.144,0,0,1,1.415-.532,2.353,2.353,0,0,1,.861.123ZM7.107,46V33.4h3.48q6.662,0,6.662,6.144a6.191,6.191,0,0,1-1.85,4.689A6.863,6.863,0,0,1,10.447,46ZM8.583,34.732v9.932h1.881a5.338,5.338,0,0,0,3.858-1.327,4.975,4.975,0,0,0,1.38-3.762q0-4.843-5.15-4.843ZM26.77,41.86H20.415a3.366,3.366,0,0,0,.809,2.32A2.788,2.788,0,0,0,23.351,45a4.422,4.422,0,0,0,2.795-1V45.35a5.224,5.224,0,0,1-3.138.861,3.8,3.8,0,0,1-3-1.226,5.018,5.018,0,0,1-1.09-3.45,4.921,4.921,0,0,1,1.191-3.423,3.819,3.819,0,0,1,2.958-1.323A3.384,3.384,0,0,1,25.8,37.932,4.764,4.764,0,0,1,26.77,41.1Zm-1.477-1.222a2.933,2.933,0,0,0-.6-1.942A2.051,2.051,0,0,0,23.043,38a2.328,2.328,0,0,0-1.731.729,3.31,3.31,0,0,0-.879,1.907ZM30.428,44.7h-.035v5.44H28.951V37h1.441v1.582h.035a3.408,3.408,0,0,1,3.111-1.793A3.3,3.3,0,0,1,36.255,38a5.005,5.005,0,0,1,.976,3.239,5.578,5.578,0,0,1-1.1,3.617,3.658,3.658,0,0,1-3.006,1.358A3.011,3.011,0,0,1,30.428,44.7Zm-.035-3.63v1.257a2.676,2.676,0,0,0,.725,1.894A2.587,2.587,0,0,0,35.011,44a4.6,4.6,0,0,0,.743-2.786,3.629,3.629,0,0,0-.694-2.355A2.3,2.3,0,0,0,33.179,38a2.554,2.554,0,0,0-2.021.875A3.211,3.211,0,0,0,30.393,41.069ZM40.976,46H39.535V32.676h1.441Zm6.681.211a4.175,4.175,0,0,1-3.186-1.261,4.672,4.672,0,0,1-1.191-3.344,4.867,4.867,0,0,1,1.239-3.542,4.455,4.455,0,0,1,3.349-1.274,4.037,4.037,0,0,1,3.142,1.239,4.914,4.914,0,0,1,1.129,3.437,4.835,4.835,0,0,1-1.217,3.45A4.265,4.265,0,0,1,47.658,46.211ZM47.763,38a2.742,2.742,0,0,0-2.2.945,3.88,3.88,0,0,0-.809,2.606,3.67,3.67,0,0,0,.817,2.522A2.778,2.778,0,0,0,47.763,45a2.635,2.635,0,0,0,2.149-.905,3.928,3.928,0,0,0,.751-2.575,4,4,0,0,0-.751-2.6A2.623,2.623,0,0,0,47.763,38Zm13.845-1-4.14,10.441q-1.107,2.795-3.111,2.795a3.3,3.3,0,0,1-.94-.114V48.83a2.672,2.672,0,0,0,.853.158,1.767,1.767,0,0,0,1.635-1.3l.721-1.705L53.109,37h1.6l2.435,6.926q.044.132.185.686h.053q.044-.211.176-.668L60.114,37Zm14.328,9H74.494V40.832a3.9,3.9,0,0,0-.461-2.162A1.75,1.75,0,0,0,72.482,38a1.921,1.921,0,0,0-1.569.844,3.228,3.228,0,0,0-.646,2.021V46H68.826V40.656Q68.826,38,66.778,38a1.9,1.9,0,0,0-1.564.8,3.288,3.288,0,0,0-.615,2.07V46H63.157V37H64.6v1.424h.035a3.058,3.058,0,0,1,2.795-1.635,2.6,2.6,0,0,1,2.549,1.863,3.212,3.212,0,0,1,2.988-1.863q2.971,0,2.971,3.665Zm9.96-4.14H79.541a3.366,3.366,0,0,0,.809,2.32A2.788,2.788,0,0,0,82.477,45a4.422,4.422,0,0,0,2.795-1V45.35a5.224,5.224,0,0,1-3.138.861,3.8,3.8,0,0,1-3-1.226,5.018,5.018,0,0,1-1.09-3.45,4.921,4.921,0,0,1,1.191-3.423A3.819,3.819,0,0,1,82.2,36.789a3.384,3.384,0,0,1,2.733,1.143A4.764,4.764,0,0,1,85.9,41.1Zm-1.477-1.222a2.933,2.933,0,0,0-.6-1.942A2.051,2.051,0,0,0,82.169,38a2.328,2.328,0,0,0-1.731.729,3.31,3.31,0,0,0-.879,1.907ZM95.548,46H94.106V40.867Q94.106,38,92.015,38a2.269,2.269,0,0,0-1.789.813,3.013,3.013,0,0,0-.708,2.052V46H88.077V37h1.441v1.494h.035a3.248,3.248,0,0,1,2.953-1.705,2.753,2.753,0,0,1,2.259.954,4.248,4.248,0,0,1,.782,2.755Zm6.892-.088a2.779,2.779,0,0,1-1.345.281q-2.364,0-2.364-2.637V38.23H97.184V37h1.547V34.8l1.441-.466V37h2.268v1.23h-2.268V43.3a2.1,2.1,0,0,0,.308,1.292,1.228,1.228,0,0,0,1.02.387,1.515,1.515,0,0,0,.94-.3Zm1.382-.237V44.128a4.266,4.266,0,0,0,2.593.87q1.9,0,1.9-1.266a1.1,1.1,0,0,0-.163-.611,1.62,1.62,0,0,0-.439-.444,3.383,3.383,0,0,0-.65-.347q-.374-.154-.8-.321a10.357,10.357,0,0,1-1.05-.479,3.173,3.173,0,0,1-.756-.545,2.028,2.028,0,0,1-.457-.69,2.441,2.441,0,0,1-.154-.905,2.15,2.15,0,0,1,.29-1.121,2.572,2.572,0,0,1,.773-.817,3.607,3.607,0,0,1,1.1-.5,4.893,4.893,0,0,1,1.279-.167,5.164,5.164,0,0,1,2.092.4v1.459a4.077,4.077,0,0,0-2.285-.65,2.671,2.671,0,0,0-.729.092,1.786,1.786,0,0,0-.558.259,1.2,1.2,0,0,0-.36.4,1.053,1.053,0,0,0-.127.514,1.233,1.233,0,0,0,.127.589,1.3,1.3,0,0,0,.374.422,2.855,2.855,0,0,0,.6.334q.352.149.8.325a11.131,11.131,0,0,1,1.072.47,3.678,3.678,0,0,1,.809.545,2.129,2.129,0,0,1,.514.7,2.254,2.254,0,0,1,.18.94,2.217,2.217,0,0,1-.294,1.16,2.523,2.523,0,0,1-.787.817,3.6,3.6,0,0,1-1.134.483,5.6,5.6,0,0,1-1.345.158A5.106,5.106,0,0,1,103.822,45.675Z" transform="translate(352.906 4529.413)" fill="#fff"/>
    <path id="Trazado_1225194" data-name="Trazado 1225194" d="M12.177,19V6.4h3.586a3.919,3.919,0,0,1,2.593.8,2.585,2.585,0,0,1,.958,2.083,3.065,3.065,0,0,1-.58,1.863,3.128,3.128,0,0,1-1.6,1.125V12.3a3.206,3.206,0,0,1,2.039.962,2.96,2.96,0,0,1,.765,2.114A3.3,3.3,0,0,1,18.778,18a4.318,4.318,0,0,1-2.927,1ZM13.654,7.732V11.8h1.512a2.871,2.871,0,0,0,1.907-.584,2.035,2.035,0,0,0,.694-1.648q0-1.837-2.417-1.837Zm0,5.4v4.535h2a3,3,0,0,0,2.017-.615,2.107,2.107,0,0,0,.716-1.687q0-2.232-3.041-2.232ZM29.537,14.86H23.183a3.366,3.366,0,0,0,.809,2.32A2.788,2.788,0,0,0,26.118,18a4.422,4.422,0,0,0,2.795-1V18.35a5.224,5.224,0,0,1-3.138.861,3.8,3.8,0,0,1-3-1.226,5.018,5.018,0,0,1-1.09-3.45,4.921,4.921,0,0,1,1.191-3.423,3.819,3.819,0,0,1,2.958-1.323,3.384,3.384,0,0,1,2.733,1.143,4.764,4.764,0,0,1,.967,3.173Zm-1.477-1.222a2.933,2.933,0,0,0-.6-1.942A2.051,2.051,0,0,0,25.811,11a2.328,2.328,0,0,0-1.731.729,3.31,3.31,0,0,0-.879,1.907ZM45.88,19H44.122l-2.109-3.533a7.7,7.7,0,0,0-.562-.839,3.207,3.207,0,0,0-.558-.567,1.933,1.933,0,0,0-.615-.321,2.53,2.53,0,0,0-.743-.1H38.321V19H36.845V6.4h3.762a5.361,5.361,0,0,1,1.525.207,3.412,3.412,0,0,1,1.213.628,2.92,2.92,0,0,1,.8,1.05,3.483,3.483,0,0,1,.29,1.472,3.545,3.545,0,0,1-.2,1.208,3.156,3.156,0,0,1-.562.98,3.41,3.41,0,0,1-.879.734,4.487,4.487,0,0,1-1.156.47v.035a2.658,2.658,0,0,1,.549.321,3.023,3.023,0,0,1,.444.426,5.646,5.646,0,0,1,.417.558q.207.312.461.725ZM38.321,7.732V12.3h2a3.039,3.039,0,0,0,1.024-.167,2.37,2.37,0,0,0,.813-.479,2.172,2.172,0,0,0,.536-.765,2.56,2.56,0,0,0,.193-1.015A1.976,1.976,0,0,0,42.237,8.3a2.813,2.813,0,0,0-1.894-.567Zm15.8,7.128H47.771a3.366,3.366,0,0,0,.809,2.32A2.788,2.788,0,0,0,50.707,18,4.422,4.422,0,0,0,53.5,17V18.35a5.224,5.224,0,0,1-3.138.861,3.8,3.8,0,0,1-3-1.226,5.018,5.018,0,0,1-1.09-3.45,4.921,4.921,0,0,1,1.191-3.423,3.819,3.819,0,0,1,2.958-1.323,3.384,3.384,0,0,1,2.733,1.143,4.764,4.764,0,0,1,.967,3.173Zm-1.477-1.222a2.933,2.933,0,0,0-.6-1.942A2.051,2.051,0,0,0,50.4,11a2.328,2.328,0,0,0-1.731.729,3.31,3.31,0,0,0-.879,1.907ZM62.75,19H61.308V17.594h-.035A3.018,3.018,0,0,1,58.5,19.211a2.959,2.959,0,0,1-2.1-.712,2.466,2.466,0,0,1-.76-1.89q0-2.522,2.971-2.936l2.7-.378Q61.308,11,59.454,11a4.431,4.431,0,0,0-2.936,1.107V10.633a5.577,5.577,0,0,1,3.059-.844q3.173,0,3.173,3.357Zm-1.441-4.553-2.171.3a3.525,3.525,0,0,0-1.512.5,1.432,1.432,0,0,0-.51,1.261,1.374,1.374,0,0,0,.47,1.077A1.817,1.817,0,0,0,58.838,18a2.314,2.314,0,0,0,1.771-.751,2.685,2.685,0,0,0,.7-1.9ZM73.149,19H71.707V17.471h-.035a3.327,3.327,0,0,1-3.094,1.74A3.362,3.362,0,0,1,65.867,18a4.958,4.958,0,0,1-1.015-3.292,5.394,5.394,0,0,1,1.125-3.577,3.71,3.71,0,0,1,3-1.345,2.885,2.885,0,0,1,2.7,1.459h.035V5.676h1.441Zm-1.441-4.069V13.6a2.575,2.575,0,0,0-.721-1.846A2.417,2.417,0,0,0,69.159,11a2.489,2.489,0,0,0-2.074.967,4.237,4.237,0,0,0-.756,2.672,3.81,3.81,0,0,0,.725,2.457A2.37,2.37,0,0,0,69,18a2.462,2.462,0,0,0,1.956-.87A3.242,3.242,0,0,0,71.707,14.931ZM83.232,10l-4.14,10.441q-1.107,2.795-3.111,2.795a3.3,3.3,0,0,1-.94-.114V21.83a2.672,2.672,0,0,0,.853.158,1.767,1.767,0,0,0,1.635-1.3l.721-1.705L74.733,10h1.6l2.435,6.926q.044.132.185.686H79q.044-.211.176-.668L81.737,10ZM97.359,7.732H93.721V19H92.244V7.732h-3.63V6.4h8.745Zm3.79,11.479a4.175,4.175,0,0,1-3.186-1.261,4.672,4.672,0,0,1-1.191-3.344,4.867,4.867,0,0,1,1.239-3.542,4.455,4.455,0,0,1,3.349-1.274,4.037,4.037,0,0,1,3.142,1.239,4.914,4.914,0,0,1,1.129,3.437,4.835,4.835,0,0,1-1.217,3.45A4.265,4.265,0,0,1,101.149,19.211ZM101.255,11a2.742,2.742,0,0,0-2.2.945,3.88,3.88,0,0,0-.809,2.606,3.67,3.67,0,0,0,.817,2.522,2.778,2.778,0,0,0,2.188.923,2.635,2.635,0,0,0,2.149-.905,3.928,3.928,0,0,0,.751-2.575,4,4,0,0,0-.751-2.6A2.623,2.623,0,0,0,101.255,11ZM13.513,45.473a7.392,7.392,0,0,1-3.48.738,5.613,5.613,0,0,1-4.307-1.731,6.389,6.389,0,0,1-1.617-4.544,6.7,6.7,0,0,1,1.819-4.887,6.175,6.175,0,0,1,4.614-1.863,7.4,7.4,0,0,1,2.971.519v1.573a6.024,6.024,0,0,0-2.988-.756A4.585,4.585,0,0,0,7,35.972a5.463,5.463,0,0,0-1.349,3.876,5.2,5.2,0,0,0,1.261,3.669,4.292,4.292,0,0,0,3.309,1.367,6.208,6.208,0,0,0,3.287-.844Zm6.137.738a4.175,4.175,0,0,1-3.186-1.261,4.672,4.672,0,0,1-1.191-3.344,4.867,4.867,0,0,1,1.239-3.542,4.455,4.455,0,0,1,3.349-1.274A4.037,4.037,0,0,1,23,38.028a4.914,4.914,0,0,1,1.129,3.437,4.835,4.835,0,0,1-1.217,3.45A4.265,4.265,0,0,1,19.65,46.211ZM19.755,38a2.742,2.742,0,0,0-2.2.945,3.88,3.88,0,0,0-.809,2.606,3.67,3.67,0,0,0,.817,2.522A2.778,2.778,0,0,0,19.755,45a2.635,2.635,0,0,0,2.149-.905,3.928,3.928,0,0,0,.751-2.575,4,4,0,0,0-.751-2.6A2.623,2.623,0,0,0,19.755,38Zm19.461,8H37.774V40.832a3.9,3.9,0,0,0-.461-2.162A1.75,1.75,0,0,0,35.762,38a1.921,1.921,0,0,0-1.569.844,3.228,3.228,0,0,0-.646,2.021V46H32.105V40.656Q32.105,38,30.058,38a1.9,1.9,0,0,0-1.564.8,3.288,3.288,0,0,0-.615,2.07V46H26.436V37h1.441v1.424h.035a3.058,3.058,0,0,1,2.795-1.635,2.6,2.6,0,0,1,2.549,1.863,3.212,3.212,0,0,1,2.988-1.863q2.971,0,2.971,3.665Zm15.506,0H53.28V40.832a3.9,3.9,0,0,0-.461-2.162A1.75,1.75,0,0,0,51.267,38a1.921,1.921,0,0,0-1.569.844,3.228,3.228,0,0,0-.646,2.021V46H47.611V40.656Q47.611,38,45.563,38A1.9,1.9,0,0,0,44,38.8a3.288,3.288,0,0,0-.615,2.07V46H41.942V37h1.441v1.424h.035a3.058,3.058,0,0,1,2.795-1.635,2.6,2.6,0,0,1,2.549,1.863,3.212,3.212,0,0,1,2.988-1.863q2.971,0,2.971,3.665Zm10,0H63.284V44.576h-.035a2.96,2.96,0,0,1-2.777,1.635q-3.217,0-3.217-3.832V37h1.433v5.15q0,2.848,2.18,2.848A2.205,2.205,0,0,0,62.6,44.22a2.976,2.976,0,0,0,.681-2.035V37h1.441Zm10.382,0H73.666V40.867Q73.666,38,71.574,38a2.269,2.269,0,0,0-1.789.813,3.013,3.013,0,0,0-.708,2.052V46H67.636V37h1.441v1.494h.035a3.248,3.248,0,0,1,2.953-1.705,2.753,2.753,0,0,1,2.259.954,4.248,4.248,0,0,1,.782,2.755Zm3.456-11.285a.913.913,0,0,1-.659-.264.89.89,0,0,1-.272-.668.923.923,0,0,1,.932-.94.931.931,0,0,1,.672.268.939.939,0,0,1,0,1.332A.923.923,0,0,1,78.563,34.715ZM79.266,46H77.825V37h1.441Zm9.055-.413a4.684,4.684,0,0,1-2.461.624,4.074,4.074,0,0,1-3.107-1.252,4.539,4.539,0,0,1-1.182-3.248,4.99,4.99,0,0,1,1.274-3.573,4.458,4.458,0,0,1,3.4-1.349,4.735,4.735,0,0,1,2.092.439v1.477a3.665,3.665,0,0,0-2.145-.7,2.9,2.9,0,0,0-2.263.989,3.752,3.752,0,0,0-.883,2.6,3.573,3.573,0,0,0,.831,2.5A2.863,2.863,0,0,0,86.106,45a3.613,3.613,0,0,0,2.215-.782ZM96.944,46H95.5V44.594h-.035A3.018,3.018,0,0,1,92.7,46.211a2.959,2.959,0,0,1-2.1-.712,2.466,2.466,0,0,1-.76-1.89q0-2.522,2.971-2.936l2.7-.378Q95.5,38,93.648,38a4.431,4.431,0,0,0-2.936,1.107V37.633a5.577,5.577,0,0,1,3.059-.844q3.173,0,3.173,3.357ZM95.5,41.447l-2.171.3a3.525,3.525,0,0,0-1.512.5,1.432,1.432,0,0,0-.51,1.261,1.374,1.374,0,0,0,.47,1.077A1.817,1.817,0,0,0,93.033,45a2.314,2.314,0,0,0,1.771-.751,2.685,2.685,0,0,0,.7-1.9Zm8.334,4.465a2.779,2.779,0,0,1-1.345.281q-2.364,0-2.364-2.637V38.23H98.581V37h1.547V34.8l1.441-.466V37h2.268v1.23h-2.268V43.3a2.1,2.1,0,0,0,.308,1.292,1.228,1.228,0,0,0,1.02.387,1.515,1.515,0,0,0,.94-.3ZM113,41.86h-6.354a3.366,3.366,0,0,0,.809,2.32,2.788,2.788,0,0,0,2.127.817,4.422,4.422,0,0,0,2.795-1V45.35a5.224,5.224,0,0,1-3.138.861,3.8,3.8,0,0,1-3-1.226,5.018,5.018,0,0,1-1.09-3.45,4.921,4.921,0,0,1,1.191-3.423,3.819,3.819,0,0,1,2.958-1.323,3.384,3.384,0,0,1,2.733,1.143A4.764,4.764,0,0,1,113,41.1Zm-1.477-1.222a2.933,2.933,0,0,0-.6-1.942A2.051,2.051,0,0,0,109.27,38a2.328,2.328,0,0,0-1.731.729,3.31,3.31,0,0,0-.879,1.907Z" transform="translate(607.906 4529.413)" fill="#fff"/>
    <path id="Trazado_1225195" data-name="Trazado 1225195" d="M14.76,14.236V19H13.283V6.4h3.463a4.571,4.571,0,0,1,3.133.984,3.515,3.515,0,0,1,1.112,2.777,3.82,3.82,0,0,1-1.235,2.936,4.718,4.718,0,0,1-3.335,1.143Zm0-6.5V12.9h1.547a3.458,3.458,0,0,0,2.333-.7,2.474,2.474,0,0,0,.8-1.973q0-2.5-2.953-2.5Zm13.106,3.727a1.763,1.763,0,0,0-1.09-.29,1.839,1.839,0,0,0-1.542.87,4.023,4.023,0,0,0-.62,2.373V19H23.173V10h1.441v1.854h.035a3.143,3.143,0,0,1,.94-1.481A2.144,2.144,0,0,1,27,9.842a2.353,2.353,0,0,1,.861.123ZM35.875,19H34.433V17.594H34.4a3.018,3.018,0,0,1-2.769,1.617,2.959,2.959,0,0,1-2.1-.712,2.466,2.466,0,0,1-.76-1.89q0-2.522,2.971-2.936l2.7-.378Q34.433,11,32.579,11a4.431,4.431,0,0,0-2.936,1.107V10.633A5.577,5.577,0,0,1,32.7,9.789q3.173,0,3.173,3.357Zm-1.441-4.553-2.171.3a3.525,3.525,0,0,0-1.512.5,1.432,1.432,0,0,0-.51,1.261,1.374,1.374,0,0,0,.47,1.077A1.817,1.817,0,0,0,31.964,18a2.314,2.314,0,0,0,1.771-.751,2.685,2.685,0,0,0,.7-1.9Zm10.294,4.14a4.684,4.684,0,0,1-2.461.624,4.074,4.074,0,0,1-3.107-1.252,4.539,4.539,0,0,1-1.182-3.248,4.99,4.99,0,0,1,1.274-3.573,4.458,4.458,0,0,1,3.4-1.349,4.735,4.735,0,0,1,2.092.439v1.477A3.665,3.665,0,0,0,42.6,11a2.9,2.9,0,0,0-2.263.989,3.752,3.752,0,0,0-.883,2.6,3.573,3.573,0,0,0,.831,2.5A2.863,2.863,0,0,0,42.512,18a3.613,3.613,0,0,0,2.215-.782Zm6.356.325a2.779,2.779,0,0,1-1.345.281q-2.364,0-2.364-2.637V11.23H45.828V10h1.547V7.8l1.441-.466V10h2.268v1.23H48.816V16.3a2.1,2.1,0,0,0,.308,1.292,1.228,1.228,0,0,0,1.02.387,1.515,1.515,0,0,0,.94-.3Zm2.665-11.2a.913.913,0,0,1-.659-.264.89.89,0,0,1-.272-.668.923.923,0,0,1,.932-.94.931.931,0,0,1,.672.268.939.939,0,0,1,0,1.332A.923.923,0,0,1,53.748,7.715ZM54.452,19H53.01V10h1.441Zm9.055-.413a4.684,4.684,0,0,1-2.461.624,4.074,4.074,0,0,1-3.107-1.252,4.539,4.539,0,0,1-1.182-3.248,4.99,4.99,0,0,1,1.274-3.573,4.458,4.458,0,0,1,3.4-1.349,4.735,4.735,0,0,1,2.092.439v1.477a3.665,3.665,0,0,0-2.145-.7,2.9,2.9,0,0,0-2.263.989,3.752,3.752,0,0,0-.883,2.6,3.573,3.573,0,0,0,.831,2.5A2.863,2.863,0,0,0,61.291,18a3.613,3.613,0,0,0,2.215-.782Zm9.415-3.727H66.566a3.366,3.366,0,0,0,.809,2.32A2.788,2.788,0,0,0,69.5,18,4.422,4.422,0,0,0,72.3,17V18.35a5.224,5.224,0,0,1-3.138.861,3.8,3.8,0,0,1-3-1.226,5.018,5.018,0,0,1-1.09-3.45,4.921,4.921,0,0,1,1.191-3.423,3.819,3.819,0,0,1,2.958-1.323,3.384,3.384,0,0,1,2.733,1.143,4.764,4.764,0,0,1,.967,3.173Zm-1.477-1.222a2.933,2.933,0,0,0-.6-1.942A2.051,2.051,0,0,0,69.194,11a2.328,2.328,0,0,0-1.731.729,3.31,3.31,0,0,0-.879,1.907ZM89.6,6.4,84.93,19H83.3L78.734,6.4h1.644l3.489,9.993a5.933,5.933,0,0,1,.255,1.116h.035a5.475,5.475,0,0,1,.29-1.134L88.007,6.4ZM98.054,19H96.613V17.576h-.035A2.96,2.96,0,0,1,93.8,19.211q-3.217,0-3.217-3.832V10h1.433v5.15Q92.016,18,94.2,18a2.205,2.205,0,0,0,1.736-.778,2.976,2.976,0,0,0,.681-2.035V10h1.441Zm4.352,0h-1.441V5.676h1.441Zm10.39,0h-1.441V13.867q0-2.865-2.092-2.865a2.269,2.269,0,0,0-1.789.813,3.013,3.013,0,0,0-.708,2.052V19h-1.441V10h1.441v1.494h.035a3.248,3.248,0,0,1,2.953-1.705,2.753,2.753,0,0,1,2.259.954A4.248,4.248,0,0,1,112.8,13.5Zm9.951-4.14h-6.354a3.366,3.366,0,0,0,.809,2.32,2.788,2.788,0,0,0,2.127.817,4.422,4.422,0,0,0,2.795-1V18.35a5.224,5.224,0,0,1-3.138.861,3.8,3.8,0,0,1-3-1.226,5.018,5.018,0,0,1-1.09-3.45,4.921,4.921,0,0,1,1.191-3.423,3.819,3.819,0,0,1,2.958-1.323,3.384,3.384,0,0,1,2.733,1.143,4.764,4.764,0,0,1,.967,3.173Zm-1.477-1.222a2.933,2.933,0,0,0-.6-1.942A2.051,2.051,0,0,0,119.022,11a2.328,2.328,0,0,0-1.731.729,3.31,3.31,0,0,0-.879,1.907Zm8.351-2.18a1.763,1.763,0,0,0-1.09-.29,1.839,1.839,0,0,0-1.542.87,4.023,4.023,0,0,0-.62,2.373V19H124.93V10h1.441v1.854h.035a3.143,3.143,0,0,1,.94-1.481,2.144,2.144,0,0,1,1.415-.532,2.353,2.353,0,0,1,.861.123ZM137.632,19H136.19V17.594h-.035a3.018,3.018,0,0,1-2.769,1.617,2.959,2.959,0,0,1-2.1-.712,2.466,2.466,0,0,1-.76-1.89q0-2.522,2.971-2.936l2.7-.378q0-2.294-1.854-2.294a4.431,4.431,0,0,0-2.936,1.107V10.633a5.577,5.577,0,0,1,3.059-.844q3.173,0,3.173,3.357Zm-1.441-4.553-2.171.3a3.525,3.525,0,0,0-1.512.5A1.432,1.432,0,0,0,132,16.5a1.374,1.374,0,0,0,.47,1.077,1.817,1.817,0,0,0,1.252.417,2.314,2.314,0,0,0,1.771-.751,2.685,2.685,0,0,0,.7-1.9Zm5.636,3.252h-.035V19h-1.441V5.676h1.441v5.906h.035a3.408,3.408,0,0,1,3.111-1.793A3.3,3.3,0,0,1,147.649,11a4.99,4.99,0,0,1,.98,3.239,5.578,5.578,0,0,1-1.1,3.617,3.658,3.658,0,0,1-3.006,1.358A2.96,2.96,0,0,1,141.826,17.7Zm-.035-3.63v1.257a2.676,2.676,0,0,0,.725,1.894A2.587,2.587,0,0,0,146.409,17a4.6,4.6,0,0,0,.743-2.786,3.629,3.629,0,0,0-.694-2.355A2.3,2.3,0,0,0,144.577,11a2.554,2.554,0,0,0-2.021.875A3.211,3.211,0,0,0,141.791,14.069Zm9.881-6.354a.913.913,0,0,1-.659-.264.89.89,0,0,1-.272-.668.923.923,0,0,1,.932-.94.931.931,0,0,1,.672.268.939.939,0,0,1,0,1.332A.923.923,0,0,1,151.671,7.715Zm.7,11.285h-1.441V10h1.441Zm4.361,0h-1.441V5.676h1.441Zm3.658-11.285a.913.913,0,0,1-.659-.264.89.89,0,0,1-.272-.668.923.923,0,0,1,.932-.94.931.931,0,0,1,.672.268.939.939,0,0,1,0,1.332A.923.923,0,0,1,160.394,7.715ZM161.1,19h-1.441V10H161.1Zm7.095-.088a2.779,2.779,0,0,1-1.345.281q-2.364,0-2.364-2.637V11.23h-1.547V10h1.547V7.8l1.441-.466V10h2.268v1.23h-2.268V16.3a2.1,2.1,0,0,0,.308,1.292,1.228,1.228,0,0,0,1.02.387,1.515,1.515,0,0,0,.94-.3ZM177.281,10l-4.14,10.441q-1.107,2.795-3.111,2.795a3.3,3.3,0,0,1-.94-.114V21.83a2.672,2.672,0,0,0,.853.158,1.767,1.767,0,0,0,1.635-1.3l.721-1.705L168.782,10h1.6l2.435,6.926q.044.132.185.686h.053q.044-.211.176-.668L175.787,10ZM56.053,46H54.585V37.545q0-1,.123-2.452h-.035a7.84,7.84,0,0,1-.378,1.222L49.988,46h-.721l-4.3-9.615a7.533,7.533,0,0,1-.378-1.292h-.035q.07.756.07,2.47V46H43.2V33.4h1.951l3.867,8.789A11.254,11.254,0,0,1,49.6,43.7h.053q.378-1.037.606-1.547L54.207,33.4h1.846Zm9.564,0H64.176V44.594h-.035a3.018,3.018,0,0,1-2.769,1.617,2.959,2.959,0,0,1-2.1-.712,2.466,2.466,0,0,1-.76-1.89q0-2.522,2.971-2.936l2.7-.378Q64.176,38,62.321,38a4.431,4.431,0,0,0-2.936,1.107V37.633a5.577,5.577,0,0,1,3.059-.844q3.173,0,3.173,3.357Zm-1.441-4.553-2.171.3a3.525,3.525,0,0,0-1.512.5,1.432,1.432,0,0,0-.51,1.261,1.374,1.374,0,0,0,.47,1.077A1.817,1.817,0,0,0,61.706,45a2.314,2.314,0,0,0,1.771-.751,2.685,2.685,0,0,0,.7-1.9ZM75.806,46H74.364V40.867Q74.364,38,72.272,38a2.269,2.269,0,0,0-1.789.813,3.013,3.013,0,0,0-.708,2.052V46H68.335V37h1.441v1.494h.035a3.248,3.248,0,0,1,2.953-1.705,2.753,2.753,0,0,1,2.259.954,4.248,4.248,0,0,1,.782,2.755Zm9.16,0H83.524V44.594h-.035a3.018,3.018,0,0,1-2.769,1.617,2.959,2.959,0,0,1-2.1-.712,2.466,2.466,0,0,1-.76-1.89q0-2.522,2.971-2.936l2.7-.378Q83.524,38,81.67,38a4.431,4.431,0,0,0-2.936,1.107V37.633a5.577,5.577,0,0,1,3.059-.844q3.173,0,3.173,3.357Zm-1.441-4.553-2.171.3a3.525,3.525,0,0,0-1.512.5,1.432,1.432,0,0,0-.51,1.261,1.374,1.374,0,0,0,.47,1.077A1.817,1.817,0,0,0,81.054,45a2.314,2.314,0,0,0,1.771-.751,2.685,2.685,0,0,0,.7-1.9Zm11.841,3.832q0,4.957-4.746,4.957A6.372,6.372,0,0,1,87.7,49.6V48.162a5.993,5.993,0,0,0,2.9.844q3.322,0,3.322-3.533v-.984h-.035a3.641,3.641,0,0,1-5.8.523,4.8,4.8,0,0,1-1.024-3.221,5.6,5.6,0,0,1,1.1-3.647,3.685,3.685,0,0,1,3.019-1.354,2.934,2.934,0,0,1,2.7,1.459h.035V37h1.441Zm-1.441-3.349V40.6a2.575,2.575,0,0,0-.725-1.837A2.387,2.387,0,0,0,91.392,38a2.5,2.5,0,0,0-2.092.971,4.335,4.335,0,0,0-.756,2.72,3.721,3.721,0,0,0,.725,2.4,2.343,2.343,0,0,0,1.92.9,2.509,2.509,0,0,0,1.973-.861A3.21,3.21,0,0,0,93.923,41.931Zm11.595-.07H99.163a3.366,3.366,0,0,0,.809,2.32A2.788,2.788,0,0,0,102.1,45a4.422,4.422,0,0,0,2.795-1V45.35a5.224,5.224,0,0,1-3.138.861,3.8,3.8,0,0,1-3-1.226,5.018,5.018,0,0,1-1.09-3.45,4.921,4.921,0,0,1,1.191-3.423,3.819,3.819,0,0,1,2.958-1.323,3.384,3.384,0,0,1,2.733,1.143,4.764,4.764,0,0,1,.967,3.173Zm-1.477-1.222a2.933,2.933,0,0,0-.6-1.942A2.051,2.051,0,0,0,101.791,38a2.328,2.328,0,0,0-1.731.729,3.31,3.31,0,0,0-.879,1.907ZM120.479,46h-1.441V40.832a3.9,3.9,0,0,0-.461-2.162A1.75,1.75,0,0,0,117.025,38a1.921,1.921,0,0,0-1.569.844,3.228,3.228,0,0,0-.646,2.021V46h-1.441V40.656q0-2.654-2.048-2.654a1.9,1.9,0,0,0-1.564.8,3.288,3.288,0,0,0-.615,2.07V46H107.7V37h1.441v1.424h.035a3.058,3.058,0,0,1,2.795-1.635,2.6,2.6,0,0,1,2.549,1.863,3.212,3.212,0,0,1,2.988-1.863q2.971,0,2.971,3.665Zm9.96-4.14h-6.354a3.366,3.366,0,0,0,.809,2.32A2.788,2.788,0,0,0,127.02,45a4.422,4.422,0,0,0,2.795-1V45.35a5.224,5.224,0,0,1-3.138.861,3.8,3.8,0,0,1-3-1.226,5.018,5.018,0,0,1-1.09-3.45,4.921,4.921,0,0,1,1.191-3.423,3.819,3.819,0,0,1,2.958-1.323,3.384,3.384,0,0,1,2.733,1.143,4.764,4.764,0,0,1,.967,3.173Zm-1.477-1.222a2.933,2.933,0,0,0-.6-1.942A2.051,2.051,0,0,0,126.712,38a2.328,2.328,0,0,0-1.731.729,3.31,3.31,0,0,0-.879,1.907ZM140.091,46h-1.441V40.867q0-2.865-2.092-2.865a2.269,2.269,0,0,0-1.789.813,3.013,3.013,0,0,0-.708,2.052V46H132.62V37h1.441v1.494h.035a3.248,3.248,0,0,1,2.953-1.705,2.753,2.753,0,0,1,2.259.954,4.248,4.248,0,0,1,.782,2.755Zm6.892-.088a2.779,2.779,0,0,1-1.345.281q-2.364,0-2.364-2.637V38.23h-1.547V37h1.547V34.8l1.441-.466V37h2.268v1.23h-2.268V43.3a2.1,2.1,0,0,0,.308,1.292,1.228,1.228,0,0,0,1.02.387,1.515,1.515,0,0,0,.94-.3Z" transform="translate(443.906 4314.413)" fill="#fff"/>
    <path id="Trazado_1225196" data-name="Trazado 1225196" d="M23.16,31.253a13.852,13.852,0,0,1-6.006,1.113,10.123,10.123,0,0,1-7.6-2.842,10.388,10.388,0,0,1-2.769-7.573A11.1,11.1,0,0,1,9.9,13.777a10.888,10.888,0,0,1,8.079-3.135,15.108,15.108,0,0,1,5.186.776v4.556a9.188,9.188,0,0,0-4.8-1.26,6.374,6.374,0,0,0-4.775,1.86,6.9,6.9,0,0,0-1.816,5.039,6.771,6.771,0,0,0,1.714,4.856,6.055,6.055,0,0,0,4.614,1.809,9.842,9.842,0,0,0,5.068-1.348ZM44.312,10.994,37.076,32H31.714L24.566,10.994h5.1l4.38,14.619a10.47,10.47,0,0,1,.425,2.095h.088a11.84,11.84,0,0,1,.454-2.153l4.351-14.561ZM59.429,32h-12.6V10.994H58.946v3.853H51.563V19.52h6.87v3.838h-6.87v4.8h7.866Z" transform="translate(502 4458.092)" fill="#212429"/>
  </g>
</svg>
