<svg xmlns="http://www.w3.org/2000/svg" xmlns:xlink="http://www.w3.org/1999/xlink" width="113" height="113" viewBox="0 0 113 113">
  <defs>
    <filter id="Trazado_982547" x="0" y="0" width="113" height="113" filterUnits="userSpaceOnUse">
      <feOffset dy="3" input="SourceAlpha"/>
      <feGaussianBlur stdDeviation="3" result="blur"/>
      <feFlood flood-opacity="0.161"/>
      <feComposite operator="in" in2="blur"/>
      <feComposite in="SourceGraphic"/>
    </filter>
  </defs>
  <g id="Grupo_1234667" data-name="Grupo 1234667" transform="translate(-1216.213 -4654.492)">
    <g id="Grupo_1234372" data-name="Grupo 1234372" transform="translate(0.213 -2957.067)">
      <g id="Grupo_1232787" data-name="Grupo 1232787" transform="translate(0 -152.663)">
        <g id="Grupo_1229017" data-name="Grupo 1229017" transform="translate(0 2131.042)">
          <g id="Grupo_1227505" data-name="Grupo 1227505" transform="translate(0.575 2048.198)">
            <g id="Grupo_1225353" data-name="Grupo 1225353" transform="translate(-0.575 -393.641)">
              <g id="Grupo_1208124" data-name="Grupo 1208124" transform="translate(0 -1922.377)">
                <g id="Grupo_1202435" data-name="Grupo 1202435" transform="translate(-0.56 1255.486)">
                  <g id="Grupo_1202052" data-name="Grupo 1202052" transform="translate(1225.561 4651.514)">
                    <g id="Grupo_1172010" data-name="Grupo 1172010" transform="translate(0)">
                      <g id="Grupo_1171046" data-name="Grupo 1171046">
                        <g id="Grupo_1148525" data-name="Grupo 1148525">
                          <g transform="matrix(1, 0, 0, 1, -9, -6)" filter="url(#Trazado_982547)">
                            <g id="Trazado_982547-2" data-name="Trazado 982547" transform="translate(9 6)" fill="#cefcf7">
                              <path d="M 47.5 93.5 C 41.28937149047852 93.5 35.26533508300781 92.28397369384766 29.59518623352051 89.88570404052734 C 24.11771965026855 87.56893157958984 19.19813346862793 84.25196075439453 14.97309303283691 80.02691650390625 C 10.74804019927979 75.80186462402344 7.431066513061523 70.88229370117188 5.114293098449707 65.40481567382812 C 2.716026782989502 59.73468017578125 1.5 53.71062850952148 1.5 47.5 C 1.5 41.28937149047852 2.716026782989502 35.26533508300781 5.114293098449707 29.59518623352051 C 7.431066513061523 24.11771965026855 10.74804019927979 19.19813346862793 14.97309303283691 14.97309303283691 C 19.19813346862793 10.74804019927979 24.11771965026855 7.431066513061523 29.59518623352051 5.114293098449707 C 35.26533508300781 2.716026782989502 41.28937149047852 1.5 47.5 1.5 C 53.71062850952148 1.5 59.73468017578125 2.716026782989502 65.40481567382812 5.114293098449707 C 70.88229370117188 7.431066513061523 75.80186462402344 10.74804019927979 80.02691650390625 14.97309303283691 C 84.25196075439453 19.19813346862793 87.56893157958984 24.11771965026855 89.88570404052734 29.59518623352051 C 92.28397369384766 35.26533508300781 93.5 41.28937149047852 93.5 47.5 C 93.5 53.71062850952148 92.28397369384766 59.73468017578125 89.88570404052734 65.40481567382812 C 87.56893157958984 70.88229370117188 84.25196075439453 75.80186462402344 80.02691650390625 80.02691650390625 C 75.80186462402344 84.25196075439453 70.88229370117188 87.56893157958984 65.40481567382812 89.88570404052734 C 59.73468017578125 92.28397369384766 53.71062850952148 93.5 47.5 93.5 Z" stroke="none"/>
                              <path d="M 47.5 3 C 41.49121475219727 3 35.66376876831055 4.176155090332031 30.17950439453125 6.495796203613281 C 24.88084411621094 8.736953735351562 20.12152099609375 11.94598388671875 16.03375244140625 16.03375244140625 C 11.94598388671875 20.12152099609375 8.736953735351562 24.88084411621094 6.495796203613281 30.17950439453125 C 4.176155090332031 35.66376876831055 3 41.49121475219727 3 47.5 C 3 53.50878524780273 4.176155090332031 59.33623123168945 6.495796203613281 64.82049560546875 C 8.736953735351562 70.11915588378906 11.94598388671875 74.87847900390625 16.03375244140625 78.96624755859375 C 20.12152099609375 83.05401611328125 24.88084411621094 86.26304626464844 30.17950439453125 88.50419616699219 C 35.66376876831055 90.82384490966797 41.49121475219727 92 47.5 92 C 53.50878524780273 92 59.33623123168945 90.82384490966797 64.82049560546875 88.50419616699219 C 70.11915588378906 86.26304626464844 74.87847900390625 83.05401611328125 78.96624755859375 78.96624755859375 C 83.05401611328125 74.87847900390625 86.26304626464844 70.11915588378906 88.50419616699219 64.82049560546875 C 90.82384490966797 59.33623123168945 92 53.50878524780273 92 47.5 C 92 41.49121475219727 90.82384490966797 35.66376876831055 88.50419616699219 30.17950439453125 C 86.26304626464844 24.88084411621094 83.05401611328125 20.12152099609375 78.96624755859375 16.03375244140625 C 74.87847900390625 11.94598388671875 70.11915588378906 8.736953735351562 64.82049560546875 6.495796203613281 C 59.33623123168945 4.176155090332031 53.50878524780273 3 47.5 3 M 47.5 0 C 73.7335205078125 0 95 21.2664794921875 95 47.5 C 95 73.7335205078125 73.7335205078125 95 47.5 95 C 21.2664794921875 95 0 73.7335205078125 0 47.5 C 0 21.2664794921875 21.2664794921875 0 47.5 0 Z" stroke="none" fill="#098576"/>
                            </g>
                          </g>
                        </g>
                      </g>
                    </g>
                  </g>
                </g>
              </g>
            </g>
          </g>
        </g>
      </g>
    </g>
    <g id="token-de-seguridad" transform="translate(1187.807 4650.234)">
      <path id="Trazado_1224460" data-name="Trazado 1224460" d="M175.632,65.035l-.006-26.817-3.878-3.877-19.472,0-4.143,4.145.005,26.551,4.485.9,0-23.8,2.792-2.793,13.12,0,2.613,2.612,0,23.978Z" transform="translate(-77.392 -5.67)" fill="#60b7fe" fill-rule="evenodd"/>
      <path id="Trazado_1224461" data-name="Trazado 1224461" d="M109.289,209.717l6.118,6.115,0,21.58-6.772,6.775-36.207.007-6.775-6.772,0-21.58,6.116-6.118Z" transform="translate(-6.037 -157.392)" fill="#19cfba" fill-rule="evenodd"/>
      <path id="Trazado_1224462" data-name="Trazado 1224462" d="M305.12,235.106a2.428,2.428,0,1,1-2.427,2.428A2.428,2.428,0,0,1,305.12,235.106Z" transform="translate(-211.106 -179.357)" fill="#ffbf31" fill-rule="evenodd"/>
      <path id="Trazado_1224463" data-name="Trazado 1224463" d="M163.686,409.447a2.428,2.428,0,1,1,2.427-2.428A2.428,2.428,0,0,1,163.686,409.447Z" transform="translate(-88.747 -325.982)" fill="#ffbf31" fill-rule="evenodd"/>
      <path id="Trazado_1224464" data-name="Trazado 1224464" d="M91.482,71.332l1.225-.922-1.225-.923a.909.909,0,0,1,1.095-1.451l.727.55V67.115a.907.907,0,1,1,1.814,0v1.472l.727-.55a.909.909,0,1,1,1.095,1.451l-1.217.923,1.217.923a.91.91,0,0,1-.544,1.632.927.927,0,0,1-.551-.182l-1.631-1.236-1.638,1.236a.909.909,0,0,1-1.095-1.451Zm-9.716,0,1.225-.923-1.225-.921a.909.909,0,0,1,1.095-1.451l.727.55V67.114a.911.911,0,0,1,1.822,0v1.471l.727-.55a.909.909,0,0,1,1.095,1.451l-1.225.923,1.225.923a.91.91,0,0,1-.551,1.632.889.889,0,0,1-.544-.182L84.5,71.547l-1.638,1.236a.909.909,0,0,1-1.095-1.451Zm-9.708,0,1.217-.923-1.217-.921a.909.909,0,0,1,1.095-1.451l.727.55V67.114a.907.907,0,1,1,1.814,0v1.471l.727-.55a.909.909,0,0,1,1.095,1.451l-1.225.923,1.225.923a.909.909,0,0,1-.551,1.632.889.889,0,0,1-.544-.182l-1.638-1.236-1.631,1.236a.919.919,0,0,1-1.279-.178.908.908,0,0,1,.184-1.272Zm4.4,9.725a1.52,1.52,0,1,1-1.524-1.52A1.522,1.522,0,0,1,76.46,81.057ZM92.5,58.2a1.52,1.52,0,1,1,1.524,1.52A1.522,1.522,0,0,1,92.5,58.2Zm9.723,27.712,6.247-6.241V70.546h-4.242L93.687,81.682a.917.917,0,0,1-.658.284H78.152a3.336,3.336,0,1,1,0-1.817H92.638L103.18,69.015a.918.918,0,0,1,.658-.285h4.632V58.845l-5.589-5.585H66.117l-5.589,5.585v9.868h4.2l10.55-11.137a.9.9,0,0,1,.658-.283H90.808a3.336,3.336,0,1,1,0,1.816H76.33L65.78,70.246a.909.909,0,0,1-.658.283H60.528v9.143l6.247,6.241ZM76.146,51.444V36.871L78.4,34.61H90.77l2.082,2.082V51.444ZM71.66,33.216V51.444h2.664V36.494a.919.919,0,0,1,.268-.642l2.795-2.792a.9.9,0,0,1,.643-.266H91.145a.9.9,0,0,1,.643.266l2.618,2.613a.91.91,0,0,1,.26.642V51.444h2.672V32.95L93.993,29.6H75.274Zm38.357,24.61L103.9,51.709a.9.9,0,0,0-.643-.265h-4.1V32.573a.883.883,0,0,0-.268-.642l-3.874-3.877a.909.909,0,0,0-.643-.267H74.9a.9.9,0,0,0-.643.267L70.106,32.2a.907.907,0,0,0-.26.642v18.6h-4.1a.9.9,0,0,0-.643.265l-6.117,6.117a.917.917,0,0,0-.268.642v10.9a.858.858,0,0,0,0,.507V80.049a.918.918,0,0,0,.268.642l6.776,6.773a.894.894,0,0,0,.635.266h36.214a.9.9,0,0,0,.636-.266l6.776-6.773a.918.918,0,0,0,.268-.642V58.468a.919.919,0,0,0-.268-.642Z" fill="#1e2f3f" fill-rule="evenodd"/>
    </g>
  </g>
</svg>
