<svg xmlns="http://www.w3.org/2000/svg" xmlns:xlink="http://www.w3.org/1999/xlink" width="868.426" height="364.958" viewBox="0 0 868.426 364.958">
  <defs>
    <clipPath id="clip-path">
      <rect id="Rect치ngulo_422469" data-name="Rect치ngulo 422469" width="265" height="353" transform="translate(600 6899)" fill="#fff" stroke="#707070" stroke-width="1"/>
    </clipPath>
    <clipPath id="clip-path-2">
      <rect id="Rect치ngulo_422461" data-name="Rect치ngulo 422461" width="52.417" height="40.504" fill="none"/>
    </clipPath>
  </defs>
  <g id="Grupo_1235122" data-name="Grupo 1235122" transform="translate(-365.787 -8080)">
    <g id="Grupo_1234459" data-name="Grupo 1234459" transform="translate(0 12)">
      <g id="Grupo_1234458" data-name="Grupo 1234458" transform="translate(80.096)">
        <g id="Grupo_1228424" data-name="Grupo 1228424" transform="translate(0 1180.958)">
          <g id="Grupo_1228399" data-name="Grupo 1228399" transform="translate(10.034 5015.813)">
            <g id="Grupo_1219567" data-name="Grupo 1219567" transform="translate(-2591.001 -262.042)">
              <path id="Trazado_1092052" data-name="Trazado 1092052" d="M234.656,96.131,154.291,176.5a14.649,14.649,0,0,0-4.29,10.36V412.712H333.126V186.856a14.658,14.658,0,0,0-4.29-10.36L248.471,96.131A9.77,9.77,0,0,0,234.656,96.131Z" transform="translate(3067.833 2040)" fill="#098576"/>
              <path id="Trazado_1092054" data-name="Trazado 1092054" d="M164.656,120.638,84.291,201A14.649,14.649,0,0,0,80,211.363V377.381H263.125V211.363a14.658,14.658,0,0,0-4.29-10.36l-80.365-80.365A9.77,9.77,0,0,0,164.656,120.638Z" transform="translate(2966.916 2075.331)" fill="#11f5d8"/>
              <path id="Trazado_1092055" data-name="Trazado 1092055" d="M98.975,144.519,14.51,224.884A14.3,14.3,0,0,0,10,235.244V342.955H202.468V235.242a14.306,14.306,0,0,0-4.509-10.36l-84.465-80.365A10.641,10.641,0,0,0,98.975,144.519Z" transform="translate(2856.657 2109.756)" fill="#aa52f9"/>
              <g id="Grupo_1219555" data-name="Grupo 1219555" transform="translate(2942.49 2426.439)">
                <circle id="Elipse_12054" data-name="Elipse 12054" cx="22.873" cy="22.873" r="22.873" transform="translate(2.197 2.198)" fill="#aa52f9"/>
                <path id="Trazado_1092075" data-name="Trazado 1092075" d="M62.3,217.735a20.676,20.676,0,1,1-20.676,20.676A20.675,20.675,0,0,1,62.3,217.735m0-4.395a25.071,25.071,0,1,0,25.071,25.071A25.1,25.1,0,0,0,62.3,213.34Z" transform="translate(-37.232 -213.34)" fill="#fff"/>
              </g>
              <g id="Grupo_1219556" data-name="Grupo 1219556" transform="translate(3114.507 2421.63)">
                <circle id="Elipse_12055" data-name="Elipse 12055" cx="22.873" cy="22.873" r="22.873" transform="translate(0 17.507) rotate(-22.5)" fill="#11f5d8"/>
                <path id="Trazado_1092076" data-name="Trazado 1092076" d="M134.72,217.735a20.676,20.676,0,1,1-20.676,20.676,20.675,20.675,0,0,1,20.676-20.676m0-4.395a25.071,25.071,0,1,0,25.071,25.071A25.1,25.1,0,0,0,134.72,213.34Z" transform="translate(-104.848 -208.531)" fill="#fff"/>
              </g>
              <g id="Grupo_1219560" data-name="Grupo 1219560" transform="translate(2963.747 2443.189)">
                <path id="Trazado_1092080" data-name="Trazado 1092080" d="M49.8,223.657h-.051l-3.174,1.509-.64-2.918,4.4-2.049h3.225v16.645H49.8Z" transform="translate(-45.938 -220.2)" fill="#fff"/>
              </g>
              <g id="Grupo_1219561" data-name="Grupo 1219561" transform="translate(3138.477 2443.05)">
                <path id="Trazado_1092081" data-name="Trazado 1092081" d="M117.5,237.066V234.71l2.151-1.946c3.636-3.252,5.4-5.123,5.455-7.066,0-1.358-.82-2.432-2.74-2.432a6.034,6.034,0,0,0-3.56,1.384l-1.1-2.791a9.217,9.217,0,0,1,5.455-1.716c3.763,0,5.838,2.2,5.838,5.225,0,2.791-2.022,5.018-4.429,7.169l-1.536,1.279v.051h6.273v3.2H117.5Z" transform="translate(-117.5 -220.143)" fill="#fff"/>
              </g>
              <path id="Trazado_1092085" data-name="Trazado 1092085" d="M234.656,95.6l-80.365,65.311a10.9,10.9,0,0,0-4.29,8.419V352.874H333.126V169.325a10.91,10.91,0,0,0-4.29-8.419L248.471,95.6A11.425,11.425,0,0,0,234.656,95.6Z" transform="translate(3233.485 2099.838)" fill="#f6c810"/>
              <g id="Grupo_1219565" data-name="Grupo 1219565" transform="translate(3449.977 2426.439)">
                <circle id="Elipse_12056" data-name="Elipse 12056" cx="22.873" cy="22.873" r="22.873" transform="translate(2.198 2.198)" fill="#f6c810"/>
                <path id="Trazado_1092077" data-name="Trazado 1092077" d="M202.3,217.735a20.676,20.676,0,1,1-20.676,20.676A20.675,20.675,0,0,1,202.3,217.735m0-4.395a25.071,25.071,0,1,0,25.071,25.071A25.1,25.1,0,0,0,202.3,213.34Z" transform="translate(-177.232 -213.34)" fill="#fff"/>
              </g>
              <g id="Grupo_1219566" data-name="Grupo 1219566" transform="translate(3469.171 2442.908)">
                <path id="Trazado_1092082" data-name="Trazado 1092082" d="M185.887,233.194a9.16,9.16,0,0,0,3.865,1.026c2.024,0,3.047-.974,3.047-2.227,0-1.638-1.638-2.381-3.355-2.381h-1.587v-2.793h1.511c1.306-.024,2.971-.513,2.971-1.919,0-1-.82-1.741-2.459-1.741a7.586,7.586,0,0,0-3.482,1l-.794-2.818a10.437,10.437,0,0,1,5.147-1.255c3.56,0,5.53,1.87,5.53,4.148a3.99,3.99,0,0,1-3.047,3.868v.051a4.136,4.136,0,0,1,3.611,4.046c0,2.945-2.586,5.1-6.812,5.1a9.847,9.847,0,0,1-4.942-1.177Z" transform="translate(-185.093 -220.085)" fill="#fff"/>
              </g>
              <path id="Trazado_1092053" data-name="Trazado 1092053" d="M304.656,120l-80.365,62.315a10.253,10.253,0,0,0-4.29,8.033V319.076H403.126V190.344a10.258,10.258,0,0,0-4.29-8.033L318.471,120A11.865,11.865,0,0,0,304.656,120Z" transform="translate(3331.959 2133.635)" fill="#0b47db"/>
              <g id="Grupo_1219558" data-name="Grupo 1219558" transform="translate(3618.449 2426.439)">
                <circle id="Elipse_12057" data-name="Elipse 12057" cx="22.873" cy="22.873" r="22.873" transform="translate(2.198 2.198)" fill="#0b47db"/>
                <path id="Trazado_1092078" data-name="Trazado 1092078" d="M272.3,217.735a20.676,20.676,0,1,1-20.676,20.676A20.675,20.675,0,0,1,272.3,217.735m0-4.395a25.071,25.071,0,1,0,25.071,25.071A25.1,25.1,0,0,0,272.3,213.34Z" transform="translate(-247.232 -213.34)" fill="#fff"/>
              </g>
            </g>
            <path id="Trazado_1225203" data-name="Trazado 1225203" d="M39.062,12.148q0,5.047-4.7,5.047-4.562,0-4.562-4.93V5.8h2.531v6.5q0,2.719,2.125,2.719,2.086,0,2.086-2.625V5.8h2.523Zm1.673,4.641v-2a5.256,5.256,0,0,0,1.215.547,4.028,4.028,0,0,0,1.145.18,2.455,2.455,0,0,0,1.035-.18.581.581,0,0,0,.379-.547.506.506,0,0,0-.172-.391,1.6,1.6,0,0,0-.441-.273,5.009,5.009,0,0,0-.59-.211q-.32-.094-.617-.211a5.914,5.914,0,0,1-.84-.387,2.427,2.427,0,0,1-.609-.48,1.889,1.889,0,0,1-.375-.633,2.525,2.525,0,0,1-.129-.852,2.192,2.192,0,0,1,.293-1.156A2.393,2.393,0,0,1,41.81,9.4a3.57,3.57,0,0,1,1.117-.453A5.825,5.825,0,0,1,44.236,8.8a7.261,7.261,0,0,1,1.078.082,8.047,8.047,0,0,1,1.078.238v1.906a3.9,3.9,0,0,0-1-.41,4.235,4.235,0,0,0-1.051-.137,2.328,2.328,0,0,0-.457.043,1.505,1.505,0,0,0-.379.125.7.7,0,0,0-.258.211.486.486,0,0,0-.094.293.541.541,0,0,0,.141.375,1.221,1.221,0,0,0,.367.27,3.625,3.625,0,0,0,.5.2q.277.09.551.184a7.161,7.161,0,0,1,.891.375,2.848,2.848,0,0,1,.684.477,1.871,1.871,0,0,1,.438.641,2.563,2.563,0,0,1-.156,2.09,2.471,2.471,0,0,1-.82.82,3.72,3.72,0,0,1-1.18.461,6.54,6.54,0,0,1-1.387.145A7.149,7.149,0,0,1,40.736,16.789ZM55.9,17H53.44V15.781H53.4A2.792,2.792,0,0,1,50.956,17.2q-2.781,0-2.781-3.367V9h2.461v4.609q0,1.7,1.344,1.7a1.329,1.329,0,0,0,1.063-.465,1.874,1.874,0,0,0,.4-1.262V9H55.9Zm8.736,0H62.3V15.852H62.27A2.607,2.607,0,0,1,59.887,17.2a2.492,2.492,0,0,1-1.832-.66,2.366,2.366,0,0,1-.668-1.762q0-2.328,2.758-2.687l2.172-.289q0-1.312-1.422-1.312a4.853,4.853,0,0,0-2.719.852V9.477a6.116,6.116,0,0,1,1.41-.469,7.413,7.413,0,0,1,1.629-.2q3.422,0,3.422,3.414Zm-2.32-3.25v-.539l-1.453.188q-1.2.156-1.2,1.086a.9.9,0,0,0,.293.691,1.126,1.126,0,0,0,.793.27,1.462,1.462,0,0,0,1.133-.48A1.735,1.735,0,0,0,62.317,13.75Zm9.494-2.523a2.141,2.141,0,0,0-1.039-.242,1.5,1.5,0,0,0-1.258.59,2.573,2.573,0,0,0-.453,1.605V17H66.592V9h2.469v1.484h.031A2.136,2.136,0,0,1,71.2,8.859a1.59,1.59,0,0,1,.609.094Zm2.463-3.492a1.442,1.442,0,0,1-1.023-.371,1.2,1.2,0,0,1-.4-.91,1.153,1.153,0,0,1,.4-.906,1.671,1.671,0,0,1,2.051,0,1.158,1.158,0,0,1,.395.906,1.191,1.191,0,0,1-.395.922A1.466,1.466,0,0,1,74.273,7.734ZM75.492,17H73.023V9h2.469Zm5.892.2a4.3,4.3,0,0,1-3.145-1.121A4.064,4.064,0,0,1,77.1,13.031a4.065,4.065,0,0,1,1.188-3.105A4.487,4.487,0,0,1,81.494,8.8a4.249,4.249,0,0,1,3.125,1.121,3.985,3.985,0,0,1,1.133,2.965,4.23,4.23,0,0,1-1.168,3.148A4.348,4.348,0,0,1,81.384,17.2Zm.063-6.5a1.647,1.647,0,0,0-1.359.6A2.653,2.653,0,0,0,79.6,13q0,2.3,1.859,2.3,1.773,0,1.773-2.367Q83.236,10.7,81.447,10.7ZM96.5,19.547H94.489a9.8,9.8,0,0,1-2.523-6.836A10.428,10.428,0,0,1,94.489,5.8h2a11.228,11.228,0,0,0-2.367,6.914A10.859,10.859,0,0,0,96.5,19.547Zm.9-2.977v-2.5a4.8,4.8,0,0,0,1.477.855,4.746,4.746,0,0,0,1.609.285,3.569,3.569,0,0,0,.832-.086,1.949,1.949,0,0,0,.594-.238,1.039,1.039,0,0,0,.355-.359.9.9,0,0,0,.117-.449.971.971,0,0,0-.187-.586,2.018,2.018,0,0,0-.512-.477,5.347,5.347,0,0,0-.77-.422q-.445-.2-.961-.414A4.9,4.9,0,0,1,98,10.844a2.917,2.917,0,0,1-.645-1.906,3.036,3.036,0,0,1,.352-1.5A2.986,2.986,0,0,1,98.666,6.4a4.291,4.291,0,0,1,1.4-.6,7.206,7.206,0,0,1,1.688-.191,10.15,10.15,0,0,1,1.551.105,6.1,6.1,0,0,1,1.246.324V8.375a3.768,3.768,0,0,0-.613-.344,4.859,4.859,0,0,0-.684-.246,5.214,5.214,0,0,0-.7-.145,4.949,4.949,0,0,0-.66-.047,3.443,3.443,0,0,0-.781.082,2,2,0,0,0-.594.23,1.147,1.147,0,0,0-.375.355.843.843,0,0,0-.133.465.888.888,0,0,0,.148.5,1.7,1.7,0,0,0,.422.422,4.477,4.477,0,0,0,.664.391q.391.191.883.395a9.838,9.838,0,0,1,1.207.6,4.291,4.291,0,0,1,.918.715,2.785,2.785,0,0,1,.586.91,3.216,3.216,0,0,1,.2,1.191,3.191,3.191,0,0,1-.355,1.574,2.886,2.886,0,0,1-.965,1.031,4.184,4.184,0,0,1-1.418.566,8.2,8.2,0,0,1-1.707.172,9.492,9.492,0,0,1-1.754-.156A5.3,5.3,0,0,1,97.4,16.57ZM114.25,17h-2.461V15.781h-.039A2.792,2.792,0,0,1,109.3,17.2q-2.781,0-2.781-3.367V9h2.461v4.609q0,1.7,1.344,1.7a1.329,1.329,0,0,0,1.063-.465,1.874,1.874,0,0,0,.4-1.262V9h2.461Zm3.33-9.266a1.442,1.442,0,0,1-1.023-.371,1.2,1.2,0,0,1-.4-.91,1.153,1.153,0,0,1,.4-.906,1.671,1.671,0,0,1,2.051,0,1.158,1.158,0,0,1,.395.906,1.191,1.191,0,0,1-.395.922A1.466,1.466,0,0,1,117.58,7.734Zm1.219,9.125a4.349,4.349,0,0,1-.867,2.836,3.041,3.041,0,0,1-2.5,1.063,3.457,3.457,0,0,1-1.18-.234V18.586a1.923,1.923,0,0,0,.914.289q1.164,0,1.164-1.828V9H118.8Zm9.267-3.156h-5.219q.125,1.742,2.2,1.742a4.286,4.286,0,0,0,2.32-.625V16.6a6.1,6.1,0,0,1-2.883.594,4.058,4.058,0,0,1-3.008-1.074,4.058,4.058,0,0,1-1.07-3,4.281,4.281,0,0,1,1.156-3.156A3.852,3.852,0,0,1,124.4,8.8a3.5,3.5,0,0,1,2.707,1.039,4,4,0,0,1,.957,2.82Zm-2.289-1.516q0-1.719-1.391-1.719a1.328,1.328,0,0,0-1.027.492,2.234,2.234,0,0,0-.527,1.227Zm8.6,4.719a3.649,3.649,0,0,1-1.648.289q-2.609,0-2.609-2.711V10.82h-1.3V9h1.3V7.273l2.461-.7V9h1.8v1.82h-1.8v3.234q0,1.25.992,1.25a1.673,1.673,0,0,0,.8-.227Zm5.142.289a4.3,4.3,0,0,1-3.145-1.121,4.064,4.064,0,0,1-1.145-3.043,4.065,4.065,0,0,1,1.188-3.105A4.487,4.487,0,0,1,139.624,8.8a4.249,4.249,0,0,1,3.125,1.121,3.985,3.985,0,0,1,1.133,2.965,4.23,4.23,0,0,1-1.168,3.148A4.348,4.348,0,0,1,139.514,17.2Zm.063-6.5a1.647,1.647,0,0,0-1.359.6,2.653,2.653,0,0,0-.484,1.7q0,2.3,1.859,2.3,1.773,0,1.773-2.367Q141.366,10.7,139.577,10.7Zm7.009,8.852h-2a10.8,10.8,0,0,0,2.391-6.836A11.2,11.2,0,0,0,144.586,5.8H146.6a10.428,10.428,0,0,1,2.531,6.914A9.82,9.82,0,0,1,146.586,19.547Z" transform="translate(282 2126.232)" fill="#fff"/>
            <path id="Trazado_1225204" data-name="Trazado 1225204" d="M24.909,13.141V17H22.386V5.8h3.953q4.234,0,4.234,3.57a3.426,3.426,0,0,1-1.215,2.73,4.813,4.813,0,0,1-3.246,1.043Zm0-5.406v3.492H25.9q2.016,0,2.016-1.766,0-1.727-2.016-1.727Zm12.283,3.492a2.142,2.142,0,0,0-1.039-.242,1.5,1.5,0,0,0-1.258.59,2.573,2.573,0,0,0-.453,1.605V17H31.973V9h2.469v1.484h.031a2.136,2.136,0,0,1,2.109-1.625,1.59,1.59,0,0,1,.609.094Zm4.9,5.969a4.3,4.3,0,0,1-3.145-1.121A4.064,4.064,0,0,1,37.8,13.031,4.065,4.065,0,0,1,38.99,9.926,4.487,4.487,0,0,1,42.2,8.8a4.249,4.249,0,0,1,3.125,1.121,3.985,3.985,0,0,1,1.133,2.965,4.23,4.23,0,0,1-1.168,3.148A4.348,4.348,0,0,1,42.092,17.2Zm.063-6.5a1.647,1.647,0,0,0-1.359.6,2.653,2.653,0,0,0-.484,1.7q0,2.3,1.859,2.3,1.773,0,1.773-2.367Q43.944,10.7,42.155,10.7ZM55.68,9,52.7,17H49.891L47.055,9H49.7l1.391,4.93a7.2,7.2,0,0,1,.273,1.422h.031a8.069,8.069,0,0,1,.289-1.375L53.1,9Zm8.088,4.7H58.548q.125,1.742,2.2,1.742a4.286,4.286,0,0,0,2.32-.625V16.6a6.1,6.1,0,0,1-2.883.594,4.058,4.058,0,0,1-3.008-1.074,4.058,4.058,0,0,1-1.07-3,4.281,4.281,0,0,1,1.156-3.156A3.852,3.852,0,0,1,60.1,8.8,3.5,3.5,0,0,1,62.81,9.844a4,4,0,0,1,.957,2.82Zm-2.289-1.516q0-1.719-1.391-1.719a1.328,1.328,0,0,0-1.027.492,2.234,2.234,0,0,0-.527,1.227ZM72.425,13.7H67.206q.125,1.742,2.2,1.742a4.286,4.286,0,0,0,2.32-.625V16.6a6.1,6.1,0,0,1-2.883.594,4.058,4.058,0,0,1-3.008-1.074,4.058,4.058,0,0,1-1.07-3,4.281,4.281,0,0,1,1.156-3.156A3.852,3.852,0,0,1,68.761,8.8a3.5,3.5,0,0,1,2.707,1.039,4,4,0,0,1,.957,2.82Zm-2.289-1.516q0-1.719-1.391-1.719a1.328,1.328,0,0,0-1.027.492,2.234,2.234,0,0,0-.527,1.227ZM81.723,17H79.255V15.9h-.031a2.768,2.768,0,0,1-2.477,1.3,3.033,3.033,0,0,1-2.414-1.059,4.382,4.382,0,0,1-.914-2.957A4.77,4.77,0,0,1,74.427,10a3.287,3.287,0,0,1,2.641-1.2,2.246,2.246,0,0,1,2.156,1.109h.031V5.156h2.469ZM79.3,13.109v-.6a1.893,1.893,0,0,0-.453-1.3,1.6,1.6,0,0,0-2.461.129,2.993,2.993,0,0,0-.461,1.77,2.59,2.59,0,0,0,.445,1.625,1.581,1.581,0,0,0,2.457-.031A2.507,2.507,0,0,0,79.3,13.109ZM87.616,17.2a4.3,4.3,0,0,1-3.145-1.121,4.064,4.064,0,0,1-1.145-3.043,4.065,4.065,0,0,1,1.188-3.105A4.487,4.487,0,0,1,87.725,8.8,4.249,4.249,0,0,1,90.85,9.926a3.985,3.985,0,0,1,1.133,2.965,4.23,4.23,0,0,1-1.168,3.148A4.348,4.348,0,0,1,87.616,17.2Zm.063-6.5a1.647,1.647,0,0,0-1.359.6,2.653,2.653,0,0,0-.484,1.7q0,2.3,1.859,2.3,1.773,0,1.773-2.367Q89.467,10.7,87.678,10.7Zm11.127.531a2.141,2.141,0,0,0-1.039-.242,1.5,1.5,0,0,0-1.258.59,2.573,2.573,0,0,0-.453,1.605V17H93.586V9h2.469v1.484h.031A2.136,2.136,0,0,1,98.2,8.859a1.59,1.59,0,0,1,.609.094ZM112.2,17H109.73V15.9H109.7a2.768,2.768,0,0,1-2.477,1.3,3.033,3.033,0,0,1-2.414-1.059,4.382,4.382,0,0,1-.914-2.957A4.77,4.77,0,0,1,104.9,10a3.287,3.287,0,0,1,2.641-1.2A2.246,2.246,0,0,1,109.7,9.914h.031V5.156H112.2Zm-2.422-3.891v-.6a1.893,1.893,0,0,0-.453-1.3,1.6,1.6,0,0,0-2.461.129,2.993,2.993,0,0,0-.461,1.77,2.59,2.59,0,0,0,.445,1.625A1.581,1.581,0,0,0,109.3,14.7,2.507,2.507,0,0,0,109.777,13.109Zm11.689.594h-5.219q.125,1.742,2.2,1.742a4.286,4.286,0,0,0,2.32-.625V16.6a6.1,6.1,0,0,1-2.883.594,4.058,4.058,0,0,1-3.008-1.074,4.058,4.058,0,0,1-1.07-3,4.281,4.281,0,0,1,1.156-3.156A3.852,3.852,0,0,1,117.8,8.8a3.5,3.5,0,0,1,2.707,1.039,4,4,0,0,1,.957,2.82Zm-2.289-1.516q0-1.719-1.391-1.719a1.328,1.328,0,0,0-1.027.492,2.234,2.234,0,0,0-.527,1.227ZM18.524,37H16V25.8h2.523Zm10.134,0H26.19V35.9h-.031a2.768,2.768,0,0,1-2.477,1.3,3.033,3.033,0,0,1-2.414-1.059,4.382,4.382,0,0,1-.914-2.957A4.77,4.77,0,0,1,21.361,30,3.287,3.287,0,0,1,24,28.8a2.246,2.246,0,0,1,2.156,1.109h.031V25.156h2.469Zm-2.422-3.891v-.6a1.893,1.893,0,0,0-.453-1.3,1.6,1.6,0,0,0-2.461.129,2.993,2.993,0,0,0-.461,1.77,2.59,2.59,0,0,0,.445,1.625,1.581,1.581,0,0,0,2.457-.031A2.507,2.507,0,0,0,26.236,33.109Zm11.689.594H32.707q.125,1.742,2.2,1.742a4.286,4.286,0,0,0,2.32-.625V36.6a6.1,6.1,0,0,1-2.883.594,3.724,3.724,0,0,1-4.078-4.07,4.281,4.281,0,0,1,1.156-3.156A3.852,3.852,0,0,1,34.262,28.8a3.5,3.5,0,0,1,2.707,1.039,4,4,0,0,1,.957,2.82Zm-2.289-1.516q0-1.719-1.391-1.719a1.328,1.328,0,0,0-1.027.492,2.234,2.234,0,0,0-.527,1.227ZM47.122,37H44.662V32.555q0-1.859-1.328-1.859a1.318,1.318,0,0,0-1.055.492,1.875,1.875,0,0,0-.414,1.25V37H39.4V29h2.469v1.266H41.9a2.829,2.829,0,0,1,2.57-1.461q2.656,0,2.656,3.3Zm6.791-.094a3.649,3.649,0,0,1-1.648.289q-2.609,0-2.609-2.711V30.82h-1.3V29h1.3V27.273l2.461-.7V29h1.8v1.82h-1.8v3.234q0,1.25.992,1.25a1.673,1.673,0,0,0,.8-.227Zm2.642-9.172a1.442,1.442,0,0,1-1.023-.371,1.2,1.2,0,0,1-.4-.91,1.153,1.153,0,0,1,.4-.906,1.671,1.671,0,0,1,2.051,0,1.158,1.158,0,0,1,.395.906,1.191,1.191,0,0,1-.395.922A1.466,1.466,0,0,1,56.555,27.734ZM57.774,37H55.305V29h2.469Zm9.908,0H65.213V35.9h-.031a2.768,2.768,0,0,1-2.477,1.3,3.033,3.033,0,0,1-2.414-1.059,4.382,4.382,0,0,1-.914-2.957A4.77,4.77,0,0,1,60.385,30a3.287,3.287,0,0,1,2.641-1.2,2.246,2.246,0,0,1,2.156,1.109h.031V25.156h2.469ZM65.26,33.109v-.6a1.893,1.893,0,0,0-.453-1.3,1.6,1.6,0,0,0-2.461.129,2.993,2.993,0,0,0-.461,1.77,2.59,2.59,0,0,0,.445,1.625,1.581,1.581,0,0,0,2.457-.031A2.507,2.507,0,0,0,65.26,33.109ZM76.418,37H74.082V35.852h-.031A2.607,2.607,0,0,1,71.668,37.2a2.492,2.492,0,0,1-1.832-.66,2.366,2.366,0,0,1-.668-1.762q0-2.328,2.758-2.687L74.1,31.8q0-1.312-1.422-1.312a4.853,4.853,0,0,0-2.719.852V29.477a6.116,6.116,0,0,1,1.41-.469A7.413,7.413,0,0,1,73,28.8q3.422,0,3.422,3.414ZM74.1,33.75v-.539l-1.453.188q-1.2.156-1.2,1.086a.9.9,0,0,0,.293.691,1.126,1.126,0,0,0,.793.27,1.462,1.462,0,0,0,1.133-.48A1.735,1.735,0,0,0,74.1,33.75ZM86.2,37H83.732V35.9H83.7a2.768,2.768,0,0,1-2.477,1.3,3.033,3.033,0,0,1-2.414-1.059A4.382,4.382,0,0,1,77.9,33.18,4.77,4.77,0,0,1,78.9,30a3.287,3.287,0,0,1,2.641-1.2A2.246,2.246,0,0,1,83.7,29.914h.031V25.156H86.2Zm-2.422-3.891v-.6a1.893,1.893,0,0,0-.453-1.3,1.6,1.6,0,0,0-2.461.129,2.993,2.993,0,0,0-.461,1.77,2.59,2.59,0,0,0,.445,1.625,1.581,1.581,0,0,0,2.457-.031A2.507,2.507,0,0,0,83.779,33.109Zm13.652,6.438H95.415a9.8,9.8,0,0,1-2.523-6.836A10.428,10.428,0,0,1,95.415,25.8h2a11.228,11.228,0,0,0-2.367,6.914A10.859,10.859,0,0,0,97.431,39.547ZM101.37,37H98.846V25.8h2.523ZM111.5,37h-2.469V35.9H109a2.768,2.768,0,0,1-2.477,1.3,3.033,3.033,0,0,1-2.414-1.059,4.382,4.382,0,0,1-.914-2.957A4.77,4.77,0,0,1,104.207,30a3.287,3.287,0,0,1,2.641-1.2A2.246,2.246,0,0,1,109,29.914h.031V25.156H111.5Zm-2.422-3.891v-.6a1.893,1.893,0,0,0-.453-1.3,1.6,1.6,0,0,0-2.461.129,2.993,2.993,0,0,0-.461,1.77,2.59,2.59,0,0,0,.445,1.625,1.581,1.581,0,0,0,2.457-.031A2.507,2.507,0,0,0,109.082,33.109Zm7.267.031V37h-2.523V25.8h3.953q4.234,0,4.234,3.57A3.426,3.426,0,0,1,120.8,32.1a4.813,4.813,0,0,1-3.246,1.043Zm0-5.406v3.492h.992q2.016,0,2.016-1.766,0-1.727-2.016-1.727Zm8.166,11.813h-2a10.8,10.8,0,0,0,2.391-6.836,11.2,11.2,0,0,0-2.391-6.914h2.016a10.428,10.428,0,0,1,2.531,6.914A9.82,9.82,0,0,1,124.515,39.547Z" transform="translate(481 2109.232)" fill="#212429"/>
            <path id="Trazado_1225205" data-name="Trazado 1225205" d="M24.909,13.141V17H22.386V5.8h3.953q4.234,0,4.234,3.57a3.426,3.426,0,0,1-1.215,2.73,4.813,4.813,0,0,1-3.246,1.043Zm0-5.406v3.492H25.9q2.016,0,2.016-1.766,0-1.727-2.016-1.727Zm12.283,3.492a2.142,2.142,0,0,0-1.039-.242,1.5,1.5,0,0,0-1.258.59,2.573,2.573,0,0,0-.453,1.605V17H31.973V9h2.469v1.484h.031a2.136,2.136,0,0,1,2.109-1.625,1.59,1.59,0,0,1,.609.094Zm4.9,5.969a4.3,4.3,0,0,1-3.145-1.121A4.064,4.064,0,0,1,37.8,13.031,4.065,4.065,0,0,1,38.99,9.926,4.487,4.487,0,0,1,42.2,8.8a4.249,4.249,0,0,1,3.125,1.121,3.985,3.985,0,0,1,1.133,2.965,4.23,4.23,0,0,1-1.168,3.148A4.348,4.348,0,0,1,42.092,17.2Zm.063-6.5a1.647,1.647,0,0,0-1.359.6,2.653,2.653,0,0,0-.484,1.7q0,2.3,1.859,2.3,1.773,0,1.773-2.367Q43.944,10.7,42.155,10.7ZM55.68,9,52.7,17H49.891L47.055,9H49.7l1.391,4.93a7.2,7.2,0,0,1,.273,1.422h.031a8.069,8.069,0,0,1,.289-1.375L53.1,9Zm8.088,4.7H58.548q.125,1.742,2.2,1.742a4.286,4.286,0,0,0,2.32-.625V16.6a6.1,6.1,0,0,1-2.883.594,4.058,4.058,0,0,1-3.008-1.074,4.058,4.058,0,0,1-1.07-3,4.281,4.281,0,0,1,1.156-3.156A3.852,3.852,0,0,1,60.1,8.8,3.5,3.5,0,0,1,62.81,9.844a4,4,0,0,1,.957,2.82Zm-2.289-1.516q0-1.719-1.391-1.719a1.328,1.328,0,0,0-1.027.492,2.234,2.234,0,0,0-.527,1.227ZM72.425,13.7H67.206q.125,1.742,2.2,1.742a4.286,4.286,0,0,0,2.32-.625V16.6a6.1,6.1,0,0,1-2.883.594,4.058,4.058,0,0,1-3.008-1.074,4.058,4.058,0,0,1-1.07-3,4.281,4.281,0,0,1,1.156-3.156A3.852,3.852,0,0,1,68.761,8.8a3.5,3.5,0,0,1,2.707,1.039,4,4,0,0,1,.957,2.82Zm-2.289-1.516q0-1.719-1.391-1.719a1.328,1.328,0,0,0-1.027.492,2.234,2.234,0,0,0-.527,1.227ZM81.723,17H79.255V15.9h-.031a2.768,2.768,0,0,1-2.477,1.3,3.033,3.033,0,0,1-2.414-1.059,4.382,4.382,0,0,1-.914-2.957A4.77,4.77,0,0,1,74.427,10a3.287,3.287,0,0,1,2.641-1.2,2.246,2.246,0,0,1,2.156,1.109h.031V5.156h2.469ZM79.3,13.109v-.6a1.893,1.893,0,0,0-.453-1.3,1.6,1.6,0,0,0-2.461.129,2.993,2.993,0,0,0-.461,1.77,2.59,2.59,0,0,0,.445,1.625,1.581,1.581,0,0,0,2.457-.031A2.507,2.507,0,0,0,79.3,13.109ZM87.616,17.2a4.3,4.3,0,0,1-3.145-1.121,4.064,4.064,0,0,1-1.145-3.043,4.065,4.065,0,0,1,1.188-3.105A4.487,4.487,0,0,1,87.725,8.8,4.249,4.249,0,0,1,90.85,9.926a3.985,3.985,0,0,1,1.133,2.965,4.23,4.23,0,0,1-1.168,3.148A4.348,4.348,0,0,1,87.616,17.2Zm.063-6.5a1.647,1.647,0,0,0-1.359.6,2.653,2.653,0,0,0-.484,1.7q0,2.3,1.859,2.3,1.773,0,1.773-2.367Q89.467,10.7,87.678,10.7Zm11.127.531a2.141,2.141,0,0,0-1.039-.242,1.5,1.5,0,0,0-1.258.59,2.573,2.573,0,0,0-.453,1.605V17H93.586V9h2.469v1.484h.031A2.136,2.136,0,0,1,98.2,8.859a1.59,1.59,0,0,1,.609.094ZM112.2,17H109.73V15.9H109.7a2.768,2.768,0,0,1-2.477,1.3,3.033,3.033,0,0,1-2.414-1.059,4.382,4.382,0,0,1-.914-2.957A4.77,4.77,0,0,1,104.9,10a3.287,3.287,0,0,1,2.641-1.2A2.246,2.246,0,0,1,109.7,9.914h.031V5.156H112.2Zm-2.422-3.891v-.6a1.893,1.893,0,0,0-.453-1.3,1.6,1.6,0,0,0-2.461.129,2.993,2.993,0,0,0-.461,1.77,2.59,2.59,0,0,0,.445,1.625A1.581,1.581,0,0,0,109.3,14.7,2.507,2.507,0,0,0,109.777,13.109Zm11.689.594h-5.219q.125,1.742,2.2,1.742a4.286,4.286,0,0,0,2.32-.625V16.6a6.1,6.1,0,0,1-2.883.594,4.058,4.058,0,0,1-3.008-1.074,4.058,4.058,0,0,1-1.07-3,4.281,4.281,0,0,1,1.156-3.156A3.852,3.852,0,0,1,117.8,8.8a3.5,3.5,0,0,1,2.707,1.039,4,4,0,0,1,.957,2.82Zm-2.289-1.516q0-1.719-1.391-1.719a1.328,1.328,0,0,0-1.027.492,2.234,2.234,0,0,0-.527,1.227ZM24.815,36.57v-2.5a4.8,4.8,0,0,0,1.477.855,4.746,4.746,0,0,0,1.609.285,3.569,3.569,0,0,0,.832-.086,1.949,1.949,0,0,0,.594-.238,1.039,1.039,0,0,0,.355-.359.9.9,0,0,0,.117-.449.971.971,0,0,0-.187-.586,2.018,2.018,0,0,0-.512-.477,5.347,5.347,0,0,0-.77-.422q-.445-.2-.961-.414a4.9,4.9,0,0,1-1.957-1.336,2.917,2.917,0,0,1-.645-1.906,3.036,3.036,0,0,1,.352-1.5,2.986,2.986,0,0,1,.957-1.035,4.291,4.291,0,0,1,1.4-.6,7.206,7.206,0,0,1,1.688-.191,10.15,10.15,0,0,1,1.551.105,6.1,6.1,0,0,1,1.246.324v2.336a3.768,3.768,0,0,0-.613-.344,4.859,4.859,0,0,0-.684-.246,5.214,5.214,0,0,0-.7-.145,4.949,4.949,0,0,0-.66-.047,3.443,3.443,0,0,0-.781.082,2,2,0,0,0-.594.23,1.147,1.147,0,0,0-.375.355.843.843,0,0,0-.133.465.888.888,0,0,0,.148.5,1.7,1.7,0,0,0,.422.422,4.477,4.477,0,0,0,.664.391q.391.191.883.395a9.837,9.837,0,0,1,1.207.6,4.291,4.291,0,0,1,.918.715,2.785,2.785,0,0,1,.586.91,3.634,3.634,0,0,1-.152,2.766,2.886,2.886,0,0,1-.965,1.031,4.184,4.184,0,0,1-1.418.566,8.2,8.2,0,0,1-1.707.172,9.492,9.492,0,0,1-1.754-.156A5.3,5.3,0,0,1,24.815,36.57ZM41.246,33.7H36.027q.125,1.742,2.2,1.742a4.286,4.286,0,0,0,2.32-.625V36.6a6.1,6.1,0,0,1-2.883.594,3.724,3.724,0,0,1-4.078-4.07,4.281,4.281,0,0,1,1.156-3.156A3.852,3.852,0,0,1,37.582,28.8a3.5,3.5,0,0,1,2.707,1.039,4,4,0,0,1,.957,2.82Zm-2.289-1.516q0-1.719-1.391-1.719a1.328,1.328,0,0,0-1.027.492,2.234,2.234,0,0,0-.527,1.227Zm8.978-.961a2.141,2.141,0,0,0-1.039-.242,1.5,1.5,0,0,0-1.258.59,2.573,2.573,0,0,0-.453,1.605V37H42.716V29h2.469v1.484h.031a2.136,2.136,0,0,1,2.109-1.625,1.59,1.59,0,0,1,.609.094ZM57.343,29l-2.977,8H51.554l-2.836-8h2.641l1.391,4.93a7.2,7.2,0,0,1,.273,1.422h.031a8.069,8.069,0,0,1,.289-1.375L54.765,29Zm2.306-1.266a1.442,1.442,0,0,1-1.023-.371,1.2,1.2,0,0,1-.4-.91,1.153,1.153,0,0,1,.4-.906,1.671,1.671,0,0,1,2.051,0,1.158,1.158,0,0,1,.395.906,1.191,1.191,0,0,1-.395.922A1.466,1.466,0,0,1,59.649,27.734ZM60.868,37H58.4V29h2.469Zm8.142-.289A4.881,4.881,0,0,1,66.6,37.2a4.083,4.083,0,0,1-2.984-1.117A3.859,3.859,0,0,1,62.471,33.2a4.251,4.251,0,0,1,1.223-3.215,4.518,4.518,0,0,1,3.27-1.176,4.2,4.2,0,0,1,2.047.375v2.094a2.814,2.814,0,0,0-1.727-.578,2.275,2.275,0,0,0-1.684.621,2.317,2.317,0,0,0-.621,1.715,2.28,2.28,0,0,0,.594,1.668,2.182,2.182,0,0,0,1.633.605,3.258,3.258,0,0,0,1.8-.578Zm2.869-8.977a1.442,1.442,0,0,1-1.023-.371,1.2,1.2,0,0,1-.4-.91,1.153,1.153,0,0,1,.4-.906,1.671,1.671,0,0,1,2.051,0,1.158,1.158,0,0,1,.395.906,1.191,1.191,0,0,1-.395.922A1.466,1.466,0,0,1,71.879,27.734ZM73.1,37H70.629V29H73.1Zm5.892.2a4.3,4.3,0,0,1-3.145-1.121A4.064,4.064,0,0,1,74.7,33.031a4.065,4.065,0,0,1,1.188-3.105A4.487,4.487,0,0,1,79.1,28.8a4.249,4.249,0,0,1,3.125,1.121,3.985,3.985,0,0,1,1.133,2.965,4.23,4.23,0,0,1-1.168,3.148A4.348,4.348,0,0,1,78.99,37.2Zm.063-6.5a1.647,1.647,0,0,0-1.359.6,2.653,2.653,0,0,0-.484,1.7q0,2.3,1.859,2.3,1.773,0,1.773-2.367Q80.841,30.7,79.052,30.7ZM94.11,39.547H92.095a9.8,9.8,0,0,1-2.523-6.836A10.428,10.428,0,0,1,92.095,25.8h2a11.228,11.228,0,0,0-2.367,6.914A10.859,10.859,0,0,0,94.11,39.547Zm.9-2.977v-2.5a4.8,4.8,0,0,0,1.477.855,4.746,4.746,0,0,0,1.609.285,3.569,3.569,0,0,0,.832-.086,1.949,1.949,0,0,0,.594-.238,1.039,1.039,0,0,0,.355-.359.9.9,0,0,0,.117-.449.971.971,0,0,0-.187-.586,2.018,2.018,0,0,0-.512-.477,5.347,5.347,0,0,0-.77-.422q-.445-.2-.961-.414a4.9,4.9,0,0,1-1.957-1.336,2.917,2.917,0,0,1-.645-1.906,3.036,3.036,0,0,1,.352-1.5,2.986,2.986,0,0,1,.957-1.035,4.291,4.291,0,0,1,1.4-.6,7.206,7.206,0,0,1,1.688-.191,10.15,10.15,0,0,1,1.551.105,6.1,6.1,0,0,1,1.246.324v2.336a3.768,3.768,0,0,0-.613-.344,4.859,4.859,0,0,0-.684-.246,5.214,5.214,0,0,0-.7-.145,4.949,4.949,0,0,0-.66-.047,3.443,3.443,0,0,0-.781.082,2,2,0,0,0-.594.23,1.147,1.147,0,0,0-.375.355.843.843,0,0,0-.133.465.888.888,0,0,0,.148.5,1.7,1.7,0,0,0,.422.422,4.477,4.477,0,0,0,.664.391q.391.191.883.395a9.837,9.837,0,0,1,1.207.6,4.291,4.291,0,0,1,.918.715,2.785,2.785,0,0,1,.586.91,3.634,3.634,0,0,1-.152,2.766,2.886,2.886,0,0,1-.965,1.031,4.184,4.184,0,0,1-1.418.566,8.2,8.2,0,0,1-1.707.172,9.492,9.492,0,0,1-1.754-.156A5.3,5.3,0,0,1,95.01,36.57Zm12.009-3.43V37H104.5V25.8h3.953q4.234,0,4.234,3.57a3.426,3.426,0,0,1-1.215,2.73,4.813,4.813,0,0,1-3.246,1.043Zm0-5.406v3.492h.992q2.016,0,2.016-1.766,0-1.727-2.016-1.727Zm8.166,11.813h-2a10.8,10.8,0,0,0,2.391-6.836,11.2,11.2,0,0,0-2.391-6.914H115.2a10.428,10.428,0,0,1,2.531,6.914A9.82,9.82,0,0,1,115.185,39.547Z" transform="translate(809 2109.232)" fill="#212429"/>
            <path id="Trazado_1225206" data-name="Trazado 1225206" d="M26.1,17h-2.75l-.8-2.492H18.565L17.776,17H15.041L19.119,5.8h2.992Zm-4.125-4.43L20.768,8.8A4.907,4.907,0,0,1,20.58,7.8h-.062a4.273,4.273,0,0,1-.2.977L19.1,12.57Zm4.759,4.219v-2a5.256,5.256,0,0,0,1.215.547,4.028,4.028,0,0,0,1.145.18,2.455,2.455,0,0,0,1.035-.18.581.581,0,0,0,.379-.547.506.506,0,0,0-.172-.391,1.6,1.6,0,0,0-.441-.273,5.009,5.009,0,0,0-.59-.211q-.32-.094-.617-.211a5.913,5.913,0,0,1-.84-.387,2.427,2.427,0,0,1-.609-.48,1.889,1.889,0,0,1-.375-.633,2.525,2.525,0,0,1-.129-.852,2.192,2.192,0,0,1,.293-1.156A2.393,2.393,0,0,1,27.8,9.4a3.57,3.57,0,0,1,1.117-.453A5.825,5.825,0,0,1,30.23,8.8a7.261,7.261,0,0,1,1.078.082,8.047,8.047,0,0,1,1.078.238v1.906a3.9,3.9,0,0,0-1-.41,4.235,4.235,0,0,0-1.051-.137,2.328,2.328,0,0,0-.457.043,1.505,1.505,0,0,0-.379.125.7.7,0,0,0-.258.211.486.486,0,0,0-.094.293.541.541,0,0,0,.141.375,1.221,1.221,0,0,0,.367.27,3.625,3.625,0,0,0,.5.2q.277.09.551.184a7.161,7.161,0,0,1,.891.375,2.848,2.848,0,0,1,.684.477,1.872,1.872,0,0,1,.438.641,2.563,2.563,0,0,1-.156,2.09,2.471,2.471,0,0,1-.82.82,3.72,3.72,0,0,1-1.18.461,6.54,6.54,0,0,1-1.387.145A7.149,7.149,0,0,1,26.73,16.789ZM41.482,13.7H36.263q.125,1.742,2.2,1.742a4.286,4.286,0,0,0,2.32-.625V16.6A6.1,6.1,0,0,1,37.9,17.2a4.058,4.058,0,0,1-3.008-1.074,4.058,4.058,0,0,1-1.07-3,4.281,4.281,0,0,1,1.156-3.156A3.852,3.852,0,0,1,37.818,8.8a3.5,3.5,0,0,1,2.707,1.039,4,4,0,0,1,.957,2.82Zm-2.289-1.516q0-1.719-1.391-1.719a1.328,1.328,0,0,0-1.027.492,2.234,2.234,0,0,0-.527,1.227Zm8.978-.961a2.142,2.142,0,0,0-1.039-.242,1.5,1.5,0,0,0-1.258.59,2.573,2.573,0,0,0-.453,1.605V17H42.952V9h2.469v1.484h.031a2.136,2.136,0,0,1,2.109-1.625,1.59,1.59,0,0,1,.609.094Zm7.15,5.484a4.881,4.881,0,0,1-2.414.484,4.083,4.083,0,0,1-2.984-1.117A3.859,3.859,0,0,1,48.782,13.2,4.251,4.251,0,0,1,50,9.98,4.518,4.518,0,0,1,53.274,8.8a4.2,4.2,0,0,1,2.047.375v2.094a2.814,2.814,0,0,0-1.727-.578,2.275,2.275,0,0,0-1.684.621,2.317,2.317,0,0,0-.621,1.715,2.28,2.28,0,0,0,.594,1.668,2.182,2.182,0,0,0,1.633.605,3.258,3.258,0,0,0,1.8-.578ZM58.19,7.734a1.442,1.442,0,0,1-1.023-.371,1.2,1.2,0,0,1-.4-.91,1.153,1.153,0,0,1,.4-.906,1.671,1.671,0,0,1,2.051,0,1.158,1.158,0,0,1,.395.906,1.191,1.191,0,0,1-.395.922A1.466,1.466,0,0,1,58.19,7.734ZM59.409,17H56.94V9h2.469Zm5.892.2a4.3,4.3,0,0,1-3.145-1.121,4.064,4.064,0,0,1-1.145-3.043A4.065,4.065,0,0,1,62.2,9.926,4.487,4.487,0,0,1,65.41,8.8a4.249,4.249,0,0,1,3.125,1.121,3.985,3.985,0,0,1,1.133,2.965A4.23,4.23,0,0,1,68.5,16.039,4.348,4.348,0,0,1,65.3,17.2Zm.063-6.5A1.647,1.647,0,0,0,64,11.3,2.653,2.653,0,0,0,63.52,13q0,2.3,1.859,2.3,1.773,0,1.773-2.367Q67.152,10.7,65.363,10.7Zm2.648-5.484L65.566,7.734H63.785l2.031-2.523ZM78.99,17H76.529V12.555q0-1.859-1.328-1.859a1.318,1.318,0,0,0-1.055.492,1.875,1.875,0,0,0-.414,1.25V17H71.263V9h2.469v1.266h.031A2.829,2.829,0,0,1,76.334,8.8q2.656,0,2.656,3.3Zm6.1-.43v-2.5a4.8,4.8,0,0,0,1.477.855,4.746,4.746,0,0,0,1.609.285A3.569,3.569,0,0,0,89,15.125a1.949,1.949,0,0,0,.594-.238,1.039,1.039,0,0,0,.355-.359.9.9,0,0,0,.117-.449.971.971,0,0,0-.187-.586,2.018,2.018,0,0,0-.512-.477,5.347,5.347,0,0,0-.77-.422q-.445-.2-.961-.414a4.9,4.9,0,0,1-1.957-1.336,2.917,2.917,0,0,1-.645-1.906,3.036,3.036,0,0,1,.352-1.5A2.986,2.986,0,0,1,86.349,6.4a4.291,4.291,0,0,1,1.4-.6,7.206,7.206,0,0,1,1.688-.191,10.15,10.15,0,0,1,1.551.105,6.1,6.1,0,0,1,1.246.324V8.375a3.768,3.768,0,0,0-.613-.344,4.859,4.859,0,0,0-.684-.246,5.214,5.214,0,0,0-.7-.145,4.949,4.949,0,0,0-.66-.047,3.443,3.443,0,0,0-.781.082,2,2,0,0,0-.594.23,1.147,1.147,0,0,0-.375.355.843.843,0,0,0-.133.465.888.888,0,0,0,.148.5,1.7,1.7,0,0,0,.422.422,4.477,4.477,0,0,0,.664.391q.391.191.883.395a9.838,9.838,0,0,1,1.207.6,4.291,4.291,0,0,1,.918.715,2.785,2.785,0,0,1,.586.91,3.216,3.216,0,0,1,.2,1.191,3.191,3.191,0,0,1-.355,1.574,2.886,2.886,0,0,1-.965,1.031,4.184,4.184,0,0,1-1.418.566,8.2,8.2,0,0,1-1.707.172,9.492,9.492,0,0,1-1.754-.156A5.3,5.3,0,0,1,85.087,16.57Zm19.338.43h-2.75l-.8-2.492H96.893L96.1,17H93.37L97.448,5.8h2.992ZM100.3,12.57,99.1,8.8A4.908,4.908,0,0,1,98.909,7.8h-.062a4.273,4.273,0,0,1-.2.977l-1.219,3.8ZM118.59,17H116.1V10.3q0-1.086.094-2.4h-.062a11.8,11.8,0,0,1-.352,1.484L113.153,17H111.09l-2.672-7.539a14.672,14.672,0,0,1-.352-1.562H108q.1,1.656.1,2.906V17h-2.273V5.8h3.7l2.289,6.641a9.35,9.35,0,0,1,.4,1.6h.047a16.127,16.127,0,0,1,.445-1.617L114.988,5.8h3.6Zm9.22,0h-6.672V5.8h2.523v9.156h4.148Z" transform="translate(985 2119.232)" fill="#fff"/>
          </g>
          <g id="Enmascarar_grupo_1208504" data-name="Enmascarar grupo 1208504" clip-path="url(#clip-path)">
            <g id="Grupo_1228423" data-name="Grupo 1228423" transform="translate(-1037 297.966)">
              <path id="Trazado_1217467" data-name="Trazado 1217467" d="M259.1,130.1ZM257,122.076a4.052,4.052,0,1,0,1.187,2.867A4.043,4.043,0,0,0,257,122.076Zm-.876-4.016a7.153,7.153,0,0,1,2.981,1.726.246.246,0,0,0,.3.037l1.884-1.087.01-.006a.466.466,0,0,1,.345-.04.46.46,0,0,1,.282.217l.009.013,1.325,2.295a.467.467,0,0,1-.172.638l-.013.008-1.867,1.078a.249.249,0,0,0-.118.274h0a7,7,0,0,1,.157.857,7.285,7.285,0,0,1,0,1.746,6.928,6.928,0,0,1-.158.856.251.251,0,0,0,.133.283l1.867,1.077h0a.466.466,0,0,1,.172.637l-1.331,2.308h0a.461.461,0,0,1-.282.217.471.471,0,0,1-.355-.045l-.014-.008-1.87-1.079a.249.249,0,0,0-.3.036,7.212,7.212,0,0,1-1.394,1.05,7.131,7.131,0,0,1-1.6.679.249.249,0,0,0-.181.238v2.172a.463.463,0,0,1-.136.329.469.469,0,0,1-.328.136H252.8a.468.468,0,0,1-.466-.466v-2.172a.249.249,0,0,0-.191-.242,7.161,7.161,0,0,1-1.588-.676,7.246,7.246,0,0,1-1.393-1.05.249.249,0,0,0-.309-.028l-1.871,1.08a.47.47,0,0,1-.637-.172l-.008-.013-1.325-2.295h0a.465.465,0,0,1-.045-.353.456.456,0,0,1,.216-.283l1.881-1.087a.248.248,0,0,0,.117-.274h0a7.314,7.314,0,0,1-.157-2.6,7.3,7.3,0,0,1,.157-.857.248.248,0,0,0-.131-.283l-1.867-1.078a.46.46,0,0,1-.216-.283.466.466,0,0,1,.045-.355l.007-.013,1.325-2.295h0a.47.47,0,0,1,.637-.172h0l1.882,1.087a.246.246,0,0,0,.3-.042,7.26,7.26,0,0,1,1.388-1.045,7.072,7.072,0,0,1,1.6-.678.251.251,0,0,0,.181-.24v-2.172a.471.471,0,0,1,.466-.466h2.666a.468.468,0,0,1,.465.466v2.172A.25.25,0,0,0,256.122,118.06Z" transform="translate(1490.941 6554.991)" fill="#ebf2f8" fill-rule="evenodd"/>
              <path id="Trazado_1217468" data-name="Trazado 1217468" d="M210.741,122.828a8.763,8.763,0,1,0,1.9,2.849,8.79,8.79,0,0,0-1.9-2.849Zm-3.157-1.154a8,8,0,1,1-3.046-.6,7.944,7.944,0,0,1,3.046.6Zm.969-6.454a14.36,14.36,0,0,1,3.169,1.352,14.491,14.491,0,0,1,1.462.971,14.124,14.124,0,0,1,1.337,1.14.918.918,0,0,0,1.1.133c1.287-.743,2.642-1.479,3.9-2.254a.548.548,0,0,1,.4-.041.546.546,0,0,1,.34.258c.939,1.421,1.881,3.257,2.751,4.763a.532.532,0,0,1,.068.2.587.587,0,0,1-.016.222.575.575,0,0,1-.1.2.563.563,0,0,1-.162.143c-1.159.765-2.652,1.532-3.88,2.241a.918.918,0,0,0-.388.434,1.01,1.01,0,0,0-.058.192l-.08.027.09.362q.106.427.184.853t.131.865c.035.294.063.585.08.872s.024.576.024.882-.008.6-.024.881-.045.58-.08.875-.081.588-.131.864-.114.569-.184.853a.915.915,0,0,0,.473,1.035l3.436,1.984h0l.407.235a.548.548,0,0,1,.258.339.587.587,0,0,1,.016.222.543.543,0,0,1-.068.2l-2.543,4.407h0l-.205.356a.552.552,0,0,1-.142.163.575.575,0,0,1-.2.1.533.533,0,0,1-.22.016.521.521,0,0,1-.2-.068c-1.231-.773-2.62-1.51-3.889-2.244a.916.916,0,0,0-1.094.131h0a14.4,14.4,0,0,1-4.362,2.891,14.28,14.28,0,0,1-1.645.582.92.92,0,0,0-.666.885v4.483a.526.526,0,0,1-.043.211.58.58,0,0,1-.121.181.555.555,0,0,1-.181.121.542.542,0,0,1-.211.041h-5.5a.559.559,0,0,1-.211-.041.579.579,0,0,1-.181-.121.6.6,0,0,1-.122-.181.555.555,0,0,1-.041-.211v-4.483a.926.926,0,0,0-.708-.9,14.2,14.2,0,0,1-3.169-1.352,14.465,14.465,0,0,1-2.8-2.109.921.921,0,0,0-1.143-.1l-3.838,2.216a.537.537,0,0,1-.2.067.576.576,0,0,1-.222-.016.555.555,0,0,1-.34-.259c-.912-1.59-1.837-3.173-2.75-4.763a.539.539,0,0,1-.07-.2.569.569,0,0,1,.017-.221.558.558,0,0,1,.094-.2.505.505,0,0,1,.159-.142l3.884-2.242a.918.918,0,0,0,.388-.434.927.927,0,0,0,.048-.148l.1-.02-.1-.412c-.07-.284-.132-.57-.184-.852s-.094-.564-.132-.866-.062-.585-.079-.873-.025-.575-.025-.882.009-.6.025-.881.043-.579.079-.873.081-.594.132-.868.113-.566.184-.851a.921.921,0,0,0-.058-.607.935.935,0,0,0-.414-.429l-3.845-2.22a.532.532,0,0,1-.161-.142.542.542,0,0,1-.094-.2.565.565,0,0,1-.017-.22.533.533,0,0,1,.07-.2c.938-1.4,1.879-3.262,2.75-4.763a.563.563,0,0,1,.143-.162.551.551,0,0,1,.2-.1.606.606,0,0,1,.222-.017.536.536,0,0,1,.2.07l3.885,2.243a.916.916,0,0,0,1.109-.144,14.361,14.361,0,0,1,4.349-2.879,14.232,14.232,0,0,1,1.645-.582.919.919,0,0,0,.668-.885l0-4.484a.529.529,0,0,1,.164-.391.549.549,0,0,1,.18-.123.543.543,0,0,1,.211-.042h5.5a.545.545,0,0,1,.211.042.564.564,0,0,1,.346.514v4.484a.913.913,0,0,0,.2.568.935.935,0,0,0,.51.325Zm1.935-.169a15.085,15.085,0,0,1,1.641.82,15.122,15.122,0,0,1,2.954,2.226.107.107,0,0,0,.062.029.121.121,0,0,0,.067-.013c1.307-.755,2.615-1.505,3.919-2.263a1.328,1.328,0,0,1,.491-.155,1.369,1.369,0,0,1,.515.039,1.394,1.394,0,0,1,.481.235,1.368,1.368,0,0,1,.351.4c.947,1.534,1.847,3.195,2.753,4.764a1.362,1.362,0,0,1,.169.505,1.368,1.368,0,0,1-.271,1.013,1.336,1.336,0,0,1-.4.352c-1.249.772-2.6,1.5-3.882,2.242a.11.11,0,0,0-.044.05.107.107,0,0,0-.006.068l.089.362-.005,0c.04.175.075.355.109.536q.084.466.14.916t.083.921c.019.316.03.627.03.928s-.01.612-.03.929-.047.624-.083.922-.083.6-.14.915-.123.609-.194.9a.108.108,0,0,0,.007.07.1.1,0,0,0,.048.052c1.427.762,2.876,1.659,4.286,2.474l-.049.063.043.055a1.366,1.366,0,0,1,.271,1.012,1.344,1.344,0,0,1-.17.507l-2.956,5.12-.055-.032c-.029.027-.06.051-.091.076a1.386,1.386,0,0,1-1.013.271,1.427,1.427,0,0,1-.492-.162c-1.292-.687-2.624-1.516-3.9-2.253a.11.11,0,0,0-.065-.012.108.108,0,0,0-.063.03,15.338,15.338,0,0,1-1.409,1.2,15.044,15.044,0,0,1-1.544,1.022,15.157,15.157,0,0,1-3.393,1.442.113.113,0,0,0-.057.038.1.1,0,0,0-.022.066v4.483a1.365,1.365,0,0,1-.4.966,1.379,1.379,0,0,1-.442.3,1.361,1.361,0,0,1-.522.1h-5.5a1.354,1.354,0,0,1-.522-.1,1.406,1.406,0,0,1-.445-.3,1.363,1.363,0,0,1-.4-.966v-4.483a.1.1,0,0,0-.083-.1l-.017-.007a15.071,15.071,0,0,1-3.371-1.434A15.22,15.22,0,0,1,194,139.963a.105.105,0,0,0-.064-.03.119.119,0,0,0-.069.016l-3.884,2.242a1.364,1.364,0,0,1-.5.171,1.4,1.4,0,0,1-.533-.036,1.418,1.418,0,0,1-.48-.235,1.322,1.322,0,0,1-.345-.39c-1.02-1.64-1.984-3.435-2.957-5.121l.052-.031a1.219,1.219,0,0,1-.023-.129,1.423,1.423,0,0,1,.034-.532,1.4,1.4,0,0,1,.237-.479,1.346,1.346,0,0,1,.4-.352l3.884-2.243a.107.107,0,0,0,.044-.05.114.114,0,0,0,.006-.07l-.1-.411h.006c-.034-.159-.067-.322-.1-.487-.058-.31-.1-.617-.142-.917s-.064-.6-.082-.922-.029-.626-.029-.929.01-.612.029-.927.046-.624.082-.924.084-.6.142-.916.121-.608.193-.9a.117.117,0,0,0-.007-.071.105.105,0,0,0-.05-.05L185.86,123a1.351,1.351,0,0,1-.4-.352,1.422,1.422,0,0,1-.236-.479,1.394,1.394,0,0,1-.034-.532,1.361,1.361,0,0,1,.164-.5c.924-1.712,1.984-3.438,2.961-5.132l.055.033c.029-.028.061-.052.091-.077a1.4,1.4,0,0,1,.48-.235,1.351,1.351,0,0,1,.532-.035,1.334,1.334,0,0,1,.5.168l.288.165,0,0,3.6,2.079a.112.112,0,0,0,.07.014.1.1,0,0,0,.061-.031l.01-.01a15.311,15.311,0,0,1,2.942-2.216,14.856,14.856,0,0,1,1.651-.824,15.325,15.325,0,0,1,1.741-.618.109.109,0,0,0,.079-.1v-4.484a1.36,1.36,0,0,1,.4-.966,1.4,1.4,0,0,1,.443-.3,1.364,1.364,0,0,1,.522-.1h5.5a1.377,1.377,0,0,1,.522.1,1.417,1.417,0,0,1,.444.3,1.36,1.36,0,0,1,.4.966v4.484a.131.131,0,0,0,.022.068.112.112,0,0,0,.06.037l.018.006A15.126,15.126,0,0,1,210.488,115.05Z" transform="translate(1505.911 6556.67)" fill="#ebf2f8" fill-rule="evenodd"/>
              <g id="Grupo_1228411" data-name="Grupo 1228411" transform="translate(1510 6534)">
                <path id="Trazado_1217478" data-name="Trazado 1217478" d="M374.425,182.307a9.743,9.743,0,0,0-9.124,6.325,5.045,5.045,0,0,0-5.779,3.065,5.179,5.179,0,1,0-1.64,10.091h36.362a6.283,6.283,0,1,0-1.988-12.244,6.117,6.117,0,0,0-9.494-2.534A9.733,9.733,0,0,0,374.425,182.307Z" transform="translate(-35.857 6.031)" fill="#dee7f4" fill-rule="evenodd"/>
                <path id="Trazado_1217479" data-name="Trazado 1217479" d="M352.209,174.722a12.549,12.549,0,1,1,0,25.1H326.677a8.095,8.095,0,1,1,2.562-15.774,7.879,7.879,0,0,1,12.23-3.265A12.537,12.537,0,0,1,352.209,174.722Z" transform="translate(-27 8)" fill="#fff" fill-rule="evenodd"/>
              </g>
              <g id="Grupo_1228414" data-name="Grupo 1228414" transform="translate(1657.839 6422)">
                <path id="Trazado_1217515" data-name="Trazado 1217515" d="M78.369,239.982l-7.975-3.517v-1.149l7.975-3.981v1.926l-5.5,2.546,5.5,2.256v1.919Zm2.921-2.268v-.6a2.643,2.643,0,0,1,.329-1.34,4.315,4.315,0,0,1,1.2-1.212,5.049,5.049,0,0,0,1.113-.977,1.431,1.431,0,0,0,.269-.845.909.909,0,0,0-.387-.792,1.825,1.825,0,0,0-1.074-.273,6.211,6.211,0,0,0-2.747.785l-.874-1.755a7.641,7.641,0,0,1,3.795-1.005,4.057,4.057,0,0,1,2.632.795,2.592,2.592,0,0,1,.973,2.118,2.819,2.819,0,0,1-.4,1.525,5.735,5.735,0,0,1-1.526,1.444,4.75,4.75,0,0,0-.975.866,1.354,1.354,0,0,0-.205.778v.482H81.29Zm-.257,2.747a1.351,1.351,0,0,1,.361-1.02,1.458,1.458,0,0,1,1.05-.346,1.428,1.428,0,0,1,1.035.354,1.561,1.561,0,0,1-.006,2.011,1.386,1.386,0,0,1-1.029.364,1.429,1.429,0,0,1-1.041-.355,1.339,1.339,0,0,1-.37-1.008Zm9.851-5.066H91.7a2.7,2.7,0,0,0,1.717-.455,1.585,1.585,0,0,0,.571-1.32,1.635,1.635,0,0,0-.477-1.294,2.25,2.25,0,0,0-1.5-.415H90.884V235.4Zm5.621-1.863a3.591,3.591,0,0,1-1.184,2.9,5.071,5.071,0,0,1-3.368,1H90.885v4.177H88.4V229.87h3.75a5,5,0,0,1,3.25.919,3.358,3.358,0,0,1,1.11,2.743Zm11.833,8.08h-2.479v-5.064H101.21v5.064H98.722V229.87h2.488v4.6h4.649v-4.6h2.479v11.742Zm5.454-6.217h.819a2.706,2.706,0,0,0,1.718-.455,1.585,1.585,0,0,0,.571-1.32,1.632,1.632,0,0,0-.477-1.294,2.25,2.25,0,0,0-1.5-.415h-1.133V235.4Zm5.623-1.863a3.591,3.591,0,0,1-1.184,2.9,5.071,5.071,0,0,1-3.368,1h-1.07v4.177h-2.488V229.87h3.75a5.006,5.006,0,0,1,3.25.919,3.361,3.361,0,0,1,1.11,2.743Zm2.957,4.182v-.6a2.643,2.643,0,0,1,.329-1.34,4.32,4.32,0,0,1,1.2-1.212,5.013,5.013,0,0,0,1.112-.977,1.417,1.417,0,0,0,.269-.845.91.91,0,0,0-.385-.792,1.834,1.834,0,0,0-1.076-.273,6.207,6.207,0,0,0-2.746.785l-.877-1.755A7.655,7.655,0,0,1,124,229.7a4.055,4.055,0,0,1,2.63.795,2.592,2.592,0,0,1,.973,2.118,2.81,2.81,0,0,1-.4,1.525,5.733,5.733,0,0,1-1.528,1.444,4.75,4.75,0,0,0-.973.866,1.354,1.354,0,0,0-.205.778v.482h-2.126Zm-.257,2.747a1.343,1.343,0,0,1,.361-1.02,1.454,1.454,0,0,1,1.049-.346,1.421,1.421,0,0,1,1.033.354,1.564,1.564,0,0,1,0,2.011,1.389,1.389,0,0,1-1.029.364,1.429,1.429,0,0,1-1.041-.355,1.335,1.335,0,0,1-.369-1.008Zm6.591-2.4,5.494-2.256-5.494-2.546v-1.926l7.975,3.981v1.149l-7.975,3.517Z" fill="#fff" fill-rule="evenodd"/>
                <path id="Trazado_1217516" data-name="Trazado 1217516" d="M70.665,181.066h69.476a3.614,3.614,0,0,1,3.6,3.6v35.345a3.613,3.613,0,0,1-3.6,3.6H70.665a3.613,3.613,0,0,1-3.6-3.6V184.67A3.614,3.614,0,0,1,70.665,181.066Z" fill="#8397b5" fill-rule="evenodd"/>
                <path id="Trazado_1217517" data-name="Trazado 1217517" d="M68.8,179.149h69.474a3.614,3.614,0,0,1,3.6,3.6V218.1a3.614,3.614,0,0,1-3.6,3.6H68.8a3.614,3.614,0,0,1-3.6-3.6V182.751A3.614,3.614,0,0,1,68.8,179.149Z" fill="#fff" fill-rule="evenodd"/>
                <path id="Trazado_1217518" data-name="Trazado 1217518" d="M68.8,179.149h69.474a3.614,3.614,0,0,1,3.6,3.6v4.974a1.012,1.012,0,0,1-1.009,1.009H66.205a1.013,1.013,0,0,1-1.009-1.009v-4.974A3.614,3.614,0,0,1,68.8,179.149Z" fill="#aa52f9" fill-rule="evenodd"/>
                <path id="Trazado_1217519" data-name="Trazado 1217519" d="M71.026,192.751H90.5a.751.751,0,0,1,.748.748h0a.75.75,0,0,1-.748.749H71.026a.75.75,0,0,1-.748-.749h0A.751.751,0,0,1,71.026,192.751Z" fill="#0c0e0e" fill-rule="evenodd"/>
                <path id="Trazado_1217520" data-name="Trazado 1217520" d="M90.5,196.053H81.8a.75.75,0,0,0-.748.748h0a.749.749,0,0,0,.748.747h8.7a.748.748,0,0,0,.746-.747h0A.749.749,0,0,0,90.5,196.053Z" fill="#0c0e0e" fill-rule="evenodd"/>
                <path id="Trazado_1217521" data-name="Trazado 1217521" d="M78.006,196.053h.689a.749.749,0,0,1,.748.748h0a.748.748,0,0,1-.748.747h-.689a.75.75,0,0,1-.749-.747h0A.752.752,0,0,1,78.006,196.053Z" fill="#0c0e0e" fill-rule="evenodd"/>
                <path id="Trazado_1217522" data-name="Trazado 1217522" d="M71.026,196.053h4.359a.751.751,0,0,1,.748.748h0a.749.749,0,0,1-.748.747H71.026a.749.749,0,0,1-.748-.747h0A.751.751,0,0,1,71.026,196.053Z" fill="#0c0e0e" fill-rule="evenodd"/>
                <path id="Trazado_1217523" data-name="Trazado 1217523" d="M71.026,199.97H90.5a.75.75,0,0,1,.748.749h0a.751.751,0,0,1-.748.748H71.026a.751.751,0,0,1-.748-.748h0A.75.75,0,0,1,71.026,199.97Z" fill="#0c0e0e" fill-rule="evenodd"/>
                <path id="Trazado_1217524" data-name="Trazado 1217524" d="M71.026,203.272h8.7a.75.75,0,0,1,.748.748h0a.75.75,0,0,1-.748.749h-8.7a.75.75,0,0,1-.748-.749h0A.75.75,0,0,1,71.026,203.272Z" fill="#0c0e0e" fill-rule="evenodd"/>
                <path id="Trazado_1217525" data-name="Trazado 1217525" d="M83.521,203.272h-.69a.751.751,0,0,0-.75.748h0a.751.751,0,0,0,.75.749h.69a.749.749,0,0,0,.748-.749h0A.748.748,0,0,0,83.521,203.272Z" fill="#0c0e0e" fill-rule="evenodd"/>
                <path id="Trazado_1217526" data-name="Trazado 1217526" d="M90.5,203.272H86.145a.749.749,0,0,0-.748.748h0a.749.749,0,0,0,.748.749H90.5a.75.75,0,0,0,.748-.749h0A.75.75,0,0,0,90.5,203.272Z" fill="#0c0e0e" fill-rule="evenodd"/>
                <path id="Trazado_1217527" data-name="Trazado 1217527" d="M71.026,207.189H90.5a.751.751,0,0,1,.748.749h0a.751.751,0,0,1-.748.748H71.026a.751.751,0,0,1-.748-.748h0A.751.751,0,0,1,71.026,207.189Z" fill="#0c0e0e" fill-rule="evenodd"/>
                <path id="Trazado_1217528" data-name="Trazado 1217528" d="M90.5,210.49H81.8a.75.75,0,0,0-.748.749h0a.749.749,0,0,0,.748.747h8.7a.748.748,0,0,0,.746-.747h0A.749.749,0,0,0,90.5,210.49Z" fill="#0c0e0e" fill-rule="evenodd"/>
                <path id="Trazado_1217529" data-name="Trazado 1217529" d="M78.006,210.49h.689a.75.75,0,0,1,.748.749h0a.749.749,0,0,1-.748.747h-.689a.751.751,0,0,1-.749-.747h0A.752.752,0,0,1,78.006,210.49Z" fill="#0c0e0e" fill-rule="evenodd"/>
                <path id="Trazado_1217530" data-name="Trazado 1217530" d="M71.026,210.49h4.359a.751.751,0,0,1,.748.749h0a.75.75,0,0,1-.748.747H71.026a.75.75,0,0,1-.748-.747h0A.751.751,0,0,1,71.026,210.49Z" fill="#0c0e0e" fill-rule="evenodd"/>
                <path id="Trazado_1217531" data-name="Trazado 1217531" d="M71.026,214.408H90.5a.749.749,0,0,1,.748.748h0a.749.749,0,0,1-.748.748H71.026a.75.75,0,0,1-.748-.748h0A.749.749,0,0,1,71.026,214.408Z" fill="#0c0e0e" fill-rule="evenodd"/>
                <path id="Trazado_1217532" data-name="Trazado 1217532" d="M102.964,192.751h32.948a.75.75,0,0,1,.748.748h0a.75.75,0,0,1-.748.749H102.964a.75.75,0,0,1-.749-.749h0A.752.752,0,0,1,102.964,192.751Z" fill="#aa52f9" fill-rule="evenodd"/>
                <path id="Trazado_1217533" data-name="Trazado 1217533" d="M135.913,196.053H120.662a.751.751,0,0,0-.748.748h0a.749.749,0,0,0,.748.747h15.251a.748.748,0,0,0,.747-.747h0A.75.75,0,0,0,135.913,196.053Z" fill="#aa52f9" fill-rule="evenodd"/>
                <path id="Trazado_1217534" data-name="Trazado 1217534" d="M114.428,196.053h2.1a.75.75,0,0,1,.749.748h0a.749.749,0,0,1-.749.747h-2.1a.749.749,0,0,1-.748-.747h0A.751.751,0,0,1,114.428,196.053Z" fill="#aa52f9" fill-rule="evenodd"/>
                <path id="Trazado_1217535" data-name="Trazado 1217535" d="M102.963,196.053h8.12a.751.751,0,0,1,.748.748h0a.749.749,0,0,1-.748.747h-8.12a.748.748,0,0,1-.747-.747h0A.75.75,0,0,1,102.963,196.053Z" fill="#aa52f9" fill-rule="evenodd"/>
                <path id="Trazado_1217536" data-name="Trazado 1217536" d="M102.964,199.97h32.948a.75.75,0,0,1,.748.749h0a.75.75,0,0,1-.748.748H102.964a.75.75,0,0,1-.749-.748h0A.751.751,0,0,1,102.964,199.97Z" fill="#aa52f9" fill-rule="evenodd"/>
                <path id="Trazado_1217537" data-name="Trazado 1217537" d="M102.964,203.272h15.25a.749.749,0,0,1,.748.748h0a.75.75,0,0,1-.748.749h-15.25a.75.75,0,0,1-.749-.749h0A.751.751,0,0,1,102.964,203.272Z" fill="#aa52f9" fill-rule="evenodd"/>
                <path id="Trazado_1217538" data-name="Trazado 1217538" d="M124.447,203.272h-2.1a.749.749,0,0,0-.748.748h0a.75.75,0,0,0,.748.749h2.1a.749.749,0,0,0,.748-.749h0A.748.748,0,0,0,124.447,203.272Z" fill="#aa52f9" fill-rule="evenodd"/>
                <path id="Trazado_1217539" data-name="Trazado 1217539" d="M135.913,203.272h-8.12a.751.751,0,0,0-.749.748h0a.75.75,0,0,0,.749.749h8.12a.75.75,0,0,0,.748-.749h0A.75.75,0,0,0,135.913,203.272Z" fill="#aa52f9" fill-rule="evenodd"/>
                <path id="Trazado_1217540" data-name="Trazado 1217540" d="M102.964,207.189h32.948a.75.75,0,0,1,.748.749h0a.75.75,0,0,1-.748.748H102.964a.75.75,0,0,1-.749-.748h0A.752.752,0,0,1,102.964,207.189Z" fill="#aa52f9" fill-rule="evenodd"/>
                <path id="Trazado_1217541" data-name="Trazado 1217541" d="M135.913,210.49H120.662a.751.751,0,0,0-.748.749h0a.75.75,0,0,0,.748.747h15.251a.748.748,0,0,0,.747-.747h0A.751.751,0,0,0,135.913,210.49Z" fill="#aa52f9" fill-rule="evenodd"/>
                <path id="Trazado_1217542" data-name="Trazado 1217542" d="M114.428,210.49h2.1a.75.75,0,0,1,.749.749h0a.749.749,0,0,1-.749.747h-2.1a.75.75,0,0,1-.748-.747h0A.751.751,0,0,1,114.428,210.49Z" fill="#aa52f9" fill-rule="evenodd"/>
                <path id="Trazado_1217543" data-name="Trazado 1217543" d="M102.963,210.49h8.12a.751.751,0,0,1,.748.749h0a.75.75,0,0,1-.748.747h-8.12a.749.749,0,0,1-.747-.747h0A.75.75,0,0,1,102.963,210.49Z" fill="#aa52f9" fill-rule="evenodd"/>
                <path id="Trazado_1217544" data-name="Trazado 1217544" d="M102.964,214.408h32.948a.749.749,0,0,1,.748.748h0a.749.749,0,0,1-.748.748H102.964a.75.75,0,0,1-.749-.748h0A.75.75,0,0,1,102.964,214.408Z" fill="#aa52f9" fill-rule="evenodd"/>
                <path id="Trazado_1217545" data-name="Trazado 1217545" d="M123.388,185.67a1.729,1.729,0,1,0-1.729-1.73A1.732,1.732,0,0,0,123.388,185.67Z" fill="#fff" fill-rule="evenodd"/>
                <path id="Trazado_1217546" data-name="Trazado 1217546" d="M129.625,185.67a1.729,1.729,0,1,0-1.729-1.73A1.733,1.733,0,0,0,129.625,185.67Z" fill="#fff" fill-rule="evenodd"/>
                <path id="Trazado_1217547" data-name="Trazado 1217547" d="M135.862,185.67a1.729,1.729,0,1,0-1.73-1.73A1.732,1.732,0,0,0,135.862,185.67Z" fill="#fff" fill-rule="evenodd"/>
              </g>
              <g id="Grupo_1228416" data-name="Grupo 1228416" transform="translate(1510 6534)">
                <path id="Trazado_1217562" data-name="Trazado 1217562" d="M354.419,126.076H309.047a6.01,6.01,0,0,0-5.991,5.992v46.179a.668.668,0,0,0,1.14.474l10.211-10.211h40.012a6.01,6.01,0,0,0,5.993-5.991V132.068A6.01,6.01,0,0,0,354.419,126.076Z" fill="#8397b5" fill-rule="evenodd"/>
                <path id="Trazado_1217563" data-name="Trazado 1217563" d="M353.1,124.481H307.728a6.009,6.009,0,0,0-5.991,5.993v46.18a.667.667,0,0,0,1.141.472l10.211-10.209H353.1a6.008,6.008,0,0,0,5.991-5.993V130.475A6.013,6.013,0,0,0,353.1,124.481Z" fill="#aa52f9" fill-rule="evenodd"/>
                <path id="Trazado_1217564" data-name="Trazado 1217564" d="M321.075,147.819a4.431,4.431,0,0,1-1.67,3.652,7.239,7.239,0,0,1-4.644,1.336,10.885,10.885,0,0,1-4.847-1.032V148.4a20.186,20.186,0,0,0,2.934,1.091,8.6,8.6,0,0,0,2.193.316,3.114,3.114,0,0,0,1.834-.457,1.556,1.556,0,0,0,.639-1.359,1.492,1.492,0,0,0-.279-.9,3.076,3.076,0,0,0-.828-.754,20.338,20.338,0,0,0-2.217-1.161,10.718,10.718,0,0,1-2.357-1.417,5.265,5.265,0,0,1-1.25-1.583,4.912,4.912,0,0,1,1.069-5.677,6.4,6.4,0,0,1,4.256-1.3,10.007,10.007,0,0,1,2.549.317,17.594,17.594,0,0,1,2.534.891l-1.171,2.821a17,17,0,0,0-2.266-.783,7.341,7.341,0,0,0-1.762-.225,2.332,2.332,0,0,0-1.583.482,1.585,1.585,0,0,0-.551,1.253,1.531,1.531,0,0,0,.224.835,2.4,2.4,0,0,0,.707.691,20.933,20.933,0,0,0,2.3,1.2,9.228,9.228,0,0,1,3.293,2.3,4.512,4.512,0,0,1,.891,2.83Zm18.634-3.832a10.8,10.8,0,0,1-1.073,5.067,6.522,6.522,0,0,1-3.142,2.989l4.123,4.6H334.97l-3.137-3.835h-.272a7.823,7.823,0,0,1-6.043-2.282q-2.107-2.284-2.105-6.558t2.114-6.529a7.894,7.894,0,0,1,6.057-2.253,7.78,7.78,0,0,1,6.034,2.27q2.091,2.271,2.091,6.532Zm-12.492,0a7.19,7.19,0,0,0,1.087,4.325,3.825,3.825,0,0,0,3.257,1.449q4.346,0,4.343-5.774t-4.32-5.781a3.849,3.849,0,0,0-3.268,1.456,7.134,7.134,0,0,0-1.1,4.325Zm16.035,8.579V135.447h3.627v14.121h6.945v3Z" fill="#fff" fill-rule="evenodd"/>
              </g>
              <g id="Grupo_1228417" data-name="Grupo 1228417" transform="translate(1510 6534)">
                <path id="Trazado_1217565" data-name="Trazado 1217565" d="M188,255.8a2.484,2.484,0,1,0-2.485-2.484A2.489,2.489,0,0,0,188,255.8Z" fill="#fff" fill-rule="evenodd"/>
                <path id="Trazado_1217566" data-name="Trazado 1217566" d="M351.272,284.506a2.486,2.486,0,1,0-2.484-2.487A2.491,2.491,0,0,0,351.272,284.506Z" fill="#fff" fill-rule="evenodd"/>
                <path id="Trazado_1217567" data-name="Trazado 1217567" d="M284.266,97.324a2.486,2.486,0,1,0-2.484-2.485A2.489,2.489,0,0,0,284.266,97.324Z" fill="#fff" fill-rule="evenodd"/>
                <path id="Trazado_1217568" data-name="Trazado 1217568" d="M89.074,372.633a2.486,2.486,0,1,0-2.485-2.486A2.49,2.49,0,0,0,89.074,372.633Z" fill="#fff" fill-rule="evenodd"/>
                <path id="Trazado_1217569" data-name="Trazado 1217569" d="M166.276,154.862a2.486,2.486,0,1,0-2.485-2.485A2.489,2.489,0,0,0,166.276,154.862Z" fill="#fff" fill-rule="evenodd"/>
                <path id="Trazado_1217570" data-name="Trazado 1217570" d="M184.485,96.7a1.129,1.129,0,1,0-1.13-1.129A1.133,1.133,0,0,0,184.485,96.7Z" fill="#fff" fill-rule="evenodd"/>
                <path id="Trazado_1217571" data-name="Trazado 1217571" d="M214.346,180.455a1.129,1.129,0,1,0-1.129-1.13A1.131,1.131,0,0,0,214.346,180.455Z" fill="#fff" fill-rule="evenodd"/>
                <path id="Trazado_1217572" data-name="Trazado 1217572" d="M288.636,132.385a1.129,1.129,0,1,0-1.129-1.13A1.132,1.132,0,0,0,288.636,132.385Z" fill="#fff" fill-rule="evenodd"/>
                <path id="Trazado_1217573" data-name="Trazado 1217573" d="M320.683,252.56a1.13,1.13,0,1,0-1.13-1.131A1.132,1.132,0,0,0,320.683,252.56Z" fill="#fff" fill-rule="evenodd"/>
                <path id="Trazado_1217574" data-name="Trazado 1217574" d="M402.984,173.171a1.129,1.129,0,1,0-1.131-1.13A1.132,1.132,0,0,0,402.984,173.171Z" fill="#fff" fill-rule="evenodd"/>
                <path id="Trazado_1217575" data-name="Trazado 1217575" d="M197.6,225.611a1.13,1.13,0,1,0-1.129-1.131A1.133,1.133,0,0,0,197.6,225.611Z" fill="#fff" fill-rule="evenodd"/>
                <path id="Trazado_1217576" data-name="Trazado 1217576" d="M137.872,309.368a1.13,1.13,0,1,0-1.13-1.13A1.132,1.132,0,0,0,137.872,309.368Z" fill="#fff" fill-rule="evenodd"/>
                <path id="Trazado_1217577" data-name="Trazado 1217577" d="M61.4,372a1.13,1.13,0,1,0-1.13-1.129A1.13,1.13,0,0,0,61.4,372Z" fill="#fff" fill-rule="evenodd"/>
                <path id="Trazado_1217578" data-name="Trazado 1217578" d="M404.44,303.542a1.13,1.13,0,1,0-1.13-1.131A1.132,1.132,0,0,0,404.44,303.542Z" fill="#fff" fill-rule="evenodd"/>
                <path id="Trazado_1217579" data-name="Trazado 1217579" d="M424.105,406.236a1.13,1.13,0,1,0-1.13-1.13A1.131,1.131,0,0,0,424.105,406.236Z" fill="#fff" fill-rule="evenodd"/>
                <path id="Trazado_1217580" data-name="Trazado 1217580" d="M53.385,232.167a1.13,1.13,0,1,0-1.129-1.131A1.132,1.132,0,0,0,53.385,232.167Z" fill="#fff" fill-rule="evenodd"/>
                <path id="Trazado_1217581" data-name="Trazado 1217581" d="M125.49,166.617a1.13,1.13,0,1,0-1.129-1.131A1.133,1.133,0,0,0,125.49,166.617Z" fill="#fff" fill-rule="evenodd"/>
                <path id="Trazado_1217582" data-name="Trazado 1217582" d="M248.578,98.153a1.129,1.129,0,1,0-1.129-1.129A1.132,1.132,0,0,0,248.578,98.153Z" fill="#fff" fill-rule="evenodd"/>
                <path id="Trazado_1217583" data-name="Trazado 1217583" d="M325.053,110.535a1.129,1.129,0,1,0-1.13-1.129A1.132,1.132,0,0,0,325.053,110.535Z" fill="#fff" fill-rule="evenodd"/>
              </g>
              <g id="Grupo_1228421" data-name="Grupo 1228421" transform="translate(1510 6534)">
                <path id="Trazado_1217584" data-name="Trazado 1217584" d="M182.879,213.965c-2.322,7.147-4.551,16.139-6.225,20.745-12.866,35.425-8.915,37.089,18.885,34.992,11.17-.842,22.026-.882,43.1-4.079,3.051-.444,1.582,1.081,3.128,2.568s-11.848,12-11.848,12l-24.862,26.19c-19.062-1.982-46.781-7.831-58.958-16.611-18.7-15.933,8.5-60.506,17.881-82.457.761-1.783,5.885-.467,6.377-1.923C173.131,206.461,184.338,209.474,182.879,213.965Z" fill="#fff" fill-rule="evenodd"/>
                <path id="Trazado_1217585" data-name="Trazado 1217585" d="M190.311,207.227a17.267,17.267,0,0,1,8.773-3.1c1.858-.07.049-7.02-6.162-4.044,0,0-3.255.246-3.649-1.127s11.358-16.314,12.645-17.948a2.181,2.181,0,0,0-1.2-3.438c-.866-.024-2.7,2.366-5.225,5.233s-5.4,6.06-5.9,6.108-1.128-.559-.355-2.671,5.465-13.576,5.125-14.7-2.425-1.679-3.645-.168-5.518,13.268-6.546,14.6-2.169.125-2.073-1.049,2.958-14.578,2.677-15.638-2.43-1.555-3.289.339-4.132,14.6-4.832,15.265-2.112.311-2.6-2.241-.885-7.943-1.425-8.517-2.95.441-2.936,3.132-.177,9.367-.329,10.353c-.8,5.2-2.977,9.689-3.046,13.833a9.993,9.993,0,0,0,1.048,4.468,14.4,14.4,0,0,0,8.717,7.409C182.577,215.15,185.4,210.708,190.311,207.227Z" fill="#f4ad85" fill-rule="evenodd"/>
                <path id="Trazado_1217586" data-name="Trazado 1217586" d="M190.311,207.227a17.267,17.267,0,0,1,8.773-3.1c.636-.024.842-.854.589-1.815-1.018-.381-5.893.779-10.413,2.822-6.612,2.986-13.959,6.489-19.684-1.471-1.485-2.065-2.048-7.836-1.549-10.326a33.007,33.007,0,0,0-1.707,8.111,10.041,10.041,0,0,0,1.049,4.468c-3.391,5.185,3.916,9.983,10.008,10.11,2.367.048,2.231-1.9,4.679-2.876C184.94,212.008,187.209,209.425,190.311,207.227Z" fill="#f19879" fill-rule="evenodd"/>
                <path id="Trazado_1217587" data-name="Trazado 1217587" d="M307.117,273.3s5.075,2.391,10.727,9c4.035,4.712,23.92,39.14,30.849,72.134,1.517,7.225-9.254,36.376-28.694,50.142l17.358,3.749c-1.652-3.429-39.339-2.2-41.828-7.574-7.215-15.57,19.278-41.338,19.278-41.338Z" fill="#ebf2f8" fill-rule="evenodd"/>
                <path id="Trazado_1217588" data-name="Trazado 1217588" d="M260.332,260.954c10.135,2.684,40.512,10.834,42.178,12.552,2,2.063,11.055,51.479,11.077,56.3.022,4.458-10.436,65.684-12.145,82.4H212.657c-1.707-16.714-12.164-77.939-12.143-82.4.021-4.825,9.242-54.414,11.076-56.3s18.868-5.258,29-7.94l12.772,16.77,1.814-.016,1.871,3.272,1.871-3.272,1.814.016Z" fill="#fff" fill-rule="evenodd"/>
                <path id="Trazado_1217589" data-name="Trazado 1217589" d="M202.531,346.473c-1.506-8.848-2.546-15.323-2.539-16.663.014-2.757,3.347-20.14,6.578-34.883,2.363,1.274,1,8.148,1.3,19.01C208.049,320.147,205.366,333.881,202.531,346.473Z" fill="#ebf2f8" fill-rule="evenodd"/>
                <path id="Trazado_1217590" data-name="Trazado 1217590" d="M260.673,260.954c11.191,2.684,44.737,10.834,46.576,12.552,2.212,2.063,12.208,51.479,12.232,56.3.009,1.6-1.48,10.558-3.48,22.141-17.144,4.42-31.142,7.374-31.142,7.374s28.224-32.41,25.772-46.653-4.193-27.454-6.56-28.911-17.39-6.828-21.851-7.921-5.1,2.186-5.1,2.186-3.277,11.288-3.824,13.522-1.685,3.229-3.05,2.594-8.33-6.056-8.785-5.78-3.382,5.462-3.382,5.462l-2.064-2.507-1.749-4.46s-7.875,6.282-9.1,7.192a2.2,2.2,0,0,1-3.414-.82c-.364-1.274-3.835-17.829-3.835-17.829l2.479-11.275c5.273-1.3,9.983-2.438,13.031-3.169l-.446,21.381,2-.016,2.067,3.272,2.066-3.272,2,.016Z" fill="#ebf2f8" fill-rule="evenodd"/>
                <path id="Trazado_1217591" data-name="Trazado 1217591" d="M256.019,283.959l1.032,1.633,1.032-1.633v30.529a1.032,1.032,0,1,1-2.064,0Z" fill="#bec7d4" fill-rule="evenodd"/>
                <path id="Trazado_1217592" data-name="Trazado 1217592" d="M256.506,225.8l.282,0c8.146-.122,14.889,8.458,14.983,19.067l.2,22.662c.06,6.834-2.651,12.908-6.768,16.4v-1.592h-6.1l-2.059,3.257-2.058-3.257h-4.972v2.5c-4.665-3.2-7.888-9.548-7.953-16.859l-.2-22.665C241.774,234.7,248.36,225.924,256.506,225.8Z" fill="#e8685b" fill-rule="evenodd"/>
                <path id="Trazado_1217593" data-name="Trazado 1217593" d="M256.438,222.04a10.07,10.07,0,0,0-2.122-5.314l-15.728,12.588a10.036,10.036,0,0,0,4.721,3.234l13.129-10.508Zm-3.157-6.44-15.566,12.457a10.119,10.119,0,0,1-1.083-2.64l14.309-11.453A10,10,0,0,1,253.281,215.6Z" fill="#f6bb98" fill-rule="evenodd"/>
                <path id="Trazado_1217594" data-name="Trazado 1217594" d="M214.18,212.712l-5.765,2.925c-4.959,16.326,7.158,44.919,30.4,34.7,9.221-4.052-7.946-38.243-7.946-38.243Z" fill-rule="evenodd"/>
                <path id="Trazado_1217595" data-name="Trazado 1217595" d="M207.4,221.252c-.972,13.069,6.378,29.566,19.9,31.116C231.909,232.721,214.755,224.024,207.4,221.252Z" fill="#0c0e0e" fill-rule="evenodd"/>
                <path id="Trazado_1217596" data-name="Trazado 1217596" d="M293.69,181.185c10.76,9.113,26.721,39.858,10.367,50.268-5.311,3.38-9.267,8.145-18.355,4.06s-8.3-52.441-8.3-52.441S288.245,178.434,293.69,181.185Z" fill-rule="evenodd"/>
                <path id="Trazado_1217597" data-name="Trazado 1217597" d="M307.194,273.338c.16.111.575.41,1.186.923,2.7,7.814,5.391,20.418,6.8,40.718a.548.548,0,0,1-.371.62c-.226.028-.427-.2-.448-.515C312.863,293.529,309.967,280.818,307.194,273.338Z" fill="#d7e0ec" fill-rule="evenodd"/>
                <path id="Trazado_1217598" data-name="Trazado 1217598" d="M224.086,268.08c-8.984,7.145-13.218,19.711-19.033,38.3l-.826-.113c5.652-18.194,9.375-30.686,18.384-38.053Z" fill="#ebf2f8" fill-rule="evenodd"/>
                <g id="Grupo_1228418" data-name="Grupo 1228418">
                  <path id="Trazado_1217599" data-name="Trazado 1217599" d="M229.5,209.553c-.238-.009-.474-.009-.71,0h-.006a9.546,9.546,0,1,0,7.537,3.209c-.225,2.816-1.244,6.183-4.847,5.932l1.011-5.409A3.277,3.277,0,0,0,229.5,209.553Z" fill="#e8685b" fill-rule="evenodd"/>
                  <path id="Trazado_1217600" data-name="Trazado 1217600" d="M297.423,220.933c.228.071.451.148.67.233l.008,0h0a9.546,9.546,0,1,1-8.173.578c-.7,2.737-.839,6.25,2.649,7.188l.808-5.443A3.279,3.279,0,0,1,297.423,220.933Z" fill="#e8685b" fill-rule="evenodd"/>
                </g>
                <path id="Trazado_1217601" data-name="Trazado 1217601" d="M271.341,168.234h0a32.767,32.767,0,0,0-37.62,26.822l-4.911,29.3a32.765,32.765,0,0,0,26.823,37.618h0a32.765,32.765,0,0,0,37.616-26.821l4.91-29.3A32.764,32.764,0,0,0,271.341,168.234Z" fill="#f4ad85" fill-rule="evenodd"/>
                <path id="Trazado_1217602" data-name="Trazado 1217602" d="M271.341,168.234h0a32.767,32.767,0,0,0-37.62,26.82l-4.911,29.3c-.115.688-.2,1.374-.276,2.06,19.244,1.391,38.244-7.986,41.826-31.107,0,0,7.683,1.168,9.6,1.669s9.146,6.389,8.353,15.618-3.174,26.645-8.77,35.081-14.576,14.605-29.461,12.858a32.487,32.487,0,0,0,5.548,1.439h0a32.765,32.765,0,0,0,37.616-26.821l4.91-29.3A32.765,32.765,0,0,0,271.341,168.234Z" fill="#ef8871" fill-rule="evenodd"/>
                <path id="Trazado_1217603" data-name="Trazado 1217603" d="M287.371,193.313s-1.814,13.046,6.431,18.223c0,0-1.114,6.646-1.439,8.583s.306,5.129,2.484,5.494l.771-4.6,3.094-3.956,1.965-21.354-7.392-14.348-6.466-1.5S287.387,193.531,287.371,193.313Z" fill-rule="evenodd"/>
                <path id="Trazado_1217604" data-name="Trazado 1217604" d="M291.214,182.483l-6.69,7.694s-10.68-.427-14.572-1.838,7.893-24.268,7.893-24.268,7.262.836,7.845,1.314,1.577,8.71,1.577,8.71Z" fill-rule="evenodd"/>
                <path id="Trazado_1217605" data-name="Trazado 1217605" d="M284.293,220.126,269.16,232.237a10.056,10.056,0,0,1-.741-2.914l13.192-10.558a9.993,9.993,0,0,1,2.682,1.361Zm3.94,5.815a10.1,10.1,0,0,0-2.747-4.815l-15.612,12.5a10.074,10.074,0,0,0,4.1,3.734Z" fill="#f6bb98" fill-rule="evenodd"/>
                <g id="Grupo_1228419" data-name="Grupo 1228419">
                  <path id="Trazado_1217606" data-name="Trazado 1217606" d="M279.013,233.148a4.227,4.227,0,1,0,3.379,4.932A4.229,4.229,0,0,0,279.013,233.148Z" fill="#e8685b" fill-rule="evenodd"/>
                  <path id="Trazado_1217607" data-name="Trazado 1217607" d="M243.27,226.458a4.228,4.228,0,1,0,3.377,4.934A4.23,4.23,0,0,0,243.27,226.458Z" fill="#e8685b" fill-rule="evenodd"/>
                </g>
                <path id="Trazado_1217608" data-name="Trazado 1217608" d="M244.227,209.749a8.466,8.466,0,0,1,7.831,1.273,1.045,1.045,0,1,0,1.356-1.591,10.585,10.585,0,0,0-9.8-1.682,1.046,1.046,0,0,0,.611,2Z" fill-rule="evenodd"/>
                <path id="Trazado_1217609" data-name="Trazado 1217609" d="M243.137,221.893a3.07,3.07,0,0,1,6.056,1.014,1.048,1.048,0,1,0,2.067.348,5.168,5.168,0,1,0-10.194-1.709,1.05,1.05,0,0,0,2.071.347Z" fill-rule="evenodd"/>
                <path id="Trazado_1217610" data-name="Trazado 1217610" d="M281.853,228.38a1.048,1.048,0,1,0,2.068.347,5.169,5.169,0,0,0-10.2-1.708,1.049,1.049,0,1,0,2.069.346,3.071,3.071,0,0,1,6.058,1.015Z" fill-rule="evenodd"/>
                <path id="Trazado_1217611" data-name="Trazado 1217611" d="M284.781,216.544a1.045,1.045,0,1,0,1.229-1.691,10.6,10.6,0,0,0-9.811-1.6,1.045,1.045,0,1,0,.765,1.946A8.469,8.469,0,0,1,284.781,216.544Z" fill-rule="evenodd"/>
                <path id="Trazado_1217612" data-name="Trazado 1217612" d="M288.875,398.43s5.086-3.4,7.823-5.045a7.192,7.192,0,0,1,7.355.08,115.967,115.967,0,0,1,10.485,8.382c1.173,1.239-5.635,3.979-6.338,3.979S288.875,398.43,288.875,398.43Z" fill="#ef8871" fill-rule="evenodd"/>
                <path id="Trazado_1217613" data-name="Trazado 1217613" d="M174.539,410.2H338.95a4.605,4.605,0,0,0,4.592-4.593h0a4.606,4.606,0,0,0-4.592-4.592H174.539a4.606,4.606,0,0,0-4.592,4.592h0A4.606,4.606,0,0,0,174.539,410.2Z" fill="#0c0e0e" fill-rule="evenodd"/>
                <g id="Grupo_1228420" data-name="Grupo 1228420">
                  <path id="Trazado_1217614" data-name="Trazado 1217614" d="M269.044,239.615a9.134,9.134,0,0,1-17.957-3.355l.016,0a1.583,1.583,0,0,1,1.841-1.26l14.826,2.77a1.582,1.582,0,0,1,1.26,1.839Z" fill-rule="evenodd"/>
                  <path id="Trazado_1217615" data-name="Trazado 1217615" d="M264.393,245.979a9.132,9.132,0,0,1-10.495-1.306,5.684,5.684,0,0,1,5.752-2.353A5.76,5.76,0,0,1,264.393,245.979Z" fill="#d64341" fill-rule="evenodd"/>
                  <path id="Trazado_1217616" data-name="Trazado 1217616" d="M253.444,235.1l13.936,2.6c-.069,1.583-1.073,3.006-2.175,3.151-1.337.176-11.369-1.969-11.935-2.9A5.453,5.453,0,0,1,253.444,235.1Z" fill="#fff" fill-rule="evenodd"/>
                </g>
                <path id="Trazado_1217617" data-name="Trazado 1217617" d="M258.58,229.689s-1.618,2.056-1.431,3.323,1.992.916,2.347-.115a8.87,8.87,0,0,0,.091-3.366C259.5,229.282,258.986,229.1,258.58,229.689Z" fill="#f8caae" fill-rule="evenodd"/>
                <path id="Trazado_1217618" data-name="Trazado 1217618" d="M248.236,211.978a11.005,11.005,0,0,1,9.174,10.341,24.033,24.033,0,0,1,10.936,1.817,11.006,11.006,0,0,1,20.856,1.256l4.718-2.355a.913.913,0,0,1,.816,1.633l-5.2,2.6a11.126,11.126,0,0,1-.114,2.766,11,11,0,0,1-21.7-3.635c.029-.167.061-.332.1-.5a21.931,21.931,0,0,0-10.471-1.749c-.02.164-.044.329-.07.494a11,11,0,1,1-20.887-6.332l-4.017-4.1a.912.912,0,0,1,1.3-1.278l3.643,3.716a11,11,0,0,1,10.926-4.678Zm37.8,10.915a9.17,9.17,0,1,0,1.577,6.839,9.141,9.141,0,0,0-1.577-6.839Zm-32.148-5.387a9.17,9.17,0,1,0,1.577,6.84A9.136,9.136,0,0,0,253.885,217.506Z" fill-rule="evenodd"/>
                <path id="Trazado_1217619" data-name="Trazado 1217619" d="M284.523,190.178c2.421-14.141-8.939-17.725-12.731-4.167-5.829,20.829-15.637,48.374-54.365,33.6l-9.013-3.975c9.76-27.533,37.268-56.565,67.738-57.641,9.355-.33,20.383,14.734,21.12,17.134s-.514,10.189-1.35,11.342c0,0-7.706,7.171-8.552,6.839S284.523,190.178,284.523,190.178Z" fill="#0c0e0e" fill-rule="evenodd"/>
                <path id="Trazado_1217620" data-name="Trazado 1217620" d="M214.22,202.76a100.8,100.8,0,0,1,7.943-12.274c13.454,12.1,44.974,3.459,46.323-31.627q1.82-.342,3.658-.556C268.29,193.386,244.951,215.115,214.22,202.76Z" fill="#252626" fill-rule="evenodd"/>
                <path id="Trazado_1217621" data-name="Trazado 1217621" d="M270.5,190.461c-6.052,20.024-17.051,42.893-53.073,29.15l-9.011-3.975a84.827,84.827,0,0,1,3.3-7.969C222.165,213.107,250.847,223.8,270.5,190.461Z" fill-rule="evenodd"/>
                <path id="Trazado_1217622" data-name="Trazado 1217622" d="M335.935,312.8H177.553a3.6,3.6,0,0,0-3.639,4.282l12.1,80.4a5.176,5.176,0,0,0,4.928,4.282H322.54a5.179,5.179,0,0,0,4.928-4.282l12.1-80.4A3.6,3.6,0,0,0,335.935,312.8Z" fill="#0c0e0e" fill-rule="evenodd"/>
                <path id="Trazado_1217623" data-name="Trazado 1217623" d="M271.867,263.671s-3.268,7.844-4.367,9.832-8.383,8.816-8.383,8.816-.228.593,0,.912,11.153,9.285,11.153,9.285.908.638,1.591-.773,4.052-13.34,4.324-16.345-1.366-12.29-1.366-12.29l-2.847-1.594Z" fill="#fff" fill-rule="evenodd"/>
                <path id="Trazado_1217624" data-name="Trazado 1217624" d="M242.233,263.671s3.269,7.844,4.369,9.832,8.381,8.816,8.381,8.816.227.593,0,.912-11.151,9.285-11.151,9.285-.91.638-1.593-.773-4.05-13.34-4.323-16.345.865-10.834.865-10.834l3.349-3.05Z" fill="#fff" fill-rule="evenodd"/>
                <path id="Trazado_1217625" data-name="Trazado 1217625" d="M299.37,187.4c-7.723,10.111-3.817,32.251,11.357,33.833C312.629,210.7,306.2,196.462,299.37,187.4Z" fill="#0c0e0e" fill-rule="evenodd"/>
                <path id="Trazado_1217626" data-name="Trazado 1217626" d="M332.413,316.6H181.076a3.444,3.444,0,0,0-3.477,4.092l11.568,76.821a4.944,4.944,0,0,0,4.707,4.092H319.615a4.944,4.944,0,0,0,4.707-4.092l11.567-76.821A3.444,3.444,0,0,0,332.413,316.6Z" fill="#1c1d1d" fill-rule="evenodd"/>
                <path id="Trazado_1217627" data-name="Trazado 1217627" d="M186.2,377.809l2.967,19.7a4.944,4.944,0,0,0,4.707,4.092H319.614a4.944,4.944,0,0,0,4.707-4.092l11.567-76.821a3.443,3.443,0,0,0-2.237-3.89C316.328,346.684,273.76,395.63,186.2,377.809Z" fill="#0c0e0e" fill-rule="evenodd"/>
                <path id="Trazado_1217628" data-name="Trazado 1217628" d="M256.744,381.18c9.271,0,16.833-6.313,16.833-14.052s-7.563-14.049-16.833-14.049-16.833,6.31-16.833,14.049S247.473,381.18,256.744,381.18Z" fill="#0c0e0e" fill-rule="evenodd"/>
                <path id="Trazado_1217629" data-name="Trazado 1217629" d="M256.744,356.45a13.423,13.423,0,0,1,11.042,5.289l-19.571,13.347a9.983,9.983,0,0,1-4.262-7.958c0-5.895,5.727-10.678,12.791-10.678Zm10.391,16.9-5.878-3.234-9.8,6.73a14.892,14.892,0,0,0,5.288.954A13.691,13.691,0,0,0,267.135,373.355Z" fill="#fff" fill-rule="evenodd"/>
                <path id="Trazado_1217630" data-name="Trazado 1217630" d="M207.315,290.744a141.023,141.023,0,0,1-26.219,1.4c-26.349-.722-41.37-7.7-39.889-30.308-2.7,11.588-2.255,21.852,4.887,27.939,11.988,8.643,39.044,14.446,58.069,16.518.444-2.168.9-4.373,1.368-6.562C206.126,296.653,206.729,293.609,207.315,290.744Z" fill="#ebf2f8" fill-rule="evenodd"/>
              </g>
              <g id="Grupo_1228422" data-name="Grupo 1228422" transform="translate(1531.387 6534)">
                <path id="Trazado_1217632" data-name="Trazado 1217632" d="M112.279,404.572H363.37c3.667,0,6.667,3.436,6.667,7.635h0c0,4.2-3,7.64-6.667,7.64H112.279c-3.665,0-6.666-3.437-6.666-7.64h0C105.613,408.009,108.613,404.572,112.279,404.572Z" transform="translate(0)" fill="#be865e" fill-rule="evenodd"/>
                <rect id="Rect치ngulo_422464" data-name="Rect치ngulo 422464" width="15.894" height="15.274" transform="translate(263.189 404.572)" fill="#915e40"/>
                <rect id="Rect치ngulo_422465" data-name="Rect치ngulo 422465" width="8.255" height="15.274" transform="translate(284.814 404.572)" fill="#915e40"/>
                <rect id="Rect치ngulo_422466" data-name="Rect치ngulo 422466" width="4.127" height="15.274" transform="translate(299.929 404.572)" fill="#915e40"/>
                <rect id="Rect치ngulo_422467" data-name="Rect치ngulo 422467" width="17.775" height="15.274" transform="translate(308.475 404.572)" fill="#915e40"/>
                <rect id="Rect치ngulo_422468" data-name="Rect치ngulo 422468" width="8.888" height="15.274" transform="translate(339.61 404.572)" fill="#915e40"/>
                <path id="Trazado_1217633" data-name="Trazado 1217633" d="M113.867,407.053h139.8a4.553,4.553,0,0,1,4.539,4.538h0a4.553,4.553,0,0,1-4.539,4.54h-139.8a4.552,4.552,0,0,1-4.538-4.54h0A4.553,4.553,0,0,1,113.867,407.053Z" fill="#d49d80" fill-rule="evenodd"/>
              </g>
            </g>
          </g>
        </g>
        <g id="Grupo_1228401" data-name="Grupo 1228401" transform="translate(408.471 8378.035)" clip-path="url(#clip-path-2)">
          <path id="Trazado_1217461" data-name="Trazado 1217461" d="M106.275,54.839a2.179,2.179,0,0,0-3.04,3.121l.1.1a1.191,1.191,0,0,1-1.661,1.708,0,0,0,0,0,0,0h0l0,0,0,0,0,0s0,0,0,0l-2.5-2.5a2.178,2.178,0,0,0-3.081,3.081l2.485,2.485a1.191,1.191,0,1,1-1.682,1.687l-4.87-4.87a2.178,2.178,0,0,0-3.081,3.081L93.8,67.593a1.191,1.191,0,1,1-1.682,1.687L80.2,57.36a2.178,2.178,0,0,0-3.081,3.081L95,78.317a1.19,1.19,0,0,1-.658,2.018L82.392,82.213a2.948,2.948,0,0,0-2.533,2.9,1.192,1.192,0,0,0,1.191,1.191h22.466a10.651,10.651,0,0,0,7.582-3.14l3.748-3.748a10.708,10.708,0,0,0,.35-14.775Z" transform="translate(-67.946 -48.185)" fill="#fff"/>
          <path id="Trazado_1217462" data-name="Trazado 1217462" d="M106.275,54.839a2.179,2.179,0,0,0-3.04,3.121l.1.1a1.191,1.191,0,0,1-1.661,1.708,0,0,0,0,0,0,0h0l0,0,0,0,0,0s0,0,0,0l-2.5-2.5a2.178,2.178,0,0,0-3.081,3.081l2.485,2.485a1.191,1.191,0,1,1-1.682,1.687l-4.87-4.87a2.178,2.178,0,0,0-3.081,3.081L93.8,67.593a1.191,1.191,0,1,1-1.682,1.687L80.2,57.36a2.178,2.178,0,0,0-3.081,3.081L95,78.317a1.19,1.19,0,0,1-.658,2.018L82.392,82.213a2.948,2.948,0,0,0-2.533,2.9,1.192,1.192,0,0,0,1.191,1.191h22.466a10.651,10.651,0,0,0,7.582-3.14l3.748-3.748a10.708,10.708,0,0,0,.35-14.775Z" transform="translate(-67.946 -48.185)" fill="none" stroke="#000" stroke-miterlimit="10" stroke-width="1"/>
          <path id="Trazado_1217463" data-name="Trazado 1217463" d="M89.045,34.3a4.561,4.561,0,0,0-6.45.014,4.459,4.459,0,0,0-1.153,1.97,4.564,4.564,0,0,0-7.15,2.38,4.566,4.566,0,0,0-5.992.415A4.509,4.509,0,0,0,67.156,41l-4.222-4.222a4.561,4.561,0,0,0-6.45,6.45L72.705,59.448l-9.621,1.511a5.337,5.337,0,0,0-4.56,5.258A3.578,3.578,0,0,0,62.1,69.791H84.564a13.018,13.018,0,0,0,9.266-3.838l3.748-3.748A13.088,13.088,0,0,0,98,44.143Zm6.848,26.223-3.748,3.748a10.651,10.651,0,0,1-7.582,3.14H62.1a1.192,1.192,0,0,1-1.191-1.191,2.948,2.948,0,0,1,2.533-2.9l11.949-1.878a1.19,1.19,0,0,0,.658-2.018L58.169,41.543a2.178,2.178,0,0,1,3.081-3.081l11.92,11.92A1.191,1.191,0,1,0,74.852,48.7l-4.868-4.868a2.178,2.178,0,0,1,3.081-3.081l4.87,4.87a1.191,1.191,0,1,0,1.682-1.687l-2.485-2.485a2.178,2.178,0,0,1,3.081-3.081l2.5,2.5s0,0,0,0l0,0,0,0,0,0h0a0,0,0,0,1,0,0,1.191,1.191,0,0,0,1.661-1.708l-.1-.1a2.179,2.179,0,0,1,3.04-3.121l8.921,9.8a10.708,10.708,0,0,1-.35,14.775" transform="translate(-48.993 -29.287)"/>
          <path id="Trazado_1217464" data-name="Trazado 1217464" d="M7.3,18.31A8.329,8.329,0,1,1,18.311,7.3a1.191,1.191,0,1,0,2.17-.981A10.711,10.711,0,1,0,6.321,20.483,1.192,1.192,0,1,0,7.3,18.31" transform="translate(0)"/>
        </g>
        <g id="nueva-cuenta" transform="translate(352.918 8261.56)">
          <path id="Trazado_1223787" data-name="Trazado 1223787" d="M50.495,17.51a1.8,1.8,0,0,0-3.315,1.405,21.291,21.291,0,0,1,1.657,8.3,21.577,21.577,0,0,1-7.35,16.195A12.671,12.671,0,0,0,33.9,33.6a9.908,9.908,0,1,0-13.367,0,12.671,12.671,0,0,0-7.584,9.818A21.586,21.586,0,0,1,27.22,5.6a21.291,21.291,0,0,1,8.3,1.657A1.8,1.8,0,1,0,36.93,3.946,24.727,24.727,0,0,0,27.22,2,25.22,25.22,0,1,0,52.44,27.22a24.727,24.727,0,0,0-1.946-9.71Zm-23.275,2.5a6.305,6.305,0,1,1-6.305,6.305A6.312,6.312,0,0,1,27.22,20.014Zm-10.809,25.9v-.685a9.011,9.011,0,0,1,9.007-9.007h3.6a9.011,9.011,0,0,1,9.007,9.007v.685a21.475,21.475,0,0,1-21.617,0Z" fill="#fff"/>
          <path id="Trazado_1223788" data-name="Trazado 1223788" d="M23.8,11.206h1.8v1.8a1.8,1.8,0,0,0,3.6,0v-1.8h1.8a1.8,1.8,0,1,0,0-3.6h-1.8V5.8a1.8,1.8,0,0,0-3.6,0V7.6H23.8a1.8,1.8,0,1,0,0,3.6Z" transform="translate(16.029 1.603)" fill="#fff"/>
        </g>
        <g id="Icon" transform="translate(536.221 8244.113)">
          <path id="Trazado_1223789" data-name="Trazado 1223789" d="M24.211,30.863H5.47a.5.5,0,0,1-.35-.146.492.492,0,0,1-.146-.35v-3.6c0-2.063,1.472-3.88,3.741-5.424,4.051-2.765,10.607-4.508,17.979-4.508,1.216,0,2.41.05,3.577.141a1.861,1.861,0,1,0,.293-3.711q-1.892-.153-3.87-.154c-8.246,0-15.547,2.063-20.079,5.153-3.458,2.358-5.364,5.354-5.364,8.5v3.6a4.216,4.216,0,0,0,4.22,4.217c5,0,18.741,0,18.741,0a1.862,1.862,0,1,0,0-3.723Z" transform="translate(0 17.583)" fill-rule="evenodd"/>
          <path id="Trazado_1223790" data-name="Trazado 1223790" d="M19.653,1.25A13.653,13.653,0,1,0,33.305,14.9,13.658,13.658,0,0,0,19.653,1.25Zm0,3.723A9.929,9.929,0,1,1,9.723,14.9,9.933,9.933,0,0,1,19.653,4.973Z" transform="translate(7.041 0)" fill-rule="evenodd"/>
          <path id="Trazado_1223791" data-name="Trazado 1223791" d="M26.9,32a9.933,9.933,0,1,0-8.341-8.338S12.8,29.427,12.8,29.427a1.864,1.864,0,0,0-.546,1.318v5.707a1.862,1.862,0,0,0,1.862,1.862h5.707a1.864,1.864,0,0,0,1.318-.546Zm-.129-3.823a1.86,1.86,0,0,0-1.795.482L19.049,34.59H15.973V31.514L21.9,25.587a1.86,1.86,0,0,0,.482-1.795,6.21,6.21,0,1,1,4.389,4.389Z" transform="translate(16.305 16.306)" fill-rule="evenodd"/>
          <path id="Trazado_1223792" data-name="Trazado 1223792" d="M18.452,19.761a2.691,2.691,0,1,1,3.805,0,2.692,2.692,0,0,1-3.805,0Z" transform="translate(24.332 20.63)" fill-rule="evenodd"/>
        </g>
        <g id="soporte-tecnico" transform="translate(841.116 8237.337)">
          <path id="Trazado_1223793" data-name="Trazado 1223793" d="M194.568,15.3h-.622a17.365,17.365,0,0,0-1.535-3.7l.442-.442a2.693,2.693,0,0,0,0-3.8l-2.947-2.944a2.686,2.686,0,0,0-3.8,0l-.442.442a17.3,17.3,0,0,0-3.7-1.538V2.688A2.691,2.691,0,0,0,179.27,0H175.1a2.691,2.691,0,0,0-2.688,2.688V3.31a17.352,17.352,0,0,0-3.707,1.538l-.44-.44a2.687,2.687,0,0,0-3.8,0l-2.947,2.947a2.693,2.693,0,0,0,0,3.8l.442.442a17.278,17.278,0,0,0-1.536,3.7H159.8a2.691,2.691,0,0,0-2.688,2.688v4.171a2.691,2.691,0,0,0,2.688,2.688h.625a17.283,17.283,0,0,0,1.536,3.7l-.442.442a2.693,2.693,0,0,0,0,3.8l2.945,2.945a2.662,2.662,0,0,0,1.9.79h0a2.661,2.661,0,0,0,1.9-.787l.442-.442a17.268,17.268,0,0,0,3.707,1.536v.624a2.691,2.691,0,0,0,2.688,2.688h4.167a2.691,2.691,0,0,0,2.688-2.688v-.624a17.212,17.212,0,0,0,3.7-1.536l.439.439a2.686,2.686,0,0,0,3.8,0l2.951-2.948a2.693,2.693,0,0,0,0-3.8l-.442-.442a17.371,17.371,0,0,0,1.535-3.7h.622a2.691,2.691,0,0,0,2.688-2.688V17.987a2.691,2.691,0,0,0-2.688-2.688ZM179.559,37.457a.294.294,0,0,1-.29.29H175.1a.294.294,0,0,1-.29-.29V28.341a1.2,1.2,0,0,0-.782-1.124A8.213,8.213,0,0,1,172.254,12.7c.1-.069.191-.126.27-.172,0,.156-.015.3-.021.381-.009.122-.016.218-.016.313v5.659a4.961,4.961,0,0,0,4.621,4.939,1.21,1.21,0,0,0,.159,0,4.96,4.96,0,0,0,4.617-4.939V13.225c0-.095-.007-.19-.016-.311-.006-.078-.017-.227-.021-.383.078.046.167.1.268.172a8.214,8.214,0,0,1-1.773,14.514,1.2,1.2,0,0,0-.782,1.124v9.116Zm15.3-15.3a.3.3,0,0,1-.29.29h-1.553a1.2,1.2,0,0,0-1.169.934,15,15,0,0,1-1.955,4.716,1.2,1.2,0,0,0,.166,1.489l1.1,1.1a.295.295,0,0,1,0,.408l-2.953,2.95a.288.288,0,0,1-.406,0l-1.1-1.1a1.2,1.2,0,0,0-1.49-.165,14.877,14.877,0,0,1-3.251,1.544V29.138a10.61,10.61,0,0,0,1.51-18.416c-.447-.305-1.8-1.234-2.992-.55-1.166.672-1.05,2.246-1,2.918,0,.058.009.107.009.135v5.659a2.311,2.311,0,1,1-4.6,0V13.234c0-.036.005-.085.01-.144.05-.672.167-2.245-1-2.917-1.187-.685-2.547.244-2.995.549a10.609,10.609,0,0,0,1.514,18.417V34.32a14.956,14.956,0,0,1-3.255-1.544,1.2,1.2,0,0,0-1.489.166l-1.1,1.1a.288.288,0,0,1-.406,0L163.214,31.1a.295.295,0,0,1,0-.408l1.1-1.1a1.2,1.2,0,0,0,.166-1.489,14.92,14.92,0,0,1-1.954-4.714,1.2,1.2,0,0,0-1.17-.937H159.8a.3.3,0,0,1-.29-.29V17.987a.294.294,0,0,1,.29-.29h1.557a1.2,1.2,0,0,0,1.17-.937,14.916,14.916,0,0,1,1.954-4.714,1.2,1.2,0,0,0-.166-1.489l-1.1-1.1a.295.295,0,0,1,0-.408l2.949-2.95a.288.288,0,0,1,.406,0l1.1,1.1a1.2,1.2,0,0,0,1.489.166,14.989,14.989,0,0,1,4.719-1.958,1.2,1.2,0,0,0,.935-1.17V2.688a.294.294,0,0,1,.29-.29h4.167a.294.294,0,0,1,.29.29V4.241a1.2,1.2,0,0,0,.935,1.17,14.929,14.929,0,0,1,4.714,1.958A1.2,1.2,0,0,0,186.7,7.2l1.1-1.1a.288.288,0,0,1,.406,0l2.95,2.947a.295.295,0,0,1,0,.408l-1.1,1.1a1.2,1.2,0,0,0-.166,1.489,15,15,0,0,1,1.955,4.716,1.2,1.2,0,0,0,1.169.934h1.553a.294.294,0,0,1,.29.29v4.171Z" transform="translate(-120.569 0)"/>
          <path id="Trazado_1223794" data-name="Trazado 1223794" d="M380.208,437.738a1.2,1.2,0,1,0,1.7,1.7l0,0a1.2,1.2,0,0,0-1.7-1.693Z" transform="translate(-316.604 -384.939)"/>
          <path id="Trazado_1223795" data-name="Trazado 1223795" d="M69.159,333.6l-9.52,4.889a4.421,4.421,0,0,0-3.189-1.357H49.928a1.8,1.8,0,0,1-.46-.031,3.513,3.513,0,0,1-.354-.311l-.059-.056c-5.277-4.968-9.735-4.653-14.8-2.652a3.45,3.45,0,0,1-1.66.36H31.115a3.189,3.189,0,0,0-3.023-2.185H23.3a3.186,3.186,0,0,0-3.181,3.184v12.587A3.184,3.184,0,0,0,23.3,351.2h4.8a3.189,3.189,0,0,0,3.022-2.182h2.7a1.276,1.276,0,0,1,.515.078c.1.028.223.063.382.106l12.41,3.32c.547.148,1.049.293,1.534.434a15.641,15.641,0,0,0,4.32.848,9.481,9.481,0,0,0,5.386-1.938l.031-.021,2.369-1.689a1.2,1.2,0,1,0-1.392-1.953l-2.353,1.678c-3.142,2.09-4.476,1.7-7.693.772-.5-.144-1.008-.292-1.579-.446l-12.411-3.32c-.145-.039-.259-.071-.353-.1a3.341,3.341,0,0,0-1.166-.168H31.277v-9.788h1.347l.068,0a5.621,5.621,0,0,0,2.438-.525c4.452-1.757,7.889-1.966,12.281,2.169l.059.056a2.9,2.9,0,0,0,2.457.993h6.523a2.038,2.038,0,0,1,1.781,1.051l.012.021a2.033,2.033,0,0,1-1.793,3H45.88a1.2,1.2,0,1,0,0,2.4H56.451a4.429,4.429,0,0,0,4.327-5.4l9.476-4.867A1.929,1.929,0,1,1,72.3,339l-4.157,2.961a1.2,1.2,0,1,0,1.391,1.954l4.157-2.961a4.321,4.321,0,0,0-4.531-7.356Zm-40.28,14.428a.8.8,0,0,1-.786.783H23.3a.793.793,0,0,1-.783-.783V335.437a.785.785,0,0,1,.783-.786h4.8a.8.8,0,0,1,.786.786Z" transform="translate(0 -292.412)"/>
        </g>
        <g id="xml" transform="translate(1036.971 8250.479)">
          <path id="Trazado_1223796" data-name="Trazado 1223796" d="M46.75,11.036,45.518,9.8,36.911,1.2h0l-.7-.7a1.691,1.691,0,0,0-1.2-.5H8.73A2.347,2.347,0,0,0,6.5,2.65V50.71a2.073,2.073,0,0,0,1.663,1.729c.046.013.091.03.138.039a2.207,2.207,0,0,0,.43.043H45.019a2.207,2.207,0,0,0,.43-.043c.047-.009.091-.026.138-.039a2.073,2.073,0,0,0,1.663-1.729V12.658A2.086,2.086,0,0,0,46.75,11.036ZM36.383,3.228l7.638,7.638H36.383ZM8.73,50.71a.5.5,0,0,1-.179-.044.416.416,0,0,1-.24-.375V37.127H45.438V50.291a.416.416,0,0,1-.24.375.5.5,0,0,1-.179.044ZM8.311,35.316V2.65c0-.2.03-.839.419-.839H34.624a1.394,1.394,0,0,0-.053.354V12.677H45.083a1.394,1.394,0,0,0,.354-.053c0,.014,0,.019,0,.033V35.316Z" fill="#fff"/>
          <path id="Trazado_1223797" data-name="Trazado 1223797" d="M20.687,43.924l-1.746,3.714h-.124l-1.609-3.714h-1.7l2.463,4.692-2.315,4.433h1.721l1.56-3.442h.124l1.448,3.442h1.721l-2.315-4.433,2.464-4.692Z" transform="translate(-0.851 -4.149)" fill="#fff"/>
          <path id="Trazado_1223798" data-name="Trazado 1223798" d="M29.578,50.163l-2.712-6.239h-1.51v9.124h1.51V46.771l2.056,5.076h1.312l2.043-5.076v6.277h1.51V43.924h-1.51Z" transform="translate(-1.781 -4.149)" fill="#fff"/>
          <path id="Trazado_1223799" data-name="Trazado 1223799" d="M38.705,43.924h-1.51v9.124H42.9V51.922h-4.2Z" transform="translate(-2.9 -4.149)" fill="#fff"/>
          <path id="Trazado_1223800" data-name="Trazado 1223800" d="M22.479,17.265a.9.9,0,0,0-1.28,0L15.765,22.7a.9.9,0,0,0,0,1.28L21.2,29.412a.905.905,0,1,0,1.28-1.28l-4.793-4.793,4.793-4.793A.9.9,0,0,0,22.479,17.265Z" transform="translate(-0.85 -1.606)" fill="#fff"/>
          <path id="Trazado_1223801" data-name="Trazado 1223801" d="M35.046,17.265a.905.905,0,1,0-1.28,1.28l4.793,4.793-4.793,4.793a.905.905,0,1,0,1.28,1.28l5.433-5.433a.9.9,0,0,0,0-1.28Z" transform="translate(-2.551 -1.606)" fill="#fff"/>
          <path id="Trazado_1223802" data-name="Trazado 1223802" d="M31.14,14.052a.9.9,0,0,0-1.155.552L24.552,30a.906.906,0,0,0,1.708.6l5.433-15.394A.905.905,0,0,0,31.14,14.052Z" transform="translate(-1.7 -1.322)" fill="#fff"/>
        </g>
      </g>
    </g>
    <g id="Grupo_1219563" data-name="Grupo 1219563" transform="translate(1135.463 8389.945)">
      <path id="Trazado_1092083" data-name="Trazado 1092083" d="M262.2,236.845v-3.97h-7.374V230.34l6.3-10.14h4.764v9.757h2v2.918h-2v3.97H262.2Zm0-6.888V226.27c0-1,.051-2.022.127-3.1h-.1c-.537,1.074-.974,2.049-1.538,3.1l-2.227,3.636v.051Z" transform="translate(-254.826 -220.2)" fill="#fff"/>
    </g>
  </g>
</svg>
