<svg xmlns="http://www.w3.org/2000/svg" xmlns:xlink="http://www.w3.org/1999/xlink" width="190" height="173" viewBox="0 0 190 173">
  <defs>
    <clipPath id="clip-path">
      <rect id="Rectángulo_423701" data-name="Rectángulo 423701" width="190" height="173" transform="translate(180 12580)" fill="#fff" stroke="#707070" stroke-width="1"/>
    </clipPath>
    <linearGradient id="linear-gradient" x1="0.414" y1="0.2" x2="0.515" y2="0.687" gradientUnits="objectBoundingBox">
      <stop offset="0" stop-color="#ff9085"/>
      <stop offset="1" stop-color="#fb6fbb"/>
    </linearGradient>
    <clipPath id="clip-path-2">
      <path id="Trazado_1224568" data-name="Trazado 1224568" d="M477.567,625.893a12.417,12.417,0,0,0,5.52-1.959c4.793-4.589,14.325-12.6,14.9-19.59.1-1.194-5.038-3.044-5.625-4.236-2.988-1.974-4.147-2.474-6.066-5.746-5.665-9.661,12.376-23.734-5.111-32.061-12.809-6.1-24.786-3.087-20.393-23.693s-6.729-60.867-30.762-49.468c-13.793,6.542-3.5,26.054-11.841,38.187-7.925,11.529-4.116,22.486,8.005,31.8s4.27,14.037-1.231,25.281c-6.609,13.507,14.816,19.105,24.928,20.846C458.034,606.656,477.823,615.719,477.567,625.893Z" transform="translate(-414.032 -487.146)"/>
    </clipPath>
    <linearGradient id="linear-gradient-2" x1="0.741" y1="0.405" x2="1.282" y2="-0.157" gradientUnits="objectBoundingBox">
      <stop offset="0" stop-color="#ffc444"/>
      <stop offset="0.996" stop-color="#f36f56"/>
    </linearGradient>
    <clipPath id="clip-path-3">
      <path id="Trazado_1224575" data-name="Trazado 1224575" d="M888.085,662.164c5.75-4.317,6.482-15.208,4.832-22.454-1.927-8.46-6.329-8.557-7.316-15.253-1.837-12.468,12.669-17.244,11.813-29.964-.7-10.4-10.659-11.152-10.909-22.7-.181-8.335,4.918-11.949,2.37-19.151-.218-.616-2.662-7.223-8.407-8.616-5.8-1.406-11.566,3.322-14.378,7.077-5.2,6.94-1.064,11.591-4.2,22.079-4.276,14.279-14.468,14.111-15.444,25.276-.806,9.22,5.958,11.46,4.862,21.665-1.018,9.476-7.221,10.987-7.295,17.428C843.839,652.364,876.357,670.97,888.085,662.164Z" transform="translate(-844.009 -543.77)"/>
    </clipPath>
    <linearGradient id="linear-gradient-3" x1="0.491" y1="0.225" x2="0.5" y2="0.781" gradientUnits="objectBoundingBox">
      <stop offset="0" stop-color="#444b8c"/>
      <stop offset="0.996" stop-color="#26264f"/>
    </linearGradient>
    <linearGradient id="linear-gradient-4" x1="0.57" y1="0.933" x2="0.212" y2="-1.046" xlink:href="#linear-gradient-3"/>
    <linearGradient id="linear-gradient-5" x1="0.777" y1="-0.056" x2="0.286" y2="0.891" gradientUnits="objectBoundingBox">
      <stop offset="0" stop-color="#fff"/>
      <stop offset="0.996" stop-color="#ebeff2"/>
    </linearGradient>
    <linearGradient id="linear-gradient-6" x1="0" y1="0.5" x2="1" y2="0.5" xlink:href="#linear-gradient-3"/>
    <linearGradient id="linear-gradient-7" x1="1.089" y1="1.187" x2="0.029" y2="-0.038" gradientUnits="objectBoundingBox">
      <stop offset="0" stop-color="#311944"/>
      <stop offset="1" stop-color="#893976"/>
    </linearGradient>
    <linearGradient id="linear-gradient-8" x1="0.634" y1="-1.126" x2="0.063" y2="5.814" xlink:href="#linear-gradient-2"/>
    <linearGradient id="linear-gradient-9" x1="0.085" y1="-1.147" x2="1.007" y2="2.568" gradientUnits="objectBoundingBox">
      <stop offset="0.004" stop-color="#e38ddd"/>
      <stop offset="1" stop-color="#9571f6"/>
    </linearGradient>
    <linearGradient id="linear-gradient-10" x1="-0.634" y1="-1.929" x2="2.275" y2="4.302" gradientUnits="objectBoundingBox">
      <stop offset="0" stop-color="#aa80f9"/>
      <stop offset="0.996" stop-color="#6165d7"/>
    </linearGradient>
    <linearGradient id="linear-gradient-11" x1="-0.956" y1="-2.545" x2="1.993" y2="3.623" xlink:href="#linear-gradient-10"/>
    <linearGradient id="linear-gradient-12" x1="-1.285" y1="-3.151" x2="1.702" y2="2.958" xlink:href="#linear-gradient-10"/>
    <linearGradient id="linear-gradient-13" x1="0.21" y1="0.022" x2="0.984" y2="1.312" xlink:href="#linear-gradient"/>
    <linearGradient id="linear-gradient-14" x1="0.201" y1="0.023" x2="1.194" y2="1.294" xlink:href="#linear-gradient-5"/>
    <linearGradient id="linear-gradient-15" x1="0.73" y1="0.758" x2="-0.115" y2="-0.571" xlink:href="#linear-gradient-5"/>
    <linearGradient id="linear-gradient-16" x1="0" y1="0.5" x2="1" y2="0.5" xlink:href="#linear-gradient"/>
    <linearGradient id="linear-gradient-17" x1="0.837" y1="0.789" x2="-0.181" y2="-0.508" xlink:href="#linear-gradient"/>
    <linearGradient id="linear-gradient-18" x1="0.708" y1="0.806" x2="1.533" y2="2.913" xlink:href="#linear-gradient-2"/>
    <linearGradient id="linear-gradient-19" x1="0.91" y1="1.393" x2="1.74" y2="3.374" xlink:href="#linear-gradient-2"/>
    <linearGradient id="linear-gradient-20" x1="-0.513" y1="-1.509" x2="1.456" y2="1.845" xlink:href="#linear-gradient-2"/>
    <linearGradient id="linear-gradient-21" x1="0.143" y1="-0.724" x2="1.319" y2="3.619" xlink:href="#linear-gradient-2"/>
    <linearGradient id="linear-gradient-22" x1="1.447" y1="0.729" x2="0.141" y2="0.29" gradientUnits="objectBoundingBox">
      <stop offset="0" stop-color="#444b8c"/>
      <stop offset="0.996" stop-color="#3e4177"/>
    </linearGradient>
    <linearGradient id="linear-gradient-23" x1="1.653" y1="0.729" x2="0.161" y2="0.29" xlink:href="#linear-gradient-22"/>
    <linearGradient id="linear-gradient-24" x1="0.568" y1="0.498" x2="-0.877" y2="0.393" xlink:href="#linear-gradient-22"/>
    <linearGradient id="linear-gradient-25" x1="0.414" y1="-0.177" x2="0.651" y2="0.869" gradientUnits="objectBoundingBox">
      <stop offset="0" stop-color="#ab316d"/>
      <stop offset="1" stop-color="#792d3d"/>
    </linearGradient>
    <linearGradient id="linear-gradient-26" x1="0.419" y1="0.469" x2="0.688" y2="1.605" xlink:href="#linear-gradient-2"/>
    <linearGradient id="linear-gradient-27" x1="-0.966" y1="21.223" x2="-0.239" y2="22.846" xlink:href="#linear-gradient-2"/>
    <linearGradient id="linear-gradient-28" x1="64.766" y1="141.939" x2="73.238" y2="152.556" xlink:href="#linear-gradient-2"/>
    <linearGradient id="linear-gradient-29" x1="0.285" y1="-0.718" x2="0.59" y2="0.884" xlink:href="#linear-gradient-25"/>
    <linearGradient id="linear-gradient-30" x1="0.491" y1="0.494" x2="0.209" y2="0.514" xlink:href="#linear-gradient-3"/>
    <linearGradient id="linear-gradient-31" x1="0.712" y1="0.029" x2="0.032" y2="1.523" xlink:href="#linear-gradient-3"/>
    <linearGradient id="linear-gradient-32" x1="0.378" y1="0.776" x2="0.641" y2="0.171" gradientUnits="objectBoundingBox">
      <stop offset="0.494" stop-color="#ebeff2"/>
      <stop offset="1" stop-color="#fff"/>
    </linearGradient>
    <linearGradient id="linear-gradient-33" x1="1.225" y1="-1.513" x2="-27.91" y2="79.435" xlink:href="#linear-gradient-7"/>
    <linearGradient id="linear-gradient-34" x1="-0.241" y1="-0.035" x2="-1.036" y2="1.167" xlink:href="#linear-gradient"/>
    <linearGradient id="linear-gradient-35" x1="0.694" y1="-2.873" x2="0.19" y2="5.886" xlink:href="#linear-gradient-9"/>
    <linearGradient id="linear-gradient-36" x1="0.694" y1="-2.872" x2="0.19" y2="5.885" xlink:href="#linear-gradient-9"/>
    <linearGradient id="linear-gradient-37" x1="0.694" y1="-2.872" x2="0.19" y2="5.885" xlink:href="#linear-gradient-9"/>
    <linearGradient id="linear-gradient-38" x1="-1.405" y1="0.018" x2="-0.472" y2="1.28" xlink:href="#linear-gradient-5"/>
    <linearGradient id="linear-gradient-39" x1="-0.982" y1="0.748" x2="-1.774" y2="-0.571" xlink:href="#linear-gradient-5"/>
    <linearGradient id="linear-gradient-40" x1="0.104" y1="0.015" x2="1.167" y2="1.006" xlink:href="#linear-gradient"/>
    <linearGradient id="linear-gradient-41" x1="-2.646" y1="0.772" x2="-3.603" y2="-0.518" xlink:href="#linear-gradient"/>
  </defs>
  <g id="Enmascarar_grupo_1208532" data-name="Enmascarar grupo 1208532" transform="translate(-180 -12580)" clip-path="url(#clip-path)">
    <g id="Illustration" transform="translate(-225.556 12093.318)">
      <g id="Grupo_1234732" data-name="Grupo 1234732" transform="translate(414.032 487.146)">
        <g id="Grupo_1234704" data-name="Grupo 1234704" transform="translate(0 0)">
          <g id="Grupo_1234703" data-name="Grupo 1234703">
            <g id="Grupo_1234702" data-name="Grupo 1234702">
              <path id="Trazado_1224562" data-name="Trazado 1224562" d="M477.567,625.893a12.417,12.417,0,0,0,5.52-1.959c4.793-4.589,14.325-12.6,14.9-19.59.1-1.194-5.038-3.044-5.625-4.236-2.988-1.974-4.147-2.474-6.066-5.746-5.665-9.661,12.376-23.734-5.111-32.061-12.809-6.1-24.786-3.087-20.393-23.693s-6.729-60.867-30.762-49.468c-13.793,6.542-3.5,26.054-11.841,38.187-7.925,11.529-4.116,22.486,8.005,31.8s4.27,14.037-1.231,25.281c-6.609,13.507,14.816,19.105,24.928,20.846C458.034,606.656,477.823,615.719,477.567,625.893Z" transform="translate(-414.032 -487.146)" fill="url(#linear-gradient)"/>
              <g id="Grupo_1234701" data-name="Grupo 1234701" opacity="0.7" clip-path="url(#clip-path-2)">
                <g id="Grupo_1234700" data-name="Grupo 1234700" transform="translate(-2.624 -3.535)">
                  <path id="Trazado_1224563" data-name="Trazado 1224563" d="M817.982,559.573l.179-.265c-40.883-27.633-60.941-76.527-53.655-130.793l-.318-.043c-3.453,25.718-.627,51.2,8.171,73.684A122.865,122.865,0,0,0,817.982,559.573Z" transform="translate(-739.121 -428.472)" fill="#fcfdfe"/>
                  <path id="Trazado_1224564" data-name="Trazado 1224564" d="M538.3,2171.453c13.288-2.365,34.541.534,47.377,6.462l.134-.291c-12.886-5.951-34.225-8.861-47.567-6.487Z" transform="translate(-528.133 -2065.357)" fill="#fcfdfe"/>
                  <path id="Trazado_1224565" data-name="Trazado 1224565" d="M1460.736,1774.06l.246-.205c-4.71-5.642-6.386-13.448-4.983-23.2,1.029-7.152,3.658-15.164,7.817-23.816l-.289-.139c-4.172,8.681-6.812,16.725-7.845,23.909C1454.265,1760.454,1455.966,1768.345,1460.736,1774.06Z" transform="translate(-1389.84 -1648.475)" fill="#fcfdfe"/>
                  <path id="Trazado_1224566" data-name="Trazado 1224566" d="M402.592,1319.75l.256-.193c-8.331-11.091-22.168-15.7-32.31-17.622l-.059.315C380.565,1304.158,394.323,1308.741,402.592,1319.75Z" transform="translate(-370.479 -1249.306)" fill="#fcfdfe"/>
                  <path id="Trazado_1224567" data-name="Trazado 1224567" d="M780.081,553.295l.32.022c1.07-15.59,11.878-27.928,18.225-33.9l-.219-.234C792.025,525.186,781.159,537.6,780.081,553.295Z" transform="translate(-755.401 -513.721)" fill="#fcfdfe"/>
                </g>
              </g>
            </g>
          </g>
        </g>
        <g id="Grupo_1234712" data-name="Grupo 1234712" transform="translate(25.908 3.412)">
          <g id="Grupo_1234711" data-name="Grupo 1234711">
            <path id="Trazado_1224569" data-name="Trazado 1224569" d="M888.085,662.164c5.75-4.317,6.482-15.208,4.832-22.454-1.927-8.46-6.329-8.557-7.316-15.253-1.837-12.468,12.669-17.244,11.813-29.964-.7-10.4-10.659-11.152-10.909-22.7-.181-8.335,4.918-11.949,2.37-19.151-.218-.616-2.662-7.223-8.407-8.616-5.8-1.406-11.566,3.322-14.378,7.077-5.2,6.94-1.064,11.591-4.2,22.079-4.276,14.279-14.468,14.111-15.444,25.276-.806,9.22,5.958,11.46,4.862,21.665-1.018,9.476-7.221,10.987-7.295,17.428C843.839,652.364,876.357,670.97,888.085,662.164Z" transform="translate(-844.009 -543.77)" fill="url(#linear-gradient-2)"/>
            <g id="Grupo_1234710" data-name="Grupo 1234710" clip-path="url(#clip-path-3)">
              <g id="Grupo_1234705" data-name="Grupo 1234705" transform="translate(14.74 -3.383)" opacity="0.7">
                <path id="Trazado_1224570" data-name="Trazado 1224570" d="M1109.7,616.515a.119.119,0,0,1-.057-.015,42.62,42.62,0,0,1-13.99-12.2c-3.5-4.767-7.114-9.7-7.018-15.983.073-4.775,2.222-7.394,4.943-10.709a37.512,37.512,0,0,0,8-14.35c1.223-4.119,2.745-9.246,1.278-15.295a18.341,18.341,0,0,0-3.565-7.2c-1.317-1.791-2.455-3.337-2.326-6.041.207-4.352,2.451-7.2,5.05-10.5a43.137,43.137,0,0,0,4.633-6.769c3.971-7.539,3.793-17.522-.531-29.67a.12.12,0,0,1,.225-.08c4.347,12.214,4.521,22.261.517,29.862a43.309,43.309,0,0,1-4.656,6.806c-2.573,3.266-4.795,6.087-5,10.362-.125,2.619.936,4.062,2.28,5.888a18.54,18.54,0,0,1,3.6,7.286c1.483,6.112-.05,11.272-1.281,15.419a37.719,37.719,0,0,1-8.043,14.434c-2.692,3.279-4.818,5.869-4.889,10.561-.094,6.206,3.5,11.1,6.972,15.838a42.384,42.384,0,0,0,13.913,12.135.12.12,0,0,1-.058.224Z" transform="translate(-1088.637 -487.621)" fill="#fff"/>
              </g>
              <g id="Grupo_1234706" data-name="Grupo 1234706" transform="translate(29.456 28.941)" opacity="0.7">
                <path id="Trazado_1224571" data-name="Trazado 1224571" d="M1332.985,1055.1a.12.12,0,0,1-.082-.206c9.117-8.639,13.285-16.53,15.176-21.628a26.344,26.344,0,0,0,1.936-9.062.119.119,0,0,1,.115-.124.121.121,0,0,1,.124.115,26.621,26.621,0,0,1-1.952,9.154c-1.9,5.122-6.085,13.048-15.235,21.719A.119.119,0,0,1,1332.985,1055.1Z" transform="translate(-1332.865 -1024.078)" fill="#fff"/>
              </g>
              <g id="Grupo_1234707" data-name="Grupo 1234707" transform="translate(9.167 37.023)" opacity="0.7">
                <path id="Trazado_1224572" data-name="Trazado 1224572" d="M1012.6,1199.323a.118.118,0,0,1-.073-.025,43.653,43.653,0,0,1-12.177-13.987,35.638,35.638,0,0,1-4.016-13.254,34.063,34.063,0,0,1,1.333-13.767.12.12,0,1,1,.224.083,33.822,33.822,0,0,0-1.318,13.672,35.4,35.4,0,0,0,3.992,13.16,43.419,43.419,0,0,0,12.109,13.9.12.12,0,0,1-.073.214Z" transform="translate(-996.155 -1158.211)" fill="#fff"/>
              </g>
              <g id="Grupo_1234708" data-name="Grupo 1234708" transform="translate(17.83 79.17)" opacity="0.7">
                <path id="Trazado_1224573" data-name="Trazado 1224573" d="M1140.044,1886.731a.12.12,0,0,1-.037-.233c13.668-4.448,20.647-12.008,24.094-17.567a28.685,28.685,0,0,0,4.251-11.112.12.12,0,0,1,.238.022,28.917,28.917,0,0,1-4.279,11.2c-3.468,5.6-10.487,13.208-24.231,17.68A.114.114,0,0,1,1140.044,1886.731Z" transform="translate(-1139.925 -1857.711)" fill="#fff"/>
              </g>
              <g id="Grupo_1234709" data-name="Grupo 1234709" transform="translate(24.212 -9.097)" opacity="0.7">
                <path id="Trazado_1224574" data-name="Trazado 1224574" d="M1254.913,427.1a.12.12,0,0,1-.085-.036c-8.1-8.288-9.32-17.146-8.913-23.118a30.507,30.507,0,0,1,2.855-11.087.12.12,0,0,1,.211.112,30.265,30.265,0,0,0-2.828,11c-.4,5.92.808,14.7,8.847,22.924a.12.12,0,0,1-.086.2Z" transform="translate(-1245.846 -392.801)" fill="#fff"/>
              </g>
            </g>
          </g>
        </g>
        <g id="Grupo_1234716" data-name="Grupo 1234716" transform="translate(18.755 25.852)">
          <path id="Trazado_1224576" data-name="Trazado 1224576" d="M1615.677,2600.92a7.246,7.246,0,0,1-4.806-5.457l-3.572-17.679-30.556,1.085-3.761,18.417c-.527,2.58,1.582,5.167,4.01,6.117l12.784,5a16.623,16.623,0,0,0,7.474,1.084l27.017-2.312a1.676,1.676,0,0,0,1.515-1.484c.092-.8.645-1.691-.108-1.941Z" transform="translate(-1521.829 -2477.667)" fill="#97a6b7"/>
          <path id="Trazado_1224577" data-name="Trazado 1224577" d="M1632.05,2587.617a7.184,7.184,0,0,1-4.8-5.388l-3.569-17.457-29.811,1.073-3.757,18.186a5.321,5.321,0,0,0,3.292,6.039l12.771,4.939a16.775,16.775,0,0,0,7.466,1.07l26.99-2.282a1.665,1.665,0,0,0,.379-3.242Z" transform="translate(-1537.9 -2465.439)" fill="url(#linear-gradient-3)"/>
          <path id="Trazado_1224578" data-name="Trazado 1224578" d="M868.245,1004.024V924.752a3.125,3.125,0,0,0-2.981-3.075L729.073,916.2a3.419,3.419,0,0,0-3.773,3.183v87.608Z" transform="translate(-725.3 -916.198)" fill="url(#linear-gradient-4)"/>
          <g id="Grupo_1234713" data-name="Grupo 1234713" transform="translate(4.212 4.608)">
            <path id="Trazado_1224579" data-name="Trazado 1224579" d="M928.026,997.5l-129.383-4.827a3.124,3.124,0,0,0-3.432,2.914v76.288a3.223,3.223,0,0,0,3.5,3.006l129.254-3.676a2.891,2.891,0,0,0,2.8-2.849v-68.04A2.863,2.863,0,0,0,928.026,997.5Z" transform="translate(-795.211 -992.675)" fill="url(#linear-gradient-5)"/>
          </g>
          <path id="Trazado_1224580" data-name="Trazado 1224580" d="M725.3,2368.827v17.5a3.41,3.41,0,0,0,3.773,3.175l136.191-5.758a3.133,3.133,0,0,0,2.981-3.081V2365.35Z" transform="translate(-725.301 -2278.032)" fill="url(#linear-gradient-6)"/>
          <g id="Grupo_1234714" data-name="Grupo 1234714" transform="translate(9.534 11.523)">
            <path id="Trazado_1224581" data-name="Trazado 1224581" d="M2418.827,1421.707l-35.527.781V1372l35.527.642Z" transform="translate(-2292.933 -1356.059)" fill="url(#linear-gradient-7)"/>
            <path id="Trazado_1224582" data-name="Trazado 1224582" d="M1009.428,1121.43l-125.894-2.539V1107.43l125.894,3.607Z" transform="translate(-883.534 -1107.43)" fill="url(#linear-gradient-8)"/>
            <path id="Trazado_1224583" data-name="Trazado 1224583" d="M971.012,1375.146l-87.478.4V1344.92l87.478,1.579Z" transform="translate(-883.534 -1330.61)" fill="url(#linear-gradient-9)"/>
            <path id="Trazado_1224584" data-name="Trazado 1224584" d="M910.912,1917.711l-27.379.6v-20.63l27.379-.184Z" transform="translate(-883.534 -1849.895)" fill="url(#linear-gradient-10)"/>
            <path id="Trazado_1224585" data-name="Trazado 1224585" d="M1441.028,1913.8l-26.108.575v-20.141l26.108-.176Z" transform="translate(-1382.902 -1846.662)" fill="url(#linear-gradient-11)"/>
            <path id="Trazado_1224586" data-name="Trazado 1224586" d="M1946.624,1910.074l-24.924.548v-19.674l24.924-.168Z" transform="translate(-1859.146 -1843.58)" fill="url(#linear-gradient-12)"/>
          </g>
          <g id="Grupo_1234715" data-name="Grupo 1234715" transform="translate(0)" opacity="0.48">
            <path id="Trazado_1224587" data-name="Trazado 1224587" d="M853.5,993.788c-11.186-3.778-20.44,3.928-28.48-2.139-9.065-6.841-1.738-19.982-10.123-27.724-11.648-10.755-34.935,5.924-45.048-4.215-6.953-6.971,1.249-18.131-4.639-29.871-2.994-5.969-8.6-10.039-15.413-12.8l-20.718-.833a3.419,3.419,0,0,0-3.773,3.183v105.1a3.41,3.41,0,0,0,3.773,3.175l136.191-5.758a3.133,3.133,0,0,0,2.981-3.082v-11.312C863.454,999.032,858.159,995.363,853.5,993.788Z" transform="translate(-725.305 -916.197)" fill="#fff"/>
          </g>
        </g>
        <g id="Grupo_1234723" data-name="Grupo 1234723" transform="translate(123.889 57.226)">
          <g id="Grupo_1234719" data-name="Grupo 1234719" transform="translate(0.796)">
            <path id="Trazado_1224588" data-name="Trazado 1224588" d="M2526.336,1437.635l-41.294-.746a1.651,1.651,0,0,0-1.681,1.651v60.008a1.651,1.651,0,0,0,1.687,1.651l41.293-.909a1.651,1.651,0,0,0,1.615-1.651v-58.353A1.65,1.65,0,0,0,2526.336,1437.635Z" transform="translate(-2483.362 -1436.89)" fill="url(#linear-gradient-13)"/>
            <g id="Grupo_1234718" data-name="Grupo 1234718" transform="translate(6.64 8.871)">
              <g id="Grupo_1234717" data-name="Grupo 1234717">
                <path id="Trazado_1224589" data-name="Trazado 1224589" d="M2609.288,1622.871a4.049,4.049,0,0,1-2.2-.57,42.638,42.638,0,0,1-7.659-5.8c-3.394-3.308-5.344-6.671-5.77-9.973l-.007-.052-.083-14.09c0-2.785,1.817-5.045,5.227-6.531a25.23,25.23,0,0,1,10.5-1.721,24.9,24.9,0,0,1,10.177,2.258c3.175,1.594,4.84,3.833,4.84,6.488l-.076,13.463-.006.049c-.39,3.162-2.184,6.431-5.354,9.736a44.218,44.218,0,0,1-7.392,6.054A4.185,4.185,0,0,1,2609.288,1622.871Z" transform="translate(-2593.565 -1584.115)" fill="#bfc8d6"/>
                <path id="Trazado_1224590" data-name="Trazado 1224590" d="M2625.367,1622.871a3.958,3.958,0,0,1-2.175-.57,42.125,42.125,0,0,1-7.558-5.8c-3.349-3.308-5.273-6.671-5.694-9.973l-.006-.052-.082-14.09c0-2.785,1.792-5.045,5.157-6.531a24.606,24.606,0,0,1,10.358-1.721,24.3,24.3,0,0,1,10.043,2.258c3.133,1.594,4.776,3.833,4.776,6.488l-.075,13.463-.006.049c-.385,3.162-2.155,6.431-5.284,9.736a43.77,43.77,0,0,1-7.293,6.054A4.094,4.094,0,0,1,2625.367,1622.871Z" transform="translate(-2608.87 -1584.115)" fill="url(#linear-gradient-14)"/>
                <path id="Trazado_1224591" data-name="Trazado 1224591" d="M2625.29,1605.894l.082,14.019c.923,7.153,9.329,12.944,12.99,15.144a3.232,3.232,0,0,0,3.431-.092c3.585-2.359,11.531-8.3,12.38-15.175l.075-13.427C2654.249,1596.4,2625.29,1595.492,2625.29,1605.894Z" transform="translate(-2623.379 -1597.618)" fill="url(#linear-gradient-15)"/>
                <path id="Trazado_1224592" data-name="Trazado 1224592" d="M2683.381,1673.722a.5.5,0,0,1-.271-.072,39.8,39.8,0,0,1-6.972-5.322c-2.746-2.7-4.33-5.32-4.693-7.783l-.08-13.787c0-1.323,1.05-2.455,3.1-3.361a21.86,21.86,0,0,1,8.914-1.462,21.585,21.585,0,0,1,8.682,1.837c1.936.961,2.915,2.093,2.918,3.37l-.075,13.31c-.339,2.384-1.825,4.953-4.436,7.654a41.326,41.326,0,0,1-6.819,5.532A.515.515,0,0,1,2683.381,1673.722Z" transform="translate(-2666.677 -1638.443)" fill="url(#linear-gradient-16)"/>
                <path id="Trazado_1224593" data-name="Trazado 1224593" d="M2692.022,1686.354a38.684,38.684,0,0,1-6.591-5.073c-2.581-2.54-4.074-4.977-4.425-7.232l-.08-13.707c0-.946.872-1.813,2.577-2.569a20.933,20.933,0,0,1,8.519-1.395,20.675,20.675,0,0,1,8.308,1.733c1.614.8,2.431,1.67,2.433,2.592l-.075,13.261c-.329,2.188-1.738,4.581-4.2,7.125A40.13,40.13,0,0,1,2692.022,1686.354Z" transform="translate(-2675.662 -1652.018)" fill="#f4f7fa"/>
              </g>
              <path id="Trazado_1224594" data-name="Trazado 1224594" d="M2744.094,1698.457h0a1.19,1.19,0,0,0-1.19,1.19v5.9a.138.138,0,1,1-.276,0v-7.427a1.212,1.212,0,0,0-1.133-1.222,1.19,1.19,0,0,0-1.248,1.189v7.46a.138.138,0,0,1-.138.138h0a.138.138,0,0,1-.138-.138v-8.114a1.212,1.212,0,0,0-1.132-1.222,1.19,1.19,0,0,0-1.248,1.189v8.147a.138.138,0,0,1-.138.138h0a.138.138,0,0,1-.138-.138v-7.427a1.212,1.212,0,0,0-1.133-1.222,1.191,1.191,0,0,0-1.248,1.189V1710.3l-1.219-3.232a1.762,1.762,0,0,0-2.227-1.042.94.94,0,0,0-.6,1.209l2.708,7.639a5.972,5.972,0,0,0,5.681,4.13h.035a5.972,5.972,0,0,0,5.972-5.972v-13.381A1.19,1.19,0,0,0,2744.094,1698.457Z" transform="translate(-2722.561 -1689.452)" fill="url(#linear-gradient-17)"/>
            </g>
          </g>
          <g id="Grupo_1234722" data-name="Grupo 1234722" transform="translate(0 41.192)">
            <path id="Trazado_1224595" data-name="Trazado 1224595" d="M3204.682,2126.542v-2.436a4.694,4.694,0,0,1-.534-1.807c-.184-1.288.15-.777.314-.241a.886.886,0,0,0,.254.381.485.485,0,0,0,.8-.292l.23-1.613s.936.957.259,3.349a9.813,9.813,0,0,0,0,2.556Z" transform="translate(-3159.871 -2120.532)" fill="url(#linear-gradient-18)"/>
            <path id="Trazado_1224596" data-name="Trazado 1224596" d="M2472.3,2161.221l-.614-2.372a2.456,2.456,0,0,0,.307-1.839c-.283-.929-.113-.6-.341,0s-.679-.415-1.032-1.337-.533.5-.447,1.337a3.1,3.1,0,0,0,.62,1.957c.5.614.4,2.8.4,2.8Z" transform="translate(-2470.148 -2153.272)" fill="url(#linear-gradient-19)"/>
            <path id="Trazado_1224597" data-name="Trazado 1224597" d="M3083.828,3329.878c.02-.523,1.279-.418,2.1-.338s1.189.41,1.318.719.031,1.073-.73.753C3085.895,3330.75,3083.812,3330.339,3083.828,3329.878Z" transform="translate(-3046.852 -3256.63)" fill="#26264f"/>
            <path id="Trazado_1224598" data-name="Trazado 1224598" d="M3109.02,3300.926l.587,2.024s.587.4.781.2l-.219-2.333Z" transform="translate(-3070.525 -3229.703)" fill="url(#linear-gradient-20)"/>
            <path id="Trazado_1224599" data-name="Trazado 1224599" d="M3035.049,3282.7l1.944.848-.327.984-1.947-.507Z" transform="translate(-3000.702 -3212.674)" fill="url(#linear-gradient-21)"/>
            <path id="Trazado_1224600" data-name="Trazado 1224600" d="M3038.317,3295.2s1.3.335,1.868-.43a7.124,7.124,0,0,0,.847-1.862.578.578,0,0,0-.336-.714c-.411-.164-.97-.341-1.208-.207-.4.224-.025,1.714-.2,2.1S3038.267,3294.727,3038.317,3295.2Z" transform="translate(-3004.081 -3221.358)" fill="#26264f"/>
            <path id="Trazado_1224601" data-name="Trazado 1224601" d="M2988.21,2779.75a108.18,108.18,0,0,0,7.064,32.267,2.131,2.131,0,0,0,1.845,0c.318-2.421.482-4.465.573-5.982.241-4.008.35-6.061-.2-8.446-.512-2.238-.924-2.063-1.458-4.537a27.564,27.564,0,0,1-.486-6.369,55.907,55.907,0,0,1,.406-6.725Z" transform="translate(-2956.994 -2740.029)" fill="url(#linear-gradient-22)"/>
            <path id="Trazado_1224602" data-name="Trazado 1224602" d="M2995.521,2810.358c-.515-1.657.5-2.415.382-4.519-.144-2.57-1.727-2.647-2.228-5.537-.4-2.323.577-2.523.318-5.346-.274-3-1.457-3.608-1.209-5.41.137-1,.721-2.367,2.769-3.854a56.129,56.129,0,0,1,.4-5.739l-7.748-.207a108.2,108.2,0,0,0,7.065,32.267,2.142,2.142,0,0,0,.861.209,2.087,2.087,0,0,0,.547-.059A4.3,4.3,0,0,1,2995.521,2810.358Z" transform="translate(-2956.987 -2740.027)" opacity="0.3" fill="url(#linear-gradient-23)"/>
            <path id="Trazado_1224603" data-name="Trazado 1224603" d="M2838,2766.02a46.2,46.2,0,0,1-.675,4.9c-.894,4.641-1.919,6.127-2.189,9.161a17.418,17.418,0,0,0,1.018,7.382c2.508,7.231,9.4,10.6,11.22,11.421q.308-1,.618-2a18.314,18.314,0,0,1-1.778-2.908c-1.094-2.233-1.167-3.548-1.913-5.747-1.346-3.967-2.368-3.405-2.614-5.425-.39-3.2,2.193-4.493,4.523-10.613a33.2,33.2,0,0,0,1.273-4.137Z" transform="translate(-2813.088 -2727.126)" fill="url(#linear-gradient-24)"/>
            <path id="Trazado_1224604" data-name="Trazado 1224604" d="M2515.044,2199.147l1.973-.319a14.7,14.7,0,0,1,2.737,9.738,12.773,12.773,0,0,1-3.852,8.088,12.55,12.55,0,0,1-6.119,3.125c0,5.712.106,9.315.3,11.471a27.969,27.969,0,0,1-.069,5.254,5.685,5.685,0,0,1-.255,1.528c-1.627,3.284-10.957.682-13.477-.408a2.783,2.783,0,0,1-1.605-1.374,3.867,3.867,0,0,1,.127-2.418c.35-1.744-.687-3.06-2.766-6.444-.879-1.431-2.156-3.579-3.647-6.367a13.961,13.961,0,0,1-9.774-.494c-5.851-2.791-9.189-10.521-7.487-18.9l1.782-.509a17.652,17.652,0,0,0,2.7,6.022,8.036,8.036,0,0,0,3.088,3.079c2.137.979,4.035-.015,6.81-.7,4.372-1.079,8.027-.677,12.468-.187,4.852.534,6.181,1.531,9.728.861a9.419,9.419,0,0,0,5.169-2.265C2516.061,2204.845,2515.176,2199.835,2515.044,2199.147Z" transform="translate(-2470.655 -2194.111)" fill="url(#linear-gradient-25)"/>
            <path id="Trazado_1224605" data-name="Trazado 1224605" d="M2846.353,2310.05s-.291,1.165.119,1.687,1.778,2.522,2.223,2.62c.254.056.89.152,1.39.224a.267.267,0,0,1,.075.506,7.161,7.161,0,0,1-2.882.417,10.091,10.091,0,0,1-4.693-1.281.116.116,0,0,1,.067-.216l.98.073a1.344,1.344,0,0,0,1.437-1.489l-.061-.544Z" transform="translate(-2820.089 -2298.631)" fill="url(#linear-gradient-26)"/>
            <g id="Grupo_1234721" data-name="Grupo 1234721" transform="translate(23.731 9.607)">
              <g id="Grupo_1234720" data-name="Grupo 1234720">
                <path id="Trazado_1224606" data-name="Trazado 1224606" d="M2869.01,2290.071c-.134-.074-1.229-.207-1.38-.8a2.865,2.865,0,0,1,.6-1.928c.375-.655.469-.744.643-.855l.242-.142.029-.01a2.747,2.747,0,0,1,.781-.031c.336.08.664,1.463.518,3.406.012.074.024.149.035.225C2870.511,2290.137,2869,2290.14,2869.01,2290.071Z" transform="translate(-2867.376 -2285.915)" fill="url(#linear-gradient-27)"/>
                <path id="Trazado_1224607" data-name="Trazado 1224607" d="M2873.98,2280.284c-.048.237.581.71.85.914a1,1,0,0,1,.213.244.324.324,0,0,1,.033.072c.123.383-.491.816-.378.989.082.125.5-.031.542.077s-.3.3-.252.422c.037.092.249.013.378.155.064.071.043.125.109.338a1.943,1.943,0,0,0,.131.326c.2.358.787.5.9.362.032-.039.006-.073.041-.2a1.05,1.05,0,0,1,.121-.261,2.748,2.748,0,0,1,.727-.546,1.951,1.951,0,0,0,.764-.831l.014-.035a.57.57,0,0,0,.021-.058c.118-.385-.372-1.055-.372-1.055a4.154,4.154,0,0,0-1.285-1.108,5.664,5.664,0,0,0-1.725-.08C2874.481,2280.04,2874.018,2280.1,2873.98,2280.284Z" transform="translate(-2873.376 -2279.971)" fill="#26264f"/>
                <path id="Trazado_1224608" data-name="Trazado 1224608" d="M2864.368,2316.6s.464.556,1.076-.112l.3.089a8.34,8.34,0,0,1-.9,1.627,4.786,4.786,0,0,1-.62-.105.39.39,0,0,1-.231-.442A6.4,6.4,0,0,1,2864.368,2316.6Z" transform="translate(-2863.99 -2314.285)" fill="#26264f"/>
                <path id="Trazado_1224609" data-name="Trazado 1224609" d="M2886.9,2318.424c.153-.2.408,0,.4.26s-.265.53-.51.472S2886.693,2318.693,2886.9,2318.424Z" transform="translate(-2885.297 -2316.031)" fill="url(#linear-gradient-28)"/>
              </g>
            </g>
            <path id="Trazado_1224610" data-name="Trazado 1224610" d="M2527.359,2458.035c-3.161,1.114-6.844-.515-7.764-2.737-.68-1.643.773-3.209-.254-4.9-.99-1.628-2.777-.9-4.01-2.546-1.344-1.795.238-3.385-.955-5.792a6.272,6.272,0,0,0-5.155-3.437c-2.509,0-3.445,2.313-5.6,1.846-1.125-.244-1.1-.924-2.673-2.037-2.73-1.93-4.561-1.122-6.809-2.482a6.854,6.854,0,0,1-2.084-2,13.689,13.689,0,0,0,6.644,7.531,13.959,13.959,0,0,0,9.775.494c1.491,2.789,2.768,4.936,3.646,6.367,2.079,3.383,3.116,4.7,2.766,6.444a3.868,3.868,0,0,0-.127,2.418,2.784,2.784,0,0,0,1.605,1.375c2.52,1.089,11.85,3.692,13.477.407a5.668,5.668,0,0,0,.255-1.527c.056-.534.094-1.045.119-1.525A6.233,6.233,0,0,1,2527.359,2458.035Z" transform="translate(-2490.734 -2415.069)" opacity="0.3" fill="url(#linear-gradient-29)"/>
          </g>
        </g>
        <g id="Grupo_1234727" data-name="Grupo 1234727" transform="translate(26.055 80.883)">
          <g id="Grupo_1234726" data-name="Grupo 1234726">
            <g id="Grupo_1234725" data-name="Grupo 1234725">
              <path id="Trazado_1224611" data-name="Trazado 1224611" d="M891.739,1834.911l10.008,80.213a1.982,1.982,0,0,1-1.931,2.274l-40.113,1.543c-2.342-.022-3.619-1.312-3.763-2.54l-9.475-80.99c-.14-1.194.979-2.31,3.277-2.374l39.549-.253A2.5,2.5,0,0,1,891.739,1834.911Z" transform="translate(-846.453 -1832.586)" fill="url(#linear-gradient-30)"/>
              <path id="Trazado_1224612" data-name="Trazado 1224612" d="M917.086,1831.646l10.105,80.786a2,2,0,0,1-1.946,2.29l-41.693,1.174a2.529,2.529,0,0,1-2.529-2.186l-9.563-81.558a1.958,1.958,0,0,1,1.98-2.21l41.177-.439A2.52,2.52,0,0,1,917.086,1831.646Z" transform="translate(-869.941 -1829.504)" fill="url(#linear-gradient-31)"/>
              <path id="Trazado_1224613" data-name="Trazado 1224613" d="M946.148,1907.492l9.342,74.821a1.861,1.861,0,0,1-1.816,2.135l-39.2,1.09a2.359,2.359,0,0,1-2.357-2.038l-8.87-75.493a1.829,1.829,0,0,1,1.846-2.066l38.746-.449A2.351,2.351,0,0,1,946.148,1907.492Z" transform="translate(-899.816 -1900.914)" fill="url(#linear-gradient-32)"/>
              <path id="Trazado_1224614" data-name="Trazado 1224614" d="M1241.277,1861.5a.667.667,0,0,1-.674.76.869.869,0,0,1-.857-.743.667.667,0,0,1,.675-.76A.868.868,0,0,1,1241.277,1861.5Z" transform="translate(-1216.043 -1858.877)" fill="url(#linear-gradient-33)"/>
              <g id="Grupo_1234724" data-name="Grupo 1234724" transform="translate(1.506 0.288)" opacity="0.5">
                <path id="Trazado_1224615" data-name="Trazado 1224615" d="M909.367,1890.154c-8.049-14.775-19.805-19.281-23.284-34.005-1.869-7.91-.6-15.511,1.555-21.869l-14.19.151a1.957,1.957,0,0,0-1.98,2.21l9.563,81.558a2.529,2.529,0,0,0,2.529,2.186l32.441-.913C916.25,1906.288,913,1896.827,909.367,1890.154Z" transform="translate(-871.453 -1834.28)" fill="#fff"/>
              </g>
            </g>
          </g>
        </g>
        <g id="Grupo_1234731" data-name="Grupo 1234731" transform="translate(35.263 87.943)">
          <path id="Trazado_1224616" data-name="Trazado 1224616" d="M1036.945,1946.679l-35.063.752a2.617,2.617,0,0,0-2.576,3.043l5.59,42.416a3.41,3.41,0,0,0,3.362,2.916l35.063-.758A2.617,2.617,0,0,0,1045.9,1992l-5.589-42.41A3.41,3.41,0,0,0,1036.945,1946.679Z" transform="translate(-999.279 -1946.678)" fill="url(#linear-gradient-34)"/>
          <g id="Grupo_1234728" data-name="Grupo 1234728" transform="translate(6.561 51.427)">
            <path id="Trazado_1224617" data-name="Trazado 1224617" d="M1148.566,2805.562a1.043,1.043,0,0,0,1.011-1.179l-.434-3.3a1.042,1.042,0,0,0-1.056-.906l-38.9.841a1.043,1.043,0,0,0-1.011,1.179l.434,3.3a1.043,1.043,0,0,0,1.056.906Z" transform="translate(-1108.163 -2800.181)" fill="url(#linear-gradient-35)"/>
            <path id="Trazado_1224618" data-name="Trazado 1224618" d="M1164.849,2929.1a1.043,1.043,0,0,0,1.011-1.178l-.434-3.3a1.043,1.043,0,0,0-1.056-.906l-38.9.843a1.043,1.043,0,0,0-1.011,1.179l.435,3.3a1.042,1.042,0,0,0,1.056.906Z" transform="translate(-1123.466 -2916.278)" fill="url(#linear-gradient-36)"/>
            <path id="Trazado_1224619" data-name="Trazado 1224619" d="M1182.144,3051.462l-.435-3.3a1.042,1.042,0,0,0-1.056-.906l-38.9.844a1.042,1.042,0,0,0-1.011,1.178l.435,3.3a1.042,1.042,0,0,0,1.056.906l38.9-.844A1.043,1.043,0,0,0,1182.144,3051.462Z" transform="translate(-1138.769 -3032.371)" fill="url(#linear-gradient-37)"/>
          </g>
          <g id="Grupo_1234730" data-name="Grupo 1234730" transform="translate(6.898 6.837)">
            <g id="Grupo_1234729" data-name="Grupo 1234729">
              <path id="Trazado_1224620" data-name="Trazado 1224620" d="M1132.857,2097.9a4.2,4.2,0,0,1-2.2-.506,48.021,48.021,0,0,1-8.122-5.455c-3.693-3.129-6-6.342-6.833-9.527l-.013-.05-1.876-13.628c-.355-2.694,1.107-4.918,4.2-6.425a22.915,22.915,0,0,1,9.9-1.882,25.6,25.6,0,0,1,10.1,1.974c3.262,1.475,5.153,3.607,5.491,6.175l1.643,13.023v.048c.027,3.066-1.285,6.265-3.919,9.528a36.276,36.276,0,0,1-6.351,6.009A3.662,3.662,0,0,1,1132.857,2097.9Z" transform="translate(-1113.765 -2060.406)" fill="#bfc8d6"/>
              <path id="Trazado_1224621" data-name="Trazado 1224621" d="M1148.351,2097.626a4.1,4.1,0,0,1-2.169-.506,47.5,47.5,0,0,1-8.024-5.457c-3.649-3.131-5.933-6.344-6.759-9.529l-.013-.05-1.875-13.627c-.355-2.694,1.084-4.917,4.138-6.424a22.328,22.328,0,0,1,9.763-1.878,25,25,0,0,1,9.966,1.976c3.222,1.476,5.091,3.608,5.429,6.176l1.644,13.023v.048c.032,3.067-1.257,6.265-3.851,9.527a35.887,35.887,0,0,1-6.257,6.007A3.572,3.572,0,0,1,1148.351,2097.626Z" transform="translate(-1128.512 -2060.152)" fill="url(#linear-gradient-38)"/>
              <path id="Trazado_1224622" data-name="Trazado 1224622" d="M1144.529,2081.482l1.866,13.559c1.8,6.9,10.641,12.327,14.45,14.379a3.074,3.074,0,0,0,3.3-.161c3.154-2.356,10.054-8.266,10-14.935l-1.639-12.987C1171.227,2071.7,1143.2,2071.421,1144.529,2081.482Z" transform="translate(-1142.632 -2073.188)" fill="url(#linear-gradient-39)"/>
              <path id="Trazado_1224623" data-name="Trazado 1224623" d="M1204.434,2146.666a.519.519,0,0,1-.271-.063,44.9,44.9,0,0,1-7.4-5c-2.99-2.552-4.851-5.056-5.515-7.431l-1.835-13.334c-.165-1.28.7-2.4,2.563-3.315a19.842,19.842,0,0,1,8.4-1.6,22.124,22.124,0,0,1,8.6,1.6c1.988.889,3.076,1.964,3.241,3.2l1.624,12.875c-.023,2.312-1.128,4.829-3.3,7.5a33.95,33.95,0,0,1-5.866,5.493A.452.452,0,0,1,1204.434,2146.666Z" transform="translate(-1184.838 -2112.561)" fill="url(#linear-gradient-40)"/>
              <path id="Trazado_1224624" data-name="Trazado 1224624" d="M1212.775,2158.989a43.65,43.65,0,0,1-7-4.769c-2.811-2.4-4.561-4.73-5.187-6.9l-1.825-13.257c-.118-.915.609-1.772,2.157-2.538a19,19,0,0,1,8.032-1.525,21.186,21.186,0,0,1,8.227,1.5c1.657.739,2.555,1.565,2.675,2.457l1.618,12.828c-.038,2.123-1.091,4.467-3.141,6.979A32.931,32.931,0,0,1,1212.775,2158.989Z" transform="translate(-1193.632 -2125.787)" fill="#f4f7fa"/>
            </g>
            <path id="Trazado_1224625" data-name="Trazado 1224625" d="M1277.978,2170.522h0a1.011,1.011,0,0,0-1,1.176l.752,5.7a.117.117,0,0,1-.115.136.153.153,0,0,1-.151-.131l-.947-7.183a1.345,1.345,0,0,0-1.247-1.159,1.013,1.013,0,0,0-1.051,1.176l.951,7.216a.117.117,0,0,1-.115.136h0a.153.153,0,0,1-.151-.13l-1.034-7.848a1.345,1.345,0,0,0-1.247-1.158,1.012,1.012,0,0,0-1.051,1.175l1.038,7.88a.117.117,0,0,1-.115.136h0a.153.153,0,0,1-.151-.131l-.947-7.184a1.345,1.345,0,0,0-1.247-1.159,1.013,1.013,0,0,0-1.051,1.176l1.557,11.813-1.587-3.1a1.879,1.879,0,0,0-2.28-.961.83.83,0,0,0-.425,1.182l3.584,7.332a6.6,6.6,0,0,0,6,3.876h.034a5.074,5.074,0,0,0,4.994-5.9l-.423-3.208-.213-1.612-1.07-8.122A1.318,1.318,0,0,0,1277.978,2170.522Z" transform="translate(-1257.079 -2161.929)" fill="url(#linear-gradient-41)"/>
          </g>
        </g>
      </g>
    </g>
  </g>
</svg>
