<svg xmlns="http://www.w3.org/2000/svg" xmlns:xlink="http://www.w3.org/1999/xlink" width="190" height="220.49" viewBox="0 0 190 220.49">
  <defs>
    <clipPath id="clip-path">
      <rect id="Rectángulo_423704" data-name="Rectángulo 423704" width="190" height="220.49" transform="translate(1230 16825.447)" fill="#fff" stroke="#707070" stroke-width="1"/>
    </clipPath>
    <linearGradient id="linear-gradient" x1="1.13" y1="1.295" x2="0.236" y2="0.19" gradientUnits="objectBoundingBox">
      <stop offset="0" stop-color="#b37cff"/>
      <stop offset="1" stop-color="#f895e7"/>
    </linearGradient>
    <linearGradient id="linear-gradient-2" x1="0.836" y1="0.774" x2="-0.577" y2="2.029" xlink:href="#linear-gradient"/>
    <linearGradient id="linear-gradient-3" x1="-0.297" y1="0.895" x2="1.154" y2="0.257" gradientUnits="objectBoundingBox">
      <stop offset="0" stop-color="#a737d5"/>
      <stop offset="1" stop-color="#ef497a"/>
    </linearGradient>
    <linearGradient id="linear-gradient-4" x1="0.014" y1="0.978" x2="1.762" y2="-0.789" gradientUnits="objectBoundingBox">
      <stop offset="0" stop-color="#53d8ff"/>
      <stop offset="1" stop-color="#3840f7"/>
    </linearGradient>
    <linearGradient id="linear-gradient-5" x1="0.685" y1="-3.26" x2="0.394" y2="2.707" xlink:href="#linear-gradient-4"/>
    <linearGradient id="linear-gradient-6" x1="0.886" y1="-2.973" x2="0.428" y2="-1.538" gradientUnits="objectBoundingBox">
      <stop offset="0" stop-color="#2b3582"/>
      <stop offset="1" stop-color="#150e42"/>
    </linearGradient>
    <linearGradient id="linear-gradient-7" x1="0.487" y1="-0.027" x2="0.584" y2="2.425" gradientUnits="objectBoundingBox">
      <stop offset="0" stop-color="#fdf53f"/>
      <stop offset="1" stop-color="#d93c65"/>
    </linearGradient>
    <linearGradient id="linear-gradient-8" x1="-0.16" y1="-0.191" x2="1.984" y2="2.225" gradientUnits="objectBoundingBox">
      <stop offset="0" stop-color="#f9b776"/>
      <stop offset="1" stop-color="#f47960"/>
    </linearGradient>
    <linearGradient id="linear-gradient-9" x1="-45.597" y1="-0.196" x2="-43.326" y2="2.22" xlink:href="#linear-gradient-8"/>
    <linearGradient id="linear-gradient-10" x1="0.512" y1="-0.192" x2="0.466" y2="2.513" xlink:href="#linear-gradient-6"/>
    <linearGradient id="linear-gradient-11" x1="1.334" y1="-4.742" x2="-1.157" y2="10.925" xlink:href="#linear-gradient-4"/>
    <linearGradient id="linear-gradient-12" x1="0.06" y1="0.183" x2="1.101" y2="0.183" xlink:href="#linear-gradient-6"/>
    <linearGradient id="linear-gradient-13" x1="9.513" y1="-2.619" x2="-4.577" y2="2.052" xlink:href="#linear-gradient-4"/>
    <linearGradient id="linear-gradient-14" x1="2.58" y1="-4.058" x2="-0.86" y2="3.366" xlink:href="#linear-gradient-8"/>
    <linearGradient id="linear-gradient-15" x1="-35.058" y1="-0.198" x2="-34.013" y2="-0.198" xlink:href="#linear-gradient-6"/>
    <linearGradient id="linear-gradient-16" x1="-7.469" y1="-7.46" x2="3.709" y2="3.418" xlink:href="#linear-gradient-4"/>
    <linearGradient id="linear-gradient-17" x1="3.788" y1="-6.36" x2="0.301" y2="1.144" xlink:href="#linear-gradient-8"/>
    <linearGradient id="linear-gradient-18" x1="1.041" y1="-0.294" x2="0.227" y2="1.012" gradientUnits="objectBoundingBox">
      <stop offset="0" stop-color="#7c27dd"/>
      <stop offset="1" stop-color="#2b41d9"/>
    </linearGradient>
    <linearGradient id="linear-gradient-19" x1="0.572" y1="0.897" x2="0.346" y2="-0.262" xlink:href="#linear-gradient-18"/>
    <linearGradient id="linear-gradient-20" x1="0.511" y1="1.753" x2="0.489" y2="-0.794" xlink:href="#linear-gradient-8"/>
    <linearGradient id="linear-gradient-21" x1="0.93" y1="-1.349" x2="1.007" y2="-2.737" xlink:href="#linear-gradient-8"/>
    <linearGradient id="linear-gradient-22" x1="0.849" y1="-3.079" x2="0.394" y2="-1.504" xlink:href="#linear-gradient-6"/>
    <linearGradient id="linear-gradient-23" x1="0.962" y1="1.582" x2="1.713" y2="-6.891" xlink:href="#linear-gradient-8"/>
    <linearGradient id="linear-gradient-24" x1="0.363" y1="-0.382" x2="0.764" y2="2.284" xlink:href="#linear-gradient-6"/>
    <linearGradient id="linear-gradient-25" x1="-0.873" y1="-5.384" x2="1.648" y2="4.502" xlink:href="#linear-gradient-6"/>
    <linearGradient id="linear-gradient-26" x1="-0.073" y1="1.808" x2="0.734" y2="0.302" gradientUnits="objectBoundingBox">
      <stop offset="0" stop-color="#7a2ddb"/>
      <stop offset="1" stop-color="#7077ff"/>
    </linearGradient>
    <linearGradient id="linear-gradient-27" x1="0" y1="0.5" x2="1" y2="0.5" xlink:href="#linear-gradient-6"/>
    <linearGradient id="linear-gradient-28" x1="16.809" y1="-9.737" x2="4.494" y2="-2.038" xlink:href="#linear-gradient-26"/>
    <linearGradient id="linear-gradient-29" x1="1.286" y1="1.203" x2="1.537" y2="0.347" xlink:href="#linear-gradient-3"/>
    <linearGradient id="linear-gradient-30" x1="3.123" y1="0.479" x2="4.506" y2="0.479" xlink:href="#linear-gradient-6"/>
  </defs>
  <g id="Enmascarar_grupo_1208535" data-name="Enmascarar grupo 1208535" transform="translate(-1230 -16825.447)" clip-path="url(#clip-path)">
    <g id="Illustration" transform="translate(1230 16841.447)">
      <g id="Grupo_1235086" data-name="Grupo 1235086" transform="translate(0 -12.549)">
        <path id="Trazado_1225062" data-name="Trazado 1225062" d="M620.463,628.569A69.554,69.554,0,0,1,610,637.932c-34.129,26.029-74.512,18.441-83.095,16.589-12.674-2.736-37.172-8.025-54.884-30.164-26.8-33.495-22.624-86.265-1.839-121.1,3.8-6.372,23.885-41.737,64.7-47.408,24.7-3.432,53.5,3.49,74.351,22.06C653.01,516.888,649.894,595.635,620.463,628.569Z" transform="translate(-453.24 -455)" opacity="0.3" fill="url(#linear-gradient)"/>
        <g id="Grupo_1235071" data-name="Grupo 1235071" transform="translate(125.828 66.953)">
          <path id="Trazado_1225063" data-name="Trazado 1225063" d="M2282.993,1130.787a1.058,1.058,0,0,0-1.9-.353c-3.835,7.577-14.648,27.139-28.252,36.28-22.151,14.884-39.384,42-29.049,59.085C2223.788,1225.8,2293.271,1226.022,2282.993,1130.787Z" transform="translate(-2220.712 -1129.968)" opacity="0.74" fill="url(#linear-gradient-2)"/>
          <path id="Trazado_1225064" data-name="Trazado 1225064" d="M2414.9,1311.621c-.066.266-.146.479-.22.714l-.237.685c-.162.454-.323.909-.491,1.36-.333.9-.68,1.8-1.031,2.7-.7,1.794-1.439,3.57-2.184,5.343q-2.267,5.3-4.793,10.477a218.712,218.712,0,0,1-11.1,20.091c-2.022,3.238-4.164,6.391-6.378,9.485l-1.691,2.3c-.278.386-.569.761-.861,1.135l-.872,1.125-.872,1.125c-.294.372-.6.735-.9,1.1-.6.732-1.194,1.472-1.809,2.192q-3.688,4.319-7.722,8.281c-1.377,1.279-2.732,2.586-4.172,3.785-1.4,1.253-2.894,2.375-4.359,3.534a.1.1,0,0,1-.145-.022.115.115,0,0,1,.021-.153l0,0a109.324,109.324,0,0,0,8.362-7.475q3.964-4,7.6-8.341c2.4-2.911,4.728-5.892,6.933-8.975s4.3-6.249,6.34-9.462q3.029-4.836,5.819-9.837l1.38-2.509,1.345-2.53c.885-1.693,1.766-3.39,2.617-5.1q2.562-5.135,4.887-10.4c.771-1.756,1.536-3.516,2.262-5.294q.546-1.333,1.071-2.674c.177-.447.346-.9.518-1.345l.249-.676c.077-.223.166-.461.224-.662l.009-.029a.1.1,0,0,1,.127-.072A.109.109,0,0,1,2414.9,1311.621Z" transform="translate(-2356.23 -1299.695)" fill="#fff" opacity="0.43"/>
        </g>
        <g id="Grupo_1235072" data-name="Grupo 1235072" transform="translate(125.474 29.648)">
          <path id="Trazado_1225065" data-name="Trazado 1225065" d="M2264.106,556.418a.907.907,0,0,0-1.778-.123c-2.786,9.358-10.814,33.652-22.4,46.287-18.865,20.573-32.05,54.591-20.94,72.839C2218.987,675.42,2282.67,665.259,2264.106,556.418Z" transform="translate(-2214.919 -555.617)" fill="url(#linear-gradient-3)"/>
          <path id="Trazado_1225066" data-name="Trazado 1225066" d="M2392.513,772.725c-.033.294-.084.55-.128.82l-.146.8-.308,1.594c-.211,1.061-.433,2.12-.657,3.179q-.682,3.173-1.431,6.328c-1,4.207-2.1,8.386-3.27,12.545s-2.425,8.29-3.767,12.389l-.5,1.538-.52,1.531c-.351,1.019-.684,2.045-1.051,3.058l-1.081,3.047-1.124,3.029a217.611,217.611,0,0,1-10.422,23.565c-.241.479-.5.949-.754,1.418l-.769,1.409-.769,1.409c-.262.466-.535.925-.8,1.388-.542.921-1.063,1.855-1.622,2.764l-1.69,2.718a114.457,114.457,0,0,1-7.464,10.326.1.1,0,0,1-.146.011.115.115,0,0,1-.012-.153h0A123.334,123.334,0,0,0,2361.346,857l1.657-2.727c.548-.912,1.058-1.849,1.589-2.772.261-.464.529-.924.786-1.392l.753-1.413.752-1.413c.253-.47.5-.941.737-1.421l1.442-2.862c.475-.957.925-1.928,1.389-2.892.229-.483.464-.963.688-1.449l.661-1.464.661-1.464c.222-.487.441-.975.649-1.47,1.723-3.924,3.3-7.919,4.838-11.928,3.049-8.033,5.71-16.23,8.126-24.505q1.8-6.21,3.378-12.492.792-3.139,1.524-6.3c.24-1.053.477-2.107.7-3.163l.331-1.586.157-.794c.048-.263.1-.537.136-.781l0-.024a.1.1,0,0,1,.116-.092A.109.109,0,0,1,2392.513,772.725Z" transform="translate(-2345.554 -758.509)" fill="#fff" opacity="0.43"/>
        </g>
        <g id="Grupo_1235075" data-name="Grupo 1235075" transform="translate(1.659 0.557)">
          <g id="Grupo_1235073" data-name="Grupo 1235073">
            <path id="Trazado_1225067" data-name="Trazado 1225067" d="M483.84,462.356H634.792c4.116,0,7.431,5.016,7.357,11.131l-2.124,174c-.1,8.189-4.633,14.721-13.911,14.618l-146.2-2.726c-.263-.075-3.5-4.951-3.5-10.938l.07-175.158C476.484,467.247,479.778,462.356,483.84,462.356Z" transform="translate(-476.411 -462.356)" fill="url(#linear-gradient-4)"/>
            <path id="Trazado_1225068" data-name="Trazado 1225068" d="M534.447,524.6H679.4c3.952,0,7.136,4.766,7.064,10.576L684.422,700.5c-.1,7.781-4.449,13.987-9.742,13.889L534.292,711.8c-3.869-.071-6.979-4.7-6.977-10.393l.067-166.425C527.384,529.247,530.547,524.6,534.447,524.6Z" transform="translate(-523.69 -519.888)" fill="#fff" opacity="0.6"/>
          </g>
          <g id="Grupo_1235074" data-name="Grupo 1235074" transform="translate(3.625 4.194)">
            <path id="Trazado_1225069" data-name="Trazado 1225069" d="M686.237,543.047H527.31V519.724a1.906,1.906,0,0,1,1.845-1.961H684.5a1.8,1.8,0,0,1,1.741,1.851v23.433Z" transform="translate(-527.31 -517.763)" fill="url(#linear-gradient-5)"/>
            <path id="Trazado_1225070" data-name="Trazado 1225070" d="M1389.217,597.581l-82.451-.831a3.326,3.326,0,0,1-3.508-3.061v-2.922a2.549,2.549,0,0,1,2.715-2.342h83.835a2.357,2.357,0,0,1,2.537,2.355l-.4,4.637A2.583,2.583,0,0,1,1389.217,597.581Z" transform="translate(-1247.995 -583.076)" fill="#fff" opacity="0.61"/>
            <path id="Trazado_1225071" data-name="Trazado 1225071" d="M751.46,946.581H607.132a1.787,1.787,0,0,1-1.734-1.836v-4.911A1.786,1.786,0,0,1,607.147,938l144.329,1.351a1.788,1.788,0,0,1,1.719,1.836v3.559A1.787,1.787,0,0,1,751.46,946.581Z" transform="translate(-599.837 -906.187)" fill="#fff" opacity="0.6"/>
            <path id="Trazado_1225072" data-name="Trazado 1225072" d="M1058.95,589.747a4.5,4.5,0,1,1,4.225-4.491A4.369,4.369,0,0,1,1058.95,589.747Zm0-8.47a3.986,3.986,0,1,0,3.743,3.979A3.871,3.871,0,0,0,1058.95,581.277Z" transform="translate(-1017.163 -575.996)" fill="#fff"/>
            <path id="Trazado_1225073" data-name="Trazado 1225073" d="M865.33,594.283a4.5,4.5,0,1,1,4.225-4.491A4.369,4.369,0,0,1,865.33,594.283Zm0-8.47a3.986,3.986,0,1,0,3.743,3.979A3.871,3.871,0,0,0,865.33,585.813Z" transform="translate(-837.332 -580.188)" fill="#fff"/>
            <path id="Trazado_1225074" data-name="Trazado 1225074" d="M679.281,594.283a4.5,4.5,0,1,1,4.225-4.491A4.369,4.369,0,0,1,679.281,594.283Zm0-8.47a3.986,3.986,0,1,0,3.743,3.979A3.871,3.871,0,0,0,679.281,585.813Z" transform="translate(-664.534 -580.188)" fill="#fff"/>
            <path id="Trazado_1225075" data-name="Trazado 1225075" d="M1483.361,1185.862l-26.994-.239a1.584,1.584,0,0,1-1.519-1.641l.006-.8a1.584,1.584,0,0,1,1.493-1.614l27-.71a1.58,1.58,0,0,1,1.569,1.641l-.014,1.749A1.58,1.58,0,0,1,1483.361,1185.862Z" transform="translate(-1388.79 -1130.661)" fill="#fff" opacity="0.6"/>
            <path id="Trazado_1225076" data-name="Trazado 1225076" d="M1387.145,1351.693l-39.742-.351a2.515,2.515,0,0,1-2.411-2.606l.331-42.308a2.514,2.514,0,0,1,2.389-2.563l39.245.791a3.138,3.138,0,0,1,2.974,3.25l-.334,41.224A2.508,2.508,0,0,1,1387.145,1351.693Z" transform="translate(-1286.757 -1244.355)" fill="#fff" opacity="0.6"/>
            <path id="Trazado_1225077" data-name="Trazado 1225077" d="M778.261,1185.862l-26.994-.239a1.584,1.584,0,0,1-1.519-1.641l.006-.8a1.583,1.583,0,0,1,1.493-1.614l27-.71a1.58,1.58,0,0,1,1.569,1.641l-.014,1.749A1.58,1.58,0,0,1,778.261,1185.862Z" transform="translate(-733.907 -1130.661)" fill="#fff" opacity="0.6"/>
            <path id="Trazado_1225078" data-name="Trazado 1225078" d="M682.055,1351.693l-39.742-.351a2.515,2.515,0,0,1-2.411-2.606l.331-42.308a2.514,2.514,0,0,1,2.389-2.563l39.245.791a3.138,3.138,0,0,1,2.975,3.25l-.334,41.224A2.509,2.509,0,0,1,682.055,1351.693Z" transform="translate(-631.883 -1244.355)" fill="#fff" opacity="0.6"/>
            <path id="Trazado_1225079" data-name="Trazado 1225079" d="M2190.55,1199.082l-26.994-.239a1.584,1.584,0,0,1-1.519-1.641l.006-.8a1.584,1.584,0,0,1,1.493-1.614l27-.71a1.58,1.58,0,0,1,1.569,1.641l-.014,1.749A1.581,1.581,0,0,1,2190.55,1199.082Z" transform="translate(-2045.613 -1142.88)" fill="#fff" opacity="0.6"/>
            <path id="Trazado_1225080" data-name="Trazado 1225080" d="M2094.335,1364.912l-39.742-.351a2.515,2.515,0,0,1-2.411-2.606l.331-42.308a2.514,2.514,0,0,1,2.389-2.563l39.245.791a3.139,3.139,0,0,1,2.975,3.25l-.334,41.224A2.508,2.508,0,0,1,2094.335,1364.912Z" transform="translate(-1943.581 -1256.574)" fill="#fff" opacity="0.6"/>
            <path id="Trazado_1225081" data-name="Trazado 1225081" d="M806.39,2041.631H664.546a.661.661,0,0,1-.64-.68v-6.108a.661.661,0,0,1,.64-.68H806.389a.661.661,0,0,1,.64.68v6.108A.661.661,0,0,1,806.39,2041.631Z" transform="translate(-654.178 -1919.369)" fill="#fff" opacity="0.6"/>
            <path id="Trazado_1225082" data-name="Trazado 1225082" d="M810.773,2197.351H668.93a.661.661,0,0,1-.64-.68v-6.108a.661.661,0,0,1,.64-.681H810.773a.661.661,0,0,1,.64.681v6.108A.661.661,0,0,1,810.773,2197.351Z" transform="translate(-658.249 -2063.301)" fill="#fff" opacity="0.6"/>
            <path id="Trazado_1225083" data-name="Trazado 1225083" d="M795.981,2372.581H654.137a.661.661,0,0,1-.64-.681v-6.108a.661.661,0,0,1,.64-.681H795.98a.661.661,0,0,1,.64.681v6.108A.661.661,0,0,1,795.981,2372.581Z" transform="translate(-644.51 -2225.265)" fill="#fff" opacity="0.6"/>
            <path id="Trazado_1225084" data-name="Trazado 1225084" d="M800.364,2528.3H658.521a.661.661,0,0,1-.64-.68v-6.108a.661.661,0,0,1,.64-.681H800.364a.661.661,0,0,1,.64.681v6.108A.661.661,0,0,1,800.364,2528.3Z" transform="translate(-648.582 -2369.197)" fill="#fff" opacity="0.6"/>
            <path id="Trazado_1225085" data-name="Trazado 1225085" d="M795.981,2692.662H654.137a.661.661,0,0,1-.64-.68v-6.109a.661.661,0,0,1,.64-.68H795.98a.661.661,0,0,1,.64.68v6.109A.661.661,0,0,1,795.981,2692.662Z" transform="translate(-644.51 -2521.115)" fill="#fff" opacity="0.6"/>
          </g>
        </g>
        <g id="Grupo_1235079" data-name="Grupo 1235079" transform="translate(98.491 101.893)">
          <g id="Grupo_1235078" data-name="Grupo 1235078" transform="translate(-3.847)">
            <path id="Trazado_1225086" data-name="Trazado 1225086" d="M2320.412,1858.944c-.085.171-2.659,2.1-2.659,2.1s-1.789,10.47,1.492,15.625,14.46-4.024,14.46-4.024,6.288-1.045,9.447-14.187c.725-3.015-3.807-.724-8.855-.169A138.14,138.14,0,0,1,2320.412,1858.944Z" transform="translate(-2281.424 -1852.503)" fill="url(#linear-gradient-6)"/>
            <path id="Trazado_1225087" data-name="Trazado 1225087" d="M2095.233,2253.37a22.507,22.507,0,0,1,7.02-3.471c.943-.273,6.034,1.3,9.181,1.223,4.32-.105,8.718-2.2,12.279-1.252a24.86,24.86,0,0,1,8.1,3.425c5,3.782,7.942,10.836,9.732,17.823a22.743,22.743,0,0,1-7.656,5.343l-.788,33.961-18.893,10.274-21.564-11.508.772-33.188s-6.847-3.39-7.35-4.623S2089.192,2257.785,2095.233,2253.37Z" transform="translate(-2067.405 -2214.108)" fill="url(#linear-gradient-7)"/>
            <path id="Trazado_1225088" data-name="Trazado 1225088" d="M2066.036,2522.51s-9.176,27.041,11.749,38.154c4.345-.614,2.674-8.283,2.674-8.283s-9.092-2.139-6.361-24.7A58.126,58.126,0,0,0,2066.036,2522.51Z" transform="translate(-2047.052 -2465.388)" fill="url(#linear-gradient-8)"/>
            <path id="Trazado_1225089" data-name="Trazado 1225089" d="M2642.438,2522.51s6.314,28.227-11.749,38.154c-4.345-.614-2.674-8.283-2.674-8.283s7.328-3.836,6.361-24.7A58.114,58.114,0,0,1,2642.438,2522.51Z" transform="translate(-2568.736 -2465.388)" fill="url(#linear-gradient-9)"/>
            <path id="Trazado_1225090" data-name="Trazado 1225090" d="M2212.664,2682.529h-40.677a.39.39,0,0,1-.376-.4v-28.94a.39.39,0,0,1,.376-.4h40.677a.39.39,0,0,1,.376.4v28.94A.389.389,0,0,1,2212.664,2682.529Z" transform="translate(-2146.617 -2585.353)" fill="url(#linear-gradient-10)"/>
            <path id="Trazado_1225091" data-name="Trazado 1225091" d="M2418.11,2724.306a2.681,2.681,0,0,1-2.06,3.244,2.748,2.748,0,0,1-3.086-2.434c-.219-1.578.46-3.145,1.944-3.378A2.96,2.96,0,0,1,2418.11,2724.306Z" transform="translate(-2369.957 -2648.816)" fill="url(#linear-gradient-11)"/>
            <g id="Grupo_1235076" data-name="Grupo 1235076" transform="translate(65.151 105.098)">
              <path id="Trazado_1225092" data-name="Trazado 1225092" d="M2762.035,3131.636c-4.741-1.157-15.7-.535-15.7-.535l-.446,1.283-.738,6.377s10.436,2,15.58,1.994a4.577,4.577,0,0,0,1.443-.229c.157-.15.31-.3.455-.473A6.277,6.277,0,0,0,2762.035,3131.636Z" transform="translate(-2742.591 -3130.743)" fill="url(#linear-gradient-12)"/>
              <path id="Trazado_1225093" data-name="Trazado 1225093" d="M2972.3,3139.929c-.148-.044-.306-.086-.47-.126a6.276,6.276,0,0,1,.595,8.417,6.537,6.537,0,0,1-.455.473C2975.831,3147.417,2976.287,3141.122,2972.3,3139.929Z" transform="translate(-2952.388 -3138.909)" fill="url(#linear-gradient-13)"/>
              <path id="Trazado_1225094" data-name="Trazado 1225094" d="M2711.368,3128.51l1.856.084a3.511,3.511,0,0,1,2.606,1.432,4.876,4.876,0,0,1,.957,3.2,3.794,3.794,0,0,1-1,2.433,2.72,2.72,0,0,1-2.171.876l-2.839-.215Z" transform="translate(-2710.772 -3128.51)" fill="url(#linear-gradient-14)"/>
            </g>
            <g id="Grupo_1235077" data-name="Grupo 1235077" transform="translate(0 104.928)">
              <path id="Trazado_1225095" data-name="Trazado 1225095" d="M1855.406,3126.813c4.767-1,15.706-.023,15.706-.023l.415,1.3.588,6.4s-10.479,1.658-15.621,1.486a4.6,4.6,0,0,1-1.437-.276c-.153-.155-.3-.315-.444-.488A6.265,6.265,0,0,1,1855.406,3126.813Z" transform="translate(-1852.053 -3126.362)" fill="url(#linear-gradient-15)"/>
              <path id="Trazado_1225096" data-name="Trazado 1225096" d="M1838.922,3132.168c.15-.039.308-.076.473-.111a6.266,6.266,0,0,0-.792,8.4c.141.173.291.333.444.488C1835.219,3139.537,1834.91,3133.229,1838.922,3132.168Z" transform="translate(-1836.042 -3131.606)" fill="url(#linear-gradient-16)"/>
              <path id="Trazado_1225097" data-name="Trazado 1225097" d="M2065.593,3128.53l-1.857.023a3.473,3.473,0,0,0-2.639,1.347,4.836,4.836,0,0,0-1.031,3.165,3.825,3.825,0,0,0,.947,2.464,2.745,2.745,0,0,0,2.15.947l2.843-.122Z" transform="translate(-2043.379 -3128.358)" fill="url(#linear-gradient-17)"/>
            </g>
            <path id="Trazado_1225098" data-name="Trazado 1225098" d="M2178.1,2829.444c-2.15-5.26-7.409-6.114-11.885-3.654-.078.109-28.425,15.551-53.424,22.319a30.541,30.541,0,0,1,1.164,7.584q.022.852-.026,1.682c19.17-1.047,39.976-7.842,57.854-13.814A10.673,10.673,0,0,0,2178.1,2829.444Z" transform="translate(-2092.175 -2743.444)" fill="url(#linear-gradient-18)"/>
            <path id="Trazado_1225099" data-name="Trazado 1225099" d="M1964.2,2847.743a18.456,18.456,0,0,1,1.613-8.21c.033-.116.072-.228.107-.342-1.427-.47-3.272-1.106-5.694-1.98A265.242,265.242,0,0,1,1916,2816.728c-5.021-2.916-10.73-.962-12.337,5.353-1.435,5.637,1.821,10.145,6.5,12.142,16.078,6.865,39.695,13.135,54.062,14.16C1964.217,2848.169,1964.2,2847.956,1964.2,2847.743Z" transform="translate(-1898.314 -2735.094)" fill="url(#linear-gradient-19)"/>
            <path id="Trazado_1225100" data-name="Trazado 1225100" d="M2303.91,2151.468s1.909,8.794,11.178,8.611c9.44-.182,10.282-8.64,10.282-8.64l-6.167-1.4-.515-7.3-9.276.73-.172,6.938Z" transform="translate(-2269.062 -2115.677)" fill="url(#linear-gradient-20)"/>
            <path id="Trazado_1225101" data-name="Trazado 1225101" d="M2341.379,1870.81s-9.878,20.337,1.839,25.272c8.265,3.48,13.447-13.506,11.9-18.106-2.39-7.114-3.964-6.269-3.964-6.269Z" transform="translate(-2300.139 -1865.282)" fill="url(#linear-gradient-21)"/>
            <path id="Trazado_1225102" data-name="Trazado 1225102" d="M2573.3,1958.7c-.028-.083-.052-.156-.074-.226.038.375.058.766.062,1.169q.023-.43.037-.861C2573.316,1958.754,2573.309,1958.724,2573.3,1958.7Z" transform="translate(-2518.319 -1946.005)" fill="#fff"/>
            <path id="Trazado_1225103" data-name="Trazado 1225103" d="M2571.278,1951.162c-.014-.139-.03-.277-.048-.411C2571.739,1951.651,2570.76,1949.553,2571.278,1951.162Z" transform="translate(-2516.372 -1938.695)" fill="#fff"/>
            <path id="Trazado_1225104" data-name="Trazado 1225104" d="M2344.218,1801.056c5.292-1.28,1.619,16.122-6.26,13.269s-11.55-4.605-12.778-2.305-3.274,11.707-3.954,6.829c-.635-4.559-1.25-12.914,2.89-14.737,2.351-1.035,4.418,1.208,6.038.647,2.495-.865,4.9-.894,6.379.014C2339.337,1806.492,2340.854,1801.87,2344.218,1801.056Z" transform="translate(-2284.665 -1800.989)" fill="url(#linear-gradient-22)"/>
            <path id="Trazado_1225105" data-name="Trazado 1225105" d="M2332.754,1969.112s-1.708-2.742-2.487.064-.284,6.684,1.282,4.882S2332.754,1969.112,2332.754,1969.112Z" transform="translate(-2293.12 -1954.697)" fill="url(#linear-gradient-23)"/>
          </g>
        </g>
        <g id="Grupo_1235081" data-name="Grupo 1235081" transform="translate(60.435 49.63)">
          <path id="Trazado_1225106" data-name="Trazado 1225106" d="M1378.165,1155.4h-70.8a5.849,5.849,0,0,1-5.663-6.019v-32.764a5.835,5.835,0,0,1,5.844-6.016l70.8,2.407a5.863,5.863,0,0,1,5.482,6.016v30.357A5.849,5.849,0,0,1,1378.165,1155.4Z" transform="translate(-1301.699 -1110.599)" fill="url(#linear-gradient-24)"/>
          <path id="Trazado_1225107" data-name="Trazado 1225107" d="M2033.9,1699.16l9.409,12.084,3.635-12.084Z" transform="translate(-1981.753 -1654.605)" fill="url(#linear-gradient-25)"/>
          <g id="Grupo_1235080" data-name="Grupo 1235080" transform="translate(16.547 9.326)">
            <path id="Trazado_1225108" data-name="Trazado 1225108" d="M1549.869,1290.632l-15.834-8.717v-2.764l15.834-8.773v4.513l-10.814,5.6,10.814,5.642Z" transform="translate(-1534.035 -1267.609)" fill="#fff"/>
            <path id="Trazado_1225109" data-name="Trazado 1225109" d="M1812.987,1234.031l-8.121,26.674-4.219-.039,8.242-26.87Z" transform="translate(-1781.659 -1233.796)" fill="#fff"/>
            <path id="Trazado_1225110" data-name="Trazado 1225110" d="M2015.03,1298.127l9.765-4.792-9.765-6.092v-4.368l14.064,9.52v2.536l-14.064,7.545Z" transform="translate(-1980.774 -1279.16)" fill="#fff"/>
          </g>
        </g>
        <g id="Grupo_1235085" data-name="Grupo 1235085" transform="translate(0 92.075)">
          <g id="Grupo_1235083" data-name="Grupo 1235083">
            <g id="Grupo_1235082" data-name="Grupo 1235082">
              <path id="Trazado_1225111" data-name="Trazado 1225111" d="M486.617,1716.47a24.967,24.967,0,0,1-2.32-8.7c-.518-7.838,3.769-15.056,6.918-21.8,2.894-6.2,5.046-15.445-4.721-14.622-7.781.655-16.928,8.9-17.972,17.492-1.235,10.172,3.424,23-2.1,32.239-7.727,12.926-13.3,9.964-13.3,31.777,0,9.32,4.857,14.461,10.42,17.293a22.254,22.254,0,0,0,26.247-4.533c6.181-6.358,9.856-15.5,8.613-24.674C497.147,1731.672,490.308,1724.644,486.617,1716.47Z" transform="translate(-453.122 -1671.294)" fill="url(#linear-gradient-26)"/>
              <path id="Trazado_1225112" data-name="Trazado 1225112" d="M724.484,1832.666a.366.366,0,0,1-.35-.291c-4.842-20.543-7.478-39.167-7.834-55.353-.285-12.965.883-24.407,3.472-34.01,4.427-16.417,11.382-21.7,11.676-21.915a.348.348,0,0,1,.5.1.4.4,0,0,1-.09.535c-.07.052-7.075,5.4-11.421,21.6-4.019,14.982-6.518,42.559,4.4,88.863a.386.386,0,0,1-.263.466A.352.352,0,0,1,724.484,1832.666Z" transform="translate(-697.517 -1717.264)" fill="url(#linear-gradient-27)"/>
            </g>
            <path id="Trazado_1225113" data-name="Trazado 1225113" d="M948.2,1962.912a3.075,3.075,0,0,0-1.23-.089c-2.434.3-3.434,3.026-4.149,5.159-.612,1.827-1.334,4.044-.972,6.023.391,2.14,2.529,3.885,4.08,1.713,1.763-2.469,4.409-6.261,4.425-9.533A3.2,3.2,0,0,0,948.2,1962.912Z" transform="translate(-906.956 -1940.731)" fill="url(#linear-gradient-28)"/>
          </g>
          <g id="Grupo_1235084" data-name="Grupo 1235084" transform="translate(35.41 24.091)">
            <path id="Trazado_1225114" data-name="Trazado 1225114" d="M983.033,2045.5c1.1-7.716-1.536-16.574-2.853-24.734a41.687,41.687,0,0,1-.366-12.942c.648-4.321,2.558-8.995.8-13.3-3.549-8.674-11.986-4.727-16.819,1.8-5.608,7.577-7.141,19.959-9.271,29.494-1.284,5.748-3.219,11.644-3.9,17.5-1.122,9.7.942,16.44,5.309,20.989a12.63,12.63,0,0,0,15.691,2.235C976.253,2063.806,981.255,2057.948,983.033,2045.5Z" transform="translate(-950.323 -1989.528)" fill="url(#linear-gradient-29)"/>
            <path id="Trazado_1225115" data-name="Trazado 1225115" d="M1109.143,2161.535a.369.369,0,0,1-.356-.321,204.852,204.852,0,0,1-1.9-28.135c-.044-15,1.469-36.993,8.929-56.6a.354.354,0,0,1,.471-.212.393.393,0,0,1,.2.5c-7.415,19.487-8.92,41.37-8.876,56.3a204.076,204.076,0,0,0,1.892,28.025.382.382,0,0,1-.3.443A.43.43,0,0,1,1109.143,2161.535Z" transform="translate(-1095.734 -2069.675)" fill="url(#linear-gradient-30)"/>
          </g>
        </g>
      </g>
    </g>
  </g>
</svg>
