<svg xmlns="http://www.w3.org/2000/svg" xmlns:xlink="http://www.w3.org/1999/xlink" width="106.16" height="106.16" viewBox="0 0 106.16 106.16">
  <defs>
    <filter id="Trazado_982547" x="0" y="0" width="106.16" height="106.16" filterUnits="userSpaceOnUse">
      <feOffset dy="3" input="SourceAlpha"/>
      <feGaussianBlur stdDeviation="3" result="blur"/>
      <feFlood flood-opacity="0.161"/>
      <feComposite operator="in" in2="blur"/>
      <feComposite in="SourceGraphic"/>
    </filter>
  </defs>
  <g id="Grupo_1234557" data-name="Grupo 1234557" transform="translate(-820.25 -3421.602)">
    <g id="Grupo_1234360" data-name="Grupo 1234360" transform="translate(0 -3340.065)">
      <g id="Grupo_1230962" data-name="Grupo 1230962" transform="translate(0 -511.747)">
        <g id="Grupo_1230692" data-name="Grupo 1230692" transform="translate(-0.25 3811.95)">
          <g id="Grupo_1224852" data-name="Grupo 1224852" transform="translate(629.5 1738.464)">
            <g id="Grupo_1206130" data-name="Grupo 1206130" transform="translate(0 -59)">
              <g id="Grupo_1203672" data-name="Grupo 1203672" transform="translate(0.08 -4797.878)">
                <g id="Grupo_1203344" data-name="Grupo 1203344" transform="translate(-81.08 5174.875)">
                  <g id="Grupo_1177900" data-name="Grupo 1177900" transform="translate(281 1411.003)">
                    <g id="Grupo_1172010" data-name="Grupo 1172010" transform="translate(0)">
                      <g id="Grupo_1171046" data-name="Grupo 1171046">
                        <g id="Grupo_1148525" data-name="Grupo 1148525">
                          <g transform="matrix(1, 0, 0, 1, -9, -6)" filter="url(#Trazado_982547)">
                            <g id="Trazado_982547-2" data-name="Trazado 982547" transform="translate(9 6)" fill="#e5ebfb">
                              <path d="M 44.0802001953125 86.660400390625 C 38.33124923706055 86.660400390625 32.75506210327148 85.53479766845703 27.50652503967285 83.31484985351562 C 22.43628692626953 81.17032623291016 17.88242530822754 78.09992218017578 13.97144985198975 74.18894958496094 C 10.06047534942627 70.27797698974609 6.99007511138916 65.72411346435547 4.845550060272217 60.65387344360352 C 2.625600099563599 55.40533828735352 1.500000238418579 49.82915115356445 1.500000238418579 44.0802001953125 C 1.500000238418579 38.33124923706055 2.625600099563599 32.75506210327148 4.845550060272217 27.50652503967285 C 6.99007511138916 22.43628692626953 10.06047534942627 17.88242530822754 13.97144985198975 13.97144985198975 C 17.88242530822754 10.06047534942627 22.43628692626953 6.99007511138916 27.50652503967285 4.845550060272217 C 32.75506210327148 2.625600099563599 38.33124923706055 1.500000238418579 44.0802001953125 1.500000238418579 C 49.82915115356445 1.500000238418579 55.40533828735352 2.625600099563599 60.65387344360352 4.845550060272217 C 65.72411346435547 6.99007511138916 70.27797698974609 10.06047534942627 74.18894958496094 13.97144985198975 C 78.09992218017578 17.88242530822754 81.17032623291016 22.43628692626953 83.31484985351562 27.50652503967285 C 85.53479766845703 32.75506210327148 86.660400390625 38.33124923706055 86.660400390625 44.0802001953125 C 86.660400390625 49.82915115356445 85.53479766845703 55.40533828735352 83.31484985351562 60.65387344360352 C 81.17032623291016 65.72411346435547 78.09992218017578 70.27797698974609 74.18894958496094 74.18894958496094 C 70.27797698974609 78.09992218017578 65.72411346435547 81.17032623291016 60.65387344360352 83.31484985351562 C 55.40533828735352 85.53479766845703 49.82915115356445 86.660400390625 44.0802001953125 86.660400390625 Z" stroke="none"/>
                              <path d="M 44.0802001953125 3 C 38.53308486938477 3 33.15349960327148 4.085746765136719 28.09085845947266 6.227058410644531 C 23.19941711425781 8.29595947265625 18.80581665039062 11.25841522216797 15.03211212158203 15.03211212158203 C 11.25841522216797 18.80581665039062 8.29595947265625 23.19941711425781 6.227058410644531 28.09085845947266 C 4.085746765136719 33.15349960327148 3 38.53308486938477 3 44.0802001953125 C 3 49.62731552124023 4.085746765136719 55.00691604614258 6.227058410644531 60.06954193115234 C 8.29595947265625 64.96098327636719 11.25841522216797 69.35458374023438 15.03211212158203 73.12828826904297 C 18.80581665039062 76.90198516845703 23.19941711425781 79.86444091796875 28.09085845947266 81.93334197998047 C 33.15349960327148 84.07466125488281 38.53308486938477 85.160400390625 44.0802001953125 85.160400390625 C 49.62731552124023 85.160400390625 55.00691604614258 84.07466125488281 60.06954193115234 81.93334197998047 C 64.96099853515625 79.86444091796875 69.35458374023438 76.90198516845703 73.12828826904297 73.12828826904297 C 76.90198516845703 69.35458374023438 79.86444091796875 64.96099853515625 81.93334197998047 60.06954193115234 C 84.07466125488281 55.00691604614258 85.160400390625 49.62731552124023 85.160400390625 44.0802001953125 C 85.160400390625 38.53308486938477 84.07466125488281 33.15349960327148 81.93334197998047 28.09085845947266 C 79.86444091796875 23.19941711425781 76.90198516845703 18.80581665039062 73.12828826904297 15.03211212158203 C 69.35458374023438 11.25841522216797 64.96098327636719 8.29595947265625 60.06954193115234 6.227058410644531 C 55.00691604614258 4.085746765136719 49.62731552124023 3 44.0802001953125 3 M 44.0802001953125 0 C 68.42502593994141 0 88.160400390625 19.73538970947266 88.160400390625 44.0802001953125 C 88.160400390625 68.42502593994141 68.42502593994141 88.160400390625 44.0802001953125 88.160400390625 C 19.73538970947266 88.160400390625 0 68.42502593994141 0 44.0802001953125 C 0 19.73538970947266 19.73538970947266 0 44.0802001953125 0 Z" stroke="none" fill="#0b47db"/>
                            </g>
                          </g>
                        </g>
                      </g>
                    </g>
                  </g>
                </g>
              </g>
            </g>
          </g>
        </g>
      </g>
    </g>
    <g id="seguridad" transform="translate(841 3440)">
      <path id="Trazado_1223885" data-name="Trazado 1223885" d="M51,29V6a4,4,0,0,1,4-4H29a4,4,0,0,0-4,4V29Z" fill="#d6d6d6"/>
      <path id="Trazado_1223886" data-name="Trazado 1223886" d="M55,2H31a4,4,0,0,0-4,4V29H51V6A4,4,0,0,1,55,2Z" fill="#f2f2f2"/>
      <path id="Trazado_1223887" data-name="Trazado 1223887" d="M38,7a9,9,0,1,1-9,9,9,9,0,0,1,9-9Zm5.68,13.08a7,7,0,1,0-11.36,0,5.994,5.994,0,0,1,11.36,0Zm-1.7,1.67a3.987,3.987,0,0,0-7.96,0,6.961,6.961,0,0,0,7.96,0Z" fill="#42596e"/>
      <path id="Trazado_1223888" data-name="Trazado 1223888" d="M38,18a4,4,0,0,1,3.98,3.75,6.961,6.961,0,0,1-7.96,0A4,4,0,0,1,38,18Z" fill="#27384c"/>
      <path id="Trazado_1223889" data-name="Trazado 1223889" d="M38,10a3,3,0,1,1-3,3,3,3,0,0,1,3-3Zm1,3a1,1,0,1,0-1,1A1,1,0,0,0,39,13Z" fill="#42596e"/>
      <circle id="Elipse_13871" data-name="Elipse 13871" cx="1" cy="1" r="1" transform="translate(37 12)" fill="#27384c"/>
      <path id="Trazado_1223890" data-name="Trazado 1223890" d="M25,52H2V17H22l3,3Z" fill="#fad85d"/>
      <path id="Trazado_1223891" data-name="Trazado 1223891" d="M25,22H7V52H25Z" fill="#f2f2f2"/>
      <path id="Trazado_1223892" data-name="Trazado 1223892" d="M52,52H12V25H29l5,3H52Z" fill="#fad85d"/>
      <path id="Trazado_1223893" data-name="Trazado 1223893" d="M12,38H52V52H12Z" fill="#f6b940"/>
      <path id="Trazado_1223894" data-name="Trazado 1223894" d="M7,38h5V52H7Z" fill="#d6d6d6"/>
      <path id="Trazado_1223895" data-name="Trazado 1223895" d="M2,38H7V52H2Z" fill="#f6b940"/>
      <g id="Grupo_1234556" data-name="Grupo 1234556">
        <path id="Trazado_1223896" data-name="Trazado 1223896" d="M18,40h2v2H18Z" fill="#f2f2f2"/>
        <path id="Trazado_1223897" data-name="Trazado 1223897" d="M18,34H35v2H18Z" fill="#f2f2f2"/>
        <path id="Trazado_1223898" data-name="Trazado 1223898" d="M18,37H35v2H18Z" fill="#f2f2f2"/>
        <path id="Trazado_1223899" data-name="Trazado 1223899" d="M22,40H35v2H22Z" fill="#f2f2f2"/>
        <path id="Trazado_1223900" data-name="Trazado 1223900" d="M18,43H31v2H18Z" fill="#f2f2f2"/>
        <path id="Trazado_1223901" data-name="Trazado 1223901" d="M33,43h2v2H33Z" fill="#f2f2f2"/>
      </g>
      <path id="Trazado_1223902" data-name="Trazado 1223902" d="M42,43l-9,9H52V43Z" fill="#f4a93c"/>
      <path id="Trazado_1223903" data-name="Trazado 1223903" d="M52,61l4-3c4.258-3.679,6-9.5,6-15a6.087,6.087,0,0,1-6-6H48a6.087,6.087,0,0,1-6,6c0,5.5,1.742,11.321,6,15Z" fill="#e1656e"/>
      <path id="Trazado_1223904" data-name="Trazado 1223904" d="M48,37a6.087,6.087,0,0,1-6,6c0,5.5,1.742,11.321,6,15l4,3V37Z" fill="#ba4753"/>
      <path id="Trazado_1223905" data-name="Trazado 1223905" d="M56,46H55V44a3,3,0,0,0-6,0v2H48a1,1,0,0,0-1,1v7a1,1,0,0,0,1,1h8a1,1,0,0,0,1-1V47A1,1,0,0,0,56,46Zm-5-2a1,1,0,0,1,2,0v2H51Zm4,9H49V48h6Z" fill="#f2f2f2"/>
      <path id="Trazado_1223906" data-name="Trazado 1223906" d="M38,25a9,9,0,1,0-9-9,9,9,0,0,0,9,9Zm-3.975-3.245a3.981,3.981,0,0,1,7.95,0,6.968,6.968,0,0,1-7.95,0ZM38,9a6.987,6.987,0,0,1,5.678,11.077,5.992,5.992,0,0,0-11.356,0A6.987,6.987,0,0,1,38,9Z"/>
      <path id="Trazado_1223907" data-name="Trazado 1223907" d="M41,13a3,3,0,1,0-3,3A3,3,0,0,0,41,13Zm-3,1a1,1,0,1,1,1-1A1,1,0,0,1,38,14Z"/>
      <path id="Trazado_1223908" data-name="Trazado 1223908" d="M6,22V45H8V23H18V21H7A1,1,0,0,0,6,22Z"/>
      <path id="Trazado_1223909" data-name="Trazado 1223909" d="M62,42a5.067,5.067,0,0,1-5-5,1,1,0,0,0-1-1H53V28a1,1,0,0,0-1-1V6a3,3,0,0,1,3-3,1,1,0,0,0,0-2H29a5.006,5.006,0,0,0-5,5V17.586l-1.293-1.293A1,1,0,0,0,22,16H2a1,1,0,0,0-1,1V52a1,1,0,0,0,1,1H43.124A17.229,17.229,0,0,0,47.4,58.8l4,3a1,1,0,0,0,1.2,0l4.054-3.043C60.687,55.272,63,49.529,63,43a1,1,0,0,0-1-1ZM29,3H51a4.98,4.98,0,0,0-1,3V27H34.277l-4.762-2.857A1,1,0,0,0,29,24H26V6A3,3,0,0,1,29,3ZM11,25V51H8V47H6v4H3V18H21.586L24,20.414V21H20v2h4v1H12A1,1,0,0,0,11,25Zm2,26V26H28.723l4.762,2.857A1,1,0,0,0,34,29H51v7H48a1,1,0,0,0-1,1,5.067,5.067,0,0,1-5,5,1,1,0,0,0-1,1,24.432,24.432,0,0,0,1.314,8Zm42.4,6.2L52,59.75l-3.346-2.507c-3.406-2.942-5.435-7.761-5.637-13.32A7.143,7.143,0,0,0,48.925,38h6.15a7.143,7.143,0,0,0,5.908,5.923C60.781,49.482,58.755,54.3,55.4,57.2Z"/>
      <path id="Trazado_1223910" data-name="Trazado 1223910" d="M18,34H35v2H18Z"/>
      <path id="Trazado_1223911" data-name="Trazado 1223911" d="M18,37H35v2H18Z"/>
      <path id="Trazado_1223912" data-name="Trazado 1223912" d="M18,40h2v2H18Z"/>
      <path id="Trazado_1223913" data-name="Trazado 1223913" d="M22,40H35v2H22Z"/>
      <path id="Trazado_1223914" data-name="Trazado 1223914" d="M18,43H31v2H18Z"/>
      <path id="Trazado_1223915" data-name="Trazado 1223915" d="M33,43h2v2H33Z"/>
      <path id="Trazado_1223916" data-name="Trazado 1223916" d="M56,46H55V44a3,3,0,0,0-6,0v2H48a1,1,0,0,0-1,1v7a1,1,0,0,0,1,1h8a1,1,0,0,0,1-1V47A1,1,0,0,0,56,46Zm-5-2a1,1,0,0,1,2,0v2H51Zm4,9H49V48h6Z"/>
    </g>
  </g>
</svg>
