<svg xmlns="http://www.w3.org/2000/svg" xmlns:xlink="http://www.w3.org/1999/xlink" width="106.16" height="106.16" viewBox="0 0 106.16 106.16">
  <defs>
    <filter id="Trazado_982547" x="0" y="0" width="106.16" height="106.16" filterUnits="userSpaceOnUse">
      <feOffset dy="3" input="SourceAlpha"/>
      <feGaussianBlur stdDeviation="3" result="blur"/>
      <feFlood flood-opacity="0.161"/>
      <feComposite operator="in" in2="blur"/>
      <feComposite in="SourceGraphic"/>
    </filter>
  </defs>
  <g id="Grupo_1234558" data-name="Grupo 1234558" transform="translate(-190.75 -3625.602)">
    <g id="Grupo_1234361" data-name="Grupo 1234361" transform="translate(0 -3296.065)">
      <g id="Grupo_1230976" data-name="Grupo 1230976" transform="translate(0 -511.747)">
        <g id="Grupo_1230693" data-name="Grupo 1230693" transform="translate(-0.25 3971.95)">
          <g id="Grupo_1224851" data-name="Grupo 1224851" transform="translate(0 1738.464)">
            <g id="Grupo_1206130" data-name="Grupo 1206130" transform="translate(0 -59)">
              <g id="Grupo_1203672" data-name="Grupo 1203672" transform="translate(0.08 -4797.878)">
                <g id="Grupo_1203344" data-name="Grupo 1203344" transform="translate(-81.08 5174.875)">
                  <g id="Grupo_1177900" data-name="Grupo 1177900" transform="translate(281 1411.003)">
                    <g id="Grupo_1172010" data-name="Grupo 1172010" transform="translate(0)">
                      <g id="Grupo_1171046" data-name="Grupo 1171046">
                        <g id="Grupo_1148525" data-name="Grupo 1148525">
                          <g transform="matrix(1, 0, 0, 1, -9, -6)" filter="url(#Trazado_982547)">
                            <g id="Trazado_982547-2" data-name="Trazado 982547" transform="translate(9 6)" fill="#e5ebfb">
                              <path d="M 44.0802001953125 86.660400390625 C 38.33124923706055 86.660400390625 32.75506210327148 85.53479766845703 27.50652503967285 83.31484985351562 C 22.43628692626953 81.17032623291016 17.88242530822754 78.09992218017578 13.97144985198975 74.18894958496094 C 10.06047534942627 70.27797698974609 6.99007511138916 65.72411346435547 4.845550060272217 60.65387344360352 C 2.625600099563599 55.40533828735352 1.500000238418579 49.82915115356445 1.500000238418579 44.0802001953125 C 1.500000238418579 38.33124923706055 2.625600099563599 32.75506210327148 4.845550060272217 27.50652503967285 C 6.99007511138916 22.43628692626953 10.06047534942627 17.88242530822754 13.97144985198975 13.97144985198975 C 17.88242530822754 10.06047534942627 22.43628692626953 6.99007511138916 27.50652503967285 4.845550060272217 C 32.75506210327148 2.625600099563599 38.33124923706055 1.500000238418579 44.0802001953125 1.500000238418579 C 49.82915115356445 1.500000238418579 55.40533828735352 2.625600099563599 60.65387344360352 4.845550060272217 C 65.72411346435547 6.99007511138916 70.27797698974609 10.06047534942627 74.18894958496094 13.97144985198975 C 78.09992218017578 17.88242530822754 81.17032623291016 22.43628692626953 83.31484985351562 27.50652503967285 C 85.53479766845703 32.75506210327148 86.660400390625 38.33124923706055 86.660400390625 44.0802001953125 C 86.660400390625 49.82915115356445 85.53479766845703 55.40533828735352 83.31484985351562 60.65387344360352 C 81.17032623291016 65.72411346435547 78.09992218017578 70.27797698974609 74.18894958496094 74.18894958496094 C 70.27797698974609 78.09992218017578 65.72411346435547 81.17032623291016 60.65387344360352 83.31484985351562 C 55.40533828735352 85.53479766845703 49.82915115356445 86.660400390625 44.0802001953125 86.660400390625 Z" stroke="none"/>
                              <path d="M 44.0802001953125 3 C 38.53308486938477 3 33.15349960327148 4.085746765136719 28.09085845947266 6.227058410644531 C 23.19941711425781 8.29595947265625 18.80581665039062 11.25841522216797 15.03211212158203 15.03211212158203 C 11.25841522216797 18.80581665039062 8.29595947265625 23.19941711425781 6.227058410644531 28.09085845947266 C 4.085746765136719 33.15349960327148 3 38.53308486938477 3 44.0802001953125 C 3 49.62731552124023 4.085746765136719 55.00691604614258 6.227058410644531 60.06954193115234 C 8.29595947265625 64.96098327636719 11.25841522216797 69.35458374023438 15.03211212158203 73.12828826904297 C 18.80581665039062 76.90198516845703 23.19941711425781 79.86444091796875 28.09085845947266 81.93334197998047 C 33.15349960327148 84.07466125488281 38.53308486938477 85.160400390625 44.0802001953125 85.160400390625 C 49.62731552124023 85.160400390625 55.00691604614258 84.07466125488281 60.06954193115234 81.93334197998047 C 64.96099853515625 79.86444091796875 69.35458374023438 76.90198516845703 73.12828826904297 73.12828826904297 C 76.90198516845703 69.35458374023438 79.86444091796875 64.96099853515625 81.93334197998047 60.06954193115234 C 84.07466125488281 55.00691604614258 85.160400390625 49.62731552124023 85.160400390625 44.0802001953125 C 85.160400390625 38.53308486938477 84.07466125488281 33.15349960327148 81.93334197998047 28.09085845947266 C 79.86444091796875 23.19941711425781 76.90198516845703 18.80581665039062 73.12828826904297 15.03211212158203 C 69.35458374023438 11.25841522216797 64.96098327636719 8.29595947265625 60.06954193115234 6.227058410644531 C 55.00691604614258 4.085746765136719 49.62731552124023 3 44.0802001953125 3 M 44.0802001953125 0 C 68.42502593994141 0 88.160400390625 19.73538970947266 88.160400390625 44.0802001953125 C 88.160400390625 68.42502593994141 68.42502593994141 88.160400390625 44.0802001953125 88.160400390625 C 19.73538970947266 88.160400390625 0 68.42502593994141 0 44.0802001953125 C 0 19.73538970947266 19.73538970947266 0 44.0802001953125 0 Z" stroke="none" fill="#0b47db"/>
                            </g>
                          </g>
                        </g>
                      </g>
                    </g>
                  </g>
                </g>
              </g>
            </g>
          </g>
        </g>
      </g>
    </g>
    <g id="Page-1" transform="translate(213.834 3642.782)">
      <g id="_038---Weak-Password" data-name="038---Weak-Password">
        <g id="Icons" transform="translate(1 1)">
          <path id="Shape" d="M54.086,58H23.914a3.888,3.888,0,0,1-3.3-5.976l15.71-24.562a3.18,3.18,0,0,1,5.352,0L57.383,52.024A3.888,3.888,0,0,1,54.086,58Z" fill="#f44335"/>
          <path id="Shape-2" data-name="Shape" d="M57.383,52.024,41.676,27.462A3.182,3.182,0,0,0,37.5,26.373a3.146,3.146,0,0,1,1.176,1.089L54.383,52.024A3.888,3.888,0,0,1,51.086,58h3a3.888,3.888,0,0,0,3.3-5.976Z" fill="#c81e1e"/>
          <circle id="Oval" cx="2" cy="2" r="2" transform="translate(37 49)" fill="#f5f5f5"/>
          <rect id="Rectangle-path" width="4" height="12" rx="2" transform="translate(37 33)" fill="#f5f5f5"/>
          <path id="Shape-3" data-name="Shape" d="M23.19,48H4a4,4,0,0,1-4-4V22a4,4,0,0,1,4-4H28a4,4,0,0,1,4,4V34.22Z" fill="#ffdc00"/>
          <path id="Shape-4" data-name="Shape" d="M28,18H25a4,4,0,0,1,4,4V34.22L20.19,48h3L32,34.22V22A4,4,0,0,0,28,18Z" fill="#fec108"/>
          <path id="Shape-5" data-name="Shape" d="M26,10v2a2,2,0,0,1-4,0V10a6,6,0,0,0-12,0v8H6V10a10,10,0,0,1,20,0Z" fill="#9e9e9e"/>
          <path id="Shape-6" data-name="Shape" d="M16,0a10.029,10.029,0,0,0-1.5.125A9.993,9.993,0,0,1,23,10v2a1.985,1.985,0,0,1-.5,1.31A1.992,1.992,0,0,0,26,12V10A10,10,0,0,0,16,0Z" fill="#707070"/>
          <rect id="Rectangle-path-2" data-name="Rectangle-path" width="22" height="10" rx="5" transform="translate(5 28)" fill="#7f8e94"/>
          <path id="Shape-7" data-name="Shape" d="M22,28H19a5,5,0,0,1,0,10h3a5,5,0,0,0,0-10Z" fill="#545c60"/>
        </g>
        <g id="Icons_copy">
          <path id="Shape-8" data-name="Shape" d="M43.519,27.923a4.181,4.181,0,0,0-7.038,0L34,31.8V23a5.006,5.006,0,0,0-5-5H12V11a5,5,0,0,1,10,0v2a3,3,0,0,0,6,0V11A11,11,0,0,0,6,11v7H5a5.006,5.006,0,0,0-5,5V45a5.006,5.006,0,0,0,5,5H22.363l-1.589,2.485A4.888,4.888,0,0,0,24.914,60H55.086a4.888,4.888,0,0,0,4.14-7.515ZM8,11a9,9,0,0,1,18,0v2a1,1,0,0,1-2,0V11a7,7,0,0,0-14,0v7H8ZM5,48a3,3,0,0,1-3-3V23a3,3,0,0,1,3-3H29a3,3,0,0,1,3,3V34.931L23.642,48Zm52.641,8.492A2.874,2.874,0,0,1,55.086,58H24.914a2.874,2.874,0,0,1-2.555-1.508,2.84,2.84,0,0,1,.1-2.93L38.167,29a2.18,2.18,0,0,1,3.666,0L57.54,53.562a2.84,2.84,0,0,1,.1,2.93Z"/>
          <path id="Shape-9" data-name="Shape" d="M40,49a3,3,0,1,0,3,3A3,3,0,0,0,40,49Zm0,4a1,1,0,1,1,1-1A1,1,0,0,1,40,53Z"/>
          <path id="Shape-10" data-name="Shape" d="M40,33a3,3,0,0,0-3,3v8a3,3,0,0,0,6,0V36A3,3,0,0,0,40,33Zm1,11a1,1,0,0,1-2,0V36a1,1,0,0,1,2,0Z"/>
          <path id="Shape-11" data-name="Shape" d="M12.707,32.293a1,1,0,0,0-1.414,0L11,32.586l-.293-.293a1,1,0,0,0-1.414,1.414L9.586,34l-.293.293a1,1,0,1,0,1.414,1.414L11,35.414l.293.293a1,1,0,0,0,1.414-1.414L12.414,34l.293-.293a1,1,0,0,0,0-1.414Z"/>
          <path id="Shape-12" data-name="Shape" d="M18.707,32.293a1,1,0,0,0-1.414,0L17,32.586l-.293-.293a1,1,0,0,0-1.414,1.414l.293.293-.293.293a1,1,0,1,0,1.414,1.414L17,35.414l.293.293a1,1,0,0,0,1.414-1.414L18.414,34l.293-.293A1,1,0,0,0,18.707,32.293Z"/>
          <path id="Shape-13" data-name="Shape" d="M24.707,32.293a1,1,0,0,0-1.414,0L23,32.586l-.293-.293a1,1,0,0,0-1.414,1.414l.293.293-.293.293a1,1,0,1,0,1.414,1.414L23,35.414l.293.293a1,1,0,0,0,1.414-1.414L24.414,34l.293-.293A1,1,0,0,0,24.707,32.293Z"/>
          <path id="Shape-14" data-name="Shape" d="M23,28H11a6,6,0,0,0,0,12H23a6,6,0,0,0,0-12Zm0,10H11a4,4,0,0,1,0-8H23a4,4,0,0,1,0,8Z"/>
        </g>
      </g>
    </g>
  </g>
</svg>
