<svg xmlns="http://www.w3.org/2000/svg" xmlns:xlink="http://www.w3.org/1999/xlink" width="103" height="103" viewBox="0 0 103 103">
  <defs>
    <filter id="Trazado_978624" x="0" y="0" width="103" height="103" filterUnits="userSpaceOnUse">
      <feOffset dy="3" input="SourceAlpha"/>
      <feGaussianBlur stdDeviation="3" result="blur"/>
      <feFlood flood-opacity="0.161"/>
      <feComposite operator="in" in2="blur"/>
      <feComposite in="SourceGraphic"/>
    </filter>
  </defs>
  <g id="Grupo_1234662" data-name="Grupo 1234662" transform="translate(-171.869 -3120.321)">
    <g id="Grupo_1227969" data-name="Grupo 1227969" transform="translate(0 1337.993)">
      <g id="Grupo_1227500" data-name="Grupo 1227500" transform="translate(0.869 640.328)">
        <g id="Grupo_1225355" data-name="Grupo 1225355" transform="translate(180 1148)">
          <g id="Grupo_1176881" data-name="Grupo 1176881">
            <g id="Grupo_1175148" data-name="Grupo 1175148">
              <g id="Grupo_1173798" data-name="Grupo 1173798">
                <g id="Grupo_1171925" data-name="Grupo 1171925">
                  <g id="Grupo_1164524" data-name="Grupo 1164524">
                    <g id="Grupo_1144123" data-name="Grupo 1144123">
                      <g transform="matrix(1, 0, 0, 1, -9, -6)" filter="url(#Trazado_978624)">
                        <g id="Trazado_978624-2" data-name="Trazado 978624" transform="translate(9 6)" fill="#f6ecfe">
                          <path d="M 42.5 83.5 C 36.96437835693359 83.5 31.59512901306152 82.41617584228516 26.54141235351562 80.27863311767578 C 21.65934181213379 78.21369171142578 17.27447128295898 75.25723266601562 13.50862312316895 71.49137878417969 C 9.742764472961426 67.72553253173828 6.786305904388428 63.34066009521484 4.721364498138428 58.45858764648438 C 2.583823442459106 53.40486907958984 1.5 48.03562164306641 1.5 42.5 C 1.5 36.96437835693359 2.583823442459106 31.59512901306152 4.721364498138428 26.54141235351562 C 6.786305904388428 21.65934181213379 9.742764472961426 17.27447128295898 13.50862312316895 13.50862312316895 C 17.27447128295898 9.742764472961426 21.65934181213379 6.786305904388428 26.54141235351562 4.721364498138428 C 31.59512901306152 2.583823442459106 36.96437835693359 1.5 42.5 1.5 C 48.03562164306641 1.5 53.40486907958984 2.583823442459106 58.45858764648438 4.721364498138428 C 63.34066009521484 6.786305904388428 67.72553253173828 9.742764472961426 71.49137878417969 13.50862312316895 C 75.25723266601562 17.27447128295898 78.21369171142578 21.65934181213379 80.27863311767578 26.54141235351562 C 82.41617584228516 31.59512901306152 83.5 36.96437835693359 83.5 42.5 C 83.5 48.03562164306641 82.41617584228516 53.40486907958984 80.27863311767578 58.45858764648438 C 78.21369171142578 63.34066009521484 75.25723266601562 67.72553253173828 71.49137878417969 71.49137878417969 C 67.72553253173828 75.25723266601562 63.34066009521484 78.21369171142578 58.45858764648438 80.27863311767578 C 53.40486907958984 82.41617584228516 48.03562164306641 83.5 42.5 83.5 Z" stroke="none"/>
                          <path d="M 42.5 3 C 37.16621398925781 3 31.99356079101562 4.043960571289062 27.125732421875 6.102882385253906 C 22.42246627807617 8.092185974121094 18.19785308837891 10.94070434570312 14.56928253173828 14.56928253173828 C 10.94070434570312 18.19785308837891 8.092185974121094 22.42246627807617 6.102882385253906 27.125732421875 C 4.043960571289062 31.99356079101562 3 37.16621398925781 3 42.5 C 3 47.83378601074219 4.043960571289062 53.00643920898438 6.102882385253906 57.87425231933594 C 8.092185974121094 62.57753372192383 10.94070434570312 66.80213165283203 14.56928253173828 70.43071746826172 C 18.19786834716797 74.05929565429688 22.42246627807617 76.90781402587891 27.125732421875 78.89711761474609 C 31.99356079101562 80.95603942871094 37.16621398925781 82 42.5 82 C 47.83378601074219 82 53.00642395019531 80.95603942871094 57.87425231933594 78.89711761474609 C 62.57753372192383 76.90781402587891 66.80213165283203 74.05929565429688 70.43071746826172 70.43071746826172 C 74.05929565429688 66.80213165283203 76.90781402587891 62.57753372192383 78.89711761474609 57.87425231933594 C 80.95603942871094 53.00642395019531 82 47.83378601074219 82 42.5 C 82 37.16621398925781 80.95603942871094 31.99356079101562 78.89711761474609 27.125732421875 C 76.90781402587891 22.42246627807617 74.05929565429688 18.19786834716797 70.43071746826172 14.56928253173828 C 66.80213165283203 10.94070434570312 62.57753372192383 8.092185974121094 57.87425231933594 6.102882385253906 C 53.00643920898438 4.043960571289062 47.83378601074219 3 42.5 3 M 42.5 0 C 65.97209167480469 0 85 19.02789306640625 85 42.5 C 85 65.97209167480469 65.97209167480469 85 42.5 85 C 19.02789306640625 85 0 65.97209167480469 0 42.5 C 0 19.02789306640625 19.02789306640625 0 42.5 0 Z" stroke="none" fill="#aa52f9"/>
                        </g>
                      </g>
                    </g>
                  </g>
                </g>
              </g>
            </g>
          </g>
        </g>
      </g>
    </g>
    <g id="autorizacion" transform="translate(193.623 3139.763)">
      <g id="Grupo_1234648" data-name="Grupo 1234648" transform="translate(4.846 0.851)">
        <path id="Trazado_1224382" data-name="Trazado 1224382" d="M132.3,7.5h-9.16a7.975,7.975,0,0,0-7.975,7.975v6.511a3.289,3.289,0,0,1,1.741-.5h1v-1.16a3.692,3.692,0,0,1,3.692-3.692h.239a4.777,4.777,0,0,1,2.388.668,4.338,4.338,0,0,0,2.178.583h2.629a4.337,4.337,0,0,0,2.178-.583,4.776,4.776,0,0,1,2.388-.668h.239a3.692,3.692,0,0,1,3.692,3.692v1.16h1a3.288,3.288,0,0,1,1.741.5V15.475A7.975,7.975,0,0,0,132.3,7.5Z" transform="translate(-106.253 -7.5)" fill="#596c76"/>
        <path id="Trazado_1224383" data-name="Trazado 1224383" d="M221.456,7.5h-5.719a7.975,7.975,0,0,1,7.975,7.975v1.232a3.693,3.693,0,0,1,2.976,3.622v1.16h1a3.288,3.288,0,0,1,1.741.5V15.475A7.975,7.975,0,0,0,221.456,7.5Z" transform="translate(-195.407 -7.5)" fill="#465a61"/>
        <path id="Trazado_1224384" data-name="Trazado 1224384" d="M41.332,302.34A7.915,7.915,0,0,1,47,315.786H72.433c-4.922-3.332-8.059-7.826-8.059-14.705,0-.022,0-.046,0-.069h0l-5.32-4.707-.58.532a.548.548,0,0,1-.74,0l-.58-.532-5.808,5.139a.548.548,0,0,1-.911-.41v-6.717l-9.892,3.239a5.675,5.675,0,0,0-3.909,5.394v.936A7.881,7.881,0,0,1,41.332,302.34Z" transform="translate(-36.634 -261.761)" fill="#26a6fe"/>
        <path id="Trazado_1224385" data-name="Trazado 1224385" d="M197.178,306.186a.548.548,0,0,0-.726,0l-3.345,2.96,3.2,6.527a.568.568,0,0,0,1.019,0l3.2-6.527Z" transform="translate(-175.346 -272.16)" fill="#dff6fd"/>
        <g id="Grupo_1234647" data-name="Grupo 1234647" transform="translate(7.227 9.137)">
          <g id="Grupo_1234646" data-name="Grupo 1234646">
            <g id="Grupo_1234645" data-name="Grupo 1234645">
              <g id="Grupo_1234644" data-name="Grupo 1234644">
                <g id="Grupo_1234643" data-name="Grupo 1234643">
                  <g id="Grupo_1234635" data-name="Grupo 1234635" transform="translate(0 4.733)">
                    <g id="Grupo_1234633" data-name="Grupo 1234633">
                      <path id="Trazado_1224386" data-name="Trazado 1224386" d="M104.738,136.858V129.7h-1a3.428,3.428,0,0,0-3.428,3.428v1.032a3.428,3.428,0,0,0,3.428,3.428h1.038C104.751,137.348,104.738,137.1,104.738,136.858Z" transform="translate(-100.308 -129.7)" fill="#ffcebf"/>
                    </g>
                    <g id="Grupo_1234634" data-name="Grupo 1234634" transform="translate(24.018)">
                      <path id="Trazado_1224387" data-name="Trazado 1224387" d="M312.941,129.7h-1v7.158c0,.246-.013.489-.036.729h1.038a3.428,3.428,0,0,0,3.428-3.428v-1.032A3.428,3.428,0,0,0,312.941,129.7Z" transform="translate(-311.903 -129.7)" fill="#ffb09e"/>
                    </g>
                  </g>
                  <g id="Grupo_1234642" data-name="Grupo 1234642" transform="translate(4.43)">
                    <g id="Grupo_1234641" data-name="Grupo 1234641">
                      <path id="Trazado_1224388" data-name="Trazado 1224388" d="M172.458,259.242a1.7,1.7,0,0,1,.92-1.329l.177-.09v-1.4a.548.548,0,0,0-.225-.443l-2.6-1.894a7.386,7.386,0,0,1-2.571.46h-4.545a7.386,7.386,0,0,1-2.571-.46l-2.05,1.494a1.883,1.883,0,0,0-.774,1.522v8.268a.548.548,0,0,0,.911.41l6.395-5.658a.548.548,0,0,1,.726,0l5.907,5.227C172.16,264.06,172.263,261.036,172.458,259.242Z" transform="translate(-156.075 -235.234)" fill="#fff"/>
                      <g id="Grupo_1234636" data-name="Grupo 1234636" transform="translate(5.151 18.925)">
                        <path id="Trazado_1224389" data-name="Trazado 1224389" d="M191.651,255.125h-4.546a7.4,7.4,0,0,1-2.388-.4v2.841a.548.548,0,0,0,.178.4l4.113,3.769a.548.548,0,0,0,.74,0l4.113-3.769a.548.548,0,0,0,.178-.4v-2.841A7.4,7.4,0,0,1,191.651,255.125Z" transform="translate(-184.718 -254.729)" fill="#ffcebf"/>
                      </g>
                      <g id="Grupo_1234637" data-name="Grupo 1234637" transform="translate(7.585 18.925)">
                        <path id="Trazado_1224390" data-name="Trazado 1224390" d="M210.656,255.126h-.985v1.454a.548.548,0,0,1-.178.4l-3.337,3.058,1.857,1.7a.548.548,0,0,0,.74,0l4.113-3.769a.548.548,0,0,0,.178-.4V254.73A7.4,7.4,0,0,1,210.656,255.126Z" transform="translate(-206.156 -254.73)" fill="#ffb09e"/>
                      </g>
                      <g id="Grupo_1234638" data-name="Grupo 1234638">
                        <path id="Trazado_1224391" data-name="Trazado 1224391" d="M155.028,88a4.777,4.777,0,0,0-2.388.668,4.338,4.338,0,0,1-2.178.583h-2.629a4.336,4.336,0,0,1-2.178-.583A4.777,4.777,0,0,0,143.267,88h-.239a3.692,3.692,0,0,0-3.692,3.692v8.2a7.539,7.539,0,0,0,7.539,7.539h4.546a7.539,7.539,0,0,0,7.539-7.539v-8.2A3.692,3.692,0,0,0,155.268,88Z" transform="translate(-139.336 -88)" fill="#ffdfcf"/>
                      </g>
                      <g id="Grupo_1234640" data-name="Grupo 1234640" transform="translate(7.973)">
                        <g id="Grupo_1234639" data-name="Grupo 1234639">
                          <path id="Trazado_1224392" data-name="Trazado 1224392" d="M217.54,88H217.3a4.686,4.686,0,0,0-2.042.486,3.69,3.69,0,0,1,1.862,3.206v8.2a7.539,7.539,0,0,1-7.539,7.539h4.111a7.539,7.539,0,0,0,7.539-7.539v-8.2A3.692,3.692,0,0,0,217.54,88Z" transform="translate(-209.582 -88)" fill="#ffcebf"/>
                        </g>
                      </g>
                    </g>
                  </g>
                </g>
              </g>
            </g>
          </g>
        </g>
      </g>
      <g id="Grupo_1234656" data-name="Grupo 1234656" transform="translate(32.585 27.061)">
        <g id="Grupo_1234650" data-name="Grupo 1234650">
          <g id="Grupo_1234649" data-name="Grupo 1234649">
            <path id="Trazado_1224393" data-name="Trazado 1224393" d="M282.238,244.014a1.7,1.7,0,0,0-.92,1.329c-.2,1.826-.3,4.927-.3,6.175,0,8.525,4.819,13.388,11.881,16.915a1.7,1.7,0,0,0,1.518,0c7.062-3.526,11.881-8.389,11.881-16.915,0-1.247-.1-4.349-.3-6.175a1.7,1.7,0,0,0-.92-1.329l-10.645-5.421a1.7,1.7,0,0,0-1.545,0Z" transform="translate(-281.016 -238.407)" fill="#fff3de"/>
          </g>
        </g>
        <g id="Grupo_1234651" data-name="Grupo 1234651" transform="translate(3.105 3.345)">
          <path id="Trazado_1224394" data-name="Trazado 1224394" d="M318.17,291.317a.568.568,0,0,1-.534,0,20.374,20.374,0,0,1-6.434-5,13.3,13.3,0,0,1-2.834-8.676c0-1.167.078-3.232.189-4.769a.566.566,0,0,1,.308-.464l8.78-4.471a.568.568,0,0,1,.515,0l8.78,4.471a.566.566,0,0,1,.309.464c.111,1.537.189,3.6.189,4.769a13.3,13.3,0,0,1-2.834,8.676A20.376,20.376,0,0,1,318.17,291.317Z" transform="translate(-308.368 -267.877)" fill="#ffe177"/>
        </g>
        <g id="Grupo_1234652" data-name="Grupo 1234652" transform="translate(9.306 6.136)">
          <path id="Trazado_1224395" data-name="Trazado 1224395" d="M375.684,294.669a.566.566,0,0,0-.308-.464l-3.421-1.742a.571.571,0,0,1,.052.2c.112,1.555.191,3.645.191,4.825a13.461,13.461,0,0,1-2.868,8.779,20.406,20.406,0,0,1-6.326,4.958,27.656,27.656,0,0,0,3.066,1.887.568.568,0,0,0,.534,0,20.375,20.375,0,0,0,6.434-5,13.3,13.3,0,0,0,2.834-8.676C375.873,298.271,375.8,296.206,375.684,294.669Z" transform="translate(-363.005 -292.463)" fill="#ffd15b"/>
        </g>
        <g id="Grupo_1234655" data-name="Grupo 1234655" transform="translate(9.168 9.555)">
          <g id="Grupo_1234653" data-name="Grupo 1234653" transform="translate(0 0)">
            <circle id="Elipse_13877" data-name="Elipse 13877" cx="2.587" cy="2.587" r="2.587" transform="translate(0 4.662) rotate(-64.332)" fill="#7a8c98"/>
          </g>
          <g id="Grupo_1234654" data-name="Grupo 1234654" transform="translate(2.384 0.858)">
            <path id="Trazado_1224396" data-name="Trazado 1224396" d="M383.877,330.142a2.577,2.577,0,0,0-1.087.24,2.587,2.587,0,0,1,0,4.695,2.587,2.587,0,1,0,1.087-4.935Z" transform="translate(-382.789 -330.142)" fill="#596c76"/>
          </g>
        </g>
      </g>
      <g id="Grupo_1234660" data-name="Grupo 1234660" transform="translate(1.627 41.43)">
        <g id="Grupo_1234659" data-name="Grupo 1234659">
          <g id="Grupo_1234657" data-name="Grupo 1234657">
            <circle id="Elipse_13878" data-name="Elipse 13878" cx="7.917" cy="7.917" r="7.917" fill="#6cf5c2"/>
          </g>
          <g id="Grupo_1234658" data-name="Grupo 1234658" transform="translate(5.518)">
            <path id="Trazado_1224397" data-name="Trazado 1224397" d="M59.287,365a7.908,7.908,0,0,0-2.4.371,7.919,7.919,0,0,1,0,15.092A7.918,7.918,0,1,0,59.287,365Z" transform="translate(-56.888 -365)" fill="#00f2a6"/>
          </g>
        </g>
      </g>
      <g id="Grupo_1234661" data-name="Grupo 1234661" transform="translate(0.776 0)">
        <path id="Trazado_1224398" data-name="Trazado 1224398" d="M191.114,195.715a3.814,3.814,0,0,0,3.809-3.809.851.851,0,1,0-1.7,0,2.109,2.109,0,0,1-2.107,2.107h-1.443a2.109,2.109,0,0,1-2.107-2.107.851.851,0,1,0-1.7,0,3.814,3.814,0,0,0,3.809,3.809Z" transform="translate(-164.853 -169.368)"/>
        <path id="Trazado_1224399" data-name="Trazado 1224399" d="M175.679,128.375v-1.84a.851.851,0,0,0-1.7,0v1.84a.851.851,0,0,0,1.7,0Z" transform="translate(-154.316 -111.418)"/>
        <path id="Trazado_1224400" data-name="Trazado 1224400" d="M263.429,129.226a.851.851,0,0,0,.851-.851v-1.84a.851.851,0,0,0-1.7,0v1.84A.851.851,0,0,0,263.429,129.226Z" transform="translate(-232.861 -111.418)"/>
        <path id="Trazado_1224401" data-name="Trazado 1224401" d="M208.113,141.942a.851.851,0,0,0,0-1.7.559.559,0,1,1,0-1.118.851.851,0,0,0,0-1.7,2.262,2.262,0,0,0,0,4.523Z" transform="translate(-182.573 -121.82)"/>
        <path id="Trazado_1224402" data-name="Trazado 1224402" d="M58.409,33.9a2.542,2.542,0,0,0-1.38-2L46.384,26.488a2.562,2.562,0,0,0-2.318,0l-9.231,4.7v-.011a1.4,1.4,0,0,0-.575-1.131l-1.346-.98a8.413,8.413,0,0,0,3.912-5.605h.3a4.284,4.284,0,0,0,4.279-4.279V18.15a4.274,4.274,0,0,0-1.686-3.4V8.827A8.837,8.837,0,0,0,30.9,0h-9.16a8.837,8.837,0,0,0-8.827,8.827v.14a.851.851,0,1,0,1.7,0v-.14A7.132,7.132,0,0,1,21.736,1.7H30.9a7.132,7.132,0,0,1,7.124,7.124v5.138a4.276,4.276,0,0,0-.89-.094h-.151v-.19a4.548,4.548,0,0,0-4.543-4.543H32.2a5.647,5.647,0,0,0-2.814.782,3.5,3.5,0,0,1-1.752.468H25a3.5,3.5,0,0,1-1.752-.468,5.646,5.646,0,0,0-2.814-.782H20.2a4.548,4.548,0,0,0-4.543,4.543v.19H15.5a4.276,4.276,0,0,0-.89.094V12.94a.851.851,0,1,0-1.7,0v1.809a4.274,4.274,0,0,0-1.686,3.4v1.032A4.284,4.284,0,0,0,15.5,23.461h.3a8.412,8.412,0,0,0,3.913,5.605l-.8.58a2.743,2.743,0,0,0-1.124,2.21v.934L8.49,35.838a6.513,6.513,0,0,0-4.5,6.2v.524A8.763,8.763,0,1,0,15.55,55.728H20.1a.851.851,0,1,0,0-1.7H16.956A8.765,8.765,0,0,0,5.733,41.452a4.812,4.812,0,0,1,3.287-4L17.8,34.582v5.543A1.383,1.383,0,0,0,18.62,41.4a1.41,1.41,0,0,0,.58.126,1.387,1.387,0,0,0,.922-.354l2.213-1.958,2.707,5.524a1.419,1.419,0,0,0,2.548,0L30.3,39.214l1.44,1.274A17.055,17.055,0,0,0,35.2,51.021a19.186,19.186,0,0,0,2.9,3H24.071a.851.851,0,1,0,0,1.7H40.393a34.711,34.711,0,0,0,3.693,2.12,2.562,2.562,0,0,0,2.278,0,24.808,24.808,0,0,0,8.884-6.826,17.155,17.155,0,0,0,3.468-10.85c0-1.236-.1-4.387-.307-6.266ZM37.129,15.573a2.579,2.579,0,0,1,2.577,2.577v1.032a2.579,2.579,0,0,1-2.577,2.576h-.151V15.573Zm-24.2,3.609V18.15A2.579,2.579,0,0,1,15.5,15.573h.151v6.185H15.5a2.579,2.579,0,0,1-2.577-2.576ZM16.61,49.348a7.066,7.066,0,1,1-7.066-7.066A7.074,7.074,0,0,1,16.61,49.348Zm.745-27.467v-8.2A2.844,2.844,0,0,1,20.2,10.84h.239a3.946,3.946,0,0,1,1.962.553,5.208,5.208,0,0,0,2.6.7H27.63a5.208,5.208,0,0,0,2.6-.7A3.945,3.945,0,0,1,32.2,10.84h.239a2.844,2.844,0,0,1,2.841,2.841v8.2a6.7,6.7,0,0,1-6.688,6.688H24.043a6.7,6.7,0,0,1-6.688-6.688Zm6.688,8.39h4.546a8.4,8.4,0,0,0,1.536-.143v1.494l-3.809,3.491-3.809-3.491V30.127a8.4,8.4,0,0,0,1.537.143ZM19.5,39.451V31.857a1.035,1.035,0,0,1,.424-.834l.881-.642v1.374a1.4,1.4,0,0,0,.454,1.031l2.836,2.6Zm6.817,4.018-2.658-5.425,1.7-1.5.015.014a1.391,1.391,0,0,0,1.89,0l.015-.014,1.7,1.5ZM32.041,33.9c-.131,1.205-.22,2.933-.267,4.343l-3.236-2.863,2.836-2.6a1.4,1.4,0,0,0,.454-1.031V30.381l1.305.951v.748A2.539,2.539,0,0,0,32.041,33.9ZM45.6,56.324a.851.851,0,0,1-.757,0c-7.891-3.94-11.41-8.922-11.41-16.153,0-1.2.1-4.264.3-6.083a.845.845,0,0,1,.46-.663l10.645-5.421a.854.854,0,0,1,.773,0l10.645,5.421a.845.845,0,0,1,.46.663c.2,1.819.3,4.88.3,6.083,0,7.231-3.519,12.213-11.41,16.153Z" transform="translate(-0.776 0)"/>
        <path id="Trazado_1224403" data-name="Trazado 1224403" d="M320.677,265.006l-8.78-4.471a1.423,1.423,0,0,0-1.288,0l-2.809,1.43a.851.851,0,1,0,.773,1.517l2.68-1.365,8.508,4.333c.1,1.438.176,3.4.176,4.547a12.484,12.484,0,0,1-2.647,8.143,19.341,19.341,0,0,1-6.037,4.709,19.339,19.339,0,0,1-6.037-4.709A12.485,12.485,0,0,1,302.57,271c0-1.147.076-3.108.176-4.547l2.287-1.165a.851.851,0,0,0-.773-1.517l-2.431,1.238a1.426,1.426,0,0,0-.771,1.161c-.109,1.509-.191,3.585-.191,4.83a14.121,14.121,0,0,0,3.021,9.208,21.145,21.145,0,0,0,6.7,5.217,1.415,1.415,0,0,0,1.337,0,21.148,21.148,0,0,0,6.7-5.217A14.12,14.12,0,0,0,321.64,271c0-1.245-.082-3.321-.191-4.83A1.425,1.425,0,0,0,320.677,265.006Z" transform="translate(-266.804 -230.826)"/>
        <path id="Trazado_1224404" data-name="Trazado 1224404" d="M365.516,333.451a.851.851,0,0,0,.851-.851v-3.188a3.438,3.438,0,1,0-1.7,0V332.6A.851.851,0,0,0,365.516,333.451Zm-1.736-7.371a1.736,1.736,0,1,1,1.736,1.736A1.738,1.738,0,0,1,363.781,326.08Z" transform="translate(-321.067 -286.02)"/>
        <path id="Trazado_1224405" data-name="Trazado 1224405" d="M38.547,409.183a.852.852,0,0,0,.6.249c.025,0,.049,0,.074,0a.851.851,0,0,0,.623-.36l4.291-6.129a.851.851,0,1,0-1.395-.976l-3.709,5.3-2.6-2.6a.851.851,0,1,0-1.2,1.2Z" transform="translate(-31.095 -356.015)"/>
      </g>
    </g>
  </g>
</svg>
