<svg xmlns="http://www.w3.org/2000/svg" xmlns:xlink="http://www.w3.org/1999/xlink" width="106.16" height="106.16" viewBox="0 0 106.16 106.16">
  <defs>
    <filter id="Trazado_982547" x="0" y="0" width="106.16" height="106.16" filterUnits="userSpaceOnUse">
      <feOffset dy="3" input="SourceAlpha"/>
      <feGaussianBlur stdDeviation="3" result="blur"/>
      <feFlood flood-opacity="0.161"/>
      <feComposite operator="in" in2="blur"/>
      <feComposite in="SourceGraphic"/>
    </filter>
  </defs>
  <g id="Grupo_1234559" data-name="Grupo 1234559" transform="translate(-820.25 -3625.602)">
    <g id="Grupo_1234362" data-name="Grupo 1234362" transform="translate(0 -3296.065)">
      <g id="Grupo_1230979" data-name="Grupo 1230979" transform="translate(0 -511.747)">
        <g id="Grupo_1230694" data-name="Grupo 1230694" transform="translate(-0.25 3971.95)">
          <g id="Grupo_1224852" data-name="Grupo 1224852" transform="translate(629.5 1738.464)">
            <g id="Grupo_1206130" data-name="Grupo 1206130" transform="translate(0 -59)">
              <g id="Grupo_1203672" data-name="Grupo 1203672" transform="translate(0.08 -4797.878)">
                <g id="Grupo_1203344" data-name="Grupo 1203344" transform="translate(-81.08 5174.875)">
                  <g id="Grupo_1177900" data-name="Grupo 1177900" transform="translate(281 1411.003)">
                    <g id="Grupo_1172010" data-name="Grupo 1172010" transform="translate(0)">
                      <g id="Grupo_1171046" data-name="Grupo 1171046">
                        <g id="Grupo_1148525" data-name="Grupo 1148525">
                          <g transform="matrix(1, 0, 0, 1, -9, -6)" filter="url(#Trazado_982547)">
                            <g id="Trazado_982547-2" data-name="Trazado 982547" transform="translate(9 6)" fill="#e5ebfb">
                              <path d="M 44.0802001953125 86.660400390625 C 38.33124923706055 86.660400390625 32.75506210327148 85.53479766845703 27.50652503967285 83.31484985351562 C 22.43628692626953 81.17032623291016 17.88242530822754 78.09992218017578 13.97144985198975 74.18894958496094 C 10.06047534942627 70.27797698974609 6.99007511138916 65.72411346435547 4.845550060272217 60.65387344360352 C 2.625600099563599 55.40533828735352 1.500000238418579 49.82915115356445 1.500000238418579 44.0802001953125 C 1.500000238418579 38.33124923706055 2.625600099563599 32.75506210327148 4.845550060272217 27.50652503967285 C 6.99007511138916 22.43628692626953 10.06047534942627 17.88242530822754 13.97144985198975 13.97144985198975 C 17.88242530822754 10.06047534942627 22.43628692626953 6.99007511138916 27.50652503967285 4.845550060272217 C 32.75506210327148 2.625600099563599 38.33124923706055 1.500000238418579 44.0802001953125 1.500000238418579 C 49.82915115356445 1.500000238418579 55.40533828735352 2.625600099563599 60.65387344360352 4.845550060272217 C 65.72411346435547 6.99007511138916 70.27797698974609 10.06047534942627 74.18894958496094 13.97144985198975 C 78.09992218017578 17.88242530822754 81.17032623291016 22.43628692626953 83.31484985351562 27.50652503967285 C 85.53479766845703 32.75506210327148 86.660400390625 38.33124923706055 86.660400390625 44.0802001953125 C 86.660400390625 49.82915115356445 85.53479766845703 55.40533828735352 83.31484985351562 60.65387344360352 C 81.17032623291016 65.72411346435547 78.09992218017578 70.27797698974609 74.18894958496094 74.18894958496094 C 70.27797698974609 78.09992218017578 65.72411346435547 81.17032623291016 60.65387344360352 83.31484985351562 C 55.40533828735352 85.53479766845703 49.82915115356445 86.660400390625 44.0802001953125 86.660400390625 Z" stroke="none"/>
                              <path d="M 44.0802001953125 3 C 38.53308486938477 3 33.15349960327148 4.085746765136719 28.09085845947266 6.227058410644531 C 23.19941711425781 8.29595947265625 18.80581665039062 11.25841522216797 15.03211212158203 15.03211212158203 C 11.25841522216797 18.80581665039062 8.29595947265625 23.19941711425781 6.227058410644531 28.09085845947266 C 4.085746765136719 33.15349960327148 3 38.53308486938477 3 44.0802001953125 C 3 49.62731552124023 4.085746765136719 55.00691604614258 6.227058410644531 60.06954193115234 C 8.29595947265625 64.96098327636719 11.25841522216797 69.35458374023438 15.03211212158203 73.12828826904297 C 18.80581665039062 76.90198516845703 23.19941711425781 79.86444091796875 28.09085845947266 81.93334197998047 C 33.15349960327148 84.07466125488281 38.53308486938477 85.160400390625 44.0802001953125 85.160400390625 C 49.62731552124023 85.160400390625 55.00691604614258 84.07466125488281 60.06954193115234 81.93334197998047 C 64.96099853515625 79.86444091796875 69.35458374023438 76.90198516845703 73.12828826904297 73.12828826904297 C 76.90198516845703 69.35458374023438 79.86444091796875 64.96099853515625 81.93334197998047 60.06954193115234 C 84.07466125488281 55.00691604614258 85.160400390625 49.62731552124023 85.160400390625 44.0802001953125 C 85.160400390625 38.53308486938477 84.07466125488281 33.15349960327148 81.93334197998047 28.09085845947266 C 79.86444091796875 23.19941711425781 76.90198516845703 18.80581665039062 73.12828826904297 15.03211212158203 C 69.35458374023438 11.25841522216797 64.96098327636719 8.29595947265625 60.06954193115234 6.227058410644531 C 55.00691604614258 4.085746765136719 49.62731552124023 3 44.0802001953125 3 M 44.0802001953125 0 C 68.42502593994141 0 88.160400390625 19.73538970947266 88.160400390625 44.0802001953125 C 88.160400390625 68.42502593994141 68.42502593994141 88.160400390625 44.0802001953125 88.160400390625 C 19.73538970947266 88.160400390625 0 68.42502593994141 0 44.0802001953125 C 0 19.73538970947266 19.73538970947266 0 44.0802001953125 0 Z" stroke="none" fill="#0b47db"/>
                            </g>
                          </g>
                        </g>
                      </g>
                    </g>
                  </g>
                </g>
              </g>
            </g>
          </g>
        </g>
      </g>
    </g>
    <g id="deteccion-de-rostro" transform="translate(811.198 3649.895)">
      <path id="Trazado_1223917" data-name="Trazado 1223917" d="M162.49,25.589a17.111,17.111,0,0,0,1.186-6.26V17.37a7.37,7.37,0,0,0-7.37-7.37,3.536,3.536,0,0,0-2.464,1,1.093,1.093,0,0,1-1.527,0,3.536,3.536,0,0,0-2.464-1,11.358,11.358,0,0,0-10.54,15.573Z" transform="translate(-88.795 -8.924)" fill="#a7bdcd"/>
      <path id="Trazado_1223918" data-name="Trazado 1223918" d="M70.246,341.938a34.758,34.758,0,0,0-9.773,3.991A13.334,13.334,0,0,0,54,357.368v1.361H97.037v-1.361a13.334,13.334,0,0,0-6.473-11.439,34.756,34.756,0,0,0-9.773-3.991Z" transform="translate(-13.386 -305.148)" fill="#bfdbff"/>
      <path id="Trazado_1223919" data-name="Trazado 1223919" d="M144.431,82.638a2.2,2.2,0,0,0-1.914.094,6.047,6.047,0,0,0-3.419-4.643,4.512,4.512,0,0,1-2.549-4.059,6.182,6.182,0,0,1-6.133,6.13,6.118,6.118,0,0,1-3.882-1.374,4.392,4.392,0,0,0-2.77-.993,4.5,4.5,0,0,0-4.43,4.5v.424a2.2,2.2,0,0,0-1.852-.061,2.176,2.176,0,0,0-1.168,2.892c.675,1.429,2.252,4.176,2.927,5.6a1.147,1.147,0,0,0,1.481.6A24.672,24.672,0,0,0,124,98.026a8.7,8.7,0,0,0,1.678,1.752v3.189a5.272,5.272,0,1,0,10.544,0v-3.19a8.7,8.7,0,0,0,1.68-1.754,24.679,24.679,0,0,0,3.285-6.291,1.146,1.146,0,0,0,1.481-.6c.675-1.429,2.252-4.175,2.927-5.6a2.176,2.176,0,0,0-1.169-2.892Z" transform="translate(-68.822 -66.064)" fill="#ffda8f"/>
      <path id="Trazado_1223920" data-name="Trazado 1223920" d="M63.219,53.581A1.076,1.076,0,1,1,62.142,52.5,1.078,1.078,0,0,1,63.219,53.581Zm-23.681,0V52.22a14.452,14.452,0,0,1,7-12.362,35.845,35.845,0,0,1,9.251-3.9V34.22a9.9,9.9,0,0,1-1.475-1.628,25.758,25.758,0,0,1-3.133-5.763,2.255,2.255,0,0,1-1.73-1.283c-.325-.688-2.581-4.862-2.927-5.6A3.246,3.246,0,0,1,48.24,15.6a3.424,3.424,0,0,1,.743-.216A12.438,12.438,0,0,1,61.056,0a4.6,4.6,0,0,1,3.211,1.3.024.024,0,0,0,.033,0A4.6,4.6,0,0,1,67.512,0a8.456,8.456,0,0,1,8.446,8.446v1.959a18.106,18.106,0,0,1-.689,4.958,3,3,0,0,1,.761.22,3.248,3.248,0,0,1,1.721,4.342c-.365.733-2.6,4.916-2.927,5.6a2.256,2.256,0,0,1-1.729,1.283,25.76,25.76,0,0,1-3.138,5.777,9.907,9.907,0,0,1-1.477,1.63v1.733a35.846,35.846,0,0,1,9.251,3.9,14.452,14.452,0,0,1,7,12.362v1.361a1.076,1.076,0,0,1-1.076,1.076H66.984a1.077,1.077,0,0,1-1.074-1.148,1.1,1.1,0,0,1,1.111-1H82.575a12.475,12.475,0,0,0-5.951-10.8,33.678,33.678,0,0,0-8.267-3.556,6.348,6.348,0,0,1-12.449,0A33.686,33.686,0,0,0,47.641,41.7,12.324,12.324,0,0,0,41.69,52.5H57.3a1.077,1.077,0,0,1,1.072,1.151,1.1,1.1,0,0,1-1.111,1H40.614a1.076,1.076,0,0,1-1.076-1.076ZM50.785,12.592a5.571,5.571,0,0,1,4.139-1.94,5.485,5.485,0,0,1,3.468,1.236,5.068,5.068,0,0,0,8.259-3.946,1.076,1.076,0,0,1,2.151,0,3.456,3.456,0,0,0,1.93,3.109,7.111,7.111,0,0,1,2.8,2.336,16.018,16.018,0,0,0,.278-2.98V8.446a6.3,6.3,0,0,0-6.294-6.294,2.461,2.461,0,0,0-1.717.693,2.168,2.168,0,0,1-3.022,0,2.46,2.46,0,0,0-1.717-.693A10.249,10.249,0,0,0,50.785,12.592ZM66.328,35.653a9.7,9.7,0,0,1-8.392,0V36.9a4.2,4.2,0,0,0,8.392,0Zm1.884-4.323a23.561,23.561,0,0,0,3.142-6.017,1.072,1.072,0,0,1,1.478-.612c.4-.85,2.647-5.006,2.973-5.7a1.113,1.113,0,0,0-.616-1.442,1.16,1.16,0,0,0-.981.049,1.081,1.081,0,0,1-1.579-.8A4.859,4.859,0,0,0,69.819,13a5.393,5.393,0,0,1-1.947-1.546,8.35,8.35,0,0,1-1.205,1.6,7.174,7.174,0,0,1-9.635.5,3.311,3.311,0,0,0-4.415.224,3.521,3.521,0,0,0-1.028,2.449v.424a1.078,1.078,0,0,1-1.559.962,1.164,1.164,0,0,0-.949-.032,1.1,1.1,0,0,0-.616,1.442c.323.69,2.62,4.909,2.96,5.679a1.1,1.1,0,0,1,1.491.628,23.594,23.594,0,0,0,3.138,6,7.478,7.478,0,0,0,12.158,0ZM85.264,6.455V1.076A1.076,1.076,0,0,0,84.189,0h-5.38a1.076,1.076,0,1,0,0,2.152h4.3v4.3a1.076,1.076,0,1,0,2.152,0Zm0,29.373v-5.38a1.076,1.076,0,1,0-2.152,0v4.3h-4.3a1.076,1.076,0,1,0,0,2.152h5.38A1.076,1.076,0,0,0,85.264,35.828ZM41.152,6.455v-4.3h4.3a1.076,1.076,0,0,0,0-2.152h-5.38A1.076,1.076,0,0,0,39,1.076v5.38a1.076,1.076,0,1,0,2.152,0Zm5.38,29.373a1.076,1.076,0,0,0-1.076-1.076h-4.3v-4.3a1.076,1.076,0,1,0-2.152,0v5.38A1.076,1.076,0,0,0,40.076,36.9h5.38A1.076,1.076,0,0,0,46.531,35.828Z" transform="translate(0)"/>
    </g>
  </g>
</svg>
