<svg xmlns="http://www.w3.org/2000/svg" xmlns:xlink="http://www.w3.org/1999/xlink" width="505" height="263" viewBox="0 0 505 263">
  <defs>
    <clipPath id="clip-path">
      <rect id="Rectángulo_423639" data-name="Rectángulo 423639" width="505" height="263" transform="translate(116 3891)" fill="#fff" stroke="#707070" stroke-width="1"/>
    </clipPath>
    <clipPath id="clip-path-2">
      <rect id="Rectángulo_423660" data-name="Rectángulo 423660" width="465.175" height="271.612" fill="none"/>
    </clipPath>
    <clipPath id="clip-path-3">
      <rect id="Rectángulo_423643" data-name="Rectángulo 423643" width="37.66" height="7.802" fill="none"/>
    </clipPath>
    <clipPath id="clip-path-4">
      <rect id="Rectángulo_423644" data-name="Rectángulo 423644" width="12.093" height="12.093" fill="none"/>
    </clipPath>
    <clipPath id="clip-path-5">
      <rect id="Rectángulo_423653" data-name="Rectángulo 423653" width="85.071" height="110.629" fill="none"/>
    </clipPath>
    <clipPath id="clip-path-6">
      <rect id="Rectángulo_423657" data-name="Rectángulo 423657" width="4.721" height="2.847" fill="none"/>
    </clipPath>
    <clipPath id="clip-path-7">
      <rect id="Rectángulo_423658" data-name="Rectángulo 423658" width="15.708" height="28.23" fill="none"/>
    </clipPath>
    <clipPath id="clip-path-8">
      <rect id="Rectángulo_423659" data-name="Rectángulo 423659" width="4.465" height="6.597" fill="none"/>
    </clipPath>
  </defs>
  <g id="Grupo_1234583" data-name="Grupo 1234583" transform="translate(-180 -3891)">
    <rect id="Rectángulo_423661" data-name="Rectángulo 423661" width="410" height="167" rx="13" transform="translate(236 3954)" fill="#e5fdfa"/>
    <g id="Enmascarar_grupo_1208528" data-name="Enmascarar grupo 1208528" transform="translate(64)" clip-path="url(#clip-path)">
      <g id="Grupo_1234581" data-name="Grupo 1234581" transform="translate(135.913 3896.697)">
        <g id="Grupo_1234582" data-name="Grupo 1234582" transform="translate(0 -0.003)">
          <path id="Trazado_1224055" data-name="Trazado 1224055" d="M465.175,3093.333h0Z" transform="translate(0 -2821.721)" fill="#fff"/>
          <g id="Grupo_1234579" data-name="Grupo 1234579">
            <g id="Grupo_1234578" data-name="Grupo 1234578" clip-path="url(#clip-path-2)">
              <path id="Trazado_1223921" data-name="Trazado 1223921" d="M730.462,2656.559c0,7.847-64.58,15.472-187.206,15.472s-206.072-6.362-206.072-14.209,83.445-14.209,206.072-14.209,187.206,5.1,187.206,12.946" transform="translate(-307.576 -2411.489)" fill="#efd5ab"/>
              <path id="Trazado_1223922" data-name="Trazado 1223922" d="M2374.481,2736.786c0,2.414,134.529,5.971,162.375,5.971s50.42-1.957,50.42-4.371-22.573-4.371-50.42-4.371-162.375.357-162.375,2.771" transform="translate(-2165.988 -2493.953)" fill="#ccae83"/>
              <path id="Trazado_1223923" data-name="Trazado 1223923" d="M1384.594,2710.423c0,1.207-25.982,2.122,33.483,3.668,44.619,1.16,179.552-2.275,181.933-3.668,1.042-.61-48.223-2.186-107.708-2.186s-107.708.979-107.708,2.186" transform="translate(-1257.865 -2470.438)" fill="#ccae83"/>
              <path id="Trazado_1223924" data-name="Trazado 1223924" d="M480.63,2768.716c0,1.983,17,5.776,79.669,5.776s147.266-3.793,147.266-5.776-50.8-3.59-113.468-3.59-113.468,1.608-113.468,3.59" transform="translate(-438.428 -2522.332)" fill="#ccae83"/>
              <path id="Trazado_1223925" data-name="Trazado 1223925" d="M345.869,1530.263l60.179,8.77a.092.092,0,0,0,.06-.171,45.875,45.875,0,0,1-21.779-42.394.094.094,0,0,1,.148-.067,108.72,108.72,0,0,1,32.013,37.458c2.412,4.661,4.533,9.869,3.573,15.027-5.138,27.589-64.211-9.3-74.271-18.464a.093.093,0,0,1,.076-.16" transform="translate(-315.402 -1364.992)" fill="#efd5ab"/>
              <path id="Trazado_1223926" data-name="Trazado 1223926" d="M4151.142,519.4l-29.225,54.212a45.845,45.845,0,0,1,47.806-6.167,108.717,108.717,0,0,1-46.3,17.333c-5.205.669-10.824.878-15.342-1.792-24.341-14.387,31.571-57.787,43.059-63.586" transform="translate(-3741.83 -473.79)" fill="#efd5ab"/>
              <path id="Trazado_1223927" data-name="Trazado 1223927" d="M521.407,1954.725a234.71,234.71,0,0,1-54.964-16.642.093.093,0,0,1-.047-.122h0a.092.092,0,0,1,.122-.047,234.509,234.509,0,0,0,54.922,16.629.093.093,0,0,1,.075.107h0a.093.093,0,0,1-.107.076" transform="translate(-425.436 -1767.746)" fill="#fff"/>
              <path id="Trazado_1223928" data-name="Trazado 1223928" d="M844.937,1600.424a.093.093,0,0,1-.119.057c-5.777-2.031-11.31-6.264-16.007-12.248-4.213-5.368-7.385-11.522-10.448-17.478a.093.093,0,0,1,.165-.085c3.06,5.948,6.228,12.094,10.43,17.448,4.675,5.957,10.179,10.17,15.923,12.188a.092.092,0,0,1,.056.117Z" transform="translate(-746.496 -1432.71)" fill="#fff"/>
              <path id="Trazado_1223929" data-name="Trazado 1223929" d="M4268.253,651.944a106.248,106.248,0,0,1,27.263-33.166l.116.144a106.072,106.072,0,0,0-27.214,33.107Z" transform="translate(-3893.477 -564.446)" fill="#fff"/>
              <path id="Trazado_1223930" data-name="Trazado 1223930" d="M4449.913,1079.52l-.021-.184a167.256,167.256,0,0,0,29.8-6.343l.055.177a167.433,167.433,0,0,1-29.837,6.349" transform="translate(-4059.166 -978.778)" fill="#fff"/>
              <path id="Trazado_1223932" data-name="Trazado 1223932" d="M1768.987,2411.447h-18.508v-18.508h18.508Zm-18.319-.189h18.13v-18.13h-18.13Z" transform="translate(-1596.777 -2182.825)" fill="#fff"/>
              <path id="Trazado_1223933" data-name="Trazado 1223933" d="M4761.032,2019.406a11.639,11.639,0,1,1,11.639-11.639,11.652,11.652,0,0,1-11.639,11.639m0-23.041a11.4,11.4,0,1,0,11.4,11.4,11.414,11.414,0,0,0-11.4-11.4" transform="translate(-4332.37 -1820.857)" fill="#fff"/>
              <path id="Trazado_1223934" data-name="Trazado 1223934" d="M4369.492,1359.922a11.639,11.639,0,1,1,11.639-11.639,11.652,11.652,0,0,1-11.639,11.639m0-23.041a11.4,11.4,0,1,0,11.4,11.4,11.414,11.414,0,0,0-11.4-11.4" transform="translate(-3975.209 -1219.279)" fill="#4b67ef"/>
              <path id="Trazado_1223935" data-name="Trazado 1223935" d="M689.492,2316.224a11.639,11.639,0,1,1,11.639-11.639,11.652,11.652,0,0,1-11.639,11.639m0-23.041a11.4,11.4,0,1,0,11.4,11.4,11.414,11.414,0,0,0-11.4-11.4" transform="translate(-618.334 -2091.612)" fill="#4b67ef"/>
              <path id="Trazado_1223936" data-name="Trazado 1223936" d="M1503.865,766.6h239.408a4.352,4.352,0,0,0,4.352-4.352v-141a4.352,4.352,0,0,0-4.352-4.352H1503.865a4.352,4.352,0,0,0-4.352,4.352v141a4.352,4.352,0,0,0,4.352,4.352" transform="translate(-1367.847 -562.728)" fill="#82605e"/>
              <path id="Trazado_1223937" data-name="Trazado 1223937" d="M1547.191,778.056H1780.6a3.467,3.467,0,0,0,3.467-3.467V654.815a3.467,3.467,0,0,0-3.467-3.467H1547.191a3.467,3.467,0,0,0-3.467,3.467V774.589a3.467,3.467,0,0,0,3.467,3.467" transform="translate(-1408.176 -594.156)" fill="#ede7df"/>
              <path id="Trazado_1223938" data-name="Trazado 1223938" d="M1593.6,814.946h216.84a8.084,8.084,0,0,0,8.084-8.084V704.18a8.084,8.084,0,0,0-8.084-8.084H1593.6a8.084,8.084,0,0,0-8.084,8.084V806.862a8.084,8.084,0,0,0,8.084,8.084" transform="translate(-1446.301 -634.975)" fill="#fff"/>
              <rect id="Rectángulo_423642" data-name="Rectángulo 423642" width="37.982" height="26.138" transform="translate(236.779 203.873)" fill="#5e4241"/>
              <g id="Grupo_1234562" data-name="Grupo 1234562" transform="translate(236.779 203.873)" opacity="0.36">
                <g id="Grupo_1234561" data-name="Grupo 1234561">
                  <g id="Grupo_1234560" data-name="Grupo 1234560" clip-path="url(#clip-path-3)">
                    <path id="Trazado_1223939" data-name="Trazado 1223939" d="M2696.63,2321.865v7.8a107.515,107.515,0,0,0,37.66-7.8Z" transform="translate(-2696.63 -2321.865)"/>
                  </g>
                </g>
              </g>
              <path id="Trazado_1223940" data-name="Trazado 1223940" d="M2241.957,2619.54h100.649a9.363,9.363,0,0,1,9.363,9.363H2232.594a9.363,9.363,0,0,1,9.363-9.363" transform="translate(-2036.56 -2389.53)" fill="#82605e"/>
              <g id="Grupo_1234565" data-name="Grupo 1234565" transform="translate(249.675 187.196)" opacity="0.36">
                <g id="Grupo_1234564" data-name="Grupo 1234564">
                  <g id="Grupo_1234563" data-name="Grupo 1234563" clip-path="url(#clip-path-4)">
                    <path id="Trazado_1223941" data-name="Trazado 1223941" d="M2843.5,2137.977a6.047,6.047,0,1,0,6.047-6.047,6.047,6.047,0,0,0-6.047,6.047" transform="translate(-2843.496 -2131.93)"/>
                  </g>
                </g>
              </g>
              <path id="Trazado_1223942" data-name="Trazado 1223942" d="M1701.361,1406.4l-16.56-.073a3.987,3.987,0,0,0-4,3.969l-.129,29.042a3.987,3.987,0,0,0,3.969,4l21.224.094a3.987,3.987,0,0,0,4-3.969l-4.536-29.063a3.987,3.987,0,0,0-3.969-4" transform="translate(-1533.096 -1282.843)" fill="#5c2c88"/>
              <path id="Trazado_1223943" data-name="Trazado 1223943" d="M1733.373,1468.677l-47.119-.209a5.638,5.638,0,0,0-5.663,5.613l-.114,25.739a5.638,5.638,0,0,0,5.613,5.663l47.119.209a5.638,5.638,0,0,0,5.663-5.613l.114-25.739a5.638,5.638,0,0,0-5.613-5.663" transform="translate(-1532.921 -1339.529)" fill="#5c2c88"/>
              <path id="Trazado_1223944" data-name="Trazado 1223944" d="M1733.165,1515.6l-47.119-.209a5.638,5.638,0,0,0-5.663,5.614l-.114,25.739a5.639,5.639,0,0,0,5.613,5.664l47.119.209a5.639,5.639,0,0,0,5.664-5.614l.114-25.739a5.638,5.638,0,0,0-5.614-5.663" transform="translate(-1532.732 -1382.33)" fill="#dcb9fc"/>
              <rect id="Rectángulo_423645" data-name="Rectángulo 423645" width="17.745" height="0.927" transform="translate(151.494 138.186)" fill="#fff"/>
              <rect id="Rectángulo_423646" data-name="Rectángulo 423646" width="17.745" height="2.164" transform="translate(151.494 140.845)" fill="#fff"/>
              <path id="Trazado_1223945" data-name="Trazado 1223945" d="M3532.252,1442.925l-16.56-.073a3.987,3.987,0,0,0-4,3.969l-.129,29.042a3.987,3.987,0,0,0,3.969,4l21.224.094a3.987,3.987,0,0,0,4.005-3.969l-4.536-29.063a3.987,3.987,0,0,0-3.969-4" transform="translate(-3203.225 -1316.161)" fill="#5c2c88"/>
              <path id="Trazado_1223946" data-name="Trazado 1223946" d="M3564.265,1505.2l-47.119-.209a5.639,5.639,0,0,0-5.664,5.613l-.114,25.739a5.639,5.639,0,0,0,5.614,5.663l47.119.209a5.638,5.638,0,0,0,5.663-5.613l.114-25.739a5.638,5.638,0,0,0-5.614-5.663" transform="translate(-3203.05 -1372.846)" fill="#5c2c88"/>
              <path id="Trazado_1223947" data-name="Trazado 1223947" d="M3564.057,1552.123l-47.119-.209a5.638,5.638,0,0,0-5.663,5.614l-.114,25.739a5.639,5.639,0,0,0,5.613,5.663l47.119.209a5.639,5.639,0,0,0,5.664-5.613l.114-25.739a5.639,5.639,0,0,0-5.614-5.664" transform="translate(-3202.861 -1415.647)" fill="#dcb9fc"/>
              <rect id="Rectángulo_423647" data-name="Rectángulo 423647" width="17.745" height="0.85" transform="translate(312.257 141.11)" fill="#fff"/>
              <rect id="Rectángulo_423648" data-name="Rectángulo 423648" width="17.745" height="2.164" transform="translate(312.257 144.052)" fill="#fff"/>
              <path id="Trazado_1223948" data-name="Trazado 1223948" d="M1701.361,842.864l-16.56-.073a3.987,3.987,0,0,0-4,3.969l-.129,29.042a3.987,3.987,0,0,0,3.969,4l21.224.094a3.987,3.987,0,0,0,4-3.969l-4.536-29.063a3.987,3.987,0,0,0-3.969-4" transform="translate(-1533.096 -768.789)" fill="#5c2c88"/>
              <path id="Trazado_1223949" data-name="Trazado 1223949" d="M1733.373,905.141l-47.119-.209a5.639,5.639,0,0,0-5.663,5.614l-.114,25.739a5.638,5.638,0,0,0,5.613,5.663l47.119.209a5.639,5.639,0,0,0,5.663-5.614l.114-25.739a5.638,5.638,0,0,0-5.613-5.663" transform="translate(-1532.921 -825.474)" fill="#5c2c88"/>
              <path id="Trazado_1223950" data-name="Trazado 1223950" d="M1733.165,952.062l-47.119-.209a5.639,5.639,0,0,0-5.663,5.613l-.114,25.739a5.638,5.638,0,0,0,5.613,5.664l47.119.209a5.639,5.639,0,0,0,5.664-5.613l.114-25.739a5.639,5.639,0,0,0-5.614-5.664" transform="translate(-1532.732 -868.275)" fill="#dcb9fc"/>
              <rect id="Rectángulo_423649" data-name="Rectángulo 423649" width="17.745" height="0.927" transform="translate(151.494 88.705)" fill="#fff"/>
              <rect id="Rectángulo_423650" data-name="Rectángulo 423650" width="17.745" height="2.164" transform="translate(151.494 91.363)" fill="#fff"/>
              <path id="Trazado_1223951" data-name="Trazado 1223951" d="M3532.252,820.722l-16.56-.073a3.987,3.987,0,0,0-4,3.969l-.129,29.042a3.987,3.987,0,0,0,3.969,4l21.224.094a3.988,3.988,0,0,0,4.005-3.969l-4.536-29.063a3.987,3.987,0,0,0-3.969-4" transform="translate(-3203.225 -748.591)" fill="#5c2c88"/>
              <path id="Trazado_1223952" data-name="Trazado 1223952" d="M3564.265,883l-47.119-.209a5.639,5.639,0,0,0-5.664,5.613l-.114,25.739a5.639,5.639,0,0,0,5.614,5.663l47.119.209a5.638,5.638,0,0,0,5.663-5.614l.114-25.739a5.638,5.638,0,0,0-5.614-5.663" transform="translate(-3203.05 -805.277)" fill="#5c2c88"/>
              <path id="Trazado_1223953" data-name="Trazado 1223953" d="M3564.057,929.921l-47.119-.209a5.638,5.638,0,0,0-5.663,5.613l-.114,25.739a5.639,5.639,0,0,0,5.613,5.663l47.119.209a5.639,5.639,0,0,0,5.664-5.613l.114-25.739a5.639,5.639,0,0,0-5.614-5.663" transform="translate(-3202.861 -848.078)" fill="#dcb9fc"/>
              <rect id="Rectángulo_423651" data-name="Rectángulo 423651" width="17.745" height="0.85" transform="translate(312.257 86.477)" fill="#fff"/>
              <rect id="Rectángulo_423652" data-name="Rectángulo 423652" width="17.745" height="2.164" transform="translate(312.257 89.419)" fill="#fff"/>
              <g id="Grupo_1234568" data-name="Grupo 1234568" transform="translate(214.647 66.205)" opacity="0.25">
                <g id="Grupo_1234567" data-name="Grupo 1234567">
                  <g id="Grupo_1234566" data-name="Grupo 1234566" clip-path="url(#clip-path-5)">
                    <path id="Trazado_1223954" data-name="Trazado 1223954" d="M2484.673,864.616a.807.807,0,0,1-.431-.2l-15.725-14.269a72.918,72.918,0,0,1-23.915-56.259l.553-18.46a.808.808,0,0,1,.8-.784,52.394,52.394,0,0,0,31.5-10.22,43.022,43.022,0,0,0,9.914-10.05.808.808,0,0,1,1.391.041,43.271,43.271,0,0,0,9.349,10.673,52.4,52.4,0,0,0,30.774,12.042.81.81,0,0,1,.755.83l-.554,18.461a72.917,72.917,0,0,1-27.243,54.725l-16.552,13.3a.807.807,0,0,1-.618.171m3.381-109.813h0Z" transform="translate(-2444.569 -753.994)" fill="#898076"/>
                  </g>
                </g>
              </g>
              <path id="Trazado_1223955" data-name="Trazado 1223955" d="M2555.565,848.035l-2.822,94.114-13.576-12.319a62.339,62.339,0,0,1-20.419-48.032l.478-15.938c25.168-.132,36.339-17.825,36.339-17.825" transform="translate(-2297.563 -773.573)" fill="#aa52f9"/>
              <path id="Trazado_1223956" data-name="Trazado 1223956" d="M2909.016,848.035l-2.822,94.114,14.29-11.484a62.34,62.34,0,0,0,23.26-46.723l.478-15.938c-25.114-1.639-35.205-19.97-35.205-19.97" transform="translate(-2651.014 -773.573)" fill="#aa52f9"/>
              <path id="Trazado_1223957" data-name="Trazado 1223957" d="M2761.415,1130.038a15.752,15.752,0,0,0-3.682-9.755,12.425,12.425,0,0,0-9.342-4.536c-7.08-.085-12.961,6.165-13.374,14.066a3.562,3.562,0,0,0-2.753,3.424l-.222,18.163a3.561,3.561,0,0,0,3.517,3.6l25.355.31a3.56,3.56,0,0,0,3.6-3.517l.222-18.163a3.561,3.561,0,0,0-3.325-3.6m-13.052-11.978a10.146,10.146,0,0,1,7.612,3.727A13.427,13.427,0,0,1,2759.1,1130l-21.76-.266c.432-6.577,5.24-11.751,11.024-11.679" transform="translate(-2492.153 -1017.777)" fill="#fff"/>
              <path id="Trazado_1223958" data-name="Trazado 1223958" d="M2878.09,1350.718a3.56,3.56,0,1,1,5.193,3.208l-.06,4.928a1.264,1.264,0,0,1-1.28,1.249l-.814-.01a1.264,1.264,0,0,1-1.249-1.279l.06-4.928a3.56,3.56,0,0,1-1.851-3.167" transform="translate(-2625.377 -1228.909)" fill="#5c2c88"/>
              <path id="Trazado_1223959" data-name="Trazado 1223959" d="M3725.782,2236.405h-92.6a3.205,3.205,0,0,1-3.205-3.205v-47.33a3.205,3.205,0,0,1,3.205-3.2h92.6a3.205,3.205,0,0,1,3.2,3.2v47.33a3.2,3.2,0,0,1-3.2,3.205" transform="translate(-3311.243 -1991.015)" fill="#0b47db"/>
              <path id="Trazado_1223960" data-name="Trazado 1223960" d="M3771.493,2274.119h-84.681a2.384,2.384,0,0,1-2.384-2.384V2230.8a2.384,2.384,0,0,1,2.384-2.384h84.681a2.384,2.384,0,0,1,2.385,2.384v40.938a2.384,2.384,0,0,1-2.385,2.384" transform="translate(-3360.914 -2032.746)" fill="#fff"/>
              <path id="Trazado_1223961" data-name="Trazado 1223961" d="M3907.221,2476.371h-52.538a3.587,3.587,0,0,1,0-7.175h52.538a3.587,3.587,0,0,1,0,7.175" transform="translate(-3512.948 -2252.386)" fill="#efd5ab"/>
              <path id="Trazado_1223962" data-name="Trazado 1223962" d="M3907.711,2611.367H3854.66a3.565,3.565,0,1,1,0-7.129h53.051a3.565,3.565,0,0,1,0,7.129" transform="translate(-3512.947 -2375.571)" fill="#efd5ab"/>
              <path id="Trazado_1223963" data-name="Trazado 1223963" d="M3890.489,2487.8a2.225,2.225,0,1,1-2.225-2.226,2.225,2.225,0,0,1,2.225,2.226" transform="translate(-3544.822 -2267.33)" fill="#098576"/>
              <path id="Trazado_1223964" data-name="Trazado 1223964" d="M3963.315,2487.8a2.226,2.226,0,1,1-2.226-2.226,2.226,2.226,0,0,1,2.226,2.226" transform="translate(-3611.253 -2267.33)" fill="#098576"/>
              <path id="Trazado_1223965" data-name="Trazado 1223965" d="M4036.14,2487.8a2.226,2.226,0,1,1-2.226-2.226,2.226,2.226,0,0,1,2.226,2.226" transform="translate(-3677.684 -2267.33)" fill="#098576"/>
              <path id="Trazado_1223966" data-name="Trazado 1223966" d="M4108.966,2487.8a2.225,2.225,0,1,1-2.225-2.226,2.225,2.225,0,0,1,2.225,2.226" transform="translate(-3744.116 -2267.33)" fill="#098576"/>
              <path id="Trazado_1223967" data-name="Trazado 1223967" d="M3890.489,2621.1a2.225,2.225,0,1,1-2.225-2.226,2.225,2.225,0,0,1,2.225,2.226" transform="translate(-3544.822 -2388.921)" fill="#098576"/>
              <path id="Trazado_1223968" data-name="Trazado 1223968" d="M3963.315,2621.1a2.226,2.226,0,1,1-2.226-2.226,2.226,2.226,0,0,1,2.226,2.226" transform="translate(-3611.253 -2388.921)" fill="#098576"/>
              <path id="Trazado_1223969" data-name="Trazado 1223969" d="M4036.14,2621.1a2.226,2.226,0,1,1-2.226-2.226,2.226,2.226,0,0,1,2.226,2.226" transform="translate(-3677.684 -2388.921)" fill="#098576"/>
              <path id="Trazado_1223970" data-name="Trazado 1223970" d="M4108.966,2621.1a2.225,2.225,0,1,1-2.225-2.226,2.225,2.225,0,0,1,2.225,2.226" transform="translate(-3744.116 -2388.921)" fill="#098576"/>
              <path id="Trazado_1223971" data-name="Trazado 1223971" d="M4181.792,2487.8a2.226,2.226,0,1,1-2.226-2.226,2.226,2.226,0,0,1,2.226,2.226" transform="translate(-3810.547 -2267.33)" fill="#098576"/>
              <path id="Trazado_1223972" data-name="Trazado 1223972" d="M4254.618,2487.8a2.226,2.226,0,1,1-2.226-2.226,2.225,2.225,0,0,1,2.226,2.226" transform="translate(-3876.979 -2267.33)" fill="#098576"/>
              <path id="Trazado_1223973" data-name="Trazado 1223973" d="M4153.607,2259.965a4.279,4.279,0,1,1-4.279-4.28,4.279,4.279,0,0,1,4.279,4.28" transform="translate(-3781.09 -2057.623)" fill="#11f5d8"/>
              <path id="Trazado_1223974" data-name="Trazado 1223974" d="M4124.91,2368.813h-14.673a6.2,6.2,0,0,1,6.2-6.2h2.271a6.2,6.2,0,0,1,6.2,6.2" transform="translate(-3749.335 -2155.162)" fill="#11f5d8"/>
              <path id="Trazado_1223975" data-name="Trazado 1223975" d="M605.372,2381.98v8.119c0,2.7,2.457,4.889,5.487,4.889H737.672c3.03,0,5.487-2.189,5.487-4.889v-8.119a4.608,4.608,0,0,0-1.515-3.373,5.782,5.782,0,0,0-3.7-1.51h-.021l-.25,0H610.859c-3.03,0-5.487,2.189-5.487,4.889" transform="translate(-552.217 -2168.369)" fill="#0b47db"/>
              <rect id="Rectángulo_423654" data-name="Rectángulo 423654" width="2.335" height="17.897" transform="translate(66.778 208.722)" fill="#fff"/>
              <rect id="Rectángulo_423655" data-name="Rectángulo 423655" width="2.491" height="17.897" transform="translate(71.527 208.722)" fill="#fff"/>
              <rect id="Rectángulo_423656" data-name="Rectángulo 423656" width="2.491" height="17.897" transform="translate(167.977 208.722)" fill="#fff"/>
              <path id="Trazado_1223976" data-name="Trazado 1223976" d="M403.872,2580.714H567.206v20.343H403.794a7.879,7.879,0,0,1-7.879-7.88v-4.506a7.957,7.957,0,0,1,7.957-7.957" transform="translate(-361.151 -2354.113)" fill="#aa52f9"/>
              <path id="Trazado_1223977" data-name="Trazado 1223977" d="M987.789,2612.972l111.242.064v14.613l-111.242-.064c-4.892,0-8.857-3.271-8.857-7.307s3.966-7.306,8.857-7.306" transform="translate(-892.976 -2383.538)" fill="#fff"/>
              <path id="Trazado_1223978" data-name="Trazado 1223978" d="M732.807,2145.421v20.342H858.683c4.557,0,8.252-3.292,8.252-7.353v-5.815a6.761,6.761,0,0,0-2.233-4.959h0a7.781,7.781,0,0,0-.814-.662,8.46,8.46,0,0,0-3.071-1.344,9,9,0,0,0-1.931-.208Z" transform="translate(-668.462 -1957.041)" fill="#aa52f9"/>
              <path id="Trazado_1223979" data-name="Trazado 1223979" d="M811.344,2177.677l-78.537.064v14.613l78.537-.064c4.529,0,8.2-3.271,8.2-7.306s-3.671-7.306-8.2-7.306" transform="translate(-668.462 -1986.464)" fill="#fff"/>
              <path id="Trazado_1223980" data-name="Trazado 1223980" d="M1924.765,2493.5c-.012.662-1.416.217-1.977.571-1.244.784-7.539,4.414-7.991,3.919l-2.257-3.558-1.5-2.359-.5-.785a104.612,104.612,0,0,1,10.535-4.661c.083.162.185.356.3.576.19.36.418.789.664,1.25,1.156,2.163,2.719,5.047,2.719,5.047" transform="translate(-1742.788 -2268.285)" fill="#fda89f"/>
              <path id="Trazado_1223981" data-name="Trazado 1223981" d="M1927.037,2494.034a110.394,110.394,0,0,1-9.326,6.318l-1.5-2.359a89.129,89.129,0,0,0,8.865-4.383,2.844,2.844,0,0,1,1.291-.5,1.009,1.009,0,0,1,.183.011c.19.36.237.451.484.912" transform="translate(-1747.961 -2274.201)" fill="#8c3e3c"/>
              <path id="Trazado_1223982" data-name="Trazado 1223982" d="M1112.246,1791.467c-.259,1.2-.521,2.384-.778,3.513-1.246,5.476-2.373,9.762-2.373,9.762-4.871,3.769-17.256,6.426-22.722,9.121-7.17,3.537-6.412-5.5-4.795-10.015,1.174-3.281,3.884-6.557,5.756-10.449a22.313,22.313,0,0,0,1.08-2.64c8.56-.731,15.242.931,23.831.709" transform="translate(-985.622 -1633.348)" fill="#402c60"/>
              <path id="Trazado_1223983" data-name="Trazado 1223983" d="M1185.6,1791.467c-.259,1.2-.521,2.384-.778,3.513a148.348,148.348,0,0,1-23.913-2.052,14.955,14.955,0,0,0,.86-2.169c8.56-.731,15.242.931,23.831.709" transform="translate(-1058.971 -1633.348)"/>
              <path id="Trazado_1223984" data-name="Trazado 1223984" d="M1272.92,1975.218a61.16,61.16,0,0,1-11.631,5.444,98.661,98.661,0,0,1-12.4-17.375c-1.7-2.942-3.212-5.79-4.507-8.36-3.277-6.5-5.187-11.233-5.408-11.237-5.083-.076-11.392.25-16.474.174-5.1-.077-21.969,2.8-24.089-3.486-.655-1.941,9.356-4.722,9.811-6.719.522-2.285,1.1-5.07,3.319-6.111a22.205,22.205,0,0,1,7.727-1.651q8.77-.716,17.572-.863c4.263-.072,8.8.033,12.376,2.352a18.528,18.528,0,0,1,6.257,7.4c6.637,13.325,10.334,22.8,17.452,40.433" transform="translate(-1093.151 -1755.994)" fill="#2a1d44"/>
              <path id="Trazado_1223985" data-name="Trazado 1223985" d="M1727.35,2081.193c-1.7-2.943-3.767-6.743-5.063-9.313a46.942,46.942,0,0,1,9.971-18.648c1.229,4.864-4.7,27.771-4.908,27.962" transform="translate(-1571.06 -1872.946)"/>
              <path id="Trazado_1223986" data-name="Trazado 1223986" d="M1516.6,2432.665c-.169.341-.442.907-.765,1.579-.291.6-.624,1.288-.96,1.973a20.731,20.731,0,0,1-2.128,3.8c-.622.342-.905.762-1.6.606-2.885-.654-6.759-.229-9.056-2.094.653-1.927,2.043-5.318,2.917-7.412.191-.458.357-.854.486-1.158.176-.419.282-.666.282-.666.758.376,10.506,4,10.821,3.37" transform="translate(-1370.199 -2215.989)" fill="#fda89f"/>
              <path id="Trazado_1223987" data-name="Trazado 1223987" d="M1546.134,2441.164c-.291.6-.624,1.288-.96,1.973a50.46,50.46,0,0,1-5.3-2.391,24.165,24.165,0,0,1-4.562-2.706c.191-.458.357-.854.486-1.158,2.308,1.078,8.68,3.93,10.338,4.283" transform="translate(-1400.501 -2222.909)" fill="#8c3e3c"/>
              <path id="Trazado_1223988" data-name="Trazado 1223988" d="M1416.1,2134.593l.15.083c-.009.061-.017.122-.027.185a.476.476,0,0,1-.123-.267" transform="translate(-1291.759 -1947.164)" fill="#413947"/>
              <path id="Trazado_1223989" data-name="Trazado 1223989" d="M1170.913,1786.4c-.026.013-.051.028-.076.043l-.144-.067.219.024" transform="translate(-1067.901 -1629.522)" fill="#584c60"/>
              <path id="Trazado_1223990" data-name="Trazado 1223990" d="M1057.761,1104.278c-1.168,2.819-3.9,4.619-6.626,5.935a40.708,40.708,0,0,1-13.34,3.819c-3.407.366-7.112.22-9.894-1.822-3.641-2.672-4.6-8.1-2.944-12.311a18.433,18.433,0,0,1,.992-2.108c2.372-4.365,6.074-7.744,6.822-12.788a14.286,14.286,0,0,0,.126-2.292c-.011-1-.076-2-.068-3a12.61,12.61,0,0,1,.16-2.034,9.22,9.22,0,0,1,3.724-5.915,18,18,0,0,1,4.945-2.2,5.543,5.543,0,0,1,3.051-.161c1.623.593,1.522,4.248,2.4,5.647q1.957,3.1,3.644,6.373c2.245,4.355,5.045,8.728,6.5,13.408.961,3.077,1.733,6.485.5,9.449" transform="translate(-934.244 -975.362)" fill="#896464"/>
              <path id="Trazado_1223991" data-name="Trazado 1223991" d="M1360.6,1283.981a.121.121,0,0,1-.076-.151,7.536,7.536,0,0,0-.851-5.9,16.109,16.109,0,0,0-4.173-4.511.121.121,0,0,1,.15-.191,16.334,16.334,0,0,1,4.234,4.582,7.776,7.776,0,0,1,.871,6.092.122.122,0,0,1-.155.078Z" transform="translate(-1236.438 -1161.409)" fill="#896464"/>
              <path id="Trazado_1223992" data-name="Trazado 1223992" d="M1130.624,1071.589a.122.122,0,0,1-.056-.159,2.4,2.4,0,0,0-2.089-3.351.123.123,0,0,1-.118-.123h0a.121.121,0,0,1,.125-.12,2.641,2.641,0,0,1,2.3,3.692.122.122,0,0,1-.166.062" transform="translate(-1029.284 -974.073)" fill="#896464"/>
              <path id="Trazado_1223993" data-name="Trazado 1223993" d="M1270.388,1058.881a.122.122,0,0,1-.12-.12,3.21,3.21,0,0,0-2.186-2.885,2.9,2.9,0,0,0-.856-.126,3.248,3.248,0,0,0-2.576,1.277.122.122,0,0,1-.166.032.121.121,0,0,1-.033-.171,3.5,3.5,0,0,1,2.776-1.38,3.14,3.14,0,0,1,.927.137,3.461,3.461,0,0,1,2.357,3.115.121.121,0,0,1-.123.122Z" transform="translate(-1153.406 -962.827)" fill="#896464"/>
              <path id="Trazado_1223994" data-name="Trazado 1223994" d="M1262.5,1061.454a3.365,3.365,0,0,1,2.552,2.3,5.386,5.386,0,0,1-.181,3.543c-1.642-.17-3.412-.4-4.608-1.534-1.753-1.664-.087-4.659,2.238-4.311" transform="translate(-1148.943 -968.227)" fill="#896464"/>
              <path id="Trazado_1223995" data-name="Trazado 1223995" d="M1163.283,1096.915a2.638,2.638,0,0,1-1.816,1.3c-.517.18-1.091.376-1.116.385h0c-.034.781-.077,2.074-.1,2.856,0,.043,0,.086,0,.129,0,.007,0,.014,0,.021-.028.875-.054,1.75-.063,2.624a5.714,5.714,0,0,0,.043,1.578,2.261,2.261,0,0,0,1.839,1.693s-5.4,3-19.047,2.04a.339.339,0,0,1-.137-.636c2.052-1.1,6.513-2.664,6.821-4.065.4-1.831,1.03-8.261,1.03-8.261a3.408,3.408,0,0,1-2.983-2.509c-.661-2.422,1.319-3.256,2.138-2.912s1.648-10,1.648-10,4.11-1.039,6.357,1.538a23.516,23.516,0,0,1,3.048,4.188,15.245,15.245,0,0,1,2.426,7.522,5.348,5.348,0,0,1-.08,2.514" transform="translate(-1042.365 -986.032)" fill="#fda89f"/>
              <path id="Trazado_1223996" data-name="Trazado 1223996" d="M1218.876,1071.786a2.559,2.559,0,0,1,.506,1.32,7.467,7.467,0,0,1-1.291,5.411c-1.1,1.51-1.734,3.642-3.544,3.843.026-2.029-1-5.189-.958-7.217a4.724,4.724,0,0,1,.485-2.414,2.826,2.826,0,0,1,1.672-1.159c.806-.224,2.462-.552,3.129.216" transform="translate(-1107.029 -977.238)" fill="#896464"/>
              <path id="Trazado_1223997" data-name="Trazado 1223997" d="M1081.582,1077.274a3.311,3.311,0,0,0,2.874,2.665,3.273,3.273,0,0,0,1-.037,3.309,3.309,0,1,0-3.872-2.628" transform="translate(-986.559 -979.096)" fill="#896464"/>
              <path id="Trazado_1223998" data-name="Trazado 1223998" d="M1328.854,1207.736a3.592,3.592,0,0,0,2.292.354c.383-.067.583-.109.768-.44a3.234,3.234,0,0,0,.047-.981,8.918,8.918,0,0,1-3.108,1.067" transform="translate(-1212.173 -1100.716)" fill="#fff"/>
              <path id="Trazado_1223999" data-name="Trazado 1223999" d="M1260.17,1260.18c-.034.781-.077,2.074-.1,2.856,0,.043,0,.086,0,.129,0,.007,0,.014,0,.021a11.93,11.93,0,0,1-6.376-3.222,7.381,7.381,0,0,1-.879-.985,6.317,6.317,0,0,1-.679-.9c.167.013.413.318.55.434.212.181.429.357.654.521a5.348,5.348,0,0,0,1.451.78,6.9,6.9,0,0,0,1.437.272q1.228.132,2.464.146c.406,0,.959-.025,1.486-.056" transform="translate(-1142.185 -1147.616)" fill="#8c3e3c"/>
              <path id="Trazado_1224000" data-name="Trazado 1224000" d="M1206.873,1206.659h0a.142.142,0,0,1,.166-.112l1.906.369a.142.142,0,1,1-.054.278l-1.907-.369a.142.142,0,0,1-.112-.166" transform="translate(-1100.9 -1100.602)" fill="#96544b"/>
              <path id="Trazado_1224001" data-name="Trazado 1224001" d="M1210.754,1211.613a2.776,2.776,0,0,1-.133-2.459.143.143,0,0,1,.2-.069.14.14,0,0,1,.066.18,2.483,2.483,0,0,0,.118,2.209.14.14,0,0,1-.044.187h0a.143.143,0,0,1-.2-.048" transform="translate(-1104.116 -1102.906)" fill="#96544b"/>
              <g id="Grupo_1234571" data-name="Grupo 1234571" transform="translate(110.998 104.211)" opacity="0.26">
                <g id="Grupo_1234570" data-name="Grupo 1234570">
                  <g id="Grupo_1234569" data-name="Grupo 1234569" clip-path="url(#clip-path-6)">
                    <path id="Trazado_1224002" data-name="Trazado 1224002" d="M1264.134,1188.413c.049.781,1.145,1.349,2.448,1.266s2.319-.782,2.27-1.564-1.146-1.349-2.448-1.267-2.319.782-2.27,1.564" transform="translate(-1264.132 -1186.841)" fill="#ce6363"/>
                  </g>
                </g>
              </g>
              <g id="Grupo_1234574" data-name="Grupo 1234574" transform="translate(91.704 94.199)" opacity="0.24">
                <g id="Grupo_1234573" data-name="Grupo 1234573">
                  <g id="Grupo_1234572" data-name="Grupo 1234572" clip-path="url(#clip-path-7)">
                    <path id="Trazado_1224003" data-name="Trazado 1224003" d="M1044.4,1101.044a22.737,22.737,0,0,0,9.824-13.589c.774-3.159.857-6.485,1.939-9.553a10.791,10.791,0,0,1,2.414-3.991,11.528,11.528,0,0,1,1.532-1.1,18.01,18.01,0,0,0-4.944,2.2,9.217,9.217,0,0,0-3.725,5.915c-.413,2.409.141,4.906-.219,7.323-.748,5.045-4.45,8.424-6.821,12.788" transform="translate(-1044.401 -1072.814)" fill="#020000"/>
                  </g>
                </g>
              </g>
              <g id="Grupo_1234577" data-name="Grupo 1234577" transform="translate(94.964 94.246)" opacity="0.24">
                <g id="Grupo_1234576" data-name="Grupo 1234576">
                  <g id="Grupo_1234575" data-name="Grupo 1234575" clip-path="url(#clip-path-8)">
                    <path id="Trazado_1224004" data-name="Trazado 1224004" d="M1081.582,1077.274a3.311,3.311,0,0,0,2.874,2.665,5.8,5.8,0,0,1-.982-2.453,3.8,3.8,0,0,1,.927-3.123,2.712,2.712,0,0,1,1.585-.81,3.307,3.307,0,0,0-4.4,3.722" transform="translate(-1081.523 -1073.342)" fill="#020000"/>
                  </g>
                </g>
              </g>
              <path id="Trazado_1224005" data-name="Trazado 1224005" d="M991.23,1617.236c.425.513,1.078,1.024,1.694.772a1.6,1.6,0,0,0,.707-.752,10.6,10.6,0,0,0,1.175-7.218,2.932,2.932,0,0,0-1.74-2.468c-1.056-.281-2.072.5-2.878,1.241-1.381,1.263-1.672,2.049-1.138,3.725a12.894,12.894,0,0,0,2.181,4.7" transform="translate(-901.977 -1466.363)"/>
              <path id="Trazado_1224006" data-name="Trazado 1224006" d="M1601.966,1277.782s-3.981,31.2-10.651,32.92a15.53,15.53,0,0,1-7.033-1.032h0a9.521,9.521,0,0,1-2.479-1.475l-.006-.006a4.132,4.132,0,0,1-.376-.355l0,0,.035-.163.016-.073.021-.1.023-.106.012-.059c.484-2.28,2.461-11.676,2.367-13.092l.42.157.01,0,3.873,1.452,7.961-20.01Z" transform="translate(-1442.562 -1163.819)" fill="#fda89f"/>
              <path id="Trazado_1224007" data-name="Trazado 1224007" d="M1757.773,1076.837c.44-.528-.307-1.319-.307-1.319l.024-.029,0,0c1.116-1.356-1.572-2.957-2.183-3s-2.989,1.8-2.989,1.8a29.588,29.588,0,0,1,1.758-4.924c.528-.924,2.242-3.166.351-3.035s-5.594,8.063-5.594,8.063c-.956-.387-.825,1.566-.825,1.566s-1.583,3.033-1.494,4.221c.074,1,.023,4.161.006,5.126,0,.179-.006.282-.006.282a17.483,17.483,0,0,0,6.01,1.057h.053a4.583,4.583,0,0,1,.971-1.5c.44-.265,4.089-6.024,4.089-6.024h.527s.748.615,1.319-.528-1.715-1.759-1.715-1.759m-2.427-1.973.01-.006.2-.011.211-.011,0,.007.007.009.023.032a4.476,4.476,0,0,0,.3.37h0l-1.448.395-.229-.18Z" transform="translate(-1593.161 -972.694)" fill="#fda89f"/>
              <path id="Trazado_1224008" data-name="Trazado 1224008" d="M1767.961,1165.829a.115.115,0,0,1,.068-.137c.669-.273,1.067-1.44,1.139-2.221a4.854,4.854,0,0,0-.072-1.11,4.046,4.046,0,0,1-.031-1.425,6.761,6.761,0,0,0,.148-1.234c.022-.65-.186-1.65-.84-1.87a.116.116,0,0,1,.074-.221,1.343,1.343,0,0,1,.776.8,3.141,3.141,0,0,1,.223,1.3,7.027,7.027,0,0,1-.153,1.276,3.879,3.879,0,0,0,.034,1.343,5.047,5.047,0,0,1,.073,1.164,4.48,4.48,0,0,1-.4,1.45,1.834,1.834,0,0,1-.889.966.116.116,0,0,1-.155-.079Z" transform="translate(-1612.721 -1055.96)" fill="#bc615c"/>
              <path id="Trazado_1224009" data-name="Trazado 1224009" d="M1835.725,1154.032a1.566,1.566,0,0,1-1.4-.893.118.118,0,0,1,.069-.16.115.115,0,0,1,.143.061,1.355,1.355,0,0,0,1.193.757,1.116,1.116,0,0,0,.123-.007.115.115,0,0,1,.125.092.117.117,0,0,1-.1.14,1.436,1.436,0,0,1-.156.009" transform="translate(-1673.256 -1051.735)" fill="#bc615c"/>
              <path id="Trazado_1224010" data-name="Trazado 1224010" d="M1838.476,1185.361a1.09,1.09,0,0,1-.117-.006.841.841,0,0,1-.6-.33,1.313,1.313,0,0,1-.2-.792,4.763,4.763,0,0,1,.24-1.5,1.023,1.023,0,0,1-.749-.851.116.116,0,0,1,.232-.024.776.776,0,0,0,.682.666l.153.012-.052.144a4.541,4.541,0,0,0-.272,1.556,1.114,1.114,0,0,0,.153.656.613.613,0,0,0,.44.236.83.83,0,0,0,.092.005.96.96,0,0,0,.623-.232,2.137,2.137,0,0,0,.563-1.268,5.291,5.291,0,0,1,.43-1.381.117.117,0,0,1,.209.1,5.062,5.062,0,0,0-.41,1.317,2.344,2.344,0,0,1-.638,1.4,1.2,1.2,0,0,1-.778.29" transform="translate(-1675.746 -1077.986)" fill="#bc615c"/>
              <path id="Trazado_1224011" data-name="Trazado 1224011" d="M1815.994,1157.17a2.3,2.3,0,0,1-1.758-1.275.117.117,0,0,1,.061-.159h0a.117.117,0,0,1,.15.061,2.064,2.064,0,0,0,1.575,1.143.116.116,0,1,1-.028.231" transform="translate(-1654.925 -1054.247)" fill="#bc615c"/>
              <path id="Trazado_1224012" data-name="Trazado 1224012" d="M1851.248,1160.666a2.651,2.651,0,0,1-.84-.132,1.307,1.307,0,0,1-.722-.8.116.116,0,0,1,.06-.155h0a.114.114,0,0,1,.148.058c.176.39.358.6.585.675a2.419,2.419,0,0,0,.766.12c.073,0,.147,0,.221-.009a.114.114,0,0,1,.124.1v0a.114.114,0,0,1-.1.128c-.081.007-.163.01-.244.01" transform="translate(-1687.264 -1057.754)" fill="#bc615c"/>
              <path id="Trazado_1224013" data-name="Trazado 1224013" d="M1846.507,1183.238l.191-.69a.116.116,0,0,1,.224.062l-.191.69a.116.116,0,0,1-.224-.062" transform="translate(-1684.369 -1078.635)" fill="#bc615c"/>
              <path id="Trazado_1224014" data-name="Trazado 1224014" d="M1874.511,1205.05a.929.929,0,0,1-.325-.566.115.115,0,0,1,.115-.131.117.117,0,0,1,.116.1.691.691,0,0,0,.237.413.117.117,0,0,1,.028.151h0a.116.116,0,0,1-.171.033" transform="translate(-1709.621 -1098.604)" fill="#bc615c"/>
              <path id="Trazado_1224015" data-name="Trazado 1224015" d="M1657.155,1501.279h0a.116.116,0,0,1,.12.112l.1,3.129a.116.116,0,0,1-.113.12h0a.116.116,0,0,1-.12-.112l-.1-3.129a.117.117,0,0,1,.112-.12" transform="translate(-1511.545 -1369.458)" fill="#bc615c"/>
              <path id="Trazado_1224016" data-name="Trazado 1224016" d="M1796.056,1229.338a.116.116,0,0,1-.161.061,1.637,1.637,0,0,1-.557-.481,1.118,1.118,0,0,1-.25-.617,2.864,2.864,0,0,1,.177-.843,22.971,22.971,0,0,1,1.123-2.8.117.117,0,0,1,.156-.054h0a.116.116,0,0,1,.054.154,22.774,22.774,0,0,0-1.112,2.774,2.673,2.673,0,0,0-.166.774,1.276,1.276,0,0,0,.683.888.115.115,0,0,1,.053.145" transform="translate(-1637.469 -1117.064)" fill="#bc615c"/>
              <path id="Trazado_1224017" data-name="Trazado 1224017" d="M1584.322,1486.584v.054l-.04,15.266a9.515,9.515,0,0,1-2.479-1.475l-.006-.005c-.12-.111-.245-.229-.376-.355l0,0,.035-.164.016-.073.021-.1.023-.106.012-.059,2.786-12.935Z" transform="translate(-1442.562 -1356.053)" fill="#8c3e3c"/>
              <path id="Trazado_1224018" data-name="Trazado 1224018" d="M781.106,1384.625l-3.765,3.873-6.025-20.763-5.917,3.012s4.949,33.243,7.961,34.857,16.46-10.005,16.46-10.005-.861-5.917-8.714-10.973" transform="translate(-698.193 -1247.64)" fill="#fda89f"/>
              <path id="Trazado_1224019" data-name="Trazado 1224019" d="M685.833,1191.842l-.86-3.01a15.266,15.266,0,0,0,.43-4.3c0-3.01-.43-5.59-.43-6.45s-1.29-1.29-1.29.43a5.556,5.556,0,0,1-.86,3.44c-.43.43-2.58-3.87-3.44-5.59s-2.58-4.73-2.58-2.58,1.72,5.59,1.72,5.59-3.44-6.45-4.3-6.45-.86.43-.86,1.29c0,0-.86,0-.43,1.29s2.58,6.45,2.58,6.45-3.87-4.3-4.3-3.87.43,1.29,1.29,2.58,5.16,9.46,6.02,9.89,1.071,3.995,1.071,3.995Z" transform="translate(-612.173 -1069.933)" fill="#fda89f"/>
              <path id="Trazado_1224020" data-name="Trazado 1224020" d="M725.175,1262.611a.148.148,0,0,1-.126-.226,6.35,6.35,0,0,1,4.042-2.815.144.144,0,0,1,.03,0,.148.148,0,0,1,.123.23.147.147,0,0,1-.094.063,6.049,6.049,0,0,0-3.85,2.681.147.147,0,0,1-.126.07" transform="translate(-661.366 -1148.97)" fill="#bc615c"/>
              <path id="Trazado_1224021" data-name="Trazado 1224021" d="M782.728,1289.285a.149.149,0,0,1-.128-.073,4.065,4.065,0,0,1,1.2-5.42.148.148,0,0,1,.206.038.148.148,0,0,1-.038.206,3.768,3.768,0,0,0-1.112,5.025.148.148,0,0,1-.128.224" transform="translate(-713.369 -1171.044)" fill="#bc615c"/>
              <path id="Trazado_1224022" data-name="Trazado 1224022" d="M698.786,1192.241a.148.148,0,0,1-.129-.075l-3.44-6.02a.148.148,0,0,1,.128-.222.149.149,0,0,1,.129.074l3.44,6.02a.149.149,0,0,1-.055.2.148.148,0,0,1-.074.019" transform="translate(-634.156 -1081.794)" fill="#bc615c"/>
              <path id="Trazado_1224023" data-name="Trazado 1224023" d="M944.284,1560.1s6.222,7.175,6.661,12.678l2.376-1.92s-.43-5.594-9.037-10.758" transform="translate(-861.371 -1423.111)" fill="#8c3e3c"/>
              <path id="Trazado_1224024" data-name="Trazado 1224024" d="M900.291,1601.655h0a.147.147,0,0,1,.151.143l.1,3.806a.147.147,0,1,1-.295.008l-.1-3.806a.147.147,0,0,1,.143-.151" transform="translate(-821.109 -1461.021)" fill="#bc615c"/>
              <path id="Trazado_1224025" data-name="Trazado 1224025" d="M999.474,1393.878l-3.405-1.009-.106-.031-5.2-1.542-1.694,14.982-27.778.465c.39-6.418.834-12.181.834-12.181l-7.458,3.9-.121.043-2.4.863c4.2-5.487-7.854-14.739-7.854-14.739s.627-.546,1.589-1.391c.028-.026.057-.051.085-.075,2.906-2.555,8.664-7.664,9.622-8.862,1.291-1.614,8.182-4.7,8.182-4.7,12.264,3.012,15.594-1.867,15.594-1.867s.807.011,1.741.123l.111.014a9.458,9.458,0,0,1,1.484.294c1.668.5,12.958,6.232,17.959,8.789.035.017.07.036.1.054,1.392.711,2.27,1.163,2.27,1.163.645,3.981-3.55,15.707-3.55,15.707" transform="translate(-861.371 -1247.64)" fill="#6aa898"/>
              <path id="Trazado_1224026" data-name="Trazado 1224026" d="M970.008,1557.791a11.422,11.422,0,0,0-2.091-9.121,22.865,22.865,0,0,0-6.613-6.178l-.141-.087-.056.092c.038.023.075.046.112.07a22.828,22.828,0,0,1,6.61,6.164,11.3,11.3,0,0,1,2.059,9.1Z" transform="translate(-876.716 -1406.973)" fill="#fff"/>
              <path id="Trazado_1224027" data-name="Trazado 1224027" d="M1537.631,1472.779a35.54,35.54,0,0,1-4.685,15.861l-.107-.031a35.44,35.44,0,0,0,4.687-15.884l.1.054" transform="translate(-1398.247 -1343.411)" fill="#fff"/>
              <path id="Trazado_1224028" data-name="Trazado 1224028" d="M1141.056,1372.623a29.057,29.057,0,0,1-9.587-1.634l.036-.1a28.9,28.9,0,0,0,10.7,1.6,14.851,14.851,0,0,0,5.656-1.168,7.821,7.821,0,0,0,4.052-3.946l.1.041a7.822,7.822,0,0,1-4.106,4,14.956,14.956,0,0,1-5.7,1.177q-.574.024-1.152.024" transform="translate(-1032.12 -1247.314)" fill="#fff"/>
              <path id="Trazado_1224029" data-name="Trazado 1224029" d="M1274.916,1166.035a.086.086,0,0,0-.107-.135,6.525,6.525,0,0,1-2.451,1.17.086.086,0,1,0,.04.168,6.691,6.691,0,0,0,2.516-1.2h0" transform="translate(-1160.577 -1063.51)" fill="#331e19"/>
              <path id="Trazado_1224030" data-name="Trazado 1224030" d="M1283.568,1176.07a.086.086,0,0,0-.077-.15l-1.3.362a.086.086,0,0,0,.046.166l1.3-.362a.088.088,0,0,0,.031-.016" transform="translate(-1169.546 -1072.664)" fill="#331e19"/>
              <path id="Trazado_1224031" data-name="Trazado 1224031" d="M1332.31,1144.446q.063-.051.125-.1a.083.083,0,1,0-.109-.125,4.228,4.228,0,0,1-2.036.971.083.083,0,1,0,.029.164,4.389,4.389,0,0,0,1.992-.906" transform="translate(-1213.42 -1043.729)" fill="#331e19"/>
              <path id="Trazado_1224032" data-name="Trazado 1224032" d="M1338.9,1155.619a.083.083,0,0,0-.076-.144l-.911.271a.083.083,0,1,0,.047.159l.91-.271a.082.082,0,0,0,.029-.015" transform="translate(-1220.383 -1054.015)" fill="#331e19"/>
              <path id="Trazado_1224033" data-name="Trazado 1224033" d="M1263.99,1140.716a2.871,2.871,0,0,1,.6-.31.813.813,0,0,1,.652.056.5.5,0,0,1,.224.579.821.821,0,0,1-.4.366l-2.117,1.193c-.2.114-.656.51-.883.3a.4.4,0,0,1-.062-.387,5.3,5.3,0,0,1,1.99-1.8" transform="translate(-1151.17 -1040.233)" fill="#896464"/>
              <path id="Trazado_1224034" data-name="Trazado 1224034" d="M1316.08,1127.746a.671.671,0,0,0,.438-.015l1.667-.438c.052-.263-.177-.5-.416-.621a1.448,1.448,0,0,0-1.373-.021c-.279.193-.873.847-.316,1.094" transform="translate(-1200.31 -1027.574)" fill="#896464"/>
              <path id="Trazado_1224035" data-name="Trazado 1224035" d="M1316.667,1153.251a.092.092,0,0,1-.011-.183,2.353,2.353,0,0,0,.852-.213.9.9,0,0,0,.415-.5.391.391,0,0,0-.041-.316,2,2,0,0,0-.5-.443,3.337,3.337,0,0,1-.358-.282,14.549,14.549,0,0,1-1.867-2.21.092.092,0,0,1,.152-.1,14.344,14.344,0,0,0,1.844,2.182,3.243,3.243,0,0,0,.338.265,2.1,2.1,0,0,1,.55.495.575.575,0,0,1,.063.46,1.079,1.079,0,0,1-.5.62,2.529,2.529,0,0,1-.918.234h-.011" transform="translate(-1199.663 -1048.07)" fill="#603a34"/>
              <path id="Trazado_1224036" data-name="Trazado 1224036" d="M1551.5,1904.757c4.806,1.023,4.252,7.466,3.847,11.9-.586,6.415-6.243,23.356-16.293,40.13a39.139,39.139,0,0,1-12.71-5.435s6.15-21.262,7.285-24.7c2.093-6.339,4.414-13.168,7.67-19.095,2.189-3.986,6.17-3.656,10.2-2.8" transform="translate(-1392.32 -1737.012)" fill="#402c60"/>
              <path id="Trazado_1224037" data-name="Trazado 1224037" d="M1498.15,2531.528c-1.185-1.511-2.985-2.519-4.347-3.87a19.377,19.377,0,0,1-3.637-5,10.816,10.816,0,0,0-2.185-3.482,7.072,7.072,0,0,0-4.88-1.322,21.732,21.732,0,0,1-5.16-.072,5.806,5.806,0,0,0-2.606-.326c-1.058.266-1.713,1.294-2.26,2.237a3.368,3.368,0,0,0-.66,2.219,3.2,3.2,0,0,0,1.439,1.8,32.108,32.108,0,0,0,3.316,2.144c1,.565,2.072.869,3.057,1.429q3.585,2.039,7.358,3.722c2.849,1.271,5.669,2.562,8.495,3.893a2.3,2.3,0,0,0,1.935.278,1.611,1.611,0,0,0,.771-1.058,2.841,2.841,0,0,0-.637-2.594" transform="translate(-1343.101 -2296.35)" fill="#6aa898"/>
              <path id="Trazado_1224038" data-name="Trazado 1224038" d="M1453.492,2558.59c-.487.878-1.6,2.938-1.908,3.534,1.09.768,6.132,3.625,7.452,4.293q3.915,1.979,7.843,3.93c3.247,1.61,6.473,3.3,9.771,4.789a1.014,1.014,0,0,0,1.633-.523l.533-1.007c.1-.2.654-1.2.654-1.2s-1.354-.518-1.732-.713c-1.281-.66-2.587-1.269-3.9-1.866-2.631-1.2-5.292-2.339-7.833-3.723-2.428-1.323-4.794-2.778-7.163-4.2-1.4-.843-5.351-3.313-5.351-3.313" transform="translate(-1324.127 -2333.931)" fill="#2a1d44"/>
              <path id="Trazado_1224039" data-name="Trazado 1224039" d="M1697.939,2631.508a.153.153,0,0,1-.091.28A2.125,2.125,0,0,0,1696,2632.8a.153.153,0,0,1-.264-.156,2.408,2.408,0,0,1,2.122-1.164.154.154,0,0,1,.081.026" transform="translate(-1546.821 -2400.422)" fill="#fff"/>
              <path id="Trazado_1224040" data-name="Trazado 1224040" d="M1674.172,2613.073a.153.153,0,0,1-.131.274,2.348,2.348,0,0,0-2.659,1.081.153.153,0,0,1-.269-.148,2.664,2.664,0,0,1,3.018-1.226.152.152,0,0,1,.042.02" transform="translate(-1524.362 -2383.519)" fill="#fff"/>
              <path id="Trazado_1224041" data-name="Trazado 1224041" d="M1669.761,2597.349a.154.154,0,0,1-.12.277,2.265,2.265,0,0,0-2.075.6.153.153,0,1,1-.218-.216,2.579,2.579,0,0,1,2.362-.689.151.151,0,0,1,.052.022" transform="translate(-1520.905 -2369.211)" fill="#fff"/>
              <path id="Trazado_1224042" data-name="Trazado 1224042" d="M1968.354,2557.958c-1.737-.784-3.8-.91-5.617-1.492a20.577,20.577,0,0,1-5.493-2.7,11.346,11.346,0,0,0-3.516-2.02,7.5,7.5,0,0,0-4.943.826,22,22,0,0,1-4.629,1.969,6.026,6.026,0,0,0-2.468.755,3.541,3.541,0,0,0-1,2.739,2.9,2.9,0,0,0,.413,2.094,3.409,3.409,0,0,0,2.093.922,35.161,35.161,0,0,0,3.921.47c1.148.073,2.237-.1,3.368-.021q4.113.277,8.232.185c3.111-.069,6.2-.11,9.322-.121a2.387,2.387,0,0,0,1.85-.531,1.358,1.358,0,0,0,.21-1.178,2.765,2.765,0,0,0-1.737-1.895" transform="translate(-1770.26 -2327.548)" fill="#6aa898"/>
              <path id="Trazado_1224043" data-name="Trazado 1224043" d="M1940.373,2640.024c-.038.918-.1,3.058-.107,3.673,1.318.207,7.1.587,8.575.62q4.379.1,8.758.167c3.618.055,7.255.186,10.863.119a1.412,1.412,0,0,0,.993-.272,1.141,1.141,0,0,0,.226-.8q.01-.521.021-1.042c0-.2.042-1.249.042-1.249s-1.44.1-1.864.092c-1.439-.042-2.877-.032-4.314-.01-2.884.045-5.769.147-8.656,0-2.76-.14-5.523-.413-8.275-.658-1.63-.145-6.261-.636-6.261-.636" transform="translate(-1769.901 -2408.215)" fill="#2a1d44"/>
              <path id="Trazado_1224044" data-name="Trazado 1224044" d="M2180.11,2603.144a.156.156,0,0,1,.119.083.133.133,0,0,1-.074.185,1.9,1.9,0,0,0-1.189,1.565.145.145,0,0,1-.163.127.148.148,0,0,1-.143-.152,2.151,2.151,0,0,1,1.366-1.8.166.166,0,0,1,.084-.01" transform="translate(-1987.362 -2374.572)" fill="#fff"/>
              <path id="Trazado_1224045" data-name="Trazado 1224045" d="M2151.37,2594.578a.153.153,0,0,1,.131.118.139.139,0,0,1-.125.16,2.156,2.156,0,0,0-1.882,1.939.144.144,0,0,1-.158.132.15.15,0,0,1-.148-.148,2.446,2.446,0,0,1,2.135-2.2.17.17,0,0,1,.046,0" transform="translate(-1960.478 -2366.758)" fill="#fff"/>
              <path id="Trazado_1224046" data-name="Trazado 1224046" d="M2137.794,2585.5a.153.153,0,0,1,.129.108.137.137,0,0,1-.112.168,2.128,2.128,0,0,0-1.576,1.316.153.153,0,0,1-.192.087.142.142,0,0,1-.1-.179,2.42,2.42,0,0,1,1.793-1.5.158.158,0,0,1,.057,0" transform="translate(-1948.389 -2358.474)" fill="#fff"/>
              <path id="Trazado_1224047" data-name="Trazado 1224047" d="M1109.083,1870.77c-3.7.388-7.4.892-11.066,1.47a34.744,34.744,0,0,0-9.174,2.376c-2.725,1.252-6.025,3.749-6.99,6.749-1.08,3.359,1.608,7.686,4.022,9.758a17.93,17.93,0,0,0,10.5,3.9,46.846,46.846,0,0,0,11.319-.98,207.707,207.707,0,0,0,27.8-6.8c4.749-1.536,14.8-4.13,13.6-10.916-.527-2.983-4.045-4.26-7.023-4.813-10.859-2.017-21.972-1.895-32.987-.742" transform="translate(-986.636 -1705.749)" fill="#402c60"/>
              <path id="Trazado_1224048" data-name="Trazado 1224048" d="M1180.006,1875.885a.189.189,0,0,1-.049-.371,114.739,114.739,0,0,1,31.67-3.986.189.189,0,0,1-.005.378,114.306,114.306,0,0,0-31.565,3.972.194.194,0,0,1-.05.007" transform="translate(-1076.223 -1707.186)" fill="#362e3b"/>
              <path id="Trazado_1224049" data-name="Trazado 1224049" d="M1549.9,2060.907a.189.189,0,0,1-.029-.376,41.57,41.57,0,0,0,12.685-4.158.189.189,0,0,1,.174.336,41.961,41.961,0,0,1-12.8,4.2.154.154,0,0,1-.03,0" transform="translate(-1413.637 -1875.793)" fill="#362e3b"/>
              <path id="Trazado_1224050" data-name="Trazado 1224050" d="M1437.867,1502.758a.189.189,0,0,1-.185-.231,13.251,13.251,0,0,0-3.182-11.812.189.189,0,1,1,.277-.257,13.633,13.633,0,0,1,3.274,12.153.189.189,0,0,1-.184.147" transform="translate(-1308.498 -1359.532)" fill="#362e3b"/>
              <path id="Trazado_1224051" data-name="Trazado 1224051" d="M1144.64,1601.125a.189.189,0,0,1-.172-.266,14.233,14.233,0,0,0,1.239-5.873.189.189,0,0,1,.188-.19h0a.189.189,0,0,1,.189.188,14.613,14.613,0,0,1-1.272,6.029.189.189,0,0,1-.172.112" transform="translate(-1043.962 -1454.764)" fill="#362e3b"/>
              <path id="Trazado_1224052" data-name="Trazado 1224052" d="M1408.707,1868.844h-40.315a1.168,1.168,0,0,0-1.168,1.168v.442a1.168,1.168,0,0,0,1.168,1.168h40.315a1.168,1.168,0,0,0,1.168-1.168v-.442a1.168,1.168,0,0,0-1.168-1.168" transform="translate(-1247.174 -1704.749)" fill="#6b5656"/>
              <path id="Trazado_1224053" data-name="Trazado 1224053" d="M1591.527,1613.987h-23.593a1.217,1.217,0,0,0-1.129.761l-8.8,21.753a1.218,1.218,0,0,0,1.129,1.674h23.593a1.218,1.218,0,0,0,1.129-.761l8.8-21.753a1.217,1.217,0,0,0-1.129-1.674" transform="translate(-1421.126 -1472.27)" fill="#6b5656"/>
              <path id="Trazado_1224054" data-name="Trazado 1224054" d="M1747.014,1728.424c-.407,1.352-.041,2.658.818,2.917s1.884-.629,2.291-1.981.041-2.658-.818-2.917-1.884.629-2.291,1.981" transform="translate(-1593.465 -1574.81)" fill="#fff"/>
            </g>
          </g>
        </g>
      </g>
    </g>
  </g>
</svg>
