<svg xmlns="http://www.w3.org/2000/svg" xmlns:xlink="http://www.w3.org/1999/xlink" width="113" height="113" viewBox="0 0 113 113">
  <defs>
    <filter id="Trazado_982547" x="0" y="0" width="113" height="113" filterUnits="userSpaceOnUse">
      <feOffset dy="3" input="SourceAlpha"/>
      <feGaussianBlur stdDeviation="3" result="blur"/>
      <feFlood flood-opacity="0.161"/>
      <feComposite operator="in" in2="blur"/>
      <feComposite in="SourceGraphic"/>
    </filter>
  </defs>
  <g id="Grupo_1234663" data-name="Grupo 1234663" transform="translate(-271.637 -4654.493)">
    <g id="Grupo_1234369" data-name="Grupo 1234369" transform="translate(0.213 -2957.067)">
      <g id="Grupo_1232784" data-name="Grupo 1232784" transform="translate(0 -152.663)">
        <g id="Grupo_1229014" data-name="Grupo 1229014" transform="translate(0 2131.042)">
          <g id="Grupo_1227502" data-name="Grupo 1227502" transform="translate(0 2048.198)">
            <g id="Grupo_1225350" data-name="Grupo 1225350" transform="translate(-0.575 -393.641)">
              <g id="Grupo_1208121" data-name="Grupo 1208121" transform="translate(0 -1922.377)">
                <g id="Grupo_1202432" data-name="Grupo 1202432" transform="translate(0 1255.486)">
                  <g id="Grupo_1202055" data-name="Grupo 1202055" transform="translate(0 3240.511)">
                    <g id="Grupo_1177900" data-name="Grupo 1177900" transform="translate(281 1411.003)">
                      <g id="Grupo_1172010" data-name="Grupo 1172010" transform="translate(0)">
                        <g id="Grupo_1171046" data-name="Grupo 1171046">
                          <g id="Grupo_1148525" data-name="Grupo 1148525">
                            <g transform="matrix(1, 0, 0, 1, -9, -6)" filter="url(#Trazado_982547)">
                              <g id="Trazado_982547-2" data-name="Trazado 982547" transform="translate(9 6)" fill="#cefcf7">
                                <path d="M 47.5 93.5 C 41.28937149047852 93.5 35.26533508300781 92.28397369384766 29.59518623352051 89.88570404052734 C 24.11771965026855 87.56893157958984 19.19813346862793 84.25196075439453 14.97309303283691 80.02691650390625 C 10.74804019927979 75.80186462402344 7.431066513061523 70.88229370117188 5.114293098449707 65.40481567382812 C 2.716026782989502 59.73468017578125 1.5 53.71062850952148 1.5 47.5 C 1.5 41.28937149047852 2.716026782989502 35.26533508300781 5.114293098449707 29.59518623352051 C 7.431066513061523 24.11771965026855 10.74804019927979 19.19813346862793 14.97309303283691 14.97309303283691 C 19.19813346862793 10.74804019927979 24.11771965026855 7.431066513061523 29.59518623352051 5.114293098449707 C 35.26533508300781 2.716026782989502 41.28937149047852 1.5 47.5 1.5 C 53.71062850952148 1.5 59.73468017578125 2.716026782989502 65.40481567382812 5.114293098449707 C 70.88229370117188 7.431066513061523 75.80186462402344 10.74804019927979 80.02691650390625 14.97309303283691 C 84.25196075439453 19.19813346862793 87.56893157958984 24.11771965026855 89.88570404052734 29.59518623352051 C 92.28397369384766 35.26533508300781 93.5 41.28937149047852 93.5 47.5 C 93.5 53.71062850952148 92.28397369384766 59.73468017578125 89.88570404052734 65.40481567382812 C 87.56893157958984 70.88229370117188 84.25196075439453 75.80186462402344 80.02691650390625 80.02691650390625 C 75.80186462402344 84.25196075439453 70.88229370117188 87.56893157958984 65.40481567382812 89.88570404052734 C 59.73468017578125 92.28397369384766 53.71062850952148 93.5 47.5 93.5 Z" stroke="none"/>
                                <path d="M 47.5 3 C 41.49121475219727 3 35.66376876831055 4.176155090332031 30.17950439453125 6.495796203613281 C 24.88084411621094 8.736953735351562 20.12152099609375 11.94598388671875 16.03375244140625 16.03375244140625 C 11.94598388671875 20.12152099609375 8.736953735351562 24.88084411621094 6.495796203613281 30.17950439453125 C 4.176155090332031 35.66376876831055 3 41.49121475219727 3 47.5 C 3 53.50878524780273 4.176155090332031 59.33623123168945 6.495796203613281 64.82049560546875 C 8.736953735351562 70.11915588378906 11.94598388671875 74.87847900390625 16.03375244140625 78.96624755859375 C 20.12152099609375 83.05401611328125 24.88084411621094 86.26304626464844 30.17950439453125 88.50419616699219 C 35.66376876831055 90.82384490966797 41.49121475219727 92 47.5 92 C 53.50878524780273 92 59.33623123168945 90.82384490966797 64.82049560546875 88.50419616699219 C 70.11915588378906 86.26304626464844 74.87847900390625 83.05401611328125 78.96624755859375 78.96624755859375 C 83.05401611328125 74.87847900390625 86.26304626464844 70.11915588378906 88.50419616699219 64.82049560546875 C 90.82384490966797 59.33623123168945 92 53.50878524780273 92 47.5 C 92 41.49121475219727 90.82384490966797 35.66376876831055 88.50419616699219 30.17950439453125 C 86.26304626464844 24.88084411621094 83.05401611328125 20.12152099609375 78.96624755859375 16.03375244140625 C 74.87847900390625 11.94598388671875 70.11915588378906 8.736953735351562 64.82049560546875 6.495796203613281 C 59.33623123168945 4.176155090332031 53.50878524780273 3 47.5 3 M 47.5 0 C 73.7335205078125 0 95 21.2664794921875 95 47.5 C 95 73.7335205078125 73.7335205078125 95 47.5 95 C 21.2664794921875 95 0 73.7335205078125 0 47.5 C 0 21.2664794921875 21.2664794921875 0 47.5 0 Z" stroke="none" fill="#098576"/>
                              </g>
                            </g>
                          </g>
                        </g>
                      </g>
                    </g>
                  </g>
                </g>
              </g>
            </g>
          </g>
        </g>
      </g>
    </g>
    <g id="global_1_" data-name="global (1)" transform="translate(296.137 4675.997)">
      <path id="Trazado_1224406" data-name="Trazado 1224406" d="M61,43V61H43V37H55v6Z" fill="#ffeb99"/>
      <path id="Trazado_1224407" data-name="Trazado 1224407" d="M61,17V29H45V17a1.087,1.087,0,0,1,.01-.18A2,2,0,0,1,47,15H59A2.006,2.006,0,0,1,61,17Z" fill="#ff3051"/>
      <path id="Trazado_1224408" data-name="Trazado 1224408" d="M61,43H55V37Z" fill="#ff9811"/>
      <circle id="Elipse_13879" data-name="Elipse 13879" cx="6" cy="6" r="6" transform="translate(47 3)" fill="#ffc477"/>
      <path id="Trazado_1224409" data-name="Trazado 1224409" d="M52,32H40a43.439,43.439,0,0,0-1.36-11.14A19.881,19.881,0,0,0,45,17.19V29h6.77A19.8,19.8,0,0,1,52,32Z" fill="#2488ff"/>
      <path id="Trazado_1224410" data-name="Trazado 1224410" d="M40,32H52a20.15,20.15,0,0,1-.63,5H43v9.3a19.777,19.777,0,0,0-4.62-2.25A42.59,42.59,0,0,0,40,32Z" fill="#9bc9ff"/>
      <path id="Trazado_1224411" data-name="Trazado 1224411" d="M45.01,16.82A1.087,1.087,0,0,0,45,17v.19a19.881,19.881,0,0,1-6.36,3.67C37.21,15.51,34.77,12,32,12a19.922,19.922,0,0,1,13.01,4.82Z" fill="#9bc9ff"/>
      <path id="Trazado_1224412" data-name="Trazado 1224412" d="M43,46.3v2.4A19.867,19.867,0,0,1,32,52c2.61,0,4.92-3.12,6.38-7.95A19.777,19.777,0,0,1,43,46.3Z" fill="#2488ff"/>
      <path id="Trazado_1224413" data-name="Trazado 1224413" d="M40,32H24q0-1.53.09-3H27a2.006,2.006,0,0,0,2-2V21.78A21.075,21.075,0,0,0,32,22a19.7,19.7,0,0,0,6.64-1.14A43.439,43.439,0,0,1,40,32Z" fill="#9bc9ff"/>
      <path id="Trazado_1224414" data-name="Trazado 1224414" d="M24,32H40a42.59,42.59,0,0,1-1.62,12.05A19.8,19.8,0,0,0,32,43a19.491,19.491,0,0,0-6.38,1.05A42.59,42.59,0,0,1,24,32Z" fill="#2488ff"/>
      <path id="Trazado_1224415" data-name="Trazado 1224415" d="M32,43a19.8,19.8,0,0,1,6.38,1.05C36.92,48.88,34.61,52,32,52s-4.92-3.12-6.38-7.95A19.491,19.491,0,0,1,32,43Z" fill="#9bc9ff"/>
      <path id="Trazado_1224416" data-name="Trazado 1224416" d="M32,12c2.77,0,5.21,3.51,6.64,8.86A19.7,19.7,0,0,1,32,22a21.075,21.075,0,0,1-3-.22V13.45A4.292,4.292,0,0,1,32,12Z" fill="#2488ff"/>
      <path id="Trazado_1224417" data-name="Trazado 1224417" d="M29,21.78V27a2.006,2.006,0,0,1-2,2H9a2.006,2.006,0,0,1-2-2V13a2.006,2.006,0,0,1,2-2H27a1.991,1.991,0,0,1,1.85,1.25A1.9,1.9,0,0,1,29,13Z" fill="#ffc477"/>
      <path id="Trazado_1224418" data-name="Trazado 1224418" d="M25.62,44.05C27.08,48.88,29.39,52,32,52a19.848,19.848,0,0,1-12.63-4.5,19.883,19.883,0,0,1,6.25-3.45Z" fill="#2488ff"/>
      <path id="Trazado_1224419" data-name="Trazado 1224419" d="M25.62,44.05a19.883,19.883,0,0,0-6.25,3.45,19.572,19.572,0,0,1-3.26-3.36A5.9,5.9,0,0,0,17,41a6.015,6.015,0,0,0-4.75-5.87A18.98,18.98,0,0,1,12,32H24a42.59,42.59,0,0,0,1.62,12.05Z" fill="#9bc9ff"/>
      <path id="Trazado_1224420" data-name="Trazado 1224420" d="M25,9v2H9a2.006,2.006,0,0,0-2,2V27a2.006,2.006,0,0,0,2,2H5a2.006,2.006,0,0,1-2-2V5A2.006,2.006,0,0,1,5,3H9a2.015,2.015,0,0,1,2,2,2.006,2.006,0,0,0,2,2H23a2.006,2.006,0,0,1,2,2Z" fill="#ff7956"/>
      <path id="Trazado_1224421" data-name="Trazado 1224421" d="M12.23,29H24.09Q24,30.47,24,32H12a19.8,19.8,0,0,1,.23-3Z" fill="#2488ff"/>
      <path id="Trazado_1224422" data-name="Trazado 1224422" d="M19,49V61H3V49a2.006,2.006,0,0,1,2-2H17a2.006,2.006,0,0,1,2,2Z" fill="#b2fa09"/>
      <path id="Trazado_1224423" data-name="Trazado 1224423" d="M17,41a5.9,5.9,0,0,1-.89,3.14A6,6,0,1,1,11,35a5.7,5.7,0,0,1,1.25.13A6.015,6.015,0,0,1,17,41Z" fill="#ffc477"/>
      <path id="Trazado_1224424" data-name="Trazado 1224424" d="M62,29V17a3,3,0,0,0-3-3H57.889a7,7,0,1,0-9.778,0H47a2.992,2.992,0,0,0-2.407,1.226A20.984,20.984,0,0,0,32,11a20.586,20.586,0,0,0-2.631.18A2.988,2.988,0,0,0,27,10H26V9a3,3,0,0,0-3-3H13a1,1,0,0,1-1-1A3,3,0,0,0,9,2H5A3,3,0,0,0,2,5V27a3,3,0,0,0,3,3h6.11c-.066.668-.11,1.337-.11,2,0,.683.043,1.35.106,2.005-.036,0-.07-.005-.106-.005A6.993,6.993,0,0,0,6.111,46H5a3,3,0,0,0-3,3V61a1,1,0,0,0,1,1H19a1,1,0,0,0,1-1V49.24a20.989,20.989,0,0,0,22,1.218V61a1,1,0,0,0,1,1H61a1,1,0,0,0,1-1V43a1,1,0,0,0-.293-.707l-6-6A1,1,0,0,0,55,36H52.617A21.2,21.2,0,0,0,53,32c0-.663-.044-1.332-.11-2H61a1,1,0,0,0,1-1ZM48,9a5,5,0,1,1,5,5,5,5,0,0,1-5-5ZM32,51c-1.81,0-3.729-2.344-5.1-6.289a18.724,18.724,0,0,1,10.2,0C35.731,48.653,33.811,51,32,51Zm-4.315-.489a18.735,18.735,0,0,1-6.664-3,18.972,18.972,0,0,1,3.985-2.158,17.572,17.572,0,0,0,2.679,5.158ZM32,42a20.911,20.911,0,0,0-5.69.8A41.424,41.424,0,0,1,25.021,33H38.979a41.408,41.408,0,0,1-1.287,9.793A20.979,20.979,0,0,0,32,42ZM25.03,31c.007-.335.016-.668.03-1H27a3,3,0,0,0,3-3V22.894c.674.063,1.344.106,2,.106a20.934,20.934,0,0,0,5.92-.869A42.453,42.453,0,0,1,38.979,31ZM32,21a19.781,19.781,0,0,1-2-.116V13.9a3.11,3.11,0,0,1,2-.9c1.945,0,4.015,2.708,5.4,7.2A18.954,18.954,0,0,1,32,21Zm4.341-7.477A19.011,19.011,0,0,1,43.621,17a18.933,18.933,0,0,1-4.346,2.528,18.745,18.745,0,0,0-2.934-6ZM4,27V5A1,1,0,0,1,5,4H9a1,1,0,0,1,1,1,3,3,0,0,0,3,3H23a1,1,0,0,1,1,1v1H9a3,3,0,0,0-3,3V27a2.966,2.966,0,0,0,.184,1H5A1,1,0,0,1,4,27Zm4,0V13a1,1,0,0,1,1-1H27a1,1,0,0,1,1,1V27a1,1,0,0,1-1,1H9A1,1,0,0,1,8,27Zm15.06,3c-.013.333-.023.665-.03,1H13.039c.018-.334.046-.666.082-1ZM13.039,33h9.982a43.163,43.163,0,0,0,1.4,10.439,20.981,20.981,0,0,0-5.012,2.786,19.336,19.336,0,0,1-2.1-2.2,6.974,6.974,0,0,0-4.143-9.679c-.066-.441-.1-.89-.127-1.346ZM16.13,45.747c.074.086.154.168.23.253h-.471C15.973,45.919,16.05,45.832,16.13,45.747ZM6,41a5,5,0,1,1,5,5,5,5,0,0,1-5-5ZM18,60H4V49a1,1,0,0,1,1-1H17a1,1,0,0,1,1,1Zm18.326-9.5A17.627,17.627,0,0,0,39,45.342a18.958,18.958,0,0,1,3,1.519V48.14A18.832,18.832,0,0,1,36.326,50.5ZM44,60V38H54v5a1,1,0,0,0,1,1h5V60ZM56,39.414,58.586,42H56ZM43,36a1,1,0,0,0-1,1v7.543a20.868,20.868,0,0,0-2.414-1.123A43.189,43.189,0,0,0,40.979,33h9.99a19.155,19.155,0,0,1-.4,3Zm7.961-5H40.979a44.2,44.2,0,0,0-1.164-9.531A20.989,20.989,0,0,0,44,19.217V29a1,1,0,0,0,1,1h5.879C50.915,30.334,50.943,30.666,50.961,31ZM60,28H46V17a1,1,0,0,1,1-1H59a1,1,0,0,1,1,1Z"/>
      <path id="Trazado_1224425" data-name="Trazado 1224425" d="M48,48h8v2H48Z"/>
      <path id="Trazado_1224426" data-name="Trazado 1224426" d="M48,54h8v2H48Z"/>
    </g>
  </g>
</svg>
