<svg xmlns="http://www.w3.org/2000/svg" xmlns:xlink="http://www.w3.org/1999/xlink" width="113" height="113" viewBox="0 0 113 113">
  <defs>
    <filter id="Trazado_982547" x="0" y="0" width="113" height="113" filterUnits="userSpaceOnUse">
      <feOffset dy="3" input="SourceAlpha"/>
      <feGaussianBlur stdDeviation="3" result="blur"/>
      <feFlood flood-opacity="0.161"/>
      <feComposite operator="in" in2="blur"/>
      <feComposite in="SourceGraphic"/>
    </filter>
  </defs>
  <g id="Grupo_1234665" data-name="Grupo 1234665" transform="translate(-586.213 -4654.511)">
    <g id="Grupo_1234370" data-name="Grupo 1234370" transform="translate(0.213 -2957.067)">
      <g id="Grupo_1232785" data-name="Grupo 1232785" transform="translate(0 -152.663)">
        <g id="Grupo_1229015" data-name="Grupo 1229015" transform="translate(1 2131.042)">
          <g id="Grupo_1227503" data-name="Grupo 1227503" transform="translate(0 2048.198)">
            <g id="Grupo_1225351" data-name="Grupo 1225351" transform="translate(-1 -393.91)">
              <g id="Grupo_1208122" data-name="Grupo 1208122" transform="translate(0 -1922.377)">
                <g id="Grupo_1202433" data-name="Grupo 1202433" transform="translate(-0.56 1255.773)">
                  <g id="Grupo_1202054" data-name="Grupo 1202054" transform="translate(0 3240.511)">
                    <g id="Grupo_1177897" data-name="Grupo 1177897" transform="translate(595.561 1411.003)">
                      <g id="Grupo_1172010" data-name="Grupo 1172010" transform="translate(0)">
                        <g id="Grupo_1171046" data-name="Grupo 1171046">
                          <g id="Grupo_1148525" data-name="Grupo 1148525">
                            <g transform="matrix(1, 0, 0, 1, -9, -6)" filter="url(#Trazado_982547)">
                              <g id="Trazado_982547-2" data-name="Trazado 982547" transform="translate(9 6)" fill="#cefcf7">
                                <path d="M 47.5 93.5 C 41.28937149047852 93.5 35.26533508300781 92.28397369384766 29.59518623352051 89.88570404052734 C 24.11771965026855 87.56893157958984 19.19813346862793 84.25196075439453 14.97309303283691 80.02691650390625 C 10.74804019927979 75.80186462402344 7.431066513061523 70.88229370117188 5.114293098449707 65.40481567382812 C 2.716026782989502 59.73468017578125 1.5 53.71062850952148 1.5 47.5 C 1.5 41.28937149047852 2.716026782989502 35.26533508300781 5.114293098449707 29.59518623352051 C 7.431066513061523 24.11771965026855 10.74804019927979 19.19813346862793 14.97309303283691 14.97309303283691 C 19.19813346862793 10.74804019927979 24.11771965026855 7.431066513061523 29.59518623352051 5.114293098449707 C 35.26533508300781 2.716026782989502 41.28937149047852 1.5 47.5 1.5 C 53.71062850952148 1.5 59.73468017578125 2.716026782989502 65.40481567382812 5.114293098449707 C 70.88229370117188 7.431066513061523 75.80186462402344 10.74804019927979 80.02691650390625 14.97309303283691 C 84.25196075439453 19.19813346862793 87.56893157958984 24.11771965026855 89.88570404052734 29.59518623352051 C 92.28397369384766 35.26533508300781 93.5 41.28937149047852 93.5 47.5 C 93.5 53.71062850952148 92.28397369384766 59.73468017578125 89.88570404052734 65.40481567382812 C 87.56893157958984 70.88229370117188 84.25196075439453 75.80186462402344 80.02691650390625 80.02691650390625 C 75.80186462402344 84.25196075439453 70.88229370117188 87.56893157958984 65.40481567382812 89.88570404052734 C 59.73468017578125 92.28397369384766 53.71062850952148 93.5 47.5 93.5 Z" stroke="none"/>
                                <path d="M 47.5 3 C 41.49121475219727 3 35.66376876831055 4.176155090332031 30.17950439453125 6.495796203613281 C 24.88084411621094 8.736953735351562 20.12152099609375 11.94598388671875 16.03375244140625 16.03375244140625 C 11.94598388671875 20.12152099609375 8.736953735351562 24.88084411621094 6.495796203613281 30.17950439453125 C 4.176155090332031 35.66376876831055 3 41.49121475219727 3 47.5 C 3 53.50878524780273 4.176155090332031 59.33623123168945 6.495796203613281 64.82049560546875 C 8.736953735351562 70.11915588378906 11.94598388671875 74.87847900390625 16.03375244140625 78.96624755859375 C 20.12152099609375 83.05401611328125 24.88084411621094 86.26304626464844 30.17950439453125 88.50419616699219 C 35.66376876831055 90.82384490966797 41.49121475219727 92 47.5 92 C 53.50878524780273 92 59.33623123168945 90.82384490966797 64.82049560546875 88.50419616699219 C 70.11915588378906 86.26304626464844 74.87847900390625 83.05401611328125 78.96624755859375 78.96624755859375 C 83.05401611328125 74.87847900390625 86.26304626464844 70.11915588378906 88.50419616699219 64.82049560546875 C 90.82384490966797 59.33623123168945 92 53.50878524780273 92 47.5 C 92 41.49121475219727 90.82384490966797 35.66376876831055 88.50419616699219 30.17950439453125 C 86.26304626464844 24.88084411621094 83.05401611328125 20.12152099609375 78.96624755859375 16.03375244140625 C 74.87847900390625 11.94598388671875 70.11915588378906 8.736953735351562 64.82049560546875 6.495796203613281 C 59.33623123168945 4.176155090332031 53.50878524780273 3 47.5 3 M 47.5 0 C 73.7335205078125 0 95 21.2664794921875 95 47.5 C 95 73.7335205078125 73.7335205078125 95 47.5 95 C 21.2664794921875 95 0 73.7335205078125 0 47.5 C 0 21.2664794921875 21.2664794921875 0 47.5 0 Z" stroke="none" fill="#098576"/>
                              </g>
                            </g>
                          </g>
                        </g>
                      </g>
                    </g>
                  </g>
                </g>
              </g>
            </g>
          </g>
        </g>
      </g>
    </g>
    <g id="cromo" transform="translate(608.405 4674.129)">
      <path id="Trazado_1224427" data-name="Trazado 1224427" d="M208.24,200.953a7.286,7.286,0,1,1-7.286,7.286A7.284,7.284,0,0,1,208.24,200.953Z" transform="translate(-174.357 -174.357)" fill="#1c75bc"/>
      <path id="Trazado_1224428" data-name="Trazado 1224428" d="M183.282,183.83a12.383,12.383,0,0,1-18.111-1.241l-1.045-1.5a12.387,12.387,0,1,1,19.156,2.746Zm-1.194-9.027a7.286,7.286,0,1,0-7.286,7.286A7.284,7.284,0,0,0,182.088,174.8Z" transform="translate(-140.92 -140.921)" fill="#e7eced"/>
      <path id="Trazado_1224429" data-name="Trazado 1224429" d="M209.831,162.417H179.464a12.385,12.385,0,0,1,8.48,21.413l-19.527,20.922-.61.653-.017.045a32.806,32.806,0,0,0,42.042-43.033Z" transform="translate(-145.581 -140.921)" fill="#ffd248"/>
      <path id="Trazado_1224430" data-name="Trazado 1224430" d="M44.353,150.569a12.38,12.38,0,0,1-12.925-4.153,12.074,12.074,0,0,1-1.045-1.5L15.574,123.585l-1.985-2.859a32.8,32.8,0,0,0,15.8,48.551l.017-.045,1.362-1.459,16.2-17.359,2.573-2.757A12.37,12.37,0,0,1,44.353,150.569Z" transform="translate(-7.176 -104.748)" fill="#36c63f"/>
      <path id="Trazado_1224431" data-name="Trazado 1224431" d="M75.912,8.272A32.756,32.756,0,0,0,48.441,23.155l1.6,2.3,13.127,18.9,2.069,2.98a12.3,12.3,0,0,1-1.628-4.872,12.518,12.518,0,0,1-.081-1.41A12.386,12.386,0,0,1,75.912,28.673h30.367A32.8,32.8,0,0,0,75.912,8.272Z" transform="translate(-42.029 -7.177)" fill="#dd352e"/>
      <circle id="Elipse_13880" data-name="Elipse 13880" cx="4.306" cy="4.306" r="4.306" transform="translate(29.593 29.56)" fill="#0082c6"/>
      <path id="Trazado_1224432" data-name="Trazado 1224432" d="M209.831,162.417h-2.642a32.808,32.808,0,0,1-38.772,42.334l-.61.653-.017.045a32.806,32.806,0,0,0,42.042-43.033Z" transform="translate(-145.581 -140.921)" fill="#fdbf47"/>
      <path id="Trazado_1224433" data-name="Trazado 1224433" d="M12.143,138.2a32.645,32.645,0,0,1,3.43-14.613l-1.985-2.859a32.8,32.8,0,0,0,15.8,48.551l.017-.045,1.362-1.459A32.787,32.787,0,0,1,12.143,138.2Z" transform="translate(-7.176 -104.748)" fill="#00af4d"/>
      <path id="Trazado_1224434" data-name="Trazado 1224434" d="M75.413,13.434a32.76,32.76,0,0,1,27.7,15.24h3.166a32.8,32.8,0,0,0-57.837-5.518l1.6,2.3A32.719,32.719,0,0,1,75.413,13.434Z" transform="translate(-42.029 -7.177)" fill="#c02e25"/>
      <path id="Trazado_1224435" data-name="Trazado 1224435" d="M65.263,21.082h0a33.92,33.92,0,1,0,2.5,12.8A33.857,33.857,0,0,0,65.263,21.082ZM33.883,2.19A31.7,31.7,0,0,1,62.574,20.4H33.883A13.5,13.5,0,0,0,20.4,33.882c0,.111,0,.221.006.332L7.739,15.969A31.608,31.608,0,0,1,33.883,2.19Zm7.73,39.921a11.288,11.288,0,0,1-16.488-1.105l-.992-1.429a11.292,11.292,0,1,1,17.481,2.535ZM7.919,52.061A31.715,31.715,0,0,1,6.466,17.976L22.291,40.765a13.216,13.216,0,0,0,1.077,1.55l.143.206.017-.012A13.492,13.492,0,0,0,37.06,46.985L21.9,63.229A31.638,31.638,0,0,1,7.919,52.061Zm48.373,4.231a31.734,31.734,0,0,1-32.16,7.753L43.144,43.676a13.473,13.473,0,0,0-1.9-21.085H63.5a31.732,31.732,0,0,1-7.212,33.7Z"/>
      <path id="Trazado_1224436" data-name="Trazado 1224436" d="M201.063,192.681a8.38,8.38,0,1,0,8.38,8.38A8.39,8.39,0,0,0,201.063,192.681Zm0,14.571a6.191,6.191,0,1,1,6.191-6.191A6.2,6.2,0,0,1,201.063,207.252Z" transform="translate(-167.18 -167.179)"/>
      <g id="Grupo_1234664" data-name="Grupo 1234664" transform="translate(4.818 4.9)">
        <path id="Trazado_1224437" data-name="Trazado 1224437" d="M48,250.621a38.381,38.381,0,0,1-10.164-16.259,33.522,33.522,0,0,1-1.276-12.951l2.178.219a31.312,31.312,0,0,0,1.194,12.1,36.219,36.219,0,0,0,9.6,15.33Z" transform="translate(-36.396 -197.008)" fill="#fff"/>
        <path id="Trazado_1224438" data-name="Trazado 1224438" d="M42.332,184.18l-2.154-.394a20.247,20.247,0,0,1,.733-2.947l2.06.741-1.03-.37,1.031.369A18.568,18.568,0,0,0,42.332,184.18Z" transform="translate(-39.677 -161.805)" fill="#fff"/>
        <path id="Trazado_1224439" data-name="Trazado 1224439" d="M402.161,96.495c-.562-.491-1.137-.968-1.708-1.417l1.353-1.721c.6.473,1.205.974,1.8,1.49Z" transform="translate(-352.27 -85.9)" fill="#fff"/>
        <path id="Trazado_1224440" data-name="Trazado 1224440" d="M107.24,45.6l-1.384-1.7a34.377,34.377,0,0,1,11.633-5.695,31.006,31.006,0,0,1,12.263-.946,32.494,32.494,0,0,1,14.5,5.775l-1.25,1.8a30.349,30.349,0,0,0-13.473-5.394,28.8,28.8,0,0,0-11.372.855A32.816,32.816,0,0,0,107.24,45.6Z" transform="translate(-96.663 -37.023)" fill="#fff"/>
        <path id="Trazado_1224441" data-name="Trazado 1224441" d="M283.683,466.947l-.6-2.106c.874-.249,1.737-.522,2.567-.812l.722,2.067C285.5,466.4,284.6,466.686,283.683,466.947Z" transform="translate(-250.434 -407.514)" fill="#fff"/>
        <path id="Trazado_1224442" data-name="Trazado 1224442" d="M320.513,239.92l-.841-2.022a31.583,31.583,0,0,0,12.676-9.2,29.648,29.648,0,0,0,5.508-10.939,34.632,34.632,0,0,0,1.008-13.007l2.163-.342a36.36,36.36,0,0,1-1.058,13.923,31.821,31.821,0,0,1-5.917,11.74A33.744,33.744,0,0,1,320.513,239.92Z" transform="translate(-282.18 -182.253)" fill="#fff"/>
        <rect id="Rectángulo_423693" data-name="Rectángulo 423693" width="2.044" height="2.19" transform="translate(27.986 27.798)" fill="#fff"/>
      </g>
    </g>
  </g>
</svg>
