<svg xmlns="http://www.w3.org/2000/svg" xmlns:xlink="http://www.w3.org/1999/xlink" width="113" height="113" viewBox="0 0 113 113">
  <defs>
    <filter id="Trazado_982547" x="0" y="0" width="113" height="113" filterUnits="userSpaceOnUse">
      <feOffset dy="3" input="SourceAlpha"/>
      <feGaussianBlur stdDeviation="3" result="blur"/>
      <feFlood flood-opacity="0.161"/>
      <feComposite operator="in" in2="blur"/>
      <feComposite in="SourceGraphic"/>
    </filter>
  </defs>
  <g id="Grupo_1234666" data-name="Grupo 1234666" transform="translate(-901.213 -4654.78)">
    <g id="Grupo_1234371" data-name="Grupo 1234371" transform="translate(0.213 -2957.067)">
      <g id="Grupo_1232786" data-name="Grupo 1232786" transform="translate(0 -152.663)">
        <g id="Grupo_1229016" data-name="Grupo 1229016" transform="translate(0.575 2131.042)">
          <g id="Grupo_1227504" data-name="Grupo 1227504" transform="translate(0 2048.198)">
            <g id="Grupo_1225352" data-name="Grupo 1225352" transform="translate(-0.575 -393.641)">
              <g id="Grupo_1208123" data-name="Grupo 1208123" transform="translate(0 -1922.377)">
                <g id="Grupo_1202434" data-name="Grupo 1202434" transform="translate(-0.56 1255.773)">
                  <g id="Grupo_1202053" data-name="Grupo 1202053" transform="translate(0 3240.511)">
                    <g id="Grupo_1177898" data-name="Grupo 1177898" transform="translate(910.561 1411.003)">
                      <g id="Grupo_1172010" data-name="Grupo 1172010" transform="translate(0)">
                        <g id="Grupo_1171046" data-name="Grupo 1171046">
                          <g id="Grupo_1148525" data-name="Grupo 1148525">
                            <g transform="matrix(1, 0, 0, 1, -9, -6)" filter="url(#Trazado_982547)">
                              <g id="Trazado_982547-2" data-name="Trazado 982547" transform="translate(9 6)" fill="#cefcf7">
                                <path d="M 47.5 93.5 C 41.28937149047852 93.5 35.26533508300781 92.28397369384766 29.59518623352051 89.88570404052734 C 24.11771965026855 87.56893157958984 19.19813346862793 84.25196075439453 14.97309303283691 80.02691650390625 C 10.74804019927979 75.80186462402344 7.431066513061523 70.88229370117188 5.114293098449707 65.40481567382812 C 2.716026782989502 59.73468017578125 1.5 53.71062850952148 1.5 47.5 C 1.5 41.28937149047852 2.716026782989502 35.26533508300781 5.114293098449707 29.59518623352051 C 7.431066513061523 24.11771965026855 10.74804019927979 19.19813346862793 14.97309303283691 14.97309303283691 C 19.19813346862793 10.74804019927979 24.11771965026855 7.431066513061523 29.59518623352051 5.114293098449707 C 35.26533508300781 2.716026782989502 41.28937149047852 1.5 47.5 1.5 C 53.71062850952148 1.5 59.73468017578125 2.716026782989502 65.40481567382812 5.114293098449707 C 70.88229370117188 7.431066513061523 75.80186462402344 10.74804019927979 80.02691650390625 14.97309303283691 C 84.25196075439453 19.19813346862793 87.56893157958984 24.11771965026855 89.88570404052734 29.59518623352051 C 92.28397369384766 35.26533508300781 93.5 41.28937149047852 93.5 47.5 C 93.5 53.71062850952148 92.28397369384766 59.73468017578125 89.88570404052734 65.40481567382812 C 87.56893157958984 70.88229370117188 84.25196075439453 75.80186462402344 80.02691650390625 80.02691650390625 C 75.80186462402344 84.25196075439453 70.88229370117188 87.56893157958984 65.40481567382812 89.88570404052734 C 59.73468017578125 92.28397369384766 53.71062850952148 93.5 47.5 93.5 Z" stroke="none"/>
                                <path d="M 47.5 3 C 41.49121475219727 3 35.66376876831055 4.176155090332031 30.17950439453125 6.495796203613281 C 24.88084411621094 8.736953735351562 20.12152099609375 11.94598388671875 16.03375244140625 16.03375244140625 C 11.94598388671875 20.12152099609375 8.736953735351562 24.88084411621094 6.495796203613281 30.17950439453125 C 4.176155090332031 35.66376876831055 3 41.49121475219727 3 47.5 C 3 53.50878524780273 4.176155090332031 59.33623123168945 6.495796203613281 64.82049560546875 C 8.736953735351562 70.11915588378906 11.94598388671875 74.87847900390625 16.03375244140625 78.96624755859375 C 20.12152099609375 83.05401611328125 24.88084411621094 86.26304626464844 30.17950439453125 88.50419616699219 C 35.66376876831055 90.82384490966797 41.49121475219727 92 47.5 92 C 53.50878524780273 92 59.33623123168945 90.82384490966797 64.82049560546875 88.50419616699219 C 70.11915588378906 86.26304626464844 74.87847900390625 83.05401611328125 78.96624755859375 78.96624755859375 C 83.05401611328125 74.87847900390625 86.26304626464844 70.11915588378906 88.50419616699219 64.82049560546875 C 90.82384490966797 59.33623123168945 92 53.50878524780273 92 47.5 C 92 41.49121475219727 90.82384490966797 35.66376876831055 88.50419616699219 30.17950439453125 C 86.26304626464844 24.88084411621094 83.05401611328125 20.12152099609375 78.96624755859375 16.03375244140625 C 74.87847900390625 11.94598388671875 70.11915588378906 8.736953735351562 64.82049560546875 6.495796203613281 C 59.33623123168945 4.176155090332031 53.50878524780273 3 47.5 3 M 47.5 0 C 73.7335205078125 0 95 21.2664794921875 95 47.5 C 95 73.7335205078125 73.7335205078125 95 47.5 95 C 21.2664794921875 95 0 73.7335205078125 0 47.5 C 0 21.2664794921875 21.2664794921875 0 47.5 0 Z" stroke="none" fill="#098576"/>
                              </g>
                            </g>
                          </g>
                        </g>
                      </g>
                    </g>
                  </g>
                </g>
              </g>
            </g>
          </g>
        </g>
      </g>
    </g>
    <g id="revisar_1_" data-name="revisar (1)" transform="translate(926.038 4675.241)">
      <path id="Trazado_1224443" data-name="Trazado 1224443" d="M72.526,403.8l-2.723-.4-6.676,3.171,3.161,7.646,2.435,1.28a1.827,1.827,0,0,0,2.651-1.926l-.669-3.9,2.832-2.761A1.827,1.827,0,0,0,72.526,403.8Z" transform="translate(-55.44 -354.276)" fill="#ffcf57"/>
      <path id="Trazado_1224444" data-name="Trazado 1224444" d="M20.951,369.235l-1.192-.173-1.751-3.547a1.827,1.827,0,0,0-3.277,0l-1.751,3.547-3.914.569a1.827,1.827,0,0,0-1.013,3.116l2.832,2.761-.669,3.9a1.827,1.827,0,0,0,2.651,1.926l3.5-1.841,1.066.56a.913.913,0,0,0,1.325-.963l-.833-4.857,3.529-3.44a.914.914,0,0,0-.506-1.558Z" transform="translate(-6.588 -320.105)" fill="#ffe46b"/>
      <path id="Trazado_1224445" data-name="Trazado 1224445" d="M248.192,403.8l-2.723-.4-6.676,3.171,3.161,7.646,2.435,1.28a1.827,1.827,0,0,0,2.651-1.926l-.669-3.9,2.832-2.761A1.827,1.827,0,0,0,248.192,403.8Z" transform="translate(-209.714 -354.276)" fill="#ffcf57"/>
      <path id="Trazado_1224446" data-name="Trazado 1224446" d="M196.617,369.234l-1.192-.173-1.751-3.547a1.827,1.827,0,0,0-3.277,0l-1.751,3.547-3.914.569a1.827,1.827,0,0,0-1.013,3.116l2.832,2.761-.669,3.9a1.827,1.827,0,0,0,2.651,1.926l3.5-1.841,1.066.56a.913.913,0,0,0,1.325-.963l-.833-4.857,3.529-3.44a.913.913,0,0,0-.506-1.558Z" transform="translate(-160.862 -320.104)" fill="#ffe46b"/>
      <path id="Trazado_1224447" data-name="Trazado 1224447" d="M423.859,403.8l-2.723-.4-6.676,3.171,3.161,7.646,2.435,1.28a1.827,1.827,0,0,0,2.651-1.926l-.669-3.9,2.832-2.761A1.827,1.827,0,0,0,423.859,403.8Z" transform="translate(-363.989 -354.276)" fill="#ffcf57"/>
      <path id="Trazado_1224448" data-name="Trazado 1224448" d="M372.284,369.234l-1.192-.173-1.751-3.547a1.827,1.827,0,0,0-3.277,0l-1.751,3.547-3.914.569a1.827,1.827,0,0,0-1.013,3.116l2.832,2.761-.669,3.9a1.827,1.827,0,0,0,2.651,1.926l3.5-1.841,1.066.56a.913.913,0,0,0,1.325-.963l-.833-4.857,3.529-3.44A.913.913,0,0,0,372.284,369.234Z" transform="translate(-315.136 -320.104)" fill="#ffe46b"/>
      <circle id="Elipse_13881" data-name="Elipse 13881" cx="19.911" cy="19.911" r="19.911" transform="translate(11.264 0.918)" fill="#fffbe5"/>
      <path id="Trazado_1224449" data-name="Trazado 1224449" d="M148.284,214.505a3.656,3.656,0,0,0-3.656,3.656,16.4,16.4,0,0,0,3.653,3.925l3.656-7.581Z" transform="translate(-127.016 -188.379)" fill="#25a5fa"/>
      <path id="Trazado_1224450" data-name="Trazado 1224450" d="M311,214.505H307.35l3.656,7.581a16.4,16.4,0,0,0,3.653-3.925A3.656,3.656,0,0,0,311,214.505Z" transform="translate(-269.922 -188.379)" fill="#4578de"/>
      <path id="Trazado_1224451" data-name="Trazado 1224451" d="M190.791,214.505H178.284a3.656,3.656,0,0,0-3.656,3.656v3.925a16.22,16.22,0,0,0,19.819,0v-3.925A3.656,3.656,0,0,0,190.791,214.505Z" transform="translate(-153.363 -188.379)" fill="#3b88f5"/>
      <path id="Trazado_1224452" data-name="Trazado 1224452" d="M256,52.505V68.58a8.037,8.037,0,1,0,0-16.075Z" transform="translate(-224.826 -46.107)" fill="#4578de"/>
      <path id="Trazado_1224453" data-name="Trazado 1224453" d="M202.421,60.542c0-4.439-1.963-8.037-4.384-8.037a8.037,8.037,0,1,0,0,16.075C200.459,68.58,202.421,64.981,202.421,60.542Z" transform="translate(-166.863 -46.107)" fill="#3b88f5"/>
      <path id="Trazado_1224454" data-name="Trazado 1224454" d="M17.217,362.14l-3.439-.5-1.538-3.116a2.74,2.74,0,0,0-4.915,0L5.787,361.64l-3.439.5a2.74,2.74,0,0,0-1.519,4.674l2.489,2.426-.587,3.425a2.737,2.737,0,0,0,3.976,2.889l3.076-1.617,3.076,1.617a2.741,2.741,0,0,0,3.976-2.889l-.587-3.425,2.489-2.426a2.74,2.74,0,0,0-1.519-4.674Zm.244,3.366-2.832,2.761a.913.913,0,0,0-.263.808l.669,3.9a.914.914,0,0,1-1.326.963l-3.5-1.841a.914.914,0,0,0-.85,0l-3.5,1.841a.914.914,0,0,1-1.326-.963l.669-3.9a.914.914,0,0,0-.263-.809L2.1,365.506a.914.914,0,0,1,.506-1.559l3.914-.569a.913.913,0,0,0,.688-.5l1.751-3.547a.914.914,0,0,1,1.639,0l1.751,3.547a.913.913,0,0,0,.688.5l3.914.569a.914.914,0,0,1,.506,1.559Z" transform="translate(0 -313.517)"/>
      <path id="Trazado_1224455" data-name="Trazado 1224455" d="M192.884,362.14l-3.439-.5-1.538-3.116a2.74,2.74,0,0,0-4.915,0l-1.538,3.116-3.439.5a2.74,2.74,0,0,0-1.519,4.674l2.489,2.426-.587,3.425a2.737,2.737,0,0,0,3.976,2.889l3.076-1.617,3.076,1.617a2.74,2.74,0,0,0,3.976-2.889l-.587-3.425,2.489-2.426a2.74,2.74,0,0,0-1.519-4.674Zm.244,3.366-2.832,2.761a.913.913,0,0,0-.263.808l.669,3.9a.914.914,0,0,1-1.326.963l-3.5-1.841a.914.914,0,0,0-.85,0l-3.5,1.841a.914.914,0,0,1-1.326-.963l.669-3.9a.914.914,0,0,0-.263-.809l-2.832-2.761a.914.914,0,0,1,.506-1.559l3.914-.569a.913.913,0,0,0,.688-.5l1.751-3.547a.914.914,0,0,1,1.639,0l1.751,3.547a.913.913,0,0,0,.688.5l3.914.569a.913.913,0,0,1,.506,1.559Z" transform="translate(-154.274 -313.517)"/>
      <path id="Trazado_1224456" data-name="Trazado 1224456" d="M370.762,364.006a2.723,2.723,0,0,0-2.212-1.865l-3.439-.5-1.538-3.116a2.74,2.74,0,0,0-4.915,0l-1.538,3.116-3.439.5a2.74,2.74,0,0,0-1.519,4.674l2.489,2.426-.587,3.425a2.737,2.737,0,0,0,3.976,2.889l3.076-1.617,3.076,1.617a2.74,2.74,0,0,0,3.976-2.889l-.587-3.425,2.489-2.426A2.724,2.724,0,0,0,370.762,364.006Zm-1.969,1.5-2.832,2.761a.913.913,0,0,0-.263.808l.669,3.9a.914.914,0,0,1-1.326.963l-3.5-1.841a.914.914,0,0,0-.85,0l-3.5,1.841a.914.914,0,0,1-1.326-.963l.669-3.9a.914.914,0,0,0-.263-.809l-2.832-2.761a.914.914,0,0,1,.506-1.559l3.914-.569a.913.913,0,0,0,.688-.5l1.751-3.547a.914.914,0,0,1,1.639,0l1.751,3.547a.913.913,0,0,0,.688.5l3.914.569a.914.914,0,0,1,.506,1.559Z" transform="translate(-308.548 -313.518)"/>
      <path id="Trazado_1224457" data-name="Trazado 1224457" d="M200.4,53.956a8.951,8.951,0,1,0-8.951,8.951,8.961,8.961,0,0,0,8.951-8.951Zm-16.075,0a7.124,7.124,0,1,1,7.124,7.124,7.132,7.132,0,0,1-7.124-7.124Z" transform="translate(-160.276 -39.52)"/>
      <path id="Trazado_1224458" data-name="Trazado 1224458" d="M137.128,211.574a.914.914,0,0,0,.152.5,17.158,17.158,0,0,0,28.648,0,.914.914,0,0,0,.152-.5,4.575,4.575,0,0,0-4.569-4.569H141.7a4.575,4.575,0,0,0-4.569,4.569Zm27.113-.261a15.33,15.33,0,0,1-25.274,0,2.747,2.747,0,0,1,2.73-2.481h19.813A2.747,2.747,0,0,1,164.241,211.313Z" transform="translate(-120.43 -181.792)"/>
      <path id="Trazado_1224459" data-name="Trazado 1224459" d="M105.824,41.653A20.824,20.824,0,1,0,92.746,4.625a.913.913,0,0,0,1.148,1.421,19,19,0,1,1-2.5,2.43.913.913,0,0,0-1.387-1.189,20.823,20.823,0,0,0,15.819,34.366Z" transform="translate(-74.65)"/>
    </g>
  </g>
</svg>
