<svg xmlns="http://www.w3.org/2000/svg" xmlns:xlink="http://www.w3.org/1999/xlink" width="190" height="212" viewBox="0 0 190 212">
  <defs>
    <clipPath id="clip-path">
      <rect id="Rectángulo_423640" data-name="Rectángulo 423640" width="190" height="212" transform="translate(1230 5861)" fill="#fff" stroke="#707070" stroke-width="1"/>
    </clipPath>
    <linearGradient id="linear-gradient" x1="0.294" y1="0.988" x2="0.959" y2="-0.074" gradientUnits="objectBoundingBox">
      <stop offset="0.004" stop-color="#e38ddd"/>
      <stop offset="1" stop-color="#9571f6"/>
    </linearGradient>
    <clipPath id="clip-path-2">
      <path id="Trazado_1224063" data-name="Trazado 1224063" d="M2097.4,642.47a15.506,15.506,0,0,0-8.666-3.31c-20.734-1.557-23.76,44.382-20.582,54.649s1.119,13.638-15.211,19.009-8.5,15.714-6.505,21.762,5.932,11.157-5.972,17.167-7.767,9.733-7.767,9.733,21.953,23.8,20.74,16.182.984-19.128,20.667-20c8.478-.377,21.46-4.663,24.335-14.286a18.312,18.312,0,0,0,.626-7.982c-.707-3.217-2.7-5.752-3.8-8.78-2.578-7.056,3.887-12.224,7.608-16.94a52.462,52.462,0,0,0,5.371-7.795c3.088-5.828,1.932-12.079-1.431-17.452-1.613-2.576-3.854-5.31-4.557-8.383-.755-3.3-.1-7.811.083-11.207a75.5,75.5,0,0,0,.239-7.986C2102.313,651.882,2101.216,645.815,2097.4,642.47Z" transform="translate(-2032.004 -639.122)"/>
    </clipPath>
    <linearGradient id="linear-gradient-2" y1="0.5" x2="1" y2="0.5" gradientUnits="objectBoundingBox">
      <stop offset="0" stop-color="#ff9085"/>
      <stop offset="1" stop-color="#fb6fbb"/>
    </linearGradient>
    <clipPath id="clip-path-3">
      <path id="Trazado_1224070" data-name="Trazado 1224070" d="M1912.9,1490.18a16.313,16.313,0,0,0-7.1-6.223c-19.014-8.9-36.526,33.242-36.813,44.043s-3.3,13.235-20.382,12.432-13.011,11.74-13.068,18.145,2.02,12.626-11.1,14.012-10.416,6.373-10.416,6.373,13.06,30.273,14.351,22.667,7.032-17.647,25.833-11.409c8.1,2.687,21.683,3.309,27.46-4.714a17.825,17.825,0,0,0,3.137-7.287c.362-3.281-.7-6.381-.778-9.627-.173-7.565,7.56-10.108,12.567-13.212a49.462,49.462,0,0,0,7.543-5.409c4.766-4.377,5.674-10.674,4.225-16.936-.695-3-1.931-6.379-1.612-9.523.343-3.377,2.4-7.385,3.655-10.517a73.779,73.779,0,0,0,2.774-7.429C1914.515,1500.8,1915.42,1494.695,1912.9,1490.18Z" transform="translate(-1813.791 -1482.732)"/>
    </clipPath>
    <linearGradient id="linear-gradient-3" x1="-0.084" y1="0.477" x2="-0.366" y2="0.496" gradientUnits="objectBoundingBox">
      <stop offset="0" stop-color="#444b8c"/>
      <stop offset="0.996" stop-color="#26264f"/>
    </linearGradient>
    <linearGradient id="linear-gradient-4" x1="0.197" y1="0.034" x2="-0.498" y2="1.514" xlink:href="#linear-gradient-3"/>
    <linearGradient id="linear-gradient-5" x1="-22.271" y1="-1.493" x2="-51.489" y2="78.646" gradientUnits="objectBoundingBox">
      <stop offset="0" stop-color="#ffc444"/>
      <stop offset="0.996" stop-color="#f36f56"/>
    </linearGradient>
    <linearGradient id="linear-gradient-6" x1="10.206" y1="10.271" x2="9.137" y2="11.34" gradientUnits="objectBoundingBox">
      <stop offset="0" stop-color="#311944"/>
      <stop offset="1" stop-color="#893976"/>
    </linearGradient>
    <linearGradient id="linear-gradient-7" x1="0.165" y1="0.812" x2="1.048" y2="-0.012" xlink:href="#linear-gradient-2"/>
    <linearGradient id="linear-gradient-8" x1="-47.876" y1="0.03" x2="-44.561" y2="1.813" xlink:href="#linear-gradient-5"/>
    <linearGradient id="linear-gradient-9" x1="-12.57" y1="-0.747" x2="-12.581" y2="-7.554" gradientUnits="objectBoundingBox">
      <stop offset="0" stop-color="#aa80f9"/>
      <stop offset="0.996" stop-color="#6165d7"/>
    </linearGradient>
    <linearGradient id="linear-gradient-10" x1="-145.485" y1="8.274" x2="-145.423" y2="3.978" xlink:href="#linear-gradient-5"/>
    <linearGradient id="linear-gradient-11" x1="-9.06" y1="-1.686" x2="-9.071" y2="-8.493" xlink:href="#linear-gradient-9"/>
    <linearGradient id="linear-gradient-12" x1="-133.551" y1="7.21" x2="-133.489" y2="2.913" xlink:href="#linear-gradient-5"/>
    <linearGradient id="linear-gradient-13" x1="-6.282" y1="0.162" x2="-5.66" y2="0.831" xlink:href="#linear-gradient-6"/>
    <linearGradient id="linear-gradient-14" x1="-26.868" y1="0.746" x2="-25.838" y2="0.746" xlink:href="#linear-gradient-6"/>
    <linearGradient id="linear-gradient-15" x1="-19.662" y1="0.727" x2="-18.453" y2="0.727" xlink:href="#linear-gradient-6"/>
    <linearGradient id="linear-gradient-16" x1="-3.596" y1="0.282" x2="-3.111" y2="3.745" xlink:href="#linear-gradient-9"/>
    <linearGradient id="linear-gradient-17" x1="-8.053" y1="2.459" x2="-7.655" y2="4.281" xlink:href="#linear-gradient-9"/>
    <linearGradient id="linear-gradient-18" x1="-8.249" y1="1.943" x2="-9.577" y2="0.482" xlink:href="#linear-gradient-9"/>
    <linearGradient id="linear-gradient-19" x1="-6.207" y1="-2.638" x2="-7.363" y2="1.127" xlink:href="#linear-gradient-5"/>
    <linearGradient id="linear-gradient-20" x1="-13.363" y1="2.885" x2="-12.639" y2="5.094" xlink:href="#linear-gradient-9"/>
    <linearGradient id="linear-gradient-21" x1="-32.364" y1="30.789" x2="-32.364" y2="29.392" xlink:href="#linear-gradient-5"/>
    <linearGradient id="linear-gradient-22" x1="-44.72" y1="3.637" x2="-45.437" y2="2.051" gradientUnits="objectBoundingBox">
      <stop offset="0" stop-color="#444b8c"/>
      <stop offset="0.996" stop-color="#3e4177"/>
    </linearGradient>
    <linearGradient id="linear-gradient-23" x1="-84.021" y1="57.263" x2="-82.893" y2="54.886" xlink:href="#linear-gradient-5"/>
    <linearGradient id="linear-gradient-24" x1="0" y1="0.5" x2="1" y2="0.5" xlink:href="#linear-gradient-6"/>
    <linearGradient id="linear-gradient-25" x1="0.618" y1="2.099" x2="0.497" y2="0.43" gradientUnits="objectBoundingBox">
      <stop offset="0.004" stop-color="#f36f56"/>
      <stop offset="1" stop-color="#ffc444"/>
    </linearGradient>
    <linearGradient id="linear-gradient-26" x1="0" y1="0.5" x2="1" y2="0.5" xlink:href="#linear-gradient-25"/>
    <linearGradient id="linear-gradient-28" x1="0.583" y1="-0.668" x2="0.196" y2="4.766" xlink:href="#linear-gradient-25"/>
    <linearGradient id="linear-gradient-29" x1="0.435" y1="-1.462" x2="0.566" y2="2.496" xlink:href="#linear-gradient-25"/>
  </defs>
  <g id="Enmascarar_grupo_1208529" data-name="Enmascarar grupo 1208529" transform="translate(-1230 -5861)" clip-path="url(#clip-path)">
    <g id="Illustration" transform="translate(1230 5870.52)">
      <g id="Grupo_1234619" data-name="Grupo 1234619">
        <g id="Grupo_1234602" data-name="Grupo 1234602" transform="translate(89.297 6.925)">
          <g id="Grupo_1234593" data-name="Grupo 1234593" transform="translate(15.511)">
            <g id="Grupo_1234592" data-name="Grupo 1234592">
              <path id="Trazado_1224057" data-name="Trazado 1224057" d="M2097.4,642.47a15.506,15.506,0,0,0-8.666-3.31c-20.734-1.557-23.76,44.382-20.582,54.649s1.119,13.638-15.211,19.009-8.5,15.714-6.505,21.762,5.932,11.157-5.972,17.167-7.767,9.733-7.767,9.733,21.953,23.8,20.74,16.182.984-19.128,20.667-20c8.478-.377,21.46-4.663,24.335-14.286a18.312,18.312,0,0,0,.626-7.982c-.707-3.217-2.7-5.752-3.8-8.78-2.578-7.056,3.887-12.224,7.608-16.94a52.462,52.462,0,0,0,5.371-7.795c3.088-5.828,1.932-12.079-1.431-17.452-1.613-2.576-3.854-5.31-4.557-8.383-.755-3.3-.1-7.811.083-11.207a75.5,75.5,0,0,0,.239-7.986C2102.313,651.882,2101.216,645.815,2097.4,642.47Z" transform="translate(-2032.004 -639.122)" fill="url(#linear-gradient)"/>
              <g id="Grupo_1234591" data-name="Grupo 1234591" opacity="0.8" clip-path="url(#clip-path-2)">
                <g id="Grupo_1234586" data-name="Grupo 1234586" transform="translate(-1.44 -5.716)">
                  <path id="Trazado_1224058" data-name="Trazado 1224058" d="M2012.152,704.688a.3.3,0,0,1-.375-.155.335.335,0,0,1,.13-.439,147.179,147.179,0,0,0,19.644-13.691c9.5-7.82,21.876-20.151,26.887-34.485,4.185-11.972,8-31.764,10.471-54.3,2.215-20.208,2.564-35.154,1.623-37.929a.33.33,0,0,1,.185-.416.3.3,0,0,1,.392.2c1.1,3.245.4,20.035-1.591,38.224-2.475,22.586-6.3,42.432-10.506,54.451-5.062,14.482-17.528,26.907-27.094,34.78a147.8,147.8,0,0,1-19.727,13.746Z" transform="translate(-2011.742 -563.255)" fill="#fff"/>
                </g>
                <g id="Grupo_1234587" data-name="Grupo 1234587" transform="translate(37.367 8.563)">
                  <path id="Trazado_1224059" data-name="Trazado 1224059" d="M2576.025,780.778a.27.27,0,0,1-.378-.154c-.077-.222-7.806-22.265-17.773-27.242a.321.321,0,0,1-.144-.422.3.3,0,0,1,.41-.151c10.2,5.09,17.764,26.671,18.082,27.589a.3.3,0,0,1-.195.38Z" transform="translate(-2557.701 -752.777)" fill="#fff"/>
                </g>
                <g id="Grupo_1234588" data-name="Grupo 1234588" transform="translate(51.513 46.598)">
                  <path id="Trazado_1224060" data-name="Trazado 1224060" d="M2757.117,1273.1a.3.3,0,0,1-.34-.1.338.338,0,0,1,.042-.457,97.3,97.3,0,0,1,12.769-9.15c9.487-5.61,16.758-7.176,21.611-4.655a.334.334,0,0,1,.14.435.3.3,0,0,1-.41.149c-11.164-5.8-33.5,13.527-33.72,13.723A.29.29,0,0,1,2757.117,1273.1Z" transform="translate(-2756.707 -1257.568)" fill="#fff"/>
                </g>
                <g id="Grupo_1234589" data-name="Grupo 1234589" transform="translate(12.137 70.71)">
                  <path id="Trazado_1224061" data-name="Trazado 1224061" d="M2217.765,1621.257a.288.288,0,0,1-.1.019.315.315,0,0,1-.312-.32,131.17,131.17,0,0,0-2.027-19.517c-1.712-9.137-5.248-20.581-12.367-23.218a.33.33,0,0,1-.188-.414.3.3,0,0,1,.39-.2c5.937,2.2,10.233,10.177,12.769,23.714a131.938,131.938,0,0,1,2.037,19.625A.324.324,0,0,1,2217.765,1621.257Z" transform="translate(-2202.755 -1577.589)" fill="#fff"/>
                </g>
                <g id="Grupo_1234590" data-name="Grupo 1234590" transform="translate(39.406 81.225)">
                  <path id="Trazado_1224062" data-name="Trazado 1224062" d="M2586.788,1735.02a.3.3,0,0,1-.35-.113.338.338,0,0,1,.064-.454c.987-.774,24.276-18.923,33.358-17.189a.324.324,0,0,1,.247.378.308.308,0,0,1-.356.262c-8.825-1.684-32.646,16.885-32.885,17.072A.289.289,0,0,1,2586.788,1735.02Z" transform="translate(-2586.378 -1717.147)" fill="#fff"/>
                </g>
              </g>
            </g>
          </g>
          <g id="Grupo_1234601" data-name="Grupo 1234601" transform="translate(0 63.563)">
            <g id="Grupo_1234600" data-name="Grupo 1234600">
              <path id="Trazado_1224064" data-name="Trazado 1224064" d="M1912.9,1490.18a16.313,16.313,0,0,0-7.1-6.223c-19.014-8.9-36.526,33.242-36.813,44.043s-3.3,13.235-20.382,12.432-13.011,11.74-13.068,18.145,2.02,12.626-11.1,14.012-10.416,6.373-10.416,6.373,13.06,30.273,14.351,22.667,7.032-17.647,25.833-11.409c8.1,2.687,21.683,3.309,27.46-4.714a17.825,17.825,0,0,0,3.137-7.287c.362-3.281-.7-6.381-.778-9.627-.173-7.565,7.56-10.108,12.567-13.212a49.462,49.462,0,0,0,7.543-5.409c4.766-4.377,5.674-10.674,4.225-16.936-.695-3-1.931-6.379-1.612-9.523.343-3.377,2.4-7.385,3.655-10.517a73.779,73.779,0,0,0,2.774-7.429C1914.515,1500.8,1915.42,1494.695,1912.9,1490.18Z" transform="translate(-1813.791 -1482.732)" fill="url(#linear-gradient-2)"/>
              <g id="Grupo_1234599" data-name="Grupo 1234599" opacity="0.8" clip-path="url(#clip-path-3)">
                <g id="Grupo_1234594" data-name="Grupo 1234594" transform="translate(-5.965 -3.885)">
                  <path id="Trazado_1224065" data-name="Trazado 1224065" d="M1730.178,1543.239a.313.313,0,0,1-.3-.281.322.322,0,0,1,.262-.366,140.837,140.837,0,0,0,22.856-5.838c11.436-3.951,27.018-11.116,36.309-22.807,7.76-9.765,17.669-27.02,27.188-47.341,8.535-18.222,13.635-32.161,13.635-35.109a.307.307,0,1,1,.613,0c0,3.449-6.017,19-13.7,35.4-9.539,20.365-19.478,37.668-27.268,47.471-9.386,11.811-25.083,19.032-36.6,23.01a141.478,141.478,0,0,1-22.952,5.86A.254.254,0,0,1,1730.178,1543.239Z" transform="translate(-1729.872 -1431.172)" fill="#fff"/>
                </g>
                <g id="Grupo_1234595" data-name="Grupo 1234595" transform="translate(70.945 2.398)">
                  <path id="Trazado_1224066" data-name="Trazado 1224066" d="M2820.3,1547.452a.308.308,0,0,1-.307-.314c0-.237-.238-23.768-8.029-32.026a.336.336,0,0,1,0-.457.3.3,0,0,1,.434,0c7.969,8.447,8.2,31.5,8.208,32.478a.308.308,0,0,1-.3.319Z" transform="translate(-2811.872 -1514.56)" fill="#fff"/>
                </g>
                <g id="Grupo_1234596" data-name="Grupo 1234596" transform="translate(67.357 52.387)">
                  <path id="Trazado_1224067" data-name="Trazado 1224067" d="M2761.692,2183.555a.309.309,0,0,1-.289-.215.331.331,0,0,1,.185-.416,92.881,92.881,0,0,1,14.937-4.031c10.719-1.876,18.061-.742,21.822,3.371a.339.339,0,0,1-.007.46.3.3,0,0,1-.434-.007c-8.654-9.463-35.838.715-36.111.819A.289.289,0,0,1,2761.692,2183.555Z" transform="translate(-2761.385 -2178.016)" fill="#fff"/>
                </g>
                <g id="Grupo_1234597" data-name="Grupo 1234597" transform="translate(27.362 51.824)">
                  <path id="Trazado_1224068" data-name="Trazado 1224068" d="M2199.042,2216.925a.29.29,0,0,1-.1-.018.33.33,0,0,1-.191-.413,130,130,0,0,0,4.323-19.092c1.305-9.212,1.632-21.25-4.226-26.285a.338.338,0,0,1-.045-.457.3.3,0,0,1,.431-.048c4.885,4.2,6.38,13.247,4.445,26.894a130.874,130.874,0,0,1-4.348,19.2A.31.31,0,0,1,2199.042,2216.925Z" transform="translate(-2198.736 -2170.54)" fill="#fff"/>
                </g>
                <g id="Grupo_1234598" data-name="Grupo 1234598" transform="translate(44.161 82.044)">
                  <path id="Trazado_1224069" data-name="Trazado 1224069" d="M2435.374,2577.95a.31.31,0,0,1-.293-.232.329.329,0,0,1,.206-.4c1.176-.374,28.885-9.1,36.878-4.21a.335.335,0,0,1,.112.444.3.3,0,0,1-.419.119c-7.767-4.75-36.11,4.179-36.4,4.27A.285.285,0,0,1,2435.374,2577.95Z" transform="translate(-2435.068 -2571.62)" fill="#fff"/>
                </g>
              </g>
            </g>
          </g>
        </g>
        <g id="Grupo_1234605" data-name="Grupo 1234605" transform="translate(61.221 0)">
          <g id="Grupo_1234603" data-name="Grupo 1234603" transform="translate(48.966 1.294)">
            <path id="Trazado_1224071" data-name="Trazado 1224071" d="M2122.167,565.109l-.219,1.662a11.654,11.654,0,0,0-2.138.3l-.593-1.551a.763.763,0,0,0-1.02-.448l-2.514,1.1a.858.858,0,0,0-.437,1.086l.6,1.57a12.819,12.819,0,0,0-1.72,1.393l-1.264-1.039a.761.761,0,0,0-1.105.155l-1.689,2.291a.868.868,0,0,0,.128,1.174l1.268,1.045a13.783,13.783,0,0,0-.85,2.122l-1.609-.224a.818.818,0,0,0-.9.726l-.4,2.889a.82.82,0,0,0,.667.948l1.614.224a14.007,14.007,0,0,0,.242,2.294l-1.514.669a.886.886,0,0,0-.448,1.112l1.009,2.717a.767.767,0,0,0,1.033.46l1.515-.672a13.151,13.151,0,0,0,1.3,1.852l-1.009,1.389a.9.9,0,0,0,.131,1.2l2.164,1.8a.764.764,0,0,0,1.121-.162l1-1.38a11.811,11.811,0,0,0,2.014.9l-.227,1.722a.839.839,0,0,0,.678.964l2.732.38a.822.822,0,0,0,.9-.744l.22-1.709a11.658,11.658,0,0,0,2.183-.305l.6,1.579a.773.773,0,0,0,1.04.462l2.548-1.144a.888.888,0,0,0,.434-1.123l-.6-1.568a12.821,12.821,0,0,0,1.751-1.443l1.245,1.026a.758.758,0,0,0,1.114-.161l1.668-2.344a.9.9,0,0,0-.147-1.194l-1.234-1.014a13.845,13.845,0,0,0,.837-2.181l1.543.214a.8.8,0,0,0,.886-.732l.35-2.9a.835.835,0,0,0-.681-.945l-1.538-.214a13.983,13.983,0,0,0-.284-2.317l1.427-.633a.86.86,0,0,0,.424-1.1l-1.042-2.67a.769.769,0,0,0-1.026-.451l-1.435.634a13.117,13.117,0,0,0-1.324-1.831l.948-1.312a.867.867,0,0,0-.144-1.167l-2.144-1.745a.755.755,0,0,0-1.1.154l-.955,1.313a11.788,11.788,0,0,0-2-.867l.213-1.65a.816.816,0,0,0-.669-.929l-2.678-.372A.8.8,0,0,0,2122.167,565.109Zm-9.44,13.464c.774-5.708,5.716-9.71,11.044-8.969s9.069,5.95,8.354,11.666c-.72,5.751-5.673,9.831-11.059,9.083S2111.948,584.316,2112.727,578.573Z" transform="translate(-2107.687 -564.388)" fill="#908b8b"/>
          </g>
          <g id="Grupo_1234604" data-name="Grupo 1234604">
            <path id="Trazado_1224072" data-name="Trazado 1224072" d="M1441.2,548.326l-.339,2.57a18.026,18.026,0,0,0-3.306.464l-.916-2.4a1.179,1.179,0,0,0-1.577-.693l-3.887,1.7a1.327,1.327,0,0,0-.677,1.679l.921,2.428a19.806,19.806,0,0,0-2.66,2.153l-1.954-1.606a1.177,1.177,0,0,0-1.709.239l-2.611,3.542a1.342,1.342,0,0,0,.2,1.815l1.96,1.615a21.388,21.388,0,0,0-1.315,3.281l-2.487-.346a1.265,1.265,0,0,0-1.39,1.122l-.625,4.467a1.268,1.268,0,0,0,1.031,1.465l2.495.347a21.665,21.665,0,0,0,.375,3.547l-2.341,1.034a1.369,1.369,0,0,0-.692,1.719l1.559,4.2a1.185,1.185,0,0,0,1.6.711l2.342-1.039a20.357,20.357,0,0,0,2.006,2.863l-1.56,2.148a1.386,1.386,0,0,0,.2,1.858l3.346,2.782a1.182,1.182,0,0,0,1.734-.25l1.542-2.134a18.274,18.274,0,0,0,3.114,1.388l-.351,2.663a1.3,1.3,0,0,0,1.049,1.491l4.224.587a1.271,1.271,0,0,0,1.393-1.151l.341-2.643a18,18,0,0,0,3.375-.472l.927,2.442a1.2,1.2,0,0,0,1.608.715l3.939-1.769a1.373,1.373,0,0,0,.671-1.736l-.927-2.424a19.824,19.824,0,0,0,2.707-2.231l1.925,1.587a1.173,1.173,0,0,0,1.723-.249l2.58-3.625a1.384,1.384,0,0,0-.228-1.847l-1.908-1.568a21.423,21.423,0,0,0,1.295-3.372l2.385.332a1.242,1.242,0,0,0,1.37-1.131l.541-4.479a1.291,1.291,0,0,0-1.053-1.462l-2.378-.331a21.647,21.647,0,0,0-.438-3.582l2.206-.979a1.329,1.329,0,0,0,.656-1.7l-1.611-4.129a1.189,1.189,0,0,0-1.587-.7l-2.219.981a20.288,20.288,0,0,0-2.047-2.83l1.466-2.028a1.34,1.34,0,0,0-.222-1.8l-3.314-2.7a1.167,1.167,0,0,0-1.7.238l-1.475,2.031a18.241,18.241,0,0,0-3.089-1.34l.329-2.55a1.262,1.262,0,0,0-1.035-1.437l-4.14-.576A1.236,1.236,0,0,0,1441.2,548.326Zm-14.6,20.817c1.2-8.826,8.839-15.013,17.075-13.868s14.022,9.2,12.916,18.038c-1.113,8.892-8.771,15.2-17.1,14.043S1425.4,578.023,1426.608,569.143Z" transform="translate(-1418.817 -547.212)" fill="#a4a0a1"/>
          </g>
        </g>
        <g id="Grupo_1234607" data-name="Grupo 1234607" transform="translate(58.013 19.892)">
          <path id="Trazado_1224073" data-name="Trazado 1224073" d="M1440.985,817.488l-18.109,159.549a4.161,4.161,0,0,0,3.463,4.766l75.426,8.778c4.62.3,7.151-2.2,7.435-4.741l19.012-169.626c.283-2.53-1.983-4.82-6.624-4.82l-76.112,1.7A4.918,4.918,0,0,0,1440.985,817.488Z" transform="translate(-1419.351 -811.379)" fill="url(#linear-gradient-3)"/>
          <path id="Trazado_1224074" data-name="Trazado 1224074" d="M1391.923,817.052,1373.715,977.4a4.182,4.182,0,0,0,3.475,4.791l78.2,8.252a4.639,4.639,0,0,0,4.985-4.178l19.119-170.5a3.932,3.932,0,0,0-3.994-4.542l-79.063,1.414A4.942,4.942,0,0,0,1391.923,817.052Z" transform="translate(-1373.684 -811.218)" fill="url(#linear-gradient-4)"/>
          <path id="Trazado_1224075" data-name="Trazado 1224075" d="M1430.231,945.357l-16.877,148.673a3.9,3.9,0,0,0,3.254,4.467l73.54,7.578a4.327,4.327,0,0,0,4.635-3.9l17.669-157.505a3.686,3.686,0,0,0-3.708-4.257l-74.3.839A4.582,4.582,0,0,0,1430.231,945.357Z" transform="translate(-1410.508 -930.677)" fill="#d8dee8"/>
          <path id="Trazado_1224076" data-name="Trazado 1224076" d="M2205.823,867.946a1.3,1.3,0,0,0,1.292,1.526,1.765,1.765,0,0,0,1.644-1.568,1.3,1.3,0,0,0-1.295-1.526A1.764,1.764,0,0,0,2205.823,867.946Z" transform="translate(-2146.664 -862.222)" fill="url(#linear-gradient-5)"/>
          <g id="Grupo_1234606" data-name="Grupo 1234606" transform="translate(20.208 0)">
            <path id="Trazado_1224077" data-name="Trazado 1224077" d="M1670.2,925.7c15.055-29.505,37.546-38.337,44.317-68.745,3.66-16.437,1.166-32.169-3.034-45.23l28.091-.5a3.932,3.932,0,0,1,3.994,4.542l-19.119,170.5a4.639,4.639,0,0,1-4.985,4.178L1658,983.958C1657.542,957.52,1663.491,938.85,1670.2,925.7Z" transform="translate(-1657.973 -811.221)" fill="#fff"/>
          </g>
        </g>
        <g id="Grupo_1234612" data-name="Grupo 1234612" transform="translate(2.013 13.014)">
          <g id="Grupo_1234608" data-name="Grupo 1234608" transform="translate(0 1.25)">
            <path id="Trazado_1224078" data-name="Trazado 1224078" d="M585.856,764.906a28.506,28.506,0,0,1,28.385-28.383,26.775,26.775,0,0,1,26.883,26.889,28.6,28.6,0,0,1-26.883,28.343A26.721,26.721,0,0,1,585.856,764.906Z" transform="translate(-585.856 -736.523)" fill="url(#linear-gradient-6)"/>
          </g>
          <g id="Grupo_1234609" data-name="Grupo 1234609" transform="translate(1.669)">
            <path id="Trazado_1224079" data-name="Trazado 1224079" d="M609.337,748.316c0-15.678,12.529-28.385,27.564-28.384,14.59,0,26.106,12.04,26.106,26.889s-11.515,27.528-26.106,28.343C621.866,776,609.337,763.993,609.337,748.316Z" transform="translate(-609.337 -719.932)" fill="url(#linear-gradient-7)"/>
          </g>
          <g id="Grupo_1234610" data-name="Grupo 1234610" transform="translate(5.958 4.417)" opacity="0.5">
            <path id="Trazado_1224080" data-name="Trazado 1224080" d="M669.681,802.4c0-13.172,10.526-23.848,23.158-23.847,12.258,0,21.933,10.116,21.933,22.591s-9.674,23.128-21.933,23.813C680.207,825.665,669.681,815.575,669.681,802.4Z" transform="translate(-669.681 -778.556)" fill="#fff"/>
          </g>
          <path id="Trazado_1224081" data-name="Trazado 1224081" d="M712.315,780.581c12.258,0,21.933,10.116,21.933,22.591a24.019,24.019,0,0,1-1.551,8.478,24.055,24.055,0,0,0,2.421-10.5c0-12.475-9.674-22.589-21.933-22.591a23.324,23.324,0,0,0-21.6,15.3A23.225,23.225,0,0,1,712.315,780.581Z" transform="translate(-684.069 -774.14)" fill="#fff" opacity="0.5"/>
          <g id="Grupo_1234611" data-name="Grupo 1234611" transform="translate(18.643 12.878)">
            <path id="Trazado_1224082" data-name="Trazado 1224082" d="M848.127,1047.828v11.5a5.76,5.76,0,0,0,5.882,5.856l8.044-.222a6.074,6.074,0,0,0,5.8-6.115v-11.375Zm7.409,11.885,1.5-4.8a2.089,2.089,0,0,1-1.074-1.844,2.163,2.163,0,0,1,2.084-2.179,2.056,2.056,0,0,1,2.079,2.09,2.2,2.2,0,0,1-1.071,1.888l1.49,4.723Z" transform="translate(-848.127 -1035.667)" fill="#fff"/>
            <path id="Trazado_1224083" data-name="Trazado 1224083" d="M875.474,901.658a1.536,1.536,0,0,1-1.546-1.564,5.959,5.959,0,0,0-5.977-6.047,6.2,6.2,0,0,0-6.015,6.249,1.619,1.619,0,0,1-1.568,1.629,1.555,1.555,0,0,1-1.571-1.576,9.425,9.425,0,0,1,9.154-9.5,9.055,9.055,0,0,1,9.065,9.188A1.6,1.6,0,0,1,875.474,901.658Z" transform="translate(-858.039 -890.854)" fill="#fff"/>
          </g>
        </g>
        <g id="Grupo_1234614" data-name="Grupo 1234614" transform="translate(0 82.805)">
          <path id="Trazado_1224084" data-name="Trazado 1224084" d="M1351.621,1844.043s-.547-2.175-.159-2.73,2.758-2.779,2.53-2.054a4.764,4.764,0,0,1-.57,1.208s1.276.628.456,1.571-1.095,1.16-1.14,2.006S1352.168,1845.178,1351.621,1844.043Z" transform="translate(-1294.899 -1824.58)" fill="url(#linear-gradient-8)"/>
          <path id="Trazado_1224085" data-name="Trazado 1224085" d="M1031.823,3150.29a20.521,20.521,0,0,0-.253,2.55c.037.669,7.044,1.011,7.115.51s-1.158-1.3-2.023-1.58-3.4-1.032-3.4-1.032Z" transform="translate(-997.871 -3036.963)" fill="url(#linear-gradient-9)"/>
          <path id="Trazado_1224086" data-name="Trazado 1224086" d="M1031.471,3124.467l-.224,2.338a1.519,1.519,0,0,1-1.531.13l-.359-2.545Z" transform="translate(-995.82 -3013.015)" fill="url(#linear-gradient-10)"/>
          <path id="Trazado_1224087" data-name="Trazado 1224087" d="M855.935,3190.75a20.512,20.512,0,0,0-.253,2.55c.037.669,7.044,1.011,7.115.51s-1.158-1.3-2.023-1.58-3.4-1.032-3.4-1.032Z" transform="translate(-834.486 -3074.375)" fill="url(#linear-gradient-11)"/>
          <path id="Trazado_1224088" data-name="Trazado 1224088" d="M855.592,3164.927l-.224,2.339a1.519,1.519,0,0,1-1.531.13l-.359-2.545Z" transform="translate(-832.443 -3050.427)" fill="url(#linear-gradient-12)"/>
          <path id="Trazado_1224089" data-name="Trazado 1224089" d="M920.538,2302.932l2.43,5.222c.651,9.933.975,20.734.767,32.285-.155,8.594-.588,16.735-1.21,24.377l-3.295-.16a36.46,36.46,0,0,1-3.635-14.65c-.18-6.517,1.684-7.382,1.566-13.622-.153-8.088-3.353-10.245-5.057-19.973a55.17,55.17,0,0,1-.569-14.475Z" transform="translate(-886.158 -2252.53)" fill="url(#linear-gradient-13)"/>
          <path id="Trazado_1224090" data-name="Trazado 1224090" d="M911.531,2301.93l4.862.538c2.918,5.382,3.732,10.983,3.22,13.461-.724,3.506-2.64,4.629-2.535,8.148.1,3.483,2.04,4.386,3.268,8.49.85,2.842.626,5.455.142,10.565-.974,10.293-3.319,13.441-1.355,16.816a7.28,7.28,0,0,0,3.534,2.973c-.048.631-.1,1.264-.147,1.889l-3.295-.16a36.464,36.464,0,0,1-3.635-14.65c-.18-6.517,1.684-7.382,1.566-13.622-.153-8.087-3.353-10.245-5.057-19.973A55.162,55.162,0,0,1,911.531,2301.93Z" transform="translate(-886.154 -2252.524)" opacity="0.3" fill="url(#linear-gradient-14)"/>
          <path id="Trazado_1224091" data-name="Trazado 1224091" d="M787.83,2326.529c-1.52,8.788-2.863,18.194-3.911,28.169-1.265,12.044-1.94,23.4-2.206,33.941l-3.616.108c-4.75-9.96-5.04-16.713-4.355-21.109a67.192,67.192,0,0,0,1.144-9.981,74.348,74.348,0,0,0-.354-9.261c-.57-6.942-1.263-8.457-1.362-13.767-.094-4.983-.113-7.5,1.229-8.976C777.935,2321.775,787.132,2326.186,787.83,2326.529Z" transform="translate(-757.807 -2272.993)" fill="url(#linear-gradient-15)"/>
          <path id="Trazado_1224092" data-name="Trazado 1224092" d="M1036.181,1828.362l2.4-.178c1.891,8.1.535,15.958-3.733,18.848-6.668,4.515-19.061-3.991-21.747-13.253-1.179-4.065-.91-9.932,1.445-11.072.654-.317,1.669-.366,3.867.943,6.566,3.907,6.738,11.293,10.076,11.918C1029.978,1835.845,1032.375,1834.842,1036.181,1828.362Z" transform="translate(-980.089 -1809.234)" fill="url(#linear-gradient-16)"/>
          <path id="Trazado_1224093" data-name="Trazado 1224093" d="M703.925,1856.13c1.155-2.031-.3-3.99-.626-7.839-.374-4.362,1.211-5.088,2.779-12.316,1.042-4.807,2.043-9.422.849-14.824-.572-2.589-1.543-6.98-4.972-9.1-1.769-1.095-4.185-.985-8.944-.721-5.885.326-8.828.489-11.022,1.714-.321.179-7,4.029-7.457,10.3-.468,6.386,6.093,7.244,6.968,15.761.393,3.823-.307,9.7-.761,13.517-.436,3.662-.736,4.6-.054,5.708,1.643,2.672,6.674,1.91,16.735.387C701.365,1858.123,703.063,1857.646,703.925,1856.13Z" transform="translate(-666.193 -1798.725)" fill="url(#linear-gradient-17)"/>
          <path id="Trazado_1224094" data-name="Trazado 1224094" d="M688.617,1931.538c-.425,1.66-1.955,2.9-3.021,6.937-.23.872-1.868,7.079.257,8.607,1.227.882,2.329-.79,5.307-1.008,5.161-.378,7.619,4.219,10.99,2.964a4.65,4.65,0,0,0,2.128-1.75,3.8,3.8,0,0,1-.354,2.643c-.862,1.516-2.56,1.992-6.507,2.589-10.061,1.523-15.091,2.284-16.735-.387-.682-1.109-.382-2.046.054-5.708.454-3.813,1.154-9.693.761-13.516-.875-8.516-7.436-9.375-6.968-15.761a10.294,10.294,0,0,1,1.51-4.551C684.363,1916.167,689.954,1926.322,688.617,1931.538Z" transform="translate(-666.192 -1892.526)" fill="url(#linear-gradient-18)"/>
          <path id="Trazado_1224095" data-name="Trazado 1224095" d="M725.115,2326.735l1.665,1.127a3.885,3.885,0,0,1,2.072-1.356c1.218-.284,2.616.124,2.648.535.026.33-.825.663-.957.714-1.062.416-1.851.07-2.28.523a3.336,3.336,0,0,1-.777.734,2.383,2.383,0,0,1-.3.163c-.709.292-1.926-1.017-2.03-1.131Z" transform="translate(-713.203 -2275.16)" fill="url(#linear-gradient-19)"/>
          <path id="Trazado_1224096" data-name="Trazado 1224096" d="M574.366,1843.118c1.2-3.058,2.039-7.741.137-14.695-12.537,5.236-18.931,17.65-16.435,27.491,2.058,8.112,9.546,12.064,11.216,12.9L570.45,1866c-1.936-2.285-4.117-5.663-3.808-9.518C567.069,1851.133,571.927,1849.309,574.366,1843.118Z" transform="translate(-557.534 -1814.694)" fill="url(#linear-gradient-20)"/>
          <path id="Trazado_1224097" data-name="Trazado 1224097" d="M859.654,1730a14.988,14.988,0,0,1-.78,4.066c-.615,1.574-3.851,2.563-4.507,2.914s1.229,1.378,3.122,1.58,7.3-.254,8.273-1.015-.783-.7-2.134-1.229-2.132-3.326-1.894-4.6S859.654,1730,859.654,1730Z" transform="translate(-833.144 -1723.687)" fill="url(#linear-gradient-21)"/>
          <path id="Trazado_1224098" data-name="Trazado 1224098" d="M903.53,1651.681c.982-1.023,1.119-1.142,1.226-1.5a3.45,3.45,0,0,0-1.971-3.841c-.071-.025-.984-.335-1.333.085-.3.357.14.849-.068,1.537-.194.644-.72.692-1.7,1.536-.8.7-1.3,1.127-1.418,1.735-.238,1.253,1.194,3.069,2.46,3.02C901.186,1654.239,901.31,1653.992,903.53,1651.681Z" transform="translate(-874.026 -1646.211)" fill="url(#linear-gradient-22)"/>
          <g id="Grupo_1234613" data-name="Grupo 1234613" transform="translate(25.702 4.565)">
            <path id="Trazado_1224099" data-name="Trazado 1224099" d="M920.25,1710.471a2.707,2.707,0,0,0,2.634.839c1.424-.371,1.061-3.835.019-4.389a1.753,1.753,0,0,0-1.454.073c-.281.143-.359.292-.821.517-.427.207-.562.178-.677.324-.144.182-.206.575.245,1.524a.76.76,0,0,0-.887-.133.527.527,0,0,0-.159.234C919.014,1709.889,919.434,1710.325,920.25,1710.471Z" transform="translate(-919.124 -1706.796)" fill="url(#linear-gradient-23)"/>
          </g>
        </g>
        <g id="Grupo_1234618" data-name="Grupo 1234618" transform="translate(53.858 43.94)">
          <path id="Trazado_1224100" data-name="Trazado 1224100" d="M1407.83,1133.02l.368,2.1h0l-7.566.019-65.651.165a3.735,3.735,0,0,0-3.474,3.306l-15.672,111.025c-.233,1.838,2.465,4.643,4.144,4.78l29.126,2.372v-.037l43.567,3.544h0l.106.047a3.631,3.631,0,0,0,3.808-3.22s0,.008,0,.008l14.677-118.539C1411.505,1136.668,1409.7,1133.015,1407.83,1133.02Z" transform="translate(-1315.78 -1132.822)" fill="url(#linear-gradient-24)"/>
          <g id="Grupo_1234617" data-name="Grupo 1234617">
            <path id="Trazado_1224101" data-name="Trazado 1224101" d="M1394.556,1252.379a3.646,3.646,0,0,1-3.807,3.241l-72.876-5.932a3.04,3.04,0,0,1-2.613-3.575l14.247-112.206a3.735,3.735,0,0,1,3.472-3.306l73.287-.214a2.964,2.964,0,0,1,2.959,3.472Z" transform="translate(-1315.231 -1130.389)" fill="url(#linear-gradient-25)"/>
            <path id="Trazado_1224102" data-name="Trazado 1224102" d="M1564.38,1759.282a1.873,1.873,0,0,1-1.892,1.643l-64.139-2.481a1.423,1.423,0,0,1-1.326-1.69l1.261-9.908a1.708,1.708,0,0,1,1.736-1.514l64.2,1.89a1.445,1.445,0,0,1,1.464,1.682Z" transform="translate(-1484.088 -1698.998)" fill="#fff"/>
            <path id="Trazado_1224103" data-name="Trazado 1224103" d="M1530.168,2010.977a1.946,1.946,0,0,1-1.893,1.737l-64.091-3.356a1.544,1.544,0,0,1-1.318-1.822l1.271-10.1a1.848,1.848,0,0,1,1.743-1.67l64.13,2.742a1.627,1.627,0,0,1,1.461,1.89Z" transform="translate(-1452.359 -1930.563)" fill="#fff"/>
            <path id="Trazado_1224104" data-name="Trazado 1224104" d="M1565.679,1748.871a1.663,1.663,0,0,0-.489-.086l-64.2-1.888a1.706,1.706,0,0,0-1.735,1.512l-1.263,9.908c0,.026-.005.049-.007.075a1.448,1.448,0,0,1-.971-1.632l1.263-9.907a1.706,1.706,0,0,1,1.735-1.512l64.2,1.889A1.445,1.445,0,0,1,1565.679,1748.871Z" transform="translate(-1484.081 -1699.005)" opacity="0.1" fill="url(#linear-gradient-26)"/>
            <path id="Trazado_1224105" data-name="Trazado 1224105" d="M1531.471,2000.162a1.431,1.431,0,0,0-.5-.111l-64.128-2.742a1.847,1.847,0,0,0-1.743,1.671l-1.273,10.1a1.688,1.688,0,0,0-.012.192,1.608,1.608,0,0,1-.967-1.749l1.273-10.1a1.847,1.847,0,0,1,1.743-1.671l64.128,2.742A1.607,1.607,0,0,1,1531.471,2000.162Z" transform="translate(-1452.346 -1930.548)" opacity="0.1" fill="url(#linear-gradient-26)"/>
            <path id="Trazado_1224106" data-name="Trazado 1224106" d="M1651.721,2352.456a2.588,2.588,0,0,0-2.265-3.008l-33.178-2.02a2.9,2.9,0,0,0-2.83,2.623l-1.369,10.939a2.568,2.568,0,0,0,2.139,3l33.16,2.405a3,3,0,0,0,2.956-2.706Z" transform="translate(-1590.957 -2255.725)" fill="url(#linear-gradient-28)"/>
            <g id="Grupo_1234616" data-name="Grupo 1234616" transform="translate(38.418 9.83)">
              <path id="Trazado_1224107" data-name="Trazado 1224107" d="M1880.561,1274.059a15.149,15.149,0,0,1-4.541,8.974,13.531,13.531,0,0,1-9.574,3.954,10.628,10.628,0,0,1-8.431-4.271,12.244,12.244,0,0,1-2.2-8.941c.9-7.152,7.1-12.935,13.9-12.918C1876.59,1260.876,1881.469,1266.785,1880.561,1274.059Z" transform="translate(-1855.709 -1260.859)" fill="url(#linear-gradient-29)"/>
              <g id="Grupo_1234615" data-name="Grupo 1234615" transform="translate(2.306 3.529)">
                <path id="Trazado_1224108" data-name="Trazado 1224108" d="M1971.7,1313.4a6.361,6.361,0,0,1-6.082,5.606,4.812,4.812,0,0,1-4.625-5.7,6.368,6.368,0,0,1,6.043-5.6A4.808,4.808,0,0,1,1971.7,1313.4Z" transform="translate(-1955.775 -1307.702)" fill="#fff"/>
                <path id="Trazado_1224109" data-name="Trazado 1224109" d="M1906.149,1485.865a13.531,13.531,0,0,1-9.574,3.954,10.628,10.628,0,0,1-8.431-4.271,11.694,11.694,0,0,1,9.635-5.331A9.082,9.082,0,0,1,1906.149,1485.865Z" transform="translate(-1888.144 -1467.219)" fill="#fff"/>
              </g>
            </g>
            <path id="Trazado_1224110" data-name="Trazado 1224110" d="M1733.891,1133.863l-14.669,118.518a3.744,3.744,0,0,1-3.915,3.233l-43.77-3.562a24.918,24.918,0,0,1-5.013-8.214,26.552,26.552,0,0,1-1.331-5.121,45.2,45.2,0,0,1,.687-16.277,55.894,55.894,0,0,1,4.169-12.371,40.9,40.9,0,0,1,5.1-8.213c1.383-1.693,2.879-3.338,4.457-4.951,1.9-1.947,3.925-3.847,6.011-5.73,4.861-4.39,10.066-8.683,14.886-13.216,11.12-10.457,20.142-22.141,17.971-38.812-.069-.525-.747-4.546-1.613-8.715l13.958-.041A3.041,3.041,0,0,1,1733.891,1133.863Z" transform="translate(-1639.897 -1130.391)" fill="#fff" opacity="0.4"/>
          </g>
        </g>
      </g>
    </g>
  </g>
</svg>
