<svg xmlns="http://www.w3.org/2000/svg" xmlns:xlink="http://www.w3.org/1999/xlink" width="400" height="353" viewBox="0 0 400 353">
  <defs>
    <clipPath id="clip-path">
      <rect id="Rectángulo_423692" data-name="Rectángulo 423692" width="400" height="353" transform="translate(1020 5135)" fill="#fff" stroke="#707070" stroke-width="1"/>
    </clipPath>
  </defs>
  <g id="Grupo_1234695" data-name="Grupo 1234695" transform="translate(-1020 -5135)">
    <rect id="Rectángulo_423699" data-name="Rectángulo 423699" width="215" height="337" transform="translate(1139 5135)" fill="#fef9e5"/>
    <g id="Enmascarar_grupo_1208531" data-name="Enmascarar grupo 1208531" clip-path="url(#clip-path)">
      <g id="OBJECTS" transform="translate(1027.072 5124.47)">
        <g id="Grupo_1234694" data-name="Grupo 1234694" transform="translate(14.467 33.673)">
          <path id="Trazado_1224465" data-name="Trazado 1224465" d="M366.257,460.8H36.453a8.362,8.362,0,0,1-8.362-8.362h0a8.361,8.361,0,0,1,8.362-8.362h329.8a8.362,8.362,0,0,1,8.362,8.362h0A8.361,8.361,0,0,1,366.257,460.8Z" transform="translate(-17.696 -130.943)" fill="#e1e8ef"/>
          <path id="Trazado_1224466" data-name="Trazado 1224466" d="M191.3,454.233s-4.555-12.634-32.477-3.292c-21.746,7.275-29.894-16.137-49.4-3.442s-33.6-11.634-40.658,6.733H191.3Z" transform="translate(-27.336 -130.842)" fill="#a4bfd8"/>
          <g id="Grupo_1234668" data-name="Grupo 1234668" transform="translate(135.847)">
            <path id="Trazado_1224467" data-name="Trazado 1224467" d="M369.582,106.227s2.667-25.967,26.667-25.967,28.3,22.244,26.667,26.541c0,0,14.815,1.333,16.445,11.7s-7.259,17.926-21.037,17.926H372.841s-19.852-.444-19.852-13.185S362.618,106.245,369.582,106.227Z" transform="translate(-230.547 -44.715)" fill="#d5ecf7"/>
            <path id="Trazado_1224468" data-name="Trazado 1224468" d="M208.3,58.379s2.537-24.706,25.373-24.706S260.6,54.838,259.047,58.926c0,0,14.1,1.269,15.647,11.136s-6.907,17.057-20.016,17.057H211.4s-18.889-.423-18.889-12.546S201.675,58.4,208.3,58.379Z" transform="translate(-192.513 -33.673)" fill="#d5ecf7"/>
          </g>
          <g id="Grupo_1234682" data-name="Grupo 1234682" transform="translate(46.272 20.022)">
            <g id="Grupo_1234670" data-name="Grupo 1234670">
              <path id="Trazado_1224469" data-name="Trazado 1224469" d="M90.677,59.915H84.622s-7.461,3.037-7.461,11.192V290.05a4.382,4.382,0,0,0,4.382,4.382H210.976a7.1,7.1,0,0,0,6.044-3.372l4.241-6.871Z" transform="translate(-75.598 -59.915)" fill="#433e51"/>
              <path id="Trazado_1224470" data-name="Trazado 1224470" d="M218.734,287.924H91.373a5.342,5.342,0,0,1-5.342-5.342V65.257a5.342,5.342,0,0,1,5.342-5.342H218.734a5.342,5.342,0,0,1,5.342,5.342V282.582A5.342,5.342,0,0,1,218.734,287.924Z" transform="translate(-77.701 -59.915)" fill="#5a5368"/>
              <path id="Trazado_1224471" data-name="Trazado 1224471" d="M213.251,283.258h-111a4.844,4.844,0,0,1-4.844-4.844V73.628a4.844,4.844,0,0,1,4.844-4.844h111a4.844,4.844,0,0,1,4.844,4.844V278.413A4.845,4.845,0,0,1,213.251,283.258Z" transform="translate(-80.396 -62.017)" fill="#e2ecf7"/>
              <path id="Trazado_1224472" data-name="Trazado 1224472" d="M171.664,68.784H153.1l4.859,5.206h25.985l4.859-5.206Z" transform="translate(-93.596 -62.017)" fill="#5a5368"/>
              <text id="VPN" transform="translate(22.389 13.468)" fill="#5a5368" font-size="5" font-family="Montserrat-ExtraBold, Montserrat" font-weight="800"><tspan x="0" y="0">VPN</tspan></text>
              <circle id="Elipse_13883" data-name="Elipse 13883" cx="2.892" cy="2.892" r="2.892" transform="translate(127.887 9.543)" fill="#5a5368"/>
              <path id="Trazado_1224473" data-name="Trazado 1224473" d="M80.435,103.549v42.48a1.083,1.083,0,0,1-1.515.993l-3.807-1.655V104.3l3.8-1.733A1.079,1.079,0,0,1,80.435,103.549Z" transform="translate(-75.113 -70.001)" fill="#5a5368"/>
              <path id="Trazado_1224474" data-name="Trazado 1224474" d="M79.857,180.943v16.236a1.288,1.288,0,0,1-1.781,1.189l-2.963-1.228V180.713l3.4-.829A1.089,1.089,0,0,1,79.857,180.943Z" transform="translate(-75.113 -88.341)" fill="#5a5368"/>
              <rect id="Rectángulo_423695" data-name="Rectángulo 423695" width="5.321" height="0.983" transform="translate(0.001 52.404)" fill="#433e51"/>
              <g id="Grupo_1234669" data-name="Grupo 1234669" transform="translate(8.33 18.567)">
                <line id="Línea_2396" data-name="Línea 2396" y2="160.682" fill="none" stroke="#302d3d" stroke-linecap="round" stroke-linejoin="round" stroke-miterlimit="10" stroke-width="1"/>
                <line id="Línea_2397" data-name="Línea 2397" y1="22.79" transform="translate(0 171.556)" fill="none" stroke="#302d3d" stroke-linecap="round" stroke-linejoin="round" stroke-miterlimit="10" stroke-width="1"/>
              </g>
            </g>
            <g id="Grupo_1234673" data-name="Grupo 1234673" transform="translate(31.629 93.066)">
              <g id="Grupo_1234671" data-name="Grupo 1234671">
                <path id="Trazado_1224475" data-name="Trazado 1224475" d="M205.077,193.848C180.049,181.89,162.85,181.89,162.85,181.89s-17.2,0-42.227,11.958a7.1,7.1,0,0,0-4.027,7.036c1.151,12.7,4.5,46.979,8.152,59.928a12.437,12.437,0,0,0,4.324,6.427l28.968,22.606a7.817,7.817,0,0,0,9.62,0l28.968-22.606a12.44,12.44,0,0,0,4.324-6.427c3.657-12.949,7-47.228,8.152-59.928A7.094,7.094,0,0,0,205.077,193.848Z" transform="translate(-116.567 -181.89)" fill="#64c0ff"/>
                <path id="Trazado_1224476" data-name="Trazado 1224476" d="M203.088,198.126c-23.239-11.1-39.209-11.1-39.209-11.1s-15.97,0-39.209,11.1a6.589,6.589,0,0,0-3.739,6.533C122,216.451,125.1,248.28,128.5,260.3a11.547,11.547,0,0,0,4.015,5.968l26.9,20.991a7.26,7.26,0,0,0,8.933,0l26.9-20.991a11.55,11.55,0,0,0,4.015-5.968c3.4-12.024,6.5-43.854,7.57-55.646A6.593,6.593,0,0,0,203.088,198.126Z" transform="translate(-117.595 -183.107)" fill="#3396ff"/>
                <path id="Trazado_1224477" data-name="Trazado 1224477" d="M124.668,198.126a6.589,6.589,0,0,0-3.739,6.533C122,216.451,125.1,248.28,128.5,260.3a11.55,11.55,0,0,0,4.015,5.968l26.9,20.991a7.261,7.261,0,0,0,4.467,1.537V187.023S147.907,187.023,124.668,198.126Z" transform="translate(-117.594 -183.107)" fill="#3396ff" opacity="0.35"/>
              </g>
              <g id="Grupo_1234672" data-name="Grupo 1234672" transform="translate(28.757 20.244)">
                <path id="Trazado_1224478" data-name="Trazado 1224478" d="M183.332,231.762V215.48a2.892,2.892,0,0,0-2.892-2.892H165.148a2.891,2.891,0,0,0-2.892,2.892v8.387h-3.9V213.243a4.82,4.82,0,0,1,4.82-4.82h19.685a4.82,4.82,0,0,1,4.82,4.82v18.519h-4.344Z" transform="translate(-155.228 -208.423)" fill="#e2e8eb"/>
                <path id="Trazado_1224479" data-name="Trazado 1224479" d="M185.752,237.761H157.815a3.557,3.557,0,0,0-3.557,3.557V261.23s3.3,13.838,17.526,13.838S189.31,261.23,189.31,261.23V241.318A3.558,3.558,0,0,0,185.752,237.761Z" transform="translate(-154.257 -215.376)" fill="#ffd41f"/>
                <path id="Trazado_1224480" data-name="Trazado 1224480" d="M174.328,271.258c-14.229,0-17.526-13.838-17.526-13.838V237.976a3.546,3.546,0,0,0-2.545,3.393v19.912s3.3,13.838,17.526,13.838c9.286,0,13.915-5.893,16.011-9.988A16.833,16.833,0,0,1,174.328,271.258Z" transform="translate(-154.257 -215.427)" fill="#ffd41f" opacity="0.55"/>
                <path id="Trazado_1224481" data-name="Trazado 1224481" d="M175.556,248.222s-5.379,0-5.379,4.555c0,3.992,2.69,3.9,2.69,3.9v5.162h5.379v-5.162s2.69.088,2.69-3.9C180.936,248.222,175.556,248.222,175.556,248.222Z" transform="translate(-158.03 -217.856)" fill="#823d00"/>
              </g>
            </g>
            <g id="Grupo_1234674" data-name="Grupo 1234674" transform="translate(52.51 30.713)">
              <circle id="Elipse_13884" data-name="Elipse 13884" cx="22.371" cy="22.371" r="22.371" transform="translate(0 9.497) rotate(-9.218)" fill="#3396ff"/>
              <path id="Trazado_1224482" data-name="Trazado 1224482" d="M161.756,139.426C154.532,146.31,155.311,158,155.311,158c4.743,4.049,16.716,4.859,16.716,4.859S184,162.048,188.744,158c0,0,.779-11.688-6.444-18.573A14.753,14.753,0,0,0,161.756,139.426Z" transform="translate(-146.625 -108.486)" fill="#8acdff"/>
              <circle id="Elipse_13885" data-name="Elipse 13885" cx="11.366" cy="11.366" r="11.366" transform="translate(14.037)" fill="#8acdff"/>
            </g>
            <g id="Grupo_1234676" data-name="Grupo 1234676" transform="translate(108.973 18.349)">
              <path id="Trazado_1224483" data-name="Trazado 1224483" d="M217.936,145.419V112.276a3.471,3.471,0,0,1,3.47-3.471h25.566s4.049,2.082,4.049,6.015H265.8a3.9,3.9,0,0,1,3.9,3.9v25.595a4.859,4.859,0,0,1-4.859,4.859H221.7A3.76,3.76,0,0,1,217.936,145.419Z" transform="translate(-217.936 -89.852)" fill="#4c94ff"/>
              <path id="Trazado_1224484" data-name="Trazado 1224484" d="M217.936,145.419V112.276a3.471,3.471,0,0,1,3.47-3.471h25.566s4.049,2.082,4.049,6.015H265.8a3.9,3.9,0,0,1,3.9,3.9v25.595a4.859,4.859,0,0,1-4.859,4.859H221.7A3.76,3.76,0,0,1,217.936,145.419Z" transform="translate(-217.936 -89.852)" fill="#4c94ff" opacity="0.55"/>
              <g id="Grupo_1234675" data-name="Grupo 1234675" transform="translate(8.85)">
                <path id="Trazado_1224485" data-name="Trazado 1224485" d="M229.535,110.771v-22.4a4.237,4.237,0,0,1,4.237-4.237h28.212l8.561,8.416v21.285H229.536v-3.065Z" transform="translate(-229.535 -84.005)" fill="#fff"/>
                <path id="Trazado_1224486" data-name="Trazado 1224486" d="M271.722,84.157v7.86a1.548,1.548,0,0,0,1.7,1.588l6.979-.884a.175.175,0,0,0,.092-.3l-8.462-8.408A.181.181,0,0,0,271.722,84.157Z" transform="translate(-239.534 -83.964)" fill="#efefef"/>
                <path id="Trazado_1224487" data-name="Trazado 1224487" d="M245.231,96.884l1.962-1.2a.436.436,0,0,1,.526.056l3.5,3.316a.436.436,0,0,0,.632-.034l6.422-7.539a.436.436,0,0,1,.591-.068l2.328,1.724a.436.436,0,0,1,.046.662l-9.076,8.914a.436.436,0,0,1-.579.028l-6.4-5.152A.437.437,0,0,1,245.231,96.884Z" transform="translate(-233.206 -85.711)" fill="#e89d3a"/>
              </g>
              <path id="Trazado_1224488" data-name="Trazado 1224488" d="M222.637,148.457V115.314a3.471,3.471,0,0,1,3.47-3.471h25.565s4.049,2.082,4.049,6.015H270.5a3.9,3.9,0,0,1,3.9,3.9v25.595a4.859,4.859,0,0,1-4.859,4.859H226.4A3.759,3.759,0,0,1,222.637,148.457Z" transform="translate(-219.05 -90.572)" fill="#4c94ff"/>
              <rect id="Rectángulo_423696" data-name="Rectángulo 423696" width="41.53" height="3.47" transform="translate(8.33 33.302)" fill="#ffd41f"/>
              <rect id="Rectángulo_423697" data-name="Rectángulo 423697" width="21.748" height="3.47" transform="translate(28.111 33.302)" fill="#ffb522"/>
              <rect id="Rectángulo_423698" data-name="Rectángulo 423698" width="12.204" height="3.47" transform="translate(37.655 33.302)" fill="#ff9b24"/>
            </g>
            <g id="Grupo_1234681" data-name="Grupo 1234681" transform="translate(86.284 22.789)">
              <g id="Grupo_1234677" data-name="Grupo 1234677">
                <circle id="Elipse_13886" data-name="Elipse 13886" cx="2.213" cy="2.213" r="2.213" transform="translate(0 12.582)" fill="#fff"/>
                <path id="Trazado_1224489" data-name="Trazado 1224489" d="M191.1,104.577V93.355a3.572,3.572,0,0,1,3.572-3.572h22.341" transform="translate(-188.887 -89.783)" fill="none" stroke="#fff" stroke-linecap="round" stroke-linejoin="round" stroke-miterlimit="10" stroke-width="1.2"/>
              </g>
              <g id="Grupo_1234678" data-name="Grupo 1234678" transform="translate(5.51 7.397)">
                <path id="Trazado_1224490" data-name="Trazado 1224490" d="M199.846,136.175a2.213,2.213,0,1,1-2.213-2.213A2.212,2.212,0,0,1,199.846,136.175Z" transform="translate(-195.421 -107.651)" fill="#fff"/>
                <path id="Trazado_1224491" data-name="Trazado 1224491" d="M198.321,128V103.494a4.016,4.016,0,0,1,4.016-4.016H217.8" transform="translate(-196.108 -99.478)" fill="none" stroke="#fff" stroke-linecap="round" stroke-linejoin="round" stroke-miterlimit="10" stroke-width="1.2"/>
              </g>
              <g id="Grupo_1234679" data-name="Grupo 1234679" transform="translate(11.026 60.443)">
                <path id="Trazado_1224492" data-name="Trazado 1224492" d="M207.438,186.964a2.393,2.393,0,1,1-2.393-2.393A2.394,2.394,0,0,1,207.438,186.964Z" transform="translate(-202.651 -172.692)" fill="#fff"/>
                <path id="Trazado_1224493" data-name="Trazado 1224493" d="M205.788,183.274H222.15a4.013,4.013,0,0,0,4.013-4.013V169" transform="translate(-203.395 -169.002)" fill="none" stroke="#fff" stroke-linecap="round" stroke-linejoin="round" stroke-miterlimit="10" stroke-width="1.2"/>
              </g>
              <g id="Grupo_1234680" data-name="Grupo 1234680" transform="translate(17.686 60.443)">
                <path id="Trazado_1224494" data-name="Trazado 1224494" d="M217.02,228.754a2.82,2.82,0,1,1-2.82-2.82A2.82,2.82,0,0,1,217.02,228.754Z" transform="translate(-211.38 -182.495)" fill="#fff"/>
                <path id="Trazado_1224495" data-name="Trazado 1224495" d="M215.076,215.261h19.48a4.327,4.327,0,0,0,4.327-4.327V169" transform="translate(-212.256 -169.002)" fill="none" stroke="#fff" stroke-linecap="round" stroke-linejoin="round" stroke-miterlimit="10" stroke-width="1.2"/>
              </g>
            </g>
          </g>
          <g id="Grupo_1234691" data-name="Grupo 1234691" transform="translate(134.763 77.471)">
            <path id="Trazado_1224496" data-name="Trazado 1224496" d="M220.307,248.275s-.81-4.222-6.479-4.222c-3.408,0-5.08,1.379-5.873,2.48a3.02,3.02,0,0,1-2.51,1.295l-12.527-.29a19.393,19.393,0,0,0-1.822,1.128,29.258,29.258,0,0,0,1.7,3.9.808.808,0,0,0,.7.456l2.2.071v-1l1.782.044a.773.773,0,0,1,.68.443l.835,1.769h2.733v-1.392a.7.7,0,0,1,.715-.7l2.654.066,1.055,2.415h2.69a6.745,6.745,0,0,0,4.3,2.647c3.031.607,7.154-.044,7.847-1.692S220.307,248.275,220.307,248.275Zm-6.478,4.945a2.278,2.278,0,1,1,2.278-2.278A2.277,2.277,0,0,1,213.83,253.22Z" transform="translate(-191.091 -161.007)" fill="#ffb031"/>
            <g id="Grupo_1234683" data-name="Grupo 1234683" transform="translate(70.821 227.996)">
              <path id="Trazado_1224497" data-name="Trazado 1224497" d="M304.139,434.028v6.363s-18.509,7.866-19.666,8.676-.52,3.181,1.851,3.644l36.179-.636V434.809Z" transform="translate(-283.911 -434.028)" fill="#efefef"/>
              <path id="Trazado_1224498" data-name="Trazado 1224498" d="M286.324,454.543l36.179-.636V441.76a21.3,21.3,0,0,1-9.978,2.169c-6.247,0-8.387-1.706-8.387-1.706s-18.509,7.866-19.666,8.676S283.952,454.081,286.324,454.543Z" transform="translate(-283.911 -435.861)" fill="#51251e"/>
              <path id="Trazado_1224499" data-name="Trazado 1224499" d="M284.039,455.5a2.853,2.853,0,0,0,2.315,1.943l36.179-.636v-2.814Z" transform="translate(-283.941 -438.76)" fill="#381612"/>
              <line id="Línea_2398" data-name="Línea 2398" x2="2.69" y2="2.719" transform="translate(13.721 9.717)" fill="none" stroke="#381612" stroke-linecap="round" stroke-miterlimit="10" stroke-width="0.75"/>
              <line id="Línea_2399" data-name="Línea 2399" x2="2.975" y2="3.008" transform="translate(16.995 8.153)" fill="none" stroke="#381612" stroke-linecap="round" stroke-miterlimit="10" stroke-width="0.75"/>
            </g>
            <path id="Trazado_1224500" data-name="Trazado 1224500" d="M415.341,413.472l3.991,2.95s-4.859,15.444-2,21.517a3.3,3.3,0,0,0,3.442-.405c1.464-1.2,13.567-25.763,15.874-30.461a.908.908,0,0,0-.378-1.2l-13.125-7.328Z" transform="translate(-244.241 -197.624)" fill="#411b13"/>
            <g id="Grupo_1234684" data-name="Grupo 1234684" transform="translate(171.1 200.925)">
              <path id="Trazado_1224501" data-name="Trazado 1224501" d="M415.341,413.472l3.991,2.95s-4.859,15.444-2,21.517a3.3,3.3,0,0,0,3.442-.405c1.464-1.2,13.567-25.763,15.874-30.461a.908.908,0,0,0-.378-1.2l-13.125-7.328Z" transform="translate(-415.341 -398.549)" fill="#51251e"/>
              <path id="Trazado_1224502" data-name="Trazado 1224502" d="M427.873,401.167l-4.687-2.617-7.691,14.7c.048.14.1.283.157.428l3.717,2.747A22.46,22.46,0,0,0,427.873,401.167Z" transform="translate(-415.378 -398.549)" fill="#efefef"/>
              <path id="Trazado_1224503" data-name="Trazado 1224503" d="M421.4,439.5c1.464-1.2,13.567-25.763,15.874-30.461a.908.908,0,0,0-.378-1.2l-1.78-.993-17.158,33.055A3.3,3.3,0,0,0,421.4,439.5Z" transform="translate(-415.961 -400.517)" fill="#381612"/>
              <line id="Línea_2400" data-name="Línea 2400" y1="0.849" x2="4.83" transform="translate(3.759 19.392)" fill="none" stroke="#381612" stroke-linecap="round" stroke-miterlimit="10" stroke-width="0.75"/>
              <line id="Línea_2401" data-name="Línea 2401" y1="0.738" x2="4.386" transform="translate(2.771 23.426)" fill="none" stroke="#381612" stroke-linecap="round" stroke-miterlimit="10" stroke-width="0.75"/>
            </g>
            <g id="Grupo_1234685" data-name="Grupo 1234685" transform="translate(85.675 125.606)">
              <path id="Trazado_1224504" data-name="Trazado 1224504" d="M309.245,300.365s-6.507,53.966-5.813,103.014c0,0,18.393,1.446,29.152.925,0,0-1.273-26.722,0-40.836s3.355-50.785,3.355-50.785,9.486,54.139,17.121,60.906,35.225,21.517,35.225,21.517l10.7-22.385-25.1-15.5-5.206-57.388Z" transform="translate(-303.38 -299.833)" fill="#5a2402"/>
              <path id="Trazado_1224505" data-name="Trazado 1224505" d="M383.473,310.309l3.752,52.079,27.72,19.14" transform="translate(-322.363 -302.316)" fill="none" stroke="#7f370e" stroke-linecap="round" stroke-miterlimit="10" stroke-width="0.75"/>
              <line id="Línea_2402" data-name="Línea 2402" x1="2.736" y2="93.627" transform="translate(25.226 10.951)" fill="none" stroke="#7f370e" stroke-linecap="round" stroke-miterlimit="10" stroke-width="0.75"/>
              <path id="Trazado_1224506" data-name="Trazado 1224506" d="M342.518,350.242c1.062-15.751,2.107-34.155,2.107-34.155l-4.6-1.9Z" transform="translate(-312.066 -303.235)" fill="#5a2402" opacity="0.44"/>
              <path id="Trazado_1224507" data-name="Trazado 1224507" d="M310.574,308.71a11.458,11.458,0,0,0,5.148-5.148" transform="translate(-305.085 -300.717)" fill="none" stroke="#7f370e" stroke-linecap="round" stroke-miterlimit="10" stroke-width="0.75"/>
              <line id="Línea_2403" data-name="Línea 2403" x2="6.608" y2="2.733" transform="translate(25.95 10.119)" fill="none" stroke="#7f370e" stroke-linecap="round" stroke-miterlimit="10" stroke-width="0.75"/>
              <path id="Trazado_1224508" data-name="Trazado 1224508" d="M370.614,304.7s3.846,5.148,13.564,4.454" transform="translate(-319.315 -300.986)" fill="none" stroke="#7f370e" stroke-linecap="round" stroke-miterlimit="10" stroke-width="0.75"/>
            </g>
            <g id="Grupo_1234686" data-name="Grupo 1234686" transform="translate(19.907 86.169)">
              <path id="Trazado_1224509" data-name="Trazado 1224509" d="M236.325,248.146s-12.725.347-13.13.347a2.581,2.581,0,0,0-2.313,2.487c-.058,1.967,3.991,2.835,5.553,2.835,0,0-1.084,4.628-5.379,4.628a6.333,6.333,0,0,1-3.34-.651s-.868.433-.391,1.953,2.69,2.82,2.69,2.82a3.575,3.575,0,0,0,1.562,4.512c2.82,1.952,6.768,2.3,7.028-.868a7.1,7.1,0,0,0,5.581,2.126c3.644-.173,5.2-1.446,5.2-1.446Z" transform="translate(-217.181 -248.146)" fill="#f9d5bf"/>
              <path id="Trazado_1224510" data-name="Trazado 1224510" d="M234.348,260.788a5.527,5.527,0,0,1-3.477-4.782l-2.483-.381a6.756,6.756,0,0,1-2.915,3.97,16.855,16.855,0,0,1,2.564.533l1.69-2.343A9.593,9.593,0,0,0,234.348,260.788Z" transform="translate(-219.147 -249.919)" fill="#fca695"/>
              <path id="Trazado_1224511" data-name="Trazado 1224511" d="M235.6,261.248s-4.193-1.518-4.757-5.423c0,0-3.406-.455-5.477-.964" transform="translate(-219.122 -249.738)" fill="none" stroke="#db7665" stroke-linecap="round" stroke-miterlimit="10" stroke-width="0.5"/>
              <path id="Trazado_1224512" data-name="Trazado 1224512" d="M224.628,260.917s2.815.031,4.248,1.766-1.042,4.035-1.735,4.035a44.378,44.378,0,0,1-6.247-1.128" transform="translate(-218.061 -251.173)" fill="none" stroke="#db7665" stroke-linecap="round" stroke-miterlimit="10" stroke-width="0.5"/>
              <path id="Trazado_1224513" data-name="Trazado 1224513" d="M228.918,268.52a4.29,4.29,0,0,1,2.342,2.516s.173,2.409-2.864,2.355" transform="translate(-219.84 -252.975)" fill="none" stroke="#db7665" stroke-linecap="round" stroke-miterlimit="10" stroke-width="0.5"/>
            </g>
            <g id="Grupo_1234687" data-name="Grupo 1234687" transform="translate(157.109 126.729)">
              <path id="Trazado_1224514" data-name="Trazado 1224514" d="M399.673,303.012s-2.429,3.644-2.646,5.466,1.128,4.251,2.429,5.553c0,0,.52,3.427.651,4.338s2.69,1.648,4.338.3c0,0,2.675,2.485,4.988.736a2.289,2.289,0,0,0,1.967-.072c1.157-.52,5.553-3.355,5.726-3.933a137.745,137.745,0,0,0,0-13.824C416.837,300.482,399.673,303.012,399.673,303.012Z" transform="translate(-397.004 -301.305)" fill="#f9d5bf"/>
              <path id="Trazado_1224515" data-name="Trazado 1224515" d="M397.706,314.186a9.6,9.6,0,0,0,1.916,2.9l.163,1.07c.181.191.293.3.293.3l-.308-3.324A3.779,3.779,0,0,1,397.706,314.186Z" transform="translate(-397.17 -304.358)" fill="#fca695"/>
              <line id="Línea_2404" data-name="Línea 2404" x2="0.636" y2="6.854" transform="translate(2.481 9.503)" fill="none" stroke="#db7665" stroke-linecap="round" stroke-miterlimit="10" stroke-width="0.5"/>
            </g>
            <g id="Grupo_1234689" data-name="Grupo 1234689" transform="translate(39.05 35.372)">
              <path id="Trazado_1224516" data-name="Trazado 1224516" d="M397.375,297.889l1.431,4.266s14.355-.694,19.391-1.273a32.422,32.422,0,0,0-.868-5.088C416.809,294.288,397.375,297.889,397.375,297.889Z" transform="translate(-279.032 -208.554)" fill="#fff"/>
              <path id="Trazado_1224517" data-name="Trazado 1224517" d="M248.385,248.146h-6.114s1.024,14.113,3.057,18.741h4.434Z" transform="translate(-242.271 -197.348)" fill="#fff"/>
              <path id="Trazado_1224518" data-name="Trazado 1224518" d="M307.512,187.925s-5.56,1.871-5.227,5.688c0,0-10.281,2.545-13.491,5.061s-17.005,24.033-18.567,28.371l-19.888,3.382a1.684,1.684,0,0,0-1.394,1.819l2.118,22.393a1.789,1.789,0,0,0,1.9,1.621c4.271-.293,15.357-1.18,21.252-2.839,7.4-2.082,19.781-19.088,19.781-19.088l2.545,12.956s-3.7,15.154-2.313,26.029a240.689,240.689,0,0,0,31.928,1.851c19.434,0,30.887-.81,30.887-.81s-.462-35.167-.926-37.134l1.851,2.313s2.429,30.077,3.586,32.622l24.843-2.6s-.607-32.448-4.772-41.125c-4.116-8.574-24.5-30.026-38.04-36.894a2.651,2.651,0,0,0-1.025-.276l-10.476-.7s-.841-6.216-3.094-8.477a1.868,1.868,0,0,0-1.35-.516C325.377,181.6,317.882,182.167,307.512,187.925Z" transform="translate(-243.851 -181.569)" fill="#73a2f4"/>
              <path id="Trazado_1224519" data-name="Trazado 1224519" d="M396.162,297.008l24.843-2.6s-.062-3.268-.278-8a100.944,100.944,0,0,0-25.784,3A47.077,47.077,0,0,0,396.162,297.008Z" transform="translate(-278.456 -206.416)" fill="#578ddd"/>
              <path id="Trazado_1224520" data-name="Trazado 1224520" d="M374.221,239.771l6.15,9.756a32.6,32.6,0,0,1,4.331,10.706l1.584,7.561-.372-16.152Z" transform="translate(-273.544 -195.363)" fill="#73a2f4" opacity="0.33"/>
              <g id="Grupo_1234688" data-name="Grupo 1234688" transform="translate(39.357 45.362)">
                <path id="Trazado_1224521" data-name="Trazado 1224521" d="M304.63,248.444l-1.5-7.422a60.2,60.2,0,0,1-9.282,20.055A119.891,119.891,0,0,0,304.63,248.444Z" transform="translate(-293.853 -241.022)" fill="#73a2f4" opacity="0.33"/>
                <path id="Trazado_1224522" data-name="Trazado 1224522" d="M308.918,255.414v.005h0Z" transform="translate(-297.424 -244.433)" fill="#73a2f4" opacity="0.55"/>
              </g>
              <path id="Trazado_1224523" data-name="Trazado 1224523" d="M345.569,182.086a1.868,1.868,0,0,0-1.35-.516c-2.265.027-9.761.6-20.131,6.355,0,0-4.821,1.626-5.212,4.934,1.383.1,5.2-.093,14.578-2.857,8.645-2.548,12.026-4.875,13.316-6.128A6.816,6.816,0,0,0,345.569,182.086Z" transform="translate(-260.427 -181.569)" fill="#73a2f4" opacity="0.33"/>
              <path id="Trazado_1224524" data-name="Trazado 1224524" d="M303.334,227.868l3.558,17.439,2.545,12.956" transform="translate(-256.744 -192.542)" fill="none" stroke="#2662aa" stroke-linecap="round" stroke-miterlimit="10" stroke-width="1"/>
              <path id="Trazado_1224525" data-name="Trazado 1224525" d="M371.979,237.382c.347.578,15.155,15.386,15.155,15.386l2.386,25.183" transform="translate(-273.013 -194.797)" fill="none" stroke="#2662aa" stroke-linecap="round" stroke-miterlimit="10" stroke-width="1"/>
              <line id="Línea_2405" data-name="Línea 2405" x1="0.81" y1="31.053" transform="translate(112.337 56.186)" fill="none" stroke="#2662aa" stroke-linecap="round" stroke-miterlimit="10" stroke-width="1"/>
              <path id="Trazado_1224526" data-name="Trazado 1224526" d="M320.164,194.051s3.654.168,12.5-2.519S345,186.59,345,186.59" transform="translate(-260.732 -182.759)" fill="none" stroke="#2662aa" stroke-linecap="round" stroke-miterlimit="10" stroke-width="1"/>
              <path id="Trazado_1224527" data-name="Trazado 1224527" d="M318.856,197.355s1,4.454,4.324,6.768" transform="translate(-260.422 -185.31)" fill="none" stroke="#2662aa" stroke-linecap="round" stroke-miterlimit="10" stroke-width="1"/>
              <path id="Trazado_1224528" data-name="Trazado 1224528" d="M350.811,200.167s4.293-3.442,5.421-6.81" transform="translate(-267.996 -184.363)" fill="none" stroke="#2662aa" stroke-linecap="round" stroke-miterlimit="10" stroke-width="1"/>
              <path id="Trazado_1224529" data-name="Trazado 1224529" d="M256.2,244.3l-5.861,1a1.684,1.684,0,0,0-1.394,1.819l2.118,22.393a1.789,1.789,0,0,0,1.9,1.621c1.557-.107,4.026-.294,6.814-.568C259.826,261.081,257.371,249.345,256.2,244.3Z" transform="translate(-243.85 -196.436)" fill="#578ddd"/>
              <path id="Trazado_1224530" data-name="Trazado 1224530" d="M258.63,244.816s2.441,5.909,3.446,25.417" transform="translate(-246.148 -196.559)" fill="none" stroke="#2662aa" stroke-linecap="round" stroke-miterlimit="10" stroke-width="1"/>
              <line id="Línea_2406" data-name="Línea 2406" y1="0.993" x2="7.829" transform="translate(5.683 52.075)" fill="none" stroke="#2662aa" stroke-linecap="round" stroke-miterlimit="10" stroke-width="1"/>
              <line id="Línea_2407" data-name="Línea 2407" y1="1.026" x2="8.091" transform="translate(6.114 57.314)" fill="none" stroke="#2662aa" stroke-linecap="round" stroke-miterlimit="10" stroke-width="1"/>
              <line id="Línea_2408" data-name="Línea 2408" y1="1.044" x2="8.231" transform="translate(6.84 64.728)" fill="none" stroke="#2662aa" stroke-linecap="round" stroke-miterlimit="10" stroke-width="1"/>
              <line id="Línea_2409" data-name="Línea 2409" y1="0.755" x2="8.161" transform="translate(7.49 71.936)" fill="none" stroke="#2662aa" stroke-linecap="round" stroke-miterlimit="10" stroke-width="1"/>
              <path id="Trazado_1224531" data-name="Trazado 1224531" d="M395.314,289.334s15.223-2.929,25.113-2.928" transform="translate(-278.544 -206.416)" fill="none" stroke="#2662aa" stroke-linecap="round" stroke-miterlimit="10" stroke-width="1"/>
              <line id="Línea_2410" data-name="Línea 2410" x2="1.696" y2="7.485" transform="translate(120.372 82.277)" fill="none" stroke="#2662aa" stroke-linecap="round" stroke-miterlimit="10" stroke-width="1"/>
              <line id="Línea_2411" data-name="Línea 2411" x2="1.777" y2="7.779" transform="translate(127.758 81.153)" fill="none" stroke="#2662aa" stroke-linecap="round" stroke-miterlimit="10" stroke-width="1"/>
              <line id="Línea_2412" data-name="Línea 2412" x2="1.34" y2="7.885" transform="translate(134.659 80.365)" fill="none" stroke="#2662aa" stroke-linecap="round" stroke-miterlimit="10" stroke-width="1"/>
              <line id="Línea_2413" data-name="Línea 2413" x2="1.046" y2="7.776" transform="translate(140.375 80.011)" fill="none" stroke="#2662aa" stroke-linecap="round" stroke-miterlimit="10" stroke-width="1"/>
            </g>
            <g id="Grupo_1234690" data-name="Grupo 1234690" transform="translate(86.476)">
              <path id="Trazado_1224532" data-name="Trazado 1224532" d="M304.929,160.08s-2.906,18.075,15.14,20.157l2.024,4.049s10.238-2.719,13.593-4.454l-2.429-4.8.347-1.562s7-3.875,8.156-9.2c.948-4.358-1.446-5.668-1.446-5.668l-12.349-11.018-19.748,2.5S304.97,154.866,304.929,160.08Z" transform="translate(-304.507 -138.143)" fill="#f9d5bf"/>
              <path id="Trazado_1224533" data-name="Trazado 1224533" d="M324.836,189.274l1.431,2.863c2.145-.362,7.22-1.71,8.6-6.491C334.866,185.647,332.543,189.02,324.836,189.274Z" transform="translate(-309.266 -147.163)" fill="#fca695"/>
              <path id="Trazado_1224534" data-name="Trazado 1224534" d="M347.279,167.342a8.31,8.31,0,0,0-4.02,5.363.5.5,0,0,0,.557.606c1.18-.184,3.515-.741,4.636-2.345a2.368,2.368,0,0,0-.654-3.589A.5.5,0,0,0,347.279,167.342Z" transform="translate(-313.629 -142.812)" fill="#fca695"/>
              <path id="Trazado_1224535" data-name="Trazado 1224535" d="M305.507,160.612a5.388,5.388,0,0,1,2.986-.768,3.48,3.48,0,0,1,2.036.628.5.5,0,0,0,.79-.313,4,4,0,0,0-.078-1.674c-.376-1.446-2.764-2.4-4.657-1.591S305.507,160.612,305.507,160.612Z" transform="translate(-304.644 -140.278)" fill="#5a2402"/>
              <path id="Trazado_1224536" data-name="Trazado 1224536" d="M321.582,159.4a5.518,5.518,0,0,1,.046-1.467.933.933,0,0,1,.385-.589,7.846,7.846,0,0,1,5.334-1.589,6.806,6.806,0,0,1,4.338,3.128.789.789,0,0,1-.018.9,2.587,2.587,0,0,1-1.309,1.013.9.9,0,0,1-.915-.281,4.119,4.119,0,0,0-3.166-1.316,11.938,11.938,0,0,0-3.883.71A.6.6,0,0,1,321.582,159.4Z" transform="translate(-308.488 -140.066)" fill="#5a2402"/>
              <path id="Trazado_1224537" data-name="Trazado 1224537" d="M308.846,153.439a16.674,16.674,0,0,0-3.991,7.9s-1.344-5.032.824-8.459Z" transform="translate(-304.433 -139.396)" fill="#5a2402"/>
              <path id="Trazado_1224538" data-name="Trazado 1224538" d="M308.846,153.439a16.674,16.674,0,0,0-3.991,7.9s-1.344-5.032.824-8.459Z" transform="translate(-304.433 -139.396)" fill="#5a2402" opacity="0.5"/>
              <path id="Trazado_1224539" data-name="Trazado 1224539" d="M306.4,146.3a2.563,2.563,0,0,0-1.967,2.487c-.116,2.14,4.164,2.024,5.09.52a1.586,1.586,0,0,0,2.111,1.11,3.47,3.47,0,0,0,2.429-2.027s1.822,1.842,4.483-1.224a2.6,2.6,0,0,0,2.313,2.213,4.68,4.68,0,0,0,3.514-1.475s-.78,2.508.477,2.577,2.82-1.406,2.82-1.406,1.952,8.85,5.51,10.021c0,0,1.909-6.03,7.057-3.427,0,0,1.273-1.446.983-2.6s-2.313-2.082-2.313-2.082,2.573-1.041,2.356-2.313-2.183-2.14-2.183-2.14a2.236,2.236,0,0,0,1.042-2.777c-.607-1.793-4.106-1.273-4.106-1.273s.116-2.3-2.7-2.3c0,0-.94-3.253-5.1-2.328a4.06,4.06,0,0,0-3.008-2.6c-2.256-.347-5.61,1.446-5.61,1.446a7.53,7.53,0,0,0-4.106-.983,3.94,3.94,0,0,0-2.69,2.169s-2.342-.781-3.731.665a2.5,2.5,0,0,0-.52,2.95,4.363,4.363,0,0,0-3.521,2.6C304.214,145.972,306.4,146.3,306.4,146.3Z" transform="translate(-304.43 -135.21)" fill="#5a2402"/>
              <path id="Trazado_1224540" data-name="Trazado 1224540" d="M311.438,167.087c.287,1.462-.072,2.762-.8,2.905s-1.552-.926-1.839-2.387.072-2.762.8-2.905S311.152,165.626,311.438,167.087Z" transform="translate(-305.442 -142.196)" fill="#5a2402"/>
              <path id="Trazado_1224541" data-name="Trazado 1224541" d="M327.371,167c.523,1.414.381,2.768-.316,3.026s-1.685-.68-2.207-2.094-.382-2.768.316-3.026S326.849,165.584,327.371,167Z" transform="translate(-309.194 -142.237)" fill="#5a2402"/>
              <path id="Trazado_1224542" data-name="Trazado 1224542" d="M306.4,165.087a5.675,5.675,0,0,1,5.813,1" transform="translate(-304.898 -142.196)" fill="none" stroke="#5a2402" stroke-linecap="round" stroke-miterlimit="10" stroke-width="0.75"/>
              <path id="Trazado_1224543" data-name="Trazado 1224543" d="M322.722,165.649s3.644-1.779,6.464,0" transform="translate(-308.765 -142.237)" fill="none" stroke="#5a2402" stroke-linecap="round" stroke-miterlimit="10" stroke-width="0.75"/>
              <path id="Trazado_1224544" data-name="Trazado 1224544" d="M316.189,168.491a42.676,42.676,0,0,0-.463,5.481,3.805,3.805,0,0,0,2.386,0" transform="translate(-307.105 -143.098)" fill="none" stroke="#db7665" stroke-linecap="round" stroke-miterlimit="10" stroke-width="0.75"/>
              <path id="Trazado_1224545" data-name="Trazado 1224545" d="M321.87,181.217s3.609-.983,4.955-3.875" transform="translate(-308.563 -145.195)" fill="none" stroke="#db7665" stroke-linecap="round" stroke-miterlimit="10" stroke-width="0.75"/>
              <path id="Trazado_1224546" data-name="Trazado 1224546" d="M347.926,167.089s-2.777.433-4.338,4.859" transform="translate(-313.711 -142.765)" fill="none" stroke="#db7665" stroke-linecap="round" stroke-miterlimit="10" stroke-width="0.75"/>
              <path id="Trazado_1224547" data-name="Trazado 1224547" d="M347.864,170.5a4.915,4.915,0,0,1-3.257.514" transform="translate(-313.952 -143.574)" fill="none" stroke="#db7665" stroke-linecap="round" stroke-miterlimit="10" stroke-width="0.75"/>
              <path id="Trazado_1224548" data-name="Trazado 1224548" d="M325.117,189.036s6.372.558,10.537-4.416" transform="translate(-309.333 -146.92)" fill="none" stroke="#db7665" stroke-linecap="round" stroke-miterlimit="10" stroke-width="0.75"/>
              <path id="Trazado_1224549" data-name="Trazado 1224549" d="M325.707,183.483s1.533-1.171,2.255-1.605.662,1.289.176,1.851A1.76,1.76,0,0,1,325.707,183.483Z" transform="translate(-309.473 -146.254)" fill="#fca695" opacity="0.39"/>
            </g>
          </g>
          <path id="Trazado_1224550" data-name="Trazado 1224550" d="M27.423,207.3s2.082-20.276,20.823-20.276,22.1,17.369,20.823,20.724c0,0,11.568,1.041,12.84,9.139s-5.668,14-16.426,14H29.969s-15.5-.347-15.5-10.3S21.986,207.313,27.423,207.3Z" transform="translate(-14.467 -70.018)" fill="#d5ecf7"/>
          <g id="Grupo_1234692" data-name="Grupo 1234692" transform="translate(15.854 206.751)">
            <path id="path162821_00000022544325292120732310000008893765926331798197_" d="M68.03,304.648a32.814,32.814,0,0,0-8.053,1.106v7.4a25.628,25.628,0,0,0-3.388,1.4L51.335,309.3a29.905,29.905,0,0,0-11.389,11.391l5.234,5.236a25.6,25.6,0,0,0-1.416,3.419H36.352a29.887,29.887,0,0,0,0,16.107h7.383a25.657,25.657,0,0,0,1.43,3.453l-5.231,5.231a29.881,29.881,0,0,0,11.389,11.39l5.225-5.225a25.54,25.54,0,0,0,3.429,1.419v7.4a32.777,32.777,0,0,0,8.053,1.106,32.783,32.783,0,0,0,8.054-1.106v-7.4a25.566,25.566,0,0,0,3.462-1.434l5.269,5.269A31.062,31.062,0,0,0,96.142,354.11l-5.226-5.227a25.551,25.551,0,0,0,1.421-3.429h7.47a31.057,31.057,0,0,0-.088-16.107h-7.4a25.613,25.613,0,0,0-1.412-3.4l5.291-5.291a31.063,31.063,0,0,0-11.453-11.327l-5.232,5.232a25.565,25.565,0,0,0-3.424-1.417v-7.48A32.786,32.786,0,0,0,68.03,304.648Zm.262,20.754a12.319,12.319,0,0,1,12.319,12.318h0A12.319,12.319,0,0,1,68.293,350.04h0a12.32,12.32,0,0,1-12.32-12.318h0A12.32,12.32,0,0,1,68.293,325.4Z" transform="translate(-35.246 -304.648)" fill="#a4bfd8"/>
            <path id="path162821_00000171705908932795285570000018369812357411067825_" d="M142.722,380.317a17.8,17.8,0,0,0-4.367.6v4.012a13.974,13.974,0,0,0-1.837.761l-2.849-2.849a16.216,16.216,0,0,0-6.176,6.176l2.838,2.839a13.787,13.787,0,0,0-.768,1.854h-4.019a16.2,16.2,0,0,0,0,8.734h4a13.822,13.822,0,0,0,.775,1.872l-2.837,2.837a16.206,16.206,0,0,0,6.176,6.176l2.834-2.834a13.864,13.864,0,0,0,1.859.77v4.013a16.2,16.2,0,0,0,8.734,0v-4.01a13.787,13.787,0,0,0,1.877-.777l2.857,2.857a16.84,16.84,0,0,0,6.143-6.21l-2.834-2.834a13.87,13.87,0,0,0,.771-1.859h4.051a16.841,16.841,0,0,0-.047-8.734h-4.015a13.884,13.884,0,0,0-.766-1.843L158,389a16.855,16.855,0,0,0-6.211-6.142l-2.837,2.837a13.959,13.959,0,0,0-1.856-.768v-4.056A17.863,17.863,0,0,0,142.722,380.317Zm.143,11.254a6.68,6.68,0,0,1,6.68,6.68h0a6.68,6.68,0,0,1-6.68,6.68h0a6.68,6.68,0,0,1-6.681-6.68h0a6.68,6.68,0,0,1,6.681-6.68Z" transform="translate(-56.506 -322.582)" fill="#a4bfd8"/>
          </g>
          <g id="Grupo_1234693" data-name="Grupo 1234693" transform="translate(272.774 14.393)">
            <path id="Trazado_1224551" data-name="Trazado 1224551" d="M401.044,75.876V59.594a2.892,2.892,0,0,0-2.892-2.892H382.859a2.891,2.891,0,0,0-2.892,2.892v8.387h-3.9V57.357a4.82,4.82,0,0,1,4.82-4.82h19.685a4.82,4.82,0,0,1,4.82,4.82V75.875h-4.344Z" transform="translate(-372.942 -52.537)" fill="#a4bfd8"/>
            <path id="Trazado_1224552" data-name="Trazado 1224552" d="M404.415,82a3.6,3.6,0,0,0-.954-.13H375.529a3.554,3.554,0,0,0-3.556,3.556v19.914s3.3,13.841,17.526,13.841,17.526-13.841,17.526-13.841V85.43A3.563,3.563,0,0,0,404.415,82ZM392.185,98.316v5.165h-5.379V98.316s-2.686.084-2.686-3.907c0-4.555,5.379-4.555,5.379-4.555s5.379,0,5.379,4.555C394.878,98.4,392.185,98.316,392.185,98.316Z" transform="translate(-371.973 -59.49)" fill="#a4bfd8"/>
          </g>
        </g>
      </g>
    </g>
  </g>
</svg>
