<svg xmlns="http://www.w3.org/2000/svg" xmlns:xlink="http://www.w3.org/1999/xlink" width="106" height="106" viewBox="0 0 106 106">
  <defs>
    <filter id="Trazado_982547" x="0" y="0" width="106" height="106" filterUnits="userSpaceOnUse">
      <feOffset dy="3" input="SourceAlpha"/>
      <feGaussianBlur stdDeviation="3" result="blur"/>
      <feFlood flood-opacity="0.161"/>
      <feComposite operator="in" in2="blur"/>
      <feComposite in="SourceGraphic"/>
    </filter>
  </defs>
  <g id="Grupo_1234536" data-name="Grupo 1234536" transform="translate(-171 -678)">
    <g id="Grupo_1234332" data-name="Grupo 1234332" transform="translate(0 -86)">
      <g id="Grupo_1174813" data-name="Grupo 1174813" transform="translate(0 -607)">
        <g id="Grupo_1173169" data-name="Grupo 1173169" transform="translate(0 -2340)">
          <g id="Grupo_1172017" data-name="Grupo 1172017" transform="translate(0 2654)">
            <g id="Grupo_1167337" data-name="Grupo 1167337" transform="translate(180 1063)">
              <g id="Grupo_1166720" data-name="Grupo 1166720" transform="translate(0)">
                <g id="Grupo_1164305" data-name="Grupo 1164305">
                  <g id="Grupo_1163948" data-name="Grupo 1163948">
                    <g id="Grupo_1158168" data-name="Grupo 1158168">
                      <g id="Grupo_1152576" data-name="Grupo 1152576">
                        <g id="Grupo_1148633" data-name="Grupo 1148633">
                          <g id="Grupo_1148525" data-name="Grupo 1148525">
                            <g transform="matrix(1, 0, 0, 1, -9, -6)" filter="url(#Trazado_982547)">
                              <g id="Trazado_982547-2" data-name="Trazado 982547" transform="translate(9 6)" fill="#f6ecfe">
                                <path d="M 44 86.5 C 38.26187515258789 86.5 32.69618606567383 85.37651062011719 27.45755004882812 83.16075897216797 C 22.3968505859375 81.020263671875 17.85157585144043 77.95565032958984 13.94796276092529 74.05204010009766 C 10.04434967041016 70.1484375 6.979737281799316 65.6031494140625 4.839250087738037 60.54246139526367 C 2.62348747253418 55.30381393432617 1.5 49.73812484741211 1.5 44 C 1.5 38.26187515258789 2.62348747253418 32.69618606567383 4.839250087738037 27.45755004882812 C 6.979737281799316 22.3968505859375 10.04434967041016 17.85157585144043 13.94796276092529 13.94796276092529 C 17.85157585144043 10.04434967041016 22.3968505859375 6.979737281799316 27.45755004882812 4.839250087738037 C 32.69618606567383 2.62348747253418 38.26187515258789 1.5 44 1.5 C 49.73812484741211 1.5 55.30381393432617 2.62348747253418 60.54246139526367 4.839250087738037 C 65.6031494140625 6.979737281799316 70.1484375 10.04434967041016 74.05204010009766 13.94796276092529 C 77.95565032958984 17.85157585144043 81.020263671875 22.3968505859375 83.16075897216797 27.45755004882812 C 85.37651062011719 32.69618606567383 86.5 38.26187515258789 86.5 44 C 86.5 49.73812484741211 85.37651062011719 55.30381393432617 83.16075897216797 60.54246139526367 C 81.020263671875 65.6031494140625 77.95565032958984 70.1484375 74.05204010009766 74.05204010009766 C 70.1484375 77.95565032958984 65.6031494140625 81.020263671875 60.54246139526367 83.16075897216797 C 55.30381393432617 85.37651062011719 49.73812484741211 86.5 44 86.5 Z" stroke="none"/>
                                <path d="M 44 3 C 38.46371459960938 3 33.09462738037109 4.083610534667969 28.0418701171875 6.220756530761719 C 23.15997314453125 8.285614013671875 18.77495574951172 11.24228668212891 15.00862884521484 15.00862884521484 C 11.24228668212891 18.77495574951172 8.285614013671875 23.15997314453125 6.220756530761719 28.0418701171875 C 4.083610534667969 33.09462738037109 3 38.46371459960938 3 44 C 3 49.53628540039062 4.083610534667969 54.9053840637207 6.220756530761719 59.9581298828125 C 8.285614013671875 64.84002685546875 11.24228668212891 69.22504425048828 15.00862884521484 72.99138641357422 C 18.77495574951172 76.75771331787109 23.15997314453125 79.71438598632812 28.0418701171875 81.77925872802734 C 33.09462738037109 83.9163818359375 38.46371459960938 85 44 85 C 49.53628540039062 85 54.9053840637207 83.9163818359375 59.95814514160156 81.77925872802734 C 64.84002685546875 79.71438598632812 69.22504425048828 76.75771331787109 72.99138641357422 72.99138641357422 C 76.75771331787109 69.22504425048828 79.71438598632812 64.84002685546875 81.77925872802734 59.95814514160156 C 83.9163818359375 54.9053840637207 85 49.53628540039062 85 44 C 85 38.46371459960938 83.9163818359375 33.09462738037109 81.77925872802734 28.0418701171875 C 79.71438598632812 23.15997314453125 76.75771331787109 18.77495574951172 72.99138641357422 15.00862884521484 C 69.22504425048828 11.24228668212891 64.84002685546875 8.285614013671875 59.9581298828125 6.220756530761719 C 54.9053840637207 4.083610534667969 49.53628540039062 3 44 3 M 44 0 C 68.30054473876953 0 88 19.69947052001953 88 44 C 88 68.30054473876953 68.30054473876953 88 44 88 C 19.69947052001953 88 0 68.30054473876953 0 44 C 0 19.69947052001953 19.69947052001953 0 44 0 Z" stroke="none" fill="#aa52f9"/>
                              </g>
                            </g>
                          </g>
                        </g>
                      </g>
                    </g>
                  </g>
                </g>
              </g>
            </g>
          </g>
        </g>
      </g>
    </g>
    <g id="programador_1_" data-name="programador (1)" transform="translate(195.718 699.256)">
      <path id="Trazado_1223803" data-name="Trazado 1223803" d="M130.145,223.846v6.406l7.055.222v0l.008,0v-6.649A8.454,8.454,0,0,1,130.145,223.846Z" transform="translate(-115.748 -199.123)" fill="#eab883"/>
      <path id="Trazado_1223804" data-name="Trazado 1223804" d="M133.456,224.839a8.165,8.165,0,0,1-3.311-.757v6.406l4.05.127-.513-1.417C133.317,228.186,133.51,227.631,133.456,224.839Z" transform="translate(-115.748 -199.359)" fill="#dda36f"/>
      <path id="Trazado_1223805" data-name="Trazado 1223805" d="M140.977,268.772a5.049,5.049,0,0,1-5.924-.035l-.046-.033v7.065h6.065V268.7Z" transform="translate(-120.074 -239.058)" fill="#efefef"/>
      <path id="Trazado_1223806" data-name="Trazado 1223806" d="M140,274.4l-1.7-4.688a5.26,5.26,0,0,1-3.294-1v7.065h3.331C138.918,275.347,140,274.4,140,274.4Z" transform="translate(-120.075 -239.059)" fill="#ddd"/>
      <path id="Trazado_1223807" data-name="Trazado 1223807" d="M41.609,287.074,38.7,268.986a3.975,3.975,0,0,0-3.035-3.085h0l-3.25-.9-.4-.234L25.5,270.609l0,0a.973.973,0,0,1-1.82,0l0,0-6.517-5.842-.4.234-3.25.9h0a3.975,3.975,0,0,0-3.035,3.085l-2.91,18.088a3.51,3.51,0,0,0,3.441,4.143H38.168A3.51,3.51,0,0,0,41.609,287.074Z" transform="translate(-6.656 -235.555)" fill="#70b5e8"/>
      <g id="Grupo_1234531" data-name="Grupo 1234531" transform="translate(0.868 26.919)">
        <path id="Trazado_1223808" data-name="Trazado 1223808" d="M10.877,293.552l2.91-19.633a3.815,3.815,0,0,1,.925-1.871l-1.192.33h0a3.975,3.975,0,0,0-3.035,3.085l-2.91,18.088a3.51,3.51,0,0,0,3.442,4.143h3.3A3.51,3.51,0,0,1,10.877,293.552Z" transform="translate(-7.524 -268.952)" fill="#52a5d8"/>
        <path id="Trazado_1223809" data-name="Trazado 1223809" d="M98.239,252.12l-6.913-5.608,4.283-2.527v1.342Z" transform="translate(-82.08 -243.985)" fill="#52a5d8"/>
        <path id="Trazado_1223810" data-name="Trazado 1223810" d="M170.455,252.12l6.914-5.608-4.3-2.527v1.342Z" transform="translate(-152.479 -243.985)" fill="#52a5d8"/>
      </g>
      <path id="Trazado_1223811" data-name="Trazado 1223811" d="M109.156,415.351v4.028H117.7v-4.028a2.384,2.384,0,0,1,1.806-2.309,4.841,4.841,0,0,1-2.3-3.424.994.994,0,0,0-.972-.8h-5.67a1,1,0,0,0-.972.8,4.852,4.852,0,0,1-2.282,3.412A2.385,2.385,0,0,1,109.156,415.351Z" transform="translate(-95.431 -363.718)" fill="#a4d9f4"/>
      <path id="Trazado_1223812" data-name="Trazado 1223812" d="M112.012,419.379v-3.933a2.544,2.544,0,0,0-.482-1.493,2.08,2.08,0,0,1,.019-2.382,6.506,6.506,0,0,0,.929-2.289,1.08,1.08,0,0,1,.218-.458h-2.132a1,1,0,0,0-.972.8,4.852,4.852,0,0,1-2.282,3.412,2.385,2.385,0,0,1,1.848,2.32v4.028Z" transform="translate(-95.432 -363.718)" fill="#84c7ef"/>
      <g id="Grupo_1234532" data-name="Grupo 1234532" transform="translate(13.119 51.048)">
        <path id="Trazado_1223813" data-name="Trazado 1223813" d="M167.051,462.688h-.217a4.627,4.627,0,0,0-4.613,4.613h4.83v-4.613Z" transform="translate(-157.404 -462.688)" fill="#eab883"/>
        <path id="Trazado_1223814" data-name="Trazado 1223814" d="M118.563,462.688V467.3h4.817a4.627,4.627,0,0,0-4.613-4.613Z" transform="translate(-118.563 -462.688)" fill="#eab883"/>
      </g>
      <g id="Grupo_1234533" data-name="Grupo 1234533" transform="translate(13.119 53.355)">
        <path id="Trazado_1223815" data-name="Trazado 1223815" d="M162.222,485.9h4.83v-2.307h-4.207A4.573,4.573,0,0,0,162.222,485.9Z" transform="translate(-157.405 -483.594)" fill="#dda36f"/>
        <path id="Trazado_1223816" data-name="Trazado 1223816" d="M118.563,483.594V485.9h4.817a4.574,4.574,0,0,0-.624-2.307Z" transform="translate(-118.563 -483.594)" fill="#dda36f"/>
      </g>
      <path id="Trazado_1223817" data-name="Trazado 1223817" d="M83.187,10.532a1.289,1.289,0,0,1-.733-.448c-2.87-3.577-10.5-3.281-14.472.688-3.657,3.657-1.634,9.492-1.634,9.492H86.571C88.338,12.845,84.544,10.829,83.187,10.532Z" transform="translate(-58.494 -6.749)" fill="#93482b"/>
      <path id="Trazado_1223818" data-name="Trazado 1223818" d="M73,10.773a11.222,11.222,0,0,1,5.617-2.915,11.939,11.939,0,0,0-10.633,2.915c-3.657,3.657-1.634,9.492-1.634,9.492h5.017S69.341,14.43,73,10.773Z" transform="translate(-58.494 -6.75)" fill="#843d26"/>
      <g id="Grupo_1234534" data-name="Grupo 1234534" transform="translate(6.88 12.518)">
        <path id="Trazado_1223819" data-name="Trazado 1223819" d="M63.006,113.946l0,0a2,2,0,0,0,0,3.444l0,0a2.955,2.955,0,0,0,1.646.484v-4.406h0A2.955,2.955,0,0,0,63.006,113.946Z" transform="translate(-62.018 -113.462)" fill="#eab883"/>
        <path id="Trazado_1223820" data-name="Trazado 1223820" d="M240.72,113.948l0,0a2.158,2.158,0,0,1,.954,1.385l0,.009c.006.033.011.066.015.1,0,.009,0,.018,0,.027,0,.028.006.056.008.085s0,.05,0,.075,0,.025,0,.038v.005c0,.013,0,.025,0,.038s0,.05,0,.075,0,.057-.008.085c0,.009,0,.018,0,.028,0,.033-.009.066-.015.1l0,.009a2.158,2.158,0,0,1-.954,1.385l0,0a2.955,2.955,0,0,1-1.646.484v-4.406A2.984,2.984,0,0,1,240.72,113.948Z" transform="translate(-219.54 -113.464)" fill="#eab883"/>
      </g>
      <g id="Grupo_1234535" data-name="Grupo 1234535" transform="translate(6.88 13.73)">
        <path id="Trazado_1223821" data-name="Trazado 1223821" d="M63,125.177a2.337,2.337,0,0,1-.7-.731,1.98,1.98,0,0,0,.7,2.713l0,0a2.955,2.955,0,0,0,1.646.484v-1.982A2.953,2.953,0,0,1,63,125.173Z" transform="translate(-62.013 -124.446)" fill="#dda36f"/>
        <path id="Trazado_1223822" data-name="Trazado 1223822" d="M241.706,125.4c0-.025,0-.05,0-.075s0-.057-.008-.085c0-.009,0-.018,0-.027,0-.033-.009-.066-.015-.1l0-.009a1.947,1.947,0,0,0-.252-.655,2.334,2.334,0,0,1-.7.731l0,0a2.955,2.955,0,0,1-1.646.484v1.982a2.954,2.954,0,0,0,1.646-.484l0,0a2.157,2.157,0,0,0,.954-1.385l0-.009c.006-.033.011-.066.015-.1,0-.009,0-.018,0-.027,0-.028.006-.056.008-.085s0-.05,0-.075,0-.025,0-.038v-.005C241.708,125.421,241.707,125.408,241.706,125.4Z" transform="translate(-219.539 -124.445)" fill="#dda36f"/>
      </g>
      <path id="Trazado_1223823" data-name="Trazado 1223823" d="M102.6,103.356v-2.837a3.641,3.641,0,0,1-3.361-1.311.751.751,0,0,0-1.032-.153c-2,1.45-7.637,3.693-12.532,1.465v1.621h-.009a34.608,34.608,0,0,0,.237,5.5,8.463,8.463,0,0,0,16.7-1.957c0-.958,0-1.716,0-2.323h0Z" transform="translate(-76.169 -88)" fill="#f7cf9c"/>
      <path id="Trazado_1223824" data-name="Trazado 1223824" d="M89.181,120.581a34.609,34.609,0,0,1-.237-5.5h.009v-.745a10.5,10.5,0,0,1-3.281-.876v1.621h-.009a34.621,34.621,0,0,0,.237,5.5,8.4,8.4,0,0,0,9.787,6.346A8.5,8.5,0,0,1,89.181,120.581Z" transform="translate(-76.169 -100.945)" fill="#eab883"/>
      <path id="Trazado_1223825" data-name="Trazado 1223825" d="M258.648,229.264c-29.824,0-27.838-.058-28.246.164a1.359,1.359,0,0,0-.712,1.2v21.728a1.36,1.36,0,0,0,1.36,1.36h27.6a1.36,1.36,0,0,0,1.36-1.36V230.624A1.541,1.541,0,0,0,258.648,229.264Z" transform="translate(-204.312 -203.964)" fill="#efefef"/>
      <path id="Trazado_1223826" data-name="Trazado 1223826" d="M234.421,252.362V230.634a1.36,1.36,0,0,1,1.36-1.36c-4.791.055-4.847-.125-5.378.164a1.359,1.359,0,0,0-.712,1.2v21.728a1.36,1.36,0,0,0,1.36,1.36h4.73A1.36,1.36,0,0,1,234.421,252.362Z" transform="translate(-204.312 -203.973)" fill="#ddd"/>
      <path id="Trazado_1223827" data-name="Trazado 1223827" d="M318.575,79.936H300.9a1.328,1.328,0,0,0-1.324,1.324v8.935a1.328,1.328,0,0,0,1.324,1.324h15.556a1.454,1.454,0,0,1,.978.378l1.29,1.172a.7.7,0,0,0,1.173-.519V81.26A1.328,1.328,0,0,0,318.575,79.936Z" transform="translate(-266.488 -71.117)" fill="#ffb70d"/>
      <path id="Trazado_1223828" data-name="Trazado 1223828" d="M303.257,90.195V81.26a1.328,1.328,0,0,1,1.324-1.324H300.9a1.328,1.328,0,0,0-1.324,1.324v8.935a1.328,1.328,0,0,0,1.324,1.324h3.678A1.328,1.328,0,0,1,303.257,90.195Z" transform="translate(-266.489 -71.117)" fill="#f4a403"/>
      <circle id="Elipse_13866" data-name="Elipse 13866" cx="1.795" cy="1.795" r="1.795" transform="translate(38.723 29.739)" fill="#ccc"/>
      <path id="Trazado_1223829" data-name="Trazado 1223829" d="M352.411,269.56a1.794,1.794,0,1,0,1.553,2.689A1.792,1.792,0,0,1,352.411,269.56Z" transform="translate(-311.892 -239.82)" fill="#bcbbb8"/>
      <path id="Trazado_1223830" data-name="Trazado 1223830" d="M346.043,355.248V338.425a0,0,0,0,0,0,0h-6.207a0,0,0,0,0,0,0v16.823Z" transform="translate(-302.3 -301.084)" fill="#ddd"/>
      <path id="Trazado_1223831" data-name="Trazado 1223831" d="M342.937,338.425a0,0,0,0,1,0,0h-3.106a0,0,0,0,0,0,0v16.823h3.106Z" transform="translate(-302.3 -301.084)" fill="#ccc"/>
      <path id="Trazado_1223832" data-name="Trazado 1223832" d="M325.745,478.855h0a1.5,1.5,0,0,0-1.5-1.5h-8.71a1.5,1.5,0,0,0-1.5,1.5h0a1.5,1.5,0,0,0,1.5,1.5h8.71A1.5,1.5,0,0,0,325.745,478.855Z" transform="translate(-279.354 -424.691)" fill="#efefef"/>
      <path id="Trazado_1223833" data-name="Trazado 1223833" d="M318.493,478.855h0a1.5,1.5,0,0,1,1.5-1.5h-4.452a1.5,1.5,0,0,0-1.5,1.5h0a1.5,1.5,0,0,0,1.5,1.5h4.452A1.5,1.5,0,0,1,318.493,478.855Z" transform="translate(-279.355 -424.691)" fill="#ddd"/>
      <path id="Trazado_1223834" data-name="Trazado 1223834" d="M343.117,264.67a2.622,2.622,0,1,0,2.622-2.622A2.625,2.625,0,0,0,343.117,264.67Zm3.589,0a.967.967,0,1,1-.967-.967A.969.969,0,0,1,346.706,264.67Z" transform="translate(-305.223 -233.136)"/>
      <path id="Trazado_1223835" data-name="Trazado 1223835" d="M254.328,410.5a.827.827,0,1,0,0,1.655h2.547a.827.827,0,0,0,0-1.655Z" transform="translate(-225.495 -365.212)"/>
      <path id="Trazado_1223836" data-name="Trazado 1223836" d="M303.366,410.747a.835.835,0,0,0-.747-.226.821.821,0,0,0-.154.047.846.846,0,0,0-.143.076.806.806,0,0,0-.229.228.852.852,0,0,0-.124.3.828.828,0,1,0,1.639.162.826.826,0,0,0-.064-.317A1.1,1.1,0,0,0,303.366,410.747Z" transform="translate(-268.602 -365.214)"/>
      <path id="Trazado_1223837" data-name="Trazado 1223837" d="M336.348,105.012a.827.827,0,0,0-1.17,0l-2.042,2.042a.827.827,0,0,0,0,1.17l2.042,2.042a.827.827,0,0,0,1.17-1.17l-1.457-1.457,1.457-1.457A.827.827,0,0,0,336.348,105.012Z" transform="translate(-296.128 -93.21)"/>
      <path id="Trazado_1223838" data-name="Trazado 1223838" d="M414.061,110.508c.592,0,.64-.405,2.627-2.284a.827.827,0,0,0,0-1.17l-2.042-2.042a.827.827,0,1,0-1.17,1.17l1.457,1.457-1.457,1.457A.828.828,0,0,0,414.061,110.508Z" transform="translate(-367.603 -93.21)"/>
      <path id="Trazado_1223839" data-name="Trazado 1223839" d="M373.459,96.917l-2.293,6.3a.827.827,0,1,0,1.555.566l2.293-6.3a.827.827,0,1,0-1.555-.566Z" transform="translate(-330.133 -85.74)"/>
      <path id="Trazado_1223840" data-name="Trazado 1223840" d="M54.335,24.473c-28.76.093-27.729-.231-28.641.264A2.187,2.187,0,0,0,24.55,26.66v1.17l-2.264-1.377v-.583a9.114,9.114,0,0,0,4.952-8.194v-.013a3.668,3.668,0,0,0,1.2-.485.82.82,0,0,0,.085-.05,2.914,2.914,0,0,0,1.348-2.335,2.785,2.785,0,0,0-.892-2.112c.656-3.088.435-5.537-.661-7.284a5.439,5.439,0,0,0-3.463-2.424.465.465,0,0,1-.265-.158C22.257-.089,17.081-.857,12.548,1.031a.827.827,0,0,0,.636,1.528C17,.97,21.441,1.538,23.3,3.853a2.125,2.125,0,0,0,1.2.739,3.794,3.794,0,0,1,2.416,1.687c.806,1.283.987,3.149.545,5.554a3.512,3.512,0,0,0-1.26-.119,2.79,2.79,0,0,1-2.5-1.018,1.577,1.577,0,0,0-2.168-.311c-1.84,1.334-7.072,3.415-11.593,1.428a.818.818,0,0,0-.441-.121.539.539,0,0,0-.07,0,3.9,3.9,0,0,0-1.061.16,7.516,7.516,0,0,1,1.815-7.368h0A.827.827,0,1,0,9.037,3.29C6.446,5.774,5.923,9.347,6.879,12.72c-1.71,1.71-.731,4.43,1.809,4.95a13.277,13.277,0,0,0,.22,2.156,9.184,9.184,0,0,0,1.99,3.9,9.466,9.466,0,0,0,2.67,2.165v.553L9.786,28.677l-3.206.888a4.728,4.728,0,0,0-3.565,3.7l-.006.031L.1,51.387a4.4,4.4,0,0,0,4.346,5.1H31.511a4.307,4.307,0,0,0,2.762-1,2.323,2.323,0,0,0,1.908,1h8.71a2.325,2.325,0,0,0,0-4.649h-.322V50.575h3.319a.827.827,0,1,0,0-1.655H44.569V38.054a.828.828,0,0,0-.408-1.547H37.012A.828.828,0,0,0,36.7,38.1V48.92c-11,0-10.137.048-10.341-.156-.226-.226-.156,1.107-.156-22.1a.532.532,0,0,1,.532-.532c29.4.023,27.628-.057,27.851.064a.533.533,0,0,1,.279.468V48.388a.532.532,0,0,1-.279.469c-.206.112-.142.043-2.839.064a.827.827,0,0,0,0,1.655c2.462-.068,3.231.262,4.133-.64a2.172,2.172,0,0,0,.641-1.547V26.66A2.187,2.187,0,0,0,54.335,24.473ZM22.193,50.233a5.443,5.443,0,0,0-4.259,2.549,5.444,5.444,0,0,0-4.245-2.548,2.4,2.4,0,0,0-.6-.761,6.156,6.156,0,0,0,1.878-3.541H20.9a6.15,6.15,0,0,0,1.885,3.547A2.4,2.4,0,0,0,22.193,50.233Zm-4.4-15.488-1.339-3.457a5.834,5.834,0,0,0,3,0L18.1,34.751a.148.148,0,0,1-.152.1C17.836,34.854,17.821,34.814,17.794,34.746Zm2.837-8.193v1.764l-.313.794a4.212,4.212,0,0,1-4.7,0l-.391-1.009V26.584A9.252,9.252,0,0,0,20.631,26.553Zm3.709,3.086-3.57,2.843c1.556-3.957,1.536-3.8,1.515-4.092Zm2.9-13.7V13.5A1.249,1.249,0,0,1,27.238,15.94ZM8.658,13.5c-.012.646-.021,1.523-.013,2.433A1.247,1.247,0,0,1,8.658,13.5Zm3.495,9.148c-2.273-2.648-1.779-5.084-1.84-8.927A14.937,14.937,0,0,0,22.44,11.769a4.322,4.322,0,0,0,3.144,1.6c0,.4,0,1.91,0,4.307A7.646,7.646,0,0,1,12.153,22.649Zm1.421,5.714c.029.231.116.307,1.556,4.087l-3.572-2.9Zm-6.985,1.2q-.035.012-.068.027A.59.59,0,0,1,6.59,29.564ZM1.733,51.65,4.641,33.578c.514-2.524,2.879-2.414,5.281-3.222l2.819,2.287v5.314a.827.827,0,1,0,1.655,0V33.986l1.965,1.594a1.818,1.818,0,0,0,3.17,0L21.5,34.018v3.941a.827.827,0,0,0,1.655,0V32.7l1.4-1.112c.008,17.931-.017,16.782.018,17.071a3.132,3.132,0,0,1-1.55-1.557,5.878,5.878,0,0,1-.566-2.039.827.827,0,0,0-.826-.785H14.243a.83.83,0,0,0-.826.783,5.878,5.878,0,0,1-.566,2.041c-1.223,2.429-3.442,1.678-4.313,1.819l1.582-10.69a.827.827,0,1,0-1.637-.242L6.865,48.921H6.012a.827.827,0,1,0,0,1.655h5.55a.728.728,0,0,1,.727.725v3.534H4.446A2.748,2.748,0,0,1,1.733,51.65Zm12.212,3.184V51.927a3.8,3.8,0,0,1,3.071,2.907Zm7.992-2.909v2.909H18.853A3.8,3.8,0,0,1,21.937,51.924ZM45.56,54.164a.671.671,0,0,1-.67.67h-8.71a.67.67,0,1,1,0-1.34h8.71A.671.671,0,0,1,45.56,54.164Zm-7.2-2.325V38.165h4.558V51.839Zm-1.655,0a5.376,5.376,0,0,0-.889.032c-.025-.348-.058-.447-.19-1.3H36.7Zm-2.755-1.264.189,1.177a2.66,2.66,0,0,1-2.626,3.082H23.592V51.3a.728.728,0,0,1,.727-.725Z" transform="translate(0 0)"/>
      <path id="Trazado_1223841" data-name="Trazado 1223841" d="M294.21,85.675h15.556c.411,0,.494.29,1.711,1.335a1.529,1.529,0,0,0,2.557-1.132V81.1a.827.827,0,1,0-1.655,0v4.5c-.8-.616-1.327-1.574-2.613-1.574H294.21a.5.5,0,0,1-.5-.5V74.588a.5.5,0,0,1,.5-.5h17.673a.5.5,0,0,1,.5.5v2.647a.827.827,0,1,0,1.655,0V74.588a2.154,2.154,0,0,0-2.151-2.151H294.21a2.154,2.154,0,0,0-2.151,2.151v8.935A2.154,2.154,0,0,0,294.21,85.675Z" transform="translate(-259.799 -64.445)"/>
    </g>
  </g>
</svg>
