<svg xmlns="http://www.w3.org/2000/svg" xmlns:xlink="http://www.w3.org/1999/xlink" width="400" height="287.313" viewBox="0 0 400 287.313">
  <defs>
    <clipPath id="clip-path">
      <rect id="Rectángulo_423662" data-name="Rectángulo 423662" width="400" height="287" transform="translate(180 6657.688)" fill="#fff" stroke="#707070" stroke-width="1"/>
    </clipPath>
    <clipPath id="clip-path-2">
      <rect id="Rectángulo_423690" data-name="Rectángulo 423690" width="399.5" height="239.431" fill="none"/>
    </clipPath>
  </defs>
  <g id="Grupo_1234622" data-name="Grupo 1234622" transform="translate(-180 -6657.688)">
    <rect id="Rectángulo_423691" data-name="Rectángulo 423691" width="400" height="84" transform="translate(180 6861)" fill="#e5fdfa"/>
    <g id="Enmascarar_grupo_1208530" data-name="Enmascarar grupo 1208530" clip-path="url(#clip-path)">
      <g id="Grupo_1234621" data-name="Grupo 1234621" transform="translate(180 6675.912)">
        <g id="Grupo_1234620" data-name="Grupo 1234620" clip-path="url(#clip-path-2)">
          <path id="Trazado_1224111" data-name="Trazado 1224111" d="M654.35,95.592A2.852,2.852,0,1,1,651.5,92.74,2.852,2.852,0,0,1,654.35,95.592Z" transform="translate(-275.571 -39.4)" fill="none" stroke="#fff" stroke-linecap="round" stroke-linejoin="round" stroke-width="1"/>
          <path id="Trazado_1224112" data-name="Trazado 1224112" d="M219.8,28.155a2.853,2.853,0,1,1-2.852-2.852A2.852,2.852,0,0,1,219.8,28.155Z" transform="translate(-90.956 -10.75)" fill="none" stroke="#fff" stroke-linecap="round" stroke-linejoin="round" stroke-width="1"/>
          <path id="Trazado_1224113" data-name="Trazado 1224113" d="M34.782,209.966a2.853,2.853,0,1,1-2.852-2.852A2.852,2.852,0,0,1,34.782,209.966Z" transform="translate(-12.353 -87.99)" fill="none" stroke="#fff" stroke-linecap="round" stroke-linejoin="round" stroke-width="1"/>
          <path id="Trazado_1224114" data-name="Trazado 1224114" d="M47.621,42.133a2.853,2.853,0,1,1-2.852-2.852A2.852,2.852,0,0,1,47.621,42.133Z" transform="translate(-17.808 -16.688)" fill="none" stroke="#fff" stroke-linecap="round" stroke-linejoin="round" stroke-width="1"/>
          <path id="Trazado_1224115" data-name="Trazado 1224115" d="M592.136,3.352A2.852,2.852,0,1,1,589.284.5,2.852,2.852,0,0,1,592.136,3.352Z" transform="translate(-249.14 -0.212)" fill="none" stroke="#fff" stroke-linecap="round" stroke-linejoin="round" stroke-width="1"/>
          <path id="Trazado_1224116" data-name="Trazado 1224116" d="M664.688,225.582a2.853,2.853,0,1,1-2.852-2.852A2.852,2.852,0,0,1,664.688,225.582Z" transform="translate(-279.963 -94.625)" fill="none" stroke="#fff" stroke-linecap="round" stroke-linejoin="round" stroke-width="1"/>
          <path id="Trazado_1224117" data-name="Trazado 1224117" d="M317.349,31.613a2.853,2.853,0,1,1-2.852-2.852A2.852,2.852,0,0,1,317.349,31.613Z" transform="translate(-132.399 -12.219)" fill="none" stroke="#fff" stroke-linecap="round" stroke-linejoin="round" stroke-width="1"/>
          <path id="Trazado_1224118" data-name="Trazado 1224118" d="M642.3,27.46l-6.077,5.624,6.931,2.612Z" transform="translate(-270.292 -11.666)" fill="none" stroke="#fff" stroke-linecap="round" stroke-linejoin="round" stroke-width="1"/>
          <path id="Trazado_1224119" data-name="Trazado 1224119" d="M373.285,3.23l6.879,4.608-6.438,3.66Z" transform="translate(-158.587 -1.372)" fill="none" stroke="#fff" stroke-linecap="round" stroke-linejoin="round" stroke-width="1"/>
          <path id="Trazado_1224120" data-name="Trazado 1224120" d="M659.532,149.242l6.88,4.608-6.438,3.66Z" transform="translate(-280.196 -63.404)" fill="none" stroke="#fff" stroke-linecap="round" stroke-linejoin="round" stroke-width="1"/>
          <path id="Trazado_1224121" data-name="Trazado 1224121" d="M32.061,98.543l6.879,4.608-6.438,3.66Z" transform="translate(-13.621 -41.865)" fill="none" stroke="#fff" stroke-linecap="round" stroke-linejoin="round" stroke-width="1"/>
          <path id="Trazado_1224122" data-name="Trazado 1224122" d="M457.6,19.789l-2.025,8.029-5.613-4.831Z" transform="translate(-191.162 -8.407)" fill="none" stroke="#fff" stroke-linecap="round" stroke-linejoin="round" stroke-width="1"/>
          <path id="Trazado_1224123" data-name="Trazado 1224123" d="M105.382,10.428l.607,8.258-6.85-2.818Z" transform="translate(-42.118 -4.43)" fill="none" stroke="#fff" stroke-linecap="round" stroke-linejoin="round" stroke-width="1"/>
          <line id="Línea_2390" data-name="Línea 2390" x2="398.637" transform="translate(0.431 186.58)" fill="none" stroke="#153e5f" stroke-linecap="round" stroke-linejoin="round" stroke-width="1.5"/>
          <path id="Trazado_1224124" data-name="Trazado 1224124" d="M580.85,278.971c8.584-2.85,14.1-10.9,14.259-10.992a97.154,97.154,0,0,0-12.348-2.307c13.411-2.494,19.173-11.034,19.448-11.247a83.84,83.84,0,0,0-12.036-3.354c8.3-7.782,13.152-19.556,13.173-19.563.163-.127-13.849,1.655-22.806,10.068-.573-3.972-1.147-7.808-1.86-11.382a29.767,29.767,0,0,0-13.328,20.113c-.676-4.059-1.295-8.006-1.981-11.7-.068,0-9.181,7.547-11.061,17.174-1.415,6.988.448,11.063.443,11.034-2.17-2.788-4.214-5.618-6.132-8.439a55.2,55.2,0,0,0-5.534,20.472c-.674,12.995,4.5,20.747,4.492,20.609-.046.186,8.631.332,19.006-4.49a77.141,77.141,0,0,0,15.93-10.032c-3.434-1.566-6.889-3.129-10.313-4.708-.011.046,4.467.831,10.65-1.253" transform="translate(-229.849 -97.796)" fill="#e5ebfb"/>
          <path id="Trazado_1224125" data-name="Trazado 1224125" d="M603.684,238.086a184.491,184.491,0,0,0-51.635,61.226" transform="translate(-234.533 -101.149)" fill="none" stroke="#87b1e6" stroke-linecap="round" stroke-linejoin="round" stroke-width="0.75"/>
          <path id="Trazado_1224126" data-name="Trazado 1224126" d="M613.921,265.6c-.006-.038-7.279,2.176-14.443-.621-3.545-6.592-.874-14.034-.851-14.008" transform="translate(-253.902 -106.622)" fill="none" stroke="#87b1e6" stroke-linecap="round" stroke-linejoin="round" stroke-width="0.75"/>
          <path id="Trazado_1224127" data-name="Trazado 1224127" d="M591.392,290.743a21.634,21.634,0,0,1-12.816-1.168,18.184,18.184,0,0,1-3.42-12.4" transform="translate(-244.312 -117.756)" fill="none" stroke="#87b1e6" stroke-linecap="round" stroke-linejoin="round" stroke-width="0.75"/>
          <path id="Trazado_1224128" data-name="Trazado 1224128" d="M572.99,315.45a20.231,20.231,0,0,1-12.566-.372,18.851,18.851,0,0,1-4.468-12.193" transform="translate(-236.191 -128.678)" fill="none" stroke="#87b1e6" stroke-linecap="round" stroke-linejoin="round" stroke-width="0.75"/>
          <path id="Trazado_1224129" data-name="Trazado 1224129" d="M67.706,278.971c-8.584-2.85-14.1-10.9-14.259-10.992a97.15,97.15,0,0,1,12.348-2.307c-13.412-2.494-19.174-11.034-19.448-11.247a83.837,83.837,0,0,1,12.036-3.354c-8.3-7.782-13.152-19.556-13.173-19.563-.163-.127,13.849,1.655,22.806,10.068.573-3.972,1.147-7.808,1.86-11.382A29.767,29.767,0,0,1,83.2,250.307c.676-4.059,1.295-8.006,1.981-11.7.068,0,9.181,7.547,11.061,17.174,1.415,6.988-.448,11.063-.443,11.034,2.17-2.788,4.214-5.618,6.132-8.439a55.2,55.2,0,0,1,5.534,20.472c.674,12.995-4.5,20.747-4.492,20.609.046.186-8.631.332-19.006-4.49a77.107,77.107,0,0,1-15.929-10.032c3.434-1.566,6.889-3.129,10.312-4.708.011.046-4.467.831-10.65-1.253" transform="translate(-19.206 -97.796)" fill="#e5ebfb"/>
          <path id="Trazado_1224130" data-name="Trazado 1224130" d="M52.766,238.086A184.491,184.491,0,0,1,104.4,299.312" transform="translate(-22.417 -101.149)" fill="none" stroke="#87b1e6" stroke-linecap="round" stroke-linejoin="round" stroke-width="0.75"/>
          <path id="Trazado_1224131" data-name="Trazado 1224131" d="M68.643,265.6c.006-.038,7.279,2.176,14.443-.621,3.545-6.592.874-14.034.851-14.008" transform="translate(-29.162 -106.622)" fill="none" stroke="#87b1e6" stroke-linecap="round" stroke-linejoin="round" stroke-width="0.75"/>
          <path id="Trazado_1224132" data-name="Trazado 1224132" d="M91.14,290.743a21.634,21.634,0,0,0,12.816-1.168,18.178,18.178,0,0,0,3.419-12.4" transform="translate(-38.72 -117.756)" fill="none" stroke="#87b1e6" stroke-linecap="round" stroke-linejoin="round" stroke-width="0.75"/>
          <path id="Trazado_1224133" data-name="Trazado 1224133" d="M109.016,315.45a20.231,20.231,0,0,0,12.566-.372,18.851,18.851,0,0,0,4.468-12.193" transform="translate(-46.314 -128.678)" fill="none" stroke="#87b1e6" stroke-linecap="round" stroke-linejoin="round" stroke-width="0.75"/>
          <path id="Trazado_1224134" data-name="Trazado 1224134" d="M626.961,303.277a19.784,19.784,0,0,1-5.826,13.96c.005-.072.752-7.092.834-14.73.277-7.619-.124-14.449-.124-14.519a25.908,25.908,0,0,1,5.116,15.29" transform="translate(-263.882 -122.348)" fill="#87b1e6"/>
          <path id="Trazado_1224135" data-name="Trazado 1224135" d="M621.136,317.758c4.158-8.724,4.36-19.012.966-28.546" transform="translate(-263.884 -122.869)" fill="none" stroke="#a1c7f7" stroke-linecap="round" stroke-linejoin="round" stroke-width="0.5"/>
          <path id="Trazado_1224136" data-name="Trazado 1224136" d="M602.725,326.956a19.093,19.093,0,0,1-7.521,12.879c.014-.07,1.582-6.8,2.535-14.206,1.15-7.363,1.513-14.03,1.522-14.1a24.571,24.571,0,0,1,3.464,15.426" transform="translate(-252.866 -132.35)" fill="#87b1e6"/>
          <path id="Trazado_1224137" data-name="Trazado 1224137" d="M595.207,340.362c5.234-7.995,6.605-17.953,4.236-27.593" transform="translate(-252.868 -132.877)" fill="none" stroke="#a1c7f7" stroke-linecap="round" stroke-linejoin="round" stroke-width="0.5"/>
          <path id="Trazado_1224138" data-name="Trazado 1224138" d="M575.412,347.422a18.8,18.8,0,0,1-9.161,11.653c.023-.066,2.41-6.431,4.238-13.515,2.024-7.022,3.157-13.455,3.174-13.52a23.122,23.122,0,0,1,1.75,15.382" transform="translate(-240.566 -141.063)" fill="#87b1e6"/>
          <path id="Trazado_1224139" data-name="Trazado 1224139" d="M566.254,359.6a32.856,32.856,0,0,0,7.512-26.323" transform="translate(-240.568 -141.591)" fill="none" stroke="#a1c7f7" stroke-linecap="round" stroke-linejoin="round" stroke-width="0.5"/>
          <path id="Trazado_1224140" data-name="Trazado 1224140" d="M644.908,313.886a26.376,26.376,0,0,0-13.117,7.712,147.265,147.265,0,0,0,14.576-2.549,145.408,145.408,0,0,0,14.373-4.386,27.579,27.579,0,0,0-15.832-.778" transform="translate(-268.41 -133.012)" fill="#87b1e6"/>
          <path id="Trazado_1224141" data-name="Trazado 1224141" d="M631.791,322.763A63.542,63.542,0,0,1,660,315.83" transform="translate(-268.41 -134.177)" fill="none" stroke="#a1c7f7" stroke-linecap="round" stroke-linejoin="round" stroke-width="0.5"/>
          <path id="Trazado_1224142" data-name="Trazado 1224142" d="M621.5,340.825a27.191,27.191,0,0,0-14.2,5.956c.074,0,7.2.032,15.1-.78,7.872-.912,15.019-2.547,15.091-2.566a29.411,29.411,0,0,0-15.989-2.61" transform="translate(-258.005 -144.709)" fill="#87b1e6"/>
          <path id="Trazado_1224143" data-name="Trazado 1224143" d="M607.3,348.52a67.238,67.238,0,0,1,29.438-3.432" transform="translate(-258.005 -146.448)" fill="none" stroke="#a1c7f7" stroke-linecap="round" stroke-linejoin="round" stroke-width="0.5"/>
          <path id="Trazado_1224144" data-name="Trazado 1224144" d="M594.821,364.066a28.616,28.616,0,0,0-15.145,4.152c.075.008,7.336.857,15.464.978,8.114.021,15.563-.736,15.639-.747a31.2,31.2,0,0,0-15.958-4.383" transform="translate(-246.27 -154.67)" fill="#87b1e6"/>
          <path id="Trazado_1224145" data-name="Trazado 1224145" d="M579.677,370.109a71.78,71.78,0,0,1,30.345.06" transform="translate(-246.27 -156.561)" fill="none" stroke="#a1c7f7" stroke-linecap="round" stroke-linejoin="round" stroke-width="0.5"/>
          <path id="Trazado_1224146" data-name="Trazado 1224146" d="M541.461,353.792a142.74,142.74,0,0,0,63.09-50.108" transform="translate(-230.035 -129.017)" fill="none" stroke="#a1c7f7" stroke-linecap="round" stroke-linejoin="round" stroke-width="0.5"/>
          <path id="Trazado_1224147" data-name="Trazado 1224147" d="M656.337,272.84a53.451,53.451,0,0,0-5.185,13.118,29.461,29.461,0,0,0,9.531-10.077,34.188,34.188,0,0,0,4.146-13.922,49.951,49.951,0,0,0-8.492,10.881" transform="translate(-276.636 -111.291)" fill="#87b1e6"/>
          <path id="Trazado_1224148" data-name="Trazado 1224148" d="M651.153,286.411a146.875,146.875,0,0,0,13.4-23.386" transform="translate(-276.636 -111.744)" fill="none" stroke="#a1c7f7" stroke-linecap="round" stroke-linejoin="round" stroke-width="0.5"/>
          <path id="Trazado_1224149" data-name="Trazado 1224149" d="M63.323,303.277a19.784,19.784,0,0,0,5.826,13.96c-.005-.072-.752-7.092-.834-14.73-.277-7.619.124-14.449.124-14.519a25.9,25.9,0,0,0-5.116,15.29" transform="translate(-26.901 -122.348)" fill="#87b1e6"/>
          <path id="Trazado_1224150" data-name="Trazado 1224150" d="M70.993,317.758c-4.158-8.724-4.36-19.012-.966-28.546" transform="translate(-28.745 -122.869)" fill="none" stroke="#a1c7f7" stroke-linecap="round" stroke-linejoin="round" stroke-width="0.5"/>
          <path id="Trazado_1224151" data-name="Trazado 1224151" d="M86.177,326.956A19.093,19.093,0,0,0,93.7,339.835c-.014-.07-1.582-6.8-2.535-14.206-1.15-7.363-1.513-14.03-1.522-14.1a24.572,24.572,0,0,0-3.464,15.426" transform="translate(-36.536 -132.35)" fill="#87b1e6"/>
          <path id="Trazado_1224152" data-name="Trazado 1224152" d="M95.427,340.362c-5.234-7.995-6.605-17.953-4.236-27.593" transform="translate(-38.265 -132.877)" fill="none" stroke="#a1c7f7" stroke-linecap="round" stroke-linejoin="round" stroke-width="0.5"/>
          <path id="Trazado_1224153" data-name="Trazado 1224153" d="M111.935,347.422a18.8,18.8,0,0,0,9.161,11.653c-.022-.066-2.41-6.431-4.238-13.515-2.024-7.022-3.157-13.455-3.174-13.52a23.122,23.122,0,0,0-1.75,15.382" transform="translate(-47.282 -141.063)" fill="#87b1e6"/>
          <path id="Trazado_1224154" data-name="Trazado 1224154" d="M122.542,359.6a32.854,32.854,0,0,1-7.513-26.323" transform="translate(-48.728 -141.591)" fill="none" stroke="#a1c7f7" stroke-linecap="round" stroke-linejoin="round" stroke-width="0.5"/>
          <path id="Trazado_1224155" data-name="Trazado 1224155" d="M28.3,313.886A26.376,26.376,0,0,1,41.414,321.6a147.265,147.265,0,0,1-14.576-2.549,145.4,145.4,0,0,1-14.373-4.386,27.579,27.579,0,0,1,15.832-.778" transform="translate(-5.295 -133.012)" fill="#87b1e6"/>
          <path id="Trazado_1224156" data-name="Trazado 1224156" d="M41.965,322.763A63.541,63.541,0,0,0,13.76,315.83" transform="translate(-5.846 -134.177)" fill="none" stroke="#a1c7f7" stroke-linecap="round" stroke-linejoin="round" stroke-width="0.5"/>
          <path id="Trazado_1224157" data-name="Trazado 1224157" d="M50.784,340.825a27.191,27.191,0,0,1,14.2,5.956c-.074,0-7.2.032-15.1-.78-7.872-.912-15.019-2.547-15.091-2.566a29.412,29.412,0,0,1,15.989-2.61" transform="translate(-14.782 -144.709)" fill="#87b1e6"/>
          <path id="Trazado_1224158" data-name="Trazado 1224158" d="M65.547,348.52a67.238,67.238,0,0,0-29.438-3.432" transform="translate(-15.341 -146.448)" fill="none" stroke="#a1c7f7" stroke-linecap="round" stroke-linejoin="round" stroke-width="0.5"/>
          <path id="Trazado_1224159" data-name="Trazado 1224159" d="M76.793,364.066a28.616,28.616,0,0,1,15.145,4.152c-.075.008-7.336.857-15.464.978-8.114.021-15.563-.736-15.639-.747a31.2,31.2,0,0,1,15.958-4.383" transform="translate(-25.845 -154.67)" fill="#87b1e6"/>
          <path id="Trazado_1224160" data-name="Trazado 1224160" d="M92.5,370.109a71.78,71.78,0,0,0-30.345.06" transform="translate(-26.406 -156.561)" fill="none" stroke="#a1c7f7" stroke-linecap="round" stroke-linejoin="round" stroke-width="0.5"/>
          <path id="Trazado_1224161" data-name="Trazado 1224161" d="M106.527,353.792a142.74,142.74,0,0,1-63.09-50.108" transform="translate(-18.454 -129.017)" fill="none" stroke="#a1c7f7" stroke-linecap="round" stroke-linejoin="round" stroke-width="0.5"/>
          <path id="Trazado_1224162" data-name="Trazado 1224162" d="M28.15,272.84a53.45,53.45,0,0,1,5.184,13.118A29.461,29.461,0,0,1,23.8,275.881a34.189,34.189,0,0,1-4.146-13.922A49.946,49.946,0,0,1,28.15,272.84" transform="translate(-8.352 -111.291)" fill="#87b1e6"/>
          <path id="Trazado_1224163" data-name="Trazado 1224163" d="M33.541,286.411a146.874,146.874,0,0,1-13.4-23.386" transform="translate(-8.558 -111.744)" fill="none" stroke="#a1c7f7" stroke-linecap="round" stroke-linejoin="round" stroke-width="0.5"/>
          <path id="Trazado_1224164" data-name="Trazado 1224164" d="M608.31,152.989a15.064,15.064,0,1,0,15.064,15.064,15.058,15.058,0,0,0-15.064-15.064m0,25.1a10.035,10.035,0,1,1,10.034-10.035,10.028,10.028,0,0,1-10.034,10.035" transform="translate(-252.046 -64.996)" fill="#87b1e6"/>
          <rect id="Rectángulo_423663" data-name="Rectángulo 423663" width="7.427" height="5.47" transform="translate(352.559 84.329)" fill="#87b1e6"/>
          <rect id="Rectángulo_423664" data-name="Rectángulo 423664" width="7.427" height="5.471" transform="matrix(0.707, -0.707, 0.707, 0.707, 340.404, 92.44)" fill="#87b1e6"/>
          <rect id="Rectángulo_423665" data-name="Rectángulo 423665" width="5.47" height="7.427" transform="translate(337.546 99.343)" fill="#87b1e6"/>
          <rect id="Rectángulo_423666" data-name="Rectángulo 423666" width="5.471" height="7.427" transform="matrix(0.707, -0.707, 0.707, 0.707, 340.404, 113.674)" fill="#87b1e6"/>
          <rect id="Rectángulo_423667" data-name="Rectángulo 423667" width="7.427" height="5.47" transform="translate(352.559 116.314)" fill="#87b1e6"/>
          <rect id="Rectángulo_423668" data-name="Rectángulo 423668" width="7.427" height="5.471" transform="matrix(0.707, -0.707, 0.707, 0.707, 363.021, 115.057)" fill="#87b1e6"/>
          <rect id="Rectángulo_423669" data-name="Rectángulo 423669" width="5.47" height="7.427" transform="translate(369.53 99.343)" fill="#87b1e6"/>
          <rect id="Rectángulo_423670" data-name="Rectángulo 423670" width="5.471" height="7.427" transform="translate(363.021 91.057) rotate(-45)" fill="#87b1e6"/>
          <path id="Trazado_1224165" data-name="Trazado 1224165" d="M61.889,152.906a13.558,13.558,0,1,0,13.558,13.558,13.552,13.552,0,0,0-13.558-13.558m0,22.589a9.031,9.031,0,1,1,9.031-9.031,9.025,9.025,0,0,1-9.031,9.031" transform="translate(-20.543 -64.961)" fill="#87b1e6"/>
          <rect id="Rectángulo_423671" data-name="Rectángulo 423671" width="6.685" height="4.923" transform="translate(38.012 84.647)" fill="#87b1e6"/>
          <rect id="Rectángulo_423672" data-name="Rectángulo 423672" width="6.685" height="4.923" transform="translate(27.073 91.947) rotate(-45)" fill="#87b1e6"/>
          <rect id="Rectángulo_423673" data-name="Rectángulo 423673" width="4.923" height="6.684" transform="translate(24.499 98.16)" fill="#87b1e6"/>
          <rect id="Rectángulo_423674" data-name="Rectángulo 423674" width="4.924" height="6.685" transform="translate(27.073 111.057) rotate(-45)" fill="#87b1e6"/>
          <rect id="Rectángulo_423675" data-name="Rectángulo 423675" width="6.685" height="4.923" transform="translate(38.012 113.434)" fill="#87b1e6"/>
          <rect id="Rectángulo_423676" data-name="Rectángulo 423676" width="6.685" height="4.923" transform="translate(47.428 112.302) rotate(-45)" fill="#87b1e6"/>
          <rect id="Rectángulo_423677" data-name="Rectángulo 423677" width="4.923" height="6.684" transform="translate(53.286 98.16)" fill="#87b1e6"/>
          <rect id="Rectángulo_423678" data-name="Rectángulo 423678" width="4.923" height="6.685" transform="translate(47.428 90.702) rotate(-45)" fill="#87b1e6"/>
          <path id="Trazado_1224166" data-name="Trazado 1224166" d="M376.786,30.62a16.571,16.571,0,1,0,16.57,16.571,16.564,16.564,0,0,0-16.57-16.571m0,27.609a11.038,11.038,0,1,1,11.038-11.038,11.031,11.031,0,0,1-11.038,11.038" transform="translate(-153.046 -13.009)" fill="#87b1e6"/>
          <rect id="Rectángulo_423679" data-name="Rectángulo 423679" width="8.17" height="6.018" transform="translate(219.665 13.581)" fill="#87b1e6"/>
          <rect id="Rectángulo_423680" data-name="Rectángulo 423680" width="8.17" height="6.018" transform="translate(206.295 22.503) rotate(-45)" fill="#87b1e6"/>
          <rect id="Rectángulo_423681" data-name="Rectángulo 423681" width="6.018" height="8.17" transform="translate(203.149 30.096)" fill="#87b1e6"/>
          <rect id="Rectángulo_423682" data-name="Rectángulo 423682" width="6.018" height="8.17" transform="matrix(0.707, -0.707, 0.707, 0.707, 206.295, 45.86)" fill="#87b1e6"/>
          <rect id="Rectángulo_423683" data-name="Rectángulo 423683" width="8.17" height="6.017" transform="translate(219.665 48.764)" fill="#87b1e6"/>
          <rect id="Rectángulo_423684" data-name="Rectángulo 423684" width="8.17" height="6.018" transform="translate(231.173 47.382) rotate(-45)" fill="#87b1e6"/>
          <rect id="Rectángulo_423685" data-name="Rectángulo 423685" width="6.018" height="8.17" transform="translate(238.333 30.097)" fill="#87b1e6"/>
          <rect id="Rectángulo_423686" data-name="Rectángulo 423686" width="6.018" height="8.17" transform="matrix(0.707, -0.707, 0.707, 0.707, 231.173, 20.982)" fill="#87b1e6"/>
          <path id="Trazado_1224167" data-name="Trazado 1224167" d="M376.542,216.688H152.726V85.417a6.821,6.821,0,0,1,6.821-6.821H369.722a6.82,6.82,0,0,1,6.82,6.821Z" transform="translate(-64.884 -33.391)" fill="#326290"/>
          <path id="Trazado_1224168" data-name="Trazado 1224168" d="M338.209,89.8H324.823a.962.962,0,0,0,0,1.923h13.386a.962.962,0,1,0,0-1.923" transform="translate(-137.59 -38.15)" fill="#153e5f"/>
          <path id="Trazado_1224169" data-name="Trazado 1224169" d="M364.3,87.712a4.354,4.354,0,1,1-4.354-4.354,4.354,4.354,0,0,1,4.354,4.354" transform="translate(-151.068 -35.414)" fill="#153e5f"/>
          <path id="Trazado_1224170" data-name="Trazado 1224170" d="M363.575,89.751a1.593,1.593,0,1,1-1.594-1.594,1.594,1.594,0,0,1,1.594,1.594" transform="translate(-153.107 -37.453)" fill="#fff"/>
          <path id="Trazado_1224171" data-name="Trazado 1224171" d="M374.8,105.943V217.828a2.684,2.684,0,0,1-2.684,2.684H166.97a2.684,2.684,0,0,1-2.684-2.684V105.943a2.684,2.684,0,0,1,2.684-2.684H372.115a2.684,2.684,0,0,1,2.684,2.684" transform="translate(-69.795 -43.869)" fill="#a1c7f7"/>
          <path id="Trazado_1224172" data-name="Trazado 1224172" d="M271.7,175.9a3.284,3.284,0,1,0-3.284,3.284A3.284,3.284,0,0,0,271.7,175.9" transform="translate(-112.639 -73.333)" fill="#d6e9fc"/>
          <path id="Trazado_1224173" data-name="Trazado 1224173" d="M254.267,199.248a3.284,3.284,0,1,0-3.284,3.284,3.284,3.284,0,0,0,3.284-3.284" transform="translate(-105.233 -83.253)" fill="#d6e9fc"/>
          <path id="Trazado_1224174" data-name="Trazado 1224174" d="M263.436,162.48V141.035H253.409" transform="translate(-107.658 -59.917)" fill="none" stroke="#d6e9fc" stroke-miterlimit="10" stroke-width="0.98"/>
          <path id="Trazado_1224175" data-name="Trazado 1224175" d="M230.266,216.329a3.284,3.284,0,1,1,3.284,3.284,3.284,3.284,0,0,1-3.284-3.284" transform="translate(-97.826 -90.51)" fill="#d6e9fc"/>
          <path id="Trazado_1224176" data-name="Trazado 1224176" d="M235.975,202.914V181.468H246" transform="translate(-100.252 -77.095)" fill="none" stroke="#d6e9fc" stroke-miterlimit="10" stroke-width="0.98"/>
          <path id="Trazado_1224177" data-name="Trazado 1224177" d="M230.266,158.4a3.284,3.284,0,1,1,3.284,3.284,3.284,3.284,0,0,1-3.284-3.284" transform="translate(-97.826 -65.901)" fill="#d6e9fc"/>
          <path id="Trazado_1224178" data-name="Trazado 1224178" d="M235.975,144.987V123.542H246" transform="translate(-100.252 -52.485)" fill="none" stroke="#d6e9fc" stroke-miterlimit="10" stroke-width="0.98"/>
          <path id="Trazado_1224179" data-name="Trazado 1224179" d="M212.832,177.045a3.284,3.284,0,1,1,3.284,3.284,3.284,3.284,0,0,1-3.284-3.284" transform="translate(-90.42 -73.821)" fill="#d6e9fc"/>
          <path id="Trazado_1224180" data-name="Trazado 1224180" d="M218.542,163.63V142.184h10.027" transform="translate(-92.845 -60.406)" fill="none" stroke="#d6e9fc" stroke-miterlimit="10" stroke-width="0.98"/>
          <line id="Línea_2391" data-name="Línea 2391" y2="56.603" transform="translate(145.75 59.391)" fill="none" stroke="#d6e9fc" stroke-miterlimit="10" stroke-width="0.98"/>
          <path id="Trazado_1224181" data-name="Trazado 1224181" d="M480.829,234.709a3.284,3.284,0,1,1-3.284-3.284,3.284,3.284,0,0,1,3.284,3.284" transform="translate(-201.485 -98.319)" fill="#d6e9fc"/>
          <path id="Trazado_1224182" data-name="Trazado 1224182" d="M463.4,211.357a3.284,3.284,0,1,1-3.284-3.284,3.284,3.284,0,0,1,3.284,3.284" transform="translate(-194.079 -88.398)" fill="#d6e9fc"/>
          <path id="Trazado_1224183" data-name="Trazado 1224183" d="M472.565,237.134v21.445H462.538" transform="translate(-196.505 -100.744)" fill="none" stroke="#d6e9fc" stroke-miterlimit="10" stroke-width="0.98"/>
          <path id="Trazado_1224184" data-name="Trazado 1224184" d="M498.263,217.983a3.284,3.284,0,1,1-3.284-3.284,3.284,3.284,0,0,1,3.284,3.284" transform="translate(-208.892 -91.213)" fill="#d6e9fc"/>
          <path id="Trazado_1224185" data-name="Trazado 1224185" d="M490,220.408v21.445H479.971" transform="translate(-203.911 -93.638)" fill="none" stroke="#d6e9fc" stroke-miterlimit="10" stroke-width="0.98"/>
          <path id="Trazado_1224186" data-name="Trazado 1224186" d="M439.395,194.275a3.284,3.284,0,1,0,3.284-3.284,3.284,3.284,0,0,0-3.284,3.284" transform="translate(-186.673 -81.141)" fill="#d6e9fc"/>
          <path id="Trazado_1224187" data-name="Trazado 1224187" d="M445.1,196.7v21.445h10.027" transform="translate(-189.098 -83.566)" fill="none" stroke="#d6e9fc" stroke-miterlimit="10" stroke-width="0.98"/>
          <path id="Trazado_1224188" data-name="Trazado 1224188" d="M439.395,252.2a3.284,3.284,0,1,0,3.284-3.284,3.284,3.284,0,0,0-3.284,3.284" transform="translate(-186.673 -105.75)" fill="#d6e9fc"/>
          <path id="Trazado_1224189" data-name="Trazado 1224189" d="M445.1,254.627v21.445h10.027" transform="translate(-189.098 -108.176)" fill="none" stroke="#d6e9fc" stroke-miterlimit="10" stroke-width="0.98"/>
          <line id="Línea_2392" data-name="Línea 2392" y1="53.685" transform="translate(266.033 122.959)" fill="none" stroke="#d6e9fc" stroke-miterlimit="10" stroke-width="0.98"/>
          <path id="Trazado_1224190" data-name="Trazado 1224190" d="M353.443,166.536a23.522,23.522,0,1,1-23.522-23.522,23.522,23.522,0,0,1,23.522,23.522" transform="translate(-130.171 -60.758)" fill="#fff"/>
          <path id="Trazado_1224191" data-name="Trazado 1224191" d="M351.842,188.5a23.521,23.521,0,0,1-34.789,0,17.6,17.6,0,0,1,11.991-14.173,9.31,9.31,0,1,1,10.8,0,17.6,17.6,0,0,1,12,14.173" transform="translate(-134.697 -66.891)" fill="#4192f2"/>
          <rect id="Rectángulo_423687" data-name="Rectángulo 423687" width="49.728" height="12.024" transform="translate(180.898 143.369)" fill="#fff"/>
          <path id="Trazado_1224192" data-name="Trazado 1224192" d="M367.285,260.721a.532.532,0,0,1-.532-.532V253.6a.532.532,0,1,1,1.064,0v6.59a.532.532,0,0,1-.532.532" transform="translate(-155.812 -107.513)" fill="#153e5f"/>
          <path id="Trazado_1224193" data-name="Trazado 1224193" d="M363.235,260.469a.532.532,0,0,1-.376-.908l4.659-4.661a.532.532,0,1,1,.752.753l-4.659,4.66a.529.529,0,0,1-.376.156" transform="translate(-154.091 -108.226)" fill="#153e5f"/>
          <path id="Trazado_1224194" data-name="Trazado 1224194" d="M367.894,260.469a.529.529,0,0,1-.376-.156l-4.659-4.66a.532.532,0,1,1,.752-.753l4.659,4.661a.532.532,0,0,1-.376.908" transform="translate(-154.091 -108.226)" fill="#153e5f"/>
          <path id="Trazado_1224195" data-name="Trazado 1224195" d="M368.147,259.861h-6.59a.532.532,0,0,1,0-1.064h6.59a.532.532,0,1,1,0,1.064" transform="translate(-153.378 -109.947)" fill="#153e5f"/>
          <path id="Trazado_1224196" data-name="Trazado 1224196" d="M347.425,260.721a.532.532,0,0,1-.532-.532V253.6a.532.532,0,1,1,1.064,0v6.59a.532.532,0,0,1-.532.532" transform="translate(-147.374 -107.513)" fill="#153e5f"/>
          <path id="Trazado_1224197" data-name="Trazado 1224197" d="M343.375,260.469a.532.532,0,0,1-.376-.908l4.659-4.661a.532.532,0,0,1,.752.753l-4.659,4.66a.53.53,0,0,1-.376.156" transform="translate(-145.653 -108.226)" fill="#153e5f"/>
          <path id="Trazado_1224198" data-name="Trazado 1224198" d="M348.034,260.469a.529.529,0,0,1-.376-.156L343,255.653a.532.532,0,1,1,.752-.753l4.659,4.661a.532.532,0,0,1-.376.908" transform="translate(-145.653 -108.226)" fill="#153e5f"/>
          <path id="Trazado_1224199" data-name="Trazado 1224199" d="M348.287,259.861H341.7a.532.532,0,0,1,0-1.064h6.59a.532.532,0,1,1,0,1.064" transform="translate(-144.941 -109.947)" fill="#153e5f"/>
          <path id="Trazado_1224200" data-name="Trazado 1224200" d="M327.565,260.721a.532.532,0,0,1-.532-.532V253.6a.532.532,0,1,1,1.064,0v6.59a.532.532,0,0,1-.532.532" transform="translate(-138.937 -107.513)" fill="#153e5f"/>
          <path id="Trazado_1224201" data-name="Trazado 1224201" d="M323.515,260.469a.532.532,0,0,1-.376-.908L327.8,254.9a.532.532,0,0,1,.752.753l-4.659,4.66a.53.53,0,0,1-.376.156" transform="translate(-137.216 -108.226)" fill="#153e5f"/>
          <path id="Trazado_1224202" data-name="Trazado 1224202" d="M328.174,260.469a.528.528,0,0,1-.376-.156l-4.659-4.66a.532.532,0,1,1,.752-.753l4.659,4.661a.532.532,0,0,1-.376.908" transform="translate(-137.216 -108.226)" fill="#153e5f"/>
          <path id="Trazado_1224203" data-name="Trazado 1224203" d="M328.427,259.861h-6.59a.532.532,0,1,1,0-1.064h6.59a.532.532,0,0,1,0,1.064" transform="translate(-136.503 -109.947)" fill="#153e5f"/>
          <path id="Trazado_1224204" data-name="Trazado 1224204" d="M387.145,260.721a.532.532,0,0,1-.532-.532V253.6a.532.532,0,0,1,1.064,0v6.59a.532.532,0,0,1-.532.532" transform="translate(-164.249 -107.513)" fill="#153e5f"/>
          <path id="Trazado_1224205" data-name="Trazado 1224205" d="M383.094,260.469a.532.532,0,0,1-.376-.908l4.659-4.661a.532.532,0,1,1,.752.753l-4.659,4.66a.528.528,0,0,1-.376.156" transform="translate(-162.528 -108.226)" fill="#153e5f"/>
          <path id="Trazado_1224206" data-name="Trazado 1224206" d="M387.754,260.469a.528.528,0,0,1-.376-.156l-4.659-4.66a.532.532,0,1,1,.752-.753l4.659,4.661a.532.532,0,0,1-.376.908" transform="translate(-162.528 -108.226)" fill="#153e5f"/>
          <path id="Trazado_1224207" data-name="Trazado 1224207" d="M388.007,259.861h-6.59a.532.532,0,0,1,0-1.064h6.59a.532.532,0,0,1,0,1.064" transform="translate(-161.815 -109.947)" fill="#153e5f"/>
          <rect id="Rectángulo_423688" data-name="Rectángulo 423688" width="12.024" height="12.024" transform="translate(168.874 143.369)" fill="#f2a941"/>
          <path id="Trazado_1224208" data-name="Trazado 1224208" d="M304.687,257.964a2.379,2.379,0,1,1-2.378-2.378,2.378,2.378,0,0,1,2.378,2.378" transform="translate(-127.422 -108.583)" fill="#fdc563"/>
          <rect id="Rectángulo_423689" data-name="Rectángulo 423689" width="24.762" height="1.784" transform="translate(168.874 138.301)" fill="#153e5f"/>
          <path id="Trazado_1224209" data-name="Trazado 1224209" d="M101.119,400.441l2.986,4.284a10.714,10.714,0,0,0,8.731,4.829H372.582a10.712,10.712,0,0,0,8.732-4.829l2.986-4.284Z" transform="translate(-42.959 -170.124)" fill="#153e5f"/>
          <path id="Trazado_1224210" data-name="Trazado 1224210" d="M354.112,318.69H130.3L100.441,362.3c-1.459,2.131.378,4.787,3.311,4.787H380.657c2.933,0,4.769-2.656,3.311-4.787Z" transform="translate(-42.454 -135.392)" fill="#326290"/>
          <line id="Línea_2393" data-name="Línea 2393" x1="223.816" transform="translate(87.842 183.298)" fill="none" stroke="#153e5f" stroke-linecap="round" stroke-linejoin="round" stroke-width="0.75"/>
          <path id="Trazado_1224211" data-name="Trazado 1224211" d="M184.906,338.762H170.446c-.785,0-1.281-.231-1.111-.515l2.314-3.858a2.343,2.343,0,0,1,1.673-.489h14.049c.762,0,1.271.219,1.136.489l-1.924,3.858c-.142.284-.893.515-1.677.515" transform="translate(-71.926 -141.854)" fill="#153e5f"/>
          <path id="Trazado_1224212" data-name="Trazado 1224212" d="M185.6,337.522H171.2c-.781,0-1.276-.229-1.107-.511l2.295-3.825a2.336,2.336,0,0,1,1.665-.485h13.991c.759,0,1.266.217,1.132.485l-1.908,3.825c-.141.282-.888.511-1.669.511" transform="translate(-72.248 -141.344)" fill="#8ab5eb"/>
          <path id="Trazado_1224213" data-name="Trazado 1224213" d="M221.187,338.762H206.726c-.785,0-1.31-.231-1.174-.515l1.843-3.858c.129-.271.852-.489,1.614-.489h14.049c.762,0,1.3.219,1.2.489l-1.453,3.858c-.107.284-.83.515-1.614.515" transform="translate(-87.318 -141.854)" fill="#153e5f"/>
          <path id="Trazado_1224214" data-name="Trazado 1224214" d="M221.725,337.522h-14.4c-.78,0-1.3-.229-1.169-.511l1.828-3.825c.128-.269.847-.485,1.606-.485h13.991c.759,0,1.292.217,1.191.485l-1.441,3.825c-.106.282-.825.511-1.606.511" transform="translate(-87.575 -141.344)" fill="#8ab5eb"/>
          <path id="Trazado_1224215" data-name="Trazado 1224215" d="M257.466,338.762H243.006c-.785,0-1.338-.231-1.237-.515l1.372-3.858c.1-.271.792-.489,1.554-.489h14.049c.762,0,1.324.219,1.255.489l-.982,3.858c-.072.284-.767.515-1.551.515" transform="translate(-102.708 -141.854)" fill="#153e5f"/>
          <path id="Trazado_1224216" data-name="Trazado 1224216" d="M257.849,337.522h-14.4c-.78,0-1.332-.229-1.232-.511l1.361-3.825c.1-.269.788-.485,1.547-.485h13.991c.759,0,1.319.217,1.25.485l-.974,3.825c-.072.282-.763.511-1.544.511" transform="translate(-102.899 -141.344)" fill="#8ab5eb"/>
          <path id="Trazado_1224217" data-name="Trazado 1224217" d="M293.743,338.762H279.282c-.785,0-1.366-.231-1.3-.515l.9-3.858c.063-.271.732-.489,1.494-.489h14.05c.762,0,1.35.219,1.315.489l-.511,3.858c-.038.284-.7.515-1.489.515" transform="translate(-118.096 -141.854)" fill="#153e5f"/>
          <path id="Trazado_1224218" data-name="Trazado 1224218" d="M293.971,337.522h-14.4c-.781,0-1.36-.229-1.294-.511l.894-3.825c.063-.269.729-.485,1.487-.485h13.991c.759,0,1.345.217,1.31.485l-.507,3.825c-.037.282-.7.511-1.482.511" transform="translate(-118.222 -141.344)" fill="#8ab5eb"/>
          <path id="Trazado_1224219" data-name="Trazado 1224219" d="M330.018,338.762H315.558c-.785,0-1.394-.231-1.363-.515l.431-3.858c.03-.271.672-.489,1.434-.489h14.05c.761,0,1.377.219,1.374.489l-.04,3.858c0,.284-.641.515-1.425.515" transform="translate(-133.482 -141.854)" fill="#153e5f"/>
          <path id="Trazado_1224220" data-name="Trazado 1224220" d="M330.092,337.522h-14.4c-.781,0-1.388-.229-1.357-.511l.427-3.825c.03-.269.669-.485,1.428-.485h13.992c.759,0,1.371.217,1.368.485l-.04,3.825c0,.282-.638.511-1.419.511" transform="translate(-133.542 -141.344)" fill="#8ab5eb"/>
          <path id="Trazado_1224221" data-name="Trazado 1224221" d="M366.262,338.762H351.8c-.784,0-1.422-.231-1.425-.515l-.04-3.858c0-.271.613-.489,1.374-.489h14.05c.762,0,1.4.219,1.434.489l.431,3.858c.031.284-.579.515-1.363.515" transform="translate(-148.837 -141.854)" fill="#153e5f"/>
          <path id="Trazado_1224222" data-name="Trazado 1224222" d="M366.18,337.522h-14.4c-.78,0-1.416-.229-1.419-.511l-.04-3.825c0-.269.61-.485,1.369-.485h13.991c.759,0,1.4.217,1.428.485l.427,3.825c.032.282-.576.511-1.357.511" transform="translate(-148.831 -141.344)" fill="#8ab5eb"/>
          <path id="Trazado_1224223" data-name="Trazado 1224223" d="M402.184,338.762H387.724c-.784,0-1.451-.231-1.488-.515l-.511-3.858c-.036-.271.553-.489,1.315-.489h14.05c.762,0,1.43.219,1.494.489l.9,3.858c.067.284-.515.515-1.3.515" transform="translate(-163.871 -141.854)" fill="#153e5f"/>
          <path id="Trazado_1224224" data-name="Trazado 1224224" d="M401.952,337.522h-14.4c-.78,0-1.444-.229-1.482-.511l-.507-3.825c-.036-.269.55-.485,1.309-.485h13.992c.759,0,1.424.217,1.487.485l.894,3.825c.066.282-.514.511-1.295.511" transform="translate(-163.803 -141.344)" fill="#8ab5eb"/>
          <path id="Trazado_1224225" data-name="Trazado 1224225" d="M438.106,338.762H423.645c-.785,0-1.479-.231-1.551-.515l-.982-3.858c-.069-.271.493-.489,1.255-.489h14.049c.762,0,1.457.219,1.554.489l1.372,3.858c.1.284-.453.515-1.237.515" transform="translate(-178.903 -141.854)" fill="#153e5f"/>
          <path id="Trazado_1224226" data-name="Trazado 1224226" d="M437.721,337.522h-14.4c-.78,0-1.472-.229-1.544-.511l-.974-3.825c-.068-.269.492-.485,1.25-.485h13.991c.759,0,1.451.217,1.547.485l1.361,3.825c.1.282-.451.511-1.232.511" transform="translate(-178.772 -141.344)" fill="#8ab5eb"/>
          <path id="Trazado_1224227" data-name="Trazado 1224227" d="M474.025,338.762H459.564c-.785,0-1.507-.231-1.614-.515l-1.453-3.858c-.1-.271.433-.489,1.2-.489h14.049c.762,0,1.484.219,1.614.489l1.843,3.858c.136.284-.389.515-1.173.515" transform="translate(-193.933 -141.854)" fill="#153e5f"/>
          <path id="Trazado_1224228" data-name="Trazado 1224228" d="M473.488,337.522h-14.4c-.78,0-1.5-.229-1.606-.511l-1.441-3.825c-.1-.269.432-.485,1.191-.485h13.992c.759,0,1.477.217,1.605.485l1.828,3.825c.135.282-.389.511-1.17.511" transform="translate(-193.74 -141.344)" fill="#8ab5eb"/>
          <path id="Trazado_1224229" data-name="Trazado 1224229" d="M509.942,338.762H495.482c-.784,0-1.535-.231-1.677-.515l-1.925-3.858c-.135-.271.374-.489,1.135-.489h14.05a2.343,2.343,0,0,1,1.673.489l2.315,3.858c.171.284-.326.515-1.111.515" transform="translate(-208.961 -141.854)" fill="#153e5f"/>
          <path id="Trazado_1224230" data-name="Trazado 1224230" d="M509.254,337.522h-14.4c-.78,0-1.528-.229-1.669-.511l-1.908-3.825c-.134-.269.373-.485,1.132-.485H506.4a2.336,2.336,0,0,1,1.665.485l2.295,3.825c.169.282-.326.511-1.107.511" transform="translate(-208.706 -141.344)" fill="#8ab5eb"/>
          <path id="Trazado_1224231" data-name="Trazado 1224231" d="M178.494,350.236H163.462c-.815,0-1.326-.25-1.142-.557l2.5-4.164a2.424,2.424,0,0,1,1.749-.527h14.589c.791,0,1.315.236,1.169.527l-2.077,4.164c-.153.307-.939.557-1.754.557" transform="translate(-68.944 -146.565)" fill="#153e5f"/>
          <path id="Trazado_1224232" data-name="Trazado 1224232" d="M179.242,348.9H164.277c-.812,0-1.321-.247-1.138-.552l2.476-4.127a2.413,2.413,0,0,1,1.74-.523h14.526c.788,0,1.31.234,1.165.523l-2.058,4.127c-.152.3-.933.552-1.745.552" transform="translate(-69.292 -146.015)" fill="#8ab5eb"/>
          <path id="Trazado_1224233" data-name="Trazado 1224233" d="M216.208,350.236H201.175c-.815,0-1.357-.25-1.21-.557l1.99-4.164c.14-.292.894-.527,1.685-.527h14.589c.791,0,1.344.236,1.234.527l-1.569,4.164c-.116.307-.871.557-1.686.557" transform="translate(-84.943 -146.565)" fill="#153e5f"/>
          <path id="Trazado_1224234" data-name="Trazado 1224234" d="M216.79,348.9H201.824c-.812,0-1.351-.247-1.206-.552l1.972-4.127c.138-.289.889-.523,1.677-.523h14.526c.788,0,1.338.234,1.229.523l-1.555,4.127c-.115.3-.866.552-1.678.552" transform="translate(-85.221 -146.015)" fill="#8ab5eb"/>
          <path id="Trazado_1224235" data-name="Trazado 1224235" d="M253.921,350.236H238.888c-.815,0-1.387-.25-1.278-.557l1.482-4.164c.1-.292.829-.527,1.62-.527H255.3c.791,0,1.372.236,1.3.527l-1.06,4.164c-.078.307-.8.557-1.618.557" transform="translate(-100.941 -146.565)" fill="#153e5f"/>
          <path id="Trazado_1224236" data-name="Trazado 1224236" d="M254.335,348.9H239.369c-.812,0-1.382-.247-1.273-.552l1.468-4.127c.1-.289.825-.523,1.612-.523H255.7c.787,0,1.367.234,1.293.523l-1.051,4.127c-.077.3-.8.552-1.61.552" transform="translate(-101.147 -146.015)" fill="#8ab5eb"/>
          <path id="Trazado_1224237" data-name="Trazado 1224237" d="M291.63,350.236H276.6c-.815,0-1.418-.25-1.346-.557l.973-4.164c.068-.292.764-.527,1.556-.527h14.588c.791,0,1.4.236,1.363.527l-.552,4.164c-.041.307-.735.557-1.55.557" transform="translate(-116.936 -146.565)" fill="#153e5f"/>
          <path id="Trazado_1224238" data-name="Trazado 1224238" d="M291.876,348.9H276.91c-.812,0-1.411-.247-1.341-.552l.965-4.127c.068-.289.761-.523,1.549-.523h14.526c.788,0,1.4.234,1.357.523l-.547,4.127c-.04.3-.731.552-1.543.552" transform="translate(-117.071 -146.015)" fill="#8ab5eb"/>
          <path id="Trazado_1224239" data-name="Trazado 1224239" d="M329.337,350.236H314.3c-.815,0-1.448-.25-1.414-.557l.465-4.164c.032-.292.7-.527,1.491-.527h14.588c.791,0,1.43.236,1.427.527l-.043,4.164c0,.307-.667.557-1.482.557" transform="translate(-132.928 -146.565)" fill="#153e5f"/>
          <path id="Trazado_1224240" data-name="Trazado 1224240" d="M329.417,348.9H314.451c-.812,0-1.442-.247-1.408-.552l.461-4.127c.032-.289.7-.523,1.484-.523h14.526c.787,0,1.424.234,1.421.523l-.043,4.127c0,.3-.664.552-1.475.552" transform="translate(-132.993 -146.015)" fill="#8ab5eb"/>
          <path id="Trazado_1224241" data-name="Trazado 1224241" d="M367.01,350.236H351.977c-.815,0-1.479-.25-1.482-.557l-.044-4.164c0-.292.636-.527,1.427-.527h14.588c.791,0,1.459.236,1.491.527l.465,4.164c.034.307-.6.557-1.414.557" transform="translate(-148.886 -146.565)" fill="#153e5f"/>
          <path id="Trazado_1224242" data-name="Trazado 1224242" d="M366.922,348.9H351.956c-.812,0-1.472-.247-1.475-.552l-.043-4.127c0-.289.633-.523,1.421-.523h14.526c.787,0,1.452.234,1.485.523l.461,4.127c.034.3-.6.552-1.408.552" transform="translate(-148.88 -146.015)" fill="#8ab5eb"/>
          <path id="Trazado_1224243" data-name="Trazado 1224243" d="M404.337,350.236H389.3c-.815,0-1.509-.25-1.55-.557l-.552-4.164c-.039-.292.571-.527,1.363-.527h14.588c.791,0,1.488.236,1.556.527l.973,4.164c.072.307-.531.557-1.346.557" transform="translate(-164.499 -146.565)" fill="#153e5f"/>
          <path id="Trazado_1224244" data-name="Trazado 1224244" d="M404.086,348.9H389.12c-.812,0-1.5-.247-1.543-.552l-.548-4.127c-.038-.289.569-.523,1.357-.523h14.526c.788,0,1.481.234,1.549.523l.965,4.127c.071.3-.529.552-1.341.552" transform="translate(-164.425 -146.015)" fill="#8ab5eb"/>
          <path id="Trazado_1224245" data-name="Trazado 1224245" d="M441.662,350.236H426.63c-.815,0-1.54-.25-1.618-.557l-1.061-4.164c-.074-.292.507-.527,1.3-.527h14.589c.791,0,1.517.236,1.62.527l1.482,4.164c.109.307-.463.557-1.278.557" transform="translate(-180.109 -146.565)" fill="#153e5f"/>
          <path id="Trazado_1224246" data-name="Trazado 1224246" d="M441.247,348.9H426.282c-.812,0-1.533-.247-1.61-.552l-1.051-4.127c-.074-.289.506-.523,1.293-.523H439.44c.787,0,1.509.234,1.612.523l1.468,4.127c.109.3-.461.552-1.273.552" transform="translate(-179.968 -146.015)" fill="#8ab5eb"/>
          <path id="Trazado_1224247" data-name="Trazado 1224247" d="M478.985,350.236H463.953c-.815,0-1.57-.25-1.686-.557l-1.569-4.164c-.11-.292.443-.527,1.234-.527H476.52c.791,0,1.545.236,1.685.527l1.99,4.164c.147.307-.4.557-1.21.557" transform="translate(-195.717 -146.565)" fill="#153e5f"/>
          <path id="Trazado_1224248" data-name="Trazado 1224248" d="M478.406,348.9H463.44c-.812,0-1.563-.247-1.678-.552l-1.555-4.127c-.109-.289.441-.523,1.229-.523h14.526c.788,0,1.539.234,1.677.523l1.972,4.127c.146.3-.394.552-1.206.552" transform="translate(-195.509 -146.015)" fill="#8ab5eb"/>
          <path id="Trazado_1224249" data-name="Trazado 1224249" d="M516.306,350.236H501.273c-.815,0-1.6-.25-1.754-.557l-2.077-4.164c-.146-.292.378-.527,1.169-.527H513.2a2.423,2.423,0,0,1,1.749.527l2.5,4.164c.185.307-.327.557-1.142.557" transform="translate(-211.323 -146.565)" fill="#153e5f"/>
          <path id="Trazado_1224250" data-name="Trazado 1224250" d="M515.563,348.9H500.6c-.812,0-1.593-.247-1.745-.552l-2.059-4.127c-.144-.289.378-.523,1.165-.523h14.526a2.414,2.414,0,0,1,1.74.523l2.476,4.127c.183.3-.327.552-1.138.552" transform="translate(-211.048 -146.015)" fill="#8ab5eb"/>
          <path id="Trazado_1224251" data-name="Trazado 1224251" d="M190.848,328.119H176.917c-.756,0-1.239-.215-1.081-.479l2.15-3.584a2.278,2.278,0,0,1,1.6-.455h13.549c.735,0,1.229.2,1.1.455l-1.788,3.584c-.132.264-.851.479-1.606.479" transform="translate(-74.69 -137.479)" fill="#153e5f"/>
          <path id="Trazado_1224252" data-name="Trazado 1224252" d="M191.491,326.967H177.618c-.753,0-1.235-.213-1.078-.474l2.133-3.555a2.269,2.269,0,0,1,1.6-.451h13.495c.732,0,1.225.2,1.1.451l-1.773,3.555c-.131.262-.847.474-1.6.474" transform="translate(-74.989 -137.006)" fill="#8ab5eb"/>
          <path id="Trazado_1224253" data-name="Trazado 1224253" d="M225.8,328.119H211.87c-.756,0-1.265-.215-1.139-.479l1.713-3.584c.12-.251.813-.455,1.548-.455H227.54c.735,0,1.254.2,1.159.455l-1.35,3.584c-.1.264-.793.479-1.548.479" transform="translate(-89.519 -137.479)" fill="#153e5f"/>
          <path id="Trazado_1224254" data-name="Trazado 1224254" d="M226.3,326.967H212.428c-.753,0-1.261-.213-1.137-.474l1.7-3.555c.119-.25.809-.451,1.541-.451h13.5c.731,0,1.248.2,1.155.451l-1.34,3.555c-.1.262-.788.474-1.54.474" transform="translate(-89.757 -137.006)" fill="#8ab5eb"/>
          <path id="Trazado_1224255" data-name="Trazado 1224255" d="M260.752,328.119H246.822c-.756,0-1.292-.215-1.2-.479l1.275-3.584c.09-.251.758-.455,1.493-.455H261.94c.735,0,1.279.2,1.215.455l-.913,3.584c-.067.264-.734.479-1.49.479" transform="translate(-104.346 -137.479)" fill="#153e5f"/>
          <path id="Trazado_1224256" data-name="Trazado 1224256" d="M261.109,326.967H247.235c-.752,0-1.286-.213-1.193-.474l1.264-3.555c.089-.25.754-.451,1.486-.451h13.495c.732,0,1.273.2,1.21.451l-.9,3.555c-.067.262-.731.474-1.483.474" transform="translate(-104.524 -137.006)" fill="#8ab5eb"/>
          <path id="Trazado_1224257" data-name="Trazado 1224257" d="M295.7,328.119H281.771c-.756,0-1.318-.215-1.256-.479l.837-3.584c.059-.251.7-.455,1.437-.455h13.55c.734,0,1.3.2,1.27.455l-.475,3.584c-.035.264-.676.479-1.432.479" transform="translate(-119.172 -137.479)" fill="#153e5f"/>
          <path id="Trazado_1224258" data-name="Trazado 1224258" d="M295.915,326.967H282.041c-.753,0-1.313-.213-1.252-.474l.831-3.555c.059-.25.7-.451,1.431-.451h13.495c.732,0,1.3.2,1.265.451l-.471,3.555c-.035.262-.673.474-1.425.474" transform="translate(-119.289 -137.006)" fill="#8ab5eb"/>
          <path id="Trazado_1224259" data-name="Trazado 1224259" d="M330.65,328.119H316.719c-.756,0-1.344-.215-1.315-.479l.4-3.584c.028-.251.646-.455,1.381-.455h13.55c.734,0,1.328.2,1.325.455l-.037,3.584c0,.264-.617.479-1.373.479" transform="translate(-133.996 -137.479)" fill="#153e5f"/>
          <path id="Trazado_1224260" data-name="Trazado 1224260" d="M330.718,326.967H316.844c-.752,0-1.338-.213-1.309-.474l.4-3.555c.028-.25.644-.451,1.375-.451H330.8c.732,0,1.323.2,1.321.451l-.037,3.555c0,.262-.615.474-1.367.474" transform="translate(-134.052 -137.006)" fill="#8ab5eb"/>
          <path id="Trazado_1224261" data-name="Trazado 1224261" d="M365.568,328.119H351.637c-.756,0-1.37-.215-1.373-.479l-.037-3.584c0-.251.591-.455,1.325-.455H365.1c.734,0,1.353.2,1.381.455l.4,3.584c.029.264-.559.479-1.315.479" transform="translate(-148.791 -137.479)" fill="#153e5f"/>
          <path id="Trazado_1224262" data-name="Trazado 1224262" d="M365.493,326.967H351.62c-.753,0-1.365-.213-1.368-.474l-.037-3.555c0-.25.588-.451,1.32-.451H365.03c.732,0,1.348.2,1.376.451l.4,3.555c.029.262-.557.474-1.309.474" transform="translate(-148.786 -137.006)" fill="#8ab5eb"/>
          <path id="Trazado_1224263" data-name="Trazado 1224263" d="M400.189,328.119H386.258c-.756,0-1.4-.215-1.432-.479l-.475-3.584c-.033-.251.535-.455,1.27-.455h13.55c.734,0,1.378.2,1.437.455l.837,3.584c.062.264-.5.479-1.256.479" transform="translate(-163.287 -137.479)" fill="#153e5f"/>
          <path id="Trazado_1224264" data-name="Trazado 1224264" d="M399.972,326.967H386.1c-.752,0-1.39-.213-1.425-.474l-.472-3.555c-.033-.25.534-.451,1.265-.451h13.495c.732,0,1.372.2,1.43.451l.831,3.555c.061.262-.5.474-1.252.474" transform="translate(-163.224 -137.006)" fill="#8ab5eb"/>
          <path id="Trazado_1224265" data-name="Trazado 1224265" d="M434.808,328.119H420.877c-.756,0-1.422-.215-1.49-.479l-.913-3.584c-.064-.251.48-.455,1.215-.455h13.549c.734,0,1.4.2,1.493.455l1.275,3.584c.094.264-.442.479-1.2.479" transform="translate(-177.783 -137.479)" fill="#153e5f"/>
          <path id="Trazado_1224266" data-name="Trazado 1224266" d="M434.45,326.967H420.577c-.753,0-1.417-.213-1.483-.474l-.905-3.555c-.064-.25.478-.451,1.21-.451h13.495c.732,0,1.4.2,1.486.451l1.265,3.555c.093.262-.441.474-1.193.474" transform="translate(-177.661 -137.006)" fill="#8ab5eb"/>
          <path id="Trazado_1224267" data-name="Trazado 1224267" d="M469.425,328.119H455.494c-.756,0-1.449-.215-1.548-.479l-1.35-3.584c-.095-.251.424-.455,1.159-.455H467.3c.734,0,1.428.2,1.548.455l1.713,3.584c.126.264-.384.479-1.139.479" transform="translate(-192.276 -137.479)" fill="#153e5f"/>
          <path id="Trazado_1224268" data-name="Trazado 1224268" d="M468.927,326.967H455.053c-.752,0-1.443-.213-1.541-.474l-1.339-3.555c-.094-.25.423-.451,1.155-.451h13.495c.732,0,1.421.2,1.541.451l1.7,3.555c.125.262-.383.474-1.135.474" transform="translate(-192.097 -137.006)" fill="#8ab5eb"/>
          <path id="Trazado_1224269" data-name="Trazado 1224269" d="M504.04,328.119H490.109c-.756,0-1.475-.215-1.606-.479l-1.788-3.584c-.125-.251.369-.455,1.1-.455h13.549a2.279,2.279,0,0,1,1.6.455l2.15,3.584c.158.264-.326.479-1.081.479" transform="translate(-206.768 -137.479)" fill="#153e5f"/>
          <path id="Trazado_1224270" data-name="Trazado 1224270" d="M503.4,326.967H489.528c-.752,0-1.468-.213-1.6-.474l-1.773-3.555c-.125-.25.368-.451,1.1-.451H500.75a2.27,2.27,0,0,1,1.6.451l2.133,3.555c.157.262-.326.474-1.078.474" transform="translate(-206.53 -137.006)" fill="#8ab5eb"/>
          <path id="Trazado_1224271" data-name="Trazado 1224271" d="M171.555,362.642H155.9c-.848,0-1.374-.271-1.174-.6l2.7-4.508a2.5,2.5,0,0,1,1.832-.571h15.171c.822,0,1.362.255,1.2.571l-2.248,4.508c-.166.333-.989.6-1.838.6" transform="translate(-65.717 -151.651)" fill="#153e5f"/>
          <path id="Trazado_1224272" data-name="Trazado 1224272" d="M172.366,361.192H156.787c-.845,0-1.369-.268-1.17-.6l2.68-4.467a2.5,2.5,0,0,1,1.823-.565h15.1c.819,0,1.357.253,1.2.565l-2.229,4.467c-.165.33-.983.6-1.828.6" transform="translate(-66.095 -151.057)" fill="#8ab5eb"/>
          <path id="Trazado_1224273" data-name="Trazado 1224273" d="M210.82,362.642H195.169c-.848,0-1.407-.271-1.248-.6l2.154-4.508c.151-.316.94-.571,1.763-.571h15.17c.823,0,1.394.255,1.275.571l-1.7,4.508c-.125.333-.915.6-1.764.6" transform="translate(-82.374 -151.651)" fill="#153e5f"/>
          <path id="Trazado_1224274" data-name="Trazado 1224274" d="M211.45,361.192H195.871c-.845,0-1.4-.268-1.244-.6l2.135-4.467c.15-.313.934-.565,1.753-.565h15.1c.819,0,1.387.253,1.27.565l-1.683,4.467c-.124.33-.91.6-1.755.6" transform="translate(-82.674 -151.057)" fill="#8ab5eb"/>
          <path id="Trazado_1224275" data-name="Trazado 1224275" d="M250.083,362.642H234.432c-.848,0-1.44-.271-1.322-.6l1.6-4.508c.113-.316.87-.571,1.693-.571h15.171c.823,0,1.425.255,1.344.571l-1.148,4.508c-.085.333-.841.6-1.69.6" transform="translate(-99.028 -151.651)" fill="#153e5f"/>
          <path id="Trazado_1224276" data-name="Trazado 1224276" d="M250.531,361.192H234.953c-.845,0-1.434-.268-1.317-.6l1.589-4.467c.111-.313.865-.565,1.684-.565h15.1c.82,0,1.419.253,1.339.565l-1.138,4.467c-.084.33-.837.6-1.682.6" transform="translate(-99.252 -151.057)" fill="#8ab5eb"/>
          <path id="Trazado_1224277" data-name="Trazado 1224277" d="M289.343,362.642H273.691c-.848,0-1.474-.271-1.4-.6l1.053-4.508c.074-.316.8-.571,1.623-.571h15.171c.823,0,1.456.255,1.414.571l-.6,4.508c-.044.333-.768.6-1.617.6" transform="translate(-115.68 -151.651)" fill="#153e5f"/>
          <path id="Trazado_1224278" data-name="Trazado 1224278" d="M289.609,361.192H274.03c-.845,0-1.467-.268-1.39-.6l1.044-4.467c.073-.313.8-.565,1.615-.565h15.1c.819,0,1.449.253,1.408.565l-.592,4.467c-.044.33-.764.6-1.609.6" transform="translate(-115.826 -151.057)" fill="#8ab5eb"/>
          <path id="Trazado_1224279" data-name="Trazado 1224279" d="M328.6,362.642H312.949c-.848,0-1.506-.271-1.469-.6l.5-4.508c.036-.316.731-.571,1.553-.571h15.171c.822,0,1.487.255,1.483.571l-.047,4.508c0,.333-.694.6-1.543.6" transform="translate(-132.329 -151.651)" fill="#153e5f"/>
          <path id="Trazado_1224280" data-name="Trazado 1224280" d="M328.686,361.192H313.107c-.845,0-1.5-.268-1.463-.6l.5-4.467c.035-.313.727-.565,1.546-.565h15.1c.819,0,1.48.253,1.477.565l-.047,4.467c0,.33-.691.6-1.536.6" transform="translate(-132.398 -151.057)" fill="#8ab5eb"/>
          <path id="Trazado_1224281" data-name="Trazado 1224281" d="M367.819,362.642H352.168c-.848,0-1.54-.271-1.543-.6l-.047-4.508c0-.316.661-.571,1.484-.571h15.17c.823,0,1.518.255,1.553.571l.5,4.508c.037.333-.621.6-1.47.6" transform="translate(-148.94 -151.651)" fill="#153e5f"/>
          <path id="Trazado_1224282" data-name="Trazado 1224282" d="M367.725,361.192H352.146c-.845,0-1.532-.268-1.536-.6l-.047-4.467c0-.313.658-.565,1.477-.565h15.1c.819,0,1.511.253,1.546.565l.5,4.467c.037.33-.618.6-1.463.6" transform="translate(-148.933 -151.057)" fill="#8ab5eb"/>
          <path id="Trazado_1224283" data-name="Trazado 1224283" d="M406.665,362.642H391.014c-.848,0-1.573-.271-1.617-.6l-.6-4.508c-.042-.316.591-.571,1.414-.571h15.171c.822,0,1.549.255,1.623.571l1.054,4.508c.078.333-.547.6-1.4.6" transform="translate(-165.177 -151.651)" fill="#153e5f"/>
          <path id="Trazado_1224284" data-name="Trazado 1224284" d="M406.393,361.192H390.815c-.845,0-1.565-.268-1.609-.6l-.592-4.467c-.041-.313.589-.565,1.408-.565h15.1c.819,0,1.542.253,1.616.565l1.044,4.467c.077.33-.545.6-1.39.6" transform="translate(-165.098 -151.057)" fill="#8ab5eb"/>
          <path id="Trazado_1224285" data-name="Trazado 1224285" d="M445.508,362.642H429.857c-.848,0-1.606-.271-1.69-.6l-1.148-4.508c-.081-.316.522-.571,1.344-.571h15.171c.822,0,1.58.255,1.693.571l1.6,4.508c.118.333-.473.6-1.322.6" transform="translate(-181.412 -151.651)" fill="#153e5f"/>
          <path id="Trazado_1224286" data-name="Trazado 1224286" d="M445.059,361.192H429.48c-.845,0-1.6-.268-1.682-.6l-1.138-4.467c-.08-.313.52-.565,1.339-.565h15.1c.819,0,1.573.253,1.684.565l1.59,4.467c.117.33-.472.6-1.317.6" transform="translate(-181.26 -151.057)" fill="#8ab5eb"/>
          <path id="Trazado_1224287" data-name="Trazado 1224287" d="M484.349,362.642H468.7c-.848,0-1.639-.271-1.764-.6l-1.7-4.508c-.119-.316.452-.571,1.275-.571h15.171c.822,0,1.612.255,1.762.571l2.154,4.508c.159.333-.4.6-1.248.6" transform="translate(-197.644 -151.651)" fill="#153e5f"/>
          <path id="Trazado_1224288" data-name="Trazado 1224288" d="M483.722,361.192H468.143c-.845,0-1.631-.268-1.755-.6l-1.683-4.467c-.117-.313.451-.565,1.27-.565h15.1c.819,0,1.6.253,1.753.565l2.135,4.467c.158.33-.4.6-1.244.6" transform="translate(-197.419 -151.057)" fill="#8ab5eb"/>
          <path id="Trazado_1224289" data-name="Trazado 1224289" d="M523.188,362.642H507.536c-.848,0-1.671-.271-1.838-.6l-2.249-4.508c-.158-.316.382-.571,1.2-.571h15.17a2.506,2.506,0,0,1,1.832.571l2.7,4.508c.2.333-.326.6-1.174.6" transform="translate(-213.874 -151.651)" fill="#153e5f"/>
          <path id="Trazado_1224290" data-name="Trazado 1224290" d="M522.383,361.192H506.8c-.845,0-1.663-.268-1.828-.6l-2.229-4.467c-.156-.313.382-.565,1.2-.565h15.1a2.5,2.5,0,0,1,1.822.565l2.68,4.467c.2.33-.326.6-1.171.6" transform="translate(-213.576 -151.057)" fill="#8ab5eb"/>
          <path id="Trazado_1224291" data-name="Trazado 1224291" d="M353.747,386.067H289.472c-1.568,0-2.745-.546-2.629-1.217l2.188-12.674c.1-.585,1.36-1.056,2.812-1.056h59.532c1.452,0,2.711.471,2.812,1.056l2.189,12.674c.116.671-1.061,1.217-2.629,1.217" transform="translate(-121.859 -157.667)" fill="#8ab5eb"/>
          <path id="Trazado_1224292" data-name="Trazado 1224292" d="M482.764,106.655l-15.726,14.884q-5.252-4.165-10.4-8.3c-9.146-7.343-13.634-16.47-12.9-25.807,1.323-17.424,2.488-34.848,2.876-52.3l3.836-2.882Z" transform="translate(-188.484 -13.7)" fill="#f2a941"/>
          <path id="Trazado_1224293" data-name="Trazado 1224293" d="M513.876,193.5l-3.837,2.875C501.2,189.8,492.648,183.132,484.3,176.5l15.727-14.884Z" transform="translate(-205.752 -68.661)" fill="#153e5f"/>
          <path id="Trazado_1224294" data-name="Trazado 1224294" d="M499.439,11.756c-15.346,3.93-30.67,7.863-46.157,11.788-.384,17.453-1.549,34.879-2.876,52.3-.733,9.339,3.755,18.467,12.9,25.811,11.642,9.337,23.582,18.841,36.133,28.176,12.548-9.335,24.486-18.84,36.125-28.176,9.145-7.343,13.633-16.473,12.9-25.811-1.326-17.421-2.492-34.847-2.876-52.3-15.484-3.925-30.806-7.857-46.149-11.788" transform="translate(-191.318 -4.994)" fill="#fdc563"/>
          <path id="Trazado_1224295" data-name="Trazado 1224295" d="M547.091,80.3c-1.172-15.39-2.309-31.848-2.787-48.538-12.188-3.1-40.933-10.462-40.933-10.462s-28.925,7.41-40.941,10.462c-.478,16.685-1.616,33.148-2.788,48.551-.594,7.566,3.286,15.112,10.925,21.244,10.318,8.276,21.3,17.033,32.8,25.684,11.491-8.643,22.476-17.4,32.794-25.681,7.64-6.135,11.521-13.681,10.926-21.259" transform="translate(-195.249 -9.051)" fill="#4192f2"/>
          <path id="Trazado_1224296" data-name="Trazado 1224296" d="M478.68,109.288c10.318,8.276,21.3,17.033,32.8,25.684,11.491-8.643,22.476-17.4,32.794-25.681,7.64-6.135,11.521-13.681,10.926-21.259-1.172-15.39-2.309-31.848-2.787-48.538Z" transform="translate(-203.363 -16.778)" fill="#307ad1"/>
          <path id="Trazado_1224297" data-name="Trazado 1224297" d="M461.3,67.561c.813-11.6,1.513-23.635,1.862-35.794C475.173,28.712,504.1,21.3,504.1,21.3s28.749,7.364,40.932,10.465c.35,12.159,1.049,24.2,1.854,35.794" transform="translate(-195.977 -9.05)" fill="none" stroke="#153e5f" stroke-linecap="round" stroke-linejoin="round" stroke-width="0.75"/>
          <path id="Trazado_1224298" data-name="Trazado 1224298" d="M539.988,77.337h-4.209V63.066a12.167,12.167,0,0,0-24.334,0V77.337h-4.208V63.066a16.376,16.376,0,1,1,32.752,0Z" transform="translate(-215.494 -19.836)" fill="#326290"/>
          <path id="Trazado_1224299" data-name="Trazado 1224299" d="M557.608,89.353v33.583a1.888,1.888,0,0,1-1.892,1.892h-20V87.461h20a1.893,1.893,0,0,1,1.892,1.892" transform="translate(-227.593 -37.157)" fill="#f2a941"/>
          <path id="Trazado_1224300" data-name="Trazado 1224300" d="M519.535,87.461v37.368h-20.01a1.887,1.887,0,0,1-1.892-1.892V89.353a1.892,1.892,0,0,1,1.892-1.892Z" transform="translate(-211.415 -37.157)" fill="#fdc563"/>
          <path id="Trazado_1224301" data-name="Trazado 1224301" d="M537.365,122.794l-4.383-10.309a5.56,5.56,0,1,0-3.916,0l-4.383,10.309Z" transform="translate(-222.906 -43.217)" fill="#153e5f"/>
          <path id="Trazado_1224302" data-name="Trazado 1224302" d="M161.643,76.138a43.89,43.89,0,1,1-43.89-43.89,43.89,43.89,0,0,1,43.89,43.89" transform="translate(-31.38 -13.7)" fill="#4192f2"/>
          <path id="Trazado_1224303" data-name="Trazado 1224303" d="M190.985,160.891l17.833,6.3-6.3-17.833Z" transform="translate(-81.138 -63.456)" fill="#4192f2"/>
          <circle id="Elipse_13872" data-name="Elipse 13872" cx="33.836" cy="33.836" r="33.836" transform="translate(52.537 28.602)" fill="none" stroke="#fff" stroke-miterlimit="10" stroke-width="1.96"/>
          <path id="Trazado_1224304" data-name="Trazado 1224304" d="M155.118,83.565c0,18.687-8.472,33.836-18.923,33.836s-18.923-15.149-18.923-33.836,8.472-33.836,18.923-33.836S155.118,64.878,155.118,83.565Z" transform="translate(-49.822 -21.127)" fill="none" stroke="#fff" stroke-miterlimit="10" stroke-width="1.96"/>
          <path id="Trazado_1224305" data-name="Trazado 1224305" d="M112.833,63.1a33.865,33.865,0,0,0,42.958,0" transform="translate(-47.936 -26.805)" fill="none" stroke="#fff" stroke-miterlimit="10" stroke-width="1.96"/>
          <path id="Trazado_1224306" data-name="Trazado 1224306" d="M155.791,148.346a33.865,33.865,0,0,0-42.958,0" transform="translate(-47.936 -59.759)" fill="none" stroke="#fff" stroke-miterlimit="10" stroke-width="1.96"/>
          <line id="Línea_2394" data-name="Línea 2394" x2="67.672" transform="translate(52.537 62.438)" fill="none" stroke="#fff" stroke-miterlimit="10" stroke-width="1.96"/>
          <line id="Línea_2395" data-name="Línea 2395" y1="67.672" transform="translate(86.376 28.602)" fill="none" stroke="#fff" stroke-miterlimit="10" stroke-width="1.96"/>
          <path id="Trazado_1224307" data-name="Trazado 1224307" d="M281.091,55.746a22.367,22.367,0,1,1-22.367-22.367,22.367,22.367,0,0,1,22.367,22.367" transform="translate(-100.414 -14.181)" fill="#fff"/>
          <path id="Trazado_1224308" data-name="Trazado 1224308" d="M276.272,85.355a3.931,3.931,0,1,1-3.931-3.931,3.93,3.93,0,0,1,3.931,3.931" transform="translate(-114.031 -34.592)" fill="#326290"/>
          <path id="Trazado_1224309" data-name="Trazado 1224309" d="M279.076,58.126,277.174,60c-2.611-3.676-7.495-5.957-12.755-5.957S254.276,56.328,251.665,60l-1.9-1.878c3.148-4.156,8.718-6.724,14.656-6.724s11.507,2.568,14.656,6.724" transform="translate(-106.11 -21.838)" fill="#326290"/>
          <path id="Trazado_1224310" data-name="Trazado 1224310" d="M278.07,66.389l-1.789,1.77a12.728,12.728,0,0,0-18.034,0l-1.789-1.77a15.251,15.251,0,0,1,21.612,0" transform="translate(-108.954 -26.298)" fill="#326290"/>
          <path id="Trazado_1224311" data-name="Trazado 1224311" d="M277.029,74.761l-1.7,1.681a8.792,8.792,0,0,0-10.287,0l-1.712-1.693a10.7,10.7,0,0,1,6.855-2.351,10.818,10.818,0,0,1,6.848,2.363" transform="translate(-111.872 -30.758)" fill="#326290"/>
          <path id="Trazado_1224312" data-name="Trazado 1224312" d="M558.119,244.907a20.13,20.13,0,1,1-20.13-20.13,20.13,20.13,0,0,1,20.13,20.13" transform="translate(-220.008 -95.494)" fill="#fff"/>
          <path id="Trazado_1224313" data-name="Trazado 1224313" d="M543.136,241.19v21.38l16.794-10.69Z" transform="translate(-230.746 -102.467)" fill="#4192f2"/>
          <path id="Trazado_1224314" data-name="Trazado 1224314" d="M141.744,226.794a24.6,24.6,0,1,1-24.6-24.6,24.6,24.6,0,0,1,24.6,24.6" transform="translate(-39.313 -85.899)" fill="#fff"/>
          <path id="Trazado_1224315" data-name="Trazado 1224315" d="M118.893,241.345a4.9,4.9,0,1,1-4.9-4.9,4.9,4.9,0,0,1,4.9,4.9" transform="translate(-46.344 -100.45)" fill="#fdc563"/>
          <path id="Trazado_1224316" data-name="Trazado 1224316" d="M147.829,223.605a4.9,4.9,0,1,1-4.9-4.9,4.9,4.9,0,0,1,4.9,4.9" transform="translate(-58.637 -92.913)" fill="#fdc563"/>
          <path id="Trazado_1224317" data-name="Trazado 1224317" d="M147.829,259.085a4.9,4.9,0,1,1-4.9-4.9,4.9,4.9,0,0,1,4.9,4.9" transform="translate(-58.637 -107.987)" fill="#fdc563"/>
          <path id="Trazado_1224318" data-name="Trazado 1224318" d="M134.254,227.227l-16.642,10.2,16.642,10.2" transform="translate(-49.966 -96.535)" fill="none" stroke="#fdc563" stroke-miterlimit="10" stroke-width="2.698"/>
        </g>
      </g>
    </g>
  </g>
</svg>
