<svg xmlns="http://www.w3.org/2000/svg" xmlns:xlink="http://www.w3.org/1999/xlink" width="108" height="108" viewBox="0 0 108 108">
  <defs>
    <filter id="Trazado_904820" x="0" y="0" width="108" height="108" filterUnits="userSpaceOnUse">
      <feOffset dy="3" input="SourceAlpha"/>
      <feGaussianBlur stdDeviation="3" result="blur"/>
      <feFlood flood-opacity="0.161"/>
      <feComposite operator="in" in2="blur"/>
      <feComposite in="SourceGraphic"/>
    </filter>
  </defs>
  <g id="Grupo_1234696" data-name="Grupo 1234696" transform="translate(-196 -7611)">
    <g id="Grupo_1234374" data-name="Grupo 1234374" transform="translate(0 3090)">
      <g id="Grupo_1232503" data-name="Grupo 1232503" transform="translate(0 4067)">
        <g id="Grupo_1230499" data-name="Grupo 1230499" transform="translate(1 -357)">
          <g id="Grupo_1228101" data-name="Grupo 1228101" transform="translate(204 817)">
            <g id="Grupo_1227366" data-name="Grupo 1227366">
              <g id="Grupo_1224979" data-name="Grupo 1224979">
                <g id="Grupo_1173585" data-name="Grupo 1173585" transform="translate(0 0)">
                  <g id="Grupo_1173428" data-name="Grupo 1173428">
                    <g id="Grupo_1171958" data-name="Grupo 1171958">
                      <g id="Grupo_1167341" data-name="Grupo 1167341">
                        <g id="Grupo_1166792" data-name="Grupo 1166792">
                          <g transform="matrix(1, 0, 0, 1, -9, -6)" filter="url(#Trazado_904820)">
                            <g id="Trazado_904820-2" data-name="Trazado 904820" transform="translate(9 6)" fill="#f6ecfe">
                              <path d="M 44.99999618530273 88.50003051757812 C 39.12687301635742 88.50003051757812 33.43022155761719 87.35010528564453 28.06829643249512 85.08219146728516 C 22.88852119445801 82.89134216308594 18.23629570007324 79.75461578369141 14.24084663391113 75.75916290283203 C 10.24540901184082 71.76371765136719 7.108683586120605 67.11148834228516 4.917821407318115 61.93171691894531 C 2.649921178817749 56.56978988647461 1.499996185302734 50.87313842773438 1.499996185302734 45.00001525878906 C 1.499996185302734 39.12689208984375 2.649921178817749 33.43024063110352 4.917821407318115 28.06830215454102 C 7.108683586120605 22.88852691650391 10.24540901184082 18.23631477355957 14.24084663391113 14.24086570739746 C 18.23629570007324 10.24541568756104 22.88852119445801 7.10869026184082 28.06829643249512 4.917827606201172 C 33.43022155761719 2.649927854537964 39.12687301635742 1.50000274181366 44.99999618530273 1.50000274181366 C 50.87311935424805 1.50000274181366 56.56977081298828 2.649927854537964 61.93169784545898 4.917827606201172 C 67.11147308349609 7.10869026184082 71.76369476318359 10.24541568756104 75.75914764404297 14.24086570739746 C 79.75458526611328 18.23631477355957 82.89131164550781 22.88852691650391 85.08216857910156 28.06830215454102 C 87.35007476806641 33.43024063110352 88.5 39.12689208984375 88.5 45.00001525878906 C 88.5 50.87313842773438 87.35007476806641 56.56978988647461 85.08216857910156 61.93171691894531 C 82.89131164550781 67.11148834228516 79.75458526611328 71.76371765136719 75.75914764404297 75.75916290283203 C 71.76369476318359 79.75461578369141 67.11147308349609 82.89134216308594 61.93169784545898 85.08219146728516 C 56.56977081298828 87.35010528564453 50.87311935424805 88.50003051757812 44.99999618530273 88.50003051757812 Z" stroke="none"/>
                              <path d="M 44.99999618530273 3 C 39.32870864868164 3 33.82865142822266 4.110061645507812 28.65262603759766 6.299346923828125 C 23.65165710449219 8.414573669433594 19.15968322753906 11.44334411621094 15.301513671875 15.301513671875 C 11.44333648681641 19.15968322753906 8.414566040039062 23.65165710449219 6.299339294433594 28.65262985229492 C 4.110054016113281 33.82867050170898 2.999992370605469 39.32872772216797 2.999992370605469 45.00001525878906 C 2.999992370605469 50.67130279541016 4.110054016113281 56.17136001586914 6.299339294433594 61.34738922119141 C 8.414566040039062 66.34837341308594 11.44333648681641 70.84033203125 15.301513671875 74.69850158691406 C 19.15968322753906 78.55668640136719 23.65165710449219 81.58545684814453 28.65262603759766 83.70068359375 C 33.82865142822266 85.88996887207031 39.32870864868164 87.00003051757812 44.99999618530273 87.00003051757812 C 50.67128372192383 87.00003051757812 56.17134094238281 85.88996887207031 61.34736633300781 83.70068359375 C 66.34834289550781 81.58545684814453 70.84030914306641 78.55668640136719 74.69847869873047 74.69850158691406 C 78.55665588378906 70.84033203125 81.58542633056641 66.34837341308594 83.70065307617188 61.34738922119141 C 85.88993835449219 56.17136001586914 87 50.67130279541016 87 45.00001525878906 C 87 39.32872772216797 85.88993835449219 33.82867050170898 83.70065307617188 28.65262985229492 C 81.58542633056641 23.65165710449219 78.55665588378906 19.15968322753906 74.69847869873047 15.301513671875 C 70.84030914306641 11.44334411621094 66.34834289550781 8.414573669433594 61.34736633300781 6.299346923828125 C 56.17134094238281 4.110061645507812 50.67128372192383 3 44.99999618530273 3 M 44.99999618530273 0 C 69.85281372070312 0 90 20.14718627929688 90 45.00001525878906 C 90 69.85282897949219 69.85281372070312 90.00003051757812 44.99999618530273 90.00003051757812 C 20.14717864990234 90.00003051757812 -7.62939453125e-06 69.85282897949219 -7.62939453125e-06 45.00001525878906 C -7.62939453125e-06 20.14718627929688 20.14717864990234 0 44.99999618530273 0 Z" stroke="none" fill="#aa52f9"/>
                            </g>
                          </g>
                        </g>
                      </g>
                    </g>
                  </g>
                </g>
              </g>
            </g>
          </g>
        </g>
      </g>
    </g>
    <g id="apoyo-tecnico_1_" data-name="apoyo-tecnico (1)" transform="translate(216.641 7628.641)">
      <path id="Trazado_1224553" data-name="Trazado 1224553" d="M398.289,46.221a4.17,4.17,0,1,1-4.17-4.17A4.17,4.17,0,0,1,398.289,46.221Zm0,0" transform="translate(-339.135 -36.572)" fill="#f5737f"/>
      <path id="Trazado_1224554" data-name="Trazado 1224554" d="M66.391,410.119a4.17,4.17,0,1,1-4.17-4.17A4.17,4.17,0,0,1,66.391,410.119Zm0,0" transform="translate(-50.487 -353.05)" fill="#d8ec84"/>
      <path id="Trazado_1224555" data-name="Trazado 1224555" d="M125.27,102.328a19.206,19.206,0,0,0-2.648-6.39l2.5-2.5-5.764-5.759-2.495,2.495a19.206,19.206,0,0,0-6.39-2.648V84h-8.148v3.528a19.2,19.2,0,0,0-6.39,2.648l-2.495-2.495-5.764,5.759,2.5,2.5a19.2,19.2,0,0,0-2.648,6.39H83.985l0,8.148h3.542a19.182,19.182,0,0,0,2.648,6.39l-2.506,2.506,5.76,5.764,2.508-2.508a19.183,19.183,0,0,0,6.39,2.648v3.551h8.148v-3.551a19.192,19.192,0,0,0,6.39-2.648l2.508,2.508,5.759-5.764-2.506-2.506a19.182,19.182,0,0,0,2.648-6.39h3.542v-8.148ZM106.4,115.878a9.464,9.464,0,1,1,9.464-9.464A9.464,9.464,0,0,1,106.4,115.878Zm0,0" transform="translate(-73.037 -73.055)" fill="#91def5"/>
      <path id="Trazado_1224556" data-name="Trazado 1224556" d="M11.734,51.6a5.44,5.44,0,0,0-2.629.671A30.767,30.767,0,0,1,39.484,3.215,1.3,1.3,0,0,0,40,.661,33.608,33.608,0,0,0,33.359,0,33.359,33.359,0,0,0,7.178,54.033,5.475,5.475,0,1,0,11.734,51.6Zm2.027,7.5a2.866,2.866,0,1,1,.84-2.027A2.847,2.847,0,0,1,13.761,59.1Zm0,0" transform="translate(0 0)"/>
      <path id="Trazado_1224557" data-name="Trazado 1224557" d="M231.288,40.558a5.461,5.461,0,1,0-1.926,1.768,30.767,30.767,0,0,1-30.32,49.063,1.3,1.3,0,0,0-.512,2.556,33.63,33.63,0,0,0,6.578.648,33.359,33.359,0,0,0,26.18-54.035Zm-6.582-1.007a2.868,2.868,0,1,1,2.027.839A2.848,2.848,0,0,1,224.707,39.551Zm0,0" transform="translate(-171.75 -27.875)"/>
      <path id="Trazado_1224558" data-name="Trazado 1224558" d="M92.325,120.13a1.3,1.3,0,0,0,1.3,1.3h8.148a1.3,1.3,0,0,0,1.3-1.3V117.6a20.406,20.406,0,0,0,4.891-2.027l1.784,1.784a1.3,1.3,0,0,0,1.843,0l5.759-5.763a1.3,1.3,0,0,0,0-1.843l-1.782-1.782a20.406,20.406,0,0,0,2.027-4.891h2.517a1.3,1.3,0,0,0,1.3-1.3V93.63a1.3,1.3,0,0,0-1.3-1.3H117.6a20.409,20.409,0,0,0-2.026-4.89l1.772-1.772a1.3,1.3,0,0,0,0-1.844l-5.764-5.759a1.3,1.3,0,0,0-1.843,0l-1.769,1.77a20.406,20.406,0,0,0-4.891-2.027V75.3a1.3,1.3,0,0,0-1.3-1.3H93.628a1.3,1.3,0,0,0-1.3,1.3v2.5a20.388,20.388,0,0,0-4.89,2.026l-1.77-1.77a1.3,1.3,0,0,0-1.843,0l-5.763,5.76a1.3,1.3,0,0,0,0,1.843l1.772,1.772a20.4,20.4,0,0,0-2.027,4.89H75.292a1.3,1.3,0,0,0-1.3,1.3l0,8.148a1.3,1.3,0,0,0,1.3,1.3H77.8a20.406,20.406,0,0,0,2.027,4.891l-1.782,1.782a1.3,1.3,0,0,0,0,1.843l5.759,5.763a1.3,1.3,0,0,0,.921.382h0a1.3,1.3,0,0,0,.921-.382l1.783-1.784a20.424,20.424,0,0,0,4.891,2.027Zm-4.38-7.294a1.3,1.3,0,0,0-1.629.173L84.73,114.6l-3.917-3.92L82.4,109.09a1.3,1.3,0,0,0,.173-1.628A17.837,17.837,0,0,1,80.1,101.5a1.3,1.3,0,0,0-1.274-1.029H76.591l0-5.542h2.235A1.3,1.3,0,0,0,80.1,93.9a17.838,17.838,0,0,1,2.468-5.957,1.3,1.3,0,0,0-.173-1.628l-1.575-1.575,3.92-3.917L86.317,82.4a1.3,1.3,0,0,0,1.629.173A17.829,17.829,0,0,1,93.9,80.106a1.3,1.3,0,0,0,1.029-1.274V76.606h5.542v2.225a1.3,1.3,0,0,0,1.029,1.274,17.844,17.844,0,0,1,5.957,2.468,1.3,1.3,0,0,0,1.628-.173l1.574-1.573,3.92,3.917-1.575,1.575a1.3,1.3,0,0,0-.173,1.629A17.849,17.849,0,0,1,115.3,93.9a1.3,1.3,0,0,0,1.274,1.029h2.239v5.542h-2.239A1.3,1.3,0,0,0,115.3,101.5a17.834,17.834,0,0,1-2.468,5.957,1.3,1.3,0,0,0,.173,1.629l1.585,1.585-3.917,3.92-1.587-1.586a1.3,1.3,0,0,0-1.629-.173A17.848,17.848,0,0,1,101.5,115.3a1.3,1.3,0,0,0-1.029,1.274v2.248H94.931v-2.248A1.3,1.3,0,0,0,93.9,115.3a17.838,17.838,0,0,1-5.957-2.468Zm0,0" transform="translate(-64.344 -64.358)"/>
      <path id="Trazado_1224559" data-name="Trazado 1224559" d="M194.906,184.138a10.767,10.767,0,1,0-10.767,10.767A10.779,10.779,0,0,0,194.906,184.138Zm-18.929,0a8.161,8.161,0,1,1,8.161,8.161A8.17,8.17,0,0,1,175.977,184.138Zm0,0" transform="translate(-150.78 -150.78)"/>
      <path id="Trazado_1224560" data-name="Trazado 1224560" d="M339.381,20.416a1.3,1.3,0,1,0-.921-.382A1.313,1.313,0,0,0,339.381,20.416Zm0,0" transform="translate(-294.023 -15.488)"/>
      <path id="Trazado_1224561" data-name="Trazado 1224561" d="M155.662,474.359a1.3,1.3,0,1,0,.921.382A1.313,1.313,0,0,0,155.662,474.359Zm0,0" transform="translate(-134.245 -412.546)"/>
    </g>
  </g>
</svg>
