<svg xmlns="http://www.w3.org/2000/svg" xmlns:xlink="http://www.w3.org/1999/xlink" width="108" height="108" viewBox="0 0 108 108">
  <defs>
    <filter id="Trazado_904820" x="0" y="0" width="108" height="108" filterUnits="userSpaceOnUse">
      <feOffset dy="3" input="SourceAlpha"/>
      <feGaussianBlur stdDeviation="3" result="blur"/>
      <feFlood flood-opacity="0.161"/>
      <feComposite operator="in" in2="blur"/>
      <feComposite in="SourceGraphic"/>
    </filter>
  </defs>
  <g id="Grupo_1234538" data-name="Grupo 1234538" transform="translate(-196 -1847)">
    <g id="Grupo_1234334" data-name="Grupo 1234334" transform="translate(0 -2674)">
      <g id="Grupo_1232503" data-name="Grupo 1232503" transform="translate(0 4067)">
        <g id="Grupo_1230499" data-name="Grupo 1230499" transform="translate(1 -357)">
          <g id="Grupo_1228101" data-name="Grupo 1228101" transform="translate(204 817)">
            <g id="Grupo_1227366" data-name="Grupo 1227366">
              <g id="Grupo_1224979" data-name="Grupo 1224979">
                <g id="Grupo_1173585" data-name="Grupo 1173585" transform="translate(0 0)">
                  <g id="Grupo_1173428" data-name="Grupo 1173428">
                    <g id="Grupo_1171958" data-name="Grupo 1171958">
                      <g id="Grupo_1167341" data-name="Grupo 1167341">
                        <g id="Grupo_1166792" data-name="Grupo 1166792">
                          <g transform="matrix(1, 0, 0, 1, -9, -6)" filter="url(#Trazado_904820)">
                            <g id="Trazado_904820-2" data-name="Trazado 904820" transform="translate(9 6)" fill="#f6ecfe">
                              <path d="M 44.99999618530273 88.50003051757812 C 39.12687301635742 88.50003051757812 33.43022155761719 87.35010528564453 28.06829643249512 85.08219146728516 C 22.88852119445801 82.89134216308594 18.23629570007324 79.75461578369141 14.24084663391113 75.75916290283203 C 10.24540901184082 71.76371765136719 7.108683586120605 67.11148834228516 4.917821407318115 61.93171691894531 C 2.649921178817749 56.56978988647461 1.499996185302734 50.87313842773438 1.499996185302734 45.00001525878906 C 1.499996185302734 39.12689208984375 2.649921178817749 33.43024063110352 4.917821407318115 28.06830215454102 C 7.108683586120605 22.88852691650391 10.24540901184082 18.23631477355957 14.24084663391113 14.24086570739746 C 18.23629570007324 10.24541568756104 22.88852119445801 7.10869026184082 28.06829643249512 4.917827606201172 C 33.43022155761719 2.649927854537964 39.12687301635742 1.50000274181366 44.99999618530273 1.50000274181366 C 50.87311935424805 1.50000274181366 56.56977081298828 2.649927854537964 61.93169784545898 4.917827606201172 C 67.11147308349609 7.10869026184082 71.76369476318359 10.24541568756104 75.75914764404297 14.24086570739746 C 79.75458526611328 18.23631477355957 82.89131164550781 22.88852691650391 85.08216857910156 28.06830215454102 C 87.35007476806641 33.43024063110352 88.5 39.12689208984375 88.5 45.00001525878906 C 88.5 50.87313842773438 87.35007476806641 56.56978988647461 85.08216857910156 61.93171691894531 C 82.89131164550781 67.11148834228516 79.75458526611328 71.76371765136719 75.75914764404297 75.75916290283203 C 71.76369476318359 79.75461578369141 67.11147308349609 82.89134216308594 61.93169784545898 85.08219146728516 C 56.56977081298828 87.35010528564453 50.87311935424805 88.50003051757812 44.99999618530273 88.50003051757812 Z" stroke="none"/>
                              <path d="M 44.99999618530273 3 C 39.32870864868164 3 33.82865142822266 4.110061645507812 28.65262603759766 6.299346923828125 C 23.65165710449219 8.414573669433594 19.15968322753906 11.44334411621094 15.301513671875 15.301513671875 C 11.44333648681641 19.15968322753906 8.414566040039062 23.65165710449219 6.299339294433594 28.65262985229492 C 4.110054016113281 33.82867050170898 2.999992370605469 39.32872772216797 2.999992370605469 45.00001525878906 C 2.999992370605469 50.67130279541016 4.110054016113281 56.17136001586914 6.299339294433594 61.34738922119141 C 8.414566040039062 66.34837341308594 11.44333648681641 70.84033203125 15.301513671875 74.69850158691406 C 19.15968322753906 78.55668640136719 23.65165710449219 81.58545684814453 28.65262603759766 83.70068359375 C 33.82865142822266 85.88996887207031 39.32870864868164 87.00003051757812 44.99999618530273 87.00003051757812 C 50.67128372192383 87.00003051757812 56.17134094238281 85.88996887207031 61.34736633300781 83.70068359375 C 66.34834289550781 81.58545684814453 70.84030914306641 78.55668640136719 74.69847869873047 74.69850158691406 C 78.55665588378906 70.84033203125 81.58542633056641 66.34837341308594 83.70065307617188 61.34738922119141 C 85.88993835449219 56.17136001586914 87 50.67130279541016 87 45.00001525878906 C 87 39.32872772216797 85.88993835449219 33.82867050170898 83.70065307617188 28.65262985229492 C 81.58542633056641 23.65165710449219 78.55665588378906 19.15968322753906 74.69847869873047 15.301513671875 C 70.84030914306641 11.44334411621094 66.34834289550781 8.414573669433594 61.34736633300781 6.299346923828125 C 56.17134094238281 4.110061645507812 50.67128372192383 3 44.99999618530273 3 M 44.99999618530273 0 C 69.85281372070312 0 90 20.14718627929688 90 45.00001525878906 C 90 69.85282897949219 69.85281372070312 90.00003051757812 44.99999618530273 90.00003051757812 C 20.14717864990234 90.00003051757812 -7.62939453125e-06 69.85282897949219 -7.62939453125e-06 45.00001525878906 C -7.62939453125e-06 20.14718627929688 20.14717864990234 0 44.99999618530273 0 Z" stroke="none" fill="#aa52f9"/>
                            </g>
                          </g>
                        </g>
                      </g>
                    </g>
                  </g>
                </g>
              </g>
            </g>
          </g>
        </g>
      </g>
    </g>
    <g id="contrasena_1_" data-name="contrasena (1)" transform="translate(221.049 1867.519)">
      <g id="Grupo_1234537" data-name="Grupo 1234537">
        <g id="filled_outline_25_">
          <path id="Trazado_1223842" data-name="Trazado 1223842" d="M81.87,206.9h-38.6a3.86,3.86,0,0,0-3.86,3.86v32.811H85.73V210.761A3.86,3.86,0,0,0,81.87,206.9Z" transform="translate(-35.549 -186.636)" fill="#c7cacc"/>
          <path id="Trazado_1223843" data-name="Trazado 1223843" d="M117.42,277.192V248.241a1.93,1.93,0,0,0-1.93-1.93H80.749a1.93,1.93,0,0,0-1.93,1.93v28.951Z" transform="translate(-71.099 -222.185)" fill="#4398d1"/>
          <path id="Trazado_1223844" data-name="Trazado 1223844" d="M152.97,277.192V248.241a1.93,1.93,0,0,0-1.93-1.93h-1.93l-30.881,30.881Z" transform="translate(-106.649 -222.185)" fill="#3e8cc7"/>
          <rect id="Rectángulo_423613" data-name="Rectángulo 423613" width="27.021" height="7.72" transform="translate(13.51 35.706)" fill="#87ced9"/>
          <rect id="Rectángulo_423614" data-name="Rectángulo 423614" width="1.93" height="1.93" transform="translate(16.405 38.601)" fill="#126099"/>
          <rect id="Rectángulo_423615" data-name="Rectángulo 423615" width="1.93" height="1.93" transform="translate(20.265 38.601)" fill="#126099"/>
          <rect id="Rectángulo_423616" data-name="Rectángulo 423616" width="1.93" height="1.93" transform="translate(24.125 38.601)" fill="#126099"/>
          <rect id="Rectángulo_423617" data-name="Rectángulo 423617" width="1.93" height="1.93" transform="translate(27.985 38.601)" fill="#126099"/>
          <path id="Trazado_1223845" data-name="Trazado 1223845" d="M307.706,157.639h22.46a2.28,2.28,0,0,1,2.28,2.28v11.845a2.28,2.28,0,0,1-2.28,2.28h-22.46a2.28,2.28,0,0,1-2.28-2.28V159.919A2.28,2.28,0,0,1,307.706,157.639Z" transform="translate(-275.51 -142.199)" fill="#fdb62f"/>
          <path id="Trazado_1223846" data-name="Trazado 1223846" d="M345.6,9.852a10.615,10.615,0,0,0-10.615,10.615v3.86h3.86v-3.86a6.755,6.755,0,1,1,13.51,0v3.86h3.86v-3.86A10.615,10.615,0,0,0,345.6,9.852Z" transform="translate(-302.171 -8.887)" fill="#dadddf"/>
          <rect id="Rectángulo_423618" data-name="Rectángulo 423618" width="1.93" height="1.93" transform="translate(17.37 15.44)" fill="#87ced9"/>
          <rect id="Rectángulo_423619" data-name="Rectángulo 423619" width="1.93" height="1.93" transform="translate(17.37 11.58)" fill="#87ced9"/>
          <rect id="Rectángulo_423620" data-name="Rectángulo 423620" width="1.93" height="1.93" transform="translate(17.37 7.72)" fill="#87ced9"/>
          <rect id="Rectángulo_423621" data-name="Rectángulo 423621" width="1.93" height="1.93" transform="translate(17.37 3.86)" fill="#87ced9"/>
          <rect id="Rectángulo_423622" data-name="Rectángulo 423622" width="1.93" height="1.93" transform="translate(21.23 3.86)" fill="#87ced9"/>
          <rect id="Rectángulo_423623" data-name="Rectángulo 423623" width="1.93" height="1.93" transform="translate(25.09 3.86)" fill="#87ced9"/>
          <rect id="Rectángulo_423624" data-name="Rectángulo 423624" width="1.93" height="1.93" transform="translate(28.951 3.86)" fill="#87ced9"/>
          <path id="Trazado_1223847" data-name="Trazado 1223847" d="M59.069,527.969H12.748a2.9,2.9,0,0,1-2.9-2.9h0v-2.9H30.118a1.745,1.745,0,0,1,1.561.965h0a1.745,1.745,0,0,0,1.561.965H38.8a1.745,1.745,0,0,0,1.561-.965h0a1.745,1.745,0,0,1,1.561-.965H61.964v2.9a2.9,2.9,0,0,1-2.9,2.9Z" transform="translate(-8.888 -471.033)" fill="#dadddf"/>
          <path id="Trazado_1223848" data-name="Trazado 1223848" d="M340.031,159.018c-6.544,9.747-17.231,14.022-24.5,15.869a2.272,2.272,0,0,0,1.29.4h22.46a2.28,2.28,0,0,0,2.28-2.28V161.163A2.274,2.274,0,0,0,340.031,159.018Z" transform="translate(-284.628 -143.443)" fill="#ffa230"/>
          <path id="Trazado_1223849" data-name="Trazado 1223849" d="M427.514,218.6a1.93,1.93,0,1,0-2.9,1.663v3.162h1.93v-3.162A1.924,1.924,0,0,0,427.514,218.6Z" transform="translate(-382.158 -195.442)" fill="#556575"/>
          <rect id="Rectángulo_423625" data-name="Rectángulo 423625" width="3.86" height="1.93" transform="translate(32.811 13.51)" fill="#c7cacc"/>
          <rect id="Rectángulo_423626" data-name="Rectángulo 423626" width="3.86" height="1.93" transform="translate(50.181 13.51)" fill="#c7cacc"/>
          <rect id="Rectángulo_423627" data-name="Rectángulo 423627" width="27.021" height="1.93" transform="translate(13.51 35.706)" fill="#71c4d1"/>
          <path id="Trazado_1223850" data-name="Trazado 1223850" d="M3.86,235.65H50.181a3.86,3.86,0,0,0,3.86-3.86v-2.9a.965.965,0,0,0-.965-.965h-1.93v-15.44h-1.93v15.44h-1.93v-15.44h-1.93v15.44H33.038a2.7,2.7,0,0,0-2.424,1.5.773.773,0,0,1-.7.431H24.353a.772.772,0,0,1-.7-.431,2.7,2.7,0,0,0-2.425-1.5H8.685V203.8a.965.965,0,0,1,.965-.965h17.37v-1.93H9.65a2.9,2.9,0,0,0-2.9,2.9V227.93H4.825V201.874a2.9,2.9,0,0,1,2.9-2.9h19.3v-1.93H7.72A4.83,4.83,0,0,0,2.9,201.874V227.93H.965a.965.965,0,0,0-.965.965v2.9A3.86,3.86,0,0,0,3.86,235.65Zm-1.93-5.79h19.3a.778.778,0,0,1,.7.43,2.693,2.693,0,0,0,2.424,1.5h5.562a2.7,2.7,0,0,0,2.425-1.5.772.772,0,0,1,.7-.43H52.111v1.93a1.929,1.929,0,0,1-1.93,1.93H3.86a1.929,1.929,0,0,1-1.93-1.93Z" transform="translate(0 -177.749)"/>
          <path id="Trazado_1223851" data-name="Trazado 1223851" d="M128.082,355.653v7.72a.965.965,0,0,0,.965.965h27.021a.965.965,0,0,0,.965-.965v-7.72a.965.965,0,0,0-.965-.965H129.047A.965.965,0,0,0,128.082,355.653Zm1.93.965H155.1v5.79H130.012Z" transform="translate(-115.537 -319.947)"/>
          <rect id="Rectángulo_423628" data-name="Rectángulo 423628" width="1.93" height="1.93" transform="translate(16.405 38.601)"/>
          <rect id="Rectángulo_423629" data-name="Rectángulo 423629" width="1.93" height="1.93" transform="translate(20.265 38.601)"/>
          <rect id="Rectángulo_423630" data-name="Rectángulo 423630" width="1.93" height="1.93" transform="translate(24.125 38.601)"/>
          <rect id="Rectángulo_423631" data-name="Rectángulo 423631" width="1.93" height="1.93" transform="translate(27.985 38.601)"/>
          <path id="Trazado_1223852" data-name="Trazado 1223852" d="M321.629,14.511V11.58a11.58,11.58,0,0,0-23.161,0v2.931a3.238,3.238,0,0,0-2.9,3.209V29.566a3.249,3.249,0,0,0,3.245,3.244h22.46a3.249,3.249,0,0,0,3.245-3.244V17.72A3.238,3.238,0,0,0,321.629,14.511ZM300.4,11.58a9.65,9.65,0,1,1,19.3,0v2.9h-1.93v-2.9a7.72,7.72,0,1,0-15.44,0v2.9H300.4Zm3.86,2.9v-2.9a5.79,5.79,0,1,1,11.58,0v2.9Zm18.335,15.091a1.317,1.317,0,0,1-1.315,1.314h-22.46a1.317,1.317,0,0,1-1.315-1.314V17.72a1.317,1.317,0,0,1,1.315-1.314h22.46a1.317,1.317,0,0,1,1.315,1.314V29.566Z" transform="translate(-266.622)"/>
          <path id="Trazado_1223853" data-name="Trazado 1223853" d="M416.706,206.9a2.888,2.888,0,0,0-.965,5.613v2.108h1.93v-2.108a2.888,2.888,0,0,0-.965-5.613Zm0,3.86a.965.965,0,1,1,.965-.965A.965.965,0,0,1,416.706,210.761Z" transform="translate(-373.28 -186.636)"/>
          <rect id="Rectángulo_423632" data-name="Rectángulo 423632" width="1.93" height="1.93" transform="translate(17.37 15.44)"/>
          <rect id="Rectángulo_423633" data-name="Rectángulo 423633" width="1.93" height="1.93" transform="translate(17.37 11.58)"/>
          <rect id="Rectángulo_423634" data-name="Rectángulo 423634" width="1.93" height="1.93" transform="translate(17.37 7.72)"/>
          <rect id="Rectángulo_423635" data-name="Rectángulo 423635" width="1.93" height="1.93" transform="translate(17.37 3.86)"/>
          <rect id="Rectángulo_423636" data-name="Rectángulo 423636" width="1.93" height="1.93" transform="translate(21.23 3.86)"/>
          <rect id="Rectángulo_423637" data-name="Rectángulo 423637" width="1.93" height="1.93" transform="translate(25.09 3.86)"/>
          <rect id="Rectángulo_423638" data-name="Rectángulo 423638" width="1.93" height="1.93" transform="translate(28.951 3.86)"/>
        </g>
      </g>
    </g>
  </g>
</svg>
