<svg xmlns="http://www.w3.org/2000/svg" xmlns:xlink="http://www.w3.org/1999/xlink" width="400" height="411" viewBox="0 0 400 411">
  <defs>
    <clipPath id="clip-path">
      <rect id="Rectángulo_423467" data-name="Rectángulo 423467" width="400" height="411" transform="translate(180 8145)" fill="#fff" stroke="#707070" stroke-width="1"/>
    </clipPath>
  </defs>
  <g id="Grupo_1233917" data-name="Grupo 1233917" transform="translate(-180 -8145)">
    <rect id="Rectángulo_423473" data-name="Rectángulo 423473" width="240" height="381" transform="translate(271 8145)" fill="#e5fdfa"/>
    <g id="Enmascarar_grupo_1208523" data-name="Enmascarar grupo 1208523" clip-path="url(#clip-path)">
      <g id="OBJECTS" transform="translate(176.018 8171.842)">
        <path id="Trazado_1222940" data-name="Trazado 1222940" d="M340.3,111.589a1.945,1.945,0,1,1-1.945-1.945A1.945,1.945,0,0,1,340.3,111.589Z" transform="translate(-61.287 -14.547)" fill="none" stroke="#2d1a14" stroke-miterlimit="10" stroke-width="0.537"/>
        <path id="Trazado_1222941" data-name="Trazado 1222941" d="M308.891,83.4a1.945,1.945,0,1,1-1.945-1.945A1.945,1.945,0,0,1,308.891,83.4Z" transform="translate(-55.152 -9.04)" fill="none" stroke="#2d1a14" stroke-miterlimit="10" stroke-width="0.537"/>
        <path id="Trazado_1222942" data-name="Trazado 1222942" d="M469.177,275.9a1.945,1.945,0,1,1-1.945-1.945A1.945,1.945,0,0,1,469.177,275.9Z" transform="translate(-86.459 -46.641)" fill="none" stroke="#2d1a14" stroke-miterlimit="10" stroke-width="0.537"/>
        <path id="Trazado_1222943" data-name="Trazado 1222943" d="M389.436,208.244a1.945,1.945,0,1,1-1.945-1.945A1.945,1.945,0,0,1,389.436,208.244Z" transform="translate(-70.884 -33.426)" fill="none" stroke="#2d1a14" stroke-miterlimit="10" stroke-width="0.537"/>
        <path id="Trazado_1222944" data-name="Trazado 1222944" d="M119.2,85.272a1.945,1.945,0,1,1-1.945-1.945A1.945,1.945,0,0,1,119.2,85.272Z" transform="translate(-18.101 -9.407)" fill="none" stroke="#2d1a14" stroke-miterlimit="10" stroke-width="0.537"/>
        <path id="Trazado_1222945" data-name="Trazado 1222945" d="M186.325,130.38a1.945,1.945,0,1,1-1.945-1.945A1.945,1.945,0,0,1,186.325,130.38Z" transform="translate(-31.212 -18.217)" fill="none" stroke="#2d1a14" stroke-miterlimit="10" stroke-width="0.537"/>
        <path id="Trazado_1222946" data-name="Trazado 1222946" d="M258.973,63.945A1.945,1.945,0,1,1,257.028,62,1.945,1.945,0,0,1,258.973,63.945Z" transform="translate(-45.402 -5.241)" fill="none" stroke="#2d1a14" stroke-miterlimit="10" stroke-width="0.537"/>
        <path id="Trazado_1222947" data-name="Trazado 1222947" d="M145.7,139.774a1.945,1.945,0,1,1-1.945-1.945A1.945,1.945,0,0,1,145.7,139.774Z" transform="translate(-23.277 -20.052)" fill="none" stroke="#2d1a14" stroke-miterlimit="10" stroke-width="0.537"/>
        <path id="Trazado_1222948" data-name="Trazado 1222948" d="M31.812,216.3a1.945,1.945,0,1,1-1.945-1.945A1.945,1.945,0,0,1,31.812,216.3Z" transform="translate(-1.032 -34.999)" fill="none" stroke="#2d1a14" stroke-miterlimit="10" stroke-width="0.537"/>
        <path id="Trazado_1222949" data-name="Trazado 1222949" d="M135.31,187.3a1.945,1.945,0,1,1-1.945-1.945A1.945,1.945,0,0,1,135.31,187.3Z" transform="translate(-21.248 -29.335)" fill="none" stroke="#2d1a14" stroke-miterlimit="10" stroke-width="0.537"/>
        <path id="Trazado_1222950" data-name="Trazado 1222950" d="M93.833,391.083a1.945,1.945,0,1,1-1.945-1.945A1.945,1.945,0,0,1,93.833,391.083Z" transform="translate(-13.146 -69.138)" fill="none" stroke="#2d1a14" stroke-miterlimit="10" stroke-width="0.537"/>
        <path id="Trazado_1222951" data-name="Trazado 1222951" d="M465.955,421.691a1.945,1.945,0,1,1-1.945-1.945A1.945,1.945,0,0,1,465.955,421.691Z" transform="translate(-85.83 -75.117)" fill="none" stroke="#2d1a14" stroke-miterlimit="10" stroke-width="0.537"/>
        <path id="Trazado_1222952" data-name="Trazado 1222952" d="M383.392,447.467H24.572a1.934,1.934,0,0,1-1.934-1.934v-1.246a1.934,1.934,0,0,1,1.934-1.934h358.82a1.934,1.934,0,0,1,1.934,1.934v1.246A1.933,1.933,0,0,1,383.392,447.467Z" transform="translate(0 -79.533)" fill="#bfb8ff"/>
        <path id="Trazado_1222953" data-name="Trazado 1222953" d="M74.666,242.363a5.186,5.186,0,1,1-5.186-5.186A5.186,5.186,0,0,1,74.666,242.363Z" transform="translate(-8.136 -39.457)" fill="none" stroke="#2d1a14" stroke-miterlimit="10" stroke-width="0.537"/>
        <path id="Trazado_1222954" data-name="Trazado 1222954" d="M448.274,407.211a5.186,5.186,0,1,1-5.186-5.186A5.186,5.186,0,0,1,448.274,407.211Z" transform="translate(-81.11 -71.655)" fill="none" stroke="#2d1a14" stroke-miterlimit="10" stroke-width="0.537"/>
        <path id="Trazado_1222955" data-name="Trazado 1222955" d="M69.705,399.156a5.186,5.186,0,1,1-5.186-5.186A5.186,5.186,0,0,1,69.705,399.156Z" transform="translate(-7.167 -70.082)" fill="none" stroke="#2d1a14" stroke-miterlimit="10" stroke-width="0.537"/>
        <path id="Trazado_1222956" data-name="Trazado 1222956" d="M460.355,227.593a5.186,5.186,0,1,1-5.186-5.186A5.186,5.186,0,0,1,460.355,227.593Z" transform="translate(-83.47 -36.572)" fill="none" stroke="#2d1a14" stroke-miterlimit="10" stroke-width="0.537"/>
        <path id="Trazado_1222957" data-name="Trazado 1222957" d="M180.86,102.748a5.186,5.186,0,1,1-5.186-5.186A5.186,5.186,0,0,1,180.86,102.748Z" transform="translate(-28.878 -12.187)" fill="none" stroke="#2d1a14" stroke-miterlimit="10" stroke-width="0.537"/>
        <path id="Trazado_1222958" data-name="Trazado 1222958" d="M336.481,405.585H131.47a15.846,15.846,0,0,1-15.846-15.846V269.135a15.845,15.845,0,0,1,15.846-15.846H336.482a15.845,15.845,0,0,1,15.846,15.846V389.74A15.847,15.847,0,0,1,336.481,405.585Z" transform="translate(-18.162 -42.604)" fill="#2d1a14"/>
        <rect id="Rectángulo_423469" data-name="Rectángulo 423469" width="219.978" height="131.524" transform="translate(105.976 220.809)" fill="#7171ea"/>
        <path id="Trazado_1222959" data-name="Trazado 1222959" d="M267.852,382.924c-2.632-15.24-2.855-32.955,6.544-46.1a38.534,38.534,0,0,1,19.047-13.841c11.147-3.861,21.369-1.62,31.712,3.457,5.318,2.61,10.413,5.663,15.8,8.13a44.354,44.354,0,0,0,5.227,1.99V265.871H226.4c-4.311,8.616-6.267,19.307-8.584,27.241-1.863,6.379-3.919,12.932-7.369,18.661a78.355,78.355,0,0,1-15.722,18.574c-11.6,10.03-25.813,15.785-40.967,17.608a110.627,110.627,0,0,1-27.548-.315v49.755H271.181A137.225,137.225,0,0,1,267.852,382.924Z" transform="translate(-20.229 -45.062)" fill="#fff" opacity="0.31"/>
        <g id="Grupo_1233896" data-name="Grupo 1233896" transform="translate(76.036 347.77)">
          <path id="Trazado_1222960" data-name="Trazado 1222960" d="M352.072,439.532H98.653c-5.31,0-9.655-3.574-9.655-7.941h0c0-4.368,4.344-7.941,9.655-7.941h253.42c5.31,0,9.655,3.574,9.655,7.941h0C361.727,435.958,357.382,439.532,352.072,439.532Z" transform="translate(-88.998 -423.649)" fill="#bfb8ff"/>
          <path id="Trazado_1222961" data-name="Trazado 1222961" d="M352.072,439.532H98.653c-5.31,0-9.655-3.574-9.655-7.941h0c0-4.368,4.344-7.941,9.655-7.941h253.42c5.31,0,9.655,3.574,9.655,7.941h0C361.727,435.958,357.382,439.532,352.072,439.532Z" transform="translate(-88.998 -423.649)" fill="#2d1a14" opacity="0.33"/>
        </g>
        <path id="Trazado_1222962" data-name="Trazado 1222962" d="M173.014,435.158H105.53a2.577,2.577,0,0,1-2.57-2.57h0a2.577,2.577,0,0,1,2.57-2.57h67.484a2.577,2.577,0,0,1,2.57,2.57h0A2.578,2.578,0,0,1,173.014,435.158Z" transform="translate(-15.689 -77.123)" fill="none" stroke="#2d1a14" stroke-miterlimit="10" stroke-width="0.682"/>
        <g id="Grupo_1233897" data-name="Grupo 1233897" transform="translate(288.434 352.849)">
          <circle id="Elipse_13813" data-name="Elipse 13813" cx="3.781" cy="3.781" r="3.781" fill="#2d1a14"/>
          <circle id="Elipse_13814" data-name="Elipse 13814" cx="3.781" cy="3.781" r="3.781" transform="translate(17.284)" fill="#2d1a14"/>
          <circle id="Elipse_13815" data-name="Elipse 13815" cx="3.781" cy="3.781" r="3.781" transform="translate(33.019)" fill="#2d1a14"/>
        </g>
        <g id="Grupo_1233899" data-name="Grupo 1233899" transform="translate(133.19 81.487)">
          <g id="Grupo_1233898" data-name="Grupo 1233898" transform="translate(0 0)">
            <path id="Trazado_1222963" data-name="Trazado 1222963" d="M319.842,149.286s-40.5-17.774-37.266-42.959c0,0-22.142-13.05-41.939-13.585V92.73l-.19.006-.19-.006v.013c-19.8.534-39.1,11.3-39.1,11.3,3.235,25.185-40.107,45.241-40.107,45.241C149.836,251.4,234,308.435,240.257,312.522v.246l.19-.122.19.122v-.246C246.89,308.435,331.057,251.4,319.842,149.286Z" transform="translate(-160.024 -92.73)" fill="#ffbd51"/>
            <path id="Trazado_1222964" data-name="Trazado 1222964" d="M338.692,149.286s-40.5-17.774-37.266-42.959c0,0-22.142-13.05-41.939-13.585V92.73l-.19.006-.19-.006v.013q-1.289.035-2.575.127V310.765c1.232.869,2.115,1.457,2.575,1.758v.246l.19-.122.19.122v-.246C265.74,308.435,349.907,251.4,338.692,149.286Z" transform="translate(-178.874 -92.73)" fill="#ffcc83"/>
            <path id="Trazado_1222965" data-name="Trazado 1222965" d="M311.134,160.946s-45.34-19.634-42.576-41.157c0,0-8.192-6.706-25.11-7.162v-.011l-.163.006c-.055,0-.107,0-.163-.006v.011c-16.918.456-25.11,7.162-25.11,7.162,2.765,21.522-42.576,41.157-42.576,41.157-9.584,87.262,62.342,136,67.685,139.495v.21l.163-.1.163.1v-.21C248.792,296.948,320.718,248.207,311.134,160.946Z" transform="translate(-162.863 -96.614)" fill="#f7a539"/>
            <path id="Trazado_1222966" data-name="Trazado 1222966" d="M300.4,175.322s-35.826-15.514-33.641-32.52c0,0-6.473-5.3-19.841-5.66v-.009l-.129,0-.129,0v.009c-13.367.361-19.84,5.66-19.84,5.66,2.185,17.006-33.641,32.52-33.641,32.52-7.573,68.95,49.259,107.462,53.482,110.222v.166l.129-.083.129.083v-.166C251.137,282.785,307.969,244.272,300.4,175.322Z" transform="translate(-166.364 -101.403)" fill="#ffbd51"/>
            <path id="Trazado_1222967" data-name="Trazado 1222967" d="M312.951,175.322S277.125,159.808,279.31,142.8c0,0-6.473-5.3-19.841-5.66v-.009l-.129,0-.128,0v.009q-1.27.035-2.455.126V283.847c1.211.872,2.062,1.441,2.455,1.7v.167l.128-.083.129.083v-.167C263.692,282.785,320.524,244.272,312.951,175.322Z" transform="translate(-178.918 -101.403)" fill="#ffcc83"/>
          </g>
        </g>
        <g id="Grupo_1233900" data-name="Grupo 1233900" transform="translate(181.795 132.041)">
          <path id="Trazado_1222968" data-name="Trazado 1222968" d="M274.844,261.1h-46.61a7.806,7.806,0,0,1-7.805-7.805V209.272a7.806,7.806,0,0,1,7.805-7.805h46.61a7.806,7.806,0,0,1,7.805,7.805V253.29A7.806,7.806,0,0,1,274.844,261.1Z" transform="translate(-220.428 -164.523)" fill="#fff"/>
          <path id="Trazado_1222969" data-name="Trazado 1222969" d="M255.127,233.332h0a13.08,13.08,0,0,1-13.042-13.042V168.6a13.08,13.08,0,0,1,13.042-13.042h0A13.08,13.08,0,0,1,268.169,168.6V220.29A13.081,13.081,0,0,1,255.127,233.332Z" transform="translate(-224.658 -155.556)" fill="none" stroke="#fff" stroke-linecap="round" stroke-linejoin="round" stroke-miterlimit="10" stroke-width="7.787"/>
        </g>
        <g id="Grupo_1233901" data-name="Grupo 1233901" transform="translate(202.068 186.048)">
          <circle id="Elipse_13816" data-name="Elipse 13816" cx="7.481" cy="7.481" r="7.481" transform="translate(0 6.015) rotate(-23.704)" fill="#2d1a14"/>
          <path id="Trazado_1222970" data-name="Trazado 1222970" d="M256.018,237.3l3.839,6.649,3.838,6.649H248.341l3.838-6.649Z" transform="translate(-246.152 -225.528)" fill="#2d1a14"/>
        </g>
        <g id="Grupo_1233902" data-name="Grupo 1233902" transform="translate(284.85 48.142)">
          <path id="Trazado_1222971" data-name="Trazado 1222971" d="M396.6,96.048c-13.024,13.276-48.1,9.293-48.1,9.293,5.92,41.6,48.1,60.628,48.1,60.628s43.067-19.029,48.987-60.628C445.583,105.341,409.619,109.324,396.6,96.048Z" transform="translate(-348.497 -60.034)" fill="#a595fa"/>
          <path id="Trazado_1222972" data-name="Trazado 1222972" d="M397.252,66.363c-12.983,16.314-46.621,11.42-46.621,11.42,5.9,51.118,46.621,74.5,46.621,74.5s41.608-23.384,47.509-74.5C444.762,77.783,410.236,82.677,397.252,66.363Z" transform="translate(-348.914 -54.236)" fill="#7171ea"/>
          <path id="Trazado_1222973" data-name="Trazado 1222973" d="M398.046,51.292c-11.715,16.314-42.066,11.42-42.066,11.42,5.325,51.118,42.066,74.5,42.066,74.5s36.742-23.384,42.067-74.5C440.112,62.711,409.761,67.606,398.046,51.292Z" transform="translate(-349.959 -51.292)" fill="#8ddae2"/>
          <text id="SSL" transform="translate(24.673 46.03) rotate(0.544)" fill="#fff" font-size="21" font-family="Montserrat-ExtraBold, Montserrat" font-weight="800"><tspan x="0" y="0">SSL</tspan></text>
        </g>
        <g id="Grupo_1233904" data-name="Grupo 1233904" transform="translate(46.123 237.321)">
          <path id="Trazado_1222974" data-name="Trazado 1222974" d="M143.7,365.136H56.582a4.759,4.759,0,0,1-4.759-4.759V291.15a4.759,4.759,0,0,1,4.759-4.759H143.7a4.759,4.759,0,0,1,4.76,4.759v69.227A4.759,4.759,0,0,1,143.7,365.136Z" transform="translate(-51.823 -286.391)" fill="#8ddae2"/>
          <g id="Grupo_1233903" data-name="Grupo 1233903" transform="translate(9.028 7.496)">
            <circle id="Elipse_13817" data-name="Elipse 13817" cx="9.427" cy="9.427" r="9.427" transform="translate(8.039 7.215) rotate(-22.5)" fill="#fff"/>
            <path id="Trazado_1222975" data-name="Trazado 1222975" d="M103.3,333.592a21.7,21.7,0,0,0-40.261,0Z" transform="translate(-63.043 -300.452)" fill="#fff"/>
          </g>
          <path id="Trazado_1222976" data-name="Trazado 1222976" d="M151.2,309.417H118.144a1.626,1.626,0,0,1-1.621-1.621h0a1.626,1.626,0,0,1,1.621-1.621H151.2a1.625,1.625,0,0,1,1.621,1.621h0A1.626,1.626,0,0,1,151.2,309.417Z" transform="translate(-64.46 -290.255)" fill="#fff"/>
          <path id="Trazado_1222977" data-name="Trazado 1222977" d="M151.2,323.378H118.144a1.626,1.626,0,0,1-1.621-1.621h0a1.625,1.625,0,0,1,1.621-1.621H151.2a1.625,1.625,0,0,1,1.621,1.621h0A1.626,1.626,0,0,1,151.2,323.378Z" transform="translate(-64.46 -292.982)" fill="#fff"/>
          <path id="Trazado_1222978" data-name="Trazado 1222978" d="M151.2,336.624H118.144A1.626,1.626,0,0,1,116.523,335h0a1.625,1.625,0,0,1,1.621-1.621H151.2A1.625,1.625,0,0,1,152.82,335h0A1.626,1.626,0,0,1,151.2,336.624Z" transform="translate(-64.46 -295.569)" fill="#fff"/>
          <path id="Trazado_1222979" data-name="Trazado 1222979" d="M137.793,352.019H64.086a1.625,1.625,0,0,1-1.621-1.621h0a1.626,1.626,0,0,1,1.621-1.621h73.708a1.626,1.626,0,0,1,1.621,1.621h0A1.625,1.625,0,0,1,137.793,352.019Z" transform="translate(-53.902 -298.577)" fill="#fff"/>
          <path id="Trazado_1222980" data-name="Trazado 1222980" d="M137.793,365.98H64.086a1.625,1.625,0,0,1-1.621-1.621h0a1.625,1.625,0,0,1,1.621-1.621h73.708a1.626,1.626,0,0,1,1.621,1.621h0A1.625,1.625,0,0,1,137.793,365.98Z" transform="translate(-53.902 -301.303)" fill="#fff"/>
        </g>
        <g id="Grupo_1233905" data-name="Grupo 1233905" transform="translate(264.003 276.236)">
          <rect id="Rectángulo_423470" data-name="Rectángulo 423470" width="86.566" height="51.42" fill="#ffe1bd"/>
          <path id="Trazado_1222981" data-name="Trazado 1222981" d="M328.36,349.672l39.1,29.165,38.024-29.165" transform="translate(-323.717 -337.666)" fill="none" stroke="#2d1a14" stroke-miterlimit="10" stroke-width="0.682"/>
          <line id="Línea_627" data-name="Línea 627" y1="16.204" x2="23.333" transform="translate(5.291 30.153)" fill="none" stroke="#2d1a14" stroke-miterlimit="10" stroke-width="0.682"/>
        </g>
        <line id="Línea_628" data-name="Línea 628" x1="23.333" y1="16.204" transform="translate(322.441 306.389)" fill="none" stroke="#2d1a14" stroke-miterlimit="10" stroke-width="0.682"/>
        <g id="Grupo_1233906" data-name="Grupo 1233906" transform="translate(343.37 255.624)">
          <circle id="Elipse_13818" data-name="Elipse 13818" cx="15.412" cy="15.412" r="15.412" fill="#8ddae2"/>
          <path id="Trazado_1222982" data-name="Trazado 1222982" d="M430.436,327.338l5.659,5.094L446.283,319.7" transform="translate(-423.022 -311.199)" fill="none" stroke="#fff" stroke-linecap="round" stroke-linejoin="round" stroke-miterlimit="10" stroke-width="2.685"/>
        </g>
        <path id="Trazado_1222983" data-name="Trazado 1222983" d="M285.91,405.915H221.744a1.95,1.95,0,0,1-1.944-1.944h0a1.95,1.95,0,0,1,1.944-1.944H285.91a1.95,1.95,0,0,1,1.944,1.944h0A1.949,1.949,0,0,1,285.91,405.915Z" transform="translate(-38.51 -71.656)" fill="#d3d2fc"/>
        <g id="Grupo_1233912" data-name="Grupo 1233912" transform="translate(27.64 90.033)">
          <g id="Grupo_1233911" data-name="Grupo 1233911" transform="translate(0 0)">
            <g id="Grupo_1233910" data-name="Grupo 1233910">
              <path id="Trazado_1222984" data-name="Trazado 1222984" d="M121.677,163.341l-83.575.075a9.1,9.1,0,0,1-9.247-9.126l.537-41.72a9.408,9.408,0,0,1,9.482-9.143l83.575-.075a9.1,9.1,0,0,1,9.247,9.126l-.537,41.72A9.407,9.407,0,0,1,121.677,163.341Z" transform="translate(-28.854 -103.351)" fill="#8b7ff7"/>
              <path id="Trazado_1222985" data-name="Trazado 1222985" d="M74.345,116.564a23.272,23.272,0,0,0,10.688,6.989c5.106,1.5,10.483,1.04,15.6-.347a2.287,2.287,0,0,1,2.789,1.553,21.4,21.4,0,0,0,6.138,10.886c5.761,5.543,14.007,8.3,21.931,9.324a57.1,57.1,0,0,0,7.218.478l.424-32.969a9.1,9.1,0,0,0-9.247-9.126l-62.971.056A38.193,38.193,0,0,0,74.345,116.564Z" transform="translate(-36.287 -103.351)" fill="#2d1a14"/>
              <g id="Grupo_1233907" data-name="Grupo 1233907" transform="translate(9.454 45.499)">
                <path id="Trazado_1222986" data-name="Trazado 1222986" d="M41.956,165.552h0a1.335,1.335,0,0,1-1.353-1.335l.039-2.97a1.381,1.381,0,0,1,1.387-1.337h0a1.335,1.335,0,0,1,1.353,1.335l-.038,2.97A1.382,1.382,0,0,1,41.956,165.552Z" transform="translate(-40.603 -159.897)" fill="none" stroke="#fff" stroke-linecap="round" stroke-linejoin="round" stroke-miterlimit="10" stroke-width="0.747"/>
                <path id="Trazado_1222987" data-name="Trazado 1222987" d="M47.631,165.547h0a1.335,1.335,0,0,1-1.353-1.335l.039-2.97a1.381,1.381,0,0,1,1.387-1.337h0a1.335,1.335,0,0,1,1.353,1.335l-.039,2.97A1.38,1.38,0,0,1,47.631,165.547Z" transform="translate(-41.711 -159.896)" fill="none" stroke="#fff" stroke-linecap="round" stroke-linejoin="round" stroke-miterlimit="10" stroke-width="0.747"/>
                <path id="Trazado_1222988" data-name="Trazado 1222988" d="M53.307,165.541h0a1.335,1.335,0,0,1-1.353-1.335l.039-2.97A1.381,1.381,0,0,1,53.38,159.9h0a1.335,1.335,0,0,1,1.353,1.335l-.038,2.97A1.38,1.38,0,0,1,53.307,165.541Z" transform="translate(-42.82 -159.895)" fill="none" stroke="#fff" stroke-linecap="round" stroke-linejoin="round" stroke-miterlimit="10" stroke-width="0.747"/>
                <path id="Trazado_1222989" data-name="Trazado 1222989" d="M58.983,165.536h0A1.335,1.335,0,0,1,57.63,164.2l.039-2.97a1.381,1.381,0,0,1,1.387-1.337h0a1.335,1.335,0,0,1,1.353,1.335l-.038,2.97A1.381,1.381,0,0,1,58.983,165.536Z" transform="translate(-43.929 -159.894)" fill="none" stroke="#fff" stroke-linecap="round" stroke-linejoin="round" stroke-miterlimit="10" stroke-width="0.747"/>
              </g>
              <g id="Grupo_1233908" data-name="Grupo 1233908" transform="translate(29.549 45.481)">
                <path id="Trazado_1222990" data-name="Trazado 1222990" d="M66.929,165.529h0a1.335,1.335,0,0,1-1.353-1.335l.039-2.97A1.381,1.381,0,0,1,67,159.887h0a1.335,1.335,0,0,1,1.353,1.335l-.038,2.97A1.382,1.382,0,0,1,66.929,165.529Z" transform="translate(-65.576 -159.875)" fill="none" stroke="#fff" stroke-linecap="round" stroke-linejoin="round" stroke-miterlimit="10" stroke-width="0.747"/>
                <path id="Trazado_1222991" data-name="Trazado 1222991" d="M72.6,165.524h0a1.335,1.335,0,0,1-1.353-1.335l.038-2.97a1.381,1.381,0,0,1,1.387-1.337h0a1.335,1.335,0,0,1,1.353,1.335l-.038,2.97A1.381,1.381,0,0,1,72.6,165.524Z" transform="translate(-66.684 -159.874)" fill="none" stroke="#fff" stroke-linecap="round" stroke-linejoin="round" stroke-miterlimit="10" stroke-width="0.747"/>
                <path id="Trazado_1222992" data-name="Trazado 1222992" d="M78.281,165.519h0a1.335,1.335,0,0,1-1.353-1.335l.038-2.97a1.381,1.381,0,0,1,1.387-1.337h0a1.335,1.335,0,0,1,1.353,1.335l-.038,2.97A1.381,1.381,0,0,1,78.281,165.519Z" transform="translate(-67.793 -159.873)" fill="none" stroke="#fff" stroke-linecap="round" stroke-linejoin="round" stroke-miterlimit="10" stroke-width="0.747"/>
                <path id="Trazado_1222993" data-name="Trazado 1222993" d="M83.957,165.514h0a1.335,1.335,0,0,1-1.353-1.335l.038-2.97a1.381,1.381,0,0,1,1.387-1.337h0a1.335,1.335,0,0,1,1.353,1.335l-.039,2.97A1.38,1.38,0,0,1,83.957,165.514Z" transform="translate(-68.902 -159.872)" fill="none" stroke="#fff" stroke-linecap="round" stroke-linejoin="round" stroke-miterlimit="10" stroke-width="0.747"/>
              </g>
              <g id="Grupo_1233909" data-name="Grupo 1233909" transform="translate(49.949 45.463)">
                <path id="Trazado_1222994" data-name="Trazado 1222994" d="M92.281,165.506h0a1.335,1.335,0,0,1-1.353-1.335l.038-2.97a1.381,1.381,0,0,1,1.387-1.337h0a1.335,1.335,0,0,1,1.353,1.335l-.038,2.969A1.379,1.379,0,0,1,92.281,165.506Z" transform="translate(-90.928 -159.852)" fill="none" stroke="#fff" stroke-linecap="round" stroke-linejoin="round" stroke-miterlimit="10" stroke-width="0.747"/>
                <path id="Trazado_1222995" data-name="Trazado 1222995" d="M97.957,165.5h0a1.335,1.335,0,0,1-1.353-1.335l.038-2.97a1.381,1.381,0,0,1,1.387-1.337h0a1.335,1.335,0,0,1,1.353,1.335l-.039,2.97A1.38,1.38,0,0,1,97.957,165.5Z" transform="translate(-92.036 -159.851)" fill="none" stroke="#fff" stroke-linecap="round" stroke-linejoin="round" stroke-miterlimit="10" stroke-width="0.747"/>
                <path id="Trazado_1222996" data-name="Trazado 1222996" d="M103.633,165.5h0a1.335,1.335,0,0,1-1.353-1.335l.038-2.97a1.381,1.381,0,0,1,1.387-1.337h0a1.335,1.335,0,0,1,1.353,1.335l-.039,2.97A1.38,1.38,0,0,1,103.633,165.5Z" transform="translate(-93.145 -159.85)" fill="none" stroke="#fff" stroke-linecap="round" stroke-linejoin="round" stroke-miterlimit="10" stroke-width="0.747"/>
                <path id="Trazado_1222997" data-name="Trazado 1222997" d="M109.308,165.491h0a1.335,1.335,0,0,1-1.353-1.335l.039-2.97a1.381,1.381,0,0,1,1.387-1.337h0a1.335,1.335,0,0,1,1.353,1.335l-.039,2.97A1.38,1.38,0,0,1,109.308,165.491Z" transform="translate(-94.254 -159.849)" fill="none" stroke="#fff" stroke-linecap="round" stroke-linejoin="round" stroke-miterlimit="10" stroke-width="0.747"/>
              </g>
              <path id="Trazado_1222998" data-name="Trazado 1222998" d="M133.582,114.082l-37.451.034a2.225,2.225,0,0,1-2.255-2.225h0a2.3,2.3,0,0,1,2.312-2.23l37.451-.034a2.225,2.225,0,0,1,2.255,2.225h0A2.3,2.3,0,0,1,133.582,114.082Z" transform="translate(-41.554 -104.577)" fill="none" stroke="#8b7ff7" stroke-linecap="round" stroke-linejoin="round" stroke-miterlimit="10" stroke-width="1.121"/>
              <rect id="Rectángulo_423471" data-name="Rectángulo 423471" width="89.416" height="10.915" transform="translate(6.722 28.918)" fill="#fff"/>
              <rect id="Rectángulo_423472" data-name="Rectángulo 423472" width="89.113" height="8.396" transform="translate(6.799 17.163)" fill="none" stroke="#8ddae2" stroke-linecap="round" stroke-linejoin="round" stroke-miterlimit="10" stroke-width="1.052"/>
            </g>
          </g>
          <path id="Trazado_1222999" data-name="Trazado 1222999" d="M130.28,148.933h0a1.5,1.5,0,0,1-1.493-1.493v-4.1a1.5,1.5,0,0,1,1.493-1.493h0a1.5,1.5,0,0,1,1.493,1.493v4.1A1.5,1.5,0,0,1,130.28,148.933Z" transform="translate(-48.373 -110.869)" fill="#2d1a14"/>
          <path id="Trazado_1223000" data-name="Trazado 1223000" d="M136.934,148.933h0a1.5,1.5,0,0,1-1.493-1.493v-4.1a1.5,1.5,0,0,1,1.493-1.493h0a1.5,1.5,0,0,1,1.493,1.493v4.1A1.5,1.5,0,0,1,136.934,148.933Z" transform="translate(-49.673 -110.869)" fill="#2d1a14"/>
          <path id="Trazado_1223001" data-name="Trazado 1223001" d="M143.426,148.933h0a1.5,1.5,0,0,1-1.493-1.493v-4.1a1.5,1.5,0,0,1,1.493-1.493h0a1.5,1.5,0,0,1,1.493,1.493v4.1A1.5,1.5,0,0,1,143.426,148.933Z" transform="translate(-50.941 -110.869)" fill="#2d1a14"/>
        </g>
        <path id="Trazado_1223002" data-name="Trazado 1223002" d="M285.367,389.188H217.195a8.067,8.067,0,0,1-8.043-8.043h0a8.067,8.067,0,0,1,8.043-8.043h68.172a8.067,8.067,0,0,1,8.043,8.043h0A8.067,8.067,0,0,1,285.367,389.188Z" transform="translate(-36.43 -66.006)" fill="#2d1a14"/>
        <g id="Grupo_1233916" data-name="Grupo 1233916" transform="translate(190.804 308.584)">
          <text id="https:_" data-name="https:///" transform="translate(9.185 7.999) rotate(0.544)" fill="#fff" font-size="7" font-family="SegoeUI, Segoe UI"><tspan x="0" y="0">https:///</tspan></text>
          <g id="Grupo_1233915" data-name="Grupo 1233915" transform="translate(0 1.997)">
            <g id="Grupo_1233913" data-name="Grupo 1233913" transform="translate(0 3.618)">
              <path id="Trazado_1223003" data-name="Trazado 1223003" d="M236.912,387.31h-4.56a.729.729,0,0,1-.729-.729v-3.923a.729.729,0,0,1,.729-.729h4.56a.729.729,0,0,1,.729.729v3.923A.729.729,0,0,1,236.912,387.31Z" transform="translate(-231.623 -381.929)" fill="#fff"/>
            </g>
            <g id="Grupo_1233914" data-name="Grupo 1233914" transform="translate(1.382)">
              <path id="Trazado_1223004" data-name="Trazado 1223004" d="M234.905,385.018a1.517,1.517,0,0,1-1.565-1.46v-4.665a1.568,1.568,0,0,1,3.129,0v4.665A1.516,1.516,0,0,1,234.905,385.018Zm0-7.019a.929.929,0,0,0-.958.895v4.666a.961.961,0,0,0,1.917,0v-4.666A.928.928,0,0,0,234.905,378Z" transform="translate(-233.34 -377.433)" fill="#fff"/>
            </g>
          </g>
        </g>
        <circle id="Elipse_13819" data-name="Elipse 13819" cx="3.313" cy="3.313" r="3.313" transform="translate(156.121 268.011)" fill="#fff"/>
        <circle id="Elipse_13820" data-name="Elipse 13820" cx="1.872" cy="1.872" r="1.872" transform="translate(148.631 287.025)" fill="#fff"/>
        <circle id="Elipse_13821" data-name="Elipse 13821" cx="2.593" cy="2.593" r="2.593" transform="translate(181.76 294.515)" fill="#fff"/>
        <circle id="Elipse_13822" data-name="Elipse 13822" cx="4.609" cy="4.609" r="4.609" transform="translate(149.495 316.984)" fill="#fff"/>
        <circle id="Elipse_13823" data-name="Elipse 13823" cx="1.728" cy="1.728" r="1.728" transform="translate(161.595 300.564)" fill="#fff"/>
        <circle id="Elipse_13824" data-name="Elipse 13824" cx="1.584" cy="1.584" r="1.584" transform="translate(113.774 331.676)" fill="#fff"/>
        <circle id="Elipse_13825" data-name="Elipse 13825" cx="3.313" cy="3.313" r="3.313" transform="translate(138.549 338.302)" fill="#fff"/>
        <circle id="Elipse_13826" data-name="Elipse 13826" cx="1.008" cy="1.008" r="1.008" transform="translate(171.965 328.796)" fill="#fff"/>
        <circle id="Elipse_13827" data-name="Elipse 13827" cx="2.881" cy="2.881" r="2.881" transform="translate(285.467 243.814)" fill="#fff"/>
        <circle id="Elipse_13828" data-name="Elipse 13828" cx="2.161" cy="2.161" r="2.161" transform="translate(307.36 230.85)" fill="#fff"/>
        <circle id="Elipse_13829" data-name="Elipse 13829" cx="2.593" cy="2.593" r="2.593" transform="translate(304.768 260.521)" fill="#fff"/>
        <circle id="Elipse_13830" data-name="Elipse 13830" cx="1.008" cy="1.008" r="1.008" transform="translate(275.384 259.945)" fill="#fff"/>
        <path id="Trazado_1223005" data-name="Trazado 1223005" d="M321.3,412.756a2.3,2.3,0,1,1-2.3-2.3A2.3,2.3,0,0,1,321.3,412.756Z" transform="translate(-57.434 -73.301)" fill="#fff"/>
        <circle id="Elipse_13831" data-name="Elipse 13831" cx="3.025" cy="3.025" r="3.025" transform="translate(290.94 333.693)" fill="#fff"/>
        <circle id="Elipse_13832" data-name="Elipse 13832" cx="2.161" cy="2.161" r="2.161" transform="translate(209.703 337.15)" fill="#fff"/>
        <circle id="Elipse_13833" data-name="Elipse 13833" cx="1.296" cy="1.296" r="1.296" transform="translate(238.222 288.753)" fill="#fff"/>
        <path id="Trazado_1223006" data-name="Trazado 1223006" d="M315.637,361.417a2.161,2.161,0,1,1-2.161-2.161A2.16,2.16,0,0,1,315.637,361.417Z" transform="translate(-56.385 -63.302)" fill="#fff"/>
        <circle id="Elipse_13834" data-name="Elipse 13834" cx="10.694" cy="10.694" r="10.694" transform="translate(361.329 148.893)" fill="#dbccff"/>
        <circle id="Elipse_13835" data-name="Elipse 13835" cx="9.043" cy="9.043" r="9.043" transform="translate(123.958 41.279)" fill="#dbccff"/>
        <path id="Trazado_1223007" data-name="Trazado 1223007" d="M431.182,209.383a3.889,3.889,0,1,1-3.889-3.889A3.889,3.889,0,0,1,431.182,209.383Z" transform="translate(-78.278 -33.269)" fill="#dbccff"/>
        <circle id="Elipse_13836" data-name="Elipse 13836" cx="3.889" cy="3.889" r="3.889" transform="translate(177.159 35.167)" fill="#dbccff"/>
        <path id="Trazado_1223008" data-name="Trazado 1223008" d="M316.445,43.223a3.889,3.889,0,1,1-3.889-3.889A3.889,3.889,0,0,1,316.445,43.223Z" transform="translate(-55.868 -0.814)" fill="#dbccff"/>
      </g>
    </g>
  </g>
</svg>
