<svg xmlns="http://www.w3.org/2000/svg" xmlns:xlink="http://www.w3.org/1999/xlink" width="106.16" height="106.16" viewBox="0 0 106.16 106.16">
  <defs>
    <filter id="Trazado_982547" x="0" y="0" width="106.16" height="106.16" filterUnits="userSpaceOnUse">
      <feOffset dy="3" input="SourceAlpha"/>
      <feGaussianBlur stdDeviation="3" result="blur"/>
      <feFlood flood-opacity="0.161"/>
      <feComposite operator="in" in2="blur"/>
      <feComposite in="SourceGraphic"/>
    </filter>
  </defs>
  <g id="Grupo_1234625" data-name="Grupo 1234625" transform="translate(-610.5 -1940)">
    <g id="Grupo_1234366" data-name="Grupo 1234366" transform="translate(619.5 1946)">
      <g id="Grupo_1230958" data-name="Grupo 1230958">
        <g id="Grupo_1230691" data-name="Grupo 1230691">
          <g id="Grupo_1224851" data-name="Grupo 1224851">
            <g id="Grupo_1206130" data-name="Grupo 1206130">
              <g id="Grupo_1203672" data-name="Grupo 1203672">
                <g id="Grupo_1203344" data-name="Grupo 1203344" transform="translate(0 0)">
                  <g id="Grupo_1177900" data-name="Grupo 1177900">
                    <g id="Grupo_1172010" data-name="Grupo 1172010" transform="translate(0)">
                      <g id="Grupo_1171046" data-name="Grupo 1171046">
                        <g id="Grupo_1148525" data-name="Grupo 1148525">
                          <g transform="matrix(1, 0, 0, 1, -9, -6)" filter="url(#Trazado_982547)">
                            <g id="Trazado_982547-2" data-name="Trazado 982547" transform="translate(9 6)" fill="#e5ebfb">
                              <path d="M 44.0802001953125 86.660400390625 C 38.33124923706055 86.660400390625 32.75506210327148 85.53479766845703 27.50652503967285 83.31484985351562 C 22.43628692626953 81.17032623291016 17.88242530822754 78.09992218017578 13.97144985198975 74.18894958496094 C 10.06047534942627 70.27797698974609 6.99007511138916 65.72411346435547 4.845550060272217 60.65387344360352 C 2.625600099563599 55.40533828735352 1.500000238418579 49.82915115356445 1.500000238418579 44.0802001953125 C 1.500000238418579 38.33124923706055 2.625600099563599 32.75506210327148 4.845550060272217 27.50652503967285 C 6.99007511138916 22.43628692626953 10.06047534942627 17.88242530822754 13.97144985198975 13.97144985198975 C 17.88242530822754 10.06047534942627 22.43628692626953 6.99007511138916 27.50652503967285 4.845550060272217 C 32.75506210327148 2.625600099563599 38.33124923706055 1.500000238418579 44.0802001953125 1.500000238418579 C 49.82915115356445 1.500000238418579 55.40533828735352 2.625600099563599 60.65387344360352 4.845550060272217 C 65.72411346435547 6.99007511138916 70.27797698974609 10.06047534942627 74.18894958496094 13.97144985198975 C 78.09992218017578 17.88242530822754 81.17032623291016 22.43628692626953 83.31484985351562 27.50652503967285 C 85.53479766845703 32.75506210327148 86.660400390625 38.33124923706055 86.660400390625 44.0802001953125 C 86.660400390625 49.82915115356445 85.53479766845703 55.40533828735352 83.31484985351562 60.65387344360352 C 81.17032623291016 65.72411346435547 78.09992218017578 70.27797698974609 74.18894958496094 74.18894958496094 C 70.27797698974609 78.09992218017578 65.72411346435547 81.17032623291016 60.65387344360352 83.31484985351562 C 55.40533828735352 85.53479766845703 49.82915115356445 86.660400390625 44.0802001953125 86.660400390625 Z" stroke="none"/>
                              <path d="M 44.0802001953125 3 C 38.53308486938477 3 33.15349960327148 4.085746765136719 28.09085845947266 6.227058410644531 C 23.19941711425781 8.29595947265625 18.80581665039062 11.25841522216797 15.03211212158203 15.03211212158203 C 11.25841522216797 18.80581665039062 8.29595947265625 23.19941711425781 6.227058410644531 28.09085845947266 C 4.085746765136719 33.15349960327148 3 38.53308486938477 3 44.0802001953125 C 3 49.62731552124023 4.085746765136719 55.00691604614258 6.227058410644531 60.06954193115234 C 8.29595947265625 64.96098327636719 11.25841522216797 69.35458374023438 15.03211212158203 73.12828826904297 C 18.80581665039062 76.90198516845703 23.19941711425781 79.86444091796875 28.09085845947266 81.93334197998047 C 33.15349960327148 84.07466125488281 38.53308486938477 85.160400390625 44.0802001953125 85.160400390625 C 49.62731552124023 85.160400390625 55.00691604614258 84.07466125488281 60.06954193115234 81.93334197998047 C 64.96099853515625 79.86444091796875 69.35458374023438 76.90198516845703 73.12828826904297 73.12828826904297 C 76.90198516845703 69.35458374023438 79.86444091796875 64.96099853515625 81.93334197998047 60.06954193115234 C 84.07466125488281 55.00691604614258 85.160400390625 49.62731552124023 85.160400390625 44.0802001953125 C 85.160400390625 38.53308486938477 84.07466125488281 33.15349960327148 81.93334197998047 28.09085845947266 C 79.86444091796875 23.19941711425781 76.90198516845703 18.80581665039062 73.12828826904297 15.03211212158203 C 69.35458374023438 11.25841522216797 64.96098327636719 8.29595947265625 60.06954193115234 6.227058410644531 C 55.00691604614258 4.085746765136719 49.62731552124023 3 44.0802001953125 3 M 44.0802001953125 0 C 68.42502593994141 0 88.160400390625 19.73538970947266 88.160400390625 44.0802001953125 C 88.160400390625 68.42502593994141 68.42502593994141 88.160400390625 44.0802001953125 88.160400390625 C 19.73538970947266 88.160400390625 0 68.42502593994141 0 44.0802001953125 C 0 19.73538970947266 19.73538970947266 0 44.0802001953125 0 Z" stroke="none" fill="#0b47db"/>
                            </g>
                          </g>
                        </g>
                      </g>
                    </g>
                  </g>
                </g>
              </g>
            </g>
          </g>
        </g>
      </g>
    </g>
    <g id="banca-en-linea" transform="translate(602.617 1961.044)">
      <g id="Grupo_1234623" data-name="Grupo 1234623" transform="translate(36.702 0.855)">
        <path id="Trazado_1224319" data-name="Trazado 1224319" d="M123.889,64.2H94.134a1.369,1.369,0,0,1-1.369-1.369V8.867A1.369,1.369,0,0,1,94.134,7.5h29.755a1.369,1.369,0,0,1,1.369,1.369V62.831A1.369,1.369,0,0,1,123.889,64.2Z" transform="translate(-87.127 -7.498)" fill="#99e6fc"/>
        <path id="Trazado_1224320" data-name="Trazado 1224320" d="M96.987,64.2H94.135a1.369,1.369,0,0,1-1.369-1.369V8.871A1.369,1.369,0,0,1,94.135,7.5h2.852a1.369,1.369,0,0,0-1.369,1.369V62.835A1.369,1.369,0,0,0,96.987,64.2Z" transform="translate(-87.128 -7.502)" fill="#62dbfb"/>
        <path id="Trazado_1224321" data-name="Trazado 1224321" d="M185.45,7.5l-.55,4.065a.686.686,0,0,1-.679.593H171.981a.684.684,0,0,1-.679-.593l-.55-4.065Z" transform="translate(-156.216 -7.498)" fill="#918291"/>
        <path id="Trazado_1224322" data-name="Trazado 1224322" d="M174.837,12.16h-2.852a.684.684,0,0,1-.679-.593l-.55-4.065h2.852l.55,4.065A.684.684,0,0,0,174.837,12.16Z" transform="translate(-156.22 -7.502)" fill="#7a6d79"/>
        <circle id="Elipse_13873" data-name="Elipse 13873" cx="8.21" cy="8.21" r="8.21" transform="translate(32.102 4.023)" fill="#fd8087"/>
        <path id="Trazado_1224323" data-name="Trazado 1224323" d="M334.362,59.05a8.21,8.21,0,1,1,0-16.174,8.212,8.212,0,0,0,0,16.174Z" transform="translate(-292.624 -38.73)" fill="#fe646f"/>
        <circle id="Elipse_13874" data-name="Elipse 13874" cx="1.821" cy="1.821" r="1.821" transform="translate(38.492 8.402)" fill="#eaf6ff"/>
        <path id="Trazado_1224324" data-name="Trazado 1224324" d="M376.2,140.327v3.1a8.237,8.237,0,0,1-6.056,0v-3.094a1.826,1.826,0,0,1,1.825-1.825h2.4A1.826,1.826,0,0,1,376.2,140.327Z" transform="translate(-332.862 -123.556)" fill="#eaf6ff"/>
        <path id="Trazado_1224325" data-name="Trazado 1224325" d="M86.659,314.8H43.8a.456.456,0,0,1-.456-.456V302.013a.456.456,0,0,1,.456-.456H86.659a.456.456,0,0,1,.456.456v12.331A.456.456,0,0,1,86.659,314.8Z" transform="translate(-43.346 -268.008)" fill="#91deb6"/>
        <path id="Trazado_1224326" data-name="Trazado 1224326" d="M46.655,314.8H43.8a.456.456,0,0,1-.456-.456V302.008a.457.457,0,0,1,.456-.456h2.852a.457.457,0,0,0-.456.456V314.34A.456.456,0,0,0,46.655,314.8Z" transform="translate(-43.346 -268.004)" fill="#6ed5a1"/>
        <path id="Trazado_1224327" data-name="Trazado 1224327" d="M168.985,233.856h-18.78a.342.342,0,0,1-.342-.342v-3.4a.342.342,0,0,1,.342-.342h18.78a.342.342,0,0,1,.342.342v3.4a.342.342,0,0,1-.342.342Z" transform="translate(-137.711 -204.415)" fill="#fd8087"/>
        <path id="Trazado_1224328" data-name="Trazado 1224328" d="M153.054,233.853H150.2a.343.343,0,0,1-.342-.342v-3.4a.343.343,0,0,1,.342-.342h2.852a.343.343,0,0,0-.342.342v3.4A.343.343,0,0,0,153.054,233.853Z" transform="translate(-137.708 -204.411)" fill="#fe646f"/>
        <path id="Trazado_1224329" data-name="Trazado 1224329" d="M374.025,138.5a1.826,1.826,0,0,0-1.825,1.825v3.613a8.075,8.075,0,0,1-2.054-.519v-3.094a1.826,1.826,0,0,1,1.825-1.825Z" transform="translate(-332.862 -123.556)" fill="#d8ecfe"/>
      </g>
      <g id="Grupo_1234624" data-name="Grupo 1234624" transform="translate(35.846 0)">
        <path id="Trazado_1224330" data-name="Trazado 1224330" d="M156.931,453.631a.856.856,0,0,0,0,1.711h16.336a.856.856,0,0,0,0-1.711Z" transform="translate(-142.358 -401.877)"/>
        <path id="Trazado_1224331" data-name="Trazado 1224331" d="M77.014,22.155A9.066,9.066,0,1,0,75.688,4.121v-1.9A2.227,2.227,0,0,0,73.464,0H43.708a2.227,2.227,0,0,0-2.225,2.225V3.6a.856.856,0,1,0,1.711,0V2.225a.514.514,0,0,1,.513-.513h6.781l.45,3.323A1.545,1.545,0,0,0,52.466,6.37H64.706a1.548,1.548,0,0,0,1.527-1.334l.45-3.324h6.781a.514.514,0,0,1,.513.513V4.548a9.064,9.064,0,0,0,0,17.082V33.549H43.195V7.591a.856.856,0,1,0-1.711,0V33.549H37.158a1.314,1.314,0,0,0-1.312,1.312V47.192A1.314,1.314,0,0,0,37.158,48.5h4.326v7.685a2.227,2.227,0,0,0,2.225,2.225h24.03a.856.856,0,1,0,0-1.711H43.708a.514.514,0,0,1-.513-.513V48.5H73.977v7.685a.514.514,0,0,1-.513.513H71.732a.856.856,0,0,0,0,1.711h1.732a2.227,2.227,0,0,0,2.225-2.225V48.5h4.326a1.314,1.314,0,0,0,1.312-1.312V34.861a1.314,1.314,0,0,0-1.312-1.312H75.688V22.057a9.1,9.1,0,0,0,1.326.1ZM64.557,4.658H52.615l-.4-2.947h12.74ZM79.615,46.793H37.557V35.26H79.615ZM74.842,20.116V17.628a.971.971,0,0,1,.97-.97h2.4a.971.971,0,0,1,.97.97v2.488a7.364,7.364,0,0,1-4.344,0Zm-5.182-7.027A7.355,7.355,0,1,1,80.9,19.33v-1.7a2.684,2.684,0,0,0-2.681-2.681h-2.4a2.684,2.684,0,0,0-2.681,2.681v1.7a7.355,7.355,0,0,1-3.471-6.242Z" transform="translate(-35.846 0)"/>
        <path id="Trazado_1224332" data-name="Trazado 1224332" d="M375.906,79a2.676,2.676,0,1,0-2.676-2.676A2.679,2.679,0,0,0,375.906,79Zm0-3.641a.965.965,0,1,1-.965.965.966.966,0,0,1,.965-.965Z" transform="translate(-334.738 -65.242)"/>
        <path id="Trazado_1224333" data-name="Trazado 1224333" d="M188.5,94.129a1.084,1.084,0,0,0,.727-1.888l-5.652-5.111a1.081,1.081,0,0,0-1.454,0h0l-5.652,5.111a1.084,1.084,0,0,0,.727,1.888h.771v4.064h-.656a.856.856,0,0,0,0,1.711h11.074a.856.856,0,1,0,0-1.711h-.656V94.129h.772Zm-5.231-5.73h0Zm-.421.38,4.023,3.638h-8.046Zm-3.17,5.349h2.241v4.064h-2.241Zm6.339,4.064h-2.387V94.129h2.387Z" transform="translate(-160.112 -76.941)"/>
        <path id="Trazado_1224334" data-name="Trazado 1224334" d="M80.665,328.232a.855.855,0,0,0,1.169.313l1.715-.99v1.98a.856.856,0,1,0,1.711,0v-1.98l1.715.99a.856.856,0,0,0,.856-1.482l-1.715-.99,1.715-.99a.856.856,0,1,0-.856-1.482l-1.715.99v-1.98a.856.856,0,0,0-1.711,0v1.98l-1.715-.99a.856.856,0,1,0-.856,1.482l1.715.99-1.715.99A.856.856,0,0,0,80.665,328.232Z" transform="translate(-75.45 -285.047)"/>
        <path id="Trazado_1224335" data-name="Trazado 1224335" d="M161.222,328.233a.855.855,0,0,0,1.169.313l1.715-.99v1.98a.856.856,0,0,0,1.711,0v-1.98l1.715.99a.856.856,0,0,0,.856-1.482l-1.715-.99,1.715-.99a.856.856,0,0,0-.856-1.482l-1.715.99v-1.98a.856.856,0,1,0-1.711,0v1.98l-1.715-.99a.856.856,0,1,0-.856,1.482l1.715.99-1.715.99A.855.855,0,0,0,161.222,328.233Z" transform="translate(-146.817 -285.048)"/>
        <path id="Trazado_1224336" data-name="Trazado 1224336" d="M241.781,328.232a.855.855,0,0,0,1.169.313l1.715-.99v1.98a.856.856,0,1,0,1.711,0v-1.98l1.715.99a.856.856,0,0,0,.856-1.482l-1.715-.99,1.715-.99a.856.856,0,0,0-.856-1.482l-1.715.99v-1.98a.856.856,0,0,0-1.711,0v1.98l-1.715-.99a.856.856,0,0,0-.856,1.482l1.715.99-1.715.99a.856.856,0,0,0-.313,1.169Z" transform="translate(-218.184 -285.047)"/>
        <path id="Trazado_1224337" data-name="Trazado 1224337" d="M322.338,328.232a.855.855,0,0,0,1.169.313l1.715-.99v1.98a.856.856,0,1,0,1.711,0v-1.98l1.715.99a.856.856,0,0,0,.856-1.482l-1.715-.99,1.715-.99a.856.856,0,1,0-.856-1.482l-1.715.99v-1.98a.856.856,0,1,0-1.711,0v1.98l-1.715-.99a.856.856,0,1,0-.856,1.482l1.715.99-1.715.99A.856.856,0,0,0,322.338,328.232Z" transform="translate(-289.551 -285.046)"/>
        <path id="Trazado_1224338" data-name="Trazado 1224338" d="M142.362,223.474v3.4a1.2,1.2,0,0,0,1.2,1.2h18.78a1.2,1.2,0,0,0,1.2-1.2v-3.4a1.2,1.2,0,0,0-1.2-1.2H143.56A1.2,1.2,0,0,0,142.362,223.474Zm1.711.513h17.753v2.371H144.073Z" transform="translate(-130.21 -196.917)"/>
      </g>
    </g>
  </g>
</svg>
