<svg xmlns="http://www.w3.org/2000/svg" xmlns:xlink="http://www.w3.org/1999/xlink" width="190" height="190" viewBox="0 0 190 190">
  <defs>
    <clipPath id="clip-path">
      <rect id="Rectángulo_423569" data-name="Rectángulo 423569" width="190" height="190" transform="translate(180 7064)" fill="#fff" stroke="#707070" stroke-width="1"/>
    </clipPath>
    <linearGradient id="linear-gradient" x1="-3.987" y1="0.008" x2="-3.08" y2="0.008" gradientUnits="objectBoundingBox">
      <stop offset="0" stop-color="#b37cff"/>
      <stop offset="1" stop-color="#f895e7"/>
    </linearGradient>
    <linearGradient id="linear-gradient-2" x1="-3.417" y1="-0.216" x2="-2.756" y2="-0.216" gradientUnits="objectBoundingBox">
      <stop offset="0" stop-color="#a737d5"/>
      <stop offset="1" stop-color="#ef497a"/>
    </linearGradient>
    <linearGradient id="linear-gradient-3" x1="4.7" y1="0.724" x2="5.469" y2="0.724" xlink:href="#linear-gradient-2"/>
    <linearGradient id="linear-gradient-4" x1="0.933" y1="-0.003" x2="-0.785" y2="1.996" gradientUnits="objectBoundingBox">
      <stop offset="0" stop-color="#2b3582"/>
      <stop offset="1" stop-color="#150e42"/>
    </linearGradient>
    <linearGradient id="linear-gradient-5" x1="0.591" y1="0.073" x2="0.23" y2="1.683" gradientUnits="objectBoundingBox">
      <stop offset="0" stop-color="#53d8ff"/>
      <stop offset="1" stop-color="#3840f7"/>
    </linearGradient>
    <linearGradient id="linear-gradient-6" x1="0.001" y1="-23.78" x2="0.314" y2="-8.56" xlink:href="#linear-gradient-5"/>
    <linearGradient id="linear-gradient-7" x1="0.683" y1="-0.615" x2="0.309" y2="1.663" xlink:href="#linear-gradient-5"/>
    <linearGradient id="linear-gradient-8" x1="-35.085" y1="0.976" x2="-33.478" y2="-0.095" gradientUnits="objectBoundingBox">
      <stop offset="0" stop-color="#f9b776"/>
      <stop offset="1" stop-color="#f47960"/>
    </linearGradient>
    <linearGradient id="linear-gradient-9" x1="-39.035" y1="3.694" x2="-33.05" y2="-8.994" xlink:href="#linear-gradient-8"/>
    <linearGradient id="linear-gradient-10" x1="-51.877" y1="0.5" x2="-50.877" y2="0.5" xlink:href="#linear-gradient-8"/>
    <linearGradient id="linear-gradient-11" x1="-45.415" y1="0.888" x2="-43.127" y2="-3.733" gradientUnits="objectBoundingBox">
      <stop offset="0" stop-color="#cb236d"/>
      <stop offset="1" stop-color="#4c246d"/>
    </linearGradient>
    <linearGradient id="linear-gradient-12" x1="-55.579" y1="1.997" x2="-52.698" y2="-2.348" xlink:href="#linear-gradient-11"/>
    <linearGradient id="linear-gradient-13" x1="3.654" y1="0.128" x2="2.022" y2="1.868" xlink:href="#linear-gradient-11"/>
    <linearGradient id="linear-gradient-14" x1="-70.374" y1="0.5" x2="-69.374" y2="0.5" xlink:href="#linear-gradient-8"/>
    <linearGradient id="linear-gradient-15" x1="-24.579" y1="0.087" x2="-26.508" y2="1.802" gradientUnits="objectBoundingBox">
      <stop offset="0" stop-color="#fdf53f"/>
      <stop offset="1" stop-color="#d93c65"/>
    </linearGradient>
    <linearGradient id="linear-gradient-16" x1="-15.435" y1="-0.089" x2="-17.643" y2="1.396" xlink:href="#linear-gradient-8"/>
    <linearGradient id="linear-gradient-17" x1="-52.32" y1="-0.515" x2="-60.019" y2="5.655" xlink:href="#linear-gradient-8"/>
    <linearGradient id="linear-gradient-18" x1="-52.504" y1="1.075" x2="-53.999" y2="-0.514" xlink:href="#linear-gradient-8"/>
    <linearGradient id="linear-gradient-19" x1="-10.577" y1="0.069" x2="-11.012" y2="0.617" xlink:href="#linear-gradient-4"/>
    <linearGradient id="linear-gradient-20" x1="0.931" y1="-1.137" x2="0.163" y2="1.779" xlink:href="#linear-gradient-15"/>
    <linearGradient id="linear-gradient-21" x1="0.748" y1="-0.102" x2="-0.283" y2="2.395" xlink:href="#linear-gradient-15"/>
    <linearGradient id="linear-gradient-22" x1="1.681" y1="-5.847" x2="-0.099" y2="3.847" xlink:href="#linear-gradient-15"/>
    <linearGradient id="linear-gradient-23" x1="0.649" y1="16.288" x2="1.598" y2="16.288" xlink:href="#linear-gradient"/>
    <linearGradient id="linear-gradient-24" x1="46.18" y1="178.172" x2="47.764" y2="178.172" xlink:href="#linear-gradient"/>
    <linearGradient id="linear-gradient-25" x1="32.09" y1="233.486" x2="32.825" y2="233.486" xlink:href="#linear-gradient"/>
    <linearGradient id="linear-gradient-26" x1="0.711" y1="17.366" x2="1.735" y2="17.366" xlink:href="#linear-gradient"/>
    <linearGradient id="linear-gradient-27" x1="-9.024" y1="192.409" x2="-7.509" y2="192.409" xlink:href="#linear-gradient"/>
    <linearGradient id="linear-gradient-28" x1="0.627" y1="0.057" x2="0.255" y2="1.352" xlink:href="#linear-gradient-15"/>
    <linearGradient id="linear-gradient-29" x1="-38.698" y1="284.593" x2="-37.98" y2="284.593" xlink:href="#linear-gradient"/>
    <linearGradient id="linear-gradient-30" x1="-1.296" y1="31.675" x2="-0.482" y2="31.675" xlink:href="#linear-gradient"/>
    <linearGradient id="linear-gradient-31" x1="-2.275" y1="25.252" x2="-0.891" y2="25.252" xlink:href="#linear-gradient"/>
    <linearGradient id="linear-gradient-32" x1="-61.709" y1="242.753" x2="-59.952" y2="242.753" xlink:href="#linear-gradient"/>
    <linearGradient id="linear-gradient-33" x1="0.739" y1="-0.264" x2="0.183" y2="1.514" xlink:href="#linear-gradient-15"/>
  </defs>
  <g id="Enmascarar_grupo_1208527" data-name="Enmascarar grupo 1208527" transform="translate(-180 -7064)" clip-path="url(#clip-path)">
    <g id="Illustration" transform="translate(-269.776 6643.197)">
      <g id="Grupo_1234358" data-name="Grupo 1234358" transform="translate(449.776 423.388)">
        <g id="Grupo_1234337" data-name="Grupo 1234337" transform="translate(86.82 0)">
          <g id="Grupo_1234335" data-name="Grupo 1234335" transform="translate(9.004 75.81)">
            <path id="Trazado_1223732" data-name="Trazado 1223732" d="M1867.18,1648.891s37.155-93.862,92.351-104.116a1.546,1.546,0,0,1,1.824,1.6C1960.8,1557.95,1953.726,1619.224,1867.18,1648.891Z" transform="translate(-1867.18 -1544.749)" opacity="0.81" fill="url(#linear-gradient)"/>
            <path id="Trazado_1223733" data-name="Trazado 1223733" d="M1969.4,1766.648c-2.818,4.022-5.772,7.939-8.766,11.825-.748.972-1.512,1.932-2.267,2.9s-1.506,1.937-2.28,2.888l-2.314,2.86c-.775.95-1.534,1.915-2.328,2.849-1.577,1.879-3.139,3.771-4.729,5.639l-4.818,5.563c-3.269,3.658-6.536,7.32-9.9,10.887l-2.507,2.694c-.826.908-1.7,1.767-2.55,2.654l-5.118,5.292-5.25,5.162c-.877.859-1.745,1.726-2.64,2.567l-2.708,2.495c-1.809,1.659-3.6,3.34-5.439,4.965l-5.593,4.792-1.4,1.19c-.472.392-.931.8-1.414,1.179l-2.889,2.283c-.96.765-1.934,1.512-2.9,2.268s-1.936,1.508-2.91,2.253a.17.17,0,0,1-.214-.263l0,0q1.4-1.2,2.8-2.379c.938-.788,1.869-1.585,2.814-2.365l2.825-2.349c.931-.8,1.834-1.624,2.758-2.428l5.532-4.835,5.418-4.962,2.711-2.479c.453-.412.885-.847,1.329-1.269l1.329-1.268,5.316-5.075c3.457-3.471,6.972-6.889,10.311-10.478,1.686-1.778,3.392-3.538,5.021-5.37s3.3-3.624,4.93-5.454l4.835-5.539c1.6-1.861,3.163-3.745,4.746-5.616.8-.931,1.559-1.891,2.337-2.838l2.323-2.849c.777-.947,1.525-1.918,2.289-2.876s1.526-1.919,2.276-2.888c2.991-3.882,5.941-7.8,8.75-11.813l0,0a.17.17,0,0,1,.279.2Z" transform="translate(-1886.969 -1751.397)" fill="#fff" opacity="0.62"/>
          </g>
          <g id="Grupo_1234336" data-name="Grupo 1234336" opacity="0.79">
            <path id="Trazado_1223734" data-name="Trazado 1223734" d="M1734,549.508s18.062-82.885,72.589-125.851a1.244,1.244,0,0,1,1.98.673C1812,438.21,1829.857,526.734,1734,549.508Z" transform="translate(-1734 -423.388)" fill="url(#linear-gradient-2)"/>
            <path id="Trazado_1223735" data-name="Trazado 1223735" d="M1840.191,778.5c-.626,2.4-1.355,4.773-2.123,7.131s-1.579,4.7-2.439,7.028q-2.587,6.976-5.627,13.774c-.5,1.134-1.031,2.256-1.546,3.385s-1.077,2.235-1.613,3.353-1.108,2.22-1.667,3.327l-.845,1.658-.875,1.642c-2.331,4.38-4.786,8.7-7.432,12.9s-5.413,8.325-8.389,12.3c-.368.5-.73,1-1.1,1.5l-1.142,1.471-1.142,1.471c-.383.488-.754.986-1.155,1.459l-2.371,2.871-.6.716-.617.7-1.233,1.395a145.046,145.046,0,0,1-21.789,20.212.148.148,0,0,1-.183-.233l0,0,2.875-2.345,1.44-1.169,1.394-1.224,2.784-2.45,2.692-2.551c.445-.428.9-.842,1.343-1.277l1.3-1.318c.865-.883,1.747-1.748,2.6-2.645,1.67-1.822,3.379-3.607,4.969-5.5l1.212-1.4.606-.7.584-.719,2.345-2.87c.4-.473.766-.969,1.145-1.457l1.131-1.468,1.131-1.468c.37-.494.729-1,1.094-1.5,2.948-3.967,5.679-8.091,8.306-12.275s5.11-8.464,7.446-12.82l.878-1.633.848-1.648c.561-1.1,1.139-2.194,1.674-3.309,1.1-2.215,2.156-4.449,3.2-6.691q3.1-6.737,5.768-13.667,1.351-3.455,2.564-6.963.611-1.752,1.179-3.518c.385-1.175.753-2.357,1.094-3.542v0a.148.148,0,0,1,.286.079Z" transform="translate(-1773.392 -754.322)" fill="#fff" opacity="0.62"/>
          </g>
        </g>
        <g id="Grupo_1234338" data-name="Grupo 1234338" transform="translate(0 5.04)" opacity="0.76">
          <path id="Trazado_1223736" data-name="Trazado 1223736" d="M508.259,614.567s-7.044-73.526-49.741-116.312a1.083,1.083,0,0,0-1.782.377C452.336,510.277,427.741,584.963,508.259,614.567Z" transform="translate(-449.776 -497.935)" fill="url(#linear-gradient-3)"/>
          <path id="Trazado_1223737" data-name="Trazado 1223737" d="M616.538,814.985c.729,4.24,1.672,8.449,2.75,12.617q1.591,6.259,3.583,12.406c.672,2.045,1.357,4.084,2.077,6.112.347,1.019.734,2.023,1.105,3.032l.563,1.512.59,1.5c1.57,4.006,3.262,7.965,5.113,11.848s3.77,7.736,5.906,11.469c.264.468.521.941.79,1.406l.825,1.386.825,1.386c.277.461.544.928.838,1.378l1.729,2.724.43.682.451.669.9,1.338c1.177,1.8,2.468,3.522,3.721,5.271.641.864,1.313,1.7,1.969,2.556l.989,1.275c.334.422.688.827,1.028,1.244l2.059,2.486,2.15,2.408,1.076,1.2,1.122,1.161,2.239,2.329,0,0a.148.148,0,0,1-.209.21,125.648,125.648,0,0,1-16.775-19.714l-.924-1.333-.462-.667-.441-.68-1.755-2.728c-.3-.451-.568-.92-.849-1.382l-.836-1.39-.836-1.39c-.273-.467-.533-.94-.8-1.41-2.164-3.744-4.123-7.6-5.986-11.5s-3.529-7.895-5.09-11.924l-.586-1.511-.559-1.521c-.368-1.016-.752-2.026-1.1-3.05s-.717-2.039-1.047-3.067-.668-2.055-.984-3.088a168.564,168.564,0,0,1-5.892-25.215.148.148,0,0,1,.292-.047Z" transform="translate(-604.989 -793.431)" fill="#fff" opacity="0.62"/>
        </g>
        <g id="Grupo_1234343" data-name="Grupo 1234343" transform="translate(18.721 0.503)">
          <path id="Trazado_1223738" data-name="Trazado 1223738" d="M728.594,440.056C727.983,468.91,726,568.435,726.946,603.7c.1,3.736,2.661,6.735,5.854,6.858,15.8.6,73.7,2.137,99.543.869,5.382-.264,9.661-5.364,9.773-11.664.537-30.285,1.722-115.465-1.094-154.487-.337-4.675-3.474-8.4-7.465-8.865-17.2-2.013-75.361-6.935-97.683-5.24C731.848,431.481,728.694,435.339,728.594,440.056Z" transform="translate(-726.694 -430.826)" fill="url(#linear-gradient-4)"/>
          <path id="Trazado_1223739" data-name="Trazado 1223739" d="M819.8,592.149c-.85,23.289-3.532,100.765-2.681,129.414.124,4.187,2.946,7.573,6.521,7.818,14.721,1.008,64.948,3.23,86.54,1.207,3.888-.364,6.939-4.043,7.149-8.6,1.094-23.759,4.236-95.9,3.42-124.229-.13-4.519-3.123-8.21-6.972-8.614-15.926-1.673-69.3-5.653-87.646-4.482C822.689,584.884,819.95,588.117,819.8,592.149Z" transform="translate(-810.855 -574.066)" fill="url(#linear-gradient-5)"/>
          <path id="Trazado_1223740" data-name="Trazado 1223740" d="M1443.17,497.065h0a1.572,1.572,0,0,0,1.345,1.662c3.731.229,14.241.875,18.938,1.194a1.59,1.59,0,0,0,1.477-1.977l-.03-.182a1.528,1.528,0,0,0-1.266-1.342,155.467,155.467,0,0,0-19.1-1.019A1.566,1.566,0,0,0,1443.17,497.065Z" transform="translate(-1394.733 -490.993)" opacity="0.61" fill="url(#linear-gradient-6)"/>
          <g id="Grupo_1234342" data-name="Grupo 1234342" transform="translate(16.741 22.861)">
            <g id="Grupo_1234339" data-name="Grupo 1234339" transform="translate(17.004)">
              <circle id="Elipse_13859" data-name="Elipse 13859" cx="22.033" cy="22.033" r="22.033" fill="url(#linear-gradient-7)"/>
              <path id="Trazado_1223741" data-name="Trazado 1223741" d="M1465.208,883.792c0,3.731-3.025,7.758-6.755,7.758s-6.755-4.028-6.755-7.758a6.766,6.766,0,0,1,13.51,0Z" transform="translate(-1436.429 -870.084)" fill="#fff"/>
              <path id="Trazado_1223742" data-name="Trazado 1223742" d="M1363.126,1130.584h16.49a3.991,3.991,0,0,0,3.8-2.775l.887-2.773a3.988,3.988,0,0,0-2.409-4.961c-6.711-2.454-13.651-2.139-20.759.226a3.975,3.975,0,0,0-2.547,4.818l.683,2.519A3.991,3.991,0,0,0,1363.126,1130.584Z" transform="translate(-1349.485 -1094.754)" fill="#fff"/>
            </g>
            <g id="Grupo_1234340" data-name="Grupo 1234340" transform="translate(0 66.746)" opacity="0.71">
              <path id="Trazado_1223743" data-name="Trazado 1223743" d="M1061.662,1768.79h-80.39a.456.456,0,0,1-.456-.456v-11.6a.456.456,0,0,1,.456-.456h80.39a.456.456,0,0,1,.456.456v11.6A.456.456,0,0,1,1061.662,1768.79Z" transform="translate(-980.377 -1756.282)" fill="#fff" opacity="0.65"/>
              <path id="Trazado_1223744" data-name="Trazado 1223744" d="M1055.172,2070.66h-80.39a.456.456,0,0,1-.456-.456v-11.6a.457.457,0,0,1,.456-.456h80.39a.457.457,0,0,1,.456.456v11.6A.457.457,0,0,1,1055.172,2070.66Z" transform="translate(-974.326 -2037.744)" fill="#fff" opacity="0.65"/>
              <path id="Trazado_1223745" data-name="Trazado 1223745" d="M1221.314,2383.285h-51.4a.563.563,0,0,1-.563-.562V2367.9a.563.563,0,0,1,.563-.563h51.4a.563.563,0,0,1,.563.563v14.821A.563.563,0,0,1,1221.314,2383.285Z" transform="translate(-1156.17 -2326.029)" fill="#fff" opacity="0.65"/>
            </g>
            <path id="Trazado_1223746" data-name="Trazado 1223746" d="M1081.7,1805.137h-46.8a.811.811,0,0,1-.811-.811V1799a.811.811,0,0,1,.811-.811h46.8a.811.811,0,0,1,.811.811v5.327A.811.811,0,0,1,1081.7,1805.137Z" transform="translate(-1030.047 -1728.609)" fill="#fff" opacity="0.75"/>
            <g id="Grupo_1234341" data-name="Grupo 1234341" transform="translate(1.999 89.334)" opacity="0.75">
              <circle id="Elipse_13860" data-name="Elipse 13860" cx="2.853" cy="2.853" r="2.853" transform="translate(0 2.184) rotate(-22.5)" fill="#fff"/>
              <circle id="Elipse_13861" data-name="Elipse 13861" cx="2.853" cy="2.853" r="2.853" transform="translate(7.828 2.33) rotate(-22.5)" fill="#fff"/>
              <circle id="Elipse_13862" data-name="Elipse 13862" cx="2.853" cy="2.853" r="2.853" transform="translate(15.362 2.696) rotate(-22.5)" fill="#fff"/>
              <circle id="Elipse_13863" data-name="Elipse 13863" cx="2.853" cy="2.853" r="2.853" transform="translate(22.877 4.384) rotate(-45)" fill="#fff"/>
              <circle id="Elipse_13864" data-name="Elipse 13864" cx="2.853" cy="2.853" r="2.853" transform="translate(31.305 6.444) rotate(-76.714)" fill="#fff"/>
              <circle id="Elipse_13865" data-name="Elipse 13865" cx="2.853" cy="2.853" r="2.853" transform="translate(39.297 6.818) rotate(-80.782)" fill="#fff"/>
            </g>
          </g>
        </g>
        <g id="Grupo_1234344" data-name="Grupo 1234344" transform="translate(74.6 42.113)">
          <path id="Trazado_1223747" data-name="Trazado 1223747" d="M2115.42,2294.08l8.74,2.185-2.185,16.387a18.615,18.615,0,0,1,4.37,7.647c1.093,4.37,2.1,22.719,2.1,22.719l2.074,1.254.252,1.047-6.033,8.113,1-6.457c.159-1.025-.116-3.1-.03-3.147-3.278-8.74-10.288-33.36-10.288-33.36Z" transform="translate(-2077.414 -2209.724)" fill="url(#linear-gradient-8)"/>
          <path id="Trazado_1223748" data-name="Trazado 1223748" d="M2015.341,2134.492c.095,0,.188.006.283,0-.422-5.269-2.353-28.457-4.284-37.149-2.185-9.832,3.278-29.5,3.278-29.5l9.832,9.833-5.463,18.572c3.744,5.615-.611,38.5-.517,38.484l-.006.073,1.425,1.96-.174,1.062-8.707,5.138,3.426-5.564A6.247,6.247,0,0,0,2015.341,2134.492Z" transform="translate(-1979.889 -1998.785)" fill="url(#linear-gradient-9)"/>
          <path id="Trazado_1223749" data-name="Trazado 1223749" d="M2214.327,1422.81s19.145,21.576,0,32.639l-1.95-1.412s9.5-9.1,0-20.242Z" transform="translate(-2167.816 -1397.357)" fill="url(#linear-gradient-10)"/>
          <path id="Trazado_1223750" data-name="Trazado 1223750" d="M1994.95,3077.034h2.779a1.673,1.673,0,0,0,1.328-.651c.866-1.126,2.661-3.322,3.519-3.379,1.156-.077,1.008,4.03,1.008,4.03h.648l.82-5.1a3.021,3.021,0,0,0-1.585-3.157h0a4.27,4.27,0,0,1-1.7,2.817c-1.432.864-5.827,3.958-5.827,3.958a3.969,3.969,0,0,0-1.129.03A.735.735,0,0,0,1994.95,3077.034Z" transform="translate(-1964.403 -2932.044)" fill="url(#linear-gradient-11)"/>
          <path id="Trazado_1223751" data-name="Trazado 1223751" d="M2235.878,3035.715l2.561-1.077a1.675,1.675,0,0,0,.972-1.115c.362-1.373,1.165-4.094,1.934-4.479,1.035-.52,2.491,3.324,2.491,3.324l.6-.251-1.223-5.022a3.02,3.02,0,0,0-2.685-2.3h0a4.272,4.272,0,0,1-.471,3.254c-.985,1.351-3.837,5.907-3.837,5.907a3.979,3.979,0,0,0-1.03.466A.735.735,0,0,0,2235.878,3035.715Z" transform="translate(-2188.771 -2891.043)" fill="url(#linear-gradient-12)"/>
          <path id="Trazado_1223752" data-name="Trazado 1223752" d="M1995.787,1819.863a35.22,35.22,0,0,1-.15,7.383c-.471,5.414-2.721,18.124-2.263,30.286,0,0,6.4,1.49,17.511.784,0,0,4.69-18.987,3.548-26.205s-7.341-12.4-7.341-12.4Z" transform="translate(-1963.563 -1767.428)" fill="url(#linear-gradient-13)"/>
          <path id="Trazado_1223753" data-name="Trazado 1223753" d="M2089.031,1220.07l-.781,9.193h7.428l-1.847-14.033Z" transform="translate(-2052.081 -1203.81)" fill="url(#linear-gradient-14)"/>
          <path id="Trazado_1223754" data-name="Trazado 1223754" d="M1983.066,1400.314c-2.564-.141-8.3-.4-12.356-.182a4.717,4.717,0,0,0-4.366,3.746l-.99,4.746a11.428,11.428,0,0,0,.161,5.34l3.978,14.6s3.539,2.126,11.306-.149c0,0,6.821-16.267,4.029-26.673A1.934,1.934,0,0,0,1983.066,1400.314Z" transform="translate(-1937.268 -1376.132)" fill="url(#linear-gradient-15)"/>
          <path id="Trazado_1223755" data-name="Trazado 1223755" d="M1664.924,1416.264c-1.094,2.882-2.083,5.9-3.144,8.735-.54,1.417-1.087,2.805-1.673,4.081-.3.635-.622,1.219-.92,1.748a7.745,7.745,0,0,1-.811,1.16c-.035.03.081.052.119.054s-.74.125-.974.164l-.914-.005a31.9,31.9,0,0,1-4.284-.588c-3-.56-6.126-1.346-9.332-1.941l-.025,0a1.13,1.13,0,0,0-.953,1.959,32.855,32.855,0,0,0,4.085,2.983c.716.438,1.444.866,2.183,1.278.755.385,1.511.772,2.3,1.131a26.676,26.676,0,0,0,5.1,1.733c.495.083.983.17,1.493.238.571.02,1.09.07,1.713.034.331-.033.664-.073,1-.122a4.5,4.5,0,0,0,.522-.094c.227-.068.455-.145.678-.229a7.064,7.064,0,0,0,1.15-.582c.315-.208.6-.425.882-.648a11.93,11.93,0,0,0,2.232-2.583,20.435,20.435,0,0,0,1.407-2.491,33.958,33.958,0,0,0,1.936-4.893,45.662,45.662,0,0,0,2.022-9.909,2.975,2.975,0,0,0-5.745-1.314Z" transform="translate(-1635.654 -1389.369)" fill="url(#linear-gradient-16)"/>
          <path id="Trazado_1223756" data-name="Trazado 1223756" d="M1561.591,1596.828l-1.326-3.147-6.977-1.738s-.558,1.209,2.372,1.738a2.558,2.558,0,0,0-.488,2.517C1555.73,1597.559,1561.66,1598.923,1561.591,1596.828Z" transform="translate(-1553.246 -1555.056)" fill="url(#linear-gradient-17)"/>
          <path id="Trazado_1223757" data-name="Trazado 1223757" d="M2035.409,1109.3c-.265.156-2.355,7.527-.6,10.617s7.1-.371,8.549-4.84S2042.475,1105.136,2035.409,1109.3Z" transform="translate(-2001.604 -1103.661)" fill="url(#linear-gradient-18)"/>
          <path id="Trazado_1223758" data-name="Trazado 1223758" d="M2035.388,1057.729c1.2,5.877,5.174,4.268,7.989,6.883,4.563,4.238,11.089-.131,17.434,3.885,4.581,2.9,6.788,10.316,4.59,16.3-3.045,8.294-13.449,11.705-18.841,9.179-5.153-2.414-4.419-9.645-11.353-12.44-2.943-1.186-4.4-.415-6.159-2.174-3.086-3.078-2.253-9.052-1.932-11.353.7-4.993,2.37-5.9,1.57-8.092-1.556-4.268-8.815-3.388-9.42-6.4-.551-2.744,4.711-7.945,9.662-7.126C2036.588,1047.664,2034.854,1055.111,2035.388,1057.729Z" transform="translate(-1987.723 -1046.31)" fill="url(#linear-gradient-19)"/>
          <path id="Trazado_1223759" data-name="Trazado 1223759" d="M2523.849,1392.577a.2.2,0,0,0,.195-.153c.981-4.072.536-7.411-1.323-9.926-3.085-4.173-9.081-4.586-9.142-4.589a.2.2,0,0,0-.212.188.2.2,0,0,0,.188.212c.059,0,5.873.407,8.845,4.43,1.784,2.415,2.206,5.641,1.254,9.591a.2.2,0,0,0,.148.242A.232.232,0,0,0,2523.849,1392.577Z" transform="translate(-2448.458 -1355.489)" fill="#fff" opacity="0.6"/>
          <path id="Trazado_1223760" data-name="Trazado 1223760" d="M2175.5,1340.988a.112.112,0,0,0,.025,0,.1.1,0,0,0,.072-.122c-.956-3.666-2.632-6.211-4.982-7.567a9.847,9.847,0,0,0-4.724-1.159,5.31,5.31,0,0,1-3.485-.988c-1.958-1.74-1.844-5.925.337-12.437a.1.1,0,0,0-.191-.063c-2.208,6.6-2.3,10.851-.279,12.65,1,.889,2.207.958,3.606,1.039a9.686,9.686,0,0,1,4.635,1.133c2.3,1.327,3.947,3.832,4.888,7.444A.1.1,0,0,0,2175.5,1340.988Z" transform="translate(-2119.752 -1300.172)" fill="#fff" opacity="0.72"/>
          <path id="Trazado_1223761" data-name="Trazado 1223761" d="M2059.256,1121.641a.107.107,0,0,0,.032,0,.1.1,0,0,0,.063-.127c-.76-2.26-2.948-1.924-5.266-1.567a10.192,10.192,0,0,1-4.271.077c-.96-.285-1.531-.726-1.7-1.311-.281-1,.7-2.109.715-2.12a.1.1,0,0,0-.149-.134,2.874,2.874,0,0,0-.759,2.308c.185.656.8,1.144,1.832,1.449a10.324,10.324,0,0,0,4.359-.071c2.327-.357,4.339-.667,5.045,1.433A.1.1,0,0,0,2059.256,1121.641Z" transform="translate(-2014.428 -1111.68)" fill="#fff" opacity="0.72"/>
        </g>
        <g id="Grupo_1234348" data-name="Grupo 1234348" transform="translate(141.539 10.524)">
          <g id="Grupo_1234345" data-name="Grupo 1234345">
            <path id="Trazado_1223762" data-name="Trazado 1223762" d="M2543.39,597.778c0-10.343,8.761-18.727,19.276-18.726a17.928,17.928,0,0,1,18.256,17.74c0,9.8-8.053,18.161-18.256,18.7C2552.151,616.044,2543.39,608.121,2543.39,597.778Z" transform="translate(-2543.39 -579.052)" fill="url(#linear-gradient-20)"/>
          </g>
          <g id="Grupo_1234346" data-name="Grupo 1234346" transform="translate(1.758 1.709)">
            <path id="Trazado_1223763" data-name="Trazado 1223763" d="M2569.4,621.3c0-9.374,7.94-16.972,17.469-16.971a16.249,16.249,0,0,1,16.546,16.077c0,8.878-7.3,16.459-16.546,16.946C2577.34,637.851,2569.4,630.671,2569.4,621.3Z" transform="translate(-2569.4 -604.326)" fill="url(#linear-gradient-21)"/>
          </g>
          <g id="Grupo_1234347" data-name="Grupo 1234347" transform="translate(10.621 6.136)">
            <path id="Trazado_1223764" data-name="Trazado 1223764" d="M2722.5,681.3h-1.565v-6.239a4.857,4.857,0,0,1,4.267-4.817l3.2-.389a4.853,4.853,0,0,1,5.438,4.817v5.447h-1.565V674.67a3.287,3.287,0,0,0-3.684-3.263l-3.2.389a3.29,3.29,0,0,0-2.891,3.263V681.3Z" transform="translate(-2719.551 -669.817)" fill="#fff"/>
            <path id="Trazado_1223765" data-name="Trazado 1223765" d="M2701.41,808.4l13.724-.76a.973.973,0,0,1,1.026.971v10.872a.972.972,0,0,1-.972.972h-13.394a.973.973,0,0,1-.972-.941l-.33-10.112A.973.973,0,0,1,2701.41,808.4Z" transform="translate(-2700.492 -798.325)" fill="#fff"/>
            <path id="Trazado_1223766" data-name="Trazado 1223766" d="M2787.132,853.767l-.831-2.388a.8.8,0,0,1,.182-.825,2.261,2.261,0,1,0-3.034.169.8.8,0,0,1,.262.891l-.749,2.153a.806.806,0,0,0,.761,1.07h2.647A.806.806,0,0,0,2787.132,853.767Z" transform="translate(-2777.06 -834.747)" fill="url(#linear-gradient-22)"/>
          </g>
        </g>
        <g id="Grupo_1234357" data-name="Grupo 1234357" transform="translate(1.191 111.042)">
          <g id="Grupo_1234352" data-name="Grupo 1234352">
            <g id="Grupo_1234349" data-name="Grupo 1234349" transform="translate(0 25.678)" opacity="0.3">
              <path id="Trazado_1223767" data-name="Trazado 1223767" d="M512.816,2550.713a.793.793,0,0,1-.264.995c-.7.467-1.432.908-2.173,1.312a.72.72,0,0,1-.993-.33l-.006-.014a.79.79,0,0,1,.318-1.028c.7-.384,1.4-.8,2.064-1.246a.715.715,0,0,1,1.016.24A.739.739,0,0,1,512.816,2550.713Zm-5.759,2.941a.8.8,0,0,1,.034.085.782.782,0,0,1-.444.987c-.786.293-1.591.554-2.394.776a.735.735,0,0,1-.9-.551.776.776,0,0,1,.523-.944c.763-.21,1.528-.458,2.275-.738A.722.722,0,0,1,507.058,2553.654Zm-6.234,1.533a.8.8,0,0,1,.072.252.763.763,0,0,1-.643.858c-.827.1-1.668.168-2.5.2a.774.774,0,0,1-.049-1.545c.791-.025,1.59-.088,2.375-.186A.732.732,0,0,1,500.823,2555.188Zm-6.409.03a.8.8,0,0,1,.073.426.744.744,0,0,1-.809.685c-.829-.095-1.664-.229-2.481-.4a.775.775,0,0,1-.582-.907.736.736,0,0,1,.862-.609c.777.16,1.57.286,2.357.377A.74.74,0,0,1,494.414,2555.218Zm-6.258-1.471a.806.806,0,0,1,.037.594.726.726,0,0,1-.934.478c-.787-.284-1.573-.609-2.336-.963a.79.79,0,0,1-.378-1.019.721.721,0,0,1,.97-.394c.726.337,1.473.645,2.22.915A.75.75,0,0,1,488.156,2553.746Zm-5.8-2.888a.806.806,0,0,1-.032.75.714.714,0,0,1-1.012.25c-.709-.461-1.408-.959-2.077-1.481a.8.8,0,0,1-.153-1.082.713.713,0,0,1,1.029-.158c.636.5,1.3.97,1.973,1.408A.76.76,0,0,1,482.36,2550.858Zm-13.58-24.561a.8.8,0,0,1,.076.317c.028.83.091,1.669.187,2.5a.763.763,0,0,1-.641.859.746.746,0,0,1-.819-.675c-.1-.87-.167-1.754-.2-2.628a.755.755,0,0,1,.709-.8A.734.734,0,0,1,468.781,2526.3Zm8.538,20.4a.8.8,0,0,1-.134.886.711.711,0,0,1-1.04.006c-.594-.614-1.169-1.264-1.711-1.929a.8.8,0,0,1,.08-1.089.712.712,0,0,1,1.037.087c.514.633,1.061,1.249,1.625,1.833A.766.766,0,0,1,477.319,2546.7Zm-7.591-13.741a.8.8,0,0,1,.053.146c.2.8.444,1.607.713,2.391a.782.782,0,0,1-.443.988.727.727,0,0,1-.942-.467c-.283-.824-.535-1.671-.75-2.516a.775.775,0,0,1,.521-.945A.726.726,0,0,1,469.728,2532.956Zm3.558,8.5a.794.794,0,0,1-.263.994.716.716,0,0,1-1.016-.238c-.448-.738-.871-1.506-1.258-2.282l-.007-.015a.79.79,0,0,1,.317-1.027.72.72,0,0,1,.993.328c.368.737.77,1.467,1.2,2.167C473.261,2541.411,473.275,2541.436,473.286,2541.46Z" transform="translate(-467.386 -2520.45)" fill="url(#linear-gradient-23)"/>
              <path id="Trazado_1223768" data-name="Trazado 1223768" d="M470.974,2446.168a.8.8,0,0,1,.069.456c-.055.394-.1.8-.144,1.195a.743.743,0,0,1-.809.685.766.766,0,0,1-.654-.851c.042-.419.093-.842.151-1.256a.726.726,0,0,1,1.387-.228Z" transform="translate(-469.294 -2445.738)" fill="url(#linear-gradient-24)"/>
            </g>
            <g id="Grupo_1234350" data-name="Grupo 1234350" transform="translate(11.008)" opacity="0.3">
              <path id="Trazado_1223769" data-name="Trazado 1223769" d="M632.548,2149a.8.8,0,0,1-.231.971c-.308.231-.618.473-.919.718a.713.713,0,0,1-1.032-.137.8.8,0,0,1,.128-1.084c.317-.258.642-.513.967-.756a.714.714,0,0,1,1.026.182A.861.861,0,0,1,632.548,2149Z" transform="translate(-630.21 -2142.978)" fill="url(#linear-gradient-25)"/>
              <path id="Trazado_1223770" data-name="Trazado 1223770" d="M733.723,2083.064q.226.478.439.968a.787.787,0,0,1-.364,1.022.724.724,0,0,1-.975-.384c-.327-.753-.682-1.491-1.06-2.2a.792.792,0,0,1,.282-1.051.718.718,0,0,1,1,.3C733.28,2082.156,733.508,2082.61,733.723,2083.064Zm1.806,4.789a.789.789,0,0,1,.046.123c.237.826.443,1.672.612,2.513a.771.771,0,0,1-.567.914.738.738,0,0,1-.872-.6c-.161-.8-.357-1.6-.582-2.388a.778.778,0,0,1,.492-.961A.725.725,0,0,1,735.53,2087.854Zm-4.605-9.542a.8.8,0,0,1-.215.959.714.714,0,0,1-1.031-.153c-.469-.652-.971-1.292-1.492-1.9a.8.8,0,0,1,.055-1.091.712.712,0,0,1,1.039.061c.549.642,1.078,1.316,1.572,2A.837.837,0,0,1,730.924,2078.312Zm5.749,16.061a.8.8,0,0,1,.075.289c.058.859.082,1.732.071,2.593a.737.737,0,1,1-1.471-.025c.01-.817-.012-1.645-.068-2.461a.759.759,0,0,1,.682-.824A.733.733,0,0,1,736.673,2094.373ZM726.587,2073.5a.8.8,0,0,1-.1.843.711.711,0,0,1-1.037.09c-.594-.528-1.217-1.036-1.853-1.512a.8.8,0,0,1-.174-1.078.712.712,0,0,1,1.025-.18c.67.5,1.326,1.036,1.951,1.592A.76.76,0,0,1,726.587,2073.5Zm-5.235-3.7a.807.807,0,0,1-.006.7.718.718,0,0,1-.993.325c-.691-.38-1.405-.734-2.122-1.052a.788.788,0,0,1-.394-1.012.722.722,0,0,1,.963-.412c.755.335,1.506.707,2.234,1.107A.757.757,0,0,1,721.352,2069.8Zm-5.877-2.416a.806.806,0,0,1,.052.544.731.731,0,0,1-.9.545c-.754-.214-1.523-.4-2.289-.543a.772.772,0,0,1-.594-.9.737.737,0,0,1,.854-.622c.806.154,1.616.346,2.409.571A.746.746,0,0,1,715.475,2067.381Zm-6.235-1.013a.8.8,0,0,1,.076.375.749.749,0,0,1-.765.739c-.779-.035-1.568-.036-2.345,0a.774.774,0,0,1-.064-1.544c.819-.036,1.649-.035,2.469,0A.739.739,0,0,1,709.24,2066.367Zm-6.294.449a.8.8,0,0,1,.065.205.768.768,0,0,1-.591.9c-.765.146-1.533.327-2.285.541a.735.735,0,0,1-.9-.545.776.776,0,0,1,.517-.947c.792-.224,1.6-.416,2.406-.568A.729.729,0,0,1,702.946,2066.816Zm-6.039,1.889.019.043a.786.786,0,0,1-.39,1.012c-.528.233-1.055.487-1.568.754q-.278.145-.552.3a.72.72,0,0,1-.993-.328.781.781,0,0,1,.309-1.042q.288-.159.581-.311c.539-.281,1.094-.547,1.649-.793A.721.721,0,0,1,696.907,2068.705Z" transform="translate(-689.067 -2065.909)" fill="url(#linear-gradient-26)"/>
              <path id="Trazado_1223771" data-name="Trazado 1223771" d="M1308.619,2579.181a.8.8,0,0,1,.068.46c-.06.414-.129.833-.206,1.248a.736.736,0,0,1-.862.609.773.773,0,0,1-.582-.907c.073-.394.139-.793.2-1.186a.726.726,0,0,1,1.386-.224Z" transform="translate(-1261.267 -2544.08)" fill="url(#linear-gradient-27)"/>
            </g>
            <g id="Grupo_1234351" data-name="Grupo 1234351" transform="translate(7.633 8.331)">
              <path id="Trazado_1223772" data-name="Trazado 1223772" d="M622.943,2218.956a.375.375,0,0,0-.077-.411l-3.043-3.025a20.088,20.088,0,0,0,.19-6.2l3.218-2.8a.372.372,0,0,0,.1-.405l-1.772-4.937a.346.346,0,0,0-.332-.235l-4.18.116A18.876,18.876,0,0,0,613,2196.53l.386-4.375a.365.365,0,0,0-.2-.363l-4.574-2.183a.33.33,0,0,0-.392.08l-2.873,3.189a17.369,17.369,0,0,0-5.9-.214l-2.672-3.386a.333.333,0,0,0-.386-.108l-4.7,1.85a.36.36,0,0,0-.222.347l.12,4.391a18.566,18.566,0,0,0-4.305,4.235l-4.167-.416a.341.341,0,0,0-.345.21l-2.067,4.8a.374.374,0,0,0,.077.411l3.043,3.025a20.086,20.086,0,0,0-.19,6.2l-3.217,2.8a.372.372,0,0,0-.1.4l1.773,4.937a.345.345,0,0,0,.332.234l4.18-.116a18.862,18.862,0,0,0,4.043,4.532l-.386,4.376a.364.364,0,0,0,.2.362l4.574,2.183a.332.332,0,0,0,.392-.08l2.872-3.189a17.37,17.37,0,0,0,5.9.214l2.671,3.386a.334.334,0,0,0,.386.108l4.7-1.85a.36.36,0,0,0,.222-.347l-.12-4.391a18.563,18.563,0,0,0,4.305-4.235l4.167.416a.341.341,0,0,0,.345-.21Z" transform="translate(-580.298 -2189.147)" fill="url(#linear-gradient-28)"/>
              <path id="Trazado_1223773" data-name="Trazado 1223773" d="M833.646,2448.386a5.463,5.463,0,0,1-1.636,6.7,4.906,4.906,0,0,1-7.024-1.339,5.481,5.481,0,0,1-.826-3.964,5.279,5.279,0,0,1,2.084-3.409,4.905,4.905,0,0,1,7.024,1.339A5.371,5.371,0,0,1,833.646,2448.386Zm-7.986,4.142a4.145,4.145,0,0,0,.293.519,3.761,3.761,0,0,0,5.385,1.027,4.194,4.194,0,0,0,.965-5.654,3.761,3.761,0,0,0-5.385-1.027,4.047,4.047,0,0,0-1.6,2.614A4.219,4.219,0,0,0,825.66,2452.528Z" transform="translate(-807.599 -2428.109)" fill="#fff" opacity="0.56"/>
              <path id="Trazado_1223774" data-name="Trazado 1223774" d="M737.151,2337.633q.282.6.51,1.229h0q.072.2.137.4a13.7,13.7,0,0,1,.49,2.024l0,.028c0,.026.008.053.012.08.008.052.016.1.023.155a.311.311,0,0,1-.16.322.271.271,0,0,1-.088.029.3.3,0,0,1-.334-.261,13.017,13.017,0,0,0-.635-2.559,12.037,12.037,0,0,0-8.651-7.787,11.2,11.2,0,0,0-6.578.52,11.476,11.476,0,0,0-1.115.508,12.028,12.028,0,0,0-5.481,5.976,12.9,12.9,0,0,0-.288,9.494,11.536,11.536,0,0,0,16.33,6.767,11.876,11.876,0,0,0,3.986-3.382.294.294,0,0,1,.1-.085.283.283,0,0,1,.314.035.32.32,0,0,1,.048.434,12.46,12.46,0,0,1-4.184,3.551,12.091,12.091,0,0,1-1.155.527,12.281,12.281,0,0,1-15.988-7.63,13.542,13.542,0,0,1,.3-9.967,12.629,12.629,0,0,1,5.754-6.274,12.494,12.494,0,0,1,1.17-.533,11.788,11.788,0,0,1,9.491.341A12.65,12.65,0,0,1,737.151,2337.633Z" transform="translate(-704.626 -2320.847)" fill="#fff" opacity="0.56"/>
            </g>
          </g>
          <g id="Grupo_1234356" data-name="Grupo 1234356" transform="translate(41.685 35.336)">
            <g id="Grupo_1234353" data-name="Grupo 1234353" transform="translate(0 25.763)" opacity="0.3">
              <path id="Trazado_1223775" data-name="Trazado 1223775" d="M1537.876,3105.744a.493.493,0,0,1-.1.562c-.283.275-.578.544-.876.8a.441.441,0,0,1-.64-.068.493.493,0,0,1,.063-.672c.284-.245.565-.5.835-.764a.441.441,0,0,1,.642.028A.449.449,0,0,1,1537.876,3105.744Z" transform="translate(-1505.589 -3096.297)" fill="url(#linear-gradient-29)"/>
              <path id="Trazado_1223776" data-name="Trazado 1223776" d="M1113.5,2981.345a.49.49,0,0,1-.164.615,19.4,19.4,0,0,1-1.742,1.026q-.188.1-.378.191a.461.461,0,0,1-.605-.229.487.487,0,0,1,.217-.635q.182-.09.362-.184a18.434,18.434,0,0,0,1.662-.978.442.442,0,0,1,.627.15C1113.486,2981.317,1113.494,2981.331,1113.5,2981.345Zm-4.267,2.1a.5.5,0,0,1,.025.064.482.482,0,0,1-.289.6,18.782,18.782,0,0,1-2.339.641.458.458,0,0,1-.534-.376.475.475,0,0,1,.357-.56,18.109,18.109,0,0,0,2.231-.612A.448.448,0,0,1,1109.234,2983.448Zm-4.628.952a.5.5,0,0,1,.046.179.469.469,0,0,1-.421.509,18.7,18.7,0,0,1-2.42.018.47.47,0,0,1-.43-.5.462.462,0,0,1,.478-.45,17.789,17.789,0,0,0,2.307-.017A.455.455,0,0,1,1104.606,2984.4Zm-4.712-.272a.5.5,0,0,1,.041.3.455.455,0,0,1-.527.385,18.944,18.944,0,0,1-2.351-.6.483.483,0,0,1-.3-.6.449.449,0,0,1,.568-.313,17.991,17.991,0,0,0,2.242.576A.456.456,0,0,1,1099.894,2984.128Zm-4.508-1.473a.5.5,0,0,1,.008.408.445.445,0,0,1-.6.239,19.586,19.586,0,0,1-2.141-1.186.491.491,0,0,1-.153-.656.441.441,0,0,1,.624-.159,18.746,18.746,0,0,0,2.043,1.131A.467.467,0,0,1,1095.386,2982.655Zm-4.033-2.577a.5.5,0,0,1-.05.508.439.439,0,0,1-.638.078,19.907,19.907,0,0,1-1.8-1.7.494.494,0,0,1,0-.675.439.439,0,0,1,.642.006,19.039,19.039,0,0,0,1.718,1.618A.463.463,0,0,1,1091.353,2980.078Zm-3.312-3.53a.491.491,0,0,1-.13.59.441.441,0,0,1-.637-.089,20.855,20.855,0,0,1-1.352-2.11.492.492,0,0,1,.162-.653.443.443,0,0,1,.622.171,19.736,19.736,0,0,0,1.289,2.012A.489.489,0,0,1,1088.041,2976.548Zm-3.195-6.615a.5.5,0,0,1,.029.079,20.511,20.511,0,0,0,.669,1.988c.038.1.077.2.117.292a.486.486,0,0,1-.236.627.443.443,0,0,1-.6-.248c-.042-.1-.084-.205-.124-.309a21.612,21.612,0,0,1-.7-2.083.48.48,0,0,1,.308-.592A.449.449,0,0,1,1084.846,2969.933Z" transform="translate(-1083.985 -2969.668)" fill="url(#linear-gradient-30)"/>
            </g>
            <g id="Grupo_1234354" data-name="Grupo 1234354" transform="translate(18.457)" opacity="0.3">
              <path id="Trazado_1223777" data-name="Trazado 1223777" d="M1374.841,2599.815a.488.488,0,0,1-.2.636.445.445,0,0,1-.612-.208,20.074,20.074,0,0,0-1.157-2.052.494.494,0,0,1,.121-.663.442.442,0,0,1,.631.129,21.085,21.085,0,0,1,1.213,2.152S1374.839,2599.813,1374.841,2599.815Zm.936,2.237a.453.453,0,0,1,.019.047,21.73,21.73,0,0,1,.692,2.393.478.478,0,0,1-.336.574.456.456,0,0,1-.548-.354,20.813,20.813,0,0,0-.66-2.283.483.483,0,0,1,.268-.613A.446.446,0,0,1,1375.777,2602.052Zm-3.541-6.276a.493.493,0,0,1-.108.571.44.44,0,0,1-.641-.046,19.38,19.38,0,0,0-1.6-1.7.494.494,0,0,1-.035-.674.44.44,0,0,1,.642-.036,20.434,20.434,0,0,1,1.672,1.782A.481.481,0,0,1,1372.236,2595.776Zm4.618,11.021a.5.5,0,0,1,.045.159,21.443,21.443,0,0,1,.121,2.5.464.464,0,0,1-.459.471.469.469,0,0,1-.45-.483,20.6,20.6,0,0,0-.116-2.381.471.471,0,0,1,.4-.527A.451.451,0,0,1,1376.854,2606.8Zm-8.073-14.281a.5.5,0,0,1-.034.486.441.441,0,0,1-.633.117,18.612,18.612,0,0,0-1.936-1.247.49.49,0,0,1-.188-.646.443.443,0,0,1,.615-.2,19.677,19.677,0,0,1,2.03,1.308A.472.472,0,0,1,1368.781,2592.516Zm-4.1-2.3a.5.5,0,0,1,.017.384.448.448,0,0,1-.587.273,18.331,18.331,0,0,0-2.163-.726.481.481,0,0,1-.33-.581.452.452,0,0,1,.551-.344,19.28,19.28,0,0,1,2.268.761A.468.468,0,0,1,1364.683,2590.22Zm-4.5-1.2a.494.494,0,0,1,.044.272.458.458,0,0,1-.508.413,17.749,17.749,0,0,0-2.265-.161.477.477,0,0,1,0-.954,18.719,18.719,0,0,1,2.375.167A.457.457,0,0,1,1360.183,2589.02Z" transform="translate(-1357.001 -2588.591)" fill="url(#linear-gradient-31)"/>
              <path id="Trazado_1223778" data-name="Trazado 1223778" d="M1635.521,2926.661a.5.5,0,0,1,.043.275c-.052.405-.115.81-.188,1.2a.455.455,0,0,1-.533.376.479.479,0,0,1-.359-.56c.07-.376.13-.762.179-1.148a.449.449,0,0,1,.857-.146Z" transform="translate(-1615.717 -2903.558)" fill="url(#linear-gradient-32)"/>
            </g>
            <g id="Grupo_1234355" data-name="Grupo 1234355" transform="translate(4.301 5.535)">
              <path id="Trazado_1223779" data-name="Trazado 1223779" d="M1176.148,2690.4a.25.25,0,0,0-.052-.275l-2.036-2.024a13.447,13.447,0,0,0,.127-4.148l2.153-1.872a.249.249,0,0,0,.068-.271l-1.186-3.3a.232.232,0,0,0-.222-.157l-2.8.078a12.629,12.629,0,0,0-2.705-3.033l.259-2.928a.244.244,0,0,0-.134-.243l-3.061-1.461a.222.222,0,0,0-.262.054l-1.922,2.134a11.63,11.63,0,0,0-3.95-.143l-1.788-2.266a.223.223,0,0,0-.258-.072l-3.142,1.238a.241.241,0,0,0-.149.233l.081,2.938a12.434,12.434,0,0,0-2.881,2.834l-2.788-.278a.227.227,0,0,0-.231.141l-1.384,3.211a.251.251,0,0,0,.052.275l2.036,2.024a13.43,13.43,0,0,0-.127,4.148l-2.153,1.873a.249.249,0,0,0-.068.271l1.186,3.3a.23.23,0,0,0,.222.156l2.8-.077a12.627,12.627,0,0,0,2.7,3.032l-.258,2.928a.244.244,0,0,0,.134.243l3.061,1.461a.222.222,0,0,0,.262-.054l1.922-2.134a11.629,11.629,0,0,0,3.95.144l1.788,2.265a.223.223,0,0,0,.258.073l3.143-1.238a.241.241,0,0,0,.149-.233l-.081-2.938a12.431,12.431,0,0,0,2.881-2.834l2.788.279a.227.227,0,0,0,.231-.14Z" transform="translate(-1147.612 -2670.458)" fill="url(#linear-gradient-33)"/>
              <path id="Trazado_1223780" data-name="Trazado 1223780" d="M1316.408,2843a3.748,3.748,0,0,1,.3,2.239,3.6,3.6,0,0,1-1.419,2.323,3.342,3.342,0,0,1-4.784-.912,3.728,3.728,0,0,1,.857-5.023,3.28,3.28,0,0,1,2.569-.584,3.414,3.414,0,0,1,2.215,1.5A3.7,3.7,0,0,1,1316.408,2843Zm-5.345,2.771a2.721,2.721,0,0,0,.189.336,2.458,2.458,0,0,0,3.519.671,2.645,2.645,0,0,0,1.044-1.708,2.752,2.752,0,0,0-.414-1.987h0a2.51,2.51,0,0,0-1.629-1.1,2.413,2.413,0,0,0-1.891.43A2.738,2.738,0,0,0,1311.064,2845.769Z" transform="translate(-1298.922 -2829.453)" fill="#fff" opacity="0.56"/>
              <path id="Trazado_1223781" data-name="Trazado 1223781" d="M1249.258,2766.038q.192.406.348.839a9.431,9.431,0,0,1,.448,1.771l.012.082a.481.481,0,0,1-.246.5.441.441,0,0,1-.136.045.46.46,0,0,1-.516-.4,8.393,8.393,0,0,0-.411-1.656h0l-.032-.088a7.987,7.987,0,0,0-2.174-3.211,7.682,7.682,0,0,0-1.738-1.166l-.016-.008-.047-.023a7.271,7.271,0,0,0-5.853-.21,7.615,7.615,0,0,0-.722.329,7.789,7.789,0,0,0-3.548,3.869,8.352,8.352,0,0,0-.186,6.146,7.871,7.871,0,0,0,4.006,4.495,7.267,7.267,0,0,0,5.852.21,7.46,7.46,0,0,0,.712-.324,7.683,7.683,0,0,0,2.58-2.19.452.452,0,0,1,.154-.13.436.436,0,0,1,.484.054.494.494,0,0,1,.074.671,8.6,8.6,0,0,1-2.887,2.45,8.306,8.306,0,0,1-.8.363,8.131,8.131,0,0,1-6.548-.235,8.79,8.79,0,0,1-4.482-5.029,9.341,9.341,0,0,1,.208-6.877,8.712,8.712,0,0,1,3.97-4.328,8.332,8.332,0,0,1,11.489,4.057Z" transform="translate(-1227.26 -2754.917)" fill="#fff" opacity="0.56"/>
            </g>
          </g>
        </g>
      </g>
    </g>
  </g>
</svg>
