<svg xmlns="http://www.w3.org/2000/svg" xmlns:xlink="http://www.w3.org/1999/xlink" width="103" height="103" viewBox="0 0 103 103">
  <defs>
    <filter id="Trazado_978624" x="0" y="0" width="103" height="103" filterUnits="userSpaceOnUse">
      <feOffset dy="3" input="SourceAlpha"/>
      <feGaussianBlur stdDeviation="3" result="blur"/>
      <feFlood flood-opacity="0.161"/>
      <feComposite operator="in" in2="blur"/>
      <feComposite in="SourceGraphic"/>
    </filter>
  </defs>
  <g id="Grupo_1235103" data-name="Grupo 1235103" transform="translate(-171 -18015.447)">
    <g id="Grupo_1234456" data-name="Grupo 1234456" transform="translate(-0.869 16233.119)">
      <g id="Grupo_1227500" data-name="Grupo 1227500" transform="translate(0.869 640.328)">
        <g id="Grupo_1225355" data-name="Grupo 1225355" transform="translate(180 1148)">
          <g id="Grupo_1176881" data-name="Grupo 1176881">
            <g id="Grupo_1175148" data-name="Grupo 1175148">
              <g id="Grupo_1173798" data-name="Grupo 1173798">
                <g id="Grupo_1171925" data-name="Grupo 1171925">
                  <g id="Grupo_1164524" data-name="Grupo 1164524">
                    <g id="Grupo_1144123" data-name="Grupo 1144123">
                      <g transform="matrix(1, 0, 0, 1, -9, -6)" filter="url(#Trazado_978624)">
                        <g id="Trazado_978624-2" data-name="Trazado 978624" transform="translate(9 6)" fill="#f6ecfe">
                          <path d="M 42.5 83.5 C 36.96437835693359 83.5 31.59512901306152 82.41617584228516 26.54141235351562 80.27863311767578 C 21.65934181213379 78.21369171142578 17.27447128295898 75.25723266601562 13.50862312316895 71.49137878417969 C 9.742764472961426 67.72553253173828 6.786305904388428 63.34066009521484 4.721364498138428 58.45858764648438 C 2.583823442459106 53.40486907958984 1.5 48.03562164306641 1.5 42.5 C 1.5 36.96437835693359 2.583823442459106 31.59512901306152 4.721364498138428 26.54141235351562 C 6.786305904388428 21.65934181213379 9.742764472961426 17.27447128295898 13.50862312316895 13.50862312316895 C 17.27447128295898 9.742764472961426 21.65934181213379 6.786305904388428 26.54141235351562 4.721364498138428 C 31.59512901306152 2.583823442459106 36.96437835693359 1.5 42.5 1.5 C 48.03562164306641 1.5 53.40486907958984 2.583823442459106 58.45858764648438 4.721364498138428 C 63.34066009521484 6.786305904388428 67.72553253173828 9.742764472961426 71.49137878417969 13.50862312316895 C 75.25723266601562 17.27447128295898 78.21369171142578 21.65934181213379 80.27863311767578 26.54141235351562 C 82.41617584228516 31.59512901306152 83.5 36.96437835693359 83.5 42.5 C 83.5 48.03562164306641 82.41617584228516 53.40486907958984 80.27863311767578 58.45858764648438 C 78.21369171142578 63.34066009521484 75.25723266601562 67.72553253173828 71.49137878417969 71.49137878417969 C 67.72553253173828 75.25723266601562 63.34066009521484 78.21369171142578 58.45858764648438 80.27863311767578 C 53.40486907958984 82.41617584228516 48.03562164306641 83.5 42.5 83.5 Z" stroke="none"/>
                          <path d="M 42.5 3 C 37.16621398925781 3 31.99356079101562 4.043960571289062 27.125732421875 6.102882385253906 C 22.42246627807617 8.092185974121094 18.19785308837891 10.94070434570312 14.56928253173828 14.56928253173828 C 10.94070434570312 18.19785308837891 8.092185974121094 22.42246627807617 6.102882385253906 27.125732421875 C 4.043960571289062 31.99356079101562 3 37.16621398925781 3 42.5 C 3 47.83378601074219 4.043960571289062 53.00643920898438 6.102882385253906 57.87425231933594 C 8.092185974121094 62.57753372192383 10.94070434570312 66.80213165283203 14.56928253173828 70.43071746826172 C 18.19786834716797 74.05929565429688 22.42246627807617 76.90781402587891 27.125732421875 78.89711761474609 C 31.99356079101562 80.95603942871094 37.16621398925781 82 42.5 82 C 47.83378601074219 82 53.00642395019531 80.95603942871094 57.87425231933594 78.89711761474609 C 62.57753372192383 76.90781402587891 66.80213165283203 74.05929565429688 70.43071746826172 70.43071746826172 C 74.05929565429688 66.80213165283203 76.90781402587891 62.57753372192383 78.89711761474609 57.87425231933594 C 80.95603942871094 53.00642395019531 82 47.83378601074219 82 42.5 C 82 37.16621398925781 80.95603942871094 31.99356079101562 78.89711761474609 27.125732421875 C 76.90781402587891 22.42246627807617 74.05929565429688 18.19786834716797 70.43071746826172 14.56928253173828 C 66.80213165283203 10.94070434570312 62.57753372192383 8.092185974121094 57.87425231933594 6.102882385253906 C 53.00643920898438 4.043960571289062 47.83378601074219 3 42.5 3 M 42.5 0 C 65.97209167480469 0 85 19.02789306640625 85 42.5 C 85 65.97209167480469 65.97209167480469 85 42.5 85 C 19.02789306640625 85 0 65.97209167480469 0 42.5 C 0 19.02789306640625 19.02789306640625 0 42.5 0 Z" stroke="none" fill="#aa52f9"/>
                        </g>
                      </g>
                    </g>
                  </g>
                </g>
              </g>
            </g>
          </g>
        </g>
      </g>
    </g>
    <g id="privacidad" transform="translate(193.704 18030.959)">
      <path id="Trazado_1225116" data-name="Trazado 1225116" d="M49.5,187.077a16.818,16.818,0,0,1-33.161-5.507H7.5v28.369a1.687,1.687,0,0,0,1.687,1.687h6.1v-4.8a1.576,1.576,0,0,1,1.575-1.575H49.179a1.577,1.577,0,0,1,1.575,1.575v4.8h6.1a1.687,1.687,0,0,0,1.687-1.687V187.077Z" transform="translate(-6.656 -155.914)" fill="#f2fbff"/>
      <path id="Trazado_1225117" data-name="Trazado 1225117" d="M405.687,230.525v22.862A1.687,1.687,0,0,1,404,255.074h4.75a1.687,1.687,0,0,0,1.687-1.687V230.525Z" transform="translate(-358.557 -199.362)" fill="#dff6fd"/>
      <path id="Trazado_1225118" data-name="Trazado 1225118" d="M18.719,122.248H9.187A1.687,1.687,0,0,0,7.5,123.935v5.1h8.829A16.706,16.706,0,0,1,18.719,122.248Z" transform="translate(-6.656 -103.264)" fill="#fd4755"/>
      <g id="Grupo_1235090" data-name="Grupo 1235090" transform="translate(9.547 11.018)">
        <path id="Trazado_1225119" data-name="Trazado 1225119" d="M115.054,71.58a1.125,1.125,0,0,1-1.125-1.125V59.213a1.125,1.125,0,0,1,1.125-1.125h.03a16.813,16.813,0,1,0,3.088,13.491h-3.118Z" transform="translate(-84.871 -51.435)" fill="#fff"/>
        <path id="Trazado_1225120" data-name="Trazado 1225120" d="M228.713,71.58a1.125,1.125,0,0,1-1.125-1.125V59.213a1.125,1.125,0,0,1,1.125-1.125h.03a16.827,16.827,0,0,0-15.808-6.481,16.817,16.817,0,0,1,0,33.286,16.826,16.826,0,0,0,18.9-13.314Z" transform="translate(-198.53 -51.435)" fill="#f5f8f9"/>
        <g id="Grupo_1235089" data-name="Grupo 1235089" transform="translate(5.822 5.416)">
          <path id="Trazado_1225121" data-name="Trazado 1225121" d="M151.988,255.706a8.683,8.683,0,0,1-8.729,0,11.9,11.9,0,0,0-6.629,6.563,16.816,16.816,0,0,0,21.986,0A11.9,11.9,0,0,0,151.988,255.706Z" transform="translate(-136.63 -238.145)" fill="#26a6fe"/>
          <path id="Trazado_1225122" data-name="Trazado 1225122" d="M247.444,255.706a8.632,8.632,0,0,1-3.259,1.1,15.148,15.148,0,0,1,7.036,7.45,16.856,16.856,0,0,0,2.852-1.991A11.9,11.9,0,0,0,247.444,255.706Z" transform="translate(-232.087 -238.145)" fill="#0593fc"/>
          <g id="Grupo_1235087" data-name="Grupo 1235087" transform="translate(0.971 0)">
            <ellipse id="Elipse_13896" data-name="Elipse 13896" cx="8.69" cy="8.69" rx="8.69" ry="8.69" transform="translate(0 17.137) rotate(-80.218)" fill="#60b7ff"/>
          </g>
          <g id="Grupo_1235088" data-name="Grupo 1235088" transform="translate(9.102 1.357)">
            <path id="Trazado_1225123" data-name="Trazado 1225123" d="M219.443,111.648a8.714,8.714,0,0,0-1.891.209,8.69,8.69,0,0,1,0,16.963,8.69,8.69,0,1,0,1.891-17.172Z" transform="translate(-217.552 -111.648)" fill="#26a6fe"/>
          </g>
        </g>
      </g>
      <g id="Grupo_1235093" data-name="Grupo 1235093" transform="translate(8.514 49.222)">
        <g id="Grupo_1235091" data-name="Grupo 1235091">
          <path id="Trazado_1225124" data-name="Trazado 1225124" d="M109.7,403.169H77.377a1.687,1.687,0,0,1-1.687-1.687v-8.721a1.687,1.687,0,0,1,1.687-1.687H109.7a1.687,1.687,0,0,1,1.687,1.687v8.721A1.687,1.687,0,0,1,109.7,403.169Z" transform="translate(-75.69 -391.074)" fill="#00f2a6"/>
        </g>
        <g id="Grupo_1235092" data-name="Grupo 1235092" transform="translate(28.307)">
          <path id="Trazado_1225125" data-name="Trazado 1225125" d="M333.048,391.074h-5.7a1.687,1.687,0,0,1,1.687,1.687v8.721a1.687,1.687,0,0,1-1.687,1.687h5.7a1.687,1.687,0,0,0,1.687-1.687v-8.721A1.687,1.687,0,0,0,333.048,391.074Z" transform="translate(-327.346 -391.074)" fill="#05e39c"/>
        </g>
      </g>
      <g id="Grupo_1235101" data-name="Grupo 1235101" transform="translate(38.605 6.74)">
        <g id="Grupo_1235100" data-name="Grupo 1235100">
          <g id="Grupo_1235094" data-name="Grupo 1235094" transform="translate(2.21)">
            <path id="Trazado_1225126" data-name="Trazado 1225126" d="M369.711,13.4a6.862,6.862,0,0,0-6.862,6.862v4.183h3.489V20.258a3.373,3.373,0,1,1,6.745,0v4.183h3.489V20.258A6.861,6.861,0,0,0,369.711,13.4Z" transform="translate(-362.849 -13.396)" fill="#c5d3dd"/>
          </g>
          <g id="Grupo_1235097" data-name="Grupo 1235097" transform="translate(3.803)">
            <g id="Grupo_1235095" data-name="Grupo 1235095" transform="translate(0 3.489)">
              <path id="Trazado_1225127" data-name="Trazado 1225127" d="M380.386,44.414a3.377,3.377,0,0,0-3.373,3.373V51.97h1.9V47.787a3.378,3.378,0,0,1,2.425-3.236A3.362,3.362,0,0,0,380.386,44.414Z" transform="translate(-377.013 -44.414)" fill="#b6c4cf"/>
            </g>
            <g id="Grupo_1235096" data-name="Grupo 1235096" transform="translate(4.321)">
              <path id="Trazado_1225128" data-name="Trazado 1225128" d="M416.373,13.4a6.915,6.915,0,0,0-.948.067,6.862,6.862,0,0,1,5.914,6.8v4.183h1.9V20.258A6.862,6.862,0,0,0,416.373,13.4Z" transform="translate(-415.425 -13.396)" fill="#b6c4cf"/>
            </g>
          </g>
          <g id="Grupo_1235098" data-name="Grupo 1235098" transform="translate(0 10.932)">
            <path id="Trazado_1225129" data-name="Trazado 1225129" d="M360.222,124.078H344.329a1.125,1.125,0,0,1-1.125-1.125V111.712a1.125,1.125,0,0,1,1.125-1.125h15.893a1.125,1.125,0,0,1,1.125,1.125v11.241A1.125,1.125,0,0,1,360.222,124.078Z" transform="translate(-343.204 -110.587)" fill="#ffe177"/>
          </g>
          <g id="Grupo_1235099" data-name="Grupo 1235099" transform="translate(12.271 10.932)">
            <path id="Trazado_1225130" data-name="Trazado 1225130" d="M457.042,110.587h-4.747a1.125,1.125,0,0,1,1.125,1.125v11.241a1.125,1.125,0,0,1-1.125,1.125h4.747a1.125,1.125,0,0,0,1.125-1.125V111.712A1.125,1.125,0,0,0,457.042,110.587Z" transform="translate(-452.295 -110.587)" fill="#ffd15b"/>
          </g>
        </g>
      </g>
      <g id="Grupo_1235102" data-name="Grupo 1235102" transform="translate(0 5.896)">
        <path id="Trazado_1225131" data-name="Trazado 1225131" d="M203.829,178.064a.844.844,0,0,0,.844-.844v-1.635a.844.844,0,1,0-1.687,0v1.635A.844.844,0,0,0,203.829,178.064Z" transform="translate(-180.152 -155.75)"/>
        <path id="Trazado_1225132" data-name="Trazado 1225132" d="M251.584,178.064a.844.844,0,0,0,.844-.844v-1.635a.844.844,0,0,0-1.687,0v1.635A.844.844,0,0,0,251.584,178.064Z" transform="translate(-222.536 -155.75)"/>
        <circle id="Elipse_13897" data-name="Elipse 13897" cx="1.687" cy="1.687" r="1.687" transform="translate(14.054 47.908)"/>
        <circle id="Elipse_13898" data-name="Elipse 13898" cx="1.687" cy="1.687" r="1.687" transform="translate(21.135 47.908)"/>
        <circle id="Elipse_13899" data-name="Elipse 13899" cx="1.687" cy="1.687" r="1.687" transform="translate(28.215 47.908)"/>
        <circle id="Elipse_13900" data-name="Elipse 13900" cx="1.687" cy="1.687" r="1.687" transform="translate(35.295 47.908)"/>
        <path id="Trazado_1225133" data-name="Trazado 1225133" d="M55.623,16.828h-.241V13.6a7.705,7.705,0,0,0-15.411,0V16.6A17.639,17.639,0,0,0,11.609,18.14H2.531A2.534,2.534,0,0,0,0,20.671V45.165a.844.844,0,0,0,1.687,0V26.613H8.746c-.028.4-.043.811-.043,1.221a17.659,17.659,0,0,0,34.818,4.173h7.516V54.025a.845.845,0,0,1-.844.844H45.054V50.91a2.534,2.534,0,0,0-2.531-2.531H35.77a.844.844,0,0,0,0,1.687h6.753a.845.845,0,0,1,.844.844v8.721a.845.845,0,0,1-.844.844H10.2a.845.845,0,0,1-.844-.844V50.91a.845.845,0,0,1,.844-.844H31.833a.844.844,0,1,0,0-1.687H10.2A2.534,2.534,0,0,0,7.67,50.91v3.959H2.531a.845.845,0,0,1-.844-.844V49.1A.844.844,0,0,0,0,49.1v4.924a2.534,2.534,0,0,0,2.531,2.531H7.67V59.63A2.534,2.534,0,0,0,10.2,62.161H42.523a2.534,2.534,0,0,0,2.531-2.531V56.556h5.139a2.534,2.534,0,0,0,2.531-2.531V32.007h2.9a1.971,1.971,0,0,0,1.968-1.968V18.8a1.971,1.971,0,0,0-1.968-1.968ZM41.658,13.6a6.018,6.018,0,1,1,12.036,0v3.227h-1.8V13.6a4.216,4.216,0,1,0-8.433,0v3.227h-1.8Zm8.547,0v3.227H45.147V13.6a2.529,2.529,0,1,1,5.058,0ZM1.687,24.925V20.671a.845.845,0,0,1,.844-.844h8.094a17.521,17.521,0,0,0-1.681,5.1ZM26.362,43.806a15.894,15.894,0,0,1-9.962-3.5,10.973,10.973,0,0,1,5.546-5.382,9.5,9.5,0,0,0,8.832,0,10.973,10.973,0,0,1,5.546,5.382,15.9,15.9,0,0,1-9.962,3.5Zm11.265-4.66a12.655,12.655,0,0,0-5.219-5.3,9.532,9.532,0,1,0-15.4-9.2.844.844,0,1,0,1.656.324,7.846,7.846,0,1,1,.122,3.556.844.844,0,1,0-1.629.438,9.506,9.506,0,0,0,3.159,4.887,12.655,12.655,0,0,0-5.218,5.3,15.964,15.964,0,1,1,23.3-21.8,1.962,1.962,0,0,0-.639,1.448V30.038a1.971,1.971,0,0,0,1.968,1.968h2.048a15.979,15.979,0,0,1-4.15,7.139ZM55.9,30.038a.282.282,0,0,1-.281.281H39.73a.282.282,0,0,1-.281-.281V18.8a.282.282,0,0,1,.281-.281H55.623a.282.282,0,0,1,.281.281Z" transform="translate(0 -5.896)"/>
        <path id="Trazado_1225134" data-name="Trazado 1225134" d="M417.2,145.479a.844.844,0,0,0-.844.844v2.559a.844.844,0,1,0,1.687,0v-2.559A.844.844,0,0,0,417.2,145.479Z" transform="translate(-369.52 -129.778)"/>
      </g>
    </g>
  </g>
</svg>
