<svg xmlns="http://www.w3.org/2000/svg" xmlns:xlink="http://www.w3.org/1999/xlink" width="106.16" height="106.16" viewBox="0 0 106.16 106.16">
  <defs>
    <filter id="Trazado_982547" x="0" y="0" width="106.16" height="106.16" filterUnits="userSpaceOnUse">
      <feOffset dy="3" input="SourceAlpha"/>
      <feGaussianBlur stdDeviation="3" result="blur"/>
      <feFlood flood-opacity="0.161"/>
      <feComposite operator="in" in2="blur"/>
      <feComposite in="SourceGraphic"/>
    </filter>
  </defs>
  <g id="Grupo_1234630" data-name="Grupo 1234630" transform="translate(-610.5 -2085)">
    <g id="Grupo_1234626" data-name="Grupo 1234626">
      <g id="Grupo_1234367" data-name="Grupo 1234367" transform="translate(619.5 2091)">
        <g id="Grupo_1230958" data-name="Grupo 1230958">
          <g id="Grupo_1230691" data-name="Grupo 1230691">
            <g id="Grupo_1224851" data-name="Grupo 1224851">
              <g id="Grupo_1206130" data-name="Grupo 1206130">
                <g id="Grupo_1203672" data-name="Grupo 1203672">
                  <g id="Grupo_1203344" data-name="Grupo 1203344" transform="translate(0 0)">
                    <g id="Grupo_1177900" data-name="Grupo 1177900">
                      <g id="Grupo_1172010" data-name="Grupo 1172010" transform="translate(0)">
                        <g id="Grupo_1171046" data-name="Grupo 1171046">
                          <g id="Grupo_1148525" data-name="Grupo 1148525">
                            <g transform="matrix(1, 0, 0, 1, -9, -6)" filter="url(#Trazado_982547)">
                              <g id="Trazado_982547-2" data-name="Trazado 982547" transform="translate(9 6)" fill="#e5ebfb">
                                <path d="M 44.0802001953125 86.660400390625 C 38.33124923706055 86.660400390625 32.75506210327148 85.53479766845703 27.50652503967285 83.31484985351562 C 22.43628692626953 81.17032623291016 17.88242530822754 78.09992218017578 13.97144985198975 74.18894958496094 C 10.06047534942627 70.27797698974609 6.99007511138916 65.72411346435547 4.845550060272217 60.65387344360352 C 2.625600099563599 55.40533828735352 1.500000238418579 49.82915115356445 1.500000238418579 44.0802001953125 C 1.500000238418579 38.33124923706055 2.625600099563599 32.75506210327148 4.845550060272217 27.50652503967285 C 6.99007511138916 22.43628692626953 10.06047534942627 17.88242530822754 13.97144985198975 13.97144985198975 C 17.88242530822754 10.06047534942627 22.43628692626953 6.99007511138916 27.50652503967285 4.845550060272217 C 32.75506210327148 2.625600099563599 38.33124923706055 1.500000238418579 44.0802001953125 1.500000238418579 C 49.82915115356445 1.500000238418579 55.40533828735352 2.625600099563599 60.65387344360352 4.845550060272217 C 65.72411346435547 6.99007511138916 70.27797698974609 10.06047534942627 74.18894958496094 13.97144985198975 C 78.09992218017578 17.88242530822754 81.17032623291016 22.43628692626953 83.31484985351562 27.50652503967285 C 85.53479766845703 32.75506210327148 86.660400390625 38.33124923706055 86.660400390625 44.0802001953125 C 86.660400390625 49.82915115356445 85.53479766845703 55.40533828735352 83.31484985351562 60.65387344360352 C 81.17032623291016 65.72411346435547 78.09992218017578 70.27797698974609 74.18894958496094 74.18894958496094 C 70.27797698974609 78.09992218017578 65.72411346435547 81.17032623291016 60.65387344360352 83.31484985351562 C 55.40533828735352 85.53479766845703 49.82915115356445 86.660400390625 44.0802001953125 86.660400390625 Z" stroke="none"/>
                                <path d="M 44.0802001953125 3 C 38.53308486938477 3 33.15349960327148 4.085746765136719 28.09085845947266 6.227058410644531 C 23.19941711425781 8.29595947265625 18.80581665039062 11.25841522216797 15.03211212158203 15.03211212158203 C 11.25841522216797 18.80581665039062 8.29595947265625 23.19941711425781 6.227058410644531 28.09085845947266 C 4.085746765136719 33.15349960327148 3 38.53308486938477 3 44.0802001953125 C 3 49.62731552124023 4.085746765136719 55.00691604614258 6.227058410644531 60.06954193115234 C 8.29595947265625 64.96098327636719 11.25841522216797 69.35458374023438 15.03211212158203 73.12828826904297 C 18.80581665039062 76.90198516845703 23.19941711425781 79.86444091796875 28.09085845947266 81.93334197998047 C 33.15349960327148 84.07466125488281 38.53308486938477 85.160400390625 44.0802001953125 85.160400390625 C 49.62731552124023 85.160400390625 55.00691604614258 84.07466125488281 60.06954193115234 81.93334197998047 C 64.96099853515625 79.86444091796875 69.35458374023438 76.90198516845703 73.12828826904297 73.12828826904297 C 76.90198516845703 69.35458374023438 79.86444091796875 64.96099853515625 81.93334197998047 60.06954193115234 C 84.07466125488281 55.00691604614258 85.160400390625 49.62731552124023 85.160400390625 44.0802001953125 C 85.160400390625 38.53308486938477 84.07466125488281 33.15349960327148 81.93334197998047 28.09085845947266 C 79.86444091796875 23.19941711425781 76.90198516845703 18.80581665039062 73.12828826904297 15.03211212158203 C 69.35458374023438 11.25841522216797 64.96098327636719 8.29595947265625 60.06954193115234 6.227058410644531 C 55.00691604614258 4.085746765136719 49.62731552124023 3 44.0802001953125 3 M 44.0802001953125 0 C 68.42502593994141 0 88.160400390625 19.73538970947266 88.160400390625 44.0802001953125 C 88.160400390625 68.42502593994141 68.42502593994141 88.160400390625 44.0802001953125 88.160400390625 C 19.73538970947266 88.160400390625 0 68.42502593994141 0 44.0802001953125 C 0 19.73538970947266 19.73538970947266 0 44.0802001953125 0 Z" stroke="none" fill="#0b47db"/>
                              </g>
                            </g>
                          </g>
                        </g>
                      </g>
                    </g>
                  </g>
                </g>
              </g>
            </g>
          </g>
        </g>
      </g>
    </g>
    <g id="sensor-de-huellas-dactilares" transform="translate(625.553 2105.307)">
      <g id="Grupo_1234628" data-name="Grupo 1234628" transform="translate(20.465 0.872)">
        <path id="Trazado_1224360" data-name="Trazado 1224360" d="M105,10.851v51.1a3.351,3.351,0,0,0,3.351,3.351h28.421a3.351,3.351,0,0,0,3.351-3.351v-51.1A3.351,3.351,0,0,0,136.772,7.5H108.351A3.351,3.351,0,0,0,105,10.851Z" transform="translate(-105 -7.5)" fill="#6ed5a1"/>
        <path id="Trazado_1224361" data-name="Trazado 1224361" d="M346.2,7.5h-4.209a3.351,3.351,0,0,1,3.351,3.351v51.1a3.351,3.351,0,0,1-3.351,3.351H346.2a3.351,3.351,0,0,0,3.351-3.351v-51.1A3.351,3.351,0,0,0,346.2,7.5Z" transform="translate(-314.432 -7.5)" fill="#46cc8d"/>
        <path id="Trazado_1224362" data-name="Trazado 1224362" d="M105,469.164v.759a3.351,3.351,0,0,0,3.351,3.351h28.421a3.351,3.351,0,0,0,3.351-3.351v-.759Z" transform="translate(-105 -415.471)" fill="#678d98"/>
        <path id="Trazado_1224363" data-name="Trazado 1224363" d="M349.555,469.923v-.759h-4.209v.759a3.351,3.351,0,0,1-3.351,3.351H346.2A3.351,3.351,0,0,0,349.555,469.923Z" transform="translate(-314.432 -415.471)" fill="#537983"/>
        <path id="Trazado_1224364" data-name="Trazado 1224364" d="M227.638,7.5V9.572a2.038,2.038,0,0,0,2.038,2.038H232.2a2.038,2.038,0,0,0,2.038-2.038V7.5Z" transform="translate(-213.375 -7.5)" fill="#678d98"/>
        <g id="Grupo_1234627" data-name="Grupo 1234627" transform="translate(6.956 16.452)">
          <circle id="Elipse_13875" data-name="Elipse 13875" cx="1.919" cy="1.919" r="1.919" transform="translate(18.775)" fill="#fe5ca7"/>
          <circle id="Elipse_13876" data-name="Elipse 13876" cx="1.919" cy="1.919" r="1.919" transform="translate(0 14.151)" fill="#fe5ca7"/>
        </g>
      </g>
      <g id="Grupo_1234629" data-name="Grupo 1234629" transform="translate(9.34 0)">
        <path id="Trazado_1224365" data-name="Trazado 1224365" d="M65.842,13.776H56.461V4.223A4.228,4.228,0,0,0,52.238,0H23.816a4.228,4.228,0,0,0-4.223,4.223V38.365H10.212a.872.872,0,1,0,0,1.745h9.381V55.323a4.228,4.228,0,0,0,4.223,4.223H52.238a4.228,4.228,0,0,0,4.223-4.223v-9.2a.872.872,0,0,0-1.745,0v7.564H30.3a.872.872,0,1,0,0,1.745H54.711A2.48,2.48,0,0,1,52.238,57.8H23.816a2.48,2.48,0,0,1-2.473-2.365h4.882a.872.872,0,1,0,0-1.745H21.338V40.109H23.5a.872.872,0,0,0,.617-.255l1.507-1.506A13.188,13.188,0,0,0,37.763,46.12a14.072,14.072,0,0,0,3.6-.356.872.872,0,0,0-.4-1.7,12.369,12.369,0,0,1-3.2.309,11.49,11.49,0,0,1-10.815-7.354l1.135-1.135a2.791,2.791,0,1,0,2.129-5.142v-2.7a7.893,7.893,0,0,1,7.76-7.931,7.815,7.815,0,0,1,7.869,7.814v3.687a7.922,7.922,0,0,1-.139,1.477,1.255,1.255,0,0,1-1.163,1.031,1.207,1.207,0,0,1-.88-.331,1.221,1.221,0,0,1-.386-.864c0-.114,0-3.108,0-4.252a5.408,5.408,0,0,0-1.617-3.838,5.149,5.149,0,0,0-3.735-1.5,5.272,5.272,0,0,0-5.138,5.244v6.028A9.458,9.458,0,0,0,37.6,42.848a.872.872,0,0,0,.855-1.521,7.712,7.712,0,0,1-3.928-6.712V28.587a3.518,3.518,0,0,1,3.429-3.5,3.42,3.42,0,0,1,2.479,1,3.652,3.652,0,0,1,1.094,2.592c0,2.8,0,4.244,0,4.281a2.968,2.968,0,0,0,3.073,2.91,3.012,3.012,0,0,0,2.813-2.448,9.658,9.658,0,0,0,.17-1.8V27.93a9.559,9.559,0,0,0-9.559-9.559h-.066a9.642,9.642,0,0,0-9.492,9.675v2.7a2.788,2.788,0,0,0-1.619,3.909l-.471.471a11.636,11.636,0,0,1-.245-2.377V26.8A11.642,11.642,0,0,1,37.764,15.172h.528A11.567,11.567,0,0,1,45.7,17.841a2.79,2.79,0,0,0,3.151,4.094A11.646,11.646,0,0,1,49.921,26.8v5.945a11.51,11.51,0,0,1-2.49,7.192.872.872,0,1,0,1.37,1.08,13.239,13.239,0,0,0,2.864-8.272V26.8a13.389,13.389,0,0,0-1.345-5.847,2.782,2.782,0,0,0,.287-2.967l2.466-2.466h1.643V42.058a.872.872,0,1,0,1.745,0V15.521h9.381a.872.872,0,1,0,0-1.745ZM29.335,32.348h.011a1.047,1.047,0,1,1-.011,0ZM35.6,1.745h4.853v1.2A1.167,1.167,0,0,1,39.288,4.11H36.766A1.167,1.167,0,0,1,35.6,2.944v-1.2Zm11.468,17.5a1.047,1.047,0,1,1,1.047,1.047A1.048,1.048,0,0,1,47.069,19.244Zm5.643-5.468a.873.873,0,0,0-.617.255l-2.722,2.721a2.785,2.785,0,0,0-2.347-.079,13.3,13.3,0,0,0-8.735-3.247h-.528A13.389,13.389,0,0,0,24.39,26.8v5.945a13.332,13.332,0,0,0,.554,3.811l-1.808,1.807h-1.8V4.223a2.482,2.482,0,0,1,2.479-2.479h10.04v1.2a2.913,2.913,0,0,0,2.91,2.91h2.522a2.913,2.913,0,0,0,2.91-2.91v-1.2h10.04a2.482,2.482,0,0,1,2.479,2.479v9.553Z" transform="translate(-9.34 0)"/>
        <path id="Trazado_1224366" data-name="Trazado 1224366" d="M249.372,242.646a.872.872,0,0,0,.872-.872v-2.6a.872.872,0,0,0-1.745,0v2.6A.872.872,0,0,0,249.372,242.646Z" transform="translate(-220.685 -210.585)"/>
        <path id="Trazado_1224367" data-name="Trazado 1224367" d="M253.716,298.617a5.214,5.214,0,0,0,3.407-1.266.872.872,0,0,0-1.14-1.32,3.471,3.471,0,0,1-5.738-2.629.872.872,0,0,0-1.745,0A5.222,5.222,0,0,0,253.716,298.617Z" transform="translate(-220.685 -258.507)"/>
      </g>
    </g>
  </g>
</svg>
