<svg xmlns="http://www.w3.org/2000/svg" xmlns:xlink="http://www.w3.org/1999/xlink" width="106.16" height="106.16" viewBox="0 0 106.16 106.16">
  <defs>
    <filter id="Trazado_982547" x="0" y="0" width="106.16" height="106.16" filterUnits="userSpaceOnUse">
      <feOffset dy="3" input="SourceAlpha"/>
      <feGaussianBlur stdDeviation="3" result="blur"/>
      <feFlood flood-opacity="0.161"/>
      <feComposite operator="in" in2="blur"/>
      <feComposite in="SourceGraphic"/>
    </filter>
  </defs>
  <g id="Grupo_1234632" data-name="Grupo 1234632" transform="translate(-610.5 -2230)">
    <g id="Grupo_1234368" data-name="Grupo 1234368" transform="translate(619.5 2236)">
      <g id="Grupo_1230958" data-name="Grupo 1230958">
        <g id="Grupo_1230691" data-name="Grupo 1230691">
          <g id="Grupo_1224851" data-name="Grupo 1224851">
            <g id="Grupo_1206130" data-name="Grupo 1206130">
              <g id="Grupo_1203672" data-name="Grupo 1203672">
                <g id="Grupo_1203344" data-name="Grupo 1203344" transform="translate(0 0)">
                  <g id="Grupo_1177900" data-name="Grupo 1177900">
                    <g id="Grupo_1172010" data-name="Grupo 1172010" transform="translate(0)">
                      <g id="Grupo_1171046" data-name="Grupo 1171046">
                        <g id="Grupo_1148525" data-name="Grupo 1148525">
                          <g transform="matrix(1, 0, 0, 1, -9, -6)" filter="url(#Trazado_982547)">
                            <g id="Trazado_982547-2" data-name="Trazado 982547" transform="translate(9 6)" fill="#e5ebfb">
                              <path d="M 44.0802001953125 86.660400390625 C 38.33124923706055 86.660400390625 32.75506210327148 85.53479766845703 27.50652503967285 83.31484985351562 C 22.43628692626953 81.17032623291016 17.88242530822754 78.09992218017578 13.97144985198975 74.18894958496094 C 10.06047534942627 70.27797698974609 6.99007511138916 65.72411346435547 4.845550060272217 60.65387344360352 C 2.625600099563599 55.40533828735352 1.500000238418579 49.82915115356445 1.500000238418579 44.0802001953125 C 1.500000238418579 38.33124923706055 2.625600099563599 32.75506210327148 4.845550060272217 27.50652503967285 C 6.99007511138916 22.43628692626953 10.06047534942627 17.88242530822754 13.97144985198975 13.97144985198975 C 17.88242530822754 10.06047534942627 22.43628692626953 6.99007511138916 27.50652503967285 4.845550060272217 C 32.75506210327148 2.625600099563599 38.33124923706055 1.500000238418579 44.0802001953125 1.500000238418579 C 49.82915115356445 1.500000238418579 55.40533828735352 2.625600099563599 60.65387344360352 4.845550060272217 C 65.72411346435547 6.99007511138916 70.27797698974609 10.06047534942627 74.18894958496094 13.97144985198975 C 78.09992218017578 17.88242530822754 81.17032623291016 22.43628692626953 83.31484985351562 27.50652503967285 C 85.53479766845703 32.75506210327148 86.660400390625 38.33124923706055 86.660400390625 44.0802001953125 C 86.660400390625 49.82915115356445 85.53479766845703 55.40533828735352 83.31484985351562 60.65387344360352 C 81.17032623291016 65.72411346435547 78.09992218017578 70.27797698974609 74.18894958496094 74.18894958496094 C 70.27797698974609 78.09992218017578 65.72411346435547 81.17032623291016 60.65387344360352 83.31484985351562 C 55.40533828735352 85.53479766845703 49.82915115356445 86.660400390625 44.0802001953125 86.660400390625 Z" stroke="none"/>
                              <path d="M 44.0802001953125 3 C 38.53308486938477 3 33.15349960327148 4.085746765136719 28.09085845947266 6.227058410644531 C 23.19941711425781 8.29595947265625 18.80581665039062 11.25841522216797 15.03211212158203 15.03211212158203 C 11.25841522216797 18.80581665039062 8.29595947265625 23.19941711425781 6.227058410644531 28.09085845947266 C 4.085746765136719 33.15349960327148 3 38.53308486938477 3 44.0802001953125 C 3 49.62731552124023 4.085746765136719 55.00691604614258 6.227058410644531 60.06954193115234 C 8.29595947265625 64.96098327636719 11.25841522216797 69.35458374023438 15.03211212158203 73.12828826904297 C 18.80581665039062 76.90198516845703 23.19941711425781 79.86444091796875 28.09085845947266 81.93334197998047 C 33.15349960327148 84.07466125488281 38.53308486938477 85.160400390625 44.0802001953125 85.160400390625 C 49.62731552124023 85.160400390625 55.00691604614258 84.07466125488281 60.06954193115234 81.93334197998047 C 64.96099853515625 79.86444091796875 69.35458374023438 76.90198516845703 73.12828826904297 73.12828826904297 C 76.90198516845703 69.35458374023438 79.86444091796875 64.96099853515625 81.93334197998047 60.06954193115234 C 84.07466125488281 55.00691604614258 85.160400390625 49.62731552124023 85.160400390625 44.0802001953125 C 85.160400390625 38.53308486938477 84.07466125488281 33.15349960327148 81.93334197998047 28.09085845947266 C 79.86444091796875 23.19941711425781 76.90198516845703 18.80581665039062 73.12828826904297 15.03211212158203 C 69.35458374023438 11.25841522216797 64.96098327636719 8.29595947265625 60.06954193115234 6.227058410644531 C 55.00691604614258 4.085746765136719 49.62731552124023 3 44.0802001953125 3 M 44.0802001953125 0 C 68.42502593994141 0 88.160400390625 19.73538970947266 88.160400390625 44.0802001953125 C 88.160400390625 68.42502593994141 68.42502593994141 88.160400390625 44.0802001953125 88.160400390625 C 19.73538970947266 88.160400390625 0 68.42502593994141 0 44.0802001953125 C 0 19.73538970947266 19.73538970947266 0 44.0802001953125 0 Z" stroke="none" fill="#0b47db"/>
                            </g>
                          </g>
                        </g>
                      </g>
                    </g>
                  </g>
                </g>
              </g>
            </g>
          </g>
        </g>
      </g>
    </g>
    <g id="certificado" transform="translate(598.423 2234.436)">
      <g id="Grupo_1234631" data-name="Grupo 1234631" transform="translate(38.085 16)">
        <path id="Trazado_1224368" data-name="Trazado 1224368" d="M70.311,64.97a6.516,6.516,0,0,0,6.456,5.813h3.9a.9.9,0,0,1,.9.9v3.05a.9.9,0,0,1-.9.9h-30.8a.9.9,0,0,1-.9-.9v-3.05a.9.9,0,0,1,.9-.9h3.9a6.516,6.516,0,0,0,6.456-5.813H41.12a3.042,3.042,0,0,1-3.035-3.035V28.706a3.042,3.042,0,0,1,3.035-3.035H45.91V16.683A.683.683,0,0,1,46.593,16H76.436a.681.681,0,0,1,.489.206l7.269,7.269a.681.681,0,0,1,.21.493v1.7h4.789a3.042,3.042,0,0,1,3.035,3.035V61.935a3.042,3.042,0,0,1-3.035,3.035Z" transform="translate(-38.085 -16)" fill-rule="evenodd"/>
        <path id="Trazado_1224369" data-name="Trazado 1224369" d="M324.061,229.986a1.07,1.07,0,0,0-1.615,0,2.914,2.914,0,0,1-2.121.571,1.833,1.833,0,0,0-.8.067,1.811,1.811,0,0,0-.443.661,2.75,2.75,0,0,1-1.549,1.549,1.81,1.81,0,0,0-.66.443,1.829,1.829,0,0,0-.067.8,2.911,2.911,0,0,1-.571,2.121,1.07,1.07,0,0,0,0,1.615,2.912,2.912,0,0,1,.571,2.121,1.83,1.83,0,0,0,.068.8,1.809,1.809,0,0,0,.66.443,2.734,2.734,0,0,1,1.549,1.549,1.9,1.9,0,0,0,.443.66,1.829,1.829,0,0,0,.8.067,3.629,3.629,0,0,1,1.126.078,3.741,3.741,0,0,1,.995.493,1.07,1.07,0,0,0,1.615,0,3.741,3.741,0,0,1,.995-.493,3.623,3.623,0,0,1,1.126-.078.923.923,0,0,0,1.245-.728,2.75,2.75,0,0,1,1.549-1.549,1.807,1.807,0,0,0,.66-.443,1.829,1.829,0,0,0,.067-.8,2.911,2.911,0,0,1,.571-2.121,1.07,1.07,0,0,0,0-1.615,2.915,2.915,0,0,1-.571-2.121.924.924,0,0,0-.728-1.245,2.75,2.75,0,0,1-1.549-1.549,1.806,1.806,0,0,0-.443-.661,1.976,1.976,0,0,0-.8-.068,2.912,2.912,0,0,1-2.121-.571Zm-.808,1.948a5.073,5.073,0,1,1-3.587,1.486,5.073,5.073,0,0,1,3.587-1.486Z" transform="translate(-281.355 -203.08)" fill="#fcc16d" fill-rule="evenodd"/>
        <path id="Trazado_1224370" data-name="Trazado 1224370" d="M144.769,50.8a2.835,2.835,0,0,1,1.533.581,1.664,1.664,0,0,0,1.347.363l.175-.006V34.278h-6.691a.683.683,0,0,1-.683-.683v-6.6h-17V34.73a.683.683,0,0,1-1.214.428l-2.2-2.45L117.8,35.187a.683.683,0,0,1-1.189-.456V26.993h-4.554v38.06h26.58c-.069-.037-.141-.073-.212-.11a2.633,2.633,0,0,1-1.215-.971,2.664,2.664,0,0,1-.254-1.538,1.664,1.664,0,0,0-.363-1.347,2.312,2.312,0,0,1,0-3.066,1.664,1.664,0,0,0,.363-1.347,2.664,2.664,0,0,1,.254-1.538,2.633,2.633,0,0,1,1.215-.971,1.521,1.521,0,0,0,.951-.952A2.635,2.635,0,0,1,140.351,52a2.663,2.663,0,0,1,1.538-.254,1.666,1.666,0,0,0,1.347-.363A2.835,2.835,0,0,1,144.769,50.8Zm-28.918,8.349a.683.683,0,0,1,0-1.366h17.7a.683.683,0,0,1,0,1.366Zm0-4.352a.683.683,0,0,1,0-1.366h17.7a.683.683,0,0,1,0,1.366Zm0-13.057a.683.683,0,1,1,0-1.366h10.9a.683.683,0,1,1,0,1.366Zm0,4.352a.683.683,0,1,1,0-1.366h4.655a.683.683,0,0,1,0,1.366Zm0,4.352a.683.683,0,0,1,0-1.366h24.877a.683.683,0,0,1,0,1.366Zm7.791-4.352a.683.683,0,0,1,0-1.366h20.172a.683.683,0,1,1,0,1.366Z" transform="translate(-102.871 -25.627)" fill="#fff" fill-rule="evenodd"/>
        <path id="Trazado_1224371" data-name="Trazado 1224371" d="M351.818,260.33a3.708,3.708,0,1,0,1.086,2.622A3.708,3.708,0,0,0,351.818,260.33Zm-4.642,3.131a.679.679,0,1,1,.848-1.062l.734.587,1.571-1.466a.681.681,0,1,1,.928,1l-2,1.865a.68.68,0,0,1-.887.033Z" transform="translate(-307.298 -229.025)" fill="#fcb34e" fill-rule="evenodd"/>
        <path id="Trazado_1224372" data-name="Trazado 1224372" d="M410.931,120.172a2.64,2.64,0,0,1,.969,1.214,1.521,1.521,0,0,0,.952.951,2.635,2.635,0,0,1,1.215.971,2.663,2.663,0,0,1,.254,1.538,1.667,1.667,0,0,0,.363,1.348,2.313,2.313,0,0,1,0,3.066,1.664,1.664,0,0,0-.363,1.347,2.664,2.664,0,0,1-.254,1.538,2.633,2.633,0,0,1-1.215.971,1.873,1.873,0,0,0-.665.451l1.485,3.648h3.719V106.506a1.676,1.676,0,0,0-1.67-1.67h-4.79Z" transform="translate(-364.612 -93.8)" fill="#f3f5fb" fill-rule="evenodd"/>
        <path id="Trazado_1224373" data-name="Trazado 1224373" d="M395.175,347.624a1.785,1.785,0,0,1-.367.285,2.664,2.664,0,0,1-1.538.254,2.5,2.5,0,0,0-.747.038l1.142,2.8.36-1.246a.681.681,0,0,1,.989-.4l1.127.639Z" transform="translate(-348.491 -306.426)" fill="#fcb34e" fill-rule="evenodd"/>
        <path id="Trazado_1224374" data-name="Trazado 1224374" d="M366.913,357.678a1.981,1.981,0,0,1-1.869,0l-.394.968h2.658Z" transform="translate(-324.081 -315.231)" fill="#f3f5fb" fill-rule="evenodd"/>
        <path id="Trazado_1224375" data-name="Trazado 1224375" d="M332.67,348.2l-.026-.008a2.724,2.724,0,0,0-.721-.03,2.666,2.666,0,0,1-1.538-.254,1.792,1.792,0,0,1-.367-.285L329.053,350a8.665,8.665,0,0,1,1.273-.7.68.68,0,0,1,.843.464l.36,1.246Z" transform="translate(-292.906 -306.426)" fill="#fcb34e" fill-rule="evenodd"/>
        <path id="Trazado_1224376" data-name="Trazado 1224376" d="M159.71,26.993v5.958l1.541-1.715a.683.683,0,0,1,1.016,0l1.544,1.718V26.993Z" transform="translate(-144.6 -25.627)" fill="#fcb34e" fill-rule="evenodd"/>
        <path id="Trazado_1224377" data-name="Trazado 1224377" d="M49.078,137.215H82.45l1.068-2.623H56.22a.683.683,0,0,1-.683-.683V104.836H50.748a1.676,1.676,0,0,0-1.67,1.67Z" transform="translate(-47.712 -93.8)" fill="#f3f5fb" fill-rule="evenodd"/>
        <path id="Trazado_1224378" data-name="Trazado 1224378" d="M81.894,374.77H49.078v1.155a1.676,1.676,0,0,0,1.67,1.67H98.82a1.676,1.676,0,0,0,1.67-1.67V374.77H97.327l.037.1a.682.682,0,0,1-.967.848l-2.084-1.183-.652,2.256a.683.683,0,0,1-1.3.114l-.867-2.13H87.726l-.867,2.13a.683.683,0,0,1-1.3-.114l-.652-2.256-2.085,1.183a.682.682,0,0,1-.967-.848Z" transform="translate(-47.712 -329.99)" fill="#a6a6a6" fill-rule="evenodd"/>
        <path id="Trazado_1224379" data-name="Trazado 1224379" d="M214.019,416a7.938,7.938,0,0,1-1.136-.942,7.842,7.842,0,0,1-2.278-4.871h-7.344a7.842,7.842,0,0,1-2.278,4.871,7.933,7.933,0,0,1-1.136.942Z" transform="translate(-179.751 -361.218)" fill="#7a7a7b" fill-rule="evenodd"/>
      </g>
      <path id="Trazado_1224380" data-name="Trazado 1224380" d="M136.7,467.976h29.862v2.116H136.7Z" transform="translate(-86.36 -395.827)" fill="#7a7a7b"/>
      <path id="Trazado_1224381" data-name="Trazado 1224381" d="M351.574,34.051v5.043h5.043Z" transform="translate(-274.544 -15.809)" fill="#7a7a7b" fill-rule="evenodd"/>
    </g>
  </g>
</svg>
