<svg xmlns="http://www.w3.org/2000/svg" xmlns:xlink="http://www.w3.org/1999/xlink" width="106.16" height="106.16" viewBox="0 0 106.16 106.16">
  <defs>
    <filter id="Trazado_982547" x="0" y="0" width="106.16" height="106.16" filterUnits="userSpaceOnUse">
      <feOffset dy="3" input="SourceAlpha"/>
      <feGaussianBlur stdDeviation="3" result="blur"/>
      <feFlood flood-opacity="0.161"/>
      <feComposite operator="in" in2="blur"/>
      <feComposite in="SourceGraphic"/>
    </filter>
  </defs>
  <g id="Grupo_1234555" data-name="Grupo 1234555" transform="translate(-190.75 -3421.602)">
    <g id="Grupo_1234359" data-name="Grupo 1234359" transform="translate(0 -3340.065)">
      <g id="Grupo_1230958" data-name="Grupo 1230958" transform="translate(0 -511.747)">
        <g id="Grupo_1230691" data-name="Grupo 1230691" transform="translate(-0.25 3811.95)">
          <g id="Grupo_1224851" data-name="Grupo 1224851" transform="translate(0 1738.464)">
            <g id="Grupo_1206130" data-name="Grupo 1206130" transform="translate(0 -59)">
              <g id="Grupo_1203672" data-name="Grupo 1203672" transform="translate(0.08 -4797.878)">
                <g id="Grupo_1203344" data-name="Grupo 1203344" transform="translate(-81.08 5174.875)">
                  <g id="Grupo_1177900" data-name="Grupo 1177900" transform="translate(281 1411.003)">
                    <g id="Grupo_1172010" data-name="Grupo 1172010" transform="translate(0)">
                      <g id="Grupo_1171046" data-name="Grupo 1171046">
                        <g id="Grupo_1148525" data-name="Grupo 1148525">
                          <g transform="matrix(1, 0, 0, 1, -9, -6)" filter="url(#Trazado_982547)">
                            <g id="Trazado_982547-2" data-name="Trazado 982547" transform="translate(9 6)" fill="#e5ebfb">
                              <path d="M 44.0802001953125 86.660400390625 C 38.33124923706055 86.660400390625 32.75506210327148 85.53479766845703 27.50652503967285 83.31484985351562 C 22.43628692626953 81.17032623291016 17.88242530822754 78.09992218017578 13.97144985198975 74.18894958496094 C 10.06047534942627 70.27797698974609 6.99007511138916 65.72411346435547 4.845550060272217 60.65387344360352 C 2.625600099563599 55.40533828735352 1.500000238418579 49.82915115356445 1.500000238418579 44.0802001953125 C 1.500000238418579 38.33124923706055 2.625600099563599 32.75506210327148 4.845550060272217 27.50652503967285 C 6.99007511138916 22.43628692626953 10.06047534942627 17.88242530822754 13.97144985198975 13.97144985198975 C 17.88242530822754 10.06047534942627 22.43628692626953 6.99007511138916 27.50652503967285 4.845550060272217 C 32.75506210327148 2.625600099563599 38.33124923706055 1.500000238418579 44.0802001953125 1.500000238418579 C 49.82915115356445 1.500000238418579 55.40533828735352 2.625600099563599 60.65387344360352 4.845550060272217 C 65.72411346435547 6.99007511138916 70.27797698974609 10.06047534942627 74.18894958496094 13.97144985198975 C 78.09992218017578 17.88242530822754 81.17032623291016 22.43628692626953 83.31484985351562 27.50652503967285 C 85.53479766845703 32.75506210327148 86.660400390625 38.33124923706055 86.660400390625 44.0802001953125 C 86.660400390625 49.82915115356445 85.53479766845703 55.40533828735352 83.31484985351562 60.65387344360352 C 81.17032623291016 65.72411346435547 78.09992218017578 70.27797698974609 74.18894958496094 74.18894958496094 C 70.27797698974609 78.09992218017578 65.72411346435547 81.17032623291016 60.65387344360352 83.31484985351562 C 55.40533828735352 85.53479766845703 49.82915115356445 86.660400390625 44.0802001953125 86.660400390625 Z" stroke="none"/>
                              <path d="M 44.0802001953125 3 C 38.53308486938477 3 33.15349960327148 4.085746765136719 28.09085845947266 6.227058410644531 C 23.19941711425781 8.29595947265625 18.80581665039062 11.25841522216797 15.03211212158203 15.03211212158203 C 11.25841522216797 18.80581665039062 8.29595947265625 23.19941711425781 6.227058410644531 28.09085845947266 C 4.085746765136719 33.15349960327148 3 38.53308486938477 3 44.0802001953125 C 3 49.62731552124023 4.085746765136719 55.00691604614258 6.227058410644531 60.06954193115234 C 8.29595947265625 64.96098327636719 11.25841522216797 69.35458374023438 15.03211212158203 73.12828826904297 C 18.80581665039062 76.90198516845703 23.19941711425781 79.86444091796875 28.09085845947266 81.93334197998047 C 33.15349960327148 84.07466125488281 38.53308486938477 85.160400390625 44.0802001953125 85.160400390625 C 49.62731552124023 85.160400390625 55.00691604614258 84.07466125488281 60.06954193115234 81.93334197998047 C 64.96099853515625 79.86444091796875 69.35458374023438 76.90198516845703 73.12828826904297 73.12828826904297 C 76.90198516845703 69.35458374023438 79.86444091796875 64.96099853515625 81.93334197998047 60.06954193115234 C 84.07466125488281 55.00691604614258 85.160400390625 49.62731552124023 85.160400390625 44.0802001953125 C 85.160400390625 38.53308486938477 84.07466125488281 33.15349960327148 81.93334197998047 28.09085845947266 C 79.86444091796875 23.19941711425781 76.90198516845703 18.80581665039062 73.12828826904297 15.03211212158203 C 69.35458374023438 11.25841522216797 64.96098327636719 8.29595947265625 60.06954193115234 6.227058410644531 C 55.00691604614258 4.085746765136719 49.62731552124023 3 44.0802001953125 3 M 44.0802001953125 0 C 68.42502593994141 0 88.160400390625 19.73538970947266 88.160400390625 44.0802001953125 C 88.160400390625 68.42502593994141 68.42502593994141 88.160400390625 44.0802001953125 88.160400390625 C 19.73538970947266 88.160400390625 0 68.42502593994141 0 44.0802001953125 C 0 19.73538970947266 19.73538970947266 0 44.0802001953125 0 Z" stroke="none" fill="#0b47db"/>
                            </g>
                          </g>
                        </g>
                      </g>
                    </g>
                  </g>
                </g>
              </g>
            </g>
          </g>
        </g>
      </g>
    </g>
    <g id="relacional_2_" data-name="relacional (2)" transform="translate(215.748 3444.395)">
      <g id="Grupo_1234553" data-name="Grupo 1234553" transform="translate(1.874 1.874)">
        <g id="Grupo_1234539" data-name="Grupo 1234539" transform="translate(0 6.989)">
          <path id="Trazado_1223854" data-name="Trazado 1223854" d="M2,18.736V10H22.967v8.736a1.752,1.752,0,0,1-1.747,1.747H3.747A1.752,1.752,0,0,1,2,18.736Z" transform="translate(-2 -10)" fill="#e6e9ed"/>
        </g>
        <g id="Grupo_1234540" data-name="Grupo 1234540" transform="translate(0 29.704)">
          <path id="Trazado_1223855" data-name="Trazado 1223855" d="M22.967,36v8.736a1.752,1.752,0,0,1-1.747,1.747H3.747A1.752,1.752,0,0,1,2,44.736V36Z" transform="translate(-2 -36)" fill="#e6e9ed"/>
        </g>
        <g id="Grupo_1234541" data-name="Grupo 1234541" transform="translate(30.577 41.934)">
          <path id="Trazado_1223856" data-name="Trazado 1223856" d="M57.967,50v8.736a1.752,1.752,0,0,1-1.747,1.747H38.747A1.752,1.752,0,0,1,37,58.736V50Z" transform="translate(-37 -50)" fill="#e6e9ed"/>
        </g>
        <g id="Grupo_1234542" data-name="Grupo 1234542">
          <path id="Trazado_1223857" data-name="Trazado 1223857" d="M2,8.989V3.747A1.752,1.752,0,0,1,3.747,2H21.22a1.752,1.752,0,0,1,1.747,1.747V8.989Z" transform="translate(-2 -2)" fill="#5cd6b3"/>
        </g>
        <g id="Grupo_1234543" data-name="Grupo 1234543" transform="translate(0 22.714)">
          <path id="Trazado_1223858" data-name="Trazado 1223858" d="M22.967,33.242v1.747H2V29.747A1.752,1.752,0,0,1,3.747,28H21.22a1.752,1.752,0,0,1,1.747,1.747Z" transform="translate(-2 -28)" fill="#5cd6b3"/>
        </g>
        <g id="Grupo_1234544" data-name="Grupo 1234544" transform="translate(30.577 34.945)">
          <path id="Trazado_1223859" data-name="Trazado 1223859" d="M37,48.989V43.747A1.752,1.752,0,0,1,38.747,42H56.22a1.752,1.752,0,0,1,1.747,1.747v5.242Z" transform="translate(-37 -42)" fill="#5cd6b3"/>
        </g>
        <g id="Grupo_1234545" data-name="Grupo 1234545" transform="translate(13.978 10.484)">
          <path id="Trazado_1223860" data-name="Trazado 1223860" d="M18,14h3.495v3.495H18Z" transform="translate(-18 -14)" fill="#ff826e"/>
        </g>
        <g id="Grupo_1234546" data-name="Grupo 1234546" transform="translate(34.072 45.429)">
          <ellipse id="Elipse_13867" data-name="Elipse 13867" cx="1.5" cy="2" rx="1.5" ry="2" transform="translate(0.055 -0.302)" fill="#ff826e"/>
        </g>
        <g id="Grupo_1234547" data-name="Grupo 1234547" transform="translate(29.704 13.105)">
          <path id="Trazado_1223861" data-name="Trazado 1223861" d="M58.714,17v5.242c0,1.45-5.085,2.621-11.357,2.621S36,23.692,36,22.242V17c0,1.45,5.085,2.621,11.357,2.621S58.714,18.45,58.714,17Z" transform="translate(-36 -17)" fill="#fcd770"/>
        </g>
        <g id="Grupo_1234548" data-name="Grupo 1234548" transform="translate(29.704 2.621)">
          <path id="Trazado_1223862" data-name="Trazado 1223862" d="M58.714,5v5.242c0,1.45-5.085,2.621-11.357,2.621S36,11.692,36,10.242V5c0,1.45,5.085,2.621,11.357,2.621S58.714,6.45,58.714,5Z" transform="translate(-36 -5)" fill="#fcd770"/>
        </g>
        <g id="Grupo_1234549" data-name="Grupo 1234549" transform="translate(29.704 7.863)">
          <path id="Trazado_1223863" data-name="Trazado 1223863" d="M36,11c0,1.45,5.085,2.621,11.357,2.621S58.714,12.45,58.714,11v5.242c0,1.45-5.085,2.621-11.357,2.621S36,17.692,36,16.242V11Z" transform="translate(-36 -11)" fill="#ffeaa7"/>
        </g>
        <g id="Grupo_1234550" data-name="Grupo 1234550" transform="translate(29.704)">
          <ellipse id="Elipse_13868" data-name="Elipse 13868" cx="11" cy="2.5" rx="11" ry="2.5" transform="translate(0.423 0.126)" fill="#ffeaa7"/>
        </g>
        <g id="Grupo_1234551" data-name="Grupo 1234551" transform="translate(8.736 43.682)">
          <circle id="Elipse_13869" data-name="Elipse 13869" cx="1.5" cy="1.5" r="1.5" transform="translate(0.39 0.445)" fill="#ff826e"/>
        </g>
        <g id="Grupo_1234552" data-name="Grupo 1234552" transform="translate(39.314 26.209)">
          <circle id="Elipse_13870" data-name="Elipse 13870" cx="2" cy="2" r="2" transform="translate(-0.187 -0.083)" fill="#ff826e"/>
        </g>
      </g>
      <g id="Grupo_1234554" data-name="Grupo 1234554" transform="translate(1 1)">
        <path id="Trazado_1223864" data-name="Trazado 1223864" d="M42.934,1C41.682,1,30.7,1.1,30.7,4.495V9.736H23.714V3.621A2.624,2.624,0,0,0,21.094,1H3.621A2.624,2.624,0,0,0,1,3.621V17.6A2.624,2.624,0,0,0,3.621,20.22h7.863v3.495H3.621A2.624,2.624,0,0,0,1,26.335V40.314a2.624,2.624,0,0,0,2.621,2.621h7.863v1.908a2.615,2.615,0,1,0,3.334,3.334h16.76v4.368A2.624,2.624,0,0,0,34.2,55.165H51.671a2.624,2.624,0,0,0,2.621-2.621V38.566a2.624,2.624,0,0,0-2.621-2.621H43.808V32.29a2.606,2.606,0,0,0,0-4.92V23.7c2.929-.065,11.357-.508,11.357-3.484V4.495C55.165,1.1,44.186,1,42.934,1ZM53.418,9.669c-.424.662-4.221,1.815-10.484,1.815s-10.06-1.152-10.484-1.815V6.479C35.6,7.934,42,7.989,42.934,7.989s7.332-.055,10.484-1.511Zm0,5.242c-.424.662-4.221,1.815-10.484,1.815s-10.06-1.152-10.484-1.815V11.72C35.6,13.176,42,13.231,42.934,13.231s7.332-.055,10.484-1.511ZM42.934,2.747c6.054,0,9.81,1.077,10.436,1.747-.626.67-4.381,1.747-10.436,1.747S33.124,5.165,32.5,4.495C33.124,3.824,36.88,2.747,42.934,2.747Zm-39.314,0H21.094a.874.874,0,0,1,.874.874V7.989H2.747V3.621A.874.874,0,0,1,3.621,2.747ZM2.747,17.6V9.736h19.22V17.6a.874.874,0,0,1-.874.874H3.621A.874.874,0,0,1,2.747,17.6ZM13.231,20.22h7.863A2.624,2.624,0,0,0,23.714,17.6V11.484H30.7V20.22c0,2.976,8.428,3.419,11.357,3.484V27.37a2.618,2.618,0,0,0-1.587,1.587H23.714V26.335a2.624,2.624,0,0,0-2.621-2.621H13.231Zm-9.61,5.242H21.094a.874.874,0,0,1,.874.874V30.7H2.747V26.335A.874.874,0,0,1,3.621,25.462ZM2.747,40.314V32.451h19.22v7.863a.874.874,0,0,1-.874.874H3.621A.874.874,0,0,1,2.747,40.314Zm9.61,7.863a.874.874,0,1,1,.874-.874A.874.874,0,0,1,12.357,48.176Zm39.314,5.242H34.2a.874.874,0,0,1-.874-.874V44.682h19.22v7.863A.874.874,0,0,1,51.671,53.418Zm.874-14.852v4.368H33.324V38.566a.874.874,0,0,1,.874-.874H51.671A.874.874,0,0,1,52.544,38.566ZM34.2,35.945a2.624,2.624,0,0,0-2.621,2.621v7.863H14.817a2.618,2.618,0,0,0-1.587-1.587V42.934h7.863a2.624,2.624,0,0,0,2.621-2.621V30.7h16.76a2.618,2.618,0,0,0,1.587,1.587v3.655ZM42.934,30.7a.874.874,0,1,1,.874-.874A.874.874,0,0,1,42.934,30.7Zm0-8.736c-6.238,0-10.034-1.144-10.484-1.807v-3.2C35.6,18.418,42,18.473,42.934,18.473s7.332-.055,10.484-1.511v3.2C52.968,20.824,49.172,21.967,42.934,21.967Z" transform="translate(-1 -1)"/>
        <path id="Trazado_1223865" data-name="Trazado 1223865" d="M13,5h1.747V6.747H13Z" transform="translate(-2.516 -1.505)"/>
        <path id="Trazado_1223866" data-name="Trazado 1223866" d="M9,5h1.747V6.747H9Z" transform="translate(-2.011 -1.505)"/>
        <path id="Trazado_1223867" data-name="Trazado 1223867" d="M5,5H6.747V6.747H5Z" transform="translate(-1.505 -1.505)"/>
        <path id="Trazado_1223868" data-name="Trazado 1223868" d="M13,31h1.747v1.747H13Z" transform="translate(-2.516 -4.791)"/>
        <path id="Trazado_1223869" data-name="Trazado 1223869" d="M5,31H6.747v1.747H5Z" transform="translate(-1.505 -4.791)"/>
        <path id="Trazado_1223870" data-name="Trazado 1223870" d="M9,31h1.747v1.747H9Z" transform="translate(-2.011 -4.791)"/>
        <path id="Trazado_1223871" data-name="Trazado 1223871" d="M44,45h1.747v1.747H44Z" transform="translate(-6.434 -6.56)"/>
        <path id="Trazado_1223872" data-name="Trazado 1223872" d="M48,45h1.747v1.747H48Z" transform="translate(-6.939 -6.56)"/>
        <path id="Trazado_1223873" data-name="Trazado 1223873" d="M40,45h1.747v1.747H40Z" transform="translate(-5.928 -6.56)"/>
        <path id="Trazado_1223874" data-name="Trazado 1223874" d="M42.621,53a2.621,2.621,0,1,0,2.621,2.621A2.624,2.624,0,0,0,42.621,53Zm0,3.495a.874.874,0,1,1,.874-.874A.874.874,0,0,1,42.621,56.495Z" transform="translate(-5.928 -7.571)"/>
        <path id="Trazado_1223875" data-name="Trazado 1223875" d="M48,53h8.736v1.747H48Z" transform="translate(-6.939 -7.571)"/>
        <path id="Trazado_1223876" data-name="Trazado 1223876" d="M48,57h5.242v1.747H48Z" transform="translate(-6.939 -8.077)"/>
        <path id="Trazado_1223877" data-name="Trazado 1223877" d="M56,57h1.747v1.747H56Z" transform="translate(-7.95 -8.077)"/>
        <path id="Trazado_1223878" data-name="Trazado 1223878" d="M5,39H6.747v1.747H5Z" transform="translate(-1.505 -5.802)"/>
        <path id="Trazado_1223879" data-name="Trazado 1223879" d="M9,39H21.231v1.747H9Z" transform="translate(-2.011 -5.802)"/>
        <path id="Trazado_1223880" data-name="Trazado 1223880" d="M5,43H20.725v1.747H5Z" transform="translate(-1.505 -6.307)"/>
        <path id="Trazado_1223881" data-name="Trazado 1223881" d="M17,18.242h5.242V13H17Zm1.747-3.495h1.747v1.747H18.747Z" transform="translate(-3.022 -2.516)"/>
        <path id="Trazado_1223882" data-name="Trazado 1223882" d="M5,13h8.736v1.747H5Z" transform="translate(-1.505 -2.516)"/>
        <path id="Trazado_1223883" data-name="Trazado 1223883" d="M5,17h5.242v1.747H5Z" transform="translate(-1.505 -3.022)"/>
        <path id="Trazado_1223884" data-name="Trazado 1223884" d="M13,17h1.747v1.747H13Z" transform="translate(-2.516 -3.022)"/>
      </g>
    </g>
  </g>
</svg>
